  0
SECTION
  2
HEADER
  9
$ANGBASE
  50
0.0
  9
$ANGDIR
  70
1
  9
$MEASUREMENT
  70
1
  0
ENDSEC
  0
SECTION
  2
TABLES
  0
TABLE
  2
LTYPE
  70
4
  0
LTYPE
  5
40F
  2
CONTINUOUS
  70
0
  3
Solid line
  72
65
  73
0
  40
0.0
  0
LTYPE
  5
410
  2
DASHDOT
 70
0
  3
Dash Dot ____ _ ____ _
 72
65
 73
4
 40
2.0
 49
1.25
 49
-0.25
 49
0.25
 49
-0.25
  0
LTYPE
  5
411
  2
DASHED
 70
0
  3
Dashed __ __ __ __ __
 72
65
 73
2
 40
0.75
 49
0.5
 49
-0.25
  0
LTYPE
  5
43B
  2
DOTTED
 70
0
  3
Dotted .  .  .  .
 72
65
 73
2
 40
0.2
 49
0.0
 49
-0.2
  0
ENDTAB
  0
TABLE
  2
STYLE
  70
4
  0
STYLE
  2
KICAD
  70
0
  40
0
  41
1
  42
1
  50
0
  71
0
  3
isocp.shx
  0
STYLE
  2
KICADB
  70
0
  40
0
  41
1
  42
1
  50
0
  71
0
  3
isocp.shx
  0
STYLE
  2
KICADI
  70
0
  40
0
  41
1
  42
1
  50
15
  71
0
  3
isocp.shx
  0
STYLE
  2
KICADBI
  70
0
  40
0
  41
1
  42
1
  50
15
  71
0
  3
isocp.shx
  0
ENDTAB
  0
TABLE
  2
LAYER
  70
1
  0
LAYER
  2
BLACK
  70
0
  62
7
  6
CONTINUOUS
  0
ENDTAB
  0
ENDSEC
  0
SECTION
  2
ENTITIES
0
LINE
8
BLACK
6
CONTINUOUS
10
159.5002409999999884
20
-31.5005089999999974
11
159.9536659999999983
21
-31.5192639999999997
0
LINE
8
BLACK
6
CONTINUOUS
10
159.9536659999999983
20
-31.5192639999999997
11
159.954607999999979
21
-31.5193409999999972
0
LINE
8
BLACK
6
CONTINUOUS
10
159.954607999999979
20
-31.5193409999999972
11
160.4047390000000064
21
-31.57545
0
LINE
8
BLACK
6
CONTINUOUS
10
160.4047390000000064
20
-31.57545
11
160.4056410000000028
21
-31.5755999999999979
0
LINE
8
BLACK
6
CONTINUOUS
10
160.4056410000000028
20
-31.5755999999999979
11
160.8495989999999836
21
-31.668688999999997
0
LINE
8
BLACK
6
CONTINUOUS
10
160.8495989999999836
20
-31.668688999999997
11
160.8504800000000046
21
-31.6689119999999988
0
LINE
8
BLACK
6
CONTINUOUS
10
160.8504800000000046
20
-31.6689119999999988
11
161.2852419999999825
21
-31.7983459999999987
0
LINE
8
BLACK
6
CONTINUOUS
10
161.2852419999999825
20
-31.7983459999999987
11
161.286122000000006
21
-31.798648
0
LINE
8
BLACK
6
CONTINUOUS
10
161.286122000000006
20
-31.798648
11
161.7086779999999919
21
-31.9635309999999997
0
LINE
8
BLACK
6
CONTINUOUS
10
161.7086779999999919
20
-31.9635309999999997
11
161.7095319999999958
21
-31.9639039999999994
0
LINE
8
BLACK
6
CONTINUOUS
10
161.7095319999999958
20
-31.9639039999999994
11
162.1170639999999992
21
-32.1631339999999994
0
LINE
8
BLACK
6
CONTINUOUS
10
162.1170639999999992
20
-32.1631339999999994
11
162.1178740000000005
21
-32.1635729999999995
0
LINE
8
BLACK
6
CONTINUOUS
10
162.1178740000000005
20
-32.1635729999999995
11
162.507536999999985
21
-32.3957619999999977
0
LINE
8
BLACK
6
CONTINUOUS
10
162.507536999999985
20
-32.3957619999999977
11
162.5083290000000034
21
-32.3962799999999973
0
LINE
8
BLACK
6
CONTINUOUS
10
162.5083290000000034
20
-32.3962799999999973
11
162.8774829999999838
21
-32.6598499999999987
0
LINE
8
BLACK
6
CONTINUOUS
10
162.8774829999999838
20
-32.6598499999999987
11
162.8782269999999812
21
-32.6604299999999981
0
LINE
8
BLACK
6
CONTINUOUS
10
162.8782269999999812
20
-32.6604299999999981
11
163.2243369999999913
21
-32.9535699999999991
0
LINE
8
BLACK
6
CONTINUOUS
10
163.2243369999999913
20
-32.9535699999999991
11
163.2250369999999862
21
-32.9542129999999958
0
LINE
8
BLACK
6
CONTINUOUS
10
163.2250369999999862
20
-32.9542129999999958
11
163.5457859999999926
21
-33.274961999999995
0
LINE
8
BLACK
6
CONTINUOUS
10
163.5457859999999926
20
-33.274961999999995
11
163.5464289999999892
21
-33.275661999999997
0
LINE
8
BLACK
6
CONTINUOUS
10
163.5464289999999892
20
-33.275661999999997
11
163.8395689999999831
21
-33.621772
0
LINE
8
BLACK
6
CONTINUOUS
10
163.8395689999999831
20
-33.621772
11
163.8401529999999866
21
-33.6225219999999965
0
LINE
8
BLACK
6
CONTINUOUS
10
163.8401529999999866
20
-33.6225219999999965
11
164.103716999999989
21
-33.9916669999999996
0
LINE
8
BLACK
6
CONTINUOUS
10
164.103716999999989
20
-33.9916669999999996
11
164.1042369999999835
21
-33.9924619999999962
0
LINE
8
BLACK
6
CONTINUOUS
10
164.1042369999999835
20
-33.9924619999999962
11
164.3364190000000065
21
-34.3821119999999993
0
LINE
8
BLACK
6
CONTINUOUS
10
164.3364190000000065
20
-34.3821119999999993
11
164.3368719999999996
21
-34.382947999999999
0
LINE
8
BLACK
6
CONTINUOUS
10
164.3368719999999996
20
-34.382947999999999
11
164.536090999999999
21
-34.7904589999999985
0
LINE
8
BLACK
6
CONTINUOUS
10
164.536090999999999
20
-34.7904589999999985
11
164.5364720000000034
21
-34.791329999999995
0
LINE
8
BLACK
6
CONTINUOUS
10
164.5364720000000034
20
-34.791329999999995
11
164.7013469999999984
21
-35.2138670000000005
0
LINE
8
BLACK
6
CONTINUOUS
10
164.7013469999999984
20
-35.2138670000000005
11
164.7016559999999856
21
-35.2147659999999973
0
LINE
8
BLACK
6
CONTINUOUS
10
164.7016559999999856
20
-35.2147659999999973
11
164.8310819999999808
21
-35.6494989999999987
0
LINE
8
BLACK
6
CONTINUOUS
10
164.8310819999999808
20
-35.6494989999999987
11
164.8313149999999894
21
-35.6504199999999969
0
LINE
8
BLACK
6
CONTINUOUS
10
164.8313149999999894
20
-35.6504199999999969
11
164.9243950000000041
21
-36.0943399999999954
0
LINE
8
BLACK
6
CONTINUOUS
10
164.9243950000000041
20
-36.0943399999999954
11
164.9245520000000056
21
-36.0952780000000004
0
LINE
8
BLACK
6
CONTINUOUS
10
164.9245520000000056
20
-36.0952780000000004
11
164.9806569999999795
21
-36.5453879999999955
0
LINE
8
BLACK
6
CONTINUOUS
10
164.9806569999999795
20
-36.5453879999999955
11
164.9807349999999815
21
-36.5463349999999991
0
LINE
8
BLACK
6
CONTINUOUS
10
164.9807349999999815
20
-36.5463349999999991
11
164.9994899999999802
21
-36.9997579999999999
0
LINE
8
BLACK
6
CONTINUOUS
10
164.9994899999999802
20
-36.9997579999999999
11
164.9994999999999834
21
-37.0002330000000015
0
LINE
8
BLACK
6
CONTINUOUS
10
164.9994999999999834
20
-37.0002330000000015
11
164.9994999999999834
21
-158.9879999999999995
0
LINE
8
BLACK
6
CONTINUOUS
10
164.9994999999999834
20
-158.9879999999999995
11
164.9961319999999887
21
-158.9961319999999887
0
LINE
8
BLACK
6
CONTINUOUS
10
164.9961319999999887
20
-158.9961319999999887
11
164.9879999999999995
21
-158.9994999999999834
0
LINE
8
BLACK
6
CONTINUOUS
10
164.9879999999999995
20
-158.9994999999999834
11
162.5120000000000005
21
-158.9994999999999834
0
LINE
8
BLACK
6
CONTINUOUS
10
162.5120000000000005
20
-158.9994999999999834
11
162.5038679999999829
21
-158.9961319999999887
0
LINE
8
BLACK
6
CONTINUOUS
10
162.5038679999999829
20
-158.9961319999999887
11
162.5004999999999882
21
-158.9879999999999995
0
LINE
8
BLACK
6
CONTINUOUS
10
162.5004999999999882
20
-158.9879999999999995
11
162.5004999999999882
21
-36.8427579999999963
0
LINE
8
BLACK
6
CONTINUOUS
10
162.5004999999999882
20
-36.8427579999999963
11
162.5004999999999882
21
-36.8427499999999952
0
LINE
8
BLACK
6
CONTINUOUS
10
162.5004999999999882
20
-36.8427499999999952
11
162.4676259999999957
21
-36.5299739999999957
0
LINE
8
BLACK
6
CONTINUOUS
10
162.4676259999999957
20
-36.5299739999999957
11
162.4022379999999828
21
-36.2223479999999967
0
LINE
8
BLACK
6
CONTINUOUS
10
162.4022379999999828
20
-36.2223479999999967
11
162.3050529999999867
21
-35.9232409999999973
0
LINE
8
BLACK
6
CONTINUOUS
10
162.3050529999999867
20
-35.9232409999999973
11
162.1771339999999952
21
-35.6359319999999968
0
LINE
8
BLACK
6
CONTINUOUS
10
162.1771339999999952
20
-35.6359319999999968
11
162.0488229999999987
21
-35.4136899999999955
0
LINE
8
BLACK
6
CONTINUOUS
10
162.0488229999999987
20
-35.4136899999999955
11
162.0198890000000063
21
-35.3635739999999998
0
LINE
8
BLACK
6
CONTINUOUS
10
162.0198890000000063
20
-35.3635739999999998
11
161.9114459999999838
21
-35.2143149999999991
0
LINE
8
BLACK
6
CONTINUOUS
10
161.9114459999999838
20
-35.2143149999999991
11
161.8350269999999966
21
-35.1091329999999999
0
LINE
8
BLACK
6
CONTINUOUS
10
161.8350269999999966
20
-35.1091329999999999
11
161.8350250000000017
21
-35.1091300000000004
0
LINE
8
BLACK
6
CONTINUOUS
10
161.8350250000000017
20
-35.1091300000000004
11
161.8350230000000067
21
-35.1091279999999983
0
LINE
8
BLACK
6
CONTINUOUS
10
161.8350230000000067
20
-35.1091279999999983
11
161.6245919999999785
21
-34.8754199999999983
0
LINE
8
BLACK
6
CONTINUOUS
10
161.6245919999999785
20
-34.8754199999999983
11
161.6245789999999829
21
-34.8754069999999956
0
LINE
8
BLACK
6
CONTINUOUS
10
161.6245789999999829
20
-34.8754069999999956
11
161.3908710000000042
21
-34.6649759999999958
0
LINE
8
BLACK
6
CONTINUOUS
10
161.3908710000000042
20
-34.6649759999999958
11
161.1364250000000027
21
-34.4801099999999963
0
LINE
8
BLACK
6
CONTINUOUS
10
161.1364250000000027
20
-34.4801099999999963
11
160.8640709999999956
21
-34.3228669999999951
0
LINE
8
BLACK
6
CONTINUOUS
10
160.8640709999999956
20
-34.3228669999999951
11
160.7776929999999993
21
-34.2844089999999966
0
LINE
8
BLACK
6
CONTINUOUS
10
160.7776929999999993
20
-34.2844089999999966
11
160.5767589999999814
21
-34.1949469999999991
0
LINE
8
BLACK
6
CONTINUOUS
10
160.5767589999999814
20
-34.1949469999999991
11
160.4272049999999865
21
-34.1463539999999952
0
LINE
8
BLACK
6
CONTINUOUS
10
160.4272049999999865
20
-34.1463539999999952
11
160.277655999999979
21
-34.0977630000000005
0
LINE
8
BLACK
6
CONTINUOUS
10
160.277655999999979
20
-34.0977630000000005
11
160.2776479999999992
21
-34.0977609999999984
0
LINE
8
BLACK
6
CONTINUOUS
10
160.2776479999999992
20
-34.0977609999999984
11
160.2118679999999813
21
-34.0837789999999998
0
LINE
8
BLACK
6
CONTINUOUS
10
160.2118679999999813
20
-34.0837789999999998
11
159.9700259999999901
21
-34.0323739999999972
0
LINE
8
BLACK
6
CONTINUOUS
10
159.9700259999999901
20
-34.0323739999999972
11
159.9700200000000052
21
-34.0323729999999998
0
LINE
8
BLACK
6
CONTINUOUS
10
159.9700200000000052
20
-34.0323729999999998
11
159.9700139999999919
21
-34.0323719999999952
0
LINE
8
BLACK
6
CONTINUOUS
10
159.9700139999999919
20
-34.0323719999999952
11
159.6572500000000048
21
-33.9994999999999976
0
LINE
8
BLACK
6
CONTINUOUS
10
159.6572500000000048
20
-33.9994999999999976
11
159.565891999999991
21
-33.9994999999999976
0
LINE
8
BLACK
6
CONTINUOUS
10
159.565891999999991
20
-33.9994999999999976
11
39.5658919999999981
21
-33.9994999999999976
0
LINE
8
BLACK
6
CONTINUOUS
10
39.5658919999999981
20
-33.9994999999999976
11
39.5
21
-33.9994999999999976
0
LINE
8
BLACK
6
CONTINUOUS
10
39.5
20
-33.9994999999999976
11
39.3427499999999952
21
-33.9994999999999976
0
LINE
8
BLACK
6
CONTINUOUS
10
39.3427499999999952
20
-33.9994999999999976
11
39.3427489999999977
21
-33.9994999999999976
0
LINE
8
BLACK
6
CONTINUOUS
10
39.3427489999999977
20
-33.9994999999999976
11
39.0299869999999984
21
-34.0323719999999952
0
LINE
8
BLACK
6
CONTINUOUS
10
39.0299869999999984
20
-34.0323719999999952
11
39.0299830000000014
21
-34.0323719999999952
0
LINE
8
BLACK
6
CONTINUOUS
10
39.0299830000000014
20
-34.0323719999999952
11
38.7223509999999962
21
-34.0977609999999984
0
LINE
8
BLACK
6
CONTINUOUS
10
38.7223509999999962
20
-34.0977609999999984
11
38.7223429999999951
21
-34.0977630000000005
0
LINE
8
BLACK
6
CONTINUOUS
10
38.7223429999999951
20
-34.0977630000000005
11
38.4232439999999968
21
-34.1949460000000016
0
LINE
8
BLACK
6
CONTINUOUS
10
38.4232439999999968
20
-34.1949460000000016
11
38.4232409999999973
21
-34.1949469999999991
0
LINE
8
BLACK
6
CONTINUOUS
10
38.4232409999999973
20
-34.1949469999999991
11
38.3368660000000006
21
-34.2334029999999956
0
LINE
8
BLACK
6
CONTINUOUS
10
38.3368660000000006
20
-34.2334029999999956
11
38.1359279999999998
21
-34.3228669999999951
0
LINE
8
BLACK
6
CONTINUOUS
10
38.1359279999999998
20
-34.3228669999999951
11
37.8635739999999998
21
-34.4801099999999963
0
LINE
8
BLACK
6
CONTINUOUS
10
37.8635739999999998
20
-34.4801099999999963
11
37.6091279999999983
21
-34.6649759999999958
0
LINE
8
BLACK
6
CONTINUOUS
10
37.6091279999999983
20
-34.6649759999999958
11
37.3754199999999983
21
-34.8754069999999956
0
LINE
8
BLACK
6
CONTINUOUS
10
37.3754199999999983
20
-34.8754069999999956
11
37.3754069999999956
21
-34.8754199999999983
0
LINE
8
BLACK
6
CONTINUOUS
10
37.3754069999999956
20
-34.8754199999999983
11
37.1649759999999958
21
-35.1091279999999983
0
LINE
8
BLACK
6
CONTINUOUS
10
37.1649759999999958
20
-35.1091279999999983
11
36.9801099999999963
21
-35.3635739999999998
0
LINE
8
BLACK
6
CONTINUOUS
10
36.9801099999999963
20
-35.3635739999999998
11
36.8228669999999951
21
-35.6359279999999998
0
LINE
8
BLACK
6
CONTINUOUS
10
36.8228669999999951
20
-35.6359279999999998
11
36.6949460000000016
21
-35.9232439999999968
0
LINE
8
BLACK
6
CONTINUOUS
10
36.6949460000000016
20
-35.9232439999999968
11
36.5977630000000005
21
-36.2223429999999951
0
LINE
8
BLACK
6
CONTINUOUS
10
36.5977630000000005
20
-36.2223429999999951
11
36.5977609999999984
21
-36.2223509999999962
0
LINE
8
BLACK
6
CONTINUOUS
10
36.5977609999999984
20
-36.2223509999999962
11
36.5323719999999952
21
-36.5299830000000014
0
LINE
8
BLACK
6
CONTINUOUS
10
36.5323719999999952
20
-36.5299830000000014
11
36.5323719999999952
21
-36.5299869999999984
0
LINE
8
BLACK
6
CONTINUOUS
10
36.5323719999999952
20
-36.5299869999999984
11
36.4994999999999976
21
-36.8427489999999977
0
LINE
8
BLACK
6
CONTINUOUS
10
36.4994999999999976
20
-36.8427489999999977
11
36.4994999999999976
21
-158.9879999999999995
0
LINE
8
BLACK
6
CONTINUOUS
10
36.4994999999999976
20
-158.9879999999999995
11
36.4961319999999958
21
-158.9961319999999887
0
LINE
8
BLACK
6
CONTINUOUS
10
36.4961319999999958
20
-158.9961319999999887
11
36.4879999999999995
21
-158.9994999999999834
0
LINE
8
BLACK
6
CONTINUOUS
10
36.4879999999999995
20
-158.9994999999999834
11
34.0120000000000005
21
-158.9994999999999834
0
LINE
8
BLACK
6
CONTINUOUS
10
34.0120000000000005
20
-158.9994999999999834
11
34.0038679999999971
21
-158.9961319999999887
0
LINE
8
BLACK
6
CONTINUOUS
10
34.0038679999999971
20
-158.9961319999999887
11
34.0004999999999953
21
-158.9879999999999995
0
LINE
8
BLACK
6
CONTINUOUS
10
34.0004999999999953
20
-158.9879999999999995
11
34.0004999999999953
21
-37.0002330000000015
0
LINE
8
BLACK
6
CONTINUOUS
10
34.0004999999999953
20
-37.0002330000000015
11
34.0005099999999985
21
-36.9997579999999999
0
LINE
8
BLACK
6
CONTINUOUS
10
34.0005099999999985
20
-36.9997579999999999
11
34.0192639999999997
21
-36.5463349999999991
0
LINE
8
BLACK
6
CONTINUOUS
10
34.0192639999999997
20
-36.5463349999999991
11
34.0193420000000017
21
-36.5453879999999955
0
LINE
8
BLACK
6
CONTINUOUS
10
34.0193420000000017
20
-36.5453879999999955
11
34.0212620000000001
21
-36.5299830000000014
0
LINE
8
BLACK
6
CONTINUOUS
10
34.0212620000000001
20
-36.5299830000000014
11
34.0754499999999965
21
-36.0952559999999991
0
LINE
8
BLACK
6
CONTINUOUS
10
34.0754499999999965
20
-36.0952559999999991
11
34.0756000000000014
21
-36.0943619999999967
0
LINE
8
BLACK
6
CONTINUOUS
10
34.0756000000000014
20
-36.0943619999999967
11
34.168689999999998
21
-35.6503949999999961
0
LINE
8
BLACK
6
CONTINUOUS
10
34.168689999999998
20
-35.6503949999999961
11
34.1689099999999968
21
-35.6495239999999995
0
LINE
8
BLACK
6
CONTINUOUS
10
34.1689099999999968
20
-35.6495239999999995
11
34.2983479999999972
21
-35.2147499999999951
0
LINE
8
BLACK
6
CONTINUOUS
10
34.2983479999999972
20
-35.2147499999999951
11
34.298645999999998
21
-35.2138840000000002
0
LINE
8
BLACK
6
CONTINUOUS
10
34.298645999999998
20
-35.2138840000000002
11
34.4635339999999957
21
-34.7913119999999978
0
LINE
8
BLACK
6
CONTINUOUS
10
34.4635339999999957
20
-34.7913119999999978
11
34.4638999999999953
21
-34.7904750000000007
0
LINE
8
BLACK
6
CONTINUOUS
10
34.4638999999999953
20
-34.7904750000000007
11
34.663139000000001
21
-34.3829250000000002
0
LINE
8
BLACK
6
CONTINUOUS
10
34.663139000000001
20
-34.3829250000000002
11
34.6635670000000005
21
-34.3821349999999981
0
LINE
8
BLACK
6
CONTINUOUS
10
34.6635670000000005
20
-34.3821349999999981
11
34.8957709999999963
21
-33.9924469999999985
0
LINE
8
BLACK
6
CONTINUOUS
10
34.8957709999999963
20
-33.9924469999999985
11
34.8962719999999962
21
-33.9916809999999998
0
LINE
8
BLACK
6
CONTINUOUS
10
34.8962719999999962
20
-33.9916809999999998
11
35.1598589999999973
21
-33.6225039999999993
0
LINE
8
BLACK
6
CONTINUOUS
10
35.1598589999999973
20
-33.6225039999999993
11
35.1604169999999954
21
-33.6217879999999951
0
LINE
8
BLACK
6
CONTINUOUS
10
35.1604169999999954
20
-33.6217879999999951
11
35.4535809999999998
21
-33.2756479999999968
0
LINE
8
BLACK
6
CONTINUOUS
10
35.4535809999999998
20
-33.2756479999999968
11
35.4542009999999976
21
-33.2749740000000003
0
LINE
8
BLACK
6
CONTINUOUS
10
35.4542009999999976
20
-33.2749740000000003
11
35.7749740000000003
21
-32.9542009999999976
0
LINE
8
BLACK
6
CONTINUOUS
10
35.7749740000000003
20
-32.9542009999999976
11
35.7756479999999968
21
-32.9535809999999998
0
LINE
8
BLACK
6
CONTINUOUS
10
35.7756479999999968
20
-32.9535809999999998
11
36.1217879999999951
21
-32.6604169999999954
0
LINE
8
BLACK
6
CONTINUOUS
10
36.1217879999999951
20
-32.6604169999999954
11
36.1225039999999993
21
-32.6598589999999973
0
LINE
8
BLACK
6
CONTINUOUS
10
36.1225039999999993
20
-32.6598589999999973
11
36.4916809999999998
21
-32.3962719999999962
0
LINE
8
BLACK
6
CONTINUOUS
10
36.4916809999999998
20
-32.3962719999999962
11
36.4924469999999985
21
-32.3957709999999963
0
LINE
8
BLACK
6
CONTINUOUS
10
36.4924469999999985
20
-32.3957709999999963
11
36.8821349999999981
21
-32.1635670000000005
0
LINE
8
BLACK
6
CONTINUOUS
10
36.8821349999999981
20
-32.1635670000000005
11
36.8829250000000002
21
-32.163139000000001
0
LINE
8
BLACK
6
CONTINUOUS
10
36.8829250000000002
20
-32.163139000000001
11
37.2904750000000007
21
-31.9638999999999989
0
LINE
8
BLACK
6
CONTINUOUS
10
37.2904750000000007
20
-31.9638999999999989
11
37.2913119999999978
21
-31.9635339999999992
0
LINE
8
BLACK
6
CONTINUOUS
10
37.2913119999999978
20
-31.9635339999999992
11
37.7138840000000002
21
-31.798645999999998
0
LINE
8
BLACK
6
CONTINUOUS
10
37.7138840000000002
20
-31.798645999999998
11
37.7147499999999951
21
-31.7983479999999972
0
LINE
8
BLACK
6
CONTINUOUS
10
37.7147499999999951
20
-31.7983479999999972
11
38.1495239999999995
21
-31.6689100000000003
0
LINE
8
BLACK
6
CONTINUOUS
10
38.1495239999999995
20
-31.6689100000000003
11
38.1503949999999961
21
-31.668689999999998
0
LINE
8
BLACK
6
CONTINUOUS
10
38.1503949999999961
20
-31.668689999999998
11
38.5943619999999967
21
-31.5755999999999979
0
LINE
8
BLACK
6
CONTINUOUS
10
38.5943619999999967
20
-31.5755999999999979
11
38.5952559999999991
21
-31.57545
0
LINE
8
BLACK
6
CONTINUOUS
10
38.5952559999999991
20
-31.57545
11
39.0453919999999997
21
-31.5193409999999972
0
LINE
8
BLACK
6
CONTINUOUS
10
39.0453919999999997
20
-31.5193409999999972
11
39.046330999999995
21
-31.5192639999999997
0
LINE
8
BLACK
6
CONTINUOUS
10
39.046330999999995
20
-31.5192639999999997
11
39.4997579999999999
21
-31.5005089999999974
0
LINE
8
BLACK
6
CONTINUOUS
10
39.4997579999999999
20
-31.5005089999999974
11
39.5002330000000015
21
-31.5004999999999988
0
LINE
8
BLACK
6
CONTINUOUS
10
39.5002330000000015
20
-31.5004999999999988
11
39.5658919999999981
21
-31.5004999999999988
0
LINE
8
BLACK
6
CONTINUOUS
10
39.5658919999999981
20
-31.5004999999999988
11
159.4341079999999806
21
-31.5004999999999988
0
LINE
8
BLACK
6
CONTINUOUS
10
159.4341079999999806
20
-31.5004999999999988
11
159.4997669999999914
21
-31.5004999999999988
0
LINE
8
BLACK
6
CONTINUOUS
10
159.4997669999999914
20
-31.5004999999999988
11
159.5002409999999884
21
-31.5005089999999974
  0
ENDSEC
  0
EOF
