  0
SECTION
  2
HEADER
  9
$ANGBASE
  50
0.0
  9
$ANGDIR
  70
1
  9
$MEASUREMENT
  70
1
  0
ENDSEC
  0
SECTION
  2
TABLES
  0
TABLE
  2
LTYPE
  70
4
  0
LTYPE
  5
40F
  2
CONTINUOUS
  70
0
  3
Solid line
  72
65
  73
0
  40
0.0
  0
LTYPE
  5
410
  2
DASHDOT
 70
0
  3
Dash Dot ____ _ ____ _
 72
65
 73
4
 40
2.0
 49
1.25
 49
-0.25
 49
0.25
 49
-0.25
  0
LTYPE
  5
411
  2
DASHED
 70
0
  3
Dashed __ __ __ __ __
 72
65
 73
2
 40
0.75
 49
0.5
 49
-0.25
  0
LTYPE
  5
43B
  2
DOTTED
 70
0
  3
Dotted .  .  .  .
 72
65
 73
2
 40
0.2
 49
0.0
 49
-0.2
  0
ENDTAB
  0
TABLE
  2
STYLE
  70
4
  0
STYLE
  2
KICAD
  70
0
  40
0
  41
1
  42
1
  50
0
  71
0
  3
isocp.shx
  0
STYLE
  2
KICADB
  70
0
  40
0
  41
1
  42
1
  50
0
  71
0
  3
isocp.shx
  0
STYLE
  2
KICADI
  70
0
  40
0
  41
1
  42
1
  50
15
  71
0
  3
isocp.shx
  0
STYLE
  2
KICADBI
  70
0
  40
0
  41
1
  42
1
  50
15
  71
0
  3
isocp.shx
  0
ENDTAB
  0
TABLE
  2
LAYER
  70
1
  0
LAYER
  2
BLACK
  70
0
  62
7
  6
CONTINUOUS
  0
ENDTAB
  0
ENDSEC
  0
SECTION
  2
ENTITIES
0
LINE
8
BLACK
6
CONTINUOUS
10
159.7476460000000031
20
-31.002557999999997
11
159.7484450000000038
21
-31.0025949999999995
0
LINE
8
BLACK
6
CONTINUOUS
10
159.7484450000000038
20
-31.0025949999999995
11
160.242007000000001
21
-31.043491999999997
0
LINE
8
BLACK
6
CONTINUOUS
10
160.242007000000001
20
-31.043491999999997
11
160.2429439999999943
21
-31.043609
0
LINE
8
BLACK
6
CONTINUOUS
10
160.2429439999999943
20
-31.043609
11
160.7313609999999926
21
-31.1251119999999979
0
LINE
8
BLACK
6
CONTINUOUS
10
160.7313609999999926
20
-31.1251119999999979
11
160.7322659999999814
21
-31.1253019999999978
0
LINE
8
BLACK
6
CONTINUOUS
10
160.7322659999999814
20
-31.1253019999999978
11
161.2122959999999807
21
-31.2468620000000001
0
LINE
8
BLACK
6
CONTINUOUS
10
161.2122959999999807
20
-31.2468620000000001
11
161.213185999999979
21
-31.247126999999999
0
LINE
8
BLACK
6
CONTINUOUS
10
161.213185999999979
20
-31.247126999999999
11
161.6815359999999941
21
-31.4079109999999986
0
LINE
8
BLACK
6
CONTINUOUS
10
161.6815359999999941
20
-31.4079109999999986
11
161.6824179999999842
21
-31.408255999999998
0
LINE
8
BLACK
6
CONTINUOUS
10
161.6824179999999842
20
-31.408255999999998
11
162.1358699999999828
21
-31.6071589999999993
0
LINE
8
BLACK
6
CONTINUOUS
10
162.1358699999999828
20
-31.6071589999999993
11
162.1367229999999893
21
-31.6075759999999981
0
LINE
8
BLACK
6
CONTINUOUS
10
162.1367229999999893
20
-31.6075759999999981
11
162.5722049999999967
21
-31.8432469999999981
0
LINE
8
BLACK
6
CONTINUOUS
10
162.5722049999999967
20
-31.8432469999999981
11
162.5730219999999804
21
-31.8437339999999978
0
LINE
8
BLACK
6
CONTINUOUS
10
162.5730219999999804
20
-31.8437339999999978
11
162.9875529999999912
21
-32.1145599999999973
0
LINE
8
BLACK
6
CONTINUOUS
10
162.9875529999999912
20
-32.1145599999999973
11
162.9883260000000007
21
-32.1151119999999963
0
LINE
8
BLACK
6
CONTINUOUS
10
162.9883260000000007
20
-32.1151119999999963
11
163.3790809999999851
21
-32.4192479999999961
0
LINE
8
BLACK
6
CONTINUOUS
10
163.3790809999999851
20
-32.4192479999999961
11
163.3797869999999932
21
-32.4198459999999997
0
LINE
8
BLACK
6
CONTINUOUS
10
163.3797869999999932
20
-32.4198459999999997
11
163.7441139999999962
21
-32.7552329999999969
0
LINE
8
BLACK
6
CONTINUOUS
10
163.7441139999999962
20
-32.7552329999999969
11
163.7447659999999985
21
-32.7558849999999993
0
LINE
8
BLACK
6
CONTINUOUS
10
163.7447659999999985
20
-32.7558849999999993
11
164.0801510000000007
21
-33.1202089999999956
0
LINE
8
BLACK
6
CONTINUOUS
10
164.0801510000000007
20
-33.1202089999999956
11
164.0807590000000005
21
-33.1209279999999993
0
LINE
8
BLACK
6
CONTINUOUS
10
164.0807590000000005
20
-33.1209279999999993
11
164.384886999999992
21
-33.5116730000000018
0
LINE
8
BLACK
6
CONTINUOUS
10
164.384886999999992
20
-33.5116730000000018
11
164.385438999999991
21
-33.5124459999999971
0
LINE
8
BLACK
6
CONTINUOUS
10
164.385438999999991
20
-33.5124459999999971
11
164.6562649999999906
21
-33.9269770000000008
0
LINE
8
BLACK
6
CONTINUOUS
10
164.6562649999999906
20
-33.9269770000000008
11
164.6567519999999831
21
-33.9277939999999987
0
LINE
8
BLACK
6
CONTINUOUS
10
164.6567519999999831
20
-33.9277939999999987
11
164.8924229999999795
21
-34.363275999999999
0
LINE
8
BLACK
6
CONTINUOUS
10
164.8924229999999795
20
-34.363275999999999
11
164.8928400000000067
21
-34.3641289999999984
0
LINE
8
BLACK
6
CONTINUOUS
10
164.8928400000000067
20
-34.3641289999999984
11
165.0917429999999797
21
-34.817580999999997
0
LINE
8
BLACK
6
CONTINUOUS
10
165.0917429999999797
20
-34.817580999999997
11
165.0920889999999872
21
-34.8184669999999983
0
LINE
8
BLACK
6
CONTINUOUS
10
165.0920889999999872
20
-34.8184669999999983
11
165.252869000000004
21
-35.286802999999999
0
LINE
8
BLACK
6
CONTINUOUS
10
165.252869000000004
20
-35.286802999999999
11
165.2531400000000019
21
-35.2877140000000011
0
LINE
8
BLACK
6
CONTINUOUS
10
165.2531400000000019
20
-35.2877140000000011
11
165.3746940000000052
21
-35.7677210000000017
0
LINE
8
BLACK
6
CONTINUOUS
10
165.3746940000000052
20
-35.7677210000000017
11
165.374888999999996
21
-35.7686509999999984
0
LINE
8
BLACK
6
CONTINUOUS
10
165.374888999999996
20
-35.7686509999999984
11
165.4563890000000015
21
-36.2570520000000016
0
LINE
8
BLACK
6
CONTINUOUS
10
165.4563890000000015
20
-36.2570520000000016
11
165.4565069999999878
21
-36.2579950000000011
0
LINE
8
BLACK
6
CONTINUOUS
10
165.4565069999999878
20
-36.2579950000000011
11
165.4974029999999914
21
-36.7515379999999965
0
LINE
8
BLACK
6
CONTINUOUS
10
165.4974029999999914
20
-36.7515379999999965
11
165.4974409999999807
21
-36.7523690000000016
0
LINE
8
BLACK
6
CONTINUOUS
10
165.4974409999999807
20
-36.7523690000000016
11
165.4999990000000025
21
-36.9998809999999949
0
LINE
8
BLACK
6
CONTINUOUS
10
165.4999990000000025
20
-36.9998809999999949
11
165.5
21
-37.
0
LINE
8
BLACK
6
CONTINUOUS
10
165.5
20
-37.
11
165.5
21
-159.4884999999999877
0
LINE
8
BLACK
6
CONTINUOUS
10
165.5
20
-159.4884999999999877
11
165.4966320000000053
21
-159.4966320000000053
0
LINE
8
BLACK
6
CONTINUOUS
10
165.4966320000000053
20
-159.4966320000000053
11
165.4884999999999877
21
-159.5
0
LINE
8
BLACK
6
CONTINUOUS
10
165.4884999999999877
20
-159.5
11
162.0114999999999839
21
-159.5
0
LINE
8
BLACK
6
CONTINUOUS
10
162.0114999999999839
20
-159.5
11
162.0033679999999947
21
-159.4966320000000053
0
LINE
8
BLACK
6
CONTINUOUS
10
162.0033679999999947
20
-159.4966320000000053
11
162.
21
-159.4884999999999877
0
LINE
8
BLACK
6
CONTINUOUS
10
162.
20
-159.4884999999999877
11
162.
21
-36.9999709999999951
0
LINE
8
BLACK
6
CONTINUOUS
10
162.
20
-36.9999709999999951
11
161.9973239999999919
21
-36.8363200000000006
0
LINE
8
BLACK
6
CONTINUOUS
10
161.9973239999999919
20
-36.8363200000000006
11
161.9973239999999919
21
-36.8363170000000011
0
LINE
8
BLACK
6
CONTINUOUS
10
161.9973239999999919
20
-36.8363170000000011
11
161.954593999999986
21
-36.5117509999999967
0
LINE
8
BLACK
6
CONTINUOUS
10
161.954593999999986
20
-36.5117509999999967
11
161.8698650000000043
21
-36.1955389999999966
0
LINE
8
BLACK
6
CONTINUOUS
10
161.8698650000000043
20
-36.1955389999999966
11
161.7445869999999957
21
-35.8930919999999958
0
LINE
8
BLACK
6
CONTINUOUS
10
161.7445869999999957
20
-35.8930919999999958
11
161.6724700000000041
21
-35.7681819999999959
0
LINE
8
BLACK
6
CONTINUOUS
10
161.6724700000000041
20
-35.7681819999999959
11
161.5809059999999988
21
-35.6095869999999977
0
LINE
8
BLACK
6
CONTINUOUS
10
161.5809059999999988
20
-35.6095869999999977
11
161.5809040000000039
21
-35.6095839999999981
0
LINE
8
BLACK
6
CONTINUOUS
10
161.5809040000000039
20
-35.6095839999999981
11
161.3816159999999797
21
-35.3498669999999962
0
LINE
8
BLACK
6
CONTINUOUS
10
161.3816159999999797
20
-35.3498669999999962
11
161.1501329999999825
21
-35.1183839999999989
0
LINE
8
BLACK
6
CONTINUOUS
10
161.1501329999999825
20
-35.1183839999999989
11
160.8904159999999877
21
-34.9190959999999961
0
LINE
8
BLACK
6
CONTINUOUS
10
160.8904159999999877
20
-34.9190959999999961
11
160.8904149999999902
21
-34.9190949999999987
0
LINE
8
BLACK
6
CONTINUOUS
10
160.8904149999999902
20
-34.9190949999999987
11
160.8904119999999978
21
-34.9190929999999966
0
LINE
8
BLACK
6
CONTINUOUS
10
160.8904119999999978
20
-34.9190929999999966
11
160.6069109999999966
21
-34.7554140000000018
0
LINE
8
BLACK
6
CONTINUOUS
10
160.6069109999999966
20
-34.7554140000000018
11
160.3044559999999876
21
-34.6301330000000007
0
LINE
8
BLACK
6
CONTINUOUS
10
160.3044559999999876
20
-34.6301330000000007
11
159.9882599999999968
21
-34.5454080000000019
0
LINE
8
BLACK
6
CONTINUOUS
10
159.9882599999999968
20
-34.5454080000000019
11
159.9882529999999861
21
-34.5454069999999973
0
LINE
8
BLACK
6
CONTINUOUS
10
159.9882529999999861
20
-34.5454069999999973
11
159.9882489999999962
21
-34.5454059999999998
0
LINE
8
BLACK
6
CONTINUOUS
10
159.9882489999999962
20
-34.5454059999999998
11
159.8135529999999846
21
-34.5224059999999966
0
LINE
8
BLACK
6
CONTINUOUS
10
159.8135529999999846
20
-34.5224059999999966
11
159.6636790000000019
21
-34.5026749999999964
0
LINE
8
BLACK
6
CONTINUOUS
10
159.6636790000000019
20
-34.5026749999999964
11
159.5000279999999862
21
-34.5
0
LINE
8
BLACK
6
CONTINUOUS
10
159.5000279999999862
20
-34.5
11
159.5
21
-34.5
0
LINE
8
BLACK
6
CONTINUOUS
10
159.5
20
-34.5
11
39.5
21
-34.5
0
LINE
8
BLACK
6
CONTINUOUS
10
39.5
20
-34.5
11
39.4999719999999996
21
-34.5
0
LINE
8
BLACK
6
CONTINUOUS
10
39.4999719999999996
20
-34.5
11
39.3363200000000006
21
-34.5026749999999964
0
LINE
8
BLACK
6
CONTINUOUS
10
39.3363200000000006
20
-34.5026749999999964
11
39.1447629999999975
21
-34.5278939999999963
0
LINE
8
BLACK
6
CONTINUOUS
10
39.1447629999999975
20
-34.5278939999999963
11
39.0117509999999967
21
-34.5454059999999998
0
LINE
8
BLACK
6
CONTINUOUS
10
39.0117509999999967
20
-34.5454059999999998
11
39.0117469999999997
21
-34.5454059999999998
0
LINE
8
BLACK
6
CONTINUOUS
10
39.0117469999999997
20
-34.5454059999999998
11
39.0117389999999986
21
-34.5454080000000019
0
LINE
8
BLACK
6
CONTINUOUS
10
39.0117389999999986
20
-34.5454080000000019
11
39.0117380000000011
21
-34.5454080000000019
0
LINE
8
BLACK
6
CONTINUOUS
10
39.0117380000000011
20
-34.5454080000000019
11
38.6955439999999982
21
-34.6301330000000007
0
LINE
8
BLACK
6
CONTINUOUS
10
38.6955439999999982
20
-34.6301330000000007
11
38.6955430000000007
21
-34.6301330000000007
0
LINE
8
BLACK
6
CONTINUOUS
10
38.6955430000000007
20
-34.6301330000000007
11
38.3930879999999988
21
-34.7554140000000018
0
LINE
8
BLACK
6
CONTINUOUS
10
38.3930879999999988
20
-34.7554140000000018
11
38.1095869999999977
21
-34.9190929999999966
0
LINE
8
BLACK
6
CONTINUOUS
10
38.1095869999999977
20
-34.9190929999999966
11
38.0121899999999968
21
-34.9938289999999981
0
LINE
8
BLACK
6
CONTINUOUS
10
38.0121899999999968
20
-34.9938289999999981
11
37.8498669999999962
21
-35.1183839999999989
0
LINE
8
BLACK
6
CONTINUOUS
10
37.8498669999999962
20
-35.1183839999999989
11
37.8498620000000017
21
-35.1183890000000005
0
LINE
8
BLACK
6
CONTINUOUS
10
37.8498620000000017
20
-35.1183890000000005
11
37.8498599999999996
21
-35.118389999999998
0
LINE
8
BLACK
6
CONTINUOUS
10
37.8498599999999996
20
-35.118389999999998
11
37.618389999999998
21
-35.3498599999999996
0
LINE
8
BLACK
6
CONTINUOUS
10
37.618389999999998
20
-35.3498599999999996
11
37.6183890000000005
21
-35.3498620000000017
0
LINE
8
BLACK
6
CONTINUOUS
10
37.6183890000000005
20
-35.3498620000000017
11
37.6183839999999989
21
-35.3498669999999962
0
LINE
8
BLACK
6
CONTINUOUS
10
37.6183839999999989
20
-35.3498669999999962
11
37.4938289999999981
21
-35.5121899999999968
0
LINE
8
BLACK
6
CONTINUOUS
10
37.4938289999999981
20
-35.5121899999999968
11
37.4190929999999966
21
-35.6095869999999977
0
LINE
8
BLACK
6
CONTINUOUS
10
37.4190929999999966
20
-35.6095869999999977
11
37.2554140000000018
21
-35.8930879999999988
0
LINE
8
BLACK
6
CONTINUOUS
10
37.2554140000000018
20
-35.8930879999999988
11
37.1301330000000007
21
-36.1955430000000007
0
LINE
8
BLACK
6
CONTINUOUS
10
37.1301330000000007
20
-36.1955430000000007
11
37.1301330000000007
21
-36.1955439999999982
0
LINE
8
BLACK
6
CONTINUOUS
10
37.1301330000000007
20
-36.1955439999999982
11
37.0454079999999948
21
-36.5117380000000011
0
LINE
8
BLACK
6
CONTINUOUS
10
37.0454079999999948
20
-36.5117380000000011
11
37.0454079999999948
21
-36.5117389999999986
0
LINE
8
BLACK
6
CONTINUOUS
10
37.0454079999999948
20
-36.5117389999999986
11
37.0026749999999964
21
-36.8363200000000006
0
LINE
8
BLACK
6
CONTINUOUS
10
37.0026749999999964
20
-36.8363200000000006
11
37.
21
-36.9999709999999951
0
LINE
8
BLACK
6
CONTINUOUS
10
37.
20
-36.9999709999999951
11
37.
21
-159.4884999999999877
0
LINE
8
BLACK
6
CONTINUOUS
10
37.
20
-159.4884999999999877
11
36.9966319999999982
21
-159.4966320000000053
0
LINE
8
BLACK
6
CONTINUOUS
10
36.9966319999999982
20
-159.4966320000000053
11
36.9884999999999948
21
-159.5
0
LINE
8
BLACK
6
CONTINUOUS
10
36.9884999999999948
20
-159.5
11
33.5114999999999981
21
-159.5
0
LINE
8
BLACK
6
CONTINUOUS
10
33.5114999999999981
20
-159.5
11
33.5033680000000018
21
-159.4966320000000053
0
LINE
8
BLACK
6
CONTINUOUS
10
33.5033680000000018
20
-159.4966320000000053
11
33.5
21
-159.4884999999999877
0
LINE
8
BLACK
6
CONTINUOUS
10
33.5
20
-159.4884999999999877
11
33.5
21
-37.
0
LINE
8
BLACK
6
CONTINUOUS
10
33.5
20
-37.
11
33.5000009999999975
21
-36.9998809999999949
0
LINE
8
BLACK
6
CONTINUOUS
10
33.5000009999999975
20
-36.9998809999999949
11
33.501691000000001
21
-36.8363170000000011
0
LINE
8
BLACK
6
CONTINUOUS
10
33.501691000000001
20
-36.8363170000000011
11
33.5025580000000005
21
-36.7523509999999973
0
LINE
8
BLACK
6
CONTINUOUS
10
33.5025580000000005
20
-36.7523509999999973
11
33.5025949999999995
21
-36.7515549999999962
0
LINE
8
BLACK
6
CONTINUOUS
10
33.5025949999999995
20
-36.7515549999999962
11
33.5434920000000005
21
-36.2579889999999949
0
LINE
8
BLACK
6
CONTINUOUS
10
33.5434920000000005
20
-36.2579889999999949
11
33.543610000000001
21
-36.2570520000000016
0
LINE
8
BLACK
6
CONTINUOUS
10
33.543610000000001
20
-36.2570520000000016
11
33.5538749999999979
21
-36.1955389999999966
0
LINE
8
BLACK
6
CONTINUOUS
10
33.5538749999999979
20
-36.1955389999999966
11
33.6251129999999989
21
-35.7686330000000012
0
LINE
8
BLACK
6
CONTINUOUS
10
33.6251129999999989
20
-35.7686330000000012
11
33.6253010000000003
21
-35.7677380000000014
0
LINE
8
BLACK
6
CONTINUOUS
10
33.6253010000000003
20
-35.7677380000000014
11
33.7468639999999951
21
-35.2876959999999968
0
LINE
8
BLACK
6
CONTINUOUS
10
33.7468639999999951
20
-35.2876959999999968
11
33.7471239999999995
21
-35.2868199999999987
0
LINE
8
BLACK
6
CONTINUOUS
10
33.7471239999999995
20
-35.2868199999999987
11
33.9079139999999981
21
-34.8184550000000002
0
LINE
8
BLACK
6
CONTINUOUS
10
33.9079139999999981
20
-34.8184550000000002
11
33.9082509999999999
21
-34.8175919999999977
0
LINE
8
BLACK
6
CONTINUOUS
10
33.9082509999999999
20
-34.8175919999999977
11
34.1071600000000004
21
-34.3641250000000014
0
LINE
8
BLACK
6
CONTINUOUS
10
34.1071600000000004
20
-34.3641250000000014
11
34.1075760000000017
21
-34.363275999999999
0
LINE
8
BLACK
6
CONTINUOUS
10
34.1075760000000017
20
-34.363275999999999
11
34.3432469999999981
21
-33.9277939999999987
0
LINE
8
BLACK
6
CONTINUOUS
10
34.3432469999999981
20
-33.9277939999999987
11
34.3437339999999978
21
-33.9269770000000008
0
LINE
8
BLACK
6
CONTINUOUS
10
34.3437339999999978
20
-33.9269770000000008
11
34.614567000000001
21
-33.5124349999999964
0
LINE
8
BLACK
6
CONTINUOUS
10
34.614567000000001
20
-33.5124349999999964
11
34.6151039999999952
21
-33.5116829999999979
0
LINE
8
BLACK
6
CONTINUOUS
10
34.6151039999999952
20
-33.5116829999999979
11
34.9192579999999992
21
-33.120905999999998
0
LINE
8
BLACK
6
CONTINUOUS
10
34.9192579999999992
20
-33.120905999999998
11
34.9198349999999991
21
-33.1202229999999957
0
LINE
8
BLACK
6
CONTINUOUS
10
34.9198349999999991
20
-33.1202229999999957
11
35.2552439999999976
21
-32.7558730000000011
0
LINE
8
BLACK
6
CONTINUOUS
10
35.2552439999999976
20
-32.7558730000000011
11
35.2558730000000011
21
-32.7552439999999976
0
LINE
8
BLACK
6
CONTINUOUS
10
35.2558730000000011
20
-32.7552439999999976
11
35.6202229999999957
21
-32.4198349999999991
0
LINE
8
BLACK
6
CONTINUOUS
10
35.6202229999999957
20
-32.4198349999999991
11
35.620905999999998
21
-32.4192579999999992
0
LINE
8
BLACK
6
CONTINUOUS
10
35.620905999999998
20
-32.4192579999999992
11
36.0116829999999979
21
-32.1151039999999952
0
LINE
8
BLACK
6
CONTINUOUS
10
36.0116829999999979
20
-32.1151039999999952
11
36.0124349999999964
21
-32.114567000000001
0
LINE
8
BLACK
6
CONTINUOUS
10
36.0124349999999964
20
-32.114567000000001
11
36.4269819999999953
21
-31.8437299999999972
0
LINE
8
BLACK
6
CONTINUOUS
10
36.4269819999999953
20
-31.8437299999999972
11
36.427786999999995
21
-31.8432499999999976
0
LINE
8
BLACK
6
CONTINUOUS
10
36.427786999999995
20
-31.8432499999999976
11
36.8632799999999961
21
-31.6075739999999996
0
LINE
8
BLACK
6
CONTINUOUS
10
36.8632799999999961
20
-31.6075739999999996
11
36.8641289999999984
21
-31.6071589999999993
0
LINE
8
BLACK
6
CONTINUOUS
10
36.8641289999999984
20
-31.6071589999999993
11
37.3175919999999977
21
-31.4082509999999999
0
LINE
8
BLACK
6
CONTINUOUS
10
37.3175919999999977
20
-31.4082509999999999
11
37.3184550000000002
21
-31.4079139999999981
0
LINE
8
BLACK
6
CONTINUOUS
10
37.3184550000000002
20
-31.4079139999999981
11
37.7868199999999987
21
-31.2471239999999995
0
LINE
8
BLACK
6
CONTINUOUS
10
37.7868199999999987
20
-31.2471239999999995
11
37.7876959999999968
21
-31.2468639999999986
0
LINE
8
BLACK
6
CONTINUOUS
10
37.7876959999999968
20
-31.2468639999999986
11
38.2677380000000014
21
-31.1253010000000003
0
LINE
8
BLACK
6
CONTINUOUS
10
38.2677380000000014
20
-31.1253010000000003
11
38.2686330000000012
21
-31.1251129999999989
0
LINE
8
BLACK
6
CONTINUOUS
10
38.2686330000000012
20
-31.1251129999999989
11
38.7570580000000007
21
-31.043609
0
LINE
8
BLACK
6
CONTINUOUS
10
38.7570580000000007
20
-31.043609
11
38.7579889999999949
21
-31.043491999999997
0
LINE
8
BLACK
6
CONTINUOUS
10
38.7579889999999949
20
-31.043491999999997
11
39.2515549999999962
21
-31.0025949999999995
0
LINE
8
BLACK
6
CONTINUOUS
10
39.2515549999999962
20
-31.0025949999999995
11
39.2523509999999973
21
-31.002557999999997
0
LINE
8
BLACK
6
CONTINUOUS
10
39.2523509999999973
20
-31.002557999999997
11
39.4999040000000008
21
-31.
0
LINE
8
BLACK
6
CONTINUOUS
10
39.4999040000000008
20
-31.
11
39.5000220000000013
21
-31.
0
LINE
8
BLACK
6
CONTINUOUS
10
39.5000220000000013
20
-31.
11
159.4999779999999987
21
-31.
0
LINE
8
BLACK
6
CONTINUOUS
10
159.4999779999999987
20
-31.
11
159.5000949999999875
21
-31.
0
LINE
8
BLACK
6
CONTINUOUS
10
159.5000949999999875
20
-31.
11
159.7476460000000031
21
-31.002557999999997
  0
ENDSEC
  0
EOF
