M48
; DRILL file {KiCad 7.0.7-7.0.7~ubuntu22.04.1} date Wed 13 Mar 2024 22:54:39 CET
; FORMAT={-:-/ absolute / metric / decimal}
; #@! TF.CreationDate,2024-03-13T22:54:39+01:00
; #@! TF.GenerationSoftware,Kicad,Pcbnew,7.0.7-7.0.7~ubuntu22.04.1
; #@! TF.FileFunction,Plated,1,4,PTH
FMAT,2
METRIC
; #@! TA.AperFunction,Plated,PTH,ViaDrill
T1C0.400
; #@! TA.AperFunction,Plated,PTH,ComponentDrill
T2C0.600
; #@! TA.AperFunction,Plated,PTH,ComponentDrill
T3C4.300
%
G90
G05
T1
X101.248Y-81.493
X102.616Y-73.025
X103.632Y-77.724
X104.487Y-82.15
X105.848Y-76.2
X105.848Y-78.682
X105.884Y-91.167
X106.178Y-84.52
X108.043Y-92.6
X108.505Y-91.514
X109.63Y-89.312
X111.426Y-91.133
X112.146Y-88.021
X112.486Y-82.678
X112.509Y-85.317
X112.898Y-91.345
X113.377Y-74.911
X113.83Y-91.035
X116.454Y-80.316
X117.013Y-85.147
X118.283Y-88.144
X119.398Y-84.256
X120.213Y-89.091
X120.797Y-80.316
X121.026Y-83.42
X121.194Y-79.016
X121.338Y-85.062
X121.65Y-78.114
X121.672Y-86.415
X123.534Y-79.05
X123.534Y-80.35
X123.534Y-81.35
X123.566Y-77.222
X123.634Y-82.65
X123.634Y-84.05
X123.634Y-85.35
X124.634Y-79.05
X124.634Y-80.35
X124.634Y-81.35
X124.634Y-82.65
X124.634Y-84.05
X124.634Y-85.35
X125.634Y-79.05
X125.634Y-80.35
X125.634Y-81.35
X125.634Y-82.65
X125.634Y-84.05
X125.634Y-85.35
X126.634Y-79.05
X126.634Y-80.35
X126.634Y-81.36
X126.634Y-82.65
X126.634Y-84.05
X126.634Y-85.35
X128.036Y-86.456
X129.054Y-85.011
X130.086Y-79.73
X131.196Y-82.267
X131.811Y-79.388
X132.062Y-85.948
X133.636Y-81.388
X133.703Y-79.125
X133.726Y-84.233
X134.615Y-81.388
X134.734Y-84.25
X135.631Y-81.388
X135.734Y-84.25
X136.234Y-77.75
X137.342Y-85.056
X137.891Y-86.2
X139.534Y-79.05
X139.534Y-80.35
X139.534Y-81.45
X139.634Y-82.65
X139.634Y-84.05
X139.634Y-85.35
X140.634Y-79.05
X140.634Y-80.35
X140.634Y-81.45
X140.634Y-82.65
X140.634Y-84.05
X140.634Y-85.35
X141.634Y-79.05
X141.634Y-80.35
X141.634Y-81.45
X141.634Y-82.65
X141.634Y-84.05
X141.634Y-85.35
X142.117Y-92.601
X142.634Y-79.05
X142.634Y-80.35
X142.634Y-81.45
X142.634Y-82.65
X142.634Y-84.05
X142.634Y-85.35
X144.217Y-86.078
X144.8Y-84.995
X146.237Y-79.859
X148.173Y-79.679
X148.356Y-86.011
X148.712Y-88.373
X148.712Y-90.024
X149.234Y-87.45
X149.675Y-82.008
X150.033Y-79.43
X150.313Y-87.656
X150.89Y-91.116
X150.896Y-77.587
X152.734Y-77.65
X153.335Y-84.995
X153.792Y-86.011
X155.534Y-79.05
X155.534Y-80.35
X155.534Y-81.49
X155.634Y-82.65
X155.634Y-84.05
X155.634Y-85.35
X156.634Y-79.05
X156.634Y-80.35
X156.634Y-81.49
X156.634Y-82.65
X156.634Y-84.05
X156.634Y-85.35
X157.634Y-79.05
X157.634Y-80.35
X157.634Y-81.49
X157.634Y-82.65
X157.634Y-84.05
X157.634Y-85.35
X158.634Y-79.05
X158.634Y-80.35
X158.634Y-81.49
X158.634Y-82.65
X158.634Y-84.05
X158.634Y-85.35
X160.253Y-86.071
X160.793Y-85.006
X162.326Y-80.507
X163.934Y-86.062
X164.053Y-82.018
X164.158Y-79.614
X165.603Y-81.786
X165.685Y-84.328
X165.805Y-79.201
X166.582Y-81.779
X166.695Y-84.424
X167.599Y-81.779
X167.764Y-84.346
X167.791Y-77.875
X168.834Y-77.85
X169.286Y-84.995
X169.743Y-86.062
X171.534Y-79.05
X171.534Y-80.35
X171.534Y-81.44
X171.634Y-82.65
X171.634Y-84.05
X171.634Y-85.35
X172.634Y-79.05
X172.634Y-80.35
X172.634Y-81.44
X172.634Y-82.65
X172.634Y-84.05
X172.634Y-85.35
X173.634Y-79.05
X173.634Y-80.35
X173.634Y-81.44
X173.634Y-82.65
X173.634Y-84.05
X173.634Y-85.35
X174.442Y-76.315
X174.634Y-79.05
X174.634Y-80.35
X174.634Y-81.44
X174.634Y-82.65
X174.634Y-84.05
X174.634Y-85.35
X175.788Y-78.442
X176.282Y-86.641
X177.588Y-86.002
X177.642Y-80.564
X177.668Y-78.543
X179.196Y-82.695
X179.677Y-81.366
X180.081Y-79.102
X180.081Y-84.182
X182.748Y-81.642
X182.748Y-82.912
X182.748Y-85.452
X182.753Y-80.264
T2
X93.509Y-75.75
X93.509Y-88.75
X94.454Y-73.47
X94.454Y-78.03
X94.454Y-86.47
X94.454Y-91.03
X96.734Y-72.525
X96.734Y-78.975
X96.734Y-85.525
X96.734Y-91.975
X99.014Y-73.47
X99.014Y-78.03
X99.014Y-86.47
X99.014Y-91.03
X99.959Y-75.75
X99.959Y-88.75
X186.509Y-75.75
X186.509Y-88.75
X187.454Y-73.47
X187.454Y-78.03
X187.454Y-86.47
X187.454Y-91.03
X189.734Y-72.525
X189.734Y-78.975
X189.734Y-85.525
X189.734Y-91.975
X192.014Y-73.47
X192.014Y-78.03
X192.014Y-86.47
X192.014Y-91.03
X192.959Y-75.75
X192.959Y-88.75
T3
X96.734Y-75.75
X96.734Y-88.75
X189.734Y-75.75
X189.734Y-88.75
T0
M30
