G04 #@! TF.GenerationSoftware,KiCad,Pcbnew,7.0.7-7.0.7~ubuntu22.04.1*
G04 #@! TF.CreationDate,2024-03-13T22:54:31+01:00*
G04 #@! TF.ProjectId,flexaxe,666c6578-6178-4652-9e6b-696361645f70,rev?*
G04 #@! TF.SameCoordinates,Original*
G04 #@! TF.FileFunction,Copper,L3,Inr*
G04 #@! TF.FilePolarity,Positive*
%FSLAX46Y46*%
G04 Gerber Fmt 4.6, Leading zero omitted, Abs format (unit mm)*
G04 Created by KiCad (PCBNEW 7.0.7-7.0.7~ubuntu22.04.1) date 2024-03-13 22:54:31*
%MOMM*%
%LPD*%
G01*
G04 APERTURE LIST*
G04 #@! TA.AperFunction,ComponentPad*
%ADD10C,0.900000*%
G04 #@! TD*
G04 #@! TA.AperFunction,ComponentPad*
%ADD11C,8.600000*%
G04 #@! TD*
G04 #@! TA.AperFunction,ViaPad*
%ADD12C,0.800000*%
G04 #@! TD*
G04 APERTURE END LIST*
D10*
X189734000Y-91975000D03*
X187453581Y-91030419D03*
X192014419Y-91030419D03*
X186509000Y-88750000D03*
D11*
X189734000Y-88750000D03*
D10*
X192959000Y-88750000D03*
X187453581Y-86469581D03*
X192014419Y-86469581D03*
X189734000Y-85525000D03*
X96734000Y-78975000D03*
X94453581Y-78030419D03*
X99014419Y-78030419D03*
X93509000Y-75750000D03*
D11*
X96734000Y-75750000D03*
D10*
X99959000Y-75750000D03*
X94453581Y-73469581D03*
X99014419Y-73469581D03*
X96734000Y-72525000D03*
X189734000Y-78975000D03*
X187453581Y-78030419D03*
X192014419Y-78030419D03*
X186509000Y-75750000D03*
D11*
X189734000Y-75750000D03*
D10*
X192959000Y-75750000D03*
X187453581Y-73469581D03*
X192014419Y-73469581D03*
X189734000Y-72525000D03*
X96734000Y-91975000D03*
X94453581Y-91030419D03*
X99014419Y-91030419D03*
X93509000Y-88750000D03*
D11*
X96734000Y-88750000D03*
D10*
X99959000Y-88750000D03*
X94453581Y-86469581D03*
X99014419Y-86469581D03*
X96734000Y-85525000D03*
D12*
X172634000Y-84050000D03*
X108505000Y-91514000D03*
X179676545Y-81365711D03*
X111426000Y-91133000D03*
X124634000Y-81350000D03*
X124634000Y-84050000D03*
X112509480Y-85316563D03*
X124634000Y-85350000D03*
X106177511Y-84520134D03*
X141634000Y-84050000D03*
X171634000Y-84050000D03*
X117012800Y-85147200D03*
X155634000Y-85350000D03*
X123634000Y-82650000D03*
X142634000Y-85350000D03*
X125634000Y-85350000D03*
X139634000Y-85350000D03*
X156634000Y-84050000D03*
X157634000Y-84050000D03*
X156634000Y-85350000D03*
X158634000Y-82650000D03*
X174634000Y-82650000D03*
X134734000Y-84250000D03*
X133726000Y-84232800D03*
X157634000Y-85350000D03*
X172634000Y-82650000D03*
X142634000Y-84050000D03*
X173634000Y-85350000D03*
X123634000Y-85350000D03*
X126634000Y-81360000D03*
X174634000Y-84050000D03*
X171634000Y-82650000D03*
X173634000Y-81440000D03*
X126634000Y-84050000D03*
X171634000Y-85350000D03*
X140634000Y-84050000D03*
X112486252Y-82678400D03*
X125634000Y-81350000D03*
X142634000Y-82650000D03*
X172634000Y-81440000D03*
X155534000Y-81490000D03*
X135734000Y-84250000D03*
X139634000Y-84050000D03*
X165684767Y-84328360D03*
X142634000Y-81450000D03*
X140634000Y-82650000D03*
X167764453Y-84346325D03*
X173634000Y-82650000D03*
X157634000Y-81490000D03*
X123634000Y-84050000D03*
X158634000Y-84050000D03*
X139534000Y-81450000D03*
X174634000Y-81440000D03*
X174634000Y-85350000D03*
X141634000Y-81450000D03*
X156634000Y-82650000D03*
X123534000Y-81350000D03*
X166694903Y-84424418D03*
X157634000Y-82650000D03*
X105884000Y-91167000D03*
X172634000Y-85350000D03*
X155634000Y-84050000D03*
X124634000Y-82650000D03*
X116454210Y-80315600D03*
X156634000Y-81490000D03*
X155634000Y-82650000D03*
X141634000Y-85350000D03*
X182748000Y-85452000D03*
X139634000Y-82650000D03*
X125634000Y-82650000D03*
X171534000Y-81440000D03*
X140634000Y-81450000D03*
X140634000Y-85350000D03*
X158634000Y-85350000D03*
X173634000Y-84050000D03*
X141634000Y-82650000D03*
X125634000Y-84050000D03*
X126634000Y-82650000D03*
X158634000Y-81490000D03*
X120213200Y-89090600D03*
X126634000Y-85350000D03*
X118282800Y-88144400D03*
X132061693Y-85947600D03*
X137891300Y-86200000D03*
X148356400Y-86010800D03*
X180081000Y-79102000D03*
X176282305Y-86640752D03*
X112145600Y-88021227D03*
X169743200Y-86061600D03*
X160253211Y-86071211D03*
X144217311Y-86078214D03*
X153791700Y-86010800D03*
X121671697Y-86414550D03*
X128036400Y-86456396D03*
X163934000Y-86061600D03*
X135631000Y-81388000D03*
X171534000Y-79050000D03*
X156634000Y-80350000D03*
X123534000Y-80350000D03*
X157634000Y-79050000D03*
X141634000Y-80350000D03*
X173634000Y-80350000D03*
X140634000Y-80350000D03*
X174634000Y-80350000D03*
X173634000Y-79050000D03*
X139534000Y-80350000D03*
X126634000Y-79050000D03*
X142634000Y-80350000D03*
X142634000Y-79050000D03*
X165603000Y-81786069D03*
X174634000Y-79050000D03*
X171534000Y-80350000D03*
X124634000Y-80350000D03*
X155534000Y-80350000D03*
X155534000Y-79050000D03*
X156634000Y-79050000D03*
X125634000Y-80350000D03*
X124634000Y-79050000D03*
X166582500Y-81778591D03*
X158634000Y-79050000D03*
X134615000Y-81388000D03*
X140634000Y-79050000D03*
X172634000Y-80350000D03*
X139534000Y-79050000D03*
X126634000Y-80350000D03*
X125634000Y-79050000D03*
X172634000Y-79050000D03*
X158634000Y-80350000D03*
X123566000Y-77222400D03*
X157634000Y-80350000D03*
X174442137Y-76315432D03*
X141634000Y-79050000D03*
X123534000Y-79050000D03*
X167791028Y-77875028D03*
X167598500Y-81778591D03*
X133635500Y-81388000D03*
X150896400Y-77587400D03*
X177588400Y-86001887D03*
X137342248Y-85056223D03*
X144800400Y-84994800D03*
X121337683Y-85061966D03*
X160792725Y-85005828D03*
X129054002Y-85011049D03*
X153334800Y-84994800D03*
X169286000Y-84994800D03*
X105848200Y-76200000D03*
X103632000Y-77724000D03*
X105848200Y-78681902D03*
X101248139Y-81492805D03*
X130086164Y-79729688D03*
X131811012Y-79388247D03*
X136234000Y-77750000D03*
X133703395Y-79124605D03*
X150032800Y-79430331D03*
X152734000Y-77650000D03*
X148173500Y-79679402D03*
X146237073Y-79858900D03*
X149675448Y-82008331D03*
X120796534Y-80315600D03*
X121194410Y-79015793D03*
X121650394Y-78114087D03*
X165805156Y-79201091D03*
X168834000Y-77850000D03*
X164158052Y-79614469D03*
X162326400Y-80506800D03*
X175788400Y-78441600D03*
X177668000Y-78543200D03*
X177642448Y-80564214D03*
X150313400Y-87656400D03*
X131195633Y-82267367D03*
X148712000Y-88373000D03*
X113830347Y-91035120D03*
X112898000Y-91344798D03*
X148712000Y-90024000D03*
X102616000Y-73025000D03*
X164052896Y-82017901D03*
X104487000Y-82150000D03*
X149234000Y-87450000D03*
X142117069Y-92600720D03*
X150889920Y-91116200D03*
X108043000Y-92600500D03*
X182748000Y-81642000D03*
X179195801Y-82694614D03*
X182748000Y-82912000D03*
X180081000Y-84182000D03*
X119397556Y-84255566D03*
X182753000Y-80264000D03*
X121026000Y-83420000D03*
X113377000Y-74911000D03*
X109630082Y-89312458D03*
G04 #@! TA.AperFunction,Conductor*
G36*
X114734000Y-82250000D02*
G01*
X112878280Y-82250000D01*
X112811241Y-82230315D01*
X112802807Y-82224386D01*
X112765088Y-82195443D01*
X112765085Y-82195442D01*
X112765083Y-82195440D01*
X112630591Y-82139732D01*
X112630586Y-82139730D01*
X112486253Y-82120729D01*
X112486251Y-82120729D01*
X112341917Y-82139730D01*
X112341915Y-82139731D01*
X112207417Y-82195442D01*
X112169710Y-82224376D01*
X112104541Y-82249570D01*
X112094224Y-82250000D01*
X105166581Y-82250000D01*
X105099542Y-82230315D01*
X105053787Y-82177511D01*
X105043642Y-82142185D01*
X105031568Y-82050476D01*
X105025669Y-82005664D01*
X104969957Y-81871165D01*
X104893587Y-81771637D01*
X104881334Y-81755668D01*
X104881333Y-81755667D01*
X104765836Y-81667043D01*
X104765833Y-81667042D01*
X104765831Y-81667040D01*
X104631339Y-81611332D01*
X104631334Y-81611330D01*
X104487001Y-81592329D01*
X104486999Y-81592329D01*
X104342665Y-81611330D01*
X104342663Y-81611331D01*
X104208165Y-81667042D01*
X104092667Y-81755667D01*
X104004042Y-81871165D01*
X103948331Y-82005663D01*
X103948330Y-82005665D01*
X103930358Y-82142185D01*
X103902092Y-82206082D01*
X103843767Y-82244553D01*
X103807419Y-82250000D01*
X101488296Y-82250000D01*
X101421257Y-82230315D01*
X101375502Y-82177511D01*
X101365558Y-82108353D01*
X101394583Y-82044797D01*
X101440844Y-82011439D01*
X101526970Y-81975764D01*
X101526971Y-81975764D01*
X101526971Y-81975763D01*
X101526975Y-81975762D01*
X101642472Y-81887138D01*
X101731096Y-81771641D01*
X101786808Y-81637141D01*
X101805810Y-81492805D01*
X101786808Y-81348469D01*
X101731096Y-81213970D01*
X101642472Y-81098472D01*
X101526975Y-81009848D01*
X101526972Y-81009847D01*
X101526970Y-81009845D01*
X101392478Y-80954137D01*
X101392473Y-80954135D01*
X101248140Y-80935134D01*
X101248138Y-80935134D01*
X101103804Y-80954135D01*
X101103802Y-80954136D01*
X100969304Y-81009847D01*
X100853806Y-81098472D01*
X100765181Y-81213970D01*
X100709470Y-81348468D01*
X100709469Y-81348470D01*
X100690468Y-81492803D01*
X100690468Y-81492806D01*
X100709469Y-81637139D01*
X100709471Y-81637144D01*
X100765179Y-81771636D01*
X100765179Y-81771637D01*
X100765181Y-81771640D01*
X100765182Y-81771641D01*
X100853806Y-81887138D01*
X100969303Y-81975762D01*
X100969306Y-81975763D01*
X100969307Y-81975764D01*
X101055434Y-82011439D01*
X101109838Y-82055280D01*
X101131903Y-82121574D01*
X101114624Y-82189273D01*
X101063487Y-82236884D01*
X101007982Y-82250000D01*
X92608500Y-82250000D01*
X92541461Y-82230315D01*
X92495706Y-82177511D01*
X92484500Y-82126000D01*
X92484500Y-78681903D01*
X105290529Y-78681903D01*
X105309530Y-78826236D01*
X105309532Y-78826241D01*
X105365240Y-78960733D01*
X105365240Y-78960734D01*
X105365242Y-78960737D01*
X105365243Y-78960738D01*
X105453867Y-79076235D01*
X105569364Y-79164859D01*
X105569367Y-79164860D01*
X105569368Y-79164861D01*
X105636613Y-79192715D01*
X105703864Y-79220571D01*
X105776032Y-79230072D01*
X105848199Y-79239573D01*
X105848200Y-79239573D01*
X105848201Y-79239573D01*
X105896312Y-79233238D01*
X105992536Y-79220571D01*
X106127031Y-79164861D01*
X106127032Y-79164861D01*
X106127032Y-79164860D01*
X106127036Y-79164859D01*
X106242533Y-79076235D01*
X106331157Y-78960738D01*
X106386869Y-78826238D01*
X106405871Y-78681902D01*
X106386869Y-78537566D01*
X106331157Y-78403067D01*
X106242533Y-78287569D01*
X106127036Y-78198945D01*
X106127033Y-78198944D01*
X106127031Y-78198942D01*
X105992539Y-78143234D01*
X105992534Y-78143232D01*
X105848201Y-78124231D01*
X105848199Y-78124231D01*
X105703865Y-78143232D01*
X105703863Y-78143233D01*
X105569365Y-78198944D01*
X105453867Y-78287569D01*
X105365242Y-78403067D01*
X105309531Y-78537565D01*
X105309530Y-78537567D01*
X105290529Y-78681900D01*
X105290529Y-78681903D01*
X92484500Y-78681903D01*
X92484500Y-77724001D01*
X103074329Y-77724001D01*
X103093330Y-77868334D01*
X103093332Y-77868339D01*
X103149040Y-78002831D01*
X103149040Y-78002832D01*
X103149042Y-78002835D01*
X103149043Y-78002836D01*
X103237667Y-78118333D01*
X103353164Y-78206957D01*
X103353167Y-78206958D01*
X103353168Y-78206959D01*
X103420414Y-78234812D01*
X103487664Y-78262669D01*
X103559832Y-78272169D01*
X103631999Y-78281671D01*
X103632000Y-78281671D01*
X103632001Y-78281671D01*
X103680111Y-78275337D01*
X103776336Y-78262669D01*
X103910831Y-78206959D01*
X103910832Y-78206959D01*
X103910832Y-78206958D01*
X103910836Y-78206957D01*
X104026333Y-78118333D01*
X104114957Y-78002836D01*
X104170669Y-77868336D01*
X104189671Y-77724000D01*
X104170669Y-77579664D01*
X104114957Y-77445165D01*
X104026333Y-77329667D01*
X103910836Y-77241043D01*
X103910833Y-77241042D01*
X103910831Y-77241040D01*
X103776339Y-77185332D01*
X103776334Y-77185330D01*
X103632001Y-77166329D01*
X103631999Y-77166329D01*
X103487665Y-77185330D01*
X103487663Y-77185331D01*
X103353165Y-77241042D01*
X103237667Y-77329667D01*
X103149042Y-77445165D01*
X103093331Y-77579663D01*
X103093330Y-77579665D01*
X103074329Y-77723998D01*
X103074329Y-77724001D01*
X92484500Y-77724001D01*
X92484500Y-76200001D01*
X105290529Y-76200001D01*
X105309530Y-76344334D01*
X105309532Y-76344339D01*
X105365240Y-76478831D01*
X105365240Y-76478832D01*
X105365242Y-76478835D01*
X105365243Y-76478836D01*
X105453867Y-76594333D01*
X105569364Y-76682957D01*
X105569367Y-76682958D01*
X105569368Y-76682959D01*
X105636614Y-76710812D01*
X105703864Y-76738669D01*
X105776031Y-76748169D01*
X105848199Y-76757671D01*
X105848200Y-76757671D01*
X105848201Y-76757671D01*
X105896311Y-76751337D01*
X105992536Y-76738669D01*
X106127031Y-76682959D01*
X106127032Y-76682959D01*
X106127032Y-76682958D01*
X106127036Y-76682957D01*
X106242533Y-76594333D01*
X106331157Y-76478836D01*
X106386869Y-76344336D01*
X106405871Y-76200000D01*
X106386869Y-76055664D01*
X106331157Y-75921165D01*
X106242533Y-75805667D01*
X106127036Y-75717043D01*
X106127033Y-75717042D01*
X106127031Y-75717040D01*
X105992539Y-75661332D01*
X105992534Y-75661330D01*
X105848201Y-75642329D01*
X105848199Y-75642329D01*
X105703865Y-75661330D01*
X105703863Y-75661331D01*
X105569365Y-75717042D01*
X105453867Y-75805667D01*
X105365242Y-75921165D01*
X105309531Y-76055663D01*
X105309530Y-76055665D01*
X105290529Y-76199998D01*
X105290529Y-76200001D01*
X92484500Y-76200001D01*
X92484500Y-74911001D01*
X112819329Y-74911001D01*
X112838330Y-75055334D01*
X112838332Y-75055339D01*
X112894040Y-75189831D01*
X112894040Y-75189832D01*
X112894042Y-75189835D01*
X112894043Y-75189836D01*
X112982667Y-75305333D01*
X113098164Y-75393957D01*
X113098167Y-75393958D01*
X113098168Y-75393959D01*
X113165413Y-75421812D01*
X113232664Y-75449669D01*
X113304832Y-75459169D01*
X113376999Y-75468671D01*
X113377000Y-75468671D01*
X113377001Y-75468671D01*
X113425112Y-75462336D01*
X113521336Y-75449669D01*
X113655831Y-75393959D01*
X113655832Y-75393959D01*
X113655832Y-75393958D01*
X113655836Y-75393957D01*
X113771333Y-75305333D01*
X113859957Y-75189836D01*
X113915669Y-75055336D01*
X113934671Y-74911000D01*
X113915669Y-74766664D01*
X113859957Y-74632165D01*
X113771333Y-74516667D01*
X113655836Y-74428043D01*
X113655833Y-74428042D01*
X113655831Y-74428040D01*
X113521339Y-74372332D01*
X113521334Y-74372330D01*
X113377001Y-74353329D01*
X113376999Y-74353329D01*
X113232665Y-74372330D01*
X113232663Y-74372331D01*
X113098165Y-74428042D01*
X112982667Y-74516667D01*
X112894042Y-74632165D01*
X112838331Y-74766663D01*
X112838330Y-74766665D01*
X112819329Y-74910998D01*
X112819329Y-74911001D01*
X92484500Y-74911001D01*
X92484500Y-73025001D01*
X102058329Y-73025001D01*
X102077330Y-73169334D01*
X102077332Y-73169339D01*
X102133040Y-73303831D01*
X102133040Y-73303832D01*
X102133042Y-73303835D01*
X102133043Y-73303836D01*
X102221667Y-73419333D01*
X102337164Y-73507957D01*
X102337167Y-73507958D01*
X102337168Y-73507959D01*
X102404413Y-73535812D01*
X102471664Y-73563669D01*
X102543832Y-73573169D01*
X102615999Y-73582671D01*
X102616000Y-73582671D01*
X102616001Y-73582671D01*
X102664112Y-73576336D01*
X102760336Y-73563669D01*
X102894831Y-73507959D01*
X102894832Y-73507959D01*
X102894832Y-73507958D01*
X102894836Y-73507957D01*
X103010333Y-73419333D01*
X103098957Y-73303836D01*
X103154669Y-73169336D01*
X103173671Y-73025000D01*
X103154669Y-72880664D01*
X103098957Y-72746165D01*
X103010333Y-72630667D01*
X102894836Y-72542043D01*
X102894833Y-72542042D01*
X102894831Y-72542040D01*
X102760339Y-72486332D01*
X102760334Y-72486330D01*
X102616001Y-72467329D01*
X102615999Y-72467329D01*
X102471665Y-72486330D01*
X102471663Y-72486331D01*
X102337165Y-72542042D01*
X102221667Y-72630667D01*
X102133042Y-72746165D01*
X102077331Y-72880663D01*
X102077330Y-72880665D01*
X102058329Y-73024998D01*
X102058329Y-73025001D01*
X92484500Y-73025001D01*
X92484500Y-71624500D01*
X92504185Y-71557461D01*
X92556989Y-71511706D01*
X92608500Y-71500500D01*
X114734000Y-71500500D01*
X114734000Y-82250000D01*
G37*
G04 #@! TD.AperFunction*
G04 #@! TA.AperFunction,Conductor*
G36*
X193926539Y-71520185D02*
G01*
X193972294Y-71572989D01*
X193983500Y-71624500D01*
X193983500Y-82126000D01*
X193963815Y-82193039D01*
X193911011Y-82238794D01*
X193859500Y-82250000D01*
X183228028Y-82250000D01*
X183160989Y-82230315D01*
X183115234Y-82177511D01*
X183105290Y-82108353D01*
X183134315Y-82044797D01*
X183140347Y-82038319D01*
X183142328Y-82036337D01*
X183142328Y-82036336D01*
X183142333Y-82036333D01*
X183230957Y-81920836D01*
X183286669Y-81786336D01*
X183305671Y-81642000D01*
X183305254Y-81638836D01*
X183286669Y-81497665D01*
X183286669Y-81497664D01*
X183230957Y-81363165D01*
X183142333Y-81247667D01*
X183026836Y-81159043D01*
X183026833Y-81159042D01*
X183026831Y-81159040D01*
X182892339Y-81103332D01*
X182892334Y-81103330D01*
X182748001Y-81084329D01*
X182747999Y-81084329D01*
X182603665Y-81103330D01*
X182603663Y-81103331D01*
X182469165Y-81159042D01*
X182353667Y-81247667D01*
X182265042Y-81363165D01*
X182209331Y-81497663D01*
X182209330Y-81497665D01*
X182190329Y-81641998D01*
X182190329Y-81642001D01*
X182209330Y-81786334D01*
X182209332Y-81786339D01*
X182265040Y-81920831D01*
X182265040Y-81920832D01*
X182265042Y-81920835D01*
X182265043Y-81920836D01*
X182353667Y-82036333D01*
X182353669Y-82036334D01*
X182353671Y-82036337D01*
X182355653Y-82038319D01*
X182356790Y-82040402D01*
X182358615Y-82042780D01*
X182358244Y-82043064D01*
X182389138Y-82099642D01*
X182384154Y-82169334D01*
X182342282Y-82225267D01*
X182276818Y-82249684D01*
X182267972Y-82250000D01*
X179566699Y-82250000D01*
X179499660Y-82230315D01*
X179491220Y-82224382D01*
X179474637Y-82211657D01*
X179474632Y-82211655D01*
X179340137Y-82155945D01*
X179340135Y-82155944D01*
X179195802Y-82136943D01*
X179195800Y-82136943D01*
X179051466Y-82155944D01*
X179051464Y-82155945D01*
X178916968Y-82211655D01*
X178910114Y-82216914D01*
X178900389Y-82224376D01*
X178835221Y-82249570D01*
X178824904Y-82250000D01*
X175063040Y-82250000D01*
X174996001Y-82230315D01*
X174987554Y-82224376D01*
X174963714Y-82206083D01*
X174912836Y-82167043D01*
X174912832Y-82167041D01*
X174912831Y-82167040D01*
X174894774Y-82159561D01*
X174840370Y-82115721D01*
X174818305Y-82049427D01*
X174835584Y-81981727D01*
X174886720Y-81934117D01*
X174894774Y-81930439D01*
X174912831Y-81922959D01*
X174912832Y-81922959D01*
X174912832Y-81922958D01*
X174912836Y-81922957D01*
X175028333Y-81834333D01*
X175116957Y-81718836D01*
X175172669Y-81584336D01*
X175190354Y-81450001D01*
X175191671Y-81440001D01*
X175191671Y-81439998D01*
X175181891Y-81365712D01*
X179118874Y-81365712D01*
X179137875Y-81510045D01*
X179137877Y-81510050D01*
X179193585Y-81644542D01*
X179193585Y-81644543D01*
X179193587Y-81644546D01*
X179193588Y-81644547D01*
X179282212Y-81760044D01*
X179397709Y-81848668D01*
X179397712Y-81848669D01*
X179397713Y-81848670D01*
X179456533Y-81873034D01*
X179532209Y-81904380D01*
X179604377Y-81913881D01*
X179676544Y-81923382D01*
X179676545Y-81923382D01*
X179676546Y-81923382D01*
X179724657Y-81917048D01*
X179820881Y-81904380D01*
X179955376Y-81848670D01*
X179955377Y-81848670D01*
X179955377Y-81848669D01*
X179955381Y-81848668D01*
X180070878Y-81760044D01*
X180159502Y-81644547D01*
X180215214Y-81510047D01*
X180234216Y-81365711D01*
X180233464Y-81360001D01*
X180219286Y-81252309D01*
X180215214Y-81221375D01*
X180159502Y-81086876D01*
X180135556Y-81055669D01*
X180070879Y-80971379D01*
X180069301Y-80970168D01*
X179955381Y-80882754D01*
X179955378Y-80882753D01*
X179955376Y-80882751D01*
X179820884Y-80827043D01*
X179820879Y-80827041D01*
X179676546Y-80808040D01*
X179676544Y-80808040D01*
X179532210Y-80827041D01*
X179532208Y-80827042D01*
X179397710Y-80882753D01*
X179282212Y-80971378D01*
X179193587Y-81086876D01*
X179137876Y-81221374D01*
X179137875Y-81221376D01*
X179118874Y-81365709D01*
X179118874Y-81365712D01*
X175181891Y-81365712D01*
X175173986Y-81305665D01*
X175172669Y-81295664D01*
X175116957Y-81161165D01*
X175079469Y-81112309D01*
X175028334Y-81045668D01*
X175022870Y-81041475D01*
X174912836Y-80957043D01*
X174912833Y-80957042D01*
X174912831Y-80957040D01*
X174778339Y-80901332D01*
X174778334Y-80901330D01*
X174634001Y-80882329D01*
X174633999Y-80882329D01*
X174489665Y-80901330D01*
X174489663Y-80901331D01*
X174355165Y-80957042D01*
X174239666Y-81045667D01*
X174232375Y-81055170D01*
X174175947Y-81096372D01*
X174106201Y-81100527D01*
X174045281Y-81066314D01*
X174035625Y-81055170D01*
X174034011Y-81053067D01*
X174028333Y-81045667D01*
X173912836Y-80957043D01*
X173912833Y-80957042D01*
X173912831Y-80957040D01*
X173778339Y-80901332D01*
X173778334Y-80901330D01*
X173634001Y-80882329D01*
X173633999Y-80882329D01*
X173489665Y-80901330D01*
X173489663Y-80901331D01*
X173355165Y-80957042D01*
X173239666Y-81045667D01*
X173232375Y-81055170D01*
X173175947Y-81096372D01*
X173106201Y-81100527D01*
X173045281Y-81066314D01*
X173035625Y-81055170D01*
X173034011Y-81053067D01*
X173028333Y-81045667D01*
X172912836Y-80957043D01*
X172912833Y-80957042D01*
X172912831Y-80957040D01*
X172778339Y-80901332D01*
X172778334Y-80901330D01*
X172634001Y-80882329D01*
X172633999Y-80882329D01*
X172489665Y-80901330D01*
X172489663Y-80901331D01*
X172355165Y-80957042D01*
X172239668Y-81045665D01*
X172201301Y-81095667D01*
X172195420Y-81103332D01*
X172182376Y-81120331D01*
X172125948Y-81161533D01*
X172056202Y-81165688D01*
X171995281Y-81131475D01*
X171985624Y-81120331D01*
X171982542Y-81116314D01*
X171928333Y-81045667D01*
X171812836Y-80957043D01*
X171812833Y-80957042D01*
X171812831Y-80957040D01*
X171678339Y-80901332D01*
X171678334Y-80901330D01*
X171534001Y-80882329D01*
X171533999Y-80882329D01*
X171389665Y-80901330D01*
X171389663Y-80901331D01*
X171255165Y-80957042D01*
X171139667Y-81045667D01*
X171051042Y-81161165D01*
X170995331Y-81295663D01*
X170995330Y-81295665D01*
X170976329Y-81439998D01*
X170976329Y-81440001D01*
X170995330Y-81584334D01*
X170995332Y-81584339D01*
X171051040Y-81718831D01*
X171051040Y-81718832D01*
X171051042Y-81718835D01*
X171051043Y-81718836D01*
X171139667Y-81834333D01*
X171255164Y-81922957D01*
X171255167Y-81922958D01*
X171255168Y-81922959D01*
X171328263Y-81953236D01*
X171382667Y-81997077D01*
X171404732Y-82063371D01*
X171387453Y-82131070D01*
X171356298Y-82166173D01*
X171337407Y-82180669D01*
X171280450Y-82224374D01*
X171280447Y-82224376D01*
X171215278Y-82249570D01*
X171204960Y-82250000D01*
X164721405Y-82250000D01*
X164654366Y-82230315D01*
X164608611Y-82177511D01*
X164598466Y-82109815D01*
X164610567Y-82017901D01*
X164608680Y-82003570D01*
X164594870Y-81898669D01*
X164591565Y-81873565D01*
X164535853Y-81739066D01*
X164501634Y-81694470D01*
X164447230Y-81623569D01*
X164434757Y-81613998D01*
X164331732Y-81534944D01*
X164331729Y-81534943D01*
X164331727Y-81534941D01*
X164197235Y-81479233D01*
X164197230Y-81479231D01*
X164052897Y-81460230D01*
X164052895Y-81460230D01*
X163908561Y-81479231D01*
X163908559Y-81479232D01*
X163774061Y-81534943D01*
X163658563Y-81623568D01*
X163569938Y-81739066D01*
X163514227Y-81873564D01*
X163514226Y-81873566D01*
X163495225Y-82017899D01*
X163495225Y-82017901D01*
X163507325Y-82109815D01*
X163496561Y-82178850D01*
X163450181Y-82231106D01*
X163384387Y-82250000D01*
X159063040Y-82250000D01*
X158996001Y-82230315D01*
X158987567Y-82224386D01*
X158914568Y-82168372D01*
X158873369Y-82111949D01*
X158869214Y-82042203D01*
X158903426Y-81981282D01*
X158914562Y-81971632D01*
X159028333Y-81884333D01*
X159116957Y-81768836D01*
X159172669Y-81634336D01*
X159191100Y-81494336D01*
X159191671Y-81490001D01*
X159191671Y-81489998D01*
X159173240Y-81350000D01*
X159172669Y-81345664D01*
X159116957Y-81211165D01*
X159076962Y-81159042D01*
X159028334Y-81095668D01*
X159013557Y-81084329D01*
X158912836Y-81007043D01*
X158912833Y-81007042D01*
X158912831Y-81007040D01*
X158778339Y-80951332D01*
X158778334Y-80951330D01*
X158634001Y-80932329D01*
X158633999Y-80932329D01*
X158489665Y-80951330D01*
X158489663Y-80951331D01*
X158355165Y-81007042D01*
X158239666Y-81095667D01*
X158232375Y-81105170D01*
X158175947Y-81146372D01*
X158106201Y-81150527D01*
X158045281Y-81116314D01*
X158035625Y-81105170D01*
X158032062Y-81100527D01*
X158028333Y-81095667D01*
X157912836Y-81007043D01*
X157912833Y-81007042D01*
X157912831Y-81007040D01*
X157778339Y-80951332D01*
X157778334Y-80951330D01*
X157634001Y-80932329D01*
X157633999Y-80932329D01*
X157489665Y-80951330D01*
X157489663Y-80951331D01*
X157355165Y-81007042D01*
X157239666Y-81095667D01*
X157232375Y-81105170D01*
X157175947Y-81146372D01*
X157106201Y-81150527D01*
X157045281Y-81116314D01*
X157035625Y-81105170D01*
X157032062Y-81100527D01*
X157028333Y-81095667D01*
X156912836Y-81007043D01*
X156912833Y-81007042D01*
X156912831Y-81007040D01*
X156778339Y-80951332D01*
X156778334Y-80951330D01*
X156634001Y-80932329D01*
X156633999Y-80932329D01*
X156489665Y-80951330D01*
X156489663Y-80951331D01*
X156355165Y-81007042D01*
X156239668Y-81095665D01*
X156212191Y-81131475D01*
X156185939Y-81165688D01*
X156182376Y-81170331D01*
X156125948Y-81211533D01*
X156056202Y-81215688D01*
X155995281Y-81181475D01*
X155985624Y-81170331D01*
X155928333Y-81095667D01*
X155812836Y-81007043D01*
X155812833Y-81007042D01*
X155812831Y-81007040D01*
X155678339Y-80951332D01*
X155678334Y-80951330D01*
X155534001Y-80932329D01*
X155533999Y-80932329D01*
X155389665Y-80951330D01*
X155389663Y-80951331D01*
X155255165Y-81007042D01*
X155139667Y-81095667D01*
X155051042Y-81211165D01*
X154995331Y-81345663D01*
X154995330Y-81345665D01*
X154976329Y-81489998D01*
X154976329Y-81490001D01*
X154995330Y-81634334D01*
X154995332Y-81634339D01*
X155051040Y-81768831D01*
X155051040Y-81768832D01*
X155051042Y-81768835D01*
X155051043Y-81768836D01*
X155139667Y-81884333D01*
X155255164Y-81972957D01*
X155285945Y-81985707D01*
X155340348Y-82029547D01*
X155362414Y-82095840D01*
X155345136Y-82163540D01*
X155313982Y-82198642D01*
X155280449Y-82224374D01*
X155215280Y-82249570D01*
X155204960Y-82250000D01*
X150342697Y-82250000D01*
X150275658Y-82230315D01*
X150229903Y-82177511D01*
X150219758Y-82109816D01*
X150233119Y-82008331D01*
X150231637Y-81997077D01*
X150216795Y-81884334D01*
X150214117Y-81863995D01*
X150158405Y-81729496D01*
X150157899Y-81728836D01*
X150069782Y-81613999D01*
X150069781Y-81613998D01*
X149954284Y-81525374D01*
X149954281Y-81525373D01*
X149954279Y-81525371D01*
X149819787Y-81469663D01*
X149819782Y-81469661D01*
X149675449Y-81450660D01*
X149675447Y-81450660D01*
X149531113Y-81469661D01*
X149531111Y-81469662D01*
X149396613Y-81525373D01*
X149281115Y-81613998D01*
X149192490Y-81729496D01*
X149136779Y-81863994D01*
X149136778Y-81863996D01*
X149119180Y-81997671D01*
X149117777Y-82008331D01*
X149131137Y-82109816D01*
X149120373Y-82178850D01*
X149073993Y-82231105D01*
X149008199Y-82250000D01*
X143063040Y-82250000D01*
X142996001Y-82230315D01*
X142987554Y-82224376D01*
X142963714Y-82206083D01*
X142912836Y-82167043D01*
X142912831Y-82167041D01*
X142906846Y-82164562D01*
X142852442Y-82120722D01*
X142830376Y-82054428D01*
X142847654Y-81986729D01*
X142898790Y-81939117D01*
X142906846Y-81935438D01*
X142912836Y-81932957D01*
X143028333Y-81844333D01*
X143116957Y-81728836D01*
X143172669Y-81594336D01*
X143189082Y-81469663D01*
X143191671Y-81450001D01*
X143191671Y-81449998D01*
X143172669Y-81305665D01*
X143172669Y-81305664D01*
X143116957Y-81171165D01*
X143085624Y-81130331D01*
X143028334Y-81055668D01*
X143017263Y-81047173D01*
X142912836Y-80967043D01*
X142912833Y-80967042D01*
X142912831Y-80967040D01*
X142778339Y-80911332D01*
X142778334Y-80911330D01*
X142634001Y-80892329D01*
X142633999Y-80892329D01*
X142489665Y-80911330D01*
X142489663Y-80911331D01*
X142355165Y-80967042D01*
X142239666Y-81055667D01*
X142232375Y-81065170D01*
X142175947Y-81106372D01*
X142106201Y-81110527D01*
X142045281Y-81076314D01*
X142035625Y-81065170D01*
X142034011Y-81063067D01*
X142028333Y-81055667D01*
X141912836Y-80967043D01*
X141912833Y-80967042D01*
X141912831Y-80967040D01*
X141778339Y-80911332D01*
X141778334Y-80911330D01*
X141634001Y-80892329D01*
X141633999Y-80892329D01*
X141489665Y-80911330D01*
X141489663Y-80911331D01*
X141355165Y-80967042D01*
X141239666Y-81055667D01*
X141232375Y-81065170D01*
X141175947Y-81106372D01*
X141106201Y-81110527D01*
X141045281Y-81076314D01*
X141035625Y-81065170D01*
X141034011Y-81063067D01*
X141028333Y-81055667D01*
X140912836Y-80967043D01*
X140912833Y-80967042D01*
X140912831Y-80967040D01*
X140778339Y-80911332D01*
X140778334Y-80911330D01*
X140634001Y-80892329D01*
X140633999Y-80892329D01*
X140489665Y-80911330D01*
X140489663Y-80911331D01*
X140355165Y-80967042D01*
X140239668Y-81055665D01*
X140182376Y-81130331D01*
X140125948Y-81171533D01*
X140056202Y-81175688D01*
X139995281Y-81141475D01*
X139985624Y-81130331D01*
X139975632Y-81117309D01*
X139928333Y-81055667D01*
X139812836Y-80967043D01*
X139812833Y-80967042D01*
X139812831Y-80967040D01*
X139678339Y-80911332D01*
X139678334Y-80911330D01*
X139534001Y-80892329D01*
X139533999Y-80892329D01*
X139389665Y-80911330D01*
X139389663Y-80911331D01*
X139255165Y-80967042D01*
X139139667Y-81055667D01*
X139051042Y-81171165D01*
X138995331Y-81305663D01*
X138995330Y-81305665D01*
X138976329Y-81449998D01*
X138976329Y-81450001D01*
X138995330Y-81594334D01*
X138995332Y-81594339D01*
X139051040Y-81728831D01*
X139051040Y-81728832D01*
X139051042Y-81728835D01*
X139051043Y-81728836D01*
X139139667Y-81844333D01*
X139255164Y-81932957D01*
X139319803Y-81959731D01*
X139374203Y-82003570D01*
X139396269Y-82069864D01*
X139378990Y-82137563D01*
X139347835Y-82172667D01*
X139337407Y-82180669D01*
X139280450Y-82224374D01*
X139280447Y-82224376D01*
X139215278Y-82249570D01*
X139204960Y-82250000D01*
X131859763Y-82250000D01*
X131792724Y-82230315D01*
X131746969Y-82177511D01*
X131736824Y-82142187D01*
X131736215Y-82137563D01*
X131734302Y-82123031D01*
X131678590Y-81988532D01*
X131665616Y-81971624D01*
X131589967Y-81873035D01*
X131589966Y-81873034D01*
X131474469Y-81784410D01*
X131474466Y-81784409D01*
X131474464Y-81784407D01*
X131339972Y-81728699D01*
X131339967Y-81728697D01*
X131195634Y-81709696D01*
X131195632Y-81709696D01*
X131051298Y-81728697D01*
X131051296Y-81728698D01*
X130916798Y-81784409D01*
X130801300Y-81873034D01*
X130712675Y-81988532D01*
X130656964Y-82123030D01*
X130656964Y-82123031D01*
X130654442Y-82142187D01*
X130626174Y-82206083D01*
X130567849Y-82244554D01*
X130531503Y-82250000D01*
X127063040Y-82250000D01*
X126996001Y-82230315D01*
X126987554Y-82224376D01*
X126963714Y-82206083D01*
X126912836Y-82167043D01*
X126912832Y-82167041D01*
X126912831Y-82167040D01*
X126798205Y-82119561D01*
X126743801Y-82075720D01*
X126721736Y-82009426D01*
X126739015Y-81941727D01*
X126790152Y-81894116D01*
X126798205Y-81890439D01*
X126912831Y-81842959D01*
X126912832Y-81842959D01*
X126912832Y-81842958D01*
X126912836Y-81842957D01*
X127028333Y-81754333D01*
X127116957Y-81638836D01*
X127172669Y-81504336D01*
X127190919Y-81365711D01*
X127191671Y-81360001D01*
X127191671Y-81359998D01*
X127172669Y-81215665D01*
X127172669Y-81215664D01*
X127116957Y-81081165D01*
X127097390Y-81055665D01*
X127028334Y-80965668D01*
X127019054Y-80958547D01*
X126912836Y-80877043D01*
X126912833Y-80877042D01*
X126912831Y-80877040D01*
X126778339Y-80821332D01*
X126778334Y-80821330D01*
X126634001Y-80802329D01*
X126633999Y-80802329D01*
X126489665Y-80821330D01*
X126489663Y-80821331D01*
X126355165Y-80877042D01*
X126239665Y-80965668D01*
X126236208Y-80970174D01*
X126179779Y-81011374D01*
X126110033Y-81015526D01*
X126049114Y-80981311D01*
X126039467Y-80970177D01*
X126028333Y-80955667D01*
X125912836Y-80867043D01*
X125912833Y-80867042D01*
X125912831Y-80867040D01*
X125778339Y-80811332D01*
X125778334Y-80811330D01*
X125634001Y-80792329D01*
X125633999Y-80792329D01*
X125489665Y-80811330D01*
X125489663Y-80811331D01*
X125355165Y-80867042D01*
X125239666Y-80955667D01*
X125232375Y-80965170D01*
X125175947Y-81006372D01*
X125106201Y-81010527D01*
X125045281Y-80976314D01*
X125035625Y-80965170D01*
X125030542Y-80958546D01*
X125028333Y-80955667D01*
X124912836Y-80867043D01*
X124912833Y-80867042D01*
X124912831Y-80867040D01*
X124778339Y-80811332D01*
X124778334Y-80811330D01*
X124634001Y-80792329D01*
X124633999Y-80792329D01*
X124489665Y-80811330D01*
X124489663Y-80811331D01*
X124355165Y-80867042D01*
X124239668Y-80955665D01*
X124182376Y-81030331D01*
X124125948Y-81071533D01*
X124056202Y-81075688D01*
X123995281Y-81041475D01*
X123985624Y-81030331D01*
X123970428Y-81010527D01*
X123928333Y-80955667D01*
X123812836Y-80867043D01*
X123812833Y-80867042D01*
X123812831Y-80867040D01*
X123678339Y-80811332D01*
X123678334Y-80811330D01*
X123534001Y-80792329D01*
X123533999Y-80792329D01*
X123389665Y-80811330D01*
X123389663Y-80811331D01*
X123255165Y-80867042D01*
X123139667Y-80955667D01*
X123051042Y-81071165D01*
X122995331Y-81205663D01*
X122995330Y-81205665D01*
X122976329Y-81349998D01*
X122976329Y-81350001D01*
X122995330Y-81494334D01*
X122995332Y-81494339D01*
X123051040Y-81628831D01*
X123051040Y-81628832D01*
X123051042Y-81628835D01*
X123051043Y-81628836D01*
X123139667Y-81744333D01*
X123255164Y-81832957D01*
X123255167Y-81832958D01*
X123255168Y-81832959D01*
X123293098Y-81848670D01*
X123389664Y-81888669D01*
X123414636Y-81891956D01*
X123478532Y-81920221D01*
X123517004Y-81978545D01*
X123517837Y-82048409D01*
X123480766Y-82107634D01*
X123445906Y-82129456D01*
X123355164Y-82167043D01*
X123280446Y-82224376D01*
X123215277Y-82249570D01*
X123204960Y-82250000D01*
X114734000Y-82250000D01*
X114734000Y-80315601D01*
X115896539Y-80315601D01*
X115915540Y-80459934D01*
X115915542Y-80459939D01*
X115971250Y-80594431D01*
X115971250Y-80594432D01*
X115971252Y-80594435D01*
X115971253Y-80594436D01*
X116059877Y-80709933D01*
X116175374Y-80798557D01*
X116175377Y-80798558D01*
X116175378Y-80798559D01*
X116230355Y-80821331D01*
X116309874Y-80854269D01*
X116382042Y-80863770D01*
X116454209Y-80873271D01*
X116454210Y-80873271D01*
X116454211Y-80873271D01*
X116502322Y-80866937D01*
X116598546Y-80854269D01*
X116733041Y-80798559D01*
X116733042Y-80798559D01*
X116733042Y-80798558D01*
X116733046Y-80798557D01*
X116848543Y-80709933D01*
X116937167Y-80594436D01*
X116992879Y-80459936D01*
X117011881Y-80315601D01*
X120238863Y-80315601D01*
X120257864Y-80459934D01*
X120257866Y-80459939D01*
X120313574Y-80594431D01*
X120313574Y-80594432D01*
X120313576Y-80594435D01*
X120313577Y-80594436D01*
X120402201Y-80709933D01*
X120517698Y-80798557D01*
X120517701Y-80798558D01*
X120517702Y-80798559D01*
X120572679Y-80821331D01*
X120652198Y-80854269D01*
X120724365Y-80863769D01*
X120796533Y-80873271D01*
X120796534Y-80873271D01*
X120796535Y-80873271D01*
X120844646Y-80866937D01*
X120940870Y-80854269D01*
X121075365Y-80798559D01*
X121075366Y-80798559D01*
X121075366Y-80798558D01*
X121075370Y-80798557D01*
X121190867Y-80709933D01*
X121279491Y-80594436D01*
X121315791Y-80506801D01*
X161768729Y-80506801D01*
X161787730Y-80651134D01*
X161787732Y-80651139D01*
X161843440Y-80785631D01*
X161843440Y-80785632D01*
X161843442Y-80785635D01*
X161843443Y-80785636D01*
X161932067Y-80901133D01*
X162047564Y-80989757D01*
X162047567Y-80989758D01*
X162047568Y-80989759D01*
X162114813Y-81017613D01*
X162182064Y-81045469D01*
X162254232Y-81054969D01*
X162326399Y-81064471D01*
X162326400Y-81064471D01*
X162326401Y-81064471D01*
X162374511Y-81058137D01*
X162470736Y-81045469D01*
X162605231Y-80989759D01*
X162605232Y-80989759D01*
X162605232Y-80989758D01*
X162605236Y-80989757D01*
X162720733Y-80901133D01*
X162809357Y-80785636D01*
X162865069Y-80651136D01*
X162876512Y-80564215D01*
X177084777Y-80564215D01*
X177103778Y-80708548D01*
X177103780Y-80708553D01*
X177159488Y-80843045D01*
X177159488Y-80843046D01*
X177159490Y-80843049D01*
X177159491Y-80843050D01*
X177248115Y-80958547D01*
X177363612Y-81047171D01*
X177363615Y-81047172D01*
X177363616Y-81047173D01*
X177407065Y-81065170D01*
X177498112Y-81102883D01*
X177501523Y-81103332D01*
X177642447Y-81121885D01*
X177642448Y-81121885D01*
X177642449Y-81121885D01*
X177690559Y-81115551D01*
X177786784Y-81102883D01*
X177921279Y-81047173D01*
X177921280Y-81047173D01*
X177921280Y-81047172D01*
X177921284Y-81047171D01*
X178036781Y-80958547D01*
X178125405Y-80843050D01*
X178181117Y-80708550D01*
X178200119Y-80564214D01*
X178181117Y-80419878D01*
X178125405Y-80285379D01*
X178109001Y-80264001D01*
X182195329Y-80264001D01*
X182214330Y-80408334D01*
X182214332Y-80408339D01*
X182270040Y-80542831D01*
X182270040Y-80542832D01*
X182270042Y-80542835D01*
X182270043Y-80542836D01*
X182358667Y-80658333D01*
X182474164Y-80746957D01*
X182474167Y-80746958D01*
X182474168Y-80746959D01*
X182541414Y-80774813D01*
X182608664Y-80802669D01*
X182674452Y-80811330D01*
X182752999Y-80821671D01*
X182753000Y-80821671D01*
X182753001Y-80821671D01*
X182831533Y-80811332D01*
X182897336Y-80802669D01*
X183031831Y-80746959D01*
X183031832Y-80746959D01*
X183031832Y-80746958D01*
X183031836Y-80746957D01*
X183147333Y-80658333D01*
X183235957Y-80542836D01*
X183291669Y-80408336D01*
X183307596Y-80287359D01*
X183310671Y-80264001D01*
X183310671Y-80263998D01*
X183294048Y-80137732D01*
X183291669Y-80119664D01*
X183235957Y-79985165D01*
X183148514Y-79871206D01*
X183147334Y-79869668D01*
X183133301Y-79858900D01*
X183031836Y-79781043D01*
X183031833Y-79781042D01*
X183031831Y-79781040D01*
X182897339Y-79725332D01*
X182897334Y-79725330D01*
X182753001Y-79706329D01*
X182752999Y-79706329D01*
X182608665Y-79725330D01*
X182608663Y-79725331D01*
X182474165Y-79781042D01*
X182358667Y-79869667D01*
X182270042Y-79985165D01*
X182214331Y-80119663D01*
X182214330Y-80119665D01*
X182195329Y-80263998D01*
X182195329Y-80264001D01*
X178109001Y-80264001D01*
X178069595Y-80212645D01*
X178036782Y-80169882D01*
X178036781Y-80169881D01*
X177921284Y-80081257D01*
X177921281Y-80081256D01*
X177921279Y-80081254D01*
X177786787Y-80025546D01*
X177786782Y-80025544D01*
X177642449Y-80006543D01*
X177642447Y-80006543D01*
X177498113Y-80025544D01*
X177498111Y-80025545D01*
X177363613Y-80081256D01*
X177248115Y-80169881D01*
X177159490Y-80285379D01*
X177103779Y-80419877D01*
X177103778Y-80419879D01*
X177084777Y-80564212D01*
X177084777Y-80564215D01*
X162876512Y-80564215D01*
X162879327Y-80542832D01*
X162884071Y-80506801D01*
X162884071Y-80506798D01*
X162865069Y-80362465D01*
X162865069Y-80362464D01*
X162809357Y-80227965D01*
X162751939Y-80153136D01*
X162720734Y-80112468D01*
X162720733Y-80112467D01*
X162605236Y-80023843D01*
X162605233Y-80023842D01*
X162605231Y-80023840D01*
X162470739Y-79968132D01*
X162470734Y-79968130D01*
X162326401Y-79949129D01*
X162326399Y-79949129D01*
X162182065Y-79968130D01*
X162182063Y-79968131D01*
X162047565Y-80023842D01*
X161932067Y-80112467D01*
X161843442Y-80227965D01*
X161787731Y-80362463D01*
X161787730Y-80362465D01*
X161768729Y-80506798D01*
X161768729Y-80506801D01*
X121315791Y-80506801D01*
X121335203Y-80459936D01*
X121354205Y-80315600D01*
X121350226Y-80285379D01*
X121335203Y-80171265D01*
X121335203Y-80171264D01*
X121279491Y-80036765D01*
X121227492Y-79968998D01*
X121190868Y-79921268D01*
X121180471Y-79913290D01*
X121075370Y-79832643D01*
X121075367Y-79832642D01*
X121075365Y-79832640D01*
X120967668Y-79788031D01*
X120958193Y-79780395D01*
X120943737Y-79777699D01*
X120940871Y-79776931D01*
X120796535Y-79757929D01*
X120796533Y-79757929D01*
X120652199Y-79776930D01*
X120652197Y-79776931D01*
X120517699Y-79832642D01*
X120402201Y-79921267D01*
X120313576Y-80036765D01*
X120257865Y-80171263D01*
X120257864Y-80171265D01*
X120238863Y-80315598D01*
X120238863Y-80315601D01*
X117011881Y-80315601D01*
X117011881Y-80315600D01*
X117007902Y-80285379D01*
X116992879Y-80171265D01*
X116992879Y-80171264D01*
X116937167Y-80036765D01*
X116885168Y-79968998D01*
X116848544Y-79921268D01*
X116838147Y-79913290D01*
X116733046Y-79832643D01*
X116733043Y-79832642D01*
X116733041Y-79832640D01*
X116598549Y-79776932D01*
X116598544Y-79776930D01*
X116454211Y-79757929D01*
X116454209Y-79757929D01*
X116309875Y-79776930D01*
X116309873Y-79776931D01*
X116175375Y-79832642D01*
X116059877Y-79921267D01*
X115971252Y-80036765D01*
X115915541Y-80171263D01*
X115915540Y-80171265D01*
X115896539Y-80315598D01*
X115896539Y-80315601D01*
X114734000Y-80315601D01*
X114734000Y-79729689D01*
X129528493Y-79729689D01*
X129547494Y-79874022D01*
X129547496Y-79874027D01*
X129603204Y-80008519D01*
X129603204Y-80008520D01*
X129603206Y-80008523D01*
X129603207Y-80008524D01*
X129691831Y-80124021D01*
X129807328Y-80212645D01*
X129807331Y-80212646D01*
X129807332Y-80212647D01*
X129866302Y-80237073D01*
X129941828Y-80268357D01*
X130013996Y-80277857D01*
X130086163Y-80287359D01*
X130086164Y-80287359D01*
X130086165Y-80287359D01*
X130134276Y-80281025D01*
X130230500Y-80268357D01*
X130364995Y-80212647D01*
X130364996Y-80212647D01*
X130364996Y-80212646D01*
X130365000Y-80212645D01*
X130480497Y-80124021D01*
X130569121Y-80008524D01*
X130624833Y-79874024D01*
X130643835Y-79729688D01*
X130643261Y-79725331D01*
X130624833Y-79585353D01*
X130624833Y-79585352D01*
X130569121Y-79450853D01*
X130521083Y-79388248D01*
X131253341Y-79388248D01*
X131272342Y-79532581D01*
X131272344Y-79532586D01*
X131328052Y-79667078D01*
X131328052Y-79667079D01*
X131328054Y-79667082D01*
X131328055Y-79667083D01*
X131416679Y-79782580D01*
X131532176Y-79871204D01*
X131532179Y-79871205D01*
X131532180Y-79871206D01*
X131585532Y-79893305D01*
X131666676Y-79926916D01*
X131738844Y-79936417D01*
X131811011Y-79945918D01*
X131811012Y-79945918D01*
X131811013Y-79945918D01*
X131859123Y-79939584D01*
X131955348Y-79926916D01*
X132089843Y-79871206D01*
X132089844Y-79871206D01*
X132089844Y-79871205D01*
X132089848Y-79871204D01*
X132105882Y-79858901D01*
X145679402Y-79858901D01*
X145698403Y-80003234D01*
X145698405Y-80003239D01*
X145754113Y-80137731D01*
X145754113Y-80137732D01*
X145754115Y-80137735D01*
X145754116Y-80137736D01*
X145842740Y-80253233D01*
X145958237Y-80341857D01*
X145958240Y-80341858D01*
X145958241Y-80341859D01*
X146007984Y-80362463D01*
X146092737Y-80397569D01*
X146164905Y-80407070D01*
X146237072Y-80416571D01*
X146237073Y-80416571D01*
X146237074Y-80416571D01*
X146299602Y-80408339D01*
X146381409Y-80397569D01*
X146515904Y-80341859D01*
X146515905Y-80341859D01*
X146515905Y-80341858D01*
X146515909Y-80341857D01*
X146631406Y-80253233D01*
X146720030Y-80137736D01*
X146775742Y-80003236D01*
X146794744Y-79858900D01*
X146775742Y-79714564D01*
X146761178Y-79679403D01*
X147615829Y-79679403D01*
X147634830Y-79823736D01*
X147634832Y-79823741D01*
X147690540Y-79958233D01*
X147690540Y-79958234D01*
X147690542Y-79958237D01*
X147690543Y-79958238D01*
X147779167Y-80073735D01*
X147894664Y-80162359D01*
X147894667Y-80162360D01*
X147894668Y-80162361D01*
X147918277Y-80172140D01*
X148029164Y-80218071D01*
X148101331Y-80227572D01*
X148173499Y-80237073D01*
X148173500Y-80237073D01*
X148173501Y-80237073D01*
X148221612Y-80230738D01*
X148317836Y-80218071D01*
X148452331Y-80162361D01*
X148452332Y-80162361D01*
X148452332Y-80162360D01*
X148452336Y-80162359D01*
X148567833Y-80073735D01*
X148656457Y-79958238D01*
X148712169Y-79823738D01*
X148731171Y-79679402D01*
X148729047Y-79663272D01*
X148717383Y-79574670D01*
X148712169Y-79535066D01*
X148668786Y-79430332D01*
X149475129Y-79430332D01*
X149494130Y-79574665D01*
X149494132Y-79574670D01*
X149549840Y-79709162D01*
X149549840Y-79709163D01*
X149549842Y-79709166D01*
X149549843Y-79709167D01*
X149638467Y-79824664D01*
X149753964Y-79913288D01*
X149753967Y-79913289D01*
X149753968Y-79913290D01*
X149821214Y-79941144D01*
X149888464Y-79969000D01*
X149960631Y-79978500D01*
X150032799Y-79988002D01*
X150032800Y-79988002D01*
X150032801Y-79988002D01*
X150080912Y-79981668D01*
X150177136Y-79969000D01*
X150311631Y-79913290D01*
X150311632Y-79913290D01*
X150311632Y-79913289D01*
X150311636Y-79913288D01*
X150427133Y-79824664D01*
X150515757Y-79709167D01*
X150554982Y-79614470D01*
X163600381Y-79614470D01*
X163619382Y-79758803D01*
X163619384Y-79758808D01*
X163675092Y-79893300D01*
X163675092Y-79893301D01*
X163675094Y-79893304D01*
X163675095Y-79893305D01*
X163763719Y-80008802D01*
X163879216Y-80097426D01*
X163879219Y-80097427D01*
X163879220Y-80097428D01*
X163932903Y-80119664D01*
X164013716Y-80153138D01*
X164083757Y-80162359D01*
X164158051Y-80172140D01*
X164158052Y-80172140D01*
X164158053Y-80172140D01*
X164206163Y-80165805D01*
X164302388Y-80153138D01*
X164436883Y-80097428D01*
X164436884Y-80097428D01*
X164436884Y-80097427D01*
X164436888Y-80097426D01*
X164552385Y-80008802D01*
X164641009Y-79893305D01*
X164696721Y-79758805D01*
X164715723Y-79614469D01*
X164710483Y-79574670D01*
X164696721Y-79470134D01*
X164696721Y-79470133D01*
X164641009Y-79335634D01*
X164602210Y-79285070D01*
X164552386Y-79220137D01*
X164527566Y-79201092D01*
X165247485Y-79201092D01*
X165266486Y-79345425D01*
X165266488Y-79345430D01*
X165322196Y-79479922D01*
X165322196Y-79479923D01*
X165322198Y-79479926D01*
X165322199Y-79479927D01*
X165410823Y-79595424D01*
X165526320Y-79684048D01*
X165526323Y-79684049D01*
X165526324Y-79684050D01*
X165580111Y-79706329D01*
X165660820Y-79739760D01*
X165732988Y-79749261D01*
X165805155Y-79758762D01*
X165805156Y-79758762D01*
X165805157Y-79758762D01*
X165853267Y-79752427D01*
X165949492Y-79739760D01*
X166083987Y-79684050D01*
X166083988Y-79684050D01*
X166083988Y-79684049D01*
X166083992Y-79684048D01*
X166199489Y-79595424D01*
X166288113Y-79479927D01*
X166343825Y-79345427D01*
X166362827Y-79201091D01*
X166362215Y-79196445D01*
X166349781Y-79102001D01*
X179523329Y-79102001D01*
X179542330Y-79246334D01*
X179542332Y-79246339D01*
X179598040Y-79380831D01*
X179598040Y-79380832D01*
X179598042Y-79380835D01*
X179598043Y-79380836D01*
X179686667Y-79496333D01*
X179802164Y-79584957D01*
X179802167Y-79584958D01*
X179802168Y-79584959D01*
X179827431Y-79595423D01*
X179936664Y-79640669D01*
X180008832Y-79650169D01*
X180080999Y-79659671D01*
X180081000Y-79659671D01*
X180081001Y-79659671D01*
X180129112Y-79653337D01*
X180225336Y-79640669D01*
X180359831Y-79584959D01*
X180359832Y-79584959D01*
X180359832Y-79584958D01*
X180359836Y-79584957D01*
X180475333Y-79496333D01*
X180563957Y-79380836D01*
X180619669Y-79246336D01*
X180638671Y-79102000D01*
X180638522Y-79100871D01*
X180619669Y-78957665D01*
X180619669Y-78957664D01*
X180563957Y-78823165D01*
X180475333Y-78707667D01*
X180359836Y-78619043D01*
X180359833Y-78619042D01*
X180359831Y-78619040D01*
X180225339Y-78563332D01*
X180225334Y-78563330D01*
X180081001Y-78544329D01*
X180080999Y-78544329D01*
X179936665Y-78563330D01*
X179936663Y-78563331D01*
X179802165Y-78619042D01*
X179686667Y-78707667D01*
X179598042Y-78823165D01*
X179542331Y-78957663D01*
X179542330Y-78957665D01*
X179523329Y-79101998D01*
X179523329Y-79102001D01*
X166349781Y-79102001D01*
X166343825Y-79056756D01*
X166343825Y-79056755D01*
X166288113Y-78922256D01*
X166249133Y-78871456D01*
X166199490Y-78806759D01*
X166199489Y-78806758D01*
X166083992Y-78718134D01*
X166083989Y-78718133D01*
X166083987Y-78718131D01*
X165949495Y-78662423D01*
X165949490Y-78662421D01*
X165805157Y-78643420D01*
X165805155Y-78643420D01*
X165660821Y-78662421D01*
X165660819Y-78662422D01*
X165526321Y-78718133D01*
X165410823Y-78806758D01*
X165322198Y-78922256D01*
X165266487Y-79056754D01*
X165266486Y-79056756D01*
X165247485Y-79201089D01*
X165247485Y-79201092D01*
X164527566Y-79201092D01*
X164521510Y-79196445D01*
X164436888Y-79131512D01*
X164436885Y-79131511D01*
X164436883Y-79131509D01*
X164302391Y-79075801D01*
X164302386Y-79075799D01*
X164158053Y-79056798D01*
X164158051Y-79056798D01*
X164013717Y-79075799D01*
X164013715Y-79075800D01*
X163879217Y-79131511D01*
X163763719Y-79220136D01*
X163675094Y-79335634D01*
X163619383Y-79470132D01*
X163619382Y-79470134D01*
X163600381Y-79614467D01*
X163600381Y-79614470D01*
X150554982Y-79614470D01*
X150571469Y-79574667D01*
X150590471Y-79430331D01*
X150586930Y-79403437D01*
X150575976Y-79320230D01*
X150571469Y-79285995D01*
X150515757Y-79151496D01*
X150495123Y-79124605D01*
X150427134Y-79035999D01*
X150427133Y-79035998D01*
X150311636Y-78947374D01*
X150311633Y-78947373D01*
X150311631Y-78947371D01*
X150177139Y-78891663D01*
X150177134Y-78891661D01*
X150032801Y-78872660D01*
X150032799Y-78872660D01*
X149888465Y-78891661D01*
X149888463Y-78891662D01*
X149753965Y-78947373D01*
X149638467Y-79035998D01*
X149549842Y-79151496D01*
X149494131Y-79285994D01*
X149494130Y-79285996D01*
X149475129Y-79430329D01*
X149475129Y-79430332D01*
X148668786Y-79430332D01*
X148656457Y-79400567D01*
X148641313Y-79380831D01*
X148567834Y-79285070D01*
X148546818Y-79268944D01*
X148452336Y-79196445D01*
X148452333Y-79196444D01*
X148452331Y-79196442D01*
X148317839Y-79140734D01*
X148317834Y-79140732D01*
X148173501Y-79121731D01*
X148173499Y-79121731D01*
X148029165Y-79140732D01*
X148029163Y-79140733D01*
X147894665Y-79196444D01*
X147779167Y-79285069D01*
X147690542Y-79400567D01*
X147634831Y-79535065D01*
X147634830Y-79535067D01*
X147615829Y-79679400D01*
X147615829Y-79679403D01*
X146761178Y-79679403D01*
X146720030Y-79580065D01*
X146631406Y-79464567D01*
X146515909Y-79375943D01*
X146515906Y-79375942D01*
X146515904Y-79375940D01*
X146381412Y-79320232D01*
X146381407Y-79320230D01*
X146237074Y-79301229D01*
X146237072Y-79301229D01*
X146092738Y-79320230D01*
X146092736Y-79320231D01*
X145958238Y-79375942D01*
X145842740Y-79464567D01*
X145754115Y-79580065D01*
X145698404Y-79714563D01*
X145698403Y-79714565D01*
X145679402Y-79858898D01*
X145679402Y-79858901D01*
X132105882Y-79858901D01*
X132205345Y-79782580D01*
X132293969Y-79667083D01*
X132349681Y-79532583D01*
X132368683Y-79388247D01*
X132367707Y-79380836D01*
X132349681Y-79243912D01*
X132349681Y-79243911D01*
X132300263Y-79124606D01*
X133145724Y-79124606D01*
X133164725Y-79268939D01*
X133164727Y-79268944D01*
X133220435Y-79403436D01*
X133220435Y-79403437D01*
X133220437Y-79403440D01*
X133220438Y-79403441D01*
X133309062Y-79518938D01*
X133424559Y-79607562D01*
X133424562Y-79607563D01*
X133424563Y-79607564D01*
X133441236Y-79614470D01*
X133559059Y-79663274D01*
X133587992Y-79667083D01*
X133703394Y-79682276D01*
X133703395Y-79682276D01*
X133703396Y-79682276D01*
X133751507Y-79675941D01*
X133847731Y-79663274D01*
X133982226Y-79607564D01*
X133982227Y-79607564D01*
X133982227Y-79607563D01*
X133982231Y-79607562D01*
X134097728Y-79518938D01*
X134186352Y-79403441D01*
X134242064Y-79268941D01*
X134256389Y-79160129D01*
X134261066Y-79124606D01*
X134261066Y-79124603D01*
X134246741Y-79015793D01*
X134242064Y-78980269D01*
X134186352Y-78845770D01*
X134113353Y-78750635D01*
X134097729Y-78730273D01*
X134081908Y-78718133D01*
X133982231Y-78641648D01*
X133982228Y-78641647D01*
X133982226Y-78641645D01*
X133847734Y-78585937D01*
X133847729Y-78585935D01*
X133703396Y-78566934D01*
X133703394Y-78566934D01*
X133559060Y-78585935D01*
X133559058Y-78585936D01*
X133424560Y-78641647D01*
X133309062Y-78730272D01*
X133220437Y-78845770D01*
X133164726Y-78980268D01*
X133164725Y-78980270D01*
X133145724Y-79124603D01*
X133145724Y-79124606D01*
X132300263Y-79124606D01*
X132293969Y-79109412D01*
X132253564Y-79056755D01*
X132205346Y-78993915D01*
X132205345Y-78993914D01*
X132089848Y-78905290D01*
X132089845Y-78905289D01*
X132089843Y-78905287D01*
X131955351Y-78849579D01*
X131955346Y-78849577D01*
X131811013Y-78830576D01*
X131811011Y-78830576D01*
X131666677Y-78849577D01*
X131666675Y-78849578D01*
X131532177Y-78905289D01*
X131416679Y-78993914D01*
X131328054Y-79109412D01*
X131272343Y-79243910D01*
X131272342Y-79243912D01*
X131253341Y-79388245D01*
X131253341Y-79388248D01*
X130521083Y-79388248D01*
X130515396Y-79380836D01*
X130480498Y-79335356D01*
X130460787Y-79320231D01*
X130365000Y-79246731D01*
X130364997Y-79246730D01*
X130364995Y-79246728D01*
X130230503Y-79191020D01*
X130230498Y-79191018D01*
X130086165Y-79172017D01*
X130086163Y-79172017D01*
X129941829Y-79191018D01*
X129941827Y-79191019D01*
X129807329Y-79246730D01*
X129691831Y-79335355D01*
X129603206Y-79450853D01*
X129547495Y-79585351D01*
X129547494Y-79585353D01*
X129528493Y-79729686D01*
X129528493Y-79729689D01*
X114734000Y-79729689D01*
X114734000Y-79015794D01*
X120636739Y-79015794D01*
X120655740Y-79160127D01*
X120655742Y-79160132D01*
X120711450Y-79294624D01*
X120711450Y-79294625D01*
X120711452Y-79294628D01*
X120711453Y-79294629D01*
X120800077Y-79410126D01*
X120915574Y-79498750D01*
X120915577Y-79498751D01*
X120915578Y-79498752D01*
X120963022Y-79518403D01*
X121023276Y-79543361D01*
X121032750Y-79550996D01*
X121047214Y-79553695D01*
X121050068Y-79554459D01*
X121050074Y-79554462D01*
X121158326Y-79568713D01*
X121194409Y-79573464D01*
X121194410Y-79573464D01*
X121194411Y-79573464D01*
X121242522Y-79567129D01*
X121338746Y-79554462D01*
X121473241Y-79498752D01*
X121473242Y-79498752D01*
X121473242Y-79498751D01*
X121473246Y-79498750D01*
X121588743Y-79410126D01*
X121677367Y-79294629D01*
X121733079Y-79160129D01*
X121752081Y-79015793D01*
X121747404Y-78980270D01*
X121733079Y-78871458D01*
X121733079Y-78871457D01*
X121711807Y-78820104D01*
X121704339Y-78750635D01*
X121735614Y-78688156D01*
X121787637Y-78656870D01*
X121787222Y-78655866D01*
X121793924Y-78653089D01*
X121794280Y-78652876D01*
X121794723Y-78652756D01*
X121794730Y-78652756D01*
X121929225Y-78597046D01*
X121929226Y-78597046D01*
X121929226Y-78597045D01*
X121929230Y-78597044D01*
X122044727Y-78508420D01*
X122095999Y-78441601D01*
X175230729Y-78441601D01*
X175249730Y-78585934D01*
X175249732Y-78585939D01*
X175305440Y-78720431D01*
X175305440Y-78720432D01*
X175305442Y-78720435D01*
X175305443Y-78720436D01*
X175394067Y-78835933D01*
X175509564Y-78924557D01*
X175509567Y-78924558D01*
X175509568Y-78924559D01*
X175564646Y-78947373D01*
X175644064Y-78980269D01*
X175716231Y-78989769D01*
X175788399Y-78999271D01*
X175788400Y-78999271D01*
X175788401Y-78999271D01*
X175836511Y-78992937D01*
X175932736Y-78980269D01*
X176067231Y-78924559D01*
X176067232Y-78924559D01*
X176067232Y-78924558D01*
X176067236Y-78924557D01*
X176182733Y-78835933D01*
X176271357Y-78720436D01*
X176327069Y-78585936D01*
X176332695Y-78543201D01*
X177110329Y-78543201D01*
X177129330Y-78687534D01*
X177129332Y-78687539D01*
X177185040Y-78822031D01*
X177185040Y-78822032D01*
X177185042Y-78822035D01*
X177185043Y-78822036D01*
X177273667Y-78937533D01*
X177389164Y-79026157D01*
X177389167Y-79026158D01*
X177389168Y-79026159D01*
X177456414Y-79054013D01*
X177523664Y-79081869D01*
X177595831Y-79091369D01*
X177667999Y-79100871D01*
X177668000Y-79100871D01*
X177668001Y-79100871D01*
X177716112Y-79094537D01*
X177812336Y-79081869D01*
X177946831Y-79026159D01*
X177946832Y-79026159D01*
X177946832Y-79026158D01*
X177946836Y-79026157D01*
X178062333Y-78937533D01*
X178150957Y-78822036D01*
X178206669Y-78687536D01*
X178225671Y-78543200D01*
X178224306Y-78532835D01*
X178206669Y-78398865D01*
X178206669Y-78398864D01*
X178150957Y-78264365D01*
X178092874Y-78188669D01*
X178062334Y-78148868D01*
X178041601Y-78132959D01*
X177946836Y-78060243D01*
X177946833Y-78060242D01*
X177946831Y-78060240D01*
X177812339Y-78004532D01*
X177812334Y-78004530D01*
X177668001Y-77985529D01*
X177667999Y-77985529D01*
X177523665Y-78004530D01*
X177523663Y-78004531D01*
X177389165Y-78060242D01*
X177273667Y-78148867D01*
X177185042Y-78264365D01*
X177129331Y-78398863D01*
X177129330Y-78398865D01*
X177110329Y-78543198D01*
X177110329Y-78543201D01*
X176332695Y-78543201D01*
X176346071Y-78441600D01*
X176327069Y-78297264D01*
X176271357Y-78162765D01*
X176192689Y-78060242D01*
X176182734Y-78047268D01*
X176158708Y-78028832D01*
X176067236Y-77958643D01*
X176067233Y-77958642D01*
X176067231Y-77958640D01*
X175932739Y-77902932D01*
X175932734Y-77902930D01*
X175788401Y-77883929D01*
X175788399Y-77883929D01*
X175644065Y-77902930D01*
X175644063Y-77902931D01*
X175509565Y-77958642D01*
X175394067Y-78047267D01*
X175305442Y-78162765D01*
X175249731Y-78297263D01*
X175249730Y-78297265D01*
X175230729Y-78441598D01*
X175230729Y-78441601D01*
X122095999Y-78441601D01*
X122133351Y-78392923D01*
X122189063Y-78258423D01*
X122204083Y-78144332D01*
X122208065Y-78114088D01*
X122208065Y-78114085D01*
X122189063Y-77969752D01*
X122189063Y-77969751D01*
X122133351Y-77835252D01*
X122067936Y-77750001D01*
X135676329Y-77750001D01*
X135695330Y-77894334D01*
X135695332Y-77894339D01*
X135751040Y-78028831D01*
X135751040Y-78028832D01*
X135751042Y-78028835D01*
X135751043Y-78028836D01*
X135839667Y-78144333D01*
X135955164Y-78232957D01*
X135955167Y-78232958D01*
X135955168Y-78232959D01*
X136016639Y-78258421D01*
X136089664Y-78288669D01*
X136154943Y-78297263D01*
X136233999Y-78307671D01*
X136234000Y-78307671D01*
X136234001Y-78307671D01*
X136313042Y-78297265D01*
X136378336Y-78288669D01*
X136512831Y-78232959D01*
X136512832Y-78232959D01*
X136512832Y-78232958D01*
X136512836Y-78232957D01*
X136628333Y-78144333D01*
X136716957Y-78028836D01*
X136772669Y-77894336D01*
X136791671Y-77750000D01*
X136778506Y-77650001D01*
X152176329Y-77650001D01*
X152195330Y-77794334D01*
X152195332Y-77794339D01*
X152251040Y-77928831D01*
X152251040Y-77928832D01*
X152251042Y-77928835D01*
X152251043Y-77928836D01*
X152339667Y-78044333D01*
X152455164Y-78132957D01*
X152455167Y-78132958D01*
X152455168Y-78132959D01*
X152493574Y-78148867D01*
X152589664Y-78188669D01*
X152661831Y-78198169D01*
X152733999Y-78207671D01*
X152734000Y-78207671D01*
X152734001Y-78207671D01*
X152782112Y-78201337D01*
X152878336Y-78188669D01*
X153012831Y-78132959D01*
X153012832Y-78132959D01*
X153012832Y-78132958D01*
X153012836Y-78132957D01*
X153128333Y-78044333D01*
X153216957Y-77928836D01*
X153249612Y-77850001D01*
X168276329Y-77850001D01*
X168295330Y-77994334D01*
X168295332Y-77994339D01*
X168351040Y-78128831D01*
X168351040Y-78128832D01*
X168351042Y-78128835D01*
X168351043Y-78128836D01*
X168439667Y-78244333D01*
X168555164Y-78332957D01*
X168555167Y-78332958D01*
X168555168Y-78332959D01*
X168622413Y-78360813D01*
X168689664Y-78388669D01*
X168721977Y-78392923D01*
X168833999Y-78407671D01*
X168834000Y-78407671D01*
X168834001Y-78407671D01*
X168900904Y-78398863D01*
X168978336Y-78388669D01*
X169112831Y-78332959D01*
X169112832Y-78332959D01*
X169112832Y-78332958D01*
X169112836Y-78332957D01*
X169228333Y-78244333D01*
X169316957Y-78128836D01*
X169372669Y-77994336D01*
X169391671Y-77850000D01*
X169389729Y-77835252D01*
X169372669Y-77705665D01*
X169372669Y-77705664D01*
X169316957Y-77571165D01*
X169305640Y-77556416D01*
X169228334Y-77455668D01*
X169228333Y-77455667D01*
X169112836Y-77367043D01*
X169112833Y-77367042D01*
X169112831Y-77367040D01*
X168978339Y-77311332D01*
X168978334Y-77311330D01*
X168834001Y-77292329D01*
X168833999Y-77292329D01*
X168689665Y-77311330D01*
X168689663Y-77311331D01*
X168555165Y-77367042D01*
X168439667Y-77455667D01*
X168351042Y-77571165D01*
X168295331Y-77705663D01*
X168295330Y-77705665D01*
X168276329Y-77849998D01*
X168276329Y-77850001D01*
X153249612Y-77850001D01*
X153272669Y-77794336D01*
X153291671Y-77650000D01*
X153289186Y-77631127D01*
X153272669Y-77505665D01*
X153272669Y-77505664D01*
X153216957Y-77371165D01*
X153128333Y-77255667D01*
X153012836Y-77167043D01*
X153012833Y-77167042D01*
X153012831Y-77167040D01*
X152878339Y-77111332D01*
X152878334Y-77111330D01*
X152734001Y-77092329D01*
X152733999Y-77092329D01*
X152589665Y-77111330D01*
X152589663Y-77111331D01*
X152455165Y-77167042D01*
X152339667Y-77255667D01*
X152251042Y-77371165D01*
X152195331Y-77505663D01*
X152195330Y-77505665D01*
X152176329Y-77649998D01*
X152176329Y-77650001D01*
X136778506Y-77650001D01*
X136772669Y-77605664D01*
X136716957Y-77471165D01*
X136628333Y-77355667D01*
X136512836Y-77267043D01*
X136512833Y-77267042D01*
X136512831Y-77267040D01*
X136378339Y-77211332D01*
X136378334Y-77211330D01*
X136234001Y-77192329D01*
X136233999Y-77192329D01*
X136089665Y-77211330D01*
X136089663Y-77211331D01*
X135955165Y-77267042D01*
X135839667Y-77355667D01*
X135751042Y-77471165D01*
X135695331Y-77605663D01*
X135695330Y-77605665D01*
X135676329Y-77749998D01*
X135676329Y-77750001D01*
X122067936Y-77750001D01*
X122044728Y-77719755D01*
X122044727Y-77719754D01*
X121929230Y-77631130D01*
X121929227Y-77631129D01*
X121929225Y-77631127D01*
X121794733Y-77575419D01*
X121794728Y-77575417D01*
X121650395Y-77556416D01*
X121650393Y-77556416D01*
X121506059Y-77575417D01*
X121506057Y-77575418D01*
X121371559Y-77631129D01*
X121256061Y-77719754D01*
X121167436Y-77835252D01*
X121111725Y-77969750D01*
X121111724Y-77969752D01*
X121092723Y-78114085D01*
X121092723Y-78114088D01*
X121111724Y-78258421D01*
X121111726Y-78258426D01*
X121132995Y-78309775D01*
X121140464Y-78379245D01*
X121109188Y-78441724D01*
X121057167Y-78473011D01*
X121057583Y-78474014D01*
X121050896Y-78476783D01*
X121050540Y-78476998D01*
X121050083Y-78477120D01*
X120915575Y-78532835D01*
X120800077Y-78621460D01*
X120711452Y-78736958D01*
X120655741Y-78871456D01*
X120655740Y-78871458D01*
X120636739Y-79015791D01*
X120636739Y-79015794D01*
X114734000Y-79015794D01*
X114734000Y-74900000D01*
X131628551Y-74900000D01*
X131648317Y-75151151D01*
X131707126Y-75396110D01*
X131803533Y-75628859D01*
X131935160Y-75843653D01*
X131935161Y-75843656D01*
X131935164Y-75843659D01*
X132098776Y-76035224D01*
X132247066Y-76161875D01*
X132290343Y-76198838D01*
X132290346Y-76198839D01*
X132505140Y-76330466D01*
X132737888Y-76426872D01*
X132737889Y-76426873D01*
X132982852Y-76485683D01*
X133138950Y-76497968D01*
X133171116Y-76500500D01*
X133171118Y-76500500D01*
X133296884Y-76500500D01*
X133326517Y-76498167D01*
X133485148Y-76485683D01*
X133730111Y-76426873D01*
X133962859Y-76330466D01*
X134177659Y-76198836D01*
X134369224Y-76035224D01*
X134532836Y-75843659D01*
X134664466Y-75628859D01*
X134760873Y-75396111D01*
X134819683Y-75151148D01*
X134839449Y-74900000D01*
X163628551Y-74900000D01*
X163648317Y-75151151D01*
X163707126Y-75396110D01*
X163803533Y-75628859D01*
X163935160Y-75843653D01*
X163935161Y-75843656D01*
X163935164Y-75843659D01*
X164098776Y-76035224D01*
X164247066Y-76161875D01*
X164290343Y-76198838D01*
X164290346Y-76198839D01*
X164505140Y-76330466D01*
X164737889Y-76426873D01*
X164982852Y-76485683D01*
X165138950Y-76497968D01*
X165171116Y-76500500D01*
X165171118Y-76500500D01*
X165296884Y-76500500D01*
X165326517Y-76498167D01*
X165485148Y-76485683D01*
X165730111Y-76426873D01*
X165962859Y-76330466D01*
X166177659Y-76198836D01*
X166369224Y-76035224D01*
X166532836Y-75843659D01*
X166664466Y-75628859D01*
X166760873Y-75396111D01*
X166819683Y-75151148D01*
X166839449Y-74900000D01*
X166819683Y-74648852D01*
X166760873Y-74403889D01*
X166664466Y-74171141D01*
X166664466Y-74171140D01*
X166532839Y-73956346D01*
X166532838Y-73956343D01*
X166495875Y-73913066D01*
X166369224Y-73764776D01*
X166242571Y-73656604D01*
X166177656Y-73601161D01*
X166177653Y-73601160D01*
X165962859Y-73469533D01*
X165730110Y-73373126D01*
X165485150Y-73314317D01*
X165296884Y-73299500D01*
X165296882Y-73299500D01*
X165171118Y-73299500D01*
X165171116Y-73299500D01*
X164982849Y-73314317D01*
X164737889Y-73373126D01*
X164505140Y-73469533D01*
X164290346Y-73601160D01*
X164290343Y-73601161D01*
X164098776Y-73764776D01*
X163935161Y-73956343D01*
X163935160Y-73956346D01*
X163803533Y-74171140D01*
X163707126Y-74403889D01*
X163648317Y-74648848D01*
X163628551Y-74900000D01*
X134839449Y-74900000D01*
X134819683Y-74648852D01*
X134760873Y-74403889D01*
X134664466Y-74171141D01*
X134664466Y-74171140D01*
X134532839Y-73956346D01*
X134532838Y-73956343D01*
X134495875Y-73913066D01*
X134369224Y-73764776D01*
X134242571Y-73656604D01*
X134177656Y-73601161D01*
X134177653Y-73601160D01*
X133962859Y-73469533D01*
X133730110Y-73373126D01*
X133485150Y-73314317D01*
X133296884Y-73299500D01*
X133296882Y-73299500D01*
X133171118Y-73299500D01*
X133171116Y-73299500D01*
X132982849Y-73314317D01*
X132737889Y-73373126D01*
X132505140Y-73469533D01*
X132290346Y-73601160D01*
X132290343Y-73601161D01*
X132098776Y-73764776D01*
X131935161Y-73956343D01*
X131935160Y-73956346D01*
X131803533Y-74171140D01*
X131707126Y-74403889D01*
X131648317Y-74648848D01*
X131628551Y-74900000D01*
X114734000Y-74900000D01*
X114734000Y-71500500D01*
X193859500Y-71500500D01*
X193926539Y-71520185D01*
G37*
G04 #@! TD.AperFunction*
G04 #@! TA.AperFunction,Conductor*
G36*
X158708345Y-82158317D02*
G01*
X158739164Y-82199446D01*
X158741948Y-82197926D01*
X158745845Y-82205063D01*
X158787040Y-82261481D01*
X158787042Y-82261483D01*
X158787045Y-82261487D01*
X158800569Y-82275337D01*
X158818444Y-82293643D01*
X158894061Y-82351665D01*
X158895178Y-82352450D01*
X158905192Y-82359490D01*
X158951514Y-82381819D01*
X159018553Y-82401504D01*
X159018554Y-82401504D01*
X159018557Y-82401505D01*
X159037578Y-82404239D01*
X159063040Y-82407900D01*
X159063042Y-82407900D01*
X163384384Y-82407900D01*
X163384387Y-82407900D01*
X163427970Y-82401766D01*
X163493764Y-82382872D01*
X163500046Y-82380925D01*
X163500051Y-82380921D01*
X163507979Y-82377172D01*
X163509571Y-82380539D01*
X163559509Y-82365113D01*
X163626818Y-82383856D01*
X163652316Y-82406986D01*
X163652816Y-82406487D01*
X163658558Y-82412229D01*
X163658560Y-82412231D01*
X163658563Y-82412234D01*
X163774060Y-82500858D01*
X163774063Y-82500859D01*
X163774064Y-82500860D01*
X163814640Y-82517667D01*
X163908560Y-82556570D01*
X163980204Y-82566002D01*
X164052895Y-82575572D01*
X164052896Y-82575572D01*
X164052897Y-82575572D01*
X164125588Y-82566002D01*
X164197232Y-82556570D01*
X164331727Y-82500860D01*
X164331728Y-82500860D01*
X164331728Y-82500859D01*
X164331732Y-82500858D01*
X164447229Y-82412234D01*
X164447233Y-82412228D01*
X164447235Y-82412227D01*
X164452981Y-82406483D01*
X164453903Y-82407405D01*
X164503571Y-82371131D01*
X164573316Y-82366969D01*
X164602333Y-82378785D01*
X164602446Y-82378531D01*
X164609874Y-82381816D01*
X164609879Y-82381819D01*
X164676918Y-82401504D01*
X164721405Y-82407900D01*
X164721407Y-82407900D01*
X171208249Y-82407900D01*
X171221853Y-82407333D01*
X171272215Y-82396847D01*
X171337384Y-82371653D01*
X171376571Y-82349646D01*
X171452422Y-82291443D01*
X171474394Y-82270986D01*
X171479311Y-82265446D01*
X171510452Y-82230359D01*
X171512213Y-82231921D01*
X171557724Y-82195239D01*
X171627193Y-82187763D01*
X171682995Y-82213243D01*
X171698086Y-82225403D01*
X171740657Y-82259710D01*
X171751578Y-82266190D01*
X171779306Y-82282642D01*
X171779308Y-82282642D01*
X171779310Y-82282644D01*
X171818119Y-82298718D01*
X171846155Y-82314905D01*
X171894043Y-82351651D01*
X171905183Y-82359484D01*
X171945514Y-82378926D01*
X171951514Y-82381819D01*
X172018553Y-82401504D01*
X172063040Y-82407900D01*
X172063042Y-82407900D01*
X172208249Y-82407900D01*
X172221852Y-82407333D01*
X172272214Y-82396847D01*
X172337383Y-82371653D01*
X172376571Y-82349646D01*
X172423427Y-82313690D01*
X172442635Y-82302140D01*
X172442524Y-82301940D01*
X172446864Y-82299519D01*
X172446868Y-82299516D01*
X172446873Y-82299514D01*
X172488873Y-82271450D01*
X172540010Y-82223840D01*
X172545386Y-82218591D01*
X172545387Y-82218587D01*
X172548802Y-82215254D01*
X172610518Y-82182499D01*
X172680145Y-82188309D01*
X172735578Y-82230841D01*
X172741295Y-82238670D01*
X172795699Y-82282510D01*
X172795700Y-82282511D01*
X172795702Y-82282512D01*
X172804128Y-82287511D01*
X172828811Y-82302156D01*
X172828842Y-82302174D01*
X172834948Y-82306306D01*
X172894043Y-82351651D01*
X172905184Y-82359484D01*
X172951514Y-82381819D01*
X173018553Y-82401504D01*
X173063040Y-82407900D01*
X173063042Y-82407900D01*
X173208249Y-82407900D01*
X173221852Y-82407333D01*
X173272214Y-82396847D01*
X173337383Y-82371653D01*
X173376571Y-82349646D01*
X173423427Y-82313690D01*
X173442635Y-82302140D01*
X173442524Y-82301940D01*
X173446864Y-82299519D01*
X173446868Y-82299516D01*
X173446873Y-82299514D01*
X173488873Y-82271450D01*
X173540010Y-82223840D01*
X173545386Y-82218591D01*
X173545387Y-82218587D01*
X173548802Y-82215254D01*
X173610518Y-82182499D01*
X173680145Y-82188309D01*
X173735578Y-82230841D01*
X173741295Y-82238670D01*
X173795699Y-82282510D01*
X173795700Y-82282511D01*
X173795702Y-82282512D01*
X173804128Y-82287511D01*
X173828811Y-82302156D01*
X173828842Y-82302174D01*
X173834948Y-82306306D01*
X173894043Y-82351651D01*
X173905184Y-82359484D01*
X173951514Y-82381819D01*
X174018553Y-82401504D01*
X174063040Y-82407900D01*
X174063042Y-82407900D01*
X174208249Y-82407900D01*
X174221852Y-82407333D01*
X174272214Y-82396847D01*
X174337383Y-82371653D01*
X174376571Y-82349646D01*
X174423427Y-82313690D01*
X174442635Y-82302140D01*
X174442524Y-82301940D01*
X174446864Y-82299519D01*
X174446868Y-82299516D01*
X174446873Y-82299514D01*
X174488873Y-82271450D01*
X174540010Y-82223840D01*
X174545386Y-82218591D01*
X174545387Y-82218587D01*
X174548802Y-82215254D01*
X174610518Y-82182499D01*
X174680145Y-82188309D01*
X174735578Y-82230841D01*
X174741295Y-82238670D01*
X174795699Y-82282510D01*
X174795700Y-82282511D01*
X174795702Y-82282512D01*
X174804128Y-82287511D01*
X174828811Y-82302156D01*
X174828842Y-82302174D01*
X174834948Y-82306306D01*
X174894043Y-82351651D01*
X174905184Y-82359484D01*
X174951514Y-82381819D01*
X175018553Y-82401504D01*
X175063040Y-82407900D01*
X178534482Y-82407900D01*
X178601521Y-82427585D01*
X178647276Y-82480389D01*
X178657421Y-82548085D01*
X178638130Y-82694612D01*
X178638130Y-82694615D01*
X178657131Y-82838948D01*
X178657133Y-82838953D01*
X178712841Y-82973445D01*
X178712841Y-82973446D01*
X178712843Y-82973449D01*
X178712844Y-82973450D01*
X178801468Y-83088947D01*
X178916965Y-83177571D01*
X178916968Y-83177572D01*
X178916969Y-83177573D01*
X178948989Y-83190836D01*
X179051465Y-83233283D01*
X179123632Y-83242784D01*
X179195800Y-83252285D01*
X179195801Y-83252285D01*
X179195802Y-83252285D01*
X179243913Y-83245951D01*
X179340137Y-83233283D01*
X179474632Y-83177573D01*
X179474633Y-83177573D01*
X179474633Y-83177572D01*
X179474637Y-83177571D01*
X179590134Y-83088947D01*
X179678758Y-82973450D01*
X179734470Y-82838950D01*
X179753472Y-82694614D01*
X179752689Y-82688669D01*
X179734181Y-82548085D01*
X179744947Y-82479050D01*
X179791326Y-82426794D01*
X179857120Y-82407900D01*
X182186448Y-82407900D01*
X182253487Y-82427585D01*
X182299242Y-82480389D01*
X182309186Y-82549547D01*
X182284823Y-82607387D01*
X182265042Y-82633164D01*
X182209331Y-82767663D01*
X182209330Y-82767665D01*
X182190329Y-82911998D01*
X182190329Y-82912001D01*
X182209330Y-83056334D01*
X182209332Y-83056339D01*
X182265040Y-83190831D01*
X182265040Y-83190832D01*
X182265042Y-83190835D01*
X182265043Y-83190836D01*
X182353667Y-83306333D01*
X182469164Y-83394957D01*
X182469167Y-83394958D01*
X182469168Y-83394959D01*
X182529618Y-83419998D01*
X182603664Y-83450669D01*
X182675831Y-83460169D01*
X182747999Y-83469671D01*
X182748000Y-83469671D01*
X182748001Y-83469671D01*
X182796111Y-83463337D01*
X182892336Y-83450669D01*
X183026831Y-83394959D01*
X183026832Y-83394959D01*
X183026832Y-83394958D01*
X183026836Y-83394957D01*
X183142333Y-83306333D01*
X183230957Y-83190836D01*
X183286669Y-83056336D01*
X183302374Y-82937042D01*
X183305671Y-82912001D01*
X183305671Y-82911998D01*
X183286669Y-82767665D01*
X183286669Y-82767664D01*
X183242777Y-82661700D01*
X183230957Y-82633164D01*
X183211177Y-82607387D01*
X183185982Y-82542218D01*
X183200020Y-82473773D01*
X183248834Y-82423783D01*
X183309552Y-82407900D01*
X193859500Y-82407900D01*
X193926539Y-82427585D01*
X193972294Y-82480389D01*
X193983500Y-82531900D01*
X193983500Y-92875500D01*
X193963815Y-92942539D01*
X193911011Y-92988294D01*
X193859500Y-92999500D01*
X142735923Y-92999500D01*
X142668884Y-92979815D01*
X142623129Y-92927011D01*
X142613185Y-92857853D01*
X142621362Y-92828048D01*
X142636301Y-92791979D01*
X142655738Y-92745056D01*
X142674740Y-92600720D01*
X142655738Y-92456384D01*
X142600026Y-92321885D01*
X142511402Y-92206387D01*
X142395905Y-92117763D01*
X142395902Y-92117762D01*
X142395900Y-92117760D01*
X142261408Y-92062052D01*
X142261403Y-92062050D01*
X142117070Y-92043049D01*
X142117068Y-92043049D01*
X141972734Y-92062050D01*
X141972732Y-92062051D01*
X141838234Y-92117762D01*
X141722736Y-92206387D01*
X141634111Y-92321885D01*
X141578400Y-92456383D01*
X141578399Y-92456385D01*
X141559398Y-92600718D01*
X141559398Y-92600721D01*
X141578399Y-92745054D01*
X141578401Y-92745059D01*
X141612776Y-92828048D01*
X141620245Y-92897517D01*
X141588970Y-92959996D01*
X141528881Y-92995648D01*
X141498215Y-92999500D01*
X108661763Y-92999500D01*
X108594724Y-92979815D01*
X108548969Y-92927011D01*
X108539025Y-92857853D01*
X108547202Y-92828048D01*
X108563873Y-92787797D01*
X108581669Y-92744836D01*
X108600671Y-92600500D01*
X108581669Y-92456164D01*
X108525957Y-92321665D01*
X108437333Y-92206167D01*
X108321836Y-92117543D01*
X108321833Y-92117542D01*
X108321831Y-92117540D01*
X108187339Y-92061832D01*
X108187334Y-92061830D01*
X108043001Y-92042829D01*
X108042999Y-92042829D01*
X107898665Y-92061830D01*
X107898663Y-92061831D01*
X107764165Y-92117542D01*
X107648667Y-92206167D01*
X107560042Y-92321665D01*
X107504331Y-92456163D01*
X107504330Y-92456165D01*
X107485329Y-92600498D01*
X107485329Y-92600501D01*
X107504330Y-92744834D01*
X107504332Y-92744839D01*
X107538798Y-92828048D01*
X107546267Y-92897517D01*
X107514992Y-92959996D01*
X107454902Y-92995648D01*
X107424237Y-92999500D01*
X92608500Y-92999500D01*
X92541461Y-92979815D01*
X92495706Y-92927011D01*
X92484500Y-92875500D01*
X92484500Y-91344799D01*
X112340329Y-91344799D01*
X112359330Y-91489132D01*
X112359332Y-91489137D01*
X112415040Y-91623629D01*
X112415040Y-91623630D01*
X112415042Y-91623633D01*
X112415043Y-91623634D01*
X112503667Y-91739131D01*
X112619164Y-91827755D01*
X112619167Y-91827756D01*
X112619168Y-91827757D01*
X112686413Y-91855611D01*
X112753664Y-91883467D01*
X112825831Y-91892968D01*
X112897999Y-91902469D01*
X112898000Y-91902469D01*
X112898001Y-91902469D01*
X112946112Y-91896135D01*
X113042336Y-91883467D01*
X113176831Y-91827757D01*
X113176832Y-91827757D01*
X113176832Y-91827756D01*
X113176836Y-91827755D01*
X113292333Y-91739131D01*
X113380957Y-91623634D01*
X113395801Y-91587795D01*
X113439640Y-91533394D01*
X113505934Y-91511328D01*
X113557814Y-91520687D01*
X113686011Y-91573789D01*
X113758179Y-91583290D01*
X113830346Y-91592791D01*
X113830347Y-91592791D01*
X113830348Y-91592791D01*
X113878458Y-91586457D01*
X113974683Y-91573789D01*
X114109178Y-91518079D01*
X114109179Y-91518079D01*
X114109179Y-91518078D01*
X114109183Y-91518077D01*
X114224680Y-91429453D01*
X114313304Y-91313956D01*
X114369016Y-91179456D01*
X114381683Y-91083231D01*
X114388018Y-91035121D01*
X114388018Y-91035118D01*
X114369016Y-90890785D01*
X114369016Y-90890784D01*
X114313304Y-90756285D01*
X114313304Y-90756284D01*
X114224681Y-90640788D01*
X114214847Y-90633242D01*
X114109183Y-90552163D01*
X114109180Y-90552162D01*
X114109178Y-90552160D01*
X113974686Y-90496452D01*
X113974681Y-90496450D01*
X113830348Y-90477449D01*
X113830346Y-90477449D01*
X113686012Y-90496450D01*
X113686010Y-90496451D01*
X113551512Y-90552162D01*
X113436014Y-90640787D01*
X113347388Y-90756286D01*
X113332544Y-90792123D01*
X113288702Y-90846525D01*
X113222408Y-90868589D01*
X113170532Y-90859229D01*
X113042339Y-90806130D01*
X113042334Y-90806128D01*
X112898001Y-90787127D01*
X112897999Y-90787127D01*
X112753665Y-90806128D01*
X112753663Y-90806129D01*
X112619165Y-90861840D01*
X112503667Y-90950465D01*
X112415042Y-91065963D01*
X112359331Y-91200461D01*
X112359330Y-91200463D01*
X112340329Y-91344796D01*
X112340329Y-91344799D01*
X92484500Y-91344799D01*
X92484500Y-89312459D01*
X109072411Y-89312459D01*
X109091412Y-89456792D01*
X109091414Y-89456797D01*
X109147122Y-89591289D01*
X109147122Y-89591290D01*
X109147124Y-89591293D01*
X109147125Y-89591294D01*
X109235749Y-89706791D01*
X109351246Y-89795415D01*
X109351249Y-89795416D01*
X109351250Y-89795417D01*
X109418496Y-89823271D01*
X109485746Y-89851127D01*
X109557914Y-89860628D01*
X109630081Y-89870129D01*
X109630082Y-89870129D01*
X109630083Y-89870129D01*
X109678194Y-89863794D01*
X109774418Y-89851127D01*
X109908913Y-89795417D01*
X109908914Y-89795417D01*
X109908914Y-89795416D01*
X109908918Y-89795415D01*
X110024415Y-89706791D01*
X110106359Y-89600000D01*
X131628551Y-89600000D01*
X131648317Y-89851151D01*
X131707126Y-90096110D01*
X131803533Y-90328859D01*
X131935160Y-90543653D01*
X131935161Y-90543656D01*
X131964093Y-90577531D01*
X132098776Y-90735224D01*
X132218368Y-90837365D01*
X132290343Y-90898838D01*
X132290346Y-90898839D01*
X132505140Y-91030466D01*
X132712117Y-91116198D01*
X132737889Y-91126873D01*
X132982852Y-91185683D01*
X133138950Y-91197968D01*
X133171116Y-91200500D01*
X133171118Y-91200500D01*
X133296884Y-91200500D01*
X133326517Y-91198167D01*
X133485148Y-91185683D01*
X133730111Y-91126873D01*
X133755876Y-91116201D01*
X150332249Y-91116201D01*
X150351250Y-91260534D01*
X150351252Y-91260539D01*
X150406960Y-91395031D01*
X150406960Y-91395032D01*
X150406962Y-91395035D01*
X150406963Y-91395036D01*
X150495587Y-91510533D01*
X150611084Y-91599157D01*
X150611087Y-91599158D01*
X150611088Y-91599159D01*
X150670164Y-91623629D01*
X150745584Y-91654869D01*
X150817752Y-91664369D01*
X150889919Y-91673871D01*
X150889920Y-91673871D01*
X150889921Y-91673871D01*
X150938032Y-91667537D01*
X151034256Y-91654869D01*
X151168751Y-91599159D01*
X151168752Y-91599159D01*
X151168752Y-91599158D01*
X151168756Y-91599157D01*
X151284253Y-91510533D01*
X151372877Y-91395036D01*
X151428589Y-91260536D01*
X151447591Y-91116200D01*
X151436916Y-91035118D01*
X151428589Y-90971865D01*
X151428589Y-90971864D01*
X151372877Y-90837365D01*
X151334328Y-90787127D01*
X151284254Y-90721868D01*
X151284253Y-90721867D01*
X151168756Y-90633243D01*
X151168753Y-90633242D01*
X151168751Y-90633240D01*
X151034259Y-90577532D01*
X151034254Y-90577530D01*
X150889921Y-90558529D01*
X150889919Y-90558529D01*
X150745585Y-90577530D01*
X150745583Y-90577531D01*
X150611085Y-90633242D01*
X150495587Y-90721867D01*
X150406962Y-90837365D01*
X150351251Y-90971863D01*
X150351250Y-90971865D01*
X150332249Y-91116198D01*
X150332249Y-91116201D01*
X133755876Y-91116201D01*
X133962859Y-91030466D01*
X134177659Y-90898836D01*
X134369224Y-90735224D01*
X134532836Y-90543659D01*
X134664466Y-90328859D01*
X134760873Y-90096111D01*
X134778185Y-90024001D01*
X148154329Y-90024001D01*
X148173330Y-90168334D01*
X148173332Y-90168339D01*
X148229040Y-90302831D01*
X148229040Y-90302832D01*
X148229042Y-90302835D01*
X148229043Y-90302836D01*
X148317667Y-90418333D01*
X148433164Y-90506957D01*
X148433167Y-90506958D01*
X148433168Y-90506959D01*
X148500413Y-90534812D01*
X148567664Y-90562669D01*
X148639832Y-90572169D01*
X148711999Y-90581671D01*
X148712000Y-90581671D01*
X148712001Y-90581671D01*
X148760112Y-90575337D01*
X148856336Y-90562669D01*
X148990831Y-90506959D01*
X148990832Y-90506959D01*
X148990832Y-90506958D01*
X148990836Y-90506957D01*
X149106333Y-90418333D01*
X149194957Y-90302836D01*
X149250669Y-90168336D01*
X149269671Y-90024000D01*
X149250669Y-89879664D01*
X149194957Y-89745165D01*
X149106333Y-89629667D01*
X149067670Y-89600000D01*
X163628551Y-89600000D01*
X163648317Y-89851151D01*
X163707126Y-90096110D01*
X163803533Y-90328859D01*
X163935160Y-90543653D01*
X163935161Y-90543656D01*
X163964093Y-90577531D01*
X164098776Y-90735224D01*
X164218368Y-90837365D01*
X164290343Y-90898838D01*
X164290346Y-90898839D01*
X164505140Y-91030466D01*
X164712117Y-91116198D01*
X164737889Y-91126873D01*
X164982852Y-91185683D01*
X165138950Y-91197968D01*
X165171116Y-91200500D01*
X165171118Y-91200500D01*
X165296884Y-91200500D01*
X165326517Y-91198167D01*
X165485148Y-91185683D01*
X165730111Y-91126873D01*
X165962859Y-91030466D01*
X166177659Y-90898836D01*
X166369224Y-90735224D01*
X166532836Y-90543659D01*
X166664466Y-90328859D01*
X166760873Y-90096111D01*
X166819683Y-89851148D01*
X166839449Y-89600000D01*
X166819683Y-89348852D01*
X166760873Y-89103889D01*
X166683928Y-88918126D01*
X166664466Y-88871140D01*
X166532839Y-88656346D01*
X166532838Y-88656343D01*
X166432388Y-88538732D01*
X166369224Y-88464776D01*
X166242571Y-88356604D01*
X166177656Y-88301161D01*
X166177653Y-88301160D01*
X165962859Y-88169533D01*
X165730110Y-88073126D01*
X165485150Y-88014317D01*
X165296884Y-87999500D01*
X165296882Y-87999500D01*
X165171118Y-87999500D01*
X165171116Y-87999500D01*
X164982849Y-88014317D01*
X164737889Y-88073126D01*
X164505140Y-88169533D01*
X164290346Y-88301160D01*
X164290343Y-88301161D01*
X164098776Y-88464776D01*
X163935161Y-88656343D01*
X163935160Y-88656346D01*
X163803533Y-88871140D01*
X163707126Y-89103889D01*
X163648317Y-89348848D01*
X163628551Y-89600000D01*
X149067670Y-89600000D01*
X148990836Y-89541043D01*
X148990833Y-89541042D01*
X148990831Y-89541040D01*
X148856339Y-89485332D01*
X148856334Y-89485330D01*
X148712001Y-89466329D01*
X148711999Y-89466329D01*
X148567665Y-89485330D01*
X148567663Y-89485331D01*
X148433165Y-89541042D01*
X148317667Y-89629667D01*
X148229042Y-89745165D01*
X148173331Y-89879663D01*
X148173330Y-89879665D01*
X148154329Y-90023998D01*
X148154329Y-90024001D01*
X134778185Y-90024001D01*
X134819683Y-89851148D01*
X134839449Y-89600000D01*
X134819683Y-89348852D01*
X134760873Y-89103889D01*
X134683928Y-88918126D01*
X134664466Y-88871140D01*
X134532839Y-88656346D01*
X134532838Y-88656343D01*
X134432388Y-88538732D01*
X134369224Y-88464776D01*
X134261769Y-88373001D01*
X148154329Y-88373001D01*
X148173330Y-88517334D01*
X148173332Y-88517339D01*
X148229040Y-88651831D01*
X148229040Y-88651832D01*
X148229042Y-88651835D01*
X148229043Y-88651836D01*
X148317667Y-88767333D01*
X148433164Y-88855957D01*
X148433167Y-88855958D01*
X148433168Y-88855959D01*
X148469821Y-88871141D01*
X148567664Y-88911669D01*
X148639832Y-88921169D01*
X148711999Y-88930671D01*
X148712000Y-88930671D01*
X148712001Y-88930671D01*
X148760112Y-88924337D01*
X148856336Y-88911669D01*
X148990831Y-88855959D01*
X148990832Y-88855959D01*
X148990832Y-88855958D01*
X148990836Y-88855957D01*
X149106333Y-88767333D01*
X149194957Y-88651836D01*
X149250669Y-88517336D01*
X149269671Y-88373000D01*
X149250669Y-88228664D01*
X149224842Y-88166314D01*
X149217374Y-88096848D01*
X149248648Y-88034369D01*
X149308737Y-87998716D01*
X149323215Y-87995925D01*
X149378336Y-87988669D01*
X149512836Y-87932957D01*
X149624920Y-87846951D01*
X149690088Y-87821757D01*
X149758533Y-87835795D01*
X149808523Y-87884609D01*
X149814967Y-87897875D01*
X149830440Y-87935231D01*
X149830440Y-87935232D01*
X149830442Y-87935235D01*
X149830443Y-87935236D01*
X149919067Y-88050733D01*
X150034564Y-88139357D01*
X150034567Y-88139358D01*
X150034568Y-88139359D01*
X150046741Y-88144401D01*
X150169064Y-88195069D01*
X150241231Y-88204569D01*
X150313399Y-88214071D01*
X150313400Y-88214071D01*
X150313401Y-88214071D01*
X150361511Y-88207737D01*
X150457736Y-88195069D01*
X150592231Y-88139359D01*
X150592232Y-88139359D01*
X150592232Y-88139358D01*
X150592236Y-88139357D01*
X150707733Y-88050733D01*
X150796357Y-87935236D01*
X150852069Y-87800736D01*
X150870407Y-87661442D01*
X150871071Y-87656401D01*
X150871071Y-87656398D01*
X150852069Y-87512065D01*
X150852069Y-87512064D01*
X150796357Y-87377565D01*
X150707733Y-87262067D01*
X150592236Y-87173443D01*
X150592233Y-87173442D01*
X150592231Y-87173440D01*
X150457739Y-87117732D01*
X150457734Y-87117730D01*
X150313401Y-87098729D01*
X150313399Y-87098729D01*
X150169065Y-87117730D01*
X150169063Y-87117731D01*
X150034564Y-87173442D01*
X149922479Y-87259448D01*
X149857309Y-87284642D01*
X149788865Y-87270603D01*
X149738875Y-87221789D01*
X149732432Y-87208524D01*
X149716958Y-87171166D01*
X149628334Y-87055668D01*
X149601510Y-87035085D01*
X149512836Y-86967043D01*
X149512833Y-86967042D01*
X149512831Y-86967040D01*
X149378339Y-86911332D01*
X149378334Y-86911330D01*
X149234001Y-86892329D01*
X149233999Y-86892329D01*
X149089665Y-86911330D01*
X149089663Y-86911331D01*
X148955165Y-86967042D01*
X148839667Y-87055667D01*
X148751042Y-87171165D01*
X148695331Y-87305663D01*
X148695330Y-87305665D01*
X148676329Y-87449998D01*
X148676329Y-87450001D01*
X148695330Y-87594334D01*
X148695331Y-87594336D01*
X148721039Y-87656401D01*
X148721156Y-87656682D01*
X148728625Y-87726151D01*
X148697350Y-87788631D01*
X148637261Y-87824283D01*
X148622782Y-87827074D01*
X148567664Y-87834331D01*
X148567663Y-87834331D01*
X148433165Y-87890042D01*
X148317667Y-87978667D01*
X148229042Y-88094165D01*
X148173331Y-88228663D01*
X148173330Y-88228665D01*
X148154329Y-88372998D01*
X148154329Y-88373001D01*
X134261769Y-88373001D01*
X134242571Y-88356604D01*
X134177656Y-88301161D01*
X134177653Y-88301160D01*
X133962859Y-88169533D01*
X133730110Y-88073126D01*
X133485150Y-88014317D01*
X133296884Y-87999500D01*
X133296882Y-87999500D01*
X133171118Y-87999500D01*
X133171116Y-87999500D01*
X132982849Y-88014317D01*
X132737889Y-88073126D01*
X132505140Y-88169533D01*
X132290346Y-88301160D01*
X132290343Y-88301161D01*
X132098776Y-88464776D01*
X131935161Y-88656343D01*
X131935160Y-88656346D01*
X131803533Y-88871140D01*
X131707126Y-89103889D01*
X131648317Y-89348848D01*
X131628551Y-89600000D01*
X110106359Y-89600000D01*
X110113039Y-89591294D01*
X110168751Y-89456794D01*
X110187753Y-89312458D01*
X110168751Y-89168122D01*
X110113039Y-89033623D01*
X110024415Y-88918125D01*
X109908918Y-88829501D01*
X109908915Y-88829500D01*
X109908913Y-88829498D01*
X109774421Y-88773790D01*
X109774416Y-88773788D01*
X109630083Y-88754787D01*
X109630081Y-88754787D01*
X109485747Y-88773788D01*
X109485745Y-88773789D01*
X109351247Y-88829500D01*
X109235749Y-88918125D01*
X109147124Y-89033623D01*
X109091413Y-89168121D01*
X109091412Y-89168123D01*
X109072411Y-89312456D01*
X109072411Y-89312459D01*
X92484500Y-89312459D01*
X92484500Y-88021228D01*
X111587929Y-88021228D01*
X111606930Y-88165561D01*
X111606932Y-88165566D01*
X111662640Y-88300058D01*
X111662640Y-88300059D01*
X111662642Y-88300062D01*
X111662643Y-88300063D01*
X111751267Y-88415560D01*
X111866764Y-88504184D01*
X111866767Y-88504185D01*
X111866768Y-88504186D01*
X111934014Y-88532040D01*
X112001264Y-88559896D01*
X112073432Y-88569396D01*
X112145599Y-88578898D01*
X112145600Y-88578898D01*
X112145601Y-88578898D01*
X112193711Y-88572564D01*
X112289936Y-88559896D01*
X112424431Y-88504186D01*
X112424432Y-88504186D01*
X112424432Y-88504185D01*
X112424436Y-88504184D01*
X112539933Y-88415560D01*
X112628557Y-88300063D01*
X112684269Y-88165563D01*
X112687055Y-88144401D01*
X117725129Y-88144401D01*
X117744130Y-88288734D01*
X117744132Y-88288739D01*
X117799840Y-88423231D01*
X117799840Y-88423232D01*
X117799842Y-88423235D01*
X117799843Y-88423236D01*
X117888467Y-88538733D01*
X118003964Y-88627357D01*
X118003967Y-88627358D01*
X118003968Y-88627359D01*
X118063061Y-88651836D01*
X118138464Y-88683069D01*
X118210631Y-88692569D01*
X118282799Y-88702071D01*
X118282800Y-88702071D01*
X118282801Y-88702071D01*
X118330912Y-88695737D01*
X118427136Y-88683069D01*
X118561631Y-88627359D01*
X118561632Y-88627359D01*
X118561632Y-88627358D01*
X118561636Y-88627357D01*
X118677133Y-88538733D01*
X118765757Y-88423236D01*
X118821469Y-88288736D01*
X118837162Y-88169533D01*
X118840471Y-88144401D01*
X118840471Y-88144398D01*
X118821469Y-88000065D01*
X118821469Y-88000064D01*
X118765757Y-87865565D01*
X118736222Y-87827074D01*
X118677134Y-87750068D01*
X118677133Y-87750067D01*
X118561636Y-87661443D01*
X118561633Y-87661442D01*
X118561631Y-87661440D01*
X118427139Y-87605732D01*
X118427134Y-87605730D01*
X118282801Y-87586729D01*
X118282799Y-87586729D01*
X118138465Y-87605730D01*
X118138463Y-87605731D01*
X118003965Y-87661442D01*
X117888467Y-87750067D01*
X117799842Y-87865565D01*
X117744131Y-88000063D01*
X117744130Y-88000065D01*
X117725129Y-88144398D01*
X117725129Y-88144401D01*
X112687055Y-88144401D01*
X112703271Y-88021227D01*
X112702361Y-88014317D01*
X112690603Y-87925002D01*
X112684269Y-87876891D01*
X112628557Y-87742392D01*
X112566443Y-87661443D01*
X112539934Y-87626895D01*
X112512354Y-87605732D01*
X112424436Y-87538270D01*
X112424433Y-87538269D01*
X112424431Y-87538267D01*
X112289939Y-87482559D01*
X112289934Y-87482557D01*
X112145601Y-87463556D01*
X112145599Y-87463556D01*
X112001265Y-87482557D01*
X112001263Y-87482558D01*
X111866765Y-87538269D01*
X111751267Y-87626894D01*
X111662642Y-87742392D01*
X111606931Y-87876890D01*
X111606930Y-87876892D01*
X111587929Y-88021225D01*
X111587929Y-88021228D01*
X92484500Y-88021228D01*
X92484500Y-86414551D01*
X121114026Y-86414551D01*
X121133027Y-86558884D01*
X121133029Y-86558889D01*
X121188737Y-86693381D01*
X121188737Y-86693382D01*
X121188739Y-86693385D01*
X121188740Y-86693386D01*
X121277364Y-86808883D01*
X121392861Y-86897507D01*
X121392864Y-86897508D01*
X121392865Y-86897509D01*
X121426235Y-86911331D01*
X121527361Y-86953219D01*
X121599528Y-86962720D01*
X121671696Y-86972221D01*
X121671697Y-86972221D01*
X121671698Y-86972221D01*
X121719809Y-86965886D01*
X121816033Y-86953219D01*
X121950528Y-86897509D01*
X121950529Y-86897509D01*
X121950529Y-86897508D01*
X121950533Y-86897507D01*
X122066030Y-86808883D01*
X122154654Y-86693386D01*
X122210366Y-86558886D01*
X122223859Y-86456397D01*
X127478729Y-86456397D01*
X127497730Y-86600730D01*
X127497732Y-86600735D01*
X127553440Y-86735227D01*
X127553440Y-86735228D01*
X127553442Y-86735231D01*
X127553443Y-86735232D01*
X127642067Y-86850729D01*
X127757564Y-86939353D01*
X127757567Y-86939354D01*
X127757568Y-86939355D01*
X127791034Y-86953217D01*
X127892064Y-86995065D01*
X127964232Y-87004566D01*
X128036399Y-87014067D01*
X128036400Y-87014067D01*
X128036401Y-87014067D01*
X128084512Y-87007732D01*
X128180736Y-86995065D01*
X128315231Y-86939355D01*
X128315232Y-86939355D01*
X128315232Y-86939354D01*
X128315236Y-86939353D01*
X128430733Y-86850729D01*
X128519357Y-86735232D01*
X128575069Y-86600732D01*
X128594071Y-86456396D01*
X128575069Y-86312060D01*
X128519357Y-86177561D01*
X128461441Y-86102083D01*
X128430734Y-86062064D01*
X128430131Y-86061601D01*
X128315236Y-85973439D01*
X128315233Y-85973438D01*
X128315231Y-85973436D01*
X128252859Y-85947601D01*
X131504022Y-85947601D01*
X131523023Y-86091934D01*
X131523025Y-86091939D01*
X131578733Y-86226431D01*
X131578733Y-86226432D01*
X131578735Y-86226435D01*
X131578736Y-86226436D01*
X131667360Y-86341933D01*
X131782857Y-86430557D01*
X131782860Y-86430558D01*
X131782861Y-86430559D01*
X131845240Y-86456397D01*
X131917357Y-86486269D01*
X131974235Y-86493757D01*
X132061692Y-86505271D01*
X132061693Y-86505271D01*
X132061694Y-86505271D01*
X132128954Y-86496416D01*
X132206029Y-86486269D01*
X132340524Y-86430559D01*
X132340525Y-86430559D01*
X132340525Y-86430558D01*
X132340529Y-86430557D01*
X132456026Y-86341933D01*
X132544650Y-86226436D01*
X132600362Y-86091936D01*
X132619364Y-85947600D01*
X132617557Y-85933878D01*
X132600362Y-85803265D01*
X132600362Y-85803264D01*
X132544650Y-85668765D01*
X132506867Y-85619525D01*
X132456027Y-85553268D01*
X132456026Y-85553267D01*
X132340529Y-85464643D01*
X132340526Y-85464642D01*
X132340524Y-85464640D01*
X132206032Y-85408932D01*
X132206027Y-85408930D01*
X132061694Y-85389929D01*
X132061692Y-85389929D01*
X131917358Y-85408930D01*
X131917356Y-85408931D01*
X131782858Y-85464642D01*
X131667360Y-85553267D01*
X131578735Y-85668765D01*
X131523024Y-85803263D01*
X131523023Y-85803265D01*
X131504022Y-85947598D01*
X131504022Y-85947601D01*
X128252859Y-85947601D01*
X128180739Y-85917728D01*
X128180734Y-85917726D01*
X128036401Y-85898725D01*
X128036399Y-85898725D01*
X127892065Y-85917726D01*
X127892063Y-85917727D01*
X127757565Y-85973438D01*
X127642067Y-86062063D01*
X127553442Y-86177561D01*
X127497731Y-86312059D01*
X127497730Y-86312061D01*
X127478729Y-86456394D01*
X127478729Y-86456397D01*
X122223859Y-86456397D01*
X122229368Y-86414550D01*
X122221797Y-86357045D01*
X122212922Y-86289631D01*
X122210366Y-86270214D01*
X122154654Y-86135715D01*
X122128848Y-86102084D01*
X122066031Y-86020218D01*
X122066030Y-86020217D01*
X121950533Y-85931593D01*
X121950530Y-85931592D01*
X121950528Y-85931590D01*
X121816036Y-85875882D01*
X121816031Y-85875880D01*
X121671698Y-85856879D01*
X121671696Y-85856879D01*
X121527362Y-85875880D01*
X121527360Y-85875881D01*
X121392862Y-85931592D01*
X121277364Y-86020217D01*
X121188739Y-86135715D01*
X121133028Y-86270213D01*
X121133027Y-86270215D01*
X121114026Y-86414548D01*
X121114026Y-86414551D01*
X92484500Y-86414551D01*
X92484500Y-85061967D01*
X120780012Y-85061967D01*
X120799013Y-85206300D01*
X120799015Y-85206305D01*
X120854723Y-85340797D01*
X120854723Y-85340798D01*
X120854725Y-85340801D01*
X120854726Y-85340802D01*
X120943350Y-85456299D01*
X121058847Y-85544923D01*
X121058850Y-85544924D01*
X121058851Y-85544925D01*
X121103693Y-85563499D01*
X121193347Y-85600635D01*
X121245903Y-85607554D01*
X121337682Y-85619637D01*
X121337683Y-85619637D01*
X121337684Y-85619637D01*
X121385794Y-85613302D01*
X121482019Y-85600635D01*
X121616514Y-85544925D01*
X121616515Y-85544925D01*
X121616515Y-85544924D01*
X121616519Y-85544923D01*
X121732016Y-85456299D01*
X121820640Y-85340802D01*
X121876352Y-85206302D01*
X121895354Y-85061966D01*
X121888650Y-85011050D01*
X128496331Y-85011050D01*
X128515332Y-85155383D01*
X128515334Y-85155388D01*
X128571042Y-85289880D01*
X128571042Y-85289881D01*
X128571044Y-85289884D01*
X128571045Y-85289885D01*
X128659669Y-85405382D01*
X128775166Y-85494006D01*
X128775169Y-85494007D01*
X128775170Y-85494008D01*
X128839232Y-85520543D01*
X128909666Y-85549718D01*
X128981833Y-85559219D01*
X129054001Y-85568720D01*
X129054002Y-85568720D01*
X129054003Y-85568720D01*
X129102113Y-85562386D01*
X129198338Y-85549718D01*
X129332833Y-85494008D01*
X129332834Y-85494008D01*
X129332834Y-85494007D01*
X129332838Y-85494006D01*
X129448335Y-85405382D01*
X129536959Y-85289885D01*
X129592671Y-85155385D01*
X129605726Y-85056224D01*
X136784577Y-85056224D01*
X136803578Y-85200557D01*
X136803580Y-85200562D01*
X136859288Y-85335054D01*
X136859288Y-85335055D01*
X136859290Y-85335058D01*
X136859291Y-85335059D01*
X136947915Y-85450556D01*
X137063412Y-85539180D01*
X137063415Y-85539181D01*
X137063416Y-85539182D01*
X137097423Y-85553268D01*
X137197912Y-85594892D01*
X137342248Y-85613894D01*
X137381241Y-85608760D01*
X137450275Y-85619525D01*
X137502531Y-85665904D01*
X137521417Y-85733173D01*
X137500937Y-85799974D01*
X137495802Y-85807185D01*
X137408342Y-85921165D01*
X137352631Y-86055663D01*
X137352630Y-86055665D01*
X137333629Y-86199998D01*
X137333629Y-86200001D01*
X137352630Y-86344334D01*
X137352632Y-86344339D01*
X137408340Y-86478831D01*
X137408340Y-86478832D01*
X137408342Y-86478835D01*
X137408343Y-86478836D01*
X137496967Y-86594333D01*
X137612464Y-86682957D01*
X137612467Y-86682958D01*
X137612468Y-86682959D01*
X137679713Y-86710812D01*
X137746964Y-86738669D01*
X137819131Y-86748169D01*
X137891299Y-86757671D01*
X137891300Y-86757671D01*
X137891301Y-86757671D01*
X137939412Y-86751337D01*
X138035636Y-86738669D01*
X138170131Y-86682959D01*
X138170132Y-86682959D01*
X138170132Y-86682958D01*
X138170136Y-86682957D01*
X138225137Y-86640753D01*
X175724634Y-86640753D01*
X175743635Y-86785086D01*
X175743637Y-86785091D01*
X175799345Y-86919583D01*
X175799345Y-86919584D01*
X175799347Y-86919587D01*
X175799348Y-86919588D01*
X175887972Y-87035085D01*
X176003469Y-87123709D01*
X176003472Y-87123710D01*
X176003473Y-87123711D01*
X176070718Y-87151565D01*
X176137969Y-87179421D01*
X176210136Y-87188921D01*
X176282304Y-87198423D01*
X176282305Y-87198423D01*
X176282306Y-87198423D01*
X176330416Y-87192089D01*
X176426641Y-87179421D01*
X176561136Y-87123711D01*
X176561137Y-87123711D01*
X176561137Y-87123710D01*
X176561141Y-87123709D01*
X176676638Y-87035085D01*
X176765262Y-86919588D01*
X176820974Y-86785088D01*
X176839976Y-86640752D01*
X176839335Y-86635885D01*
X176820974Y-86496417D01*
X176820974Y-86496416D01*
X176765262Y-86361917D01*
X176748775Y-86340431D01*
X176676639Y-86246420D01*
X176676638Y-86246419D01*
X176561141Y-86157795D01*
X176561138Y-86157794D01*
X176561136Y-86157792D01*
X176426644Y-86102084D01*
X176426639Y-86102082D01*
X176282306Y-86083081D01*
X176282304Y-86083081D01*
X176137970Y-86102082D01*
X176137968Y-86102083D01*
X176003470Y-86157794D01*
X175887972Y-86246419D01*
X175799347Y-86361917D01*
X175743636Y-86496415D01*
X175743635Y-86496417D01*
X175724634Y-86640750D01*
X175724634Y-86640753D01*
X138225137Y-86640753D01*
X138285633Y-86594333D01*
X138374257Y-86478836D01*
X138429969Y-86344336D01*
X138446924Y-86215547D01*
X138448971Y-86200001D01*
X138448971Y-86199998D01*
X138432938Y-86078215D01*
X143659640Y-86078215D01*
X143678641Y-86222548D01*
X143678643Y-86222553D01*
X143734351Y-86357045D01*
X143734351Y-86357046D01*
X143734353Y-86357049D01*
X143734354Y-86357050D01*
X143822978Y-86472547D01*
X143938475Y-86561171D01*
X143938478Y-86561172D01*
X143938479Y-86561173D01*
X144005724Y-86589027D01*
X144072975Y-86616883D01*
X144145143Y-86626384D01*
X144217310Y-86635885D01*
X144217311Y-86635885D01*
X144217312Y-86635885D01*
X144270505Y-86628882D01*
X144361647Y-86616883D01*
X144496142Y-86561173D01*
X144496143Y-86561173D01*
X144496143Y-86561172D01*
X144496147Y-86561171D01*
X144611644Y-86472547D01*
X144700268Y-86357050D01*
X144755980Y-86222550D01*
X144768647Y-86126326D01*
X144774982Y-86078215D01*
X144774982Y-86078212D01*
X144766107Y-86010801D01*
X147798729Y-86010801D01*
X147817730Y-86155134D01*
X147817732Y-86155139D01*
X147873440Y-86289631D01*
X147873440Y-86289632D01*
X147873442Y-86289635D01*
X147873443Y-86289636D01*
X147962067Y-86405133D01*
X148077564Y-86493757D01*
X148077567Y-86493758D01*
X148077568Y-86493759D01*
X148105361Y-86505271D01*
X148212064Y-86549469D01*
X148283579Y-86558884D01*
X148356399Y-86568471D01*
X148356400Y-86568471D01*
X148356401Y-86568471D01*
X148411834Y-86561173D01*
X148500736Y-86549469D01*
X148635231Y-86493759D01*
X148635232Y-86493759D01*
X148635232Y-86493758D01*
X148635236Y-86493757D01*
X148750733Y-86405133D01*
X148839357Y-86289636D01*
X148895069Y-86155136D01*
X148914071Y-86010800D01*
X148912897Y-86001885D01*
X148895069Y-85866465D01*
X148895069Y-85866464D01*
X148839357Y-85731965D01*
X148774516Y-85647462D01*
X148750734Y-85616468D01*
X148747449Y-85613947D01*
X148635236Y-85527843D01*
X148635233Y-85527842D01*
X148635231Y-85527840D01*
X148500739Y-85472132D01*
X148500734Y-85472130D01*
X148356401Y-85453129D01*
X148356399Y-85453129D01*
X148212065Y-85472130D01*
X148212063Y-85472131D01*
X148077565Y-85527842D01*
X147962067Y-85616467D01*
X147873442Y-85731965D01*
X147817731Y-85866463D01*
X147817730Y-85866465D01*
X147798729Y-86010798D01*
X147798729Y-86010801D01*
X144766107Y-86010801D01*
X144757787Y-85947601D01*
X144755980Y-85933878D01*
X144700268Y-85799379D01*
X144660507Y-85747561D01*
X144635313Y-85682392D01*
X144649351Y-85613947D01*
X144698165Y-85563958D01*
X144766257Y-85548294D01*
X144775064Y-85549135D01*
X144800400Y-85552471D01*
X144800401Y-85552471D01*
X144860984Y-85544495D01*
X144944736Y-85533469D01*
X145079231Y-85477759D01*
X145079232Y-85477759D01*
X145079232Y-85477758D01*
X145079236Y-85477757D01*
X145194733Y-85389133D01*
X145283357Y-85273636D01*
X145339069Y-85139136D01*
X145356619Y-85005828D01*
X145358071Y-84994801D01*
X152777129Y-84994801D01*
X152796130Y-85139134D01*
X152796132Y-85139139D01*
X152851840Y-85273631D01*
X152851840Y-85273632D01*
X152851842Y-85273635D01*
X152851843Y-85273636D01*
X152940467Y-85389133D01*
X153055964Y-85477757D01*
X153055967Y-85477758D01*
X153055968Y-85477759D01*
X153095192Y-85494006D01*
X153190464Y-85533469D01*
X153223290Y-85537790D01*
X153287186Y-85566055D01*
X153325658Y-85624379D01*
X153326490Y-85694244D01*
X153311508Y-85724179D01*
X153312805Y-85724928D01*
X153308744Y-85731961D01*
X153253031Y-85866463D01*
X153253030Y-85866465D01*
X153234029Y-86010798D01*
X153234029Y-86010801D01*
X153253030Y-86155134D01*
X153253032Y-86155139D01*
X153308740Y-86289631D01*
X153308740Y-86289632D01*
X153308742Y-86289635D01*
X153308743Y-86289636D01*
X153397367Y-86405133D01*
X153512864Y-86493757D01*
X153512867Y-86493758D01*
X153512868Y-86493759D01*
X153540661Y-86505271D01*
X153647364Y-86549469D01*
X153718879Y-86558884D01*
X153791699Y-86568471D01*
X153791700Y-86568471D01*
X153791701Y-86568471D01*
X153847134Y-86561173D01*
X153936036Y-86549469D01*
X154070531Y-86493759D01*
X154070532Y-86493759D01*
X154070532Y-86493758D01*
X154070536Y-86493757D01*
X154186033Y-86405133D01*
X154274657Y-86289636D01*
X154330369Y-86155136D01*
X154341418Y-86071212D01*
X159695540Y-86071212D01*
X159714541Y-86215545D01*
X159714543Y-86215550D01*
X159770251Y-86350042D01*
X159770251Y-86350043D01*
X159770253Y-86350046D01*
X159770254Y-86350047D01*
X159858878Y-86465544D01*
X159974375Y-86554168D01*
X159974378Y-86554169D01*
X159974379Y-86554170D01*
X159991286Y-86561173D01*
X160108875Y-86609880D01*
X160162069Y-86616883D01*
X160253210Y-86628882D01*
X160253211Y-86628882D01*
X160253212Y-86628882D01*
X160301323Y-86622547D01*
X160397547Y-86609880D01*
X160532042Y-86554170D01*
X160532043Y-86554170D01*
X160532043Y-86554169D01*
X160532047Y-86554168D01*
X160647544Y-86465544D01*
X160736168Y-86350047D01*
X160791880Y-86215547D01*
X160810882Y-86071211D01*
X160809616Y-86061601D01*
X163376329Y-86061601D01*
X163395330Y-86205934D01*
X163395332Y-86205939D01*
X163451040Y-86340431D01*
X163451040Y-86340432D01*
X163451042Y-86340435D01*
X163451043Y-86340436D01*
X163539667Y-86455933D01*
X163655164Y-86544557D01*
X163655167Y-86544558D01*
X163655168Y-86544559D01*
X163695278Y-86561173D01*
X163789664Y-86600269D01*
X163861831Y-86609769D01*
X163933999Y-86619271D01*
X163934000Y-86619271D01*
X163934001Y-86619271D01*
X164005332Y-86609880D01*
X164078336Y-86600269D01*
X164212831Y-86544559D01*
X164212832Y-86544559D01*
X164212832Y-86544558D01*
X164212836Y-86544557D01*
X164328333Y-86455933D01*
X164416957Y-86340436D01*
X164472669Y-86205936D01*
X164486341Y-86102083D01*
X164491671Y-86061601D01*
X164491671Y-86061598D01*
X164476663Y-85947600D01*
X164472669Y-85917264D01*
X164416957Y-85782765D01*
X164377974Y-85731961D01*
X164328334Y-85667268D01*
X164328333Y-85667267D01*
X164212836Y-85578643D01*
X164212833Y-85578642D01*
X164212831Y-85578640D01*
X164078339Y-85522932D01*
X164078334Y-85522930D01*
X163934001Y-85503929D01*
X163933999Y-85503929D01*
X163789665Y-85522930D01*
X163789663Y-85522931D01*
X163655165Y-85578642D01*
X163539667Y-85667267D01*
X163451042Y-85782765D01*
X163395331Y-85917263D01*
X163395330Y-85917265D01*
X163376329Y-86061598D01*
X163376329Y-86061601D01*
X160809616Y-86061601D01*
X160809616Y-86061598D01*
X160791880Y-85926876D01*
X160791880Y-85926875D01*
X160736168Y-85792376D01*
X160712593Y-85761652D01*
X160687399Y-85696483D01*
X160701437Y-85628038D01*
X160750251Y-85578049D01*
X160794781Y-85563228D01*
X160937061Y-85544497D01*
X161071556Y-85488787D01*
X161071557Y-85488787D01*
X161071557Y-85488786D01*
X161071561Y-85488785D01*
X161187058Y-85400161D01*
X161275682Y-85284664D01*
X161331394Y-85150164D01*
X161350396Y-85005828D01*
X161348944Y-84994801D01*
X168728329Y-84994801D01*
X168747330Y-85139134D01*
X168747332Y-85139139D01*
X168803040Y-85273631D01*
X168803040Y-85273632D01*
X168803042Y-85273635D01*
X168803043Y-85273636D01*
X168891667Y-85389133D01*
X169007164Y-85477757D01*
X169007167Y-85477758D01*
X169007168Y-85477759D01*
X169046392Y-85494006D01*
X169141664Y-85533469D01*
X169210167Y-85542487D01*
X169274062Y-85570753D01*
X169312534Y-85629077D01*
X169313366Y-85698942D01*
X169292357Y-85740912D01*
X169260242Y-85782764D01*
X169204531Y-85917263D01*
X169204530Y-85917265D01*
X169185529Y-86061598D01*
X169185529Y-86061601D01*
X169204530Y-86205934D01*
X169204532Y-86205939D01*
X169260240Y-86340431D01*
X169260240Y-86340432D01*
X169260242Y-86340435D01*
X169260243Y-86340436D01*
X169348867Y-86455933D01*
X169464364Y-86544557D01*
X169464367Y-86544558D01*
X169464368Y-86544559D01*
X169504478Y-86561173D01*
X169598864Y-86600269D01*
X169671031Y-86609769D01*
X169743199Y-86619271D01*
X169743200Y-86619271D01*
X169743201Y-86619271D01*
X169814532Y-86609880D01*
X169887536Y-86600269D01*
X170022031Y-86544559D01*
X170022032Y-86544559D01*
X170022032Y-86544558D01*
X170022036Y-86544557D01*
X170137533Y-86455933D01*
X170226157Y-86340436D01*
X170281869Y-86205936D01*
X170295541Y-86102083D01*
X170300871Y-86061601D01*
X170300871Y-86061598D01*
X170293010Y-86001888D01*
X177030729Y-86001888D01*
X177049730Y-86146221D01*
X177049732Y-86146226D01*
X177105440Y-86280718D01*
X177105440Y-86280719D01*
X177105442Y-86280722D01*
X177105443Y-86280723D01*
X177194067Y-86396220D01*
X177309564Y-86484844D01*
X177309567Y-86484845D01*
X177309568Y-86484846D01*
X177358879Y-86505271D01*
X177444064Y-86540556D01*
X177511766Y-86549469D01*
X177588399Y-86559558D01*
X177588400Y-86559558D01*
X177588401Y-86559558D01*
X177665034Y-86549469D01*
X177732736Y-86540556D01*
X177867231Y-86484846D01*
X177867232Y-86484846D01*
X177867232Y-86484845D01*
X177867236Y-86484844D01*
X177982733Y-86396220D01*
X178071357Y-86280723D01*
X178127069Y-86146223D01*
X178143658Y-86020217D01*
X178146071Y-86001888D01*
X178146071Y-86001885D01*
X178129482Y-85875880D01*
X178127069Y-85857551D01*
X178071357Y-85723052D01*
X178035927Y-85676878D01*
X177982734Y-85607555D01*
X177966706Y-85595256D01*
X177867236Y-85518930D01*
X177867233Y-85518929D01*
X177867231Y-85518927D01*
X177732739Y-85463219D01*
X177732734Y-85463217D01*
X177588401Y-85444216D01*
X177588399Y-85444216D01*
X177444065Y-85463217D01*
X177444063Y-85463218D01*
X177309565Y-85518929D01*
X177194067Y-85607554D01*
X177105442Y-85723052D01*
X177049731Y-85857550D01*
X177049730Y-85857552D01*
X177030729Y-86001885D01*
X177030729Y-86001888D01*
X170293010Y-86001888D01*
X170285863Y-85947600D01*
X170281869Y-85917264D01*
X170226157Y-85782765D01*
X170187174Y-85731961D01*
X170137534Y-85667268D01*
X170137533Y-85667267D01*
X170022036Y-85578643D01*
X170022033Y-85578642D01*
X170022031Y-85578640D01*
X169887539Y-85522932D01*
X169887537Y-85522931D01*
X169887536Y-85522931D01*
X169863949Y-85519825D01*
X169819033Y-85513912D01*
X169755136Y-85485645D01*
X169716666Y-85427320D01*
X169715835Y-85357455D01*
X169736844Y-85315486D01*
X169756489Y-85289885D01*
X169768957Y-85273636D01*
X169824669Y-85139136D01*
X169842219Y-85005828D01*
X169843671Y-84994801D01*
X169843671Y-84994798D01*
X169824669Y-84850465D01*
X169824669Y-84850464D01*
X169768957Y-84715965D01*
X169718263Y-84649899D01*
X169680334Y-84600468D01*
X169652364Y-84579006D01*
X169564836Y-84511843D01*
X169564833Y-84511842D01*
X169564831Y-84511840D01*
X169430339Y-84456132D01*
X169430334Y-84456130D01*
X169286001Y-84437129D01*
X169285999Y-84437129D01*
X169141665Y-84456130D01*
X169141663Y-84456131D01*
X169007165Y-84511842D01*
X168891667Y-84600467D01*
X168803042Y-84715965D01*
X168747331Y-84850463D01*
X168747330Y-84850465D01*
X168728329Y-84994798D01*
X168728329Y-84994801D01*
X161348944Y-84994801D01*
X161331394Y-84861493D01*
X161331394Y-84861492D01*
X161275682Y-84726993D01*
X161228082Y-84664959D01*
X161187059Y-84611496D01*
X161144720Y-84579008D01*
X161071561Y-84522871D01*
X161071558Y-84522870D01*
X161071556Y-84522868D01*
X160937064Y-84467160D01*
X160937059Y-84467158D01*
X160792726Y-84448157D01*
X160792724Y-84448157D01*
X160648390Y-84467158D01*
X160648388Y-84467159D01*
X160513890Y-84522870D01*
X160398392Y-84611495D01*
X160309767Y-84726993D01*
X160254056Y-84861491D01*
X160254055Y-84861493D01*
X160235054Y-85005826D01*
X160235054Y-85005829D01*
X160254055Y-85150162D01*
X160254057Y-85150167D01*
X160309765Y-85284659D01*
X160309767Y-85284663D01*
X160333342Y-85315387D01*
X160358535Y-85380556D01*
X160344496Y-85449001D01*
X160295681Y-85498990D01*
X160251150Y-85513811D01*
X160108876Y-85532541D01*
X160108874Y-85532542D01*
X159974376Y-85588253D01*
X159858878Y-85676878D01*
X159770253Y-85792376D01*
X159714542Y-85926874D01*
X159714541Y-85926876D01*
X159695540Y-86071209D01*
X159695540Y-86071212D01*
X154341418Y-86071212D01*
X154349371Y-86010800D01*
X154348197Y-86001885D01*
X154330369Y-85866465D01*
X154330369Y-85866464D01*
X154274657Y-85731965D01*
X154209816Y-85647462D01*
X154186034Y-85616468D01*
X154182749Y-85613947D01*
X154070536Y-85527843D01*
X154070533Y-85527842D01*
X154070531Y-85527840D01*
X153936039Y-85472132D01*
X153936037Y-85472131D01*
X153936036Y-85472131D01*
X153921017Y-85470153D01*
X153903208Y-85467809D01*
X153839312Y-85439542D01*
X153800842Y-85381217D01*
X153800011Y-85311352D01*
X153814996Y-85281422D01*
X153813695Y-85280671D01*
X153817756Y-85273637D01*
X153817757Y-85273636D01*
X153873469Y-85139136D01*
X153891019Y-85005828D01*
X153892471Y-84994801D01*
X153892471Y-84994798D01*
X153873469Y-84850465D01*
X153873469Y-84850464D01*
X153817757Y-84715965D01*
X153767063Y-84649899D01*
X153729134Y-84600468D01*
X153701164Y-84579006D01*
X153613636Y-84511843D01*
X153613633Y-84511842D01*
X153613631Y-84511840D01*
X153479139Y-84456132D01*
X153479134Y-84456130D01*
X153334801Y-84437129D01*
X153334799Y-84437129D01*
X153190465Y-84456130D01*
X153190463Y-84456131D01*
X153055965Y-84511842D01*
X152940467Y-84600467D01*
X152851842Y-84715965D01*
X152796131Y-84850463D01*
X152796130Y-84850465D01*
X152777129Y-84994798D01*
X152777129Y-84994801D01*
X145358071Y-84994801D01*
X145358071Y-84994798D01*
X145339069Y-84850465D01*
X145339069Y-84850464D01*
X145283357Y-84715965D01*
X145232663Y-84649899D01*
X145194734Y-84600468D01*
X145166764Y-84579006D01*
X145079236Y-84511843D01*
X145079233Y-84511842D01*
X145079231Y-84511840D01*
X144944739Y-84456132D01*
X144944734Y-84456130D01*
X144800401Y-84437129D01*
X144800399Y-84437129D01*
X144656065Y-84456130D01*
X144656063Y-84456131D01*
X144521565Y-84511842D01*
X144406067Y-84600467D01*
X144317442Y-84715965D01*
X144261731Y-84850463D01*
X144261730Y-84850465D01*
X144242729Y-84994798D01*
X144242729Y-84994801D01*
X144261730Y-85139134D01*
X144261732Y-85139139D01*
X144317440Y-85273631D01*
X144317440Y-85273632D01*
X144317442Y-85273635D01*
X144317443Y-85273636D01*
X144357203Y-85325453D01*
X144382397Y-85390620D01*
X144368359Y-85459065D01*
X144319545Y-85509055D01*
X144251454Y-85524719D01*
X144242644Y-85523878D01*
X144235442Y-85522930D01*
X144217311Y-85520543D01*
X144217309Y-85520543D01*
X144217308Y-85520543D01*
X144072976Y-85539544D01*
X144072974Y-85539545D01*
X143938476Y-85595256D01*
X143822978Y-85683881D01*
X143734353Y-85799379D01*
X143678642Y-85933877D01*
X143678641Y-85933879D01*
X143659640Y-86078212D01*
X143659640Y-86078215D01*
X138432938Y-86078215D01*
X138432016Y-86071211D01*
X138429969Y-86055664D01*
X138374257Y-85921165D01*
X138357038Y-85898725D01*
X138285634Y-85805668D01*
X138285633Y-85805667D01*
X138170136Y-85717043D01*
X138170133Y-85717042D01*
X138170131Y-85717040D01*
X138035639Y-85661332D01*
X138035634Y-85661330D01*
X137891301Y-85642329D01*
X137891297Y-85642329D01*
X137852306Y-85647462D01*
X137783271Y-85636696D01*
X137731016Y-85590316D01*
X137712131Y-85523046D01*
X137732612Y-85456246D01*
X137737728Y-85449060D01*
X137825205Y-85335059D01*
X137880917Y-85200559D01*
X137899919Y-85056223D01*
X137893284Y-85005828D01*
X137880917Y-84911888D01*
X137880917Y-84911887D01*
X137825205Y-84777388D01*
X137778074Y-84715965D01*
X137736582Y-84661891D01*
X137720954Y-84649899D01*
X137621084Y-84573266D01*
X137621081Y-84573265D01*
X137621079Y-84573263D01*
X137486587Y-84517555D01*
X137486582Y-84517553D01*
X137342249Y-84498552D01*
X137342247Y-84498552D01*
X137197913Y-84517553D01*
X137197911Y-84517554D01*
X137063413Y-84573265D01*
X136947915Y-84661890D01*
X136859290Y-84777388D01*
X136803579Y-84911886D01*
X136803578Y-84911888D01*
X136784577Y-85056221D01*
X136784577Y-85056224D01*
X129605726Y-85056224D01*
X129611673Y-85011049D01*
X129610985Y-85005826D01*
X129592671Y-84866714D01*
X129592671Y-84866713D01*
X129536959Y-84732214D01*
X129524491Y-84715965D01*
X129448336Y-84616717D01*
X129427160Y-84600468D01*
X129332838Y-84528092D01*
X129332835Y-84528091D01*
X129332833Y-84528089D01*
X129198341Y-84472381D01*
X129198336Y-84472379D01*
X129054003Y-84453378D01*
X129054001Y-84453378D01*
X128909667Y-84472379D01*
X128909665Y-84472380D01*
X128775167Y-84528091D01*
X128659669Y-84616716D01*
X128571044Y-84732214D01*
X128515333Y-84866712D01*
X128515332Y-84866714D01*
X128496331Y-85011047D01*
X128496331Y-85011050D01*
X121888650Y-85011050D01*
X121888650Y-85011047D01*
X121876352Y-84917631D01*
X121876352Y-84917630D01*
X121820640Y-84783131D01*
X121732016Y-84667633D01*
X121616519Y-84579009D01*
X121616516Y-84579008D01*
X121616514Y-84579006D01*
X121482022Y-84523298D01*
X121482017Y-84523296D01*
X121337684Y-84504295D01*
X121337682Y-84504295D01*
X121193348Y-84523296D01*
X121193346Y-84523297D01*
X121058848Y-84579008D01*
X120943350Y-84667633D01*
X120854725Y-84783131D01*
X120799014Y-84917629D01*
X120799013Y-84917631D01*
X120780012Y-85061964D01*
X120780012Y-85061967D01*
X92484500Y-85061967D01*
X92484500Y-84255567D01*
X118839885Y-84255567D01*
X118858886Y-84399900D01*
X118858888Y-84399905D01*
X118914596Y-84534397D01*
X118914596Y-84534398D01*
X118914598Y-84534401D01*
X118914599Y-84534402D01*
X119003223Y-84649899D01*
X119118720Y-84738523D01*
X119118723Y-84738524D01*
X119118724Y-84738525D01*
X119185969Y-84766379D01*
X119253220Y-84794235D01*
X119325387Y-84803735D01*
X119397555Y-84813237D01*
X119397556Y-84813237D01*
X119397557Y-84813237D01*
X119445667Y-84806903D01*
X119541892Y-84794235D01*
X119676387Y-84738525D01*
X119676388Y-84738525D01*
X119676388Y-84738524D01*
X119676392Y-84738523D01*
X119791889Y-84649899D01*
X119880513Y-84534402D01*
X119936225Y-84399902D01*
X119955227Y-84255566D01*
X119945542Y-84182001D01*
X179523329Y-84182001D01*
X179542330Y-84326334D01*
X179542332Y-84326339D01*
X179598040Y-84460831D01*
X179598040Y-84460832D01*
X179598042Y-84460835D01*
X179598043Y-84460836D01*
X179686667Y-84576333D01*
X179802164Y-84664957D01*
X179802167Y-84664958D01*
X179802168Y-84664959D01*
X179869413Y-84692813D01*
X179936664Y-84720669D01*
X179984700Y-84726993D01*
X180080999Y-84739671D01*
X180081000Y-84739671D01*
X180081001Y-84739671D01*
X180137642Y-84732214D01*
X180225336Y-84720669D01*
X180359831Y-84664959D01*
X180359832Y-84664959D01*
X180359832Y-84664958D01*
X180359836Y-84664957D01*
X180475333Y-84576333D01*
X180563957Y-84460836D01*
X180619669Y-84326336D01*
X180638671Y-84182000D01*
X180619669Y-84037664D01*
X180563957Y-83903165D01*
X180563797Y-83902957D01*
X180475334Y-83787668D01*
X180455709Y-83772609D01*
X180359836Y-83699043D01*
X180359833Y-83699042D01*
X180359831Y-83699040D01*
X180225339Y-83643332D01*
X180225334Y-83643330D01*
X180081001Y-83624329D01*
X180080999Y-83624329D01*
X179936665Y-83643330D01*
X179936663Y-83643331D01*
X179802165Y-83699042D01*
X179686667Y-83787667D01*
X179598042Y-83903165D01*
X179542331Y-84037663D01*
X179542330Y-84037665D01*
X179523329Y-84181998D01*
X179523329Y-84182001D01*
X119945542Y-84182001D01*
X119936225Y-84111230D01*
X119880513Y-83976731D01*
X119791889Y-83861233D01*
X119676392Y-83772609D01*
X119676389Y-83772608D01*
X119676387Y-83772606D01*
X119541895Y-83716898D01*
X119541890Y-83716896D01*
X119397557Y-83697895D01*
X119397555Y-83697895D01*
X119253221Y-83716896D01*
X119253219Y-83716897D01*
X119118721Y-83772608D01*
X119003223Y-83861233D01*
X118914598Y-83976731D01*
X118858887Y-84111229D01*
X118858886Y-84111231D01*
X118839885Y-84255564D01*
X118839885Y-84255567D01*
X92484500Y-84255567D01*
X92484500Y-83420001D01*
X120468329Y-83420001D01*
X120487330Y-83564334D01*
X120487332Y-83564339D01*
X120543040Y-83698831D01*
X120543040Y-83698832D01*
X120543042Y-83698835D01*
X120543043Y-83698836D01*
X120631667Y-83814333D01*
X120747164Y-83902957D01*
X120747167Y-83902958D01*
X120747168Y-83902959D01*
X120814414Y-83930812D01*
X120881664Y-83958669D01*
X120953831Y-83968169D01*
X121025999Y-83977671D01*
X121026000Y-83977671D01*
X121026001Y-83977671D01*
X121074111Y-83971337D01*
X121170336Y-83958669D01*
X121304831Y-83902959D01*
X121304832Y-83902959D01*
X121304832Y-83902958D01*
X121304836Y-83902957D01*
X121420333Y-83814333D01*
X121508957Y-83698836D01*
X121564669Y-83564336D01*
X121583671Y-83420000D01*
X121580374Y-83394959D01*
X121564669Y-83275665D01*
X121564669Y-83275664D01*
X121508957Y-83141165D01*
X121443866Y-83056336D01*
X121420334Y-83025668D01*
X121420333Y-83025667D01*
X121304836Y-82937043D01*
X121304833Y-82937042D01*
X121304831Y-82937040D01*
X121170339Y-82881332D01*
X121170334Y-82881330D01*
X121026001Y-82862329D01*
X121025999Y-82862329D01*
X120881665Y-82881330D01*
X120881663Y-82881331D01*
X120747165Y-82937042D01*
X120631667Y-83025667D01*
X120543042Y-83141165D01*
X120487331Y-83275663D01*
X120487330Y-83275665D01*
X120468329Y-83419998D01*
X120468329Y-83420001D01*
X92484500Y-83420001D01*
X92484500Y-82531900D01*
X92504185Y-82464861D01*
X92556989Y-82419106D01*
X92608500Y-82407900D01*
X101007976Y-82407900D01*
X101007982Y-82407900D01*
X101044294Y-82403668D01*
X101099799Y-82390552D01*
X101171084Y-82352449D01*
X101171089Y-82352444D01*
X101176929Y-82348272D01*
X101242920Y-82325316D01*
X101310846Y-82341681D01*
X101313532Y-82343272D01*
X101376770Y-82381819D01*
X101443809Y-82401504D01*
X101488296Y-82407900D01*
X101488298Y-82407900D01*
X103807415Y-82407900D01*
X103807419Y-82407900D01*
X103816398Y-82407230D01*
X103830813Y-82406157D01*
X103830812Y-82406157D01*
X103830817Y-82406156D01*
X103830820Y-82406156D01*
X103867168Y-82400709D01*
X103869846Y-82399682D01*
X103871605Y-82399540D01*
X103873684Y-82398994D01*
X103873781Y-82399365D01*
X103939487Y-82394071D01*
X104001109Y-82427003D01*
X104012592Y-82439977D01*
X104092667Y-82544333D01*
X104208164Y-82632957D01*
X104208167Y-82632958D01*
X104208168Y-82632959D01*
X104275414Y-82660812D01*
X104342664Y-82688669D01*
X104387829Y-82694615D01*
X104486999Y-82707671D01*
X104487000Y-82707671D01*
X104487001Y-82707671D01*
X104535112Y-82701337D01*
X104631336Y-82688669D01*
X104765831Y-82632959D01*
X104765832Y-82632959D01*
X104765832Y-82632958D01*
X104765836Y-82632957D01*
X104881333Y-82544333D01*
X104963300Y-82437510D01*
X105019727Y-82396309D01*
X105089473Y-82392154D01*
X105096612Y-82394022D01*
X105112156Y-82398586D01*
X105119393Y-82400711D01*
X105122091Y-82401503D01*
X105122092Y-82401504D01*
X105136770Y-82403614D01*
X105166581Y-82407900D01*
X105166583Y-82407900D01*
X112097513Y-82407900D01*
X112111116Y-82407333D01*
X112161478Y-82396847D01*
X112226647Y-82371653D01*
X112265834Y-82349646D01*
X112274094Y-82343307D01*
X112302127Y-82327121D01*
X112359263Y-82303455D01*
X112368056Y-82299813D01*
X112399320Y-82291435D01*
X112470072Y-82282121D01*
X112502431Y-82282121D01*
X112573180Y-82291434D01*
X112604446Y-82299811D01*
X112662625Y-82323910D01*
X112670368Y-82327117D01*
X112698402Y-82343302D01*
X112709302Y-82351666D01*
X112720424Y-82359485D01*
X112720427Y-82359486D01*
X112720432Y-82359490D01*
X112766754Y-82381819D01*
X112833793Y-82401504D01*
X112833794Y-82401504D01*
X112833797Y-82401505D01*
X112852818Y-82404239D01*
X112878280Y-82407900D01*
X112878282Y-82407900D01*
X123208249Y-82407900D01*
X123221852Y-82407333D01*
X123272214Y-82396847D01*
X123337383Y-82371653D01*
X123376569Y-82349647D01*
X123410113Y-82323908D01*
X123421846Y-82314905D01*
X123449881Y-82298719D01*
X123506331Y-82275337D01*
X123506330Y-82275337D01*
X123506332Y-82275336D01*
X123525516Y-82265446D01*
X123529681Y-82263299D01*
X123529680Y-82263299D01*
X123529688Y-82263295D01*
X123550232Y-82250434D01*
X123617496Y-82231549D01*
X123666189Y-82242140D01*
X123689480Y-82252444D01*
X123715365Y-82259711D01*
X123738442Y-82266190D01*
X123745415Y-82268604D01*
X123764357Y-82276450D01*
X123818115Y-82298717D01*
X123818118Y-82298718D01*
X123846149Y-82314900D01*
X123859723Y-82325316D01*
X123894042Y-82351651D01*
X123905182Y-82359483D01*
X123905183Y-82359484D01*
X123945514Y-82378926D01*
X123951514Y-82381819D01*
X124018553Y-82401504D01*
X124063040Y-82407900D01*
X124063042Y-82407900D01*
X124208249Y-82407900D01*
X124221852Y-82407333D01*
X124272214Y-82396847D01*
X124337383Y-82371653D01*
X124376570Y-82349646D01*
X124421847Y-82314903D01*
X124449877Y-82298719D01*
X124492866Y-82280914D01*
X124544895Y-82259364D01*
X124555506Y-82254518D01*
X124558610Y-82252444D01*
X124565892Y-82247578D01*
X124632567Y-82226698D01*
X124698058Y-82244036D01*
X124725709Y-82260442D01*
X124818121Y-82298719D01*
X124846149Y-82314900D01*
X124859723Y-82325316D01*
X124894042Y-82351651D01*
X124905182Y-82359483D01*
X124905183Y-82359484D01*
X124945514Y-82378926D01*
X124951514Y-82381819D01*
X125018553Y-82401504D01*
X125063040Y-82407900D01*
X125063042Y-82407900D01*
X125208249Y-82407900D01*
X125221852Y-82407333D01*
X125272214Y-82396847D01*
X125337383Y-82371653D01*
X125376570Y-82349646D01*
X125421847Y-82314903D01*
X125449877Y-82298719D01*
X125492866Y-82280914D01*
X125544895Y-82259364D01*
X125555506Y-82254518D01*
X125558610Y-82252444D01*
X125565892Y-82247578D01*
X125632567Y-82226698D01*
X125698058Y-82244036D01*
X125725709Y-82260442D01*
X125818121Y-82298719D01*
X125846149Y-82314900D01*
X125859723Y-82325316D01*
X125894042Y-82351651D01*
X125905182Y-82359483D01*
X125905183Y-82359484D01*
X125945514Y-82378926D01*
X125951514Y-82381819D01*
X126018553Y-82401504D01*
X126063040Y-82407900D01*
X126063042Y-82407900D01*
X126208249Y-82407900D01*
X126221852Y-82407333D01*
X126272214Y-82396847D01*
X126337383Y-82371653D01*
X126376570Y-82349646D01*
X126421847Y-82314903D01*
X126449877Y-82298719D01*
X126488690Y-82282644D01*
X126532824Y-82264364D01*
X126539129Y-82261484D01*
X126543438Y-82259516D01*
X126565179Y-82244989D01*
X126631854Y-82224111D01*
X126697345Y-82241450D01*
X126699122Y-82242504D01*
X126699128Y-82242509D01*
X126737780Y-82265442D01*
X126737783Y-82265443D01*
X126737788Y-82265446D01*
X126818121Y-82298720D01*
X126846156Y-82314906D01*
X126894042Y-82351651D01*
X126905182Y-82359483D01*
X126905183Y-82359484D01*
X126945514Y-82378926D01*
X126951514Y-82381819D01*
X127018553Y-82401504D01*
X127063040Y-82407900D01*
X127063042Y-82407900D01*
X130531508Y-82407900D01*
X130554904Y-82406157D01*
X130554789Y-82406170D01*
X130552759Y-82406478D01*
X130621993Y-82415881D01*
X130675153Y-82461222D01*
X130685925Y-82481621D01*
X130711900Y-82544331D01*
X130712676Y-82546203D01*
X130801300Y-82661700D01*
X130916797Y-82750324D01*
X130916800Y-82750325D01*
X130916801Y-82750326D01*
X130984047Y-82778180D01*
X131051297Y-82806036D01*
X131123464Y-82815537D01*
X131195632Y-82825038D01*
X131195633Y-82825038D01*
X131195634Y-82825038D01*
X131243745Y-82818704D01*
X131339969Y-82806036D01*
X131474464Y-82750326D01*
X131474465Y-82750326D01*
X131474465Y-82750325D01*
X131474469Y-82750324D01*
X131589966Y-82661700D01*
X131678590Y-82546203D01*
X131705977Y-82480083D01*
X131749818Y-82425679D01*
X131816112Y-82403614D01*
X131838175Y-82404796D01*
X131859763Y-82407900D01*
X131859768Y-82407900D01*
X139208249Y-82407900D01*
X139221853Y-82407333D01*
X139272215Y-82396847D01*
X139337384Y-82371653D01*
X139376571Y-82349646D01*
X139443959Y-82297937D01*
X139465932Y-82277479D01*
X139497087Y-82242375D01*
X139497089Y-82242370D01*
X139501304Y-82236302D01*
X139503383Y-82237745D01*
X139543762Y-82196367D01*
X139611848Y-82180681D01*
X139677606Y-82204295D01*
X139694260Y-82218895D01*
X139694717Y-82219374D01*
X139694718Y-82219375D01*
X139749121Y-82263216D01*
X139787774Y-82286150D01*
X139818120Y-82298719D01*
X139846155Y-82314905D01*
X139894043Y-82351651D01*
X139905183Y-82359484D01*
X139945514Y-82378926D01*
X139951514Y-82381819D01*
X140018553Y-82401504D01*
X140063040Y-82407900D01*
X140063042Y-82407900D01*
X140208249Y-82407900D01*
X140221852Y-82407333D01*
X140272214Y-82396847D01*
X140337383Y-82371653D01*
X140376570Y-82349646D01*
X140437743Y-82302704D01*
X140441003Y-82300368D01*
X140476802Y-82276450D01*
X140525790Y-82230841D01*
X140527937Y-82228842D01*
X140528068Y-82228713D01*
X140533315Y-82223591D01*
X140533322Y-82223577D01*
X140537719Y-82217850D01*
X140594148Y-82176648D01*
X140663894Y-82172494D01*
X140724814Y-82206708D01*
X140736236Y-82220211D01*
X140738886Y-82223840D01*
X140753367Y-82243671D01*
X140807771Y-82287511D01*
X140807775Y-82287513D01*
X140807780Y-82287517D01*
X140816416Y-82292640D01*
X140822522Y-82296772D01*
X140870215Y-82333368D01*
X140894045Y-82351653D01*
X140905182Y-82359483D01*
X140905184Y-82359484D01*
X140951514Y-82381819D01*
X141018553Y-82401504D01*
X141063040Y-82407900D01*
X141063042Y-82407900D01*
X141208249Y-82407900D01*
X141221852Y-82407333D01*
X141272214Y-82396847D01*
X141337383Y-82371653D01*
X141376570Y-82349646D01*
X141437743Y-82302704D01*
X141441003Y-82300368D01*
X141476802Y-82276450D01*
X141525790Y-82230841D01*
X141527937Y-82228842D01*
X141528068Y-82228713D01*
X141533315Y-82223591D01*
X141533322Y-82223577D01*
X141537719Y-82217850D01*
X141594148Y-82176648D01*
X141663894Y-82172494D01*
X141724814Y-82206708D01*
X141736236Y-82220211D01*
X141738886Y-82223840D01*
X141753367Y-82243671D01*
X141807771Y-82287511D01*
X141807775Y-82287513D01*
X141807780Y-82287517D01*
X141816416Y-82292640D01*
X141822522Y-82296772D01*
X141870215Y-82333368D01*
X141894045Y-82351653D01*
X141905182Y-82359483D01*
X141905184Y-82359484D01*
X141951514Y-82381819D01*
X142018553Y-82401504D01*
X142063040Y-82407900D01*
X142063042Y-82407900D01*
X142208249Y-82407900D01*
X142221852Y-82407333D01*
X142272214Y-82396847D01*
X142337383Y-82371653D01*
X142376570Y-82349646D01*
X142437743Y-82302704D01*
X142441003Y-82300368D01*
X142476802Y-82276450D01*
X142525790Y-82230841D01*
X142527937Y-82228842D01*
X142528068Y-82228713D01*
X142533315Y-82223591D01*
X142533322Y-82223577D01*
X142537719Y-82217850D01*
X142594148Y-82176648D01*
X142663894Y-82172494D01*
X142724814Y-82206708D01*
X142736236Y-82220211D01*
X142738886Y-82223840D01*
X142753367Y-82243671D01*
X142807771Y-82287511D01*
X142807775Y-82287513D01*
X142807780Y-82287517D01*
X142816416Y-82292640D01*
X142822522Y-82296772D01*
X142870215Y-82333368D01*
X142894045Y-82351653D01*
X142905182Y-82359483D01*
X142905184Y-82359484D01*
X142951514Y-82381819D01*
X143018553Y-82401504D01*
X143063040Y-82407900D01*
X143063042Y-82407900D01*
X149008196Y-82407900D01*
X149008199Y-82407900D01*
X149033843Y-82404291D01*
X149051781Y-82401767D01*
X149051781Y-82401766D01*
X149051784Y-82401766D01*
X149117578Y-82382871D01*
X149123857Y-82380925D01*
X149123859Y-82380923D01*
X149131790Y-82377173D01*
X149132741Y-82379184D01*
X149187866Y-82362276D01*
X149255137Y-82381153D01*
X149277037Y-82398586D01*
X149281110Y-82402659D01*
X149281112Y-82402661D01*
X149281115Y-82402664D01*
X149396612Y-82491288D01*
X149396615Y-82491289D01*
X149396616Y-82491290D01*
X149460296Y-82517667D01*
X149531112Y-82547000D01*
X149603279Y-82556500D01*
X149675447Y-82566002D01*
X149675448Y-82566002D01*
X149675449Y-82566002D01*
X149723559Y-82559668D01*
X149819784Y-82547000D01*
X149954279Y-82491290D01*
X149954280Y-82491290D01*
X149954280Y-82491289D01*
X149954284Y-82491288D01*
X150069781Y-82402664D01*
X150069784Y-82402659D01*
X150074893Y-82397551D01*
X150136214Y-82364063D01*
X150205906Y-82369044D01*
X150227114Y-82379346D01*
X150231171Y-82381819D01*
X150298210Y-82401504D01*
X150342697Y-82407900D01*
X150342699Y-82407900D01*
X155208248Y-82407900D01*
X155221853Y-82407333D01*
X155272221Y-82396846D01*
X155337390Y-82371650D01*
X155376575Y-82349642D01*
X155410108Y-82323910D01*
X155432078Y-82303455D01*
X155433828Y-82301484D01*
X155446229Y-82287511D01*
X155463232Y-82268353D01*
X155492792Y-82212648D01*
X155541604Y-82162658D01*
X155609695Y-82146992D01*
X155675446Y-82170626D01*
X155702468Y-82197648D01*
X155728572Y-82233398D01*
X155782975Y-82277239D01*
X155821629Y-82300173D01*
X155821634Y-82300175D01*
X155825592Y-82302156D01*
X155825252Y-82302834D01*
X155846152Y-82314904D01*
X155894042Y-82351651D01*
X155905184Y-82359484D01*
X155905183Y-82359484D01*
X155945514Y-82378926D01*
X155951514Y-82381819D01*
X156018553Y-82401504D01*
X156063040Y-82407900D01*
X156063042Y-82407900D01*
X156208249Y-82407900D01*
X156221852Y-82407333D01*
X156272214Y-82396847D01*
X156337383Y-82371653D01*
X156376569Y-82349647D01*
X156451414Y-82292217D01*
X156453114Y-82290829D01*
X156455056Y-82289246D01*
X156462674Y-82282644D01*
X156467975Y-82278051D01*
X156502248Y-82236035D01*
X156524745Y-82195974D01*
X156574731Y-82147164D01*
X156643176Y-82133124D01*
X156708345Y-82158317D01*
X156739164Y-82199446D01*
X156741948Y-82197926D01*
X156745845Y-82205063D01*
X156787040Y-82261481D01*
X156787042Y-82261483D01*
X156787045Y-82261487D01*
X156800569Y-82275337D01*
X156818444Y-82293643D01*
X156894061Y-82351665D01*
X156895178Y-82352450D01*
X156905192Y-82359490D01*
X156951514Y-82381819D01*
X157018553Y-82401504D01*
X157018554Y-82401504D01*
X157018557Y-82401505D01*
X157037578Y-82404239D01*
X157063040Y-82407900D01*
X157063042Y-82407900D01*
X157208249Y-82407900D01*
X157221852Y-82407333D01*
X157272214Y-82396847D01*
X157337383Y-82371653D01*
X157376569Y-82349647D01*
X157451414Y-82292217D01*
X157453114Y-82290829D01*
X157455056Y-82289246D01*
X157462674Y-82282644D01*
X157467975Y-82278051D01*
X157502248Y-82236035D01*
X157524745Y-82195974D01*
X157574731Y-82147164D01*
X157643176Y-82133124D01*
X157708345Y-82158317D01*
X157739164Y-82199446D01*
X157741948Y-82197926D01*
X157745845Y-82205063D01*
X157787040Y-82261481D01*
X157787042Y-82261483D01*
X157787045Y-82261487D01*
X157800569Y-82275337D01*
X157818444Y-82293643D01*
X157894061Y-82351665D01*
X157895178Y-82352450D01*
X157905192Y-82359490D01*
X157951514Y-82381819D01*
X158018553Y-82401504D01*
X158018554Y-82401504D01*
X158018557Y-82401505D01*
X158037578Y-82404239D01*
X158063040Y-82407900D01*
X158063042Y-82407900D01*
X158208249Y-82407900D01*
X158221852Y-82407333D01*
X158272214Y-82396847D01*
X158337383Y-82371653D01*
X158376569Y-82349647D01*
X158451414Y-82292217D01*
X158453114Y-82290829D01*
X158455056Y-82289246D01*
X158462674Y-82282644D01*
X158467975Y-82278051D01*
X158502248Y-82236035D01*
X158524745Y-82195974D01*
X158574731Y-82147164D01*
X158643176Y-82133124D01*
X158708345Y-82158317D01*
G37*
G04 #@! TD.AperFunction*
G04 #@! TA.AperFunction,Conductor*
G36*
X155620928Y-81103034D02*
G01*
X155652194Y-81111411D01*
X155718113Y-81138716D01*
X155718116Y-81138717D01*
X155746150Y-81154902D01*
X155802764Y-81198343D01*
X155825654Y-81221233D01*
X155861785Y-81268320D01*
X155864755Y-81271962D01*
X155875947Y-81284877D01*
X155875951Y-81284881D01*
X155898612Y-81303366D01*
X155917963Y-81319150D01*
X155978884Y-81353363D01*
X155985524Y-81356886D01*
X155985525Y-81356886D01*
X155985527Y-81356887D01*
X156015673Y-81363070D01*
X156034283Y-81366887D01*
X156083627Y-81393073D01*
X156134824Y-81373281D01*
X156134188Y-81370515D01*
X156142822Y-81368528D01*
X156142825Y-81368528D01*
X156150115Y-81365710D01*
X156190755Y-81349999D01*
X156219062Y-81339056D01*
X156275490Y-81297854D01*
X156307647Y-81266453D01*
X156342344Y-81221232D01*
X156365231Y-81198344D01*
X156421843Y-81154905D01*
X156449876Y-81138721D01*
X156515804Y-81111413D01*
X156547068Y-81103035D01*
X156617820Y-81093721D01*
X156650179Y-81093721D01*
X156720928Y-81103034D01*
X156752194Y-81111411D01*
X156818115Y-81138716D01*
X156846148Y-81154900D01*
X156882360Y-81182687D01*
X156906699Y-81201363D01*
X156924923Y-81218534D01*
X156925945Y-81219714D01*
X156925946Y-81219715D01*
X156956793Y-81244877D01*
X156967962Y-81253988D01*
X157028882Y-81288201D01*
X157035523Y-81291725D01*
X157115591Y-81308148D01*
X157115594Y-81308147D01*
X157115596Y-81308148D01*
X157185337Y-81303993D01*
X157192824Y-81303367D01*
X157192835Y-81303363D01*
X157240653Y-81284877D01*
X157269061Y-81273895D01*
X157325489Y-81232693D01*
X157341255Y-81217295D01*
X157346821Y-81212471D01*
X157421849Y-81154902D01*
X157449874Y-81138721D01*
X157515804Y-81111412D01*
X157547068Y-81103035D01*
X157617820Y-81093721D01*
X157650179Y-81093721D01*
X157720928Y-81103034D01*
X157752194Y-81111411D01*
X157818115Y-81138716D01*
X157846148Y-81154900D01*
X157882360Y-81182687D01*
X157906699Y-81201363D01*
X157924923Y-81218534D01*
X157925945Y-81219714D01*
X157925946Y-81219715D01*
X157956793Y-81244877D01*
X157967962Y-81253988D01*
X158028882Y-81288201D01*
X158035523Y-81291725D01*
X158115591Y-81308148D01*
X158115594Y-81308147D01*
X158115596Y-81308148D01*
X158185337Y-81303993D01*
X158192824Y-81303367D01*
X158192835Y-81303363D01*
X158240653Y-81284877D01*
X158269061Y-81273895D01*
X158325489Y-81232693D01*
X158341255Y-81217295D01*
X158346821Y-81212471D01*
X158421849Y-81154902D01*
X158449874Y-81138721D01*
X158515804Y-81111412D01*
X158547068Y-81103035D01*
X158617820Y-81093721D01*
X158650179Y-81093721D01*
X158720928Y-81103034D01*
X158752194Y-81111411D01*
X158818113Y-81138716D01*
X158818116Y-81138717D01*
X158846150Y-81154902D01*
X158863413Y-81168148D01*
X158882368Y-81182693D01*
X158902763Y-81198342D01*
X158925653Y-81221232D01*
X158969094Y-81277846D01*
X158985279Y-81305879D01*
X159012586Y-81371803D01*
X159020964Y-81403071D01*
X159030277Y-81473813D01*
X159030277Y-81506182D01*
X159020964Y-81576928D01*
X159012586Y-81608196D01*
X158985519Y-81673542D01*
X158985278Y-81674124D01*
X158969092Y-81702157D01*
X158925657Y-81758762D01*
X158902770Y-81781650D01*
X158850804Y-81821526D01*
X158816574Y-81847792D01*
X158812932Y-81850763D01*
X158800017Y-81861954D01*
X158800015Y-81861955D01*
X158765755Y-81903959D01*
X158765747Y-81903970D01*
X158743253Y-81944025D01*
X158693263Y-81992839D01*
X158624818Y-82006877D01*
X158559649Y-81981682D01*
X158528841Y-81940544D01*
X158526047Y-81942071D01*
X158522153Y-81934942D01*
X158522152Y-81934937D01*
X158480949Y-81878509D01*
X158449550Y-81846353D01*
X158449547Y-81846350D01*
X158449542Y-81846346D01*
X158361303Y-81778639D01*
X158343080Y-81761470D01*
X158342051Y-81760282D01*
X158340188Y-81758762D01*
X158300028Y-81726003D01*
X158257559Y-81702155D01*
X158239109Y-81691794D01*
X158232469Y-81688271D01*
X158232467Y-81688270D01*
X158152398Y-81671850D01*
X158089061Y-81675626D01*
X158082655Y-81676008D01*
X158078911Y-81676320D01*
X158075166Y-81676633D01*
X158035953Y-81691794D01*
X157998932Y-81706107D01*
X157998929Y-81706108D01*
X157998927Y-81706110D01*
X157942513Y-81747303D01*
X157942503Y-81747311D01*
X157926736Y-81762708D01*
X157921160Y-81767539D01*
X157816574Y-81847792D01*
X157812932Y-81850763D01*
X157800017Y-81861954D01*
X157800015Y-81861955D01*
X157765755Y-81903959D01*
X157765747Y-81903970D01*
X157743253Y-81944025D01*
X157693263Y-81992839D01*
X157624818Y-82006877D01*
X157559649Y-81981682D01*
X157528841Y-81940544D01*
X157526047Y-81942071D01*
X157522153Y-81934942D01*
X157522152Y-81934937D01*
X157480949Y-81878509D01*
X157449550Y-81846353D01*
X157449547Y-81846350D01*
X157449542Y-81846346D01*
X157361303Y-81778639D01*
X157343080Y-81761470D01*
X157342051Y-81760282D01*
X157340188Y-81758762D01*
X157300028Y-81726003D01*
X157257559Y-81702155D01*
X157239109Y-81691794D01*
X157232469Y-81688271D01*
X157232467Y-81688270D01*
X157152398Y-81671850D01*
X157089061Y-81675626D01*
X157082655Y-81676008D01*
X157078911Y-81676320D01*
X157075166Y-81676633D01*
X157035953Y-81691794D01*
X156998932Y-81706107D01*
X156998929Y-81706108D01*
X156998927Y-81706110D01*
X156942513Y-81747303D01*
X156942503Y-81747311D01*
X156926736Y-81762708D01*
X156921160Y-81767539D01*
X156816574Y-81847792D01*
X156812932Y-81850763D01*
X156800017Y-81861954D01*
X156800015Y-81861955D01*
X156765755Y-81903959D01*
X156765747Y-81903970D01*
X156743253Y-81944025D01*
X156693263Y-81992839D01*
X156624818Y-82006877D01*
X156559649Y-81981682D01*
X156528841Y-81940544D01*
X156526047Y-81942071D01*
X156522153Y-81934942D01*
X156522152Y-81934937D01*
X156480949Y-81878509D01*
X156449550Y-81846353D01*
X156365231Y-81781652D01*
X156342345Y-81758765D01*
X156306207Y-81711670D01*
X156303238Y-81708030D01*
X156292053Y-81695122D01*
X156292052Y-81695121D01*
X156250038Y-81660850D01*
X156250035Y-81660848D01*
X156189115Y-81626636D01*
X156182476Y-81623113D01*
X156133708Y-81613110D01*
X156084364Y-81586922D01*
X156033180Y-81606715D01*
X156033817Y-81609483D01*
X156025177Y-81611469D01*
X156025175Y-81611470D01*
X156025172Y-81611470D01*
X156025168Y-81611472D01*
X155948943Y-81640939D01*
X155948937Y-81640942D01*
X155892515Y-81682140D01*
X155892510Y-81682144D01*
X155860355Y-81713543D01*
X155825653Y-81758767D01*
X155802766Y-81781653D01*
X155757906Y-81816076D01*
X155757893Y-81816087D01*
X155735923Y-81836541D01*
X155704768Y-81871644D01*
X155675205Y-81927352D01*
X155626391Y-81977342D01*
X155558300Y-81993006D01*
X155492550Y-81969370D01*
X155465529Y-81942349D01*
X155439425Y-81906600D01*
X155436161Y-81903970D01*
X155385021Y-81862759D01*
X155346371Y-81839827D01*
X155346365Y-81839824D01*
X155342420Y-81837850D01*
X155342754Y-81837180D01*
X155321847Y-81825095D01*
X155265233Y-81781653D01*
X155242345Y-81758765D01*
X155198906Y-81702155D01*
X155182720Y-81674122D01*
X155182480Y-81673542D01*
X155155412Y-81608195D01*
X155147036Y-81576935D01*
X155137721Y-81506177D01*
X155137721Y-81473817D01*
X155147034Y-81403068D01*
X155155412Y-81371803D01*
X155163050Y-81353363D01*
X155182720Y-81305874D01*
X155198900Y-81277850D01*
X155242345Y-81221231D01*
X155265227Y-81198348D01*
X155321846Y-81154902D01*
X155349878Y-81138720D01*
X155415804Y-81111413D01*
X155447068Y-81103035D01*
X155517820Y-81093721D01*
X155550179Y-81093721D01*
X155620928Y-81103034D01*
G37*
G04 #@! TD.AperFunction*
G04 #@! TA.AperFunction,Conductor*
G36*
X139620928Y-81063034D02*
G01*
X139652194Y-81071411D01*
X139718113Y-81098716D01*
X139718116Y-81098717D01*
X139746150Y-81114902D01*
X139802764Y-81158343D01*
X139825654Y-81181233D01*
X139861785Y-81228320D01*
X139864755Y-81231962D01*
X139875947Y-81244877D01*
X139875951Y-81244881D01*
X139875952Y-81244882D01*
X139879176Y-81247512D01*
X139917510Y-81278781D01*
X139917963Y-81279150D01*
X139978884Y-81313363D01*
X139985524Y-81316886D01*
X140034288Y-81326888D01*
X140083627Y-81353072D01*
X140134824Y-81333281D01*
X140134188Y-81330515D01*
X140142822Y-81328528D01*
X140142825Y-81328528D01*
X140147073Y-81326886D01*
X140195543Y-81308148D01*
X140219062Y-81299056D01*
X140275490Y-81257854D01*
X140307647Y-81226453D01*
X140342344Y-81181232D01*
X140365231Y-81158344D01*
X140421843Y-81114905D01*
X140449876Y-81098721D01*
X140515804Y-81071413D01*
X140547068Y-81063035D01*
X140617820Y-81053721D01*
X140650179Y-81053721D01*
X140720928Y-81063034D01*
X140752194Y-81071411D01*
X140818115Y-81098716D01*
X140846148Y-81114900D01*
X140876049Y-81137844D01*
X140906699Y-81161363D01*
X140924923Y-81178534D01*
X140925945Y-81179714D01*
X140925946Y-81179715D01*
X140948783Y-81198343D01*
X140967962Y-81213988D01*
X141005157Y-81234877D01*
X141028267Y-81247856D01*
X141028882Y-81248201D01*
X141035523Y-81251725D01*
X141115591Y-81268148D01*
X141115594Y-81268147D01*
X141115596Y-81268148D01*
X141185337Y-81263993D01*
X141192824Y-81263367D01*
X141193593Y-81263070D01*
X141248605Y-81241803D01*
X141269061Y-81233895D01*
X141325489Y-81192693D01*
X141341255Y-81177295D01*
X141346821Y-81172471D01*
X141421849Y-81114902D01*
X141449874Y-81098721D01*
X141515804Y-81071412D01*
X141547068Y-81063035D01*
X141617820Y-81053721D01*
X141650179Y-81053721D01*
X141720928Y-81063034D01*
X141752194Y-81071411D01*
X141818115Y-81098716D01*
X141846148Y-81114900D01*
X141876049Y-81137844D01*
X141906699Y-81161363D01*
X141924923Y-81178534D01*
X141925945Y-81179714D01*
X141925946Y-81179715D01*
X141948783Y-81198343D01*
X141967962Y-81213988D01*
X142005157Y-81234877D01*
X142028267Y-81247856D01*
X142028882Y-81248201D01*
X142035523Y-81251725D01*
X142115591Y-81268148D01*
X142115594Y-81268147D01*
X142115596Y-81268148D01*
X142185337Y-81263993D01*
X142192824Y-81263367D01*
X142193593Y-81263070D01*
X142248605Y-81241803D01*
X142269061Y-81233895D01*
X142325489Y-81192693D01*
X142341255Y-81177295D01*
X142346821Y-81172471D01*
X142421849Y-81114902D01*
X142449874Y-81098721D01*
X142515804Y-81071412D01*
X142547068Y-81063035D01*
X142617820Y-81053721D01*
X142650179Y-81053721D01*
X142720928Y-81063034D01*
X142752194Y-81071411D01*
X142818113Y-81098716D01*
X142818116Y-81098717D01*
X142846150Y-81114902D01*
X142902684Y-81158282D01*
X142902763Y-81158342D01*
X142925653Y-81181232D01*
X142969094Y-81237846D01*
X142985279Y-81265879D01*
X143012586Y-81331803D01*
X143020964Y-81363071D01*
X143030277Y-81433813D01*
X143030277Y-81466182D01*
X143020964Y-81536928D01*
X143012586Y-81568196D01*
X142994920Y-81610846D01*
X142985279Y-81634121D01*
X142969093Y-81662154D01*
X142925651Y-81718768D01*
X142902764Y-81741656D01*
X142830298Y-81797262D01*
X142827001Y-81799625D01*
X142815230Y-81807491D01*
X142791191Y-81823554D01*
X142752440Y-81859635D01*
X142740054Y-81871167D01*
X142734676Y-81876417D01*
X142730274Y-81882154D01*
X142673844Y-81923352D01*
X142604097Y-81927502D01*
X142543179Y-81893285D01*
X142531759Y-81879783D01*
X142514637Y-81856333D01*
X142460237Y-81812494D01*
X142460226Y-81812486D01*
X142451567Y-81807349D01*
X142445461Y-81803217D01*
X142391049Y-81761465D01*
X142361306Y-81738642D01*
X142343081Y-81721470D01*
X142342051Y-81720282D01*
X142342045Y-81720277D01*
X142342043Y-81720275D01*
X142300028Y-81686003D01*
X142257557Y-81662154D01*
X142239109Y-81651794D01*
X142232469Y-81648271D01*
X142232467Y-81648270D01*
X142152398Y-81631850D01*
X142089061Y-81635626D01*
X142082655Y-81636008D01*
X142078911Y-81636320D01*
X142075166Y-81636633D01*
X142024790Y-81656110D01*
X141998932Y-81666107D01*
X141998929Y-81666108D01*
X141998927Y-81666110D01*
X141942513Y-81707303D01*
X141942502Y-81707312D01*
X141926731Y-81722712D01*
X141921155Y-81727545D01*
X141830296Y-81797263D01*
X141826999Y-81799626D01*
X141791193Y-81823551D01*
X141740054Y-81871167D01*
X141734676Y-81876417D01*
X141730274Y-81882154D01*
X141673844Y-81923352D01*
X141604097Y-81927502D01*
X141543179Y-81893285D01*
X141531759Y-81879783D01*
X141514637Y-81856333D01*
X141460237Y-81812494D01*
X141460226Y-81812486D01*
X141451567Y-81807349D01*
X141445461Y-81803217D01*
X141391049Y-81761465D01*
X141361306Y-81738642D01*
X141343081Y-81721470D01*
X141342051Y-81720282D01*
X141342045Y-81720277D01*
X141342043Y-81720275D01*
X141300028Y-81686003D01*
X141257557Y-81662154D01*
X141239109Y-81651794D01*
X141232469Y-81648271D01*
X141232467Y-81648270D01*
X141152398Y-81631850D01*
X141089061Y-81635626D01*
X141082655Y-81636008D01*
X141078911Y-81636320D01*
X141075166Y-81636633D01*
X141024790Y-81656110D01*
X140998932Y-81666107D01*
X140998929Y-81666108D01*
X140998927Y-81666110D01*
X140942513Y-81707303D01*
X140942502Y-81707312D01*
X140926731Y-81722712D01*
X140921155Y-81727545D01*
X140830296Y-81797263D01*
X140826999Y-81799626D01*
X140791193Y-81823551D01*
X140740054Y-81871167D01*
X140734676Y-81876417D01*
X140730274Y-81882154D01*
X140673844Y-81923352D01*
X140604097Y-81927502D01*
X140543179Y-81893285D01*
X140531759Y-81879783D01*
X140514637Y-81856333D01*
X140460237Y-81812494D01*
X140460225Y-81812486D01*
X140451564Y-81807346D01*
X140445456Y-81803212D01*
X140375544Y-81749567D01*
X140365232Y-81741654D01*
X140342344Y-81718766D01*
X140340981Y-81716990D01*
X140324132Y-81695032D01*
X140306217Y-81671684D01*
X140303247Y-81668044D01*
X140303245Y-81668041D01*
X140292049Y-81655120D01*
X140287799Y-81651653D01*
X140250035Y-81620848D01*
X140189110Y-81586634D01*
X140182476Y-81583113D01*
X140133706Y-81573110D01*
X140084364Y-81546924D01*
X140033177Y-81566723D01*
X140033812Y-81569482D01*
X140025177Y-81571468D01*
X139948935Y-81600944D01*
X139948932Y-81600945D01*
X139892516Y-81642139D01*
X139892513Y-81642141D01*
X139860356Y-81673542D01*
X139825654Y-81718766D01*
X139802767Y-81741652D01*
X139724046Y-81802057D01*
X139724025Y-81802075D01*
X139702082Y-81822505D01*
X139702070Y-81822517D01*
X139670915Y-81857619D01*
X139666705Y-81863684D01*
X139664640Y-81862250D01*
X139624162Y-81903674D01*
X139556065Y-81919313D01*
X139490323Y-81895653D01*
X139473739Y-81881104D01*
X139473280Y-81880622D01*
X139418879Y-81836782D01*
X139380232Y-81813852D01*
X139380229Y-81813851D01*
X139380228Y-81813850D01*
X139349871Y-81801275D01*
X139321840Y-81785091D01*
X139265235Y-81741656D01*
X139242346Y-81718768D01*
X139198905Y-81662155D01*
X139182720Y-81634122D01*
X139181901Y-81632144D01*
X139155412Y-81568195D01*
X139147036Y-81536935D01*
X139137721Y-81466177D01*
X139137721Y-81433817D01*
X139147034Y-81363068D01*
X139155412Y-81331803D01*
X139165210Y-81308148D01*
X139182720Y-81265874D01*
X139198900Y-81237850D01*
X139242345Y-81181231D01*
X139265227Y-81158348D01*
X139321846Y-81114902D01*
X139349878Y-81098720D01*
X139415804Y-81071413D01*
X139447068Y-81063035D01*
X139517820Y-81053721D01*
X139550179Y-81053721D01*
X139620928Y-81063034D01*
G37*
G04 #@! TD.AperFunction*
G04 #@! TA.AperFunction,Conductor*
G36*
X171620928Y-81053034D02*
G01*
X171652194Y-81061411D01*
X171718113Y-81088716D01*
X171718116Y-81088717D01*
X171746150Y-81104902D01*
X171802764Y-81148343D01*
X171825654Y-81171233D01*
X171861785Y-81218320D01*
X171864755Y-81221962D01*
X171875947Y-81234877D01*
X171875951Y-81234881D01*
X171916734Y-81268148D01*
X171917963Y-81269150D01*
X171978884Y-81303363D01*
X171985524Y-81306886D01*
X172034288Y-81316888D01*
X172083627Y-81343072D01*
X172134824Y-81323281D01*
X172134188Y-81320515D01*
X172142822Y-81318528D01*
X172142825Y-81318528D01*
X172147073Y-81316886D01*
X172165118Y-81309909D01*
X172219062Y-81289056D01*
X172275490Y-81247854D01*
X172307647Y-81216453D01*
X172342344Y-81171232D01*
X172365231Y-81148344D01*
X172421843Y-81104905D01*
X172449876Y-81088721D01*
X172515804Y-81061413D01*
X172547068Y-81053035D01*
X172617820Y-81043721D01*
X172650179Y-81043721D01*
X172720928Y-81053034D01*
X172752194Y-81061411D01*
X172818115Y-81088716D01*
X172846148Y-81104900D01*
X172874236Y-81126453D01*
X172906699Y-81151363D01*
X172924923Y-81168534D01*
X172925945Y-81169714D01*
X172925946Y-81169715D01*
X172961041Y-81198342D01*
X172967962Y-81203988D01*
X173028882Y-81238201D01*
X173035523Y-81241725D01*
X173115591Y-81258148D01*
X173115594Y-81258147D01*
X173115596Y-81258148D01*
X173185337Y-81253993D01*
X173185409Y-81253987D01*
X173192824Y-81253367D01*
X173197072Y-81251725D01*
X173246318Y-81232687D01*
X173269061Y-81223895D01*
X173325489Y-81182693D01*
X173341255Y-81167295D01*
X173346821Y-81162471D01*
X173421849Y-81104902D01*
X173449874Y-81088721D01*
X173515804Y-81061412D01*
X173547068Y-81053035D01*
X173617820Y-81043721D01*
X173650179Y-81043721D01*
X173720928Y-81053034D01*
X173752194Y-81061411D01*
X173818115Y-81088716D01*
X173846148Y-81104900D01*
X173874236Y-81126453D01*
X173906699Y-81151363D01*
X173924923Y-81168534D01*
X173925945Y-81169714D01*
X173925946Y-81169715D01*
X173961041Y-81198342D01*
X173967962Y-81203988D01*
X174028882Y-81238201D01*
X174035523Y-81241725D01*
X174115591Y-81258148D01*
X174115594Y-81258147D01*
X174115596Y-81258148D01*
X174185337Y-81253993D01*
X174185409Y-81253987D01*
X174192824Y-81253367D01*
X174197072Y-81251725D01*
X174246318Y-81232687D01*
X174269061Y-81223895D01*
X174325489Y-81182693D01*
X174341255Y-81167295D01*
X174346821Y-81162471D01*
X174421849Y-81104902D01*
X174449874Y-81088721D01*
X174515804Y-81061412D01*
X174547068Y-81053035D01*
X174617820Y-81043721D01*
X174650179Y-81043721D01*
X174720928Y-81053034D01*
X174752194Y-81061411D01*
X174818113Y-81088716D01*
X174818116Y-81088717D01*
X174846150Y-81104902D01*
X174859186Y-81114905D01*
X174902116Y-81147846D01*
X174902763Y-81148342D01*
X174925653Y-81171232D01*
X174969094Y-81227846D01*
X174985278Y-81255877D01*
X175011489Y-81319154D01*
X175012586Y-81321801D01*
X175020964Y-81353072D01*
X175022628Y-81365711D01*
X175025342Y-81386323D01*
X175030277Y-81423815D01*
X175030277Y-81456182D01*
X175020964Y-81526928D01*
X175012586Y-81558196D01*
X174994879Y-81600945D01*
X174985279Y-81624121D01*
X174969093Y-81652154D01*
X174925651Y-81708768D01*
X174902763Y-81731656D01*
X174844574Y-81776307D01*
X174825367Y-81787860D01*
X174825478Y-81788059D01*
X174821133Y-81790481D01*
X174779119Y-81818554D01*
X174779115Y-81818557D01*
X174727985Y-81866164D01*
X174719192Y-81874750D01*
X174657474Y-81907502D01*
X174587847Y-81901687D01*
X174532418Y-81859153D01*
X174526707Y-81851332D01*
X174500590Y-81830286D01*
X174472303Y-81807490D01*
X174444195Y-81790813D01*
X174439145Y-81787817D01*
X174433037Y-81783683D01*
X174430391Y-81781653D01*
X174361301Y-81728638D01*
X174343078Y-81711467D01*
X174342051Y-81710282D01*
X174342044Y-81710276D01*
X174342043Y-81710275D01*
X174300028Y-81676003D01*
X174252306Y-81649205D01*
X174239109Y-81641794D01*
X174232469Y-81638271D01*
X174232467Y-81638270D01*
X174152398Y-81621850D01*
X174089061Y-81625626D01*
X174082655Y-81626008D01*
X174078911Y-81626320D01*
X174075166Y-81626633D01*
X174035048Y-81642144D01*
X173998932Y-81656107D01*
X173998929Y-81656108D01*
X173998927Y-81656110D01*
X173942513Y-81697303D01*
X173942503Y-81697311D01*
X173926731Y-81712713D01*
X173921154Y-81717545D01*
X173844572Y-81776308D01*
X173825367Y-81787861D01*
X173825478Y-81788059D01*
X173821133Y-81790481D01*
X173779119Y-81818554D01*
X173779115Y-81818557D01*
X173727985Y-81866164D01*
X173719192Y-81874750D01*
X173657474Y-81907502D01*
X173587847Y-81901687D01*
X173532418Y-81859153D01*
X173526707Y-81851332D01*
X173500590Y-81830286D01*
X173472303Y-81807490D01*
X173444195Y-81790813D01*
X173439145Y-81787817D01*
X173433037Y-81783683D01*
X173430391Y-81781653D01*
X173361301Y-81728638D01*
X173343078Y-81711467D01*
X173342051Y-81710282D01*
X173342044Y-81710276D01*
X173342043Y-81710275D01*
X173300028Y-81676003D01*
X173252306Y-81649205D01*
X173239109Y-81641794D01*
X173232469Y-81638271D01*
X173232467Y-81638270D01*
X173152398Y-81621850D01*
X173089061Y-81625626D01*
X173082655Y-81626008D01*
X173078911Y-81626320D01*
X173075166Y-81626633D01*
X173035048Y-81642144D01*
X172998932Y-81656107D01*
X172998929Y-81656108D01*
X172998927Y-81656110D01*
X172942513Y-81697303D01*
X172942503Y-81697311D01*
X172926731Y-81712713D01*
X172921154Y-81717545D01*
X172844572Y-81776308D01*
X172825367Y-81787861D01*
X172825478Y-81788059D01*
X172821133Y-81790481D01*
X172779119Y-81818554D01*
X172779115Y-81818557D01*
X172727985Y-81866164D01*
X172719192Y-81874750D01*
X172657474Y-81907502D01*
X172587847Y-81901687D01*
X172532418Y-81859153D01*
X172526707Y-81851332D01*
X172500590Y-81830286D01*
X172472303Y-81807490D01*
X172444971Y-81791274D01*
X172439150Y-81787820D01*
X172433041Y-81783685D01*
X172365231Y-81731653D01*
X172342345Y-81708767D01*
X172321913Y-81682140D01*
X172306217Y-81661684D01*
X172303247Y-81658044D01*
X172303245Y-81658041D01*
X172292049Y-81645120D01*
X172288397Y-81642141D01*
X172250035Y-81610848D01*
X172189110Y-81576634D01*
X172182476Y-81573113D01*
X172133706Y-81563110D01*
X172084364Y-81536924D01*
X172033177Y-81556723D01*
X172033812Y-81559482D01*
X172025177Y-81561468D01*
X171948935Y-81590944D01*
X171948932Y-81590945D01*
X171892516Y-81632139D01*
X171892513Y-81632141D01*
X171860356Y-81663542D01*
X171825656Y-81708763D01*
X171802770Y-81731649D01*
X171715581Y-81798552D01*
X171693611Y-81819007D01*
X171683599Y-81830288D01*
X171662454Y-81854111D01*
X171662452Y-81854113D01*
X171657552Y-81859635D01*
X171655797Y-81858078D01*
X171610236Y-81894776D01*
X171540765Y-81902229D01*
X171485004Y-81876756D01*
X171427339Y-81830286D01*
X171427334Y-81830283D01*
X171388691Y-81807356D01*
X171388689Y-81807355D01*
X171375911Y-81802062D01*
X171349876Y-81791278D01*
X171321845Y-81775094D01*
X171319508Y-81773301D01*
X171300567Y-81758767D01*
X171265230Y-81731652D01*
X171242340Y-81708762D01*
X171221915Y-81682143D01*
X171198904Y-81652154D01*
X171182722Y-81624128D01*
X171155412Y-81558195D01*
X171147036Y-81526935D01*
X171137721Y-81456177D01*
X171137721Y-81423815D01*
X171147034Y-81353068D01*
X171155412Y-81321803D01*
X171165333Y-81297852D01*
X171182720Y-81255874D01*
X171198900Y-81227850D01*
X171242345Y-81171231D01*
X171265227Y-81148348D01*
X171321846Y-81104902D01*
X171349878Y-81088720D01*
X171415804Y-81061413D01*
X171447068Y-81053035D01*
X171517820Y-81043721D01*
X171550179Y-81043721D01*
X171620928Y-81053034D01*
G37*
G04 #@! TD.AperFunction*
G04 #@! TA.AperFunction,Conductor*
G36*
X123620928Y-80963034D02*
G01*
X123652194Y-80971411D01*
X123718113Y-80998716D01*
X123718116Y-80998717D01*
X123746150Y-81014902D01*
X123802764Y-81058343D01*
X123825654Y-81081233D01*
X123861785Y-81128320D01*
X123864755Y-81131962D01*
X123875947Y-81144877D01*
X123875951Y-81144881D01*
X123875952Y-81144882D01*
X123884340Y-81151724D01*
X123917207Y-81178534D01*
X123917963Y-81179150D01*
X123978884Y-81213363D01*
X123985524Y-81216886D01*
X123985525Y-81216886D01*
X123985527Y-81216887D01*
X124010266Y-81221961D01*
X124034283Y-81226887D01*
X124083627Y-81253073D01*
X124134824Y-81233281D01*
X124134188Y-81230515D01*
X124142822Y-81228528D01*
X124142825Y-81228528D01*
X124143369Y-81228318D01*
X124174060Y-81216453D01*
X124219062Y-81199056D01*
X124275490Y-81157854D01*
X124307647Y-81126453D01*
X124342344Y-81081232D01*
X124365231Y-81058344D01*
X124421843Y-81014905D01*
X124449876Y-80998721D01*
X124515804Y-80971413D01*
X124547068Y-80963035D01*
X124617820Y-80953721D01*
X124650179Y-80953721D01*
X124720928Y-80963034D01*
X124752194Y-80971411D01*
X124818115Y-80998716D01*
X124846148Y-81014900D01*
X124846232Y-81014965D01*
X124906699Y-81061363D01*
X124924923Y-81078534D01*
X124925945Y-81079714D01*
X124925946Y-81079715D01*
X124957146Y-81105165D01*
X124967962Y-81113988D01*
X125010440Y-81137844D01*
X125028880Y-81148200D01*
X125029150Y-81148343D01*
X125035523Y-81151725D01*
X125115591Y-81168148D01*
X125115594Y-81168147D01*
X125115596Y-81168148D01*
X125185337Y-81163993D01*
X125192824Y-81163367D01*
X125204059Y-81159024D01*
X125240418Y-81144968D01*
X125269061Y-81133895D01*
X125325489Y-81092693D01*
X125341255Y-81077295D01*
X125346821Y-81072471D01*
X125421849Y-81014902D01*
X125449874Y-80998721D01*
X125515804Y-80971412D01*
X125547068Y-80963035D01*
X125617820Y-80953721D01*
X125650179Y-80953721D01*
X125720928Y-80963034D01*
X125752194Y-80971411D01*
X125818113Y-80998716D01*
X125818116Y-80998717D01*
X125846150Y-81014902D01*
X125905214Y-81060223D01*
X125923436Y-81077391D01*
X125929777Y-81084708D01*
X125929780Y-81084711D01*
X125971785Y-81118979D01*
X125971788Y-81118980D01*
X125971791Y-81118983D01*
X125998343Y-81133896D01*
X126032707Y-81153197D01*
X126035496Y-81154676D01*
X126039349Y-81156721D01*
X126119416Y-81173147D01*
X126185639Y-81169204D01*
X126189163Y-81168995D01*
X126190659Y-81168870D01*
X126196651Y-81168370D01*
X126272889Y-81138900D01*
X126329318Y-81097700D01*
X126335263Y-81091893D01*
X126340830Y-81087068D01*
X126421849Y-81024902D01*
X126449874Y-81008721D01*
X126515804Y-80981412D01*
X126547068Y-80973035D01*
X126617820Y-80963721D01*
X126650179Y-80963721D01*
X126720928Y-80973034D01*
X126752194Y-80981411D01*
X126793973Y-80998717D01*
X126818116Y-81008717D01*
X126846150Y-81024902D01*
X126902701Y-81068295D01*
X126902763Y-81068342D01*
X126925653Y-81091232D01*
X126969094Y-81147846D01*
X126985279Y-81175879D01*
X127012586Y-81241803D01*
X127020964Y-81273071D01*
X127030277Y-81343813D01*
X127030277Y-81376182D01*
X127020964Y-81446928D01*
X127012586Y-81478198D01*
X126985279Y-81544121D01*
X126969093Y-81572154D01*
X126925653Y-81628765D01*
X126902765Y-81651653D01*
X126846154Y-81695093D01*
X126818121Y-81711278D01*
X126768785Y-81731715D01*
X126735180Y-81745635D01*
X126730978Y-81747554D01*
X126724566Y-81750482D01*
X126702816Y-81765014D01*
X126636137Y-81785888D01*
X126570657Y-81768550D01*
X126530227Y-81744562D01*
X126530214Y-81744555D01*
X126449873Y-81711276D01*
X126421840Y-81695091D01*
X126362784Y-81649775D01*
X126344563Y-81632608D01*
X126338208Y-81625275D01*
X126338202Y-81625269D01*
X126296188Y-81591001D01*
X126296187Y-81591000D01*
X126235264Y-81556791D01*
X126228626Y-81553269D01*
X126228625Y-81553268D01*
X126228624Y-81553268D01*
X126148555Y-81536850D01*
X126148554Y-81536850D01*
X126148549Y-81536849D01*
X126081743Y-81540833D01*
X126078809Y-81541009D01*
X126076937Y-81541165D01*
X126071318Y-81541635D01*
X125995087Y-81571110D01*
X125938665Y-81612313D01*
X125938652Y-81612323D01*
X125932722Y-81618114D01*
X125927148Y-81622944D01*
X125846154Y-81685093D01*
X125818121Y-81701278D01*
X125766378Y-81722712D01*
X125723109Y-81740635D01*
X125712497Y-81745481D01*
X125712495Y-81745482D01*
X125702097Y-81752429D01*
X125635418Y-81773301D01*
X125569943Y-81755964D01*
X125542298Y-81739562D01*
X125542295Y-81739560D01*
X125542292Y-81739559D01*
X125449873Y-81701277D01*
X125421842Y-81685093D01*
X125421841Y-81685092D01*
X125361301Y-81638638D01*
X125343078Y-81621467D01*
X125342051Y-81620282D01*
X125342044Y-81620276D01*
X125342043Y-81620275D01*
X125300028Y-81586003D01*
X125256336Y-81561468D01*
X125239109Y-81551794D01*
X125232469Y-81548271D01*
X125232467Y-81548270D01*
X125152398Y-81531850D01*
X125089061Y-81535626D01*
X125082655Y-81536008D01*
X125078911Y-81536320D01*
X125075166Y-81536633D01*
X125032138Y-81553269D01*
X124998932Y-81566107D01*
X124998929Y-81566108D01*
X124998927Y-81566110D01*
X124942513Y-81607303D01*
X124942503Y-81607311D01*
X124926731Y-81622713D01*
X124921155Y-81627545D01*
X124846156Y-81685093D01*
X124818124Y-81701277D01*
X124723109Y-81740635D01*
X124712497Y-81745481D01*
X124712495Y-81745482D01*
X124702097Y-81752429D01*
X124635418Y-81773301D01*
X124569943Y-81755964D01*
X124542298Y-81739562D01*
X124542295Y-81739560D01*
X124542292Y-81739559D01*
X124449873Y-81701277D01*
X124421841Y-81685092D01*
X124410817Y-81676633D01*
X124365233Y-81641655D01*
X124342347Y-81618769D01*
X124306210Y-81571674D01*
X124303241Y-81568034D01*
X124302076Y-81566690D01*
X124292053Y-81555122D01*
X124292052Y-81555121D01*
X124250038Y-81520850D01*
X124250035Y-81520848D01*
X124189115Y-81486636D01*
X124182476Y-81483113D01*
X124133708Y-81473110D01*
X124084364Y-81446922D01*
X124033180Y-81466715D01*
X124033817Y-81469483D01*
X124025177Y-81471469D01*
X124025175Y-81471470D01*
X124025172Y-81471470D01*
X124025168Y-81471472D01*
X123948943Y-81500939D01*
X123948937Y-81500942D01*
X123892515Y-81542140D01*
X123892510Y-81542144D01*
X123860355Y-81573543D01*
X123825653Y-81618767D01*
X123802764Y-81641655D01*
X123746157Y-81685091D01*
X123718127Y-81701275D01*
X123678851Y-81717545D01*
X123661667Y-81724663D01*
X123661665Y-81724664D01*
X123661664Y-81724664D01*
X123638314Y-81736703D01*
X123638310Y-81736705D01*
X123617761Y-81749567D01*
X123550491Y-81768449D01*
X123501810Y-81757859D01*
X123478514Y-81747554D01*
X123429576Y-81733815D01*
X123422601Y-81731401D01*
X123349878Y-81701278D01*
X123321846Y-81685094D01*
X123265231Y-81641653D01*
X123242340Y-81618762D01*
X123217909Y-81586922D01*
X123198905Y-81562155D01*
X123182722Y-81534128D01*
X123155412Y-81468195D01*
X123147036Y-81436934D01*
X123137721Y-81366177D01*
X123137721Y-81333818D01*
X123147034Y-81263067D01*
X123155412Y-81231803D01*
X123162791Y-81213988D01*
X123182720Y-81165874D01*
X123198900Y-81137850D01*
X123242345Y-81081231D01*
X123265227Y-81058348D01*
X123321846Y-81014902D01*
X123349878Y-80998720D01*
X123415804Y-80971413D01*
X123447068Y-80963035D01*
X123517820Y-80953721D01*
X123550179Y-80953721D01*
X123620928Y-80963034D01*
G37*
G04 #@! TD.AperFunction*
G04 #@! TA.AperFunction,Conductor*
G36*
X179763473Y-80978745D02*
G01*
X179794740Y-80987123D01*
X179860661Y-81014428D01*
X179888695Y-81030613D01*
X179943230Y-81072459D01*
X179945308Y-81074053D01*
X179968198Y-81096943D01*
X180011639Y-81153557D01*
X180027823Y-81181588D01*
X180054041Y-81244882D01*
X180055131Y-81247512D01*
X180063509Y-81278782D01*
X180072822Y-81349526D01*
X180072822Y-81381896D01*
X180063508Y-81452641D01*
X180055130Y-81483907D01*
X180027824Y-81549830D01*
X180011638Y-81577865D01*
X179968198Y-81634476D01*
X179945310Y-81657364D01*
X179888699Y-81700804D01*
X179860664Y-81716990D01*
X179794741Y-81744296D01*
X179763475Y-81752674D01*
X179692731Y-81761988D01*
X179660359Y-81761988D01*
X179589614Y-81752674D01*
X179558348Y-81744296D01*
X179492425Y-81716990D01*
X179464392Y-81700806D01*
X179407776Y-81657364D01*
X179384885Y-81634473D01*
X179372830Y-81618762D01*
X179341449Y-81577865D01*
X179325267Y-81549839D01*
X179297957Y-81483906D01*
X179289581Y-81452645D01*
X179280266Y-81381888D01*
X179280266Y-81349526D01*
X179289579Y-81278778D01*
X179297957Y-81247514D01*
X179305821Y-81228528D01*
X179325265Y-81181585D01*
X179341445Y-81153561D01*
X179384890Y-81096942D01*
X179407772Y-81074059D01*
X179464391Y-81030613D01*
X179492423Y-81014431D01*
X179558349Y-80987124D01*
X179589613Y-80978746D01*
X179660365Y-80969432D01*
X179692724Y-80969432D01*
X179763473Y-80978745D01*
G37*
G04 #@! TD.AperFunction*
G04 #@! TA.AperFunction,Conductor*
G36*
X116541138Y-79928634D02*
G01*
X116572405Y-79937012D01*
X116638326Y-79964317D01*
X116666360Y-79980502D01*
X116722973Y-80023942D01*
X116745863Y-80046832D01*
X116789304Y-80103446D01*
X116805489Y-80131479D01*
X116832796Y-80197403D01*
X116841174Y-80228672D01*
X116850487Y-80299415D01*
X116850487Y-80331785D01*
X116841173Y-80402530D01*
X116832795Y-80433796D01*
X116805489Y-80499719D01*
X116789303Y-80527754D01*
X116745863Y-80584365D01*
X116722975Y-80607253D01*
X116666364Y-80650693D01*
X116638329Y-80666879D01*
X116572406Y-80694185D01*
X116541140Y-80702563D01*
X116470396Y-80711877D01*
X116438024Y-80711877D01*
X116367279Y-80702563D01*
X116336013Y-80694185D01*
X116270090Y-80666879D01*
X116242057Y-80650695D01*
X116185441Y-80607253D01*
X116162550Y-80584362D01*
X116119116Y-80527757D01*
X116102932Y-80499728D01*
X116075622Y-80433795D01*
X116067246Y-80402534D01*
X116057931Y-80331777D01*
X116057931Y-80299415D01*
X116067244Y-80228667D01*
X116075622Y-80197403D01*
X116080688Y-80185170D01*
X116102930Y-80131474D01*
X116119110Y-80103450D01*
X116162555Y-80046831D01*
X116185437Y-80023948D01*
X116242056Y-79980502D01*
X116270088Y-79964320D01*
X116336014Y-79937013D01*
X116367278Y-79928635D01*
X116438030Y-79919321D01*
X116470389Y-79919321D01*
X116541138Y-79928634D01*
G37*
G04 #@! TD.AperFunction*
M02*
