G04 #@! TF.GenerationSoftware,KiCad,Pcbnew,7.0.7-7.0.7~ubuntu22.04.1*
G04 #@! TF.CreationDate,2024-03-13T22:54:31+01:00*
G04 #@! TF.ProjectId,flexaxe,666c6578-6178-4652-9e6b-696361645f70,rev?*
G04 #@! TF.SameCoordinates,Original*
G04 #@! TF.FileFunction,Legend,Bot*
G04 #@! TF.FilePolarity,Positive*
%FSLAX46Y46*%
G04 Gerber Fmt 4.6, Leading zero omitted, Abs format (unit mm)*
G04 Created by KiCad (PCBNEW 7.0.7-7.0.7~ubuntu22.04.1) date 2024-03-13 22:54:31*
%MOMM*%
%LPD*%
G01*
G04 APERTURE LIST*
G04 Aperture macros list*
%AMRoundRect*
0 Rectangle with rounded corners*
0 $1 Rounding radius*
0 $2 $3 $4 $5 $6 $7 $8 $9 X,Y pos of 4 corners*
0 Add a 4 corners polygon primitive as box body*
4,1,4,$2,$3,$4,$5,$6,$7,$8,$9,$2,$3,0*
0 Add four circle primitives for the rounded corners*
1,1,$1+$1,$2,$3*
1,1,$1+$1,$4,$5*
1,1,$1+$1,$6,$7*
1,1,$1+$1,$8,$9*
0 Add four rect primitives between the rounded corners*
20,1,$1+$1,$2,$3,$4,$5,0*
20,1,$1+$1,$4,$5,$6,$7,0*
20,1,$1+$1,$6,$7,$8,$9,0*
20,1,$1+$1,$8,$9,$2,$3,0*%
%AMFreePoly0*
4,1,19,0.500000,-0.750000,0.000000,-0.750000,0.000000,-0.744911,-0.071157,-0.744911,-0.207708,-0.704816,-0.327430,-0.627875,-0.420627,-0.520320,-0.479746,-0.390866,-0.500000,-0.250000,-0.500000,0.250000,-0.479746,0.390866,-0.420627,0.520320,-0.327430,0.627875,-0.207708,0.704816,-0.071157,0.744911,0.000000,0.744911,0.000000,0.750000,0.500000,0.750000,0.500000,-0.750000,0.500000,-0.750000,
$1*%
%AMFreePoly1*
4,1,19,0.000000,0.744911,0.071157,0.744911,0.207708,0.704816,0.327430,0.627875,0.420627,0.520320,0.479746,0.390866,0.500000,0.250000,0.500000,-0.250000,0.479746,-0.390866,0.420627,-0.520320,0.327430,-0.627875,0.207708,-0.704816,0.071157,-0.744911,0.000000,-0.744911,0.000000,-0.750000,-0.500000,-0.750000,-0.500000,0.750000,0.000000,0.750000,0.000000,0.744911,0.000000,0.744911,
$1*%
G04 Aperture macros list end*
%ADD10C,0.150000*%
%ADD11C,0.120000*%
%ADD12C,2.700000*%
%ADD13C,0.900000*%
%ADD14C,8.600000*%
%ADD15RoundRect,0.250000X-0.475000X0.250000X-0.475000X-0.250000X0.475000X-0.250000X0.475000X0.250000X0*%
%ADD16RoundRect,0.250000X-0.250000X-0.475000X0.250000X-0.475000X0.250000X0.475000X-0.250000X0.475000X0*%
%ADD17RoundRect,0.250000X-0.450000X0.262500X-0.450000X-0.262500X0.450000X-0.262500X0.450000X0.262500X0*%
%ADD18RoundRect,0.250000X0.250000X0.475000X-0.250000X0.475000X-0.250000X-0.475000X0.250000X-0.475000X0*%
%ADD19RoundRect,0.250000X-0.262500X-0.450000X0.262500X-0.450000X0.262500X0.450000X-0.262500X0.450000X0*%
%ADD20R,0.900000X1.000000*%
%ADD21RoundRect,0.250000X-1.100000X0.325000X-1.100000X-0.325000X1.100000X-0.325000X1.100000X0.325000X0*%
%ADD22R,1.800000X0.650000*%
%ADD23RoundRect,0.250000X0.475000X-0.250000X0.475000X0.250000X-0.475000X0.250000X-0.475000X-0.250000X0*%
%ADD24RoundRect,0.250000X0.262500X0.450000X-0.262500X0.450000X-0.262500X-0.450000X0.262500X-0.450000X0*%
%ADD25FreePoly0,90.000000*%
%ADD26R,5.000000X1.000000*%
%ADD27FreePoly1,90.000000*%
G04 APERTURE END LIST*
D10*
X137320104Y-76202714D02*
X137358200Y-76164618D01*
X137358200Y-76164618D02*
X137396295Y-76050333D01*
X137396295Y-76050333D02*
X137396295Y-75974142D01*
X137396295Y-75974142D02*
X137358200Y-75859856D01*
X137358200Y-75859856D02*
X137282009Y-75783666D01*
X137282009Y-75783666D02*
X137205819Y-75745571D01*
X137205819Y-75745571D02*
X137053438Y-75707475D01*
X137053438Y-75707475D02*
X136939152Y-75707475D01*
X136939152Y-75707475D02*
X136786771Y-75745571D01*
X136786771Y-75745571D02*
X136710580Y-75783666D01*
X136710580Y-75783666D02*
X136634390Y-75859856D01*
X136634390Y-75859856D02*
X136596295Y-75974142D01*
X136596295Y-75974142D02*
X136596295Y-76050333D01*
X136596295Y-76050333D02*
X136634390Y-76164618D01*
X136634390Y-76164618D02*
X136672485Y-76202714D01*
X136596295Y-76469380D02*
X136596295Y-76964618D01*
X136596295Y-76964618D02*
X136901057Y-76697952D01*
X136901057Y-76697952D02*
X136901057Y-76812237D01*
X136901057Y-76812237D02*
X136939152Y-76888428D01*
X136939152Y-76888428D02*
X136977247Y-76926523D01*
X136977247Y-76926523D02*
X137053438Y-76964618D01*
X137053438Y-76964618D02*
X137243914Y-76964618D01*
X137243914Y-76964618D02*
X137320104Y-76926523D01*
X137320104Y-76926523D02*
X137358200Y-76888428D01*
X137358200Y-76888428D02*
X137396295Y-76812237D01*
X137396295Y-76812237D02*
X137396295Y-76583666D01*
X137396295Y-76583666D02*
X137358200Y-76507475D01*
X137358200Y-76507475D02*
X137320104Y-76469380D01*
X136672485Y-77269380D02*
X136634390Y-77307476D01*
X136634390Y-77307476D02*
X136596295Y-77383666D01*
X136596295Y-77383666D02*
X136596295Y-77574142D01*
X136596295Y-77574142D02*
X136634390Y-77650333D01*
X136634390Y-77650333D02*
X136672485Y-77688428D01*
X136672485Y-77688428D02*
X136748676Y-77726523D01*
X136748676Y-77726523D02*
X136824866Y-77726523D01*
X136824866Y-77726523D02*
X136939152Y-77688428D01*
X136939152Y-77688428D02*
X137396295Y-77231285D01*
X137396295Y-77231285D02*
X137396295Y-77726523D01*
X157941085Y-84366504D02*
X157979181Y-84404600D01*
X157979181Y-84404600D02*
X158093466Y-84442695D01*
X158093466Y-84442695D02*
X158169657Y-84442695D01*
X158169657Y-84442695D02*
X158283943Y-84404600D01*
X158283943Y-84404600D02*
X158360133Y-84328409D01*
X158360133Y-84328409D02*
X158398228Y-84252219D01*
X158398228Y-84252219D02*
X158436324Y-84099838D01*
X158436324Y-84099838D02*
X158436324Y-83985552D01*
X158436324Y-83985552D02*
X158398228Y-83833171D01*
X158398228Y-83833171D02*
X158360133Y-83756980D01*
X158360133Y-83756980D02*
X158283943Y-83680790D01*
X158283943Y-83680790D02*
X158169657Y-83642695D01*
X158169657Y-83642695D02*
X158093466Y-83642695D01*
X158093466Y-83642695D02*
X157979181Y-83680790D01*
X157979181Y-83680790D02*
X157941085Y-83718885D01*
X157636324Y-83718885D02*
X157598228Y-83680790D01*
X157598228Y-83680790D02*
X157522038Y-83642695D01*
X157522038Y-83642695D02*
X157331562Y-83642695D01*
X157331562Y-83642695D02*
X157255371Y-83680790D01*
X157255371Y-83680790D02*
X157217276Y-83718885D01*
X157217276Y-83718885D02*
X157179181Y-83795076D01*
X157179181Y-83795076D02*
X157179181Y-83871266D01*
X157179181Y-83871266D02*
X157217276Y-83985552D01*
X157217276Y-83985552D02*
X157674419Y-84442695D01*
X157674419Y-84442695D02*
X157179181Y-84442695D01*
X156798228Y-84442695D02*
X156645847Y-84442695D01*
X156645847Y-84442695D02*
X156569657Y-84404600D01*
X156569657Y-84404600D02*
X156531561Y-84366504D01*
X156531561Y-84366504D02*
X156455371Y-84252219D01*
X156455371Y-84252219D02*
X156417276Y-84099838D01*
X156417276Y-84099838D02*
X156417276Y-83795076D01*
X156417276Y-83795076D02*
X156455371Y-83718885D01*
X156455371Y-83718885D02*
X156493466Y-83680790D01*
X156493466Y-83680790D02*
X156569657Y-83642695D01*
X156569657Y-83642695D02*
X156722038Y-83642695D01*
X156722038Y-83642695D02*
X156798228Y-83680790D01*
X156798228Y-83680790D02*
X156836323Y-83718885D01*
X156836323Y-83718885D02*
X156874419Y-83795076D01*
X156874419Y-83795076D02*
X156874419Y-83985552D01*
X156874419Y-83985552D02*
X156836323Y-84061742D01*
X156836323Y-84061742D02*
X156798228Y-84099838D01*
X156798228Y-84099838D02*
X156722038Y-84137933D01*
X156722038Y-84137933D02*
X156569657Y-84137933D01*
X156569657Y-84137933D02*
X156493466Y-84099838D01*
X156493466Y-84099838D02*
X156455371Y-84061742D01*
X156455371Y-84061742D02*
X156417276Y-83985552D01*
X181001685Y-81039104D02*
X181039781Y-81077200D01*
X181039781Y-81077200D02*
X181154066Y-81115295D01*
X181154066Y-81115295D02*
X181230257Y-81115295D01*
X181230257Y-81115295D02*
X181344543Y-81077200D01*
X181344543Y-81077200D02*
X181420733Y-81001009D01*
X181420733Y-81001009D02*
X181458828Y-80924819D01*
X181458828Y-80924819D02*
X181496924Y-80772438D01*
X181496924Y-80772438D02*
X181496924Y-80658152D01*
X181496924Y-80658152D02*
X181458828Y-80505771D01*
X181458828Y-80505771D02*
X181420733Y-80429580D01*
X181420733Y-80429580D02*
X181344543Y-80353390D01*
X181344543Y-80353390D02*
X181230257Y-80315295D01*
X181230257Y-80315295D02*
X181154066Y-80315295D01*
X181154066Y-80315295D02*
X181039781Y-80353390D01*
X181039781Y-80353390D02*
X181001685Y-80391485D01*
X180315971Y-80315295D02*
X180468352Y-80315295D01*
X180468352Y-80315295D02*
X180544543Y-80353390D01*
X180544543Y-80353390D02*
X180582638Y-80391485D01*
X180582638Y-80391485D02*
X180658828Y-80505771D01*
X180658828Y-80505771D02*
X180696924Y-80658152D01*
X180696924Y-80658152D02*
X180696924Y-80962914D01*
X180696924Y-80962914D02*
X180658828Y-81039104D01*
X180658828Y-81039104D02*
X180620733Y-81077200D01*
X180620733Y-81077200D02*
X180544543Y-81115295D01*
X180544543Y-81115295D02*
X180392162Y-81115295D01*
X180392162Y-81115295D02*
X180315971Y-81077200D01*
X180315971Y-81077200D02*
X180277876Y-81039104D01*
X180277876Y-81039104D02*
X180239781Y-80962914D01*
X180239781Y-80962914D02*
X180239781Y-80772438D01*
X180239781Y-80772438D02*
X180277876Y-80696247D01*
X180277876Y-80696247D02*
X180315971Y-80658152D01*
X180315971Y-80658152D02*
X180392162Y-80620057D01*
X180392162Y-80620057D02*
X180544543Y-80620057D01*
X180544543Y-80620057D02*
X180620733Y-80658152D01*
X180620733Y-80658152D02*
X180658828Y-80696247D01*
X180658828Y-80696247D02*
X180696924Y-80772438D01*
X179477876Y-81115295D02*
X179935019Y-81115295D01*
X179706447Y-81115295D02*
X179706447Y-80315295D01*
X179706447Y-80315295D02*
X179782638Y-80429580D01*
X179782638Y-80429580D02*
X179858828Y-80505771D01*
X179858828Y-80505771D02*
X179935019Y-80543866D01*
X149280104Y-76415714D02*
X149318200Y-76377618D01*
X149318200Y-76377618D02*
X149356295Y-76263333D01*
X149356295Y-76263333D02*
X149356295Y-76187142D01*
X149356295Y-76187142D02*
X149318200Y-76072856D01*
X149318200Y-76072856D02*
X149242009Y-75996666D01*
X149242009Y-75996666D02*
X149165819Y-75958571D01*
X149165819Y-75958571D02*
X149013438Y-75920475D01*
X149013438Y-75920475D02*
X148899152Y-75920475D01*
X148899152Y-75920475D02*
X148746771Y-75958571D01*
X148746771Y-75958571D02*
X148670580Y-75996666D01*
X148670580Y-75996666D02*
X148594390Y-76072856D01*
X148594390Y-76072856D02*
X148556295Y-76187142D01*
X148556295Y-76187142D02*
X148556295Y-76263333D01*
X148556295Y-76263333D02*
X148594390Y-76377618D01*
X148594390Y-76377618D02*
X148632485Y-76415714D01*
X148822961Y-77101428D02*
X149356295Y-77101428D01*
X148518200Y-76910952D02*
X149089628Y-76720475D01*
X149089628Y-76720475D02*
X149089628Y-77215714D01*
X148822961Y-77863333D02*
X149356295Y-77863333D01*
X148518200Y-77672857D02*
X149089628Y-77482380D01*
X149089628Y-77482380D02*
X149089628Y-77977619D01*
X129270104Y-81602714D02*
X129308200Y-81564618D01*
X129308200Y-81564618D02*
X129346295Y-81450333D01*
X129346295Y-81450333D02*
X129346295Y-81374142D01*
X129346295Y-81374142D02*
X129308200Y-81259856D01*
X129308200Y-81259856D02*
X129232009Y-81183666D01*
X129232009Y-81183666D02*
X129155819Y-81145571D01*
X129155819Y-81145571D02*
X129003438Y-81107475D01*
X129003438Y-81107475D02*
X128889152Y-81107475D01*
X128889152Y-81107475D02*
X128736771Y-81145571D01*
X128736771Y-81145571D02*
X128660580Y-81183666D01*
X128660580Y-81183666D02*
X128584390Y-81259856D01*
X128584390Y-81259856D02*
X128546295Y-81374142D01*
X128546295Y-81374142D02*
X128546295Y-81450333D01*
X128546295Y-81450333D02*
X128584390Y-81564618D01*
X128584390Y-81564618D02*
X128622485Y-81602714D01*
X128622485Y-81907475D02*
X128584390Y-81945571D01*
X128584390Y-81945571D02*
X128546295Y-82021761D01*
X128546295Y-82021761D02*
X128546295Y-82212237D01*
X128546295Y-82212237D02*
X128584390Y-82288428D01*
X128584390Y-82288428D02*
X128622485Y-82326523D01*
X128622485Y-82326523D02*
X128698676Y-82364618D01*
X128698676Y-82364618D02*
X128774866Y-82364618D01*
X128774866Y-82364618D02*
X128889152Y-82326523D01*
X128889152Y-82326523D02*
X129346295Y-81869380D01*
X129346295Y-81869380D02*
X129346295Y-82364618D01*
X128546295Y-83050333D02*
X128546295Y-82897952D01*
X128546295Y-82897952D02*
X128584390Y-82821761D01*
X128584390Y-82821761D02*
X128622485Y-82783666D01*
X128622485Y-82783666D02*
X128736771Y-82707476D01*
X128736771Y-82707476D02*
X128889152Y-82669380D01*
X128889152Y-82669380D02*
X129193914Y-82669380D01*
X129193914Y-82669380D02*
X129270104Y-82707476D01*
X129270104Y-82707476D02*
X129308200Y-82745571D01*
X129308200Y-82745571D02*
X129346295Y-82821761D01*
X129346295Y-82821761D02*
X129346295Y-82974142D01*
X129346295Y-82974142D02*
X129308200Y-83050333D01*
X129308200Y-83050333D02*
X129270104Y-83088428D01*
X129270104Y-83088428D02*
X129193914Y-83126523D01*
X129193914Y-83126523D02*
X129003438Y-83126523D01*
X129003438Y-83126523D02*
X128927247Y-83088428D01*
X128927247Y-83088428D02*
X128889152Y-83050333D01*
X128889152Y-83050333D02*
X128851057Y-82974142D01*
X128851057Y-82974142D02*
X128851057Y-82821761D01*
X128851057Y-82821761D02*
X128889152Y-82745571D01*
X128889152Y-82745571D02*
X128927247Y-82707476D01*
X128927247Y-82707476D02*
X129003438Y-82669380D01*
X174044685Y-85508104D02*
X174082781Y-85546200D01*
X174082781Y-85546200D02*
X174197066Y-85584295D01*
X174197066Y-85584295D02*
X174273257Y-85584295D01*
X174273257Y-85584295D02*
X174387543Y-85546200D01*
X174387543Y-85546200D02*
X174463733Y-85470009D01*
X174463733Y-85470009D02*
X174501828Y-85393819D01*
X174501828Y-85393819D02*
X174539924Y-85241438D01*
X174539924Y-85241438D02*
X174539924Y-85127152D01*
X174539924Y-85127152D02*
X174501828Y-84974771D01*
X174501828Y-84974771D02*
X174463733Y-84898580D01*
X174463733Y-84898580D02*
X174387543Y-84822390D01*
X174387543Y-84822390D02*
X174273257Y-84784295D01*
X174273257Y-84784295D02*
X174197066Y-84784295D01*
X174197066Y-84784295D02*
X174082781Y-84822390D01*
X174082781Y-84822390D02*
X174044685Y-84860485D01*
X173358971Y-84784295D02*
X173511352Y-84784295D01*
X173511352Y-84784295D02*
X173587543Y-84822390D01*
X173587543Y-84822390D02*
X173625638Y-84860485D01*
X173625638Y-84860485D02*
X173701828Y-84974771D01*
X173701828Y-84974771D02*
X173739924Y-85127152D01*
X173739924Y-85127152D02*
X173739924Y-85431914D01*
X173739924Y-85431914D02*
X173701828Y-85508104D01*
X173701828Y-85508104D02*
X173663733Y-85546200D01*
X173663733Y-85546200D02*
X173587543Y-85584295D01*
X173587543Y-85584295D02*
X173435162Y-85584295D01*
X173435162Y-85584295D02*
X173358971Y-85546200D01*
X173358971Y-85546200D02*
X173320876Y-85508104D01*
X173320876Y-85508104D02*
X173282781Y-85431914D01*
X173282781Y-85431914D02*
X173282781Y-85241438D01*
X173282781Y-85241438D02*
X173320876Y-85165247D01*
X173320876Y-85165247D02*
X173358971Y-85127152D01*
X173358971Y-85127152D02*
X173435162Y-85089057D01*
X173435162Y-85089057D02*
X173587543Y-85089057D01*
X173587543Y-85089057D02*
X173663733Y-85127152D01*
X173663733Y-85127152D02*
X173701828Y-85165247D01*
X173701828Y-85165247D02*
X173739924Y-85241438D01*
X172978019Y-84860485D02*
X172939923Y-84822390D01*
X172939923Y-84822390D02*
X172863733Y-84784295D01*
X172863733Y-84784295D02*
X172673257Y-84784295D01*
X172673257Y-84784295D02*
X172597066Y-84822390D01*
X172597066Y-84822390D02*
X172558971Y-84860485D01*
X172558971Y-84860485D02*
X172520876Y-84936676D01*
X172520876Y-84936676D02*
X172520876Y-85012866D01*
X172520876Y-85012866D02*
X172558971Y-85127152D01*
X172558971Y-85127152D02*
X173016114Y-85584295D01*
X173016114Y-85584295D02*
X172520876Y-85584295D01*
X177650295Y-84152167D02*
X177269342Y-83885500D01*
X177650295Y-83695024D02*
X176850295Y-83695024D01*
X176850295Y-83695024D02*
X176850295Y-83999786D01*
X176850295Y-83999786D02*
X176888390Y-84075976D01*
X176888390Y-84075976D02*
X176926485Y-84114071D01*
X176926485Y-84114071D02*
X177002676Y-84152167D01*
X177002676Y-84152167D02*
X177116961Y-84152167D01*
X177116961Y-84152167D02*
X177193152Y-84114071D01*
X177193152Y-84114071D02*
X177231247Y-84075976D01*
X177231247Y-84075976D02*
X177269342Y-83999786D01*
X177269342Y-83999786D02*
X177269342Y-83695024D01*
X176850295Y-84837881D02*
X176850295Y-84685500D01*
X176850295Y-84685500D02*
X176888390Y-84609309D01*
X176888390Y-84609309D02*
X176926485Y-84571214D01*
X176926485Y-84571214D02*
X177040771Y-84495024D01*
X177040771Y-84495024D02*
X177193152Y-84456928D01*
X177193152Y-84456928D02*
X177497914Y-84456928D01*
X177497914Y-84456928D02*
X177574104Y-84495024D01*
X177574104Y-84495024D02*
X177612200Y-84533119D01*
X177612200Y-84533119D02*
X177650295Y-84609309D01*
X177650295Y-84609309D02*
X177650295Y-84761690D01*
X177650295Y-84761690D02*
X177612200Y-84837881D01*
X177612200Y-84837881D02*
X177574104Y-84875976D01*
X177574104Y-84875976D02*
X177497914Y-84914071D01*
X177497914Y-84914071D02*
X177307438Y-84914071D01*
X177307438Y-84914071D02*
X177231247Y-84875976D01*
X177231247Y-84875976D02*
X177193152Y-84837881D01*
X177193152Y-84837881D02*
X177155057Y-84761690D01*
X177155057Y-84761690D02*
X177155057Y-84609309D01*
X177155057Y-84609309D02*
X177193152Y-84533119D01*
X177193152Y-84533119D02*
X177231247Y-84495024D01*
X177231247Y-84495024D02*
X177307438Y-84456928D01*
X130996295Y-84416667D02*
X130615342Y-84150000D01*
X130996295Y-83959524D02*
X130196295Y-83959524D01*
X130196295Y-83959524D02*
X130196295Y-84264286D01*
X130196295Y-84264286D02*
X130234390Y-84340476D01*
X130234390Y-84340476D02*
X130272485Y-84378571D01*
X130272485Y-84378571D02*
X130348676Y-84416667D01*
X130348676Y-84416667D02*
X130462961Y-84416667D01*
X130462961Y-84416667D02*
X130539152Y-84378571D01*
X130539152Y-84378571D02*
X130577247Y-84340476D01*
X130577247Y-84340476D02*
X130615342Y-84264286D01*
X130615342Y-84264286D02*
X130615342Y-83959524D01*
X130196295Y-84683333D02*
X130196295Y-85178571D01*
X130196295Y-85178571D02*
X130501057Y-84911905D01*
X130501057Y-84911905D02*
X130501057Y-85026190D01*
X130501057Y-85026190D02*
X130539152Y-85102381D01*
X130539152Y-85102381D02*
X130577247Y-85140476D01*
X130577247Y-85140476D02*
X130653438Y-85178571D01*
X130653438Y-85178571D02*
X130843914Y-85178571D01*
X130843914Y-85178571D02*
X130920104Y-85140476D01*
X130920104Y-85140476D02*
X130958200Y-85102381D01*
X130958200Y-85102381D02*
X130996295Y-85026190D01*
X130996295Y-85026190D02*
X130996295Y-84797619D01*
X130996295Y-84797619D02*
X130958200Y-84721428D01*
X130958200Y-84721428D02*
X130920104Y-84683333D01*
X141270104Y-78035714D02*
X141308200Y-77997618D01*
X141308200Y-77997618D02*
X141346295Y-77883333D01*
X141346295Y-77883333D02*
X141346295Y-77807142D01*
X141346295Y-77807142D02*
X141308200Y-77692856D01*
X141308200Y-77692856D02*
X141232009Y-77616666D01*
X141232009Y-77616666D02*
X141155819Y-77578571D01*
X141155819Y-77578571D02*
X141003438Y-77540475D01*
X141003438Y-77540475D02*
X140889152Y-77540475D01*
X140889152Y-77540475D02*
X140736771Y-77578571D01*
X140736771Y-77578571D02*
X140660580Y-77616666D01*
X140660580Y-77616666D02*
X140584390Y-77692856D01*
X140584390Y-77692856D02*
X140546295Y-77807142D01*
X140546295Y-77807142D02*
X140546295Y-77883333D01*
X140546295Y-77883333D02*
X140584390Y-77997618D01*
X140584390Y-77997618D02*
X140622485Y-78035714D01*
X140546295Y-78302380D02*
X140546295Y-78797618D01*
X140546295Y-78797618D02*
X140851057Y-78530952D01*
X140851057Y-78530952D02*
X140851057Y-78645237D01*
X140851057Y-78645237D02*
X140889152Y-78721428D01*
X140889152Y-78721428D02*
X140927247Y-78759523D01*
X140927247Y-78759523D02*
X141003438Y-78797618D01*
X141003438Y-78797618D02*
X141193914Y-78797618D01*
X141193914Y-78797618D02*
X141270104Y-78759523D01*
X141270104Y-78759523D02*
X141308200Y-78721428D01*
X141308200Y-78721428D02*
X141346295Y-78645237D01*
X141346295Y-78645237D02*
X141346295Y-78416666D01*
X141346295Y-78416666D02*
X141308200Y-78340475D01*
X141308200Y-78340475D02*
X141270104Y-78302380D01*
X140546295Y-79521428D02*
X140546295Y-79140476D01*
X140546295Y-79140476D02*
X140927247Y-79102380D01*
X140927247Y-79102380D02*
X140889152Y-79140476D01*
X140889152Y-79140476D02*
X140851057Y-79216666D01*
X140851057Y-79216666D02*
X140851057Y-79407142D01*
X140851057Y-79407142D02*
X140889152Y-79483333D01*
X140889152Y-79483333D02*
X140927247Y-79521428D01*
X140927247Y-79521428D02*
X141003438Y-79559523D01*
X141003438Y-79559523D02*
X141193914Y-79559523D01*
X141193914Y-79559523D02*
X141270104Y-79521428D01*
X141270104Y-79521428D02*
X141308200Y-79483333D01*
X141308200Y-79483333D02*
X141346295Y-79407142D01*
X141346295Y-79407142D02*
X141346295Y-79216666D01*
X141346295Y-79216666D02*
X141308200Y-79140476D01*
X141308200Y-79140476D02*
X141270104Y-79102380D01*
X145213104Y-81618714D02*
X145251200Y-81580618D01*
X145251200Y-81580618D02*
X145289295Y-81466333D01*
X145289295Y-81466333D02*
X145289295Y-81390142D01*
X145289295Y-81390142D02*
X145251200Y-81275856D01*
X145251200Y-81275856D02*
X145175009Y-81199666D01*
X145175009Y-81199666D02*
X145098819Y-81161571D01*
X145098819Y-81161571D02*
X144946438Y-81123475D01*
X144946438Y-81123475D02*
X144832152Y-81123475D01*
X144832152Y-81123475D02*
X144679771Y-81161571D01*
X144679771Y-81161571D02*
X144603580Y-81199666D01*
X144603580Y-81199666D02*
X144527390Y-81275856D01*
X144527390Y-81275856D02*
X144489295Y-81390142D01*
X144489295Y-81390142D02*
X144489295Y-81466333D01*
X144489295Y-81466333D02*
X144527390Y-81580618D01*
X144527390Y-81580618D02*
X144565485Y-81618714D01*
X144489295Y-82342523D02*
X144489295Y-81961571D01*
X144489295Y-81961571D02*
X144870247Y-81923475D01*
X144870247Y-81923475D02*
X144832152Y-81961571D01*
X144832152Y-81961571D02*
X144794057Y-82037761D01*
X144794057Y-82037761D02*
X144794057Y-82228237D01*
X144794057Y-82228237D02*
X144832152Y-82304428D01*
X144832152Y-82304428D02*
X144870247Y-82342523D01*
X144870247Y-82342523D02*
X144946438Y-82380618D01*
X144946438Y-82380618D02*
X145136914Y-82380618D01*
X145136914Y-82380618D02*
X145213104Y-82342523D01*
X145213104Y-82342523D02*
X145251200Y-82304428D01*
X145251200Y-82304428D02*
X145289295Y-82228237D01*
X145289295Y-82228237D02*
X145289295Y-82037761D01*
X145289295Y-82037761D02*
X145251200Y-81961571D01*
X145251200Y-81961571D02*
X145213104Y-81923475D01*
X144489295Y-82875857D02*
X144489295Y-82952047D01*
X144489295Y-82952047D02*
X144527390Y-83028238D01*
X144527390Y-83028238D02*
X144565485Y-83066333D01*
X144565485Y-83066333D02*
X144641676Y-83104428D01*
X144641676Y-83104428D02*
X144794057Y-83142523D01*
X144794057Y-83142523D02*
X144984533Y-83142523D01*
X144984533Y-83142523D02*
X145136914Y-83104428D01*
X145136914Y-83104428D02*
X145213104Y-83066333D01*
X145213104Y-83066333D02*
X145251200Y-83028238D01*
X145251200Y-83028238D02*
X145289295Y-82952047D01*
X145289295Y-82952047D02*
X145289295Y-82875857D01*
X145289295Y-82875857D02*
X145251200Y-82799666D01*
X145251200Y-82799666D02*
X145213104Y-82761571D01*
X145213104Y-82761571D02*
X145136914Y-82723476D01*
X145136914Y-82723476D02*
X144984533Y-82685380D01*
X144984533Y-82685380D02*
X144794057Y-82685380D01*
X144794057Y-82685380D02*
X144641676Y-82723476D01*
X144641676Y-82723476D02*
X144565485Y-82761571D01*
X144565485Y-82761571D02*
X144527390Y-82799666D01*
X144527390Y-82799666D02*
X144489295Y-82875857D01*
X122448285Y-88836104D02*
X122486381Y-88874200D01*
X122486381Y-88874200D02*
X122600666Y-88912295D01*
X122600666Y-88912295D02*
X122676857Y-88912295D01*
X122676857Y-88912295D02*
X122791143Y-88874200D01*
X122791143Y-88874200D02*
X122867333Y-88798009D01*
X122867333Y-88798009D02*
X122905428Y-88721819D01*
X122905428Y-88721819D02*
X122943524Y-88569438D01*
X122943524Y-88569438D02*
X122943524Y-88455152D01*
X122943524Y-88455152D02*
X122905428Y-88302771D01*
X122905428Y-88302771D02*
X122867333Y-88226580D01*
X122867333Y-88226580D02*
X122791143Y-88150390D01*
X122791143Y-88150390D02*
X122676857Y-88112295D01*
X122676857Y-88112295D02*
X122600666Y-88112295D01*
X122600666Y-88112295D02*
X122486381Y-88150390D01*
X122486381Y-88150390D02*
X122448285Y-88188485D01*
X121762571Y-88378961D02*
X121762571Y-88912295D01*
X121953047Y-88074200D02*
X122143524Y-88645628D01*
X122143524Y-88645628D02*
X121648285Y-88645628D01*
X120924476Y-88912295D02*
X121381619Y-88912295D01*
X121153047Y-88912295D02*
X121153047Y-88112295D01*
X121153047Y-88112295D02*
X121229238Y-88226580D01*
X121229238Y-88226580D02*
X121305428Y-88302771D01*
X121305428Y-88302771D02*
X121381619Y-88340866D01*
X162996295Y-83816667D02*
X162615342Y-83550000D01*
X162996295Y-83359524D02*
X162196295Y-83359524D01*
X162196295Y-83359524D02*
X162196295Y-83664286D01*
X162196295Y-83664286D02*
X162234390Y-83740476D01*
X162234390Y-83740476D02*
X162272485Y-83778571D01*
X162272485Y-83778571D02*
X162348676Y-83816667D01*
X162348676Y-83816667D02*
X162462961Y-83816667D01*
X162462961Y-83816667D02*
X162539152Y-83778571D01*
X162539152Y-83778571D02*
X162577247Y-83740476D01*
X162577247Y-83740476D02*
X162615342Y-83664286D01*
X162615342Y-83664286D02*
X162615342Y-83359524D01*
X162196295Y-84540476D02*
X162196295Y-84159524D01*
X162196295Y-84159524D02*
X162577247Y-84121428D01*
X162577247Y-84121428D02*
X162539152Y-84159524D01*
X162539152Y-84159524D02*
X162501057Y-84235714D01*
X162501057Y-84235714D02*
X162501057Y-84426190D01*
X162501057Y-84426190D02*
X162539152Y-84502381D01*
X162539152Y-84502381D02*
X162577247Y-84540476D01*
X162577247Y-84540476D02*
X162653438Y-84578571D01*
X162653438Y-84578571D02*
X162843914Y-84578571D01*
X162843914Y-84578571D02*
X162920104Y-84540476D01*
X162920104Y-84540476D02*
X162958200Y-84502381D01*
X162958200Y-84502381D02*
X162996295Y-84426190D01*
X162996295Y-84426190D02*
X162996295Y-84235714D01*
X162996295Y-84235714D02*
X162958200Y-84159524D01*
X162958200Y-84159524D02*
X162920104Y-84121428D01*
X160648285Y-87986104D02*
X160686381Y-88024200D01*
X160686381Y-88024200D02*
X160800666Y-88062295D01*
X160800666Y-88062295D02*
X160876857Y-88062295D01*
X160876857Y-88062295D02*
X160991143Y-88024200D01*
X160991143Y-88024200D02*
X161067333Y-87948009D01*
X161067333Y-87948009D02*
X161105428Y-87871819D01*
X161105428Y-87871819D02*
X161143524Y-87719438D01*
X161143524Y-87719438D02*
X161143524Y-87605152D01*
X161143524Y-87605152D02*
X161105428Y-87452771D01*
X161105428Y-87452771D02*
X161067333Y-87376580D01*
X161067333Y-87376580D02*
X160991143Y-87300390D01*
X160991143Y-87300390D02*
X160876857Y-87262295D01*
X160876857Y-87262295D02*
X160800666Y-87262295D01*
X160800666Y-87262295D02*
X160686381Y-87300390D01*
X160686381Y-87300390D02*
X160648285Y-87338485D01*
X159962571Y-87528961D02*
X159962571Y-88062295D01*
X160153047Y-87224200D02*
X160343524Y-87795628D01*
X160343524Y-87795628D02*
X159848285Y-87795628D01*
X159200666Y-87262295D02*
X159353047Y-87262295D01*
X159353047Y-87262295D02*
X159429238Y-87300390D01*
X159429238Y-87300390D02*
X159467333Y-87338485D01*
X159467333Y-87338485D02*
X159543523Y-87452771D01*
X159543523Y-87452771D02*
X159581619Y-87605152D01*
X159581619Y-87605152D02*
X159581619Y-87909914D01*
X159581619Y-87909914D02*
X159543523Y-87986104D01*
X159543523Y-87986104D02*
X159505428Y-88024200D01*
X159505428Y-88024200D02*
X159429238Y-88062295D01*
X159429238Y-88062295D02*
X159276857Y-88062295D01*
X159276857Y-88062295D02*
X159200666Y-88024200D01*
X159200666Y-88024200D02*
X159162571Y-87986104D01*
X159162571Y-87986104D02*
X159124476Y-87909914D01*
X159124476Y-87909914D02*
X159124476Y-87719438D01*
X159124476Y-87719438D02*
X159162571Y-87643247D01*
X159162571Y-87643247D02*
X159200666Y-87605152D01*
X159200666Y-87605152D02*
X159276857Y-87567057D01*
X159276857Y-87567057D02*
X159429238Y-87567057D01*
X159429238Y-87567057D02*
X159505428Y-87605152D01*
X159505428Y-87605152D02*
X159543523Y-87643247D01*
X159543523Y-87643247D02*
X159581619Y-87719438D01*
X173420104Y-78235714D02*
X173458200Y-78197618D01*
X173458200Y-78197618D02*
X173496295Y-78083333D01*
X173496295Y-78083333D02*
X173496295Y-78007142D01*
X173496295Y-78007142D02*
X173458200Y-77892856D01*
X173458200Y-77892856D02*
X173382009Y-77816666D01*
X173382009Y-77816666D02*
X173305819Y-77778571D01*
X173305819Y-77778571D02*
X173153438Y-77740475D01*
X173153438Y-77740475D02*
X173039152Y-77740475D01*
X173039152Y-77740475D02*
X172886771Y-77778571D01*
X172886771Y-77778571D02*
X172810580Y-77816666D01*
X172810580Y-77816666D02*
X172734390Y-77892856D01*
X172734390Y-77892856D02*
X172696295Y-78007142D01*
X172696295Y-78007142D02*
X172696295Y-78083333D01*
X172696295Y-78083333D02*
X172734390Y-78197618D01*
X172734390Y-78197618D02*
X172772485Y-78235714D01*
X172696295Y-78502380D02*
X172696295Y-78997618D01*
X172696295Y-78997618D02*
X173001057Y-78730952D01*
X173001057Y-78730952D02*
X173001057Y-78845237D01*
X173001057Y-78845237D02*
X173039152Y-78921428D01*
X173039152Y-78921428D02*
X173077247Y-78959523D01*
X173077247Y-78959523D02*
X173153438Y-78997618D01*
X173153438Y-78997618D02*
X173343914Y-78997618D01*
X173343914Y-78997618D02*
X173420104Y-78959523D01*
X173420104Y-78959523D02*
X173458200Y-78921428D01*
X173458200Y-78921428D02*
X173496295Y-78845237D01*
X173496295Y-78845237D02*
X173496295Y-78616666D01*
X173496295Y-78616666D02*
X173458200Y-78540475D01*
X173458200Y-78540475D02*
X173420104Y-78502380D01*
X173496295Y-79378571D02*
X173496295Y-79530952D01*
X173496295Y-79530952D02*
X173458200Y-79607142D01*
X173458200Y-79607142D02*
X173420104Y-79645238D01*
X173420104Y-79645238D02*
X173305819Y-79721428D01*
X173305819Y-79721428D02*
X173153438Y-79759523D01*
X173153438Y-79759523D02*
X172848676Y-79759523D01*
X172848676Y-79759523D02*
X172772485Y-79721428D01*
X172772485Y-79721428D02*
X172734390Y-79683333D01*
X172734390Y-79683333D02*
X172696295Y-79607142D01*
X172696295Y-79607142D02*
X172696295Y-79454761D01*
X172696295Y-79454761D02*
X172734390Y-79378571D01*
X172734390Y-79378571D02*
X172772485Y-79340476D01*
X172772485Y-79340476D02*
X172848676Y-79302380D01*
X172848676Y-79302380D02*
X173039152Y-79302380D01*
X173039152Y-79302380D02*
X173115342Y-79340476D01*
X173115342Y-79340476D02*
X173153438Y-79378571D01*
X173153438Y-79378571D02*
X173191533Y-79454761D01*
X173191533Y-79454761D02*
X173191533Y-79607142D01*
X173191533Y-79607142D02*
X173153438Y-79683333D01*
X173153438Y-79683333D02*
X173115342Y-79721428D01*
X173115342Y-79721428D02*
X173039152Y-79759523D01*
X155320104Y-78335714D02*
X155358200Y-78297618D01*
X155358200Y-78297618D02*
X155396295Y-78183333D01*
X155396295Y-78183333D02*
X155396295Y-78107142D01*
X155396295Y-78107142D02*
X155358200Y-77992856D01*
X155358200Y-77992856D02*
X155282009Y-77916666D01*
X155282009Y-77916666D02*
X155205819Y-77878571D01*
X155205819Y-77878571D02*
X155053438Y-77840475D01*
X155053438Y-77840475D02*
X154939152Y-77840475D01*
X154939152Y-77840475D02*
X154786771Y-77878571D01*
X154786771Y-77878571D02*
X154710580Y-77916666D01*
X154710580Y-77916666D02*
X154634390Y-77992856D01*
X154634390Y-77992856D02*
X154596295Y-78107142D01*
X154596295Y-78107142D02*
X154596295Y-78183333D01*
X154596295Y-78183333D02*
X154634390Y-78297618D01*
X154634390Y-78297618D02*
X154672485Y-78335714D01*
X155396295Y-79097618D02*
X155396295Y-78640475D01*
X155396295Y-78869047D02*
X154596295Y-78869047D01*
X154596295Y-78869047D02*
X154710580Y-78792856D01*
X154710580Y-78792856D02*
X154786771Y-78716666D01*
X154786771Y-78716666D02*
X154824866Y-78640475D01*
X155396295Y-79478571D02*
X155396295Y-79630952D01*
X155396295Y-79630952D02*
X155358200Y-79707142D01*
X155358200Y-79707142D02*
X155320104Y-79745238D01*
X155320104Y-79745238D02*
X155205819Y-79821428D01*
X155205819Y-79821428D02*
X155053438Y-79859523D01*
X155053438Y-79859523D02*
X154748676Y-79859523D01*
X154748676Y-79859523D02*
X154672485Y-79821428D01*
X154672485Y-79821428D02*
X154634390Y-79783333D01*
X154634390Y-79783333D02*
X154596295Y-79707142D01*
X154596295Y-79707142D02*
X154596295Y-79554761D01*
X154596295Y-79554761D02*
X154634390Y-79478571D01*
X154634390Y-79478571D02*
X154672485Y-79440476D01*
X154672485Y-79440476D02*
X154748676Y-79402380D01*
X154748676Y-79402380D02*
X154939152Y-79402380D01*
X154939152Y-79402380D02*
X155015342Y-79440476D01*
X155015342Y-79440476D02*
X155053438Y-79478571D01*
X155053438Y-79478571D02*
X155091533Y-79554761D01*
X155091533Y-79554761D02*
X155091533Y-79707142D01*
X155091533Y-79707142D02*
X155053438Y-79783333D01*
X155053438Y-79783333D02*
X155015342Y-79821428D01*
X155015342Y-79821428D02*
X154939152Y-79859523D01*
X159320104Y-78235714D02*
X159358200Y-78197618D01*
X159358200Y-78197618D02*
X159396295Y-78083333D01*
X159396295Y-78083333D02*
X159396295Y-78007142D01*
X159396295Y-78007142D02*
X159358200Y-77892856D01*
X159358200Y-77892856D02*
X159282009Y-77816666D01*
X159282009Y-77816666D02*
X159205819Y-77778571D01*
X159205819Y-77778571D02*
X159053438Y-77740475D01*
X159053438Y-77740475D02*
X158939152Y-77740475D01*
X158939152Y-77740475D02*
X158786771Y-77778571D01*
X158786771Y-77778571D02*
X158710580Y-77816666D01*
X158710580Y-77816666D02*
X158634390Y-77892856D01*
X158634390Y-77892856D02*
X158596295Y-78007142D01*
X158596295Y-78007142D02*
X158596295Y-78083333D01*
X158596295Y-78083333D02*
X158634390Y-78197618D01*
X158634390Y-78197618D02*
X158672485Y-78235714D01*
X158596295Y-78502380D02*
X158596295Y-78997618D01*
X158596295Y-78997618D02*
X158901057Y-78730952D01*
X158901057Y-78730952D02*
X158901057Y-78845237D01*
X158901057Y-78845237D02*
X158939152Y-78921428D01*
X158939152Y-78921428D02*
X158977247Y-78959523D01*
X158977247Y-78959523D02*
X159053438Y-78997618D01*
X159053438Y-78997618D02*
X159243914Y-78997618D01*
X159243914Y-78997618D02*
X159320104Y-78959523D01*
X159320104Y-78959523D02*
X159358200Y-78921428D01*
X159358200Y-78921428D02*
X159396295Y-78845237D01*
X159396295Y-78845237D02*
X159396295Y-78616666D01*
X159396295Y-78616666D02*
X159358200Y-78540475D01*
X159358200Y-78540475D02*
X159320104Y-78502380D01*
X158596295Y-79492857D02*
X158596295Y-79569047D01*
X158596295Y-79569047D02*
X158634390Y-79645238D01*
X158634390Y-79645238D02*
X158672485Y-79683333D01*
X158672485Y-79683333D02*
X158748676Y-79721428D01*
X158748676Y-79721428D02*
X158901057Y-79759523D01*
X158901057Y-79759523D02*
X159091533Y-79759523D01*
X159091533Y-79759523D02*
X159243914Y-79721428D01*
X159243914Y-79721428D02*
X159320104Y-79683333D01*
X159320104Y-79683333D02*
X159358200Y-79645238D01*
X159358200Y-79645238D02*
X159396295Y-79569047D01*
X159396295Y-79569047D02*
X159396295Y-79492857D01*
X159396295Y-79492857D02*
X159358200Y-79416666D01*
X159358200Y-79416666D02*
X159320104Y-79378571D01*
X159320104Y-79378571D02*
X159243914Y-79340476D01*
X159243914Y-79340476D02*
X159091533Y-79302380D01*
X159091533Y-79302380D02*
X158901057Y-79302380D01*
X158901057Y-79302380D02*
X158748676Y-79340476D01*
X158748676Y-79340476D02*
X158672485Y-79378571D01*
X158672485Y-79378571D02*
X158634390Y-79416666D01*
X158634390Y-79416666D02*
X158596295Y-79492857D01*
X171420104Y-78135714D02*
X171458200Y-78097618D01*
X171458200Y-78097618D02*
X171496295Y-77983333D01*
X171496295Y-77983333D02*
X171496295Y-77907142D01*
X171496295Y-77907142D02*
X171458200Y-77792856D01*
X171458200Y-77792856D02*
X171382009Y-77716666D01*
X171382009Y-77716666D02*
X171305819Y-77678571D01*
X171305819Y-77678571D02*
X171153438Y-77640475D01*
X171153438Y-77640475D02*
X171039152Y-77640475D01*
X171039152Y-77640475D02*
X170886771Y-77678571D01*
X170886771Y-77678571D02*
X170810580Y-77716666D01*
X170810580Y-77716666D02*
X170734390Y-77792856D01*
X170734390Y-77792856D02*
X170696295Y-77907142D01*
X170696295Y-77907142D02*
X170696295Y-77983333D01*
X170696295Y-77983333D02*
X170734390Y-78097618D01*
X170734390Y-78097618D02*
X170772485Y-78135714D01*
X171496295Y-78897618D02*
X171496295Y-78440475D01*
X171496295Y-78669047D02*
X170696295Y-78669047D01*
X170696295Y-78669047D02*
X170810580Y-78592856D01*
X170810580Y-78592856D02*
X170886771Y-78516666D01*
X170886771Y-78516666D02*
X170924866Y-78440475D01*
X170696295Y-79164285D02*
X170696295Y-79697619D01*
X170696295Y-79697619D02*
X171496295Y-79354761D01*
X125683085Y-86701704D02*
X125721181Y-86739800D01*
X125721181Y-86739800D02*
X125835466Y-86777895D01*
X125835466Y-86777895D02*
X125911657Y-86777895D01*
X125911657Y-86777895D02*
X126025943Y-86739800D01*
X126025943Y-86739800D02*
X126102133Y-86663609D01*
X126102133Y-86663609D02*
X126140228Y-86587419D01*
X126140228Y-86587419D02*
X126178324Y-86435038D01*
X126178324Y-86435038D02*
X126178324Y-86320752D01*
X126178324Y-86320752D02*
X126140228Y-86168371D01*
X126140228Y-86168371D02*
X126102133Y-86092180D01*
X126102133Y-86092180D02*
X126025943Y-86015990D01*
X126025943Y-86015990D02*
X125911657Y-85977895D01*
X125911657Y-85977895D02*
X125835466Y-85977895D01*
X125835466Y-85977895D02*
X125721181Y-86015990D01*
X125721181Y-86015990D02*
X125683085Y-86054085D01*
X124997371Y-86244561D02*
X124997371Y-86777895D01*
X125187847Y-85939800D02*
X125378324Y-86511228D01*
X125378324Y-86511228D02*
X124883085Y-86511228D01*
X124540228Y-86777895D02*
X124387847Y-86777895D01*
X124387847Y-86777895D02*
X124311657Y-86739800D01*
X124311657Y-86739800D02*
X124273561Y-86701704D01*
X124273561Y-86701704D02*
X124197371Y-86587419D01*
X124197371Y-86587419D02*
X124159276Y-86435038D01*
X124159276Y-86435038D02*
X124159276Y-86130276D01*
X124159276Y-86130276D02*
X124197371Y-86054085D01*
X124197371Y-86054085D02*
X124235466Y-86015990D01*
X124235466Y-86015990D02*
X124311657Y-85977895D01*
X124311657Y-85977895D02*
X124464038Y-85977895D01*
X124464038Y-85977895D02*
X124540228Y-86015990D01*
X124540228Y-86015990D02*
X124578323Y-86054085D01*
X124578323Y-86054085D02*
X124616419Y-86130276D01*
X124616419Y-86130276D02*
X124616419Y-86320752D01*
X124616419Y-86320752D02*
X124578323Y-86396942D01*
X124578323Y-86396942D02*
X124540228Y-86435038D01*
X124540228Y-86435038D02*
X124464038Y-86473133D01*
X124464038Y-86473133D02*
X124311657Y-86473133D01*
X124311657Y-86473133D02*
X124235466Y-86435038D01*
X124235466Y-86435038D02*
X124197371Y-86396942D01*
X124197371Y-86396942D02*
X124159276Y-86320752D01*
X151320104Y-76335714D02*
X151358200Y-76297618D01*
X151358200Y-76297618D02*
X151396295Y-76183333D01*
X151396295Y-76183333D02*
X151396295Y-76107142D01*
X151396295Y-76107142D02*
X151358200Y-75992856D01*
X151358200Y-75992856D02*
X151282009Y-75916666D01*
X151282009Y-75916666D02*
X151205819Y-75878571D01*
X151205819Y-75878571D02*
X151053438Y-75840475D01*
X151053438Y-75840475D02*
X150939152Y-75840475D01*
X150939152Y-75840475D02*
X150786771Y-75878571D01*
X150786771Y-75878571D02*
X150710580Y-75916666D01*
X150710580Y-75916666D02*
X150634390Y-75992856D01*
X150634390Y-75992856D02*
X150596295Y-76107142D01*
X150596295Y-76107142D02*
X150596295Y-76183333D01*
X150596295Y-76183333D02*
X150634390Y-76297618D01*
X150634390Y-76297618D02*
X150672485Y-76335714D01*
X150862961Y-77021428D02*
X151396295Y-77021428D01*
X150558200Y-76830952D02*
X151129628Y-76640475D01*
X151129628Y-76640475D02*
X151129628Y-77135714D01*
X150596295Y-77592857D02*
X150596295Y-77669047D01*
X150596295Y-77669047D02*
X150634390Y-77745238D01*
X150634390Y-77745238D02*
X150672485Y-77783333D01*
X150672485Y-77783333D02*
X150748676Y-77821428D01*
X150748676Y-77821428D02*
X150901057Y-77859523D01*
X150901057Y-77859523D02*
X151091533Y-77859523D01*
X151091533Y-77859523D02*
X151243914Y-77821428D01*
X151243914Y-77821428D02*
X151320104Y-77783333D01*
X151320104Y-77783333D02*
X151358200Y-77745238D01*
X151358200Y-77745238D02*
X151396295Y-77669047D01*
X151396295Y-77669047D02*
X151396295Y-77592857D01*
X151396295Y-77592857D02*
X151358200Y-77516666D01*
X151358200Y-77516666D02*
X151320104Y-77478571D01*
X151320104Y-77478571D02*
X151243914Y-77440476D01*
X151243914Y-77440476D02*
X151091533Y-77402380D01*
X151091533Y-77402380D02*
X150901057Y-77402380D01*
X150901057Y-77402380D02*
X150748676Y-77440476D01*
X150748676Y-77440476D02*
X150672485Y-77478571D01*
X150672485Y-77478571D02*
X150634390Y-77516666D01*
X150634390Y-77516666D02*
X150596295Y-77592857D01*
X151748285Y-84036104D02*
X151786381Y-84074200D01*
X151786381Y-84074200D02*
X151900666Y-84112295D01*
X151900666Y-84112295D02*
X151976857Y-84112295D01*
X151976857Y-84112295D02*
X152091143Y-84074200D01*
X152091143Y-84074200D02*
X152167333Y-83998009D01*
X152167333Y-83998009D02*
X152205428Y-83921819D01*
X152205428Y-83921819D02*
X152243524Y-83769438D01*
X152243524Y-83769438D02*
X152243524Y-83655152D01*
X152243524Y-83655152D02*
X152205428Y-83502771D01*
X152205428Y-83502771D02*
X152167333Y-83426580D01*
X152167333Y-83426580D02*
X152091143Y-83350390D01*
X152091143Y-83350390D02*
X151976857Y-83312295D01*
X151976857Y-83312295D02*
X151900666Y-83312295D01*
X151900666Y-83312295D02*
X151786381Y-83350390D01*
X151786381Y-83350390D02*
X151748285Y-83388485D01*
X151443524Y-83388485D02*
X151405428Y-83350390D01*
X151405428Y-83350390D02*
X151329238Y-83312295D01*
X151329238Y-83312295D02*
X151138762Y-83312295D01*
X151138762Y-83312295D02*
X151062571Y-83350390D01*
X151062571Y-83350390D02*
X151024476Y-83388485D01*
X151024476Y-83388485D02*
X150986381Y-83464676D01*
X150986381Y-83464676D02*
X150986381Y-83540866D01*
X150986381Y-83540866D02*
X151024476Y-83655152D01*
X151024476Y-83655152D02*
X151481619Y-84112295D01*
X151481619Y-84112295D02*
X150986381Y-84112295D01*
X150719714Y-83312295D02*
X150186380Y-83312295D01*
X150186380Y-83312295D02*
X150529238Y-84112295D01*
X131170104Y-81502714D02*
X131208200Y-81464618D01*
X131208200Y-81464618D02*
X131246295Y-81350333D01*
X131246295Y-81350333D02*
X131246295Y-81274142D01*
X131246295Y-81274142D02*
X131208200Y-81159856D01*
X131208200Y-81159856D02*
X131132009Y-81083666D01*
X131132009Y-81083666D02*
X131055819Y-81045571D01*
X131055819Y-81045571D02*
X130903438Y-81007475D01*
X130903438Y-81007475D02*
X130789152Y-81007475D01*
X130789152Y-81007475D02*
X130636771Y-81045571D01*
X130636771Y-81045571D02*
X130560580Y-81083666D01*
X130560580Y-81083666D02*
X130484390Y-81159856D01*
X130484390Y-81159856D02*
X130446295Y-81274142D01*
X130446295Y-81274142D02*
X130446295Y-81350333D01*
X130446295Y-81350333D02*
X130484390Y-81464618D01*
X130484390Y-81464618D02*
X130522485Y-81502714D01*
X130522485Y-81807475D02*
X130484390Y-81845571D01*
X130484390Y-81845571D02*
X130446295Y-81921761D01*
X130446295Y-81921761D02*
X130446295Y-82112237D01*
X130446295Y-82112237D02*
X130484390Y-82188428D01*
X130484390Y-82188428D02*
X130522485Y-82226523D01*
X130522485Y-82226523D02*
X130598676Y-82264618D01*
X130598676Y-82264618D02*
X130674866Y-82264618D01*
X130674866Y-82264618D02*
X130789152Y-82226523D01*
X130789152Y-82226523D02*
X131246295Y-81769380D01*
X131246295Y-81769380D02*
X131246295Y-82264618D01*
X130446295Y-82759857D02*
X130446295Y-82836047D01*
X130446295Y-82836047D02*
X130484390Y-82912238D01*
X130484390Y-82912238D02*
X130522485Y-82950333D01*
X130522485Y-82950333D02*
X130598676Y-82988428D01*
X130598676Y-82988428D02*
X130751057Y-83026523D01*
X130751057Y-83026523D02*
X130941533Y-83026523D01*
X130941533Y-83026523D02*
X131093914Y-82988428D01*
X131093914Y-82988428D02*
X131170104Y-82950333D01*
X131170104Y-82950333D02*
X131208200Y-82912238D01*
X131208200Y-82912238D02*
X131246295Y-82836047D01*
X131246295Y-82836047D02*
X131246295Y-82759857D01*
X131246295Y-82759857D02*
X131208200Y-82683666D01*
X131208200Y-82683666D02*
X131170104Y-82645571D01*
X131170104Y-82645571D02*
X131093914Y-82607476D01*
X131093914Y-82607476D02*
X130941533Y-82569380D01*
X130941533Y-82569380D02*
X130751057Y-82569380D01*
X130751057Y-82569380D02*
X130598676Y-82607476D01*
X130598676Y-82607476D02*
X130522485Y-82645571D01*
X130522485Y-82645571D02*
X130484390Y-82683666D01*
X130484390Y-82683666D02*
X130446295Y-82759857D01*
X147996295Y-84416667D02*
X147615342Y-84150000D01*
X147996295Y-83959524D02*
X147196295Y-83959524D01*
X147196295Y-83959524D02*
X147196295Y-84264286D01*
X147196295Y-84264286D02*
X147234390Y-84340476D01*
X147234390Y-84340476D02*
X147272485Y-84378571D01*
X147272485Y-84378571D02*
X147348676Y-84416667D01*
X147348676Y-84416667D02*
X147462961Y-84416667D01*
X147462961Y-84416667D02*
X147539152Y-84378571D01*
X147539152Y-84378571D02*
X147577247Y-84340476D01*
X147577247Y-84340476D02*
X147615342Y-84264286D01*
X147615342Y-84264286D02*
X147615342Y-83959524D01*
X147462961Y-85102381D02*
X147996295Y-85102381D01*
X147158200Y-84911905D02*
X147729628Y-84721428D01*
X147729628Y-84721428D02*
X147729628Y-85216667D01*
X125648285Y-84364904D02*
X125686381Y-84403000D01*
X125686381Y-84403000D02*
X125800666Y-84441095D01*
X125800666Y-84441095D02*
X125876857Y-84441095D01*
X125876857Y-84441095D02*
X125991143Y-84403000D01*
X125991143Y-84403000D02*
X126067333Y-84326809D01*
X126067333Y-84326809D02*
X126105428Y-84250619D01*
X126105428Y-84250619D02*
X126143524Y-84098238D01*
X126143524Y-84098238D02*
X126143524Y-83983952D01*
X126143524Y-83983952D02*
X126105428Y-83831571D01*
X126105428Y-83831571D02*
X126067333Y-83755380D01*
X126067333Y-83755380D02*
X125991143Y-83679190D01*
X125991143Y-83679190D02*
X125876857Y-83641095D01*
X125876857Y-83641095D02*
X125800666Y-83641095D01*
X125800666Y-83641095D02*
X125686381Y-83679190D01*
X125686381Y-83679190D02*
X125648285Y-83717285D01*
X124886381Y-84441095D02*
X125343524Y-84441095D01*
X125114952Y-84441095D02*
X125114952Y-83641095D01*
X125114952Y-83641095D02*
X125191143Y-83755380D01*
X125191143Y-83755380D02*
X125267333Y-83831571D01*
X125267333Y-83831571D02*
X125343524Y-83869666D01*
X124429238Y-83983952D02*
X124505428Y-83945857D01*
X124505428Y-83945857D02*
X124543523Y-83907761D01*
X124543523Y-83907761D02*
X124581619Y-83831571D01*
X124581619Y-83831571D02*
X124581619Y-83793476D01*
X124581619Y-83793476D02*
X124543523Y-83717285D01*
X124543523Y-83717285D02*
X124505428Y-83679190D01*
X124505428Y-83679190D02*
X124429238Y-83641095D01*
X124429238Y-83641095D02*
X124276857Y-83641095D01*
X124276857Y-83641095D02*
X124200666Y-83679190D01*
X124200666Y-83679190D02*
X124162571Y-83717285D01*
X124162571Y-83717285D02*
X124124476Y-83793476D01*
X124124476Y-83793476D02*
X124124476Y-83831571D01*
X124124476Y-83831571D02*
X124162571Y-83907761D01*
X124162571Y-83907761D02*
X124200666Y-83945857D01*
X124200666Y-83945857D02*
X124276857Y-83983952D01*
X124276857Y-83983952D02*
X124429238Y-83983952D01*
X124429238Y-83983952D02*
X124505428Y-84022047D01*
X124505428Y-84022047D02*
X124543523Y-84060142D01*
X124543523Y-84060142D02*
X124581619Y-84136333D01*
X124581619Y-84136333D02*
X124581619Y-84288714D01*
X124581619Y-84288714D02*
X124543523Y-84364904D01*
X124543523Y-84364904D02*
X124505428Y-84403000D01*
X124505428Y-84403000D02*
X124429238Y-84441095D01*
X124429238Y-84441095D02*
X124276857Y-84441095D01*
X124276857Y-84441095D02*
X124200666Y-84403000D01*
X124200666Y-84403000D02*
X124162571Y-84364904D01*
X124162571Y-84364904D02*
X124124476Y-84288714D01*
X124124476Y-84288714D02*
X124124476Y-84136333D01*
X124124476Y-84136333D02*
X124162571Y-84060142D01*
X124162571Y-84060142D02*
X124200666Y-84022047D01*
X124200666Y-84022047D02*
X124276857Y-83983952D01*
X137620104Y-81435714D02*
X137658200Y-81397618D01*
X137658200Y-81397618D02*
X137696295Y-81283333D01*
X137696295Y-81283333D02*
X137696295Y-81207142D01*
X137696295Y-81207142D02*
X137658200Y-81092856D01*
X137658200Y-81092856D02*
X137582009Y-81016666D01*
X137582009Y-81016666D02*
X137505819Y-80978571D01*
X137505819Y-80978571D02*
X137353438Y-80940475D01*
X137353438Y-80940475D02*
X137239152Y-80940475D01*
X137239152Y-80940475D02*
X137086771Y-80978571D01*
X137086771Y-80978571D02*
X137010580Y-81016666D01*
X137010580Y-81016666D02*
X136934390Y-81092856D01*
X136934390Y-81092856D02*
X136896295Y-81207142D01*
X136896295Y-81207142D02*
X136896295Y-81283333D01*
X136896295Y-81283333D02*
X136934390Y-81397618D01*
X136934390Y-81397618D02*
X136972485Y-81435714D01*
X136896295Y-81702380D02*
X136896295Y-82197618D01*
X136896295Y-82197618D02*
X137201057Y-81930952D01*
X137201057Y-81930952D02*
X137201057Y-82045237D01*
X137201057Y-82045237D02*
X137239152Y-82121428D01*
X137239152Y-82121428D02*
X137277247Y-82159523D01*
X137277247Y-82159523D02*
X137353438Y-82197618D01*
X137353438Y-82197618D02*
X137543914Y-82197618D01*
X137543914Y-82197618D02*
X137620104Y-82159523D01*
X137620104Y-82159523D02*
X137658200Y-82121428D01*
X137658200Y-82121428D02*
X137696295Y-82045237D01*
X137696295Y-82045237D02*
X137696295Y-81816666D01*
X137696295Y-81816666D02*
X137658200Y-81740475D01*
X137658200Y-81740475D02*
X137620104Y-81702380D01*
X137696295Y-82959523D02*
X137696295Y-82502380D01*
X137696295Y-82730952D02*
X136896295Y-82730952D01*
X136896295Y-82730952D02*
X137010580Y-82654761D01*
X137010580Y-82654761D02*
X137086771Y-82578571D01*
X137086771Y-82578571D02*
X137124866Y-82502380D01*
X135348285Y-77536104D02*
X135386381Y-77574200D01*
X135386381Y-77574200D02*
X135500666Y-77612295D01*
X135500666Y-77612295D02*
X135576857Y-77612295D01*
X135576857Y-77612295D02*
X135691143Y-77574200D01*
X135691143Y-77574200D02*
X135767333Y-77498009D01*
X135767333Y-77498009D02*
X135805428Y-77421819D01*
X135805428Y-77421819D02*
X135843524Y-77269438D01*
X135843524Y-77269438D02*
X135843524Y-77155152D01*
X135843524Y-77155152D02*
X135805428Y-77002771D01*
X135805428Y-77002771D02*
X135767333Y-76926580D01*
X135767333Y-76926580D02*
X135691143Y-76850390D01*
X135691143Y-76850390D02*
X135576857Y-76812295D01*
X135576857Y-76812295D02*
X135500666Y-76812295D01*
X135500666Y-76812295D02*
X135386381Y-76850390D01*
X135386381Y-76850390D02*
X135348285Y-76888485D01*
X134586381Y-77612295D02*
X135043524Y-77612295D01*
X134814952Y-77612295D02*
X134814952Y-76812295D01*
X134814952Y-76812295D02*
X134891143Y-76926580D01*
X134891143Y-76926580D02*
X134967333Y-77002771D01*
X134967333Y-77002771D02*
X135043524Y-77040866D01*
X134281619Y-76888485D02*
X134243523Y-76850390D01*
X134243523Y-76850390D02*
X134167333Y-76812295D01*
X134167333Y-76812295D02*
X133976857Y-76812295D01*
X133976857Y-76812295D02*
X133900666Y-76850390D01*
X133900666Y-76850390D02*
X133862571Y-76888485D01*
X133862571Y-76888485D02*
X133824476Y-76964676D01*
X133824476Y-76964676D02*
X133824476Y-77040866D01*
X133824476Y-77040866D02*
X133862571Y-77155152D01*
X133862571Y-77155152D02*
X134319714Y-77612295D01*
X134319714Y-77612295D02*
X133824476Y-77612295D01*
X115817332Y-77236104D02*
X115855428Y-77274200D01*
X115855428Y-77274200D02*
X115969713Y-77312295D01*
X115969713Y-77312295D02*
X116045904Y-77312295D01*
X116045904Y-77312295D02*
X116160190Y-77274200D01*
X116160190Y-77274200D02*
X116236380Y-77198009D01*
X116236380Y-77198009D02*
X116274475Y-77121819D01*
X116274475Y-77121819D02*
X116312571Y-76969438D01*
X116312571Y-76969438D02*
X116312571Y-76855152D01*
X116312571Y-76855152D02*
X116274475Y-76702771D01*
X116274475Y-76702771D02*
X116236380Y-76626580D01*
X116236380Y-76626580D02*
X116160190Y-76550390D01*
X116160190Y-76550390D02*
X116045904Y-76512295D01*
X116045904Y-76512295D02*
X115969713Y-76512295D01*
X115969713Y-76512295D02*
X115855428Y-76550390D01*
X115855428Y-76550390D02*
X115817332Y-76588485D01*
X115550666Y-76512295D02*
X115017332Y-76512295D01*
X115017332Y-76512295D02*
X115360190Y-77312295D01*
X110670332Y-92256295D02*
X110936999Y-91875342D01*
X111127475Y-92256295D02*
X111127475Y-91456295D01*
X111127475Y-91456295D02*
X110822713Y-91456295D01*
X110822713Y-91456295D02*
X110746523Y-91494390D01*
X110746523Y-91494390D02*
X110708428Y-91532485D01*
X110708428Y-91532485D02*
X110670332Y-91608676D01*
X110670332Y-91608676D02*
X110670332Y-91722961D01*
X110670332Y-91722961D02*
X110708428Y-91799152D01*
X110708428Y-91799152D02*
X110746523Y-91837247D01*
X110746523Y-91837247D02*
X110822713Y-91875342D01*
X110822713Y-91875342D02*
X111127475Y-91875342D01*
X110365571Y-91532485D02*
X110327475Y-91494390D01*
X110327475Y-91494390D02*
X110251285Y-91456295D01*
X110251285Y-91456295D02*
X110060809Y-91456295D01*
X110060809Y-91456295D02*
X109984618Y-91494390D01*
X109984618Y-91494390D02*
X109946523Y-91532485D01*
X109946523Y-91532485D02*
X109908428Y-91608676D01*
X109908428Y-91608676D02*
X109908428Y-91684866D01*
X109908428Y-91684866D02*
X109946523Y-91799152D01*
X109946523Y-91799152D02*
X110403666Y-92256295D01*
X110403666Y-92256295D02*
X109908428Y-92256295D01*
X161327104Y-81735714D02*
X161365200Y-81697618D01*
X161365200Y-81697618D02*
X161403295Y-81583333D01*
X161403295Y-81583333D02*
X161403295Y-81507142D01*
X161403295Y-81507142D02*
X161365200Y-81392856D01*
X161365200Y-81392856D02*
X161289009Y-81316666D01*
X161289009Y-81316666D02*
X161212819Y-81278571D01*
X161212819Y-81278571D02*
X161060438Y-81240475D01*
X161060438Y-81240475D02*
X160946152Y-81240475D01*
X160946152Y-81240475D02*
X160793771Y-81278571D01*
X160793771Y-81278571D02*
X160717580Y-81316666D01*
X160717580Y-81316666D02*
X160641390Y-81392856D01*
X160641390Y-81392856D02*
X160603295Y-81507142D01*
X160603295Y-81507142D02*
X160603295Y-81583333D01*
X160603295Y-81583333D02*
X160641390Y-81697618D01*
X160641390Y-81697618D02*
X160679485Y-81735714D01*
X160603295Y-82459523D02*
X160603295Y-82078571D01*
X160603295Y-82078571D02*
X160984247Y-82040475D01*
X160984247Y-82040475D02*
X160946152Y-82078571D01*
X160946152Y-82078571D02*
X160908057Y-82154761D01*
X160908057Y-82154761D02*
X160908057Y-82345237D01*
X160908057Y-82345237D02*
X160946152Y-82421428D01*
X160946152Y-82421428D02*
X160984247Y-82459523D01*
X160984247Y-82459523D02*
X161060438Y-82497618D01*
X161060438Y-82497618D02*
X161250914Y-82497618D01*
X161250914Y-82497618D02*
X161327104Y-82459523D01*
X161327104Y-82459523D02*
X161365200Y-82421428D01*
X161365200Y-82421428D02*
X161403295Y-82345237D01*
X161403295Y-82345237D02*
X161403295Y-82154761D01*
X161403295Y-82154761D02*
X161365200Y-82078571D01*
X161365200Y-82078571D02*
X161327104Y-82040475D01*
X160603295Y-83221428D02*
X160603295Y-82840476D01*
X160603295Y-82840476D02*
X160984247Y-82802380D01*
X160984247Y-82802380D02*
X160946152Y-82840476D01*
X160946152Y-82840476D02*
X160908057Y-82916666D01*
X160908057Y-82916666D02*
X160908057Y-83107142D01*
X160908057Y-83107142D02*
X160946152Y-83183333D01*
X160946152Y-83183333D02*
X160984247Y-83221428D01*
X160984247Y-83221428D02*
X161060438Y-83259523D01*
X161060438Y-83259523D02*
X161250914Y-83259523D01*
X161250914Y-83259523D02*
X161327104Y-83221428D01*
X161327104Y-83221428D02*
X161365200Y-83183333D01*
X161365200Y-83183333D02*
X161403295Y-83107142D01*
X161403295Y-83107142D02*
X161403295Y-82916666D01*
X161403295Y-82916666D02*
X161365200Y-82840476D01*
X161365200Y-82840476D02*
X161327104Y-82802380D01*
X127220104Y-78035714D02*
X127258200Y-77997618D01*
X127258200Y-77997618D02*
X127296295Y-77883333D01*
X127296295Y-77883333D02*
X127296295Y-77807142D01*
X127296295Y-77807142D02*
X127258200Y-77692856D01*
X127258200Y-77692856D02*
X127182009Y-77616666D01*
X127182009Y-77616666D02*
X127105819Y-77578571D01*
X127105819Y-77578571D02*
X126953438Y-77540475D01*
X126953438Y-77540475D02*
X126839152Y-77540475D01*
X126839152Y-77540475D02*
X126686771Y-77578571D01*
X126686771Y-77578571D02*
X126610580Y-77616666D01*
X126610580Y-77616666D02*
X126534390Y-77692856D01*
X126534390Y-77692856D02*
X126496295Y-77807142D01*
X126496295Y-77807142D02*
X126496295Y-77883333D01*
X126496295Y-77883333D02*
X126534390Y-77997618D01*
X126534390Y-77997618D02*
X126572485Y-78035714D01*
X127296295Y-78797618D02*
X127296295Y-78340475D01*
X127296295Y-78569047D02*
X126496295Y-78569047D01*
X126496295Y-78569047D02*
X126610580Y-78492856D01*
X126610580Y-78492856D02*
X126686771Y-78416666D01*
X126686771Y-78416666D02*
X126724866Y-78340475D01*
X126496295Y-79064285D02*
X126496295Y-79559523D01*
X126496295Y-79559523D02*
X126801057Y-79292857D01*
X126801057Y-79292857D02*
X126801057Y-79407142D01*
X126801057Y-79407142D02*
X126839152Y-79483333D01*
X126839152Y-79483333D02*
X126877247Y-79521428D01*
X126877247Y-79521428D02*
X126953438Y-79559523D01*
X126953438Y-79559523D02*
X127143914Y-79559523D01*
X127143914Y-79559523D02*
X127220104Y-79521428D01*
X127220104Y-79521428D02*
X127258200Y-79483333D01*
X127258200Y-79483333D02*
X127296295Y-79407142D01*
X127296295Y-79407142D02*
X127296295Y-79178571D01*
X127296295Y-79178571D02*
X127258200Y-79102380D01*
X127258200Y-79102380D02*
X127220104Y-79064285D01*
X125220104Y-77935714D02*
X125258200Y-77897618D01*
X125258200Y-77897618D02*
X125296295Y-77783333D01*
X125296295Y-77783333D02*
X125296295Y-77707142D01*
X125296295Y-77707142D02*
X125258200Y-77592856D01*
X125258200Y-77592856D02*
X125182009Y-77516666D01*
X125182009Y-77516666D02*
X125105819Y-77478571D01*
X125105819Y-77478571D02*
X124953438Y-77440475D01*
X124953438Y-77440475D02*
X124839152Y-77440475D01*
X124839152Y-77440475D02*
X124686771Y-77478571D01*
X124686771Y-77478571D02*
X124610580Y-77516666D01*
X124610580Y-77516666D02*
X124534390Y-77592856D01*
X124534390Y-77592856D02*
X124496295Y-77707142D01*
X124496295Y-77707142D02*
X124496295Y-77783333D01*
X124496295Y-77783333D02*
X124534390Y-77897618D01*
X124534390Y-77897618D02*
X124572485Y-77935714D01*
X124496295Y-78202380D02*
X124496295Y-78697618D01*
X124496295Y-78697618D02*
X124801057Y-78430952D01*
X124801057Y-78430952D02*
X124801057Y-78545237D01*
X124801057Y-78545237D02*
X124839152Y-78621428D01*
X124839152Y-78621428D02*
X124877247Y-78659523D01*
X124877247Y-78659523D02*
X124953438Y-78697618D01*
X124953438Y-78697618D02*
X125143914Y-78697618D01*
X125143914Y-78697618D02*
X125220104Y-78659523D01*
X125220104Y-78659523D02*
X125258200Y-78621428D01*
X125258200Y-78621428D02*
X125296295Y-78545237D01*
X125296295Y-78545237D02*
X125296295Y-78316666D01*
X125296295Y-78316666D02*
X125258200Y-78240475D01*
X125258200Y-78240475D02*
X125220104Y-78202380D01*
X124496295Y-78964285D02*
X124496295Y-79459523D01*
X124496295Y-79459523D02*
X124801057Y-79192857D01*
X124801057Y-79192857D02*
X124801057Y-79307142D01*
X124801057Y-79307142D02*
X124839152Y-79383333D01*
X124839152Y-79383333D02*
X124877247Y-79421428D01*
X124877247Y-79421428D02*
X124953438Y-79459523D01*
X124953438Y-79459523D02*
X125143914Y-79459523D01*
X125143914Y-79459523D02*
X125220104Y-79421428D01*
X125220104Y-79421428D02*
X125258200Y-79383333D01*
X125258200Y-79383333D02*
X125296295Y-79307142D01*
X125296295Y-79307142D02*
X125296295Y-79078571D01*
X125296295Y-79078571D02*
X125258200Y-79002380D01*
X125258200Y-79002380D02*
X125220104Y-78964285D01*
X153420104Y-76235714D02*
X153458200Y-76197618D01*
X153458200Y-76197618D02*
X153496295Y-76083333D01*
X153496295Y-76083333D02*
X153496295Y-76007142D01*
X153496295Y-76007142D02*
X153458200Y-75892856D01*
X153458200Y-75892856D02*
X153382009Y-75816666D01*
X153382009Y-75816666D02*
X153305819Y-75778571D01*
X153305819Y-75778571D02*
X153153438Y-75740475D01*
X153153438Y-75740475D02*
X153039152Y-75740475D01*
X153039152Y-75740475D02*
X152886771Y-75778571D01*
X152886771Y-75778571D02*
X152810580Y-75816666D01*
X152810580Y-75816666D02*
X152734390Y-75892856D01*
X152734390Y-75892856D02*
X152696295Y-76007142D01*
X152696295Y-76007142D02*
X152696295Y-76083333D01*
X152696295Y-76083333D02*
X152734390Y-76197618D01*
X152734390Y-76197618D02*
X152772485Y-76235714D01*
X152696295Y-76959523D02*
X152696295Y-76578571D01*
X152696295Y-76578571D02*
X153077247Y-76540475D01*
X153077247Y-76540475D02*
X153039152Y-76578571D01*
X153039152Y-76578571D02*
X153001057Y-76654761D01*
X153001057Y-76654761D02*
X153001057Y-76845237D01*
X153001057Y-76845237D02*
X153039152Y-76921428D01*
X153039152Y-76921428D02*
X153077247Y-76959523D01*
X153077247Y-76959523D02*
X153153438Y-76997618D01*
X153153438Y-76997618D02*
X153343914Y-76997618D01*
X153343914Y-76997618D02*
X153420104Y-76959523D01*
X153420104Y-76959523D02*
X153458200Y-76921428D01*
X153458200Y-76921428D02*
X153496295Y-76845237D01*
X153496295Y-76845237D02*
X153496295Y-76654761D01*
X153496295Y-76654761D02*
X153458200Y-76578571D01*
X153458200Y-76578571D02*
X153420104Y-76540475D01*
X153496295Y-77759523D02*
X153496295Y-77302380D01*
X153496295Y-77530952D02*
X152696295Y-77530952D01*
X152696295Y-77530952D02*
X152810580Y-77454761D01*
X152810580Y-77454761D02*
X152886771Y-77378571D01*
X152886771Y-77378571D02*
X152924866Y-77302380D01*
X118570132Y-90899304D02*
X118608228Y-90937400D01*
X118608228Y-90937400D02*
X118722513Y-90975495D01*
X118722513Y-90975495D02*
X118798704Y-90975495D01*
X118798704Y-90975495D02*
X118912990Y-90937400D01*
X118912990Y-90937400D02*
X118989180Y-90861209D01*
X118989180Y-90861209D02*
X119027275Y-90785019D01*
X119027275Y-90785019D02*
X119065371Y-90632638D01*
X119065371Y-90632638D02*
X119065371Y-90518352D01*
X119065371Y-90518352D02*
X119027275Y-90365971D01*
X119027275Y-90365971D02*
X118989180Y-90289780D01*
X118989180Y-90289780D02*
X118912990Y-90213590D01*
X118912990Y-90213590D02*
X118798704Y-90175495D01*
X118798704Y-90175495D02*
X118722513Y-90175495D01*
X118722513Y-90175495D02*
X118608228Y-90213590D01*
X118608228Y-90213590D02*
X118570132Y-90251685D01*
X118303466Y-90175495D02*
X117808228Y-90175495D01*
X117808228Y-90175495D02*
X118074894Y-90480257D01*
X118074894Y-90480257D02*
X117960609Y-90480257D01*
X117960609Y-90480257D02*
X117884418Y-90518352D01*
X117884418Y-90518352D02*
X117846323Y-90556447D01*
X117846323Y-90556447D02*
X117808228Y-90632638D01*
X117808228Y-90632638D02*
X117808228Y-90823114D01*
X117808228Y-90823114D02*
X117846323Y-90899304D01*
X117846323Y-90899304D02*
X117884418Y-90937400D01*
X117884418Y-90937400D02*
X117960609Y-90975495D01*
X117960609Y-90975495D02*
X118189180Y-90975495D01*
X118189180Y-90975495D02*
X118265371Y-90937400D01*
X118265371Y-90937400D02*
X118303466Y-90899304D01*
X174024285Y-87617704D02*
X174062381Y-87655800D01*
X174062381Y-87655800D02*
X174176666Y-87693895D01*
X174176666Y-87693895D02*
X174252857Y-87693895D01*
X174252857Y-87693895D02*
X174367143Y-87655800D01*
X174367143Y-87655800D02*
X174443333Y-87579609D01*
X174443333Y-87579609D02*
X174481428Y-87503419D01*
X174481428Y-87503419D02*
X174519524Y-87351038D01*
X174519524Y-87351038D02*
X174519524Y-87236752D01*
X174519524Y-87236752D02*
X174481428Y-87084371D01*
X174481428Y-87084371D02*
X174443333Y-87008180D01*
X174443333Y-87008180D02*
X174367143Y-86931990D01*
X174367143Y-86931990D02*
X174252857Y-86893895D01*
X174252857Y-86893895D02*
X174176666Y-86893895D01*
X174176666Y-86893895D02*
X174062381Y-86931990D01*
X174062381Y-86931990D02*
X174024285Y-86970085D01*
X173757619Y-86893895D02*
X173262381Y-86893895D01*
X173262381Y-86893895D02*
X173529047Y-87198657D01*
X173529047Y-87198657D02*
X173414762Y-87198657D01*
X173414762Y-87198657D02*
X173338571Y-87236752D01*
X173338571Y-87236752D02*
X173300476Y-87274847D01*
X173300476Y-87274847D02*
X173262381Y-87351038D01*
X173262381Y-87351038D02*
X173262381Y-87541514D01*
X173262381Y-87541514D02*
X173300476Y-87617704D01*
X173300476Y-87617704D02*
X173338571Y-87655800D01*
X173338571Y-87655800D02*
X173414762Y-87693895D01*
X173414762Y-87693895D02*
X173643333Y-87693895D01*
X173643333Y-87693895D02*
X173719524Y-87655800D01*
X173719524Y-87655800D02*
X173757619Y-87617704D01*
X172805238Y-87236752D02*
X172881428Y-87198657D01*
X172881428Y-87198657D02*
X172919523Y-87160561D01*
X172919523Y-87160561D02*
X172957619Y-87084371D01*
X172957619Y-87084371D02*
X172957619Y-87046276D01*
X172957619Y-87046276D02*
X172919523Y-86970085D01*
X172919523Y-86970085D02*
X172881428Y-86931990D01*
X172881428Y-86931990D02*
X172805238Y-86893895D01*
X172805238Y-86893895D02*
X172652857Y-86893895D01*
X172652857Y-86893895D02*
X172576666Y-86931990D01*
X172576666Y-86931990D02*
X172538571Y-86970085D01*
X172538571Y-86970085D02*
X172500476Y-87046276D01*
X172500476Y-87046276D02*
X172500476Y-87084371D01*
X172500476Y-87084371D02*
X172538571Y-87160561D01*
X172538571Y-87160561D02*
X172576666Y-87198657D01*
X172576666Y-87198657D02*
X172652857Y-87236752D01*
X172652857Y-87236752D02*
X172805238Y-87236752D01*
X172805238Y-87236752D02*
X172881428Y-87274847D01*
X172881428Y-87274847D02*
X172919523Y-87312942D01*
X172919523Y-87312942D02*
X172957619Y-87389133D01*
X172957619Y-87389133D02*
X172957619Y-87541514D01*
X172957619Y-87541514D02*
X172919523Y-87617704D01*
X172919523Y-87617704D02*
X172881428Y-87655800D01*
X172881428Y-87655800D02*
X172805238Y-87693895D01*
X172805238Y-87693895D02*
X172652857Y-87693895D01*
X172652857Y-87693895D02*
X172576666Y-87655800D01*
X172576666Y-87655800D02*
X172538571Y-87617704D01*
X172538571Y-87617704D02*
X172500476Y-87541514D01*
X172500476Y-87541514D02*
X172500476Y-87389133D01*
X172500476Y-87389133D02*
X172538571Y-87312942D01*
X172538571Y-87312942D02*
X172576666Y-87274847D01*
X172576666Y-87274847D02*
X172652857Y-87236752D01*
X169720104Y-76335714D02*
X169758200Y-76297618D01*
X169758200Y-76297618D02*
X169796295Y-76183333D01*
X169796295Y-76183333D02*
X169796295Y-76107142D01*
X169796295Y-76107142D02*
X169758200Y-75992856D01*
X169758200Y-75992856D02*
X169682009Y-75916666D01*
X169682009Y-75916666D02*
X169605819Y-75878571D01*
X169605819Y-75878571D02*
X169453438Y-75840475D01*
X169453438Y-75840475D02*
X169339152Y-75840475D01*
X169339152Y-75840475D02*
X169186771Y-75878571D01*
X169186771Y-75878571D02*
X169110580Y-75916666D01*
X169110580Y-75916666D02*
X169034390Y-75992856D01*
X169034390Y-75992856D02*
X168996295Y-76107142D01*
X168996295Y-76107142D02*
X168996295Y-76183333D01*
X168996295Y-76183333D02*
X169034390Y-76297618D01*
X169034390Y-76297618D02*
X169072485Y-76335714D01*
X168996295Y-77059523D02*
X168996295Y-76678571D01*
X168996295Y-76678571D02*
X169377247Y-76640475D01*
X169377247Y-76640475D02*
X169339152Y-76678571D01*
X169339152Y-76678571D02*
X169301057Y-76754761D01*
X169301057Y-76754761D02*
X169301057Y-76945237D01*
X169301057Y-76945237D02*
X169339152Y-77021428D01*
X169339152Y-77021428D02*
X169377247Y-77059523D01*
X169377247Y-77059523D02*
X169453438Y-77097618D01*
X169453438Y-77097618D02*
X169643914Y-77097618D01*
X169643914Y-77097618D02*
X169720104Y-77059523D01*
X169720104Y-77059523D02*
X169758200Y-77021428D01*
X169758200Y-77021428D02*
X169796295Y-76945237D01*
X169796295Y-76945237D02*
X169796295Y-76754761D01*
X169796295Y-76754761D02*
X169758200Y-76678571D01*
X169758200Y-76678571D02*
X169720104Y-76640475D01*
X168996295Y-77364285D02*
X168996295Y-77897619D01*
X168996295Y-77897619D02*
X169796295Y-77554761D01*
X116517332Y-79436104D02*
X116555428Y-79474200D01*
X116555428Y-79474200D02*
X116669713Y-79512295D01*
X116669713Y-79512295D02*
X116745904Y-79512295D01*
X116745904Y-79512295D02*
X116860190Y-79474200D01*
X116860190Y-79474200D02*
X116936380Y-79398009D01*
X116936380Y-79398009D02*
X116974475Y-79321819D01*
X116974475Y-79321819D02*
X117012571Y-79169438D01*
X117012571Y-79169438D02*
X117012571Y-79055152D01*
X117012571Y-79055152D02*
X116974475Y-78902771D01*
X116974475Y-78902771D02*
X116936380Y-78826580D01*
X116936380Y-78826580D02*
X116860190Y-78750390D01*
X116860190Y-78750390D02*
X116745904Y-78712295D01*
X116745904Y-78712295D02*
X116669713Y-78712295D01*
X116669713Y-78712295D02*
X116555428Y-78750390D01*
X116555428Y-78750390D02*
X116517332Y-78788485D01*
X115793523Y-78712295D02*
X116174475Y-78712295D01*
X116174475Y-78712295D02*
X116212571Y-79093247D01*
X116212571Y-79093247D02*
X116174475Y-79055152D01*
X116174475Y-79055152D02*
X116098285Y-79017057D01*
X116098285Y-79017057D02*
X115907809Y-79017057D01*
X115907809Y-79017057D02*
X115831618Y-79055152D01*
X115831618Y-79055152D02*
X115793523Y-79093247D01*
X115793523Y-79093247D02*
X115755428Y-79169438D01*
X115755428Y-79169438D02*
X115755428Y-79359914D01*
X115755428Y-79359914D02*
X115793523Y-79436104D01*
X115793523Y-79436104D02*
X115831618Y-79474200D01*
X115831618Y-79474200D02*
X115907809Y-79512295D01*
X115907809Y-79512295D02*
X116098285Y-79512295D01*
X116098285Y-79512295D02*
X116174475Y-79474200D01*
X116174475Y-79474200D02*
X116212571Y-79436104D01*
X167548285Y-77736104D02*
X167586381Y-77774200D01*
X167586381Y-77774200D02*
X167700666Y-77812295D01*
X167700666Y-77812295D02*
X167776857Y-77812295D01*
X167776857Y-77812295D02*
X167891143Y-77774200D01*
X167891143Y-77774200D02*
X167967333Y-77698009D01*
X167967333Y-77698009D02*
X168005428Y-77621819D01*
X168005428Y-77621819D02*
X168043524Y-77469438D01*
X168043524Y-77469438D02*
X168043524Y-77355152D01*
X168043524Y-77355152D02*
X168005428Y-77202771D01*
X168005428Y-77202771D02*
X167967333Y-77126580D01*
X167967333Y-77126580D02*
X167891143Y-77050390D01*
X167891143Y-77050390D02*
X167776857Y-77012295D01*
X167776857Y-77012295D02*
X167700666Y-77012295D01*
X167700666Y-77012295D02*
X167586381Y-77050390D01*
X167586381Y-77050390D02*
X167548285Y-77088485D01*
X166824476Y-77012295D02*
X167205428Y-77012295D01*
X167205428Y-77012295D02*
X167243524Y-77393247D01*
X167243524Y-77393247D02*
X167205428Y-77355152D01*
X167205428Y-77355152D02*
X167129238Y-77317057D01*
X167129238Y-77317057D02*
X166938762Y-77317057D01*
X166938762Y-77317057D02*
X166862571Y-77355152D01*
X166862571Y-77355152D02*
X166824476Y-77393247D01*
X166824476Y-77393247D02*
X166786381Y-77469438D01*
X166786381Y-77469438D02*
X166786381Y-77659914D01*
X166786381Y-77659914D02*
X166824476Y-77736104D01*
X166824476Y-77736104D02*
X166862571Y-77774200D01*
X166862571Y-77774200D02*
X166938762Y-77812295D01*
X166938762Y-77812295D02*
X167129238Y-77812295D01*
X167129238Y-77812295D02*
X167205428Y-77774200D01*
X167205428Y-77774200D02*
X167243524Y-77736104D01*
X166481619Y-77088485D02*
X166443523Y-77050390D01*
X166443523Y-77050390D02*
X166367333Y-77012295D01*
X166367333Y-77012295D02*
X166176857Y-77012295D01*
X166176857Y-77012295D02*
X166100666Y-77050390D01*
X166100666Y-77050390D02*
X166062571Y-77088485D01*
X166062571Y-77088485D02*
X166024476Y-77164676D01*
X166024476Y-77164676D02*
X166024476Y-77240866D01*
X166024476Y-77240866D02*
X166062571Y-77355152D01*
X166062571Y-77355152D02*
X166519714Y-77812295D01*
X166519714Y-77812295D02*
X166024476Y-77812295D01*
X178893485Y-78295904D02*
X178931581Y-78334000D01*
X178931581Y-78334000D02*
X179045866Y-78372095D01*
X179045866Y-78372095D02*
X179122057Y-78372095D01*
X179122057Y-78372095D02*
X179236343Y-78334000D01*
X179236343Y-78334000D02*
X179312533Y-78257809D01*
X179312533Y-78257809D02*
X179350628Y-78181619D01*
X179350628Y-78181619D02*
X179388724Y-78029238D01*
X179388724Y-78029238D02*
X179388724Y-77914952D01*
X179388724Y-77914952D02*
X179350628Y-77762571D01*
X179350628Y-77762571D02*
X179312533Y-77686380D01*
X179312533Y-77686380D02*
X179236343Y-77610190D01*
X179236343Y-77610190D02*
X179122057Y-77572095D01*
X179122057Y-77572095D02*
X179045866Y-77572095D01*
X179045866Y-77572095D02*
X178931581Y-77610190D01*
X178931581Y-77610190D02*
X178893485Y-77648285D01*
X178207771Y-77572095D02*
X178360152Y-77572095D01*
X178360152Y-77572095D02*
X178436343Y-77610190D01*
X178436343Y-77610190D02*
X178474438Y-77648285D01*
X178474438Y-77648285D02*
X178550628Y-77762571D01*
X178550628Y-77762571D02*
X178588724Y-77914952D01*
X178588724Y-77914952D02*
X178588724Y-78219714D01*
X178588724Y-78219714D02*
X178550628Y-78295904D01*
X178550628Y-78295904D02*
X178512533Y-78334000D01*
X178512533Y-78334000D02*
X178436343Y-78372095D01*
X178436343Y-78372095D02*
X178283962Y-78372095D01*
X178283962Y-78372095D02*
X178207771Y-78334000D01*
X178207771Y-78334000D02*
X178169676Y-78295904D01*
X178169676Y-78295904D02*
X178131581Y-78219714D01*
X178131581Y-78219714D02*
X178131581Y-78029238D01*
X178131581Y-78029238D02*
X178169676Y-77953047D01*
X178169676Y-77953047D02*
X178207771Y-77914952D01*
X178207771Y-77914952D02*
X178283962Y-77876857D01*
X178283962Y-77876857D02*
X178436343Y-77876857D01*
X178436343Y-77876857D02*
X178512533Y-77914952D01*
X178512533Y-77914952D02*
X178550628Y-77953047D01*
X178550628Y-77953047D02*
X178588724Y-78029238D01*
X177636342Y-77572095D02*
X177560152Y-77572095D01*
X177560152Y-77572095D02*
X177483961Y-77610190D01*
X177483961Y-77610190D02*
X177445866Y-77648285D01*
X177445866Y-77648285D02*
X177407771Y-77724476D01*
X177407771Y-77724476D02*
X177369676Y-77876857D01*
X177369676Y-77876857D02*
X177369676Y-78067333D01*
X177369676Y-78067333D02*
X177407771Y-78219714D01*
X177407771Y-78219714D02*
X177445866Y-78295904D01*
X177445866Y-78295904D02*
X177483961Y-78334000D01*
X177483961Y-78334000D02*
X177560152Y-78372095D01*
X177560152Y-78372095D02*
X177636342Y-78372095D01*
X177636342Y-78372095D02*
X177712533Y-78334000D01*
X177712533Y-78334000D02*
X177750628Y-78295904D01*
X177750628Y-78295904D02*
X177788723Y-78219714D01*
X177788723Y-78219714D02*
X177826819Y-78067333D01*
X177826819Y-78067333D02*
X177826819Y-77876857D01*
X177826819Y-77876857D02*
X177788723Y-77724476D01*
X177788723Y-77724476D02*
X177750628Y-77648285D01*
X177750628Y-77648285D02*
X177712533Y-77610190D01*
X177712533Y-77610190D02*
X177636342Y-77572095D01*
X116299095Y-85403676D02*
X116946714Y-85403676D01*
X116946714Y-85403676D02*
X117022904Y-85441771D01*
X117022904Y-85441771D02*
X117061000Y-85479866D01*
X117061000Y-85479866D02*
X117099095Y-85556057D01*
X117099095Y-85556057D02*
X117099095Y-85708438D01*
X117099095Y-85708438D02*
X117061000Y-85784628D01*
X117061000Y-85784628D02*
X117022904Y-85822723D01*
X117022904Y-85822723D02*
X116946714Y-85860819D01*
X116946714Y-85860819D02*
X116299095Y-85860819D01*
X116375285Y-86203675D02*
X116337190Y-86241771D01*
X116337190Y-86241771D02*
X116299095Y-86317961D01*
X116299095Y-86317961D02*
X116299095Y-86508437D01*
X116299095Y-86508437D02*
X116337190Y-86584628D01*
X116337190Y-86584628D02*
X116375285Y-86622723D01*
X116375285Y-86622723D02*
X116451476Y-86660818D01*
X116451476Y-86660818D02*
X116527666Y-86660818D01*
X116527666Y-86660818D02*
X116641952Y-86622723D01*
X116641952Y-86622723D02*
X117099095Y-86165580D01*
X117099095Y-86165580D02*
X117099095Y-86660818D01*
X175548285Y-79536104D02*
X175586381Y-79574200D01*
X175586381Y-79574200D02*
X175700666Y-79612295D01*
X175700666Y-79612295D02*
X175776857Y-79612295D01*
X175776857Y-79612295D02*
X175891143Y-79574200D01*
X175891143Y-79574200D02*
X175967333Y-79498009D01*
X175967333Y-79498009D02*
X176005428Y-79421819D01*
X176005428Y-79421819D02*
X176043524Y-79269438D01*
X176043524Y-79269438D02*
X176043524Y-79155152D01*
X176043524Y-79155152D02*
X176005428Y-79002771D01*
X176005428Y-79002771D02*
X175967333Y-78926580D01*
X175967333Y-78926580D02*
X175891143Y-78850390D01*
X175891143Y-78850390D02*
X175776857Y-78812295D01*
X175776857Y-78812295D02*
X175700666Y-78812295D01*
X175700666Y-78812295D02*
X175586381Y-78850390D01*
X175586381Y-78850390D02*
X175548285Y-78888485D01*
X175243524Y-78888485D02*
X175205428Y-78850390D01*
X175205428Y-78850390D02*
X175129238Y-78812295D01*
X175129238Y-78812295D02*
X174938762Y-78812295D01*
X174938762Y-78812295D02*
X174862571Y-78850390D01*
X174862571Y-78850390D02*
X174824476Y-78888485D01*
X174824476Y-78888485D02*
X174786381Y-78964676D01*
X174786381Y-78964676D02*
X174786381Y-79040866D01*
X174786381Y-79040866D02*
X174824476Y-79155152D01*
X174824476Y-79155152D02*
X175281619Y-79612295D01*
X175281619Y-79612295D02*
X174786381Y-79612295D01*
X174329238Y-79155152D02*
X174405428Y-79117057D01*
X174405428Y-79117057D02*
X174443523Y-79078961D01*
X174443523Y-79078961D02*
X174481619Y-79002771D01*
X174481619Y-79002771D02*
X174481619Y-78964676D01*
X174481619Y-78964676D02*
X174443523Y-78888485D01*
X174443523Y-78888485D02*
X174405428Y-78850390D01*
X174405428Y-78850390D02*
X174329238Y-78812295D01*
X174329238Y-78812295D02*
X174176857Y-78812295D01*
X174176857Y-78812295D02*
X174100666Y-78850390D01*
X174100666Y-78850390D02*
X174062571Y-78888485D01*
X174062571Y-78888485D02*
X174024476Y-78964676D01*
X174024476Y-78964676D02*
X174024476Y-79002771D01*
X174024476Y-79002771D02*
X174062571Y-79078961D01*
X174062571Y-79078961D02*
X174100666Y-79117057D01*
X174100666Y-79117057D02*
X174176857Y-79155152D01*
X174176857Y-79155152D02*
X174329238Y-79155152D01*
X174329238Y-79155152D02*
X174405428Y-79193247D01*
X174405428Y-79193247D02*
X174443523Y-79231342D01*
X174443523Y-79231342D02*
X174481619Y-79307533D01*
X174481619Y-79307533D02*
X174481619Y-79459914D01*
X174481619Y-79459914D02*
X174443523Y-79536104D01*
X174443523Y-79536104D02*
X174405428Y-79574200D01*
X174405428Y-79574200D02*
X174329238Y-79612295D01*
X174329238Y-79612295D02*
X174176857Y-79612295D01*
X174176857Y-79612295D02*
X174100666Y-79574200D01*
X174100666Y-79574200D02*
X174062571Y-79536104D01*
X174062571Y-79536104D02*
X174024476Y-79459914D01*
X174024476Y-79459914D02*
X174024476Y-79307533D01*
X174024476Y-79307533D02*
X174062571Y-79231342D01*
X174062571Y-79231342D02*
X174100666Y-79193247D01*
X174100666Y-79193247D02*
X174176857Y-79155152D01*
X157420104Y-78335714D02*
X157458200Y-78297618D01*
X157458200Y-78297618D02*
X157496295Y-78183333D01*
X157496295Y-78183333D02*
X157496295Y-78107142D01*
X157496295Y-78107142D02*
X157458200Y-77992856D01*
X157458200Y-77992856D02*
X157382009Y-77916666D01*
X157382009Y-77916666D02*
X157305819Y-77878571D01*
X157305819Y-77878571D02*
X157153438Y-77840475D01*
X157153438Y-77840475D02*
X157039152Y-77840475D01*
X157039152Y-77840475D02*
X156886771Y-77878571D01*
X156886771Y-77878571D02*
X156810580Y-77916666D01*
X156810580Y-77916666D02*
X156734390Y-77992856D01*
X156734390Y-77992856D02*
X156696295Y-78107142D01*
X156696295Y-78107142D02*
X156696295Y-78183333D01*
X156696295Y-78183333D02*
X156734390Y-78297618D01*
X156734390Y-78297618D02*
X156772485Y-78335714D01*
X156696295Y-78602380D02*
X156696295Y-79097618D01*
X156696295Y-79097618D02*
X157001057Y-78830952D01*
X157001057Y-78830952D02*
X157001057Y-78945237D01*
X157001057Y-78945237D02*
X157039152Y-79021428D01*
X157039152Y-79021428D02*
X157077247Y-79059523D01*
X157077247Y-79059523D02*
X157153438Y-79097618D01*
X157153438Y-79097618D02*
X157343914Y-79097618D01*
X157343914Y-79097618D02*
X157420104Y-79059523D01*
X157420104Y-79059523D02*
X157458200Y-79021428D01*
X157458200Y-79021428D02*
X157496295Y-78945237D01*
X157496295Y-78945237D02*
X157496295Y-78716666D01*
X157496295Y-78716666D02*
X157458200Y-78640475D01*
X157458200Y-78640475D02*
X157420104Y-78602380D01*
X156696295Y-79364285D02*
X156696295Y-79897619D01*
X156696295Y-79897619D02*
X157496295Y-79554761D01*
X169320104Y-81635714D02*
X169358200Y-81597618D01*
X169358200Y-81597618D02*
X169396295Y-81483333D01*
X169396295Y-81483333D02*
X169396295Y-81407142D01*
X169396295Y-81407142D02*
X169358200Y-81292856D01*
X169358200Y-81292856D02*
X169282009Y-81216666D01*
X169282009Y-81216666D02*
X169205819Y-81178571D01*
X169205819Y-81178571D02*
X169053438Y-81140475D01*
X169053438Y-81140475D02*
X168939152Y-81140475D01*
X168939152Y-81140475D02*
X168786771Y-81178571D01*
X168786771Y-81178571D02*
X168710580Y-81216666D01*
X168710580Y-81216666D02*
X168634390Y-81292856D01*
X168634390Y-81292856D02*
X168596295Y-81407142D01*
X168596295Y-81407142D02*
X168596295Y-81483333D01*
X168596295Y-81483333D02*
X168634390Y-81597618D01*
X168634390Y-81597618D02*
X168672485Y-81635714D01*
X168672485Y-81940475D02*
X168634390Y-81978571D01*
X168634390Y-81978571D02*
X168596295Y-82054761D01*
X168596295Y-82054761D02*
X168596295Y-82245237D01*
X168596295Y-82245237D02*
X168634390Y-82321428D01*
X168634390Y-82321428D02*
X168672485Y-82359523D01*
X168672485Y-82359523D02*
X168748676Y-82397618D01*
X168748676Y-82397618D02*
X168824866Y-82397618D01*
X168824866Y-82397618D02*
X168939152Y-82359523D01*
X168939152Y-82359523D02*
X169396295Y-81902380D01*
X169396295Y-81902380D02*
X169396295Y-82397618D01*
X168862961Y-83083333D02*
X169396295Y-83083333D01*
X168558200Y-82892857D02*
X169129628Y-82702380D01*
X169129628Y-82702380D02*
X169129628Y-83197619D01*
X167048285Y-86936104D02*
X167086381Y-86974200D01*
X167086381Y-86974200D02*
X167200666Y-87012295D01*
X167200666Y-87012295D02*
X167276857Y-87012295D01*
X167276857Y-87012295D02*
X167391143Y-86974200D01*
X167391143Y-86974200D02*
X167467333Y-86898009D01*
X167467333Y-86898009D02*
X167505428Y-86821819D01*
X167505428Y-86821819D02*
X167543524Y-86669438D01*
X167543524Y-86669438D02*
X167543524Y-86555152D01*
X167543524Y-86555152D02*
X167505428Y-86402771D01*
X167505428Y-86402771D02*
X167467333Y-86326580D01*
X167467333Y-86326580D02*
X167391143Y-86250390D01*
X167391143Y-86250390D02*
X167276857Y-86212295D01*
X167276857Y-86212295D02*
X167200666Y-86212295D01*
X167200666Y-86212295D02*
X167086381Y-86250390D01*
X167086381Y-86250390D02*
X167048285Y-86288485D01*
X166324476Y-86212295D02*
X166705428Y-86212295D01*
X166705428Y-86212295D02*
X166743524Y-86593247D01*
X166743524Y-86593247D02*
X166705428Y-86555152D01*
X166705428Y-86555152D02*
X166629238Y-86517057D01*
X166629238Y-86517057D02*
X166438762Y-86517057D01*
X166438762Y-86517057D02*
X166362571Y-86555152D01*
X166362571Y-86555152D02*
X166324476Y-86593247D01*
X166324476Y-86593247D02*
X166286381Y-86669438D01*
X166286381Y-86669438D02*
X166286381Y-86859914D01*
X166286381Y-86859914D02*
X166324476Y-86936104D01*
X166324476Y-86936104D02*
X166362571Y-86974200D01*
X166362571Y-86974200D02*
X166438762Y-87012295D01*
X166438762Y-87012295D02*
X166629238Y-87012295D01*
X166629238Y-87012295D02*
X166705428Y-86974200D01*
X166705428Y-86974200D02*
X166743524Y-86936104D01*
X165600666Y-86212295D02*
X165753047Y-86212295D01*
X165753047Y-86212295D02*
X165829238Y-86250390D01*
X165829238Y-86250390D02*
X165867333Y-86288485D01*
X165867333Y-86288485D02*
X165943523Y-86402771D01*
X165943523Y-86402771D02*
X165981619Y-86555152D01*
X165981619Y-86555152D02*
X165981619Y-86859914D01*
X165981619Y-86859914D02*
X165943523Y-86936104D01*
X165943523Y-86936104D02*
X165905428Y-86974200D01*
X165905428Y-86974200D02*
X165829238Y-87012295D01*
X165829238Y-87012295D02*
X165676857Y-87012295D01*
X165676857Y-87012295D02*
X165600666Y-86974200D01*
X165600666Y-86974200D02*
X165562571Y-86936104D01*
X165562571Y-86936104D02*
X165524476Y-86859914D01*
X165524476Y-86859914D02*
X165524476Y-86669438D01*
X165524476Y-86669438D02*
X165562571Y-86593247D01*
X165562571Y-86593247D02*
X165600666Y-86555152D01*
X165600666Y-86555152D02*
X165676857Y-86517057D01*
X165676857Y-86517057D02*
X165829238Y-86517057D01*
X165829238Y-86517057D02*
X165905428Y-86555152D01*
X165905428Y-86555152D02*
X165943523Y-86593247D01*
X165943523Y-86593247D02*
X165981619Y-86669438D01*
X104985866Y-74600295D02*
X104985866Y-75171723D01*
X104985866Y-75171723D02*
X105023961Y-75286009D01*
X105023961Y-75286009D02*
X105100152Y-75362200D01*
X105100152Y-75362200D02*
X105214437Y-75400295D01*
X105214437Y-75400295D02*
X105290628Y-75400295D01*
X104185866Y-75400295D02*
X104643009Y-75400295D01*
X104414437Y-75400295D02*
X104414437Y-74600295D01*
X104414437Y-74600295D02*
X104490628Y-74714580D01*
X104490628Y-74714580D02*
X104566818Y-74790771D01*
X104566818Y-74790771D02*
X104643009Y-74828866D01*
X141953485Y-84239104D02*
X141991581Y-84277200D01*
X141991581Y-84277200D02*
X142105866Y-84315295D01*
X142105866Y-84315295D02*
X142182057Y-84315295D01*
X142182057Y-84315295D02*
X142296343Y-84277200D01*
X142296343Y-84277200D02*
X142372533Y-84201009D01*
X142372533Y-84201009D02*
X142410628Y-84124819D01*
X142410628Y-84124819D02*
X142448724Y-83972438D01*
X142448724Y-83972438D02*
X142448724Y-83858152D01*
X142448724Y-83858152D02*
X142410628Y-83705771D01*
X142410628Y-83705771D02*
X142372533Y-83629580D01*
X142372533Y-83629580D02*
X142296343Y-83553390D01*
X142296343Y-83553390D02*
X142182057Y-83515295D01*
X142182057Y-83515295D02*
X142105866Y-83515295D01*
X142105866Y-83515295D02*
X141991581Y-83553390D01*
X141991581Y-83553390D02*
X141953485Y-83591485D01*
X141648724Y-83591485D02*
X141610628Y-83553390D01*
X141610628Y-83553390D02*
X141534438Y-83515295D01*
X141534438Y-83515295D02*
X141343962Y-83515295D01*
X141343962Y-83515295D02*
X141267771Y-83553390D01*
X141267771Y-83553390D02*
X141229676Y-83591485D01*
X141229676Y-83591485D02*
X141191581Y-83667676D01*
X141191581Y-83667676D02*
X141191581Y-83743866D01*
X141191581Y-83743866D02*
X141229676Y-83858152D01*
X141229676Y-83858152D02*
X141686819Y-84315295D01*
X141686819Y-84315295D02*
X141191581Y-84315295D01*
X140429676Y-84315295D02*
X140886819Y-84315295D01*
X140658247Y-84315295D02*
X140658247Y-83515295D01*
X140658247Y-83515295D02*
X140734438Y-83629580D01*
X140734438Y-83629580D02*
X140810628Y-83705771D01*
X140810628Y-83705771D02*
X140886819Y-83743866D01*
X141953485Y-86536104D02*
X141991581Y-86574200D01*
X141991581Y-86574200D02*
X142105866Y-86612295D01*
X142105866Y-86612295D02*
X142182057Y-86612295D01*
X142182057Y-86612295D02*
X142296343Y-86574200D01*
X142296343Y-86574200D02*
X142372533Y-86498009D01*
X142372533Y-86498009D02*
X142410628Y-86421819D01*
X142410628Y-86421819D02*
X142448724Y-86269438D01*
X142448724Y-86269438D02*
X142448724Y-86155152D01*
X142448724Y-86155152D02*
X142410628Y-86002771D01*
X142410628Y-86002771D02*
X142372533Y-85926580D01*
X142372533Y-85926580D02*
X142296343Y-85850390D01*
X142296343Y-85850390D02*
X142182057Y-85812295D01*
X142182057Y-85812295D02*
X142105866Y-85812295D01*
X142105866Y-85812295D02*
X141991581Y-85850390D01*
X141991581Y-85850390D02*
X141953485Y-85888485D01*
X141686819Y-85812295D02*
X141191581Y-85812295D01*
X141191581Y-85812295D02*
X141458247Y-86117057D01*
X141458247Y-86117057D02*
X141343962Y-86117057D01*
X141343962Y-86117057D02*
X141267771Y-86155152D01*
X141267771Y-86155152D02*
X141229676Y-86193247D01*
X141229676Y-86193247D02*
X141191581Y-86269438D01*
X141191581Y-86269438D02*
X141191581Y-86459914D01*
X141191581Y-86459914D02*
X141229676Y-86536104D01*
X141229676Y-86536104D02*
X141267771Y-86574200D01*
X141267771Y-86574200D02*
X141343962Y-86612295D01*
X141343962Y-86612295D02*
X141572533Y-86612295D01*
X141572533Y-86612295D02*
X141648724Y-86574200D01*
X141648724Y-86574200D02*
X141686819Y-86536104D01*
X140505866Y-86078961D02*
X140505866Y-86612295D01*
X140696342Y-85774200D02*
X140886819Y-86345628D01*
X140886819Y-86345628D02*
X140391580Y-86345628D01*
X132548285Y-77536104D02*
X132586381Y-77574200D01*
X132586381Y-77574200D02*
X132700666Y-77612295D01*
X132700666Y-77612295D02*
X132776857Y-77612295D01*
X132776857Y-77612295D02*
X132891143Y-77574200D01*
X132891143Y-77574200D02*
X132967333Y-77498009D01*
X132967333Y-77498009D02*
X133005428Y-77421819D01*
X133005428Y-77421819D02*
X133043524Y-77269438D01*
X133043524Y-77269438D02*
X133043524Y-77155152D01*
X133043524Y-77155152D02*
X133005428Y-77002771D01*
X133005428Y-77002771D02*
X132967333Y-76926580D01*
X132967333Y-76926580D02*
X132891143Y-76850390D01*
X132891143Y-76850390D02*
X132776857Y-76812295D01*
X132776857Y-76812295D02*
X132700666Y-76812295D01*
X132700666Y-76812295D02*
X132586381Y-76850390D01*
X132586381Y-76850390D02*
X132548285Y-76888485D01*
X131786381Y-77612295D02*
X132243524Y-77612295D01*
X132014952Y-77612295D02*
X132014952Y-76812295D01*
X132014952Y-76812295D02*
X132091143Y-76926580D01*
X132091143Y-76926580D02*
X132167333Y-77002771D01*
X132167333Y-77002771D02*
X132243524Y-77040866D01*
X131062571Y-76812295D02*
X131443523Y-76812295D01*
X131443523Y-76812295D02*
X131481619Y-77193247D01*
X131481619Y-77193247D02*
X131443523Y-77155152D01*
X131443523Y-77155152D02*
X131367333Y-77117057D01*
X131367333Y-77117057D02*
X131176857Y-77117057D01*
X131176857Y-77117057D02*
X131100666Y-77155152D01*
X131100666Y-77155152D02*
X131062571Y-77193247D01*
X131062571Y-77193247D02*
X131024476Y-77269438D01*
X131024476Y-77269438D02*
X131024476Y-77459914D01*
X131024476Y-77459914D02*
X131062571Y-77536104D01*
X131062571Y-77536104D02*
X131100666Y-77574200D01*
X131100666Y-77574200D02*
X131176857Y-77612295D01*
X131176857Y-77612295D02*
X131367333Y-77612295D01*
X131367333Y-77612295D02*
X131443523Y-77574200D01*
X131443523Y-77574200D02*
X131481619Y-77536104D01*
X110670332Y-87051295D02*
X110936999Y-86670342D01*
X111127475Y-87051295D02*
X111127475Y-86251295D01*
X111127475Y-86251295D02*
X110822713Y-86251295D01*
X110822713Y-86251295D02*
X110746523Y-86289390D01*
X110746523Y-86289390D02*
X110708428Y-86327485D01*
X110708428Y-86327485D02*
X110670332Y-86403676D01*
X110670332Y-86403676D02*
X110670332Y-86517961D01*
X110670332Y-86517961D02*
X110708428Y-86594152D01*
X110708428Y-86594152D02*
X110746523Y-86632247D01*
X110746523Y-86632247D02*
X110822713Y-86670342D01*
X110822713Y-86670342D02*
X111127475Y-86670342D01*
X109908428Y-87051295D02*
X110365571Y-87051295D01*
X110136999Y-87051295D02*
X110136999Y-86251295D01*
X110136999Y-86251295D02*
X110213190Y-86365580D01*
X110213190Y-86365580D02*
X110289380Y-86441771D01*
X110289380Y-86441771D02*
X110365571Y-86479866D01*
X139220104Y-77935714D02*
X139258200Y-77897618D01*
X139258200Y-77897618D02*
X139296295Y-77783333D01*
X139296295Y-77783333D02*
X139296295Y-77707142D01*
X139296295Y-77707142D02*
X139258200Y-77592856D01*
X139258200Y-77592856D02*
X139182009Y-77516666D01*
X139182009Y-77516666D02*
X139105819Y-77478571D01*
X139105819Y-77478571D02*
X138953438Y-77440475D01*
X138953438Y-77440475D02*
X138839152Y-77440475D01*
X138839152Y-77440475D02*
X138686771Y-77478571D01*
X138686771Y-77478571D02*
X138610580Y-77516666D01*
X138610580Y-77516666D02*
X138534390Y-77592856D01*
X138534390Y-77592856D02*
X138496295Y-77707142D01*
X138496295Y-77707142D02*
X138496295Y-77783333D01*
X138496295Y-77783333D02*
X138534390Y-77897618D01*
X138534390Y-77897618D02*
X138572485Y-77935714D01*
X138572485Y-78240475D02*
X138534390Y-78278571D01*
X138534390Y-78278571D02*
X138496295Y-78354761D01*
X138496295Y-78354761D02*
X138496295Y-78545237D01*
X138496295Y-78545237D02*
X138534390Y-78621428D01*
X138534390Y-78621428D02*
X138572485Y-78659523D01*
X138572485Y-78659523D02*
X138648676Y-78697618D01*
X138648676Y-78697618D02*
X138724866Y-78697618D01*
X138724866Y-78697618D02*
X138839152Y-78659523D01*
X138839152Y-78659523D02*
X139296295Y-78202380D01*
X139296295Y-78202380D02*
X139296295Y-78697618D01*
X138496295Y-79421428D02*
X138496295Y-79040476D01*
X138496295Y-79040476D02*
X138877247Y-79002380D01*
X138877247Y-79002380D02*
X138839152Y-79040476D01*
X138839152Y-79040476D02*
X138801057Y-79116666D01*
X138801057Y-79116666D02*
X138801057Y-79307142D01*
X138801057Y-79307142D02*
X138839152Y-79383333D01*
X138839152Y-79383333D02*
X138877247Y-79421428D01*
X138877247Y-79421428D02*
X138953438Y-79459523D01*
X138953438Y-79459523D02*
X139143914Y-79459523D01*
X139143914Y-79459523D02*
X139220104Y-79421428D01*
X139220104Y-79421428D02*
X139258200Y-79383333D01*
X139258200Y-79383333D02*
X139296295Y-79307142D01*
X139296295Y-79307142D02*
X139296295Y-79116666D01*
X139296295Y-79116666D02*
X139258200Y-79040476D01*
X139258200Y-79040476D02*
X139220104Y-79002380D01*
X135148285Y-86336104D02*
X135186381Y-86374200D01*
X135186381Y-86374200D02*
X135300666Y-86412295D01*
X135300666Y-86412295D02*
X135376857Y-86412295D01*
X135376857Y-86412295D02*
X135491143Y-86374200D01*
X135491143Y-86374200D02*
X135567333Y-86298009D01*
X135567333Y-86298009D02*
X135605428Y-86221819D01*
X135605428Y-86221819D02*
X135643524Y-86069438D01*
X135643524Y-86069438D02*
X135643524Y-85955152D01*
X135643524Y-85955152D02*
X135605428Y-85802771D01*
X135605428Y-85802771D02*
X135567333Y-85726580D01*
X135567333Y-85726580D02*
X135491143Y-85650390D01*
X135491143Y-85650390D02*
X135376857Y-85612295D01*
X135376857Y-85612295D02*
X135300666Y-85612295D01*
X135300666Y-85612295D02*
X135186381Y-85650390D01*
X135186381Y-85650390D02*
X135148285Y-85688485D01*
X134462571Y-85878961D02*
X134462571Y-86412295D01*
X134653047Y-85574200D02*
X134843524Y-86145628D01*
X134843524Y-86145628D02*
X134348285Y-86145628D01*
X134081619Y-85688485D02*
X134043523Y-85650390D01*
X134043523Y-85650390D02*
X133967333Y-85612295D01*
X133967333Y-85612295D02*
X133776857Y-85612295D01*
X133776857Y-85612295D02*
X133700666Y-85650390D01*
X133700666Y-85650390D02*
X133662571Y-85688485D01*
X133662571Y-85688485D02*
X133624476Y-85764676D01*
X133624476Y-85764676D02*
X133624476Y-85840866D01*
X133624476Y-85840866D02*
X133662571Y-85955152D01*
X133662571Y-85955152D02*
X134119714Y-86412295D01*
X134119714Y-86412295D02*
X133624476Y-86412295D01*
X143120104Y-78035714D02*
X143158200Y-77997618D01*
X143158200Y-77997618D02*
X143196295Y-77883333D01*
X143196295Y-77883333D02*
X143196295Y-77807142D01*
X143196295Y-77807142D02*
X143158200Y-77692856D01*
X143158200Y-77692856D02*
X143082009Y-77616666D01*
X143082009Y-77616666D02*
X143005819Y-77578571D01*
X143005819Y-77578571D02*
X142853438Y-77540475D01*
X142853438Y-77540475D02*
X142739152Y-77540475D01*
X142739152Y-77540475D02*
X142586771Y-77578571D01*
X142586771Y-77578571D02*
X142510580Y-77616666D01*
X142510580Y-77616666D02*
X142434390Y-77692856D01*
X142434390Y-77692856D02*
X142396295Y-77807142D01*
X142396295Y-77807142D02*
X142396295Y-77883333D01*
X142396295Y-77883333D02*
X142434390Y-77997618D01*
X142434390Y-77997618D02*
X142472485Y-78035714D01*
X143196295Y-78797618D02*
X143196295Y-78340475D01*
X143196295Y-78569047D02*
X142396295Y-78569047D01*
X142396295Y-78569047D02*
X142510580Y-78492856D01*
X142510580Y-78492856D02*
X142586771Y-78416666D01*
X142586771Y-78416666D02*
X142624866Y-78340475D01*
X142662961Y-79483333D02*
X143196295Y-79483333D01*
X142358200Y-79292857D02*
X142929628Y-79102380D01*
X142929628Y-79102380D02*
X142929628Y-79597619D01*
X121490104Y-80735714D02*
X121528200Y-80697618D01*
X121528200Y-80697618D02*
X121566295Y-80583333D01*
X121566295Y-80583333D02*
X121566295Y-80507142D01*
X121566295Y-80507142D02*
X121528200Y-80392856D01*
X121528200Y-80392856D02*
X121452009Y-80316666D01*
X121452009Y-80316666D02*
X121375819Y-80278571D01*
X121375819Y-80278571D02*
X121223438Y-80240475D01*
X121223438Y-80240475D02*
X121109152Y-80240475D01*
X121109152Y-80240475D02*
X120956771Y-80278571D01*
X120956771Y-80278571D02*
X120880580Y-80316666D01*
X120880580Y-80316666D02*
X120804390Y-80392856D01*
X120804390Y-80392856D02*
X120766295Y-80507142D01*
X120766295Y-80507142D02*
X120766295Y-80583333D01*
X120766295Y-80583333D02*
X120804390Y-80697618D01*
X120804390Y-80697618D02*
X120842485Y-80735714D01*
X120842485Y-81040475D02*
X120804390Y-81078571D01*
X120804390Y-81078571D02*
X120766295Y-81154761D01*
X120766295Y-81154761D02*
X120766295Y-81345237D01*
X120766295Y-81345237D02*
X120804390Y-81421428D01*
X120804390Y-81421428D02*
X120842485Y-81459523D01*
X120842485Y-81459523D02*
X120918676Y-81497618D01*
X120918676Y-81497618D02*
X120994866Y-81497618D01*
X120994866Y-81497618D02*
X121109152Y-81459523D01*
X121109152Y-81459523D02*
X121566295Y-81002380D01*
X121566295Y-81002380D02*
X121566295Y-81497618D01*
X120842485Y-81802380D02*
X120804390Y-81840476D01*
X120804390Y-81840476D02*
X120766295Y-81916666D01*
X120766295Y-81916666D02*
X120766295Y-82107142D01*
X120766295Y-82107142D02*
X120804390Y-82183333D01*
X120804390Y-82183333D02*
X120842485Y-82221428D01*
X120842485Y-82221428D02*
X120918676Y-82259523D01*
X120918676Y-82259523D02*
X120994866Y-82259523D01*
X120994866Y-82259523D02*
X121109152Y-82221428D01*
X121109152Y-82221428D02*
X121566295Y-81764285D01*
X121566295Y-81764285D02*
X121566295Y-82259523D01*
X157007885Y-86550904D02*
X157045981Y-86589000D01*
X157045981Y-86589000D02*
X157160266Y-86627095D01*
X157160266Y-86627095D02*
X157236457Y-86627095D01*
X157236457Y-86627095D02*
X157350743Y-86589000D01*
X157350743Y-86589000D02*
X157426933Y-86512809D01*
X157426933Y-86512809D02*
X157465028Y-86436619D01*
X157465028Y-86436619D02*
X157503124Y-86284238D01*
X157503124Y-86284238D02*
X157503124Y-86169952D01*
X157503124Y-86169952D02*
X157465028Y-86017571D01*
X157465028Y-86017571D02*
X157426933Y-85941380D01*
X157426933Y-85941380D02*
X157350743Y-85865190D01*
X157350743Y-85865190D02*
X157236457Y-85827095D01*
X157236457Y-85827095D02*
X157160266Y-85827095D01*
X157160266Y-85827095D02*
X157045981Y-85865190D01*
X157045981Y-85865190D02*
X157007885Y-85903285D01*
X156741219Y-85827095D02*
X156245981Y-85827095D01*
X156245981Y-85827095D02*
X156512647Y-86131857D01*
X156512647Y-86131857D02*
X156398362Y-86131857D01*
X156398362Y-86131857D02*
X156322171Y-86169952D01*
X156322171Y-86169952D02*
X156284076Y-86208047D01*
X156284076Y-86208047D02*
X156245981Y-86284238D01*
X156245981Y-86284238D02*
X156245981Y-86474714D01*
X156245981Y-86474714D02*
X156284076Y-86550904D01*
X156284076Y-86550904D02*
X156322171Y-86589000D01*
X156322171Y-86589000D02*
X156398362Y-86627095D01*
X156398362Y-86627095D02*
X156626933Y-86627095D01*
X156626933Y-86627095D02*
X156703124Y-86589000D01*
X156703124Y-86589000D02*
X156741219Y-86550904D01*
X155560266Y-85827095D02*
X155712647Y-85827095D01*
X155712647Y-85827095D02*
X155788838Y-85865190D01*
X155788838Y-85865190D02*
X155826933Y-85903285D01*
X155826933Y-85903285D02*
X155903123Y-86017571D01*
X155903123Y-86017571D02*
X155941219Y-86169952D01*
X155941219Y-86169952D02*
X155941219Y-86474714D01*
X155941219Y-86474714D02*
X155903123Y-86550904D01*
X155903123Y-86550904D02*
X155865028Y-86589000D01*
X155865028Y-86589000D02*
X155788838Y-86627095D01*
X155788838Y-86627095D02*
X155636457Y-86627095D01*
X155636457Y-86627095D02*
X155560266Y-86589000D01*
X155560266Y-86589000D02*
X155522171Y-86550904D01*
X155522171Y-86550904D02*
X155484076Y-86474714D01*
X155484076Y-86474714D02*
X155484076Y-86284238D01*
X155484076Y-86284238D02*
X155522171Y-86208047D01*
X155522171Y-86208047D02*
X155560266Y-86169952D01*
X155560266Y-86169952D02*
X155636457Y-86131857D01*
X155636457Y-86131857D02*
X155788838Y-86131857D01*
X155788838Y-86131857D02*
X155865028Y-86169952D01*
X155865028Y-86169952D02*
X155903123Y-86208047D01*
X155903123Y-86208047D02*
X155941219Y-86284238D01*
X116517332Y-81436104D02*
X116555428Y-81474200D01*
X116555428Y-81474200D02*
X116669713Y-81512295D01*
X116669713Y-81512295D02*
X116745904Y-81512295D01*
X116745904Y-81512295D02*
X116860190Y-81474200D01*
X116860190Y-81474200D02*
X116936380Y-81398009D01*
X116936380Y-81398009D02*
X116974475Y-81321819D01*
X116974475Y-81321819D02*
X117012571Y-81169438D01*
X117012571Y-81169438D02*
X117012571Y-81055152D01*
X117012571Y-81055152D02*
X116974475Y-80902771D01*
X116974475Y-80902771D02*
X116936380Y-80826580D01*
X116936380Y-80826580D02*
X116860190Y-80750390D01*
X116860190Y-80750390D02*
X116745904Y-80712295D01*
X116745904Y-80712295D02*
X116669713Y-80712295D01*
X116669713Y-80712295D02*
X116555428Y-80750390D01*
X116555428Y-80750390D02*
X116517332Y-80788485D01*
X115831618Y-80978961D02*
X115831618Y-81512295D01*
X116022094Y-80674200D02*
X116212571Y-81245628D01*
X116212571Y-81245628D02*
X115717332Y-81245628D01*
X150074295Y-90993333D02*
X150645723Y-90993333D01*
X150645723Y-90993333D02*
X150760009Y-90955238D01*
X150760009Y-90955238D02*
X150836200Y-90879047D01*
X150836200Y-90879047D02*
X150874295Y-90764762D01*
X150874295Y-90764762D02*
X150874295Y-90688571D01*
X150874295Y-91374286D02*
X150074295Y-91374286D01*
X150074295Y-91374286D02*
X150074295Y-91679048D01*
X150074295Y-91679048D02*
X150112390Y-91755238D01*
X150112390Y-91755238D02*
X150150485Y-91793333D01*
X150150485Y-91793333D02*
X150226676Y-91831429D01*
X150226676Y-91831429D02*
X150340961Y-91831429D01*
X150340961Y-91831429D02*
X150417152Y-91793333D01*
X150417152Y-91793333D02*
X150455247Y-91755238D01*
X150455247Y-91755238D02*
X150493342Y-91679048D01*
X150493342Y-91679048D02*
X150493342Y-91374286D01*
X150874295Y-92593333D02*
X150874295Y-92136190D01*
X150874295Y-92364762D02*
X150074295Y-92364762D01*
X150074295Y-92364762D02*
X150188580Y-92288571D01*
X150188580Y-92288571D02*
X150264771Y-92212381D01*
X150264771Y-92212381D02*
X150302866Y-92136190D01*
X147245104Y-81618714D02*
X147283200Y-81580618D01*
X147283200Y-81580618D02*
X147321295Y-81466333D01*
X147321295Y-81466333D02*
X147321295Y-81390142D01*
X147321295Y-81390142D02*
X147283200Y-81275856D01*
X147283200Y-81275856D02*
X147207009Y-81199666D01*
X147207009Y-81199666D02*
X147130819Y-81161571D01*
X147130819Y-81161571D02*
X146978438Y-81123475D01*
X146978438Y-81123475D02*
X146864152Y-81123475D01*
X146864152Y-81123475D02*
X146711771Y-81161571D01*
X146711771Y-81161571D02*
X146635580Y-81199666D01*
X146635580Y-81199666D02*
X146559390Y-81275856D01*
X146559390Y-81275856D02*
X146521295Y-81390142D01*
X146521295Y-81390142D02*
X146521295Y-81466333D01*
X146521295Y-81466333D02*
X146559390Y-81580618D01*
X146559390Y-81580618D02*
X146597485Y-81618714D01*
X146787961Y-82304428D02*
X147321295Y-82304428D01*
X146483200Y-82113952D02*
X147054628Y-81923475D01*
X147054628Y-81923475D02*
X147054628Y-82418714D01*
X146521295Y-82647285D02*
X146521295Y-83180619D01*
X146521295Y-83180619D02*
X147321295Y-82837761D01*
X164948285Y-77736104D02*
X164986381Y-77774200D01*
X164986381Y-77774200D02*
X165100666Y-77812295D01*
X165100666Y-77812295D02*
X165176857Y-77812295D01*
X165176857Y-77812295D02*
X165291143Y-77774200D01*
X165291143Y-77774200D02*
X165367333Y-77698009D01*
X165367333Y-77698009D02*
X165405428Y-77621819D01*
X165405428Y-77621819D02*
X165443524Y-77469438D01*
X165443524Y-77469438D02*
X165443524Y-77355152D01*
X165443524Y-77355152D02*
X165405428Y-77202771D01*
X165405428Y-77202771D02*
X165367333Y-77126580D01*
X165367333Y-77126580D02*
X165291143Y-77050390D01*
X165291143Y-77050390D02*
X165176857Y-77012295D01*
X165176857Y-77012295D02*
X165100666Y-77012295D01*
X165100666Y-77012295D02*
X164986381Y-77050390D01*
X164986381Y-77050390D02*
X164948285Y-77088485D01*
X164224476Y-77012295D02*
X164605428Y-77012295D01*
X164605428Y-77012295D02*
X164643524Y-77393247D01*
X164643524Y-77393247D02*
X164605428Y-77355152D01*
X164605428Y-77355152D02*
X164529238Y-77317057D01*
X164529238Y-77317057D02*
X164338762Y-77317057D01*
X164338762Y-77317057D02*
X164262571Y-77355152D01*
X164262571Y-77355152D02*
X164224476Y-77393247D01*
X164224476Y-77393247D02*
X164186381Y-77469438D01*
X164186381Y-77469438D02*
X164186381Y-77659914D01*
X164186381Y-77659914D02*
X164224476Y-77736104D01*
X164224476Y-77736104D02*
X164262571Y-77774200D01*
X164262571Y-77774200D02*
X164338762Y-77812295D01*
X164338762Y-77812295D02*
X164529238Y-77812295D01*
X164529238Y-77812295D02*
X164605428Y-77774200D01*
X164605428Y-77774200D02*
X164643524Y-77736104D01*
X163919714Y-77012295D02*
X163424476Y-77012295D01*
X163424476Y-77012295D02*
X163691142Y-77317057D01*
X163691142Y-77317057D02*
X163576857Y-77317057D01*
X163576857Y-77317057D02*
X163500666Y-77355152D01*
X163500666Y-77355152D02*
X163462571Y-77393247D01*
X163462571Y-77393247D02*
X163424476Y-77469438D01*
X163424476Y-77469438D02*
X163424476Y-77659914D01*
X163424476Y-77659914D02*
X163462571Y-77736104D01*
X163462571Y-77736104D02*
X163500666Y-77774200D01*
X163500666Y-77774200D02*
X163576857Y-77812295D01*
X163576857Y-77812295D02*
X163805428Y-77812295D01*
X163805428Y-77812295D02*
X163881619Y-77774200D01*
X163881619Y-77774200D02*
X163919714Y-77736104D01*
X175927285Y-76308104D02*
X175965381Y-76346200D01*
X175965381Y-76346200D02*
X176079666Y-76384295D01*
X176079666Y-76384295D02*
X176155857Y-76384295D01*
X176155857Y-76384295D02*
X176270143Y-76346200D01*
X176270143Y-76346200D02*
X176346333Y-76270009D01*
X176346333Y-76270009D02*
X176384428Y-76193819D01*
X176384428Y-76193819D02*
X176422524Y-76041438D01*
X176422524Y-76041438D02*
X176422524Y-75927152D01*
X176422524Y-75927152D02*
X176384428Y-75774771D01*
X176384428Y-75774771D02*
X176346333Y-75698580D01*
X176346333Y-75698580D02*
X176270143Y-75622390D01*
X176270143Y-75622390D02*
X176155857Y-75584295D01*
X176155857Y-75584295D02*
X176079666Y-75584295D01*
X176079666Y-75584295D02*
X175965381Y-75622390D01*
X175965381Y-75622390D02*
X175927285Y-75660485D01*
X175203476Y-75584295D02*
X175584428Y-75584295D01*
X175584428Y-75584295D02*
X175622524Y-75965247D01*
X175622524Y-75965247D02*
X175584428Y-75927152D01*
X175584428Y-75927152D02*
X175508238Y-75889057D01*
X175508238Y-75889057D02*
X175317762Y-75889057D01*
X175317762Y-75889057D02*
X175241571Y-75927152D01*
X175241571Y-75927152D02*
X175203476Y-75965247D01*
X175203476Y-75965247D02*
X175165381Y-76041438D01*
X175165381Y-76041438D02*
X175165381Y-76231914D01*
X175165381Y-76231914D02*
X175203476Y-76308104D01*
X175203476Y-76308104D02*
X175241571Y-76346200D01*
X175241571Y-76346200D02*
X175317762Y-76384295D01*
X175317762Y-76384295D02*
X175508238Y-76384295D01*
X175508238Y-76384295D02*
X175584428Y-76346200D01*
X175584428Y-76346200D02*
X175622524Y-76308104D01*
X174708238Y-75927152D02*
X174784428Y-75889057D01*
X174784428Y-75889057D02*
X174822523Y-75850961D01*
X174822523Y-75850961D02*
X174860619Y-75774771D01*
X174860619Y-75774771D02*
X174860619Y-75736676D01*
X174860619Y-75736676D02*
X174822523Y-75660485D01*
X174822523Y-75660485D02*
X174784428Y-75622390D01*
X174784428Y-75622390D02*
X174708238Y-75584295D01*
X174708238Y-75584295D02*
X174555857Y-75584295D01*
X174555857Y-75584295D02*
X174479666Y-75622390D01*
X174479666Y-75622390D02*
X174441571Y-75660485D01*
X174441571Y-75660485D02*
X174403476Y-75736676D01*
X174403476Y-75736676D02*
X174403476Y-75774771D01*
X174403476Y-75774771D02*
X174441571Y-75850961D01*
X174441571Y-75850961D02*
X174479666Y-75889057D01*
X174479666Y-75889057D02*
X174555857Y-75927152D01*
X174555857Y-75927152D02*
X174708238Y-75927152D01*
X174708238Y-75927152D02*
X174784428Y-75965247D01*
X174784428Y-75965247D02*
X174822523Y-76003342D01*
X174822523Y-76003342D02*
X174860619Y-76079533D01*
X174860619Y-76079533D02*
X174860619Y-76231914D01*
X174860619Y-76231914D02*
X174822523Y-76308104D01*
X174822523Y-76308104D02*
X174784428Y-76346200D01*
X174784428Y-76346200D02*
X174708238Y-76384295D01*
X174708238Y-76384295D02*
X174555857Y-76384295D01*
X174555857Y-76384295D02*
X174479666Y-76346200D01*
X174479666Y-76346200D02*
X174441571Y-76308104D01*
X174441571Y-76308104D02*
X174403476Y-76231914D01*
X174403476Y-76231914D02*
X174403476Y-76079533D01*
X174403476Y-76079533D02*
X174441571Y-76003342D01*
X174441571Y-76003342D02*
X174479666Y-75965247D01*
X174479666Y-75965247D02*
X174555857Y-75927152D01*
X122148285Y-83936104D02*
X122186381Y-83974200D01*
X122186381Y-83974200D02*
X122300666Y-84012295D01*
X122300666Y-84012295D02*
X122376857Y-84012295D01*
X122376857Y-84012295D02*
X122491143Y-83974200D01*
X122491143Y-83974200D02*
X122567333Y-83898009D01*
X122567333Y-83898009D02*
X122605428Y-83821819D01*
X122605428Y-83821819D02*
X122643524Y-83669438D01*
X122643524Y-83669438D02*
X122643524Y-83555152D01*
X122643524Y-83555152D02*
X122605428Y-83402771D01*
X122605428Y-83402771D02*
X122567333Y-83326580D01*
X122567333Y-83326580D02*
X122491143Y-83250390D01*
X122491143Y-83250390D02*
X122376857Y-83212295D01*
X122376857Y-83212295D02*
X122300666Y-83212295D01*
X122300666Y-83212295D02*
X122186381Y-83250390D01*
X122186381Y-83250390D02*
X122148285Y-83288485D01*
X121386381Y-84012295D02*
X121843524Y-84012295D01*
X121614952Y-84012295D02*
X121614952Y-83212295D01*
X121614952Y-83212295D02*
X121691143Y-83326580D01*
X121691143Y-83326580D02*
X121767333Y-83402771D01*
X121767333Y-83402771D02*
X121843524Y-83440866D01*
X120700666Y-83212295D02*
X120853047Y-83212295D01*
X120853047Y-83212295D02*
X120929238Y-83250390D01*
X120929238Y-83250390D02*
X120967333Y-83288485D01*
X120967333Y-83288485D02*
X121043523Y-83402771D01*
X121043523Y-83402771D02*
X121081619Y-83555152D01*
X121081619Y-83555152D02*
X121081619Y-83859914D01*
X121081619Y-83859914D02*
X121043523Y-83936104D01*
X121043523Y-83936104D02*
X121005428Y-83974200D01*
X121005428Y-83974200D02*
X120929238Y-84012295D01*
X120929238Y-84012295D02*
X120776857Y-84012295D01*
X120776857Y-84012295D02*
X120700666Y-83974200D01*
X120700666Y-83974200D02*
X120662571Y-83936104D01*
X120662571Y-83936104D02*
X120624476Y-83859914D01*
X120624476Y-83859914D02*
X120624476Y-83669438D01*
X120624476Y-83669438D02*
X120662571Y-83593247D01*
X120662571Y-83593247D02*
X120700666Y-83555152D01*
X120700666Y-83555152D02*
X120776857Y-83517057D01*
X120776857Y-83517057D02*
X120929238Y-83517057D01*
X120929238Y-83517057D02*
X121005428Y-83555152D01*
X121005428Y-83555152D02*
X121043523Y-83593247D01*
X121043523Y-83593247D02*
X121081619Y-83669438D01*
X170448285Y-88036104D02*
X170486381Y-88074200D01*
X170486381Y-88074200D02*
X170600666Y-88112295D01*
X170600666Y-88112295D02*
X170676857Y-88112295D01*
X170676857Y-88112295D02*
X170791143Y-88074200D01*
X170791143Y-88074200D02*
X170867333Y-87998009D01*
X170867333Y-87998009D02*
X170905428Y-87921819D01*
X170905428Y-87921819D02*
X170943524Y-87769438D01*
X170943524Y-87769438D02*
X170943524Y-87655152D01*
X170943524Y-87655152D02*
X170905428Y-87502771D01*
X170905428Y-87502771D02*
X170867333Y-87426580D01*
X170867333Y-87426580D02*
X170791143Y-87350390D01*
X170791143Y-87350390D02*
X170676857Y-87312295D01*
X170676857Y-87312295D02*
X170600666Y-87312295D01*
X170600666Y-87312295D02*
X170486381Y-87350390D01*
X170486381Y-87350390D02*
X170448285Y-87388485D01*
X169762571Y-87578961D02*
X169762571Y-88112295D01*
X169953047Y-87274200D02*
X170143524Y-87845628D01*
X170143524Y-87845628D02*
X169648285Y-87845628D01*
X169419714Y-87312295D02*
X168924476Y-87312295D01*
X168924476Y-87312295D02*
X169191142Y-87617057D01*
X169191142Y-87617057D02*
X169076857Y-87617057D01*
X169076857Y-87617057D02*
X169000666Y-87655152D01*
X169000666Y-87655152D02*
X168962571Y-87693247D01*
X168962571Y-87693247D02*
X168924476Y-87769438D01*
X168924476Y-87769438D02*
X168924476Y-87959914D01*
X168924476Y-87959914D02*
X168962571Y-88036104D01*
X168962571Y-88036104D02*
X169000666Y-88074200D01*
X169000666Y-88074200D02*
X169076857Y-88112295D01*
X169076857Y-88112295D02*
X169305428Y-88112295D01*
X169305428Y-88112295D02*
X169381619Y-88074200D01*
X169381619Y-88074200D02*
X169419714Y-88036104D01*
X121967332Y-79116104D02*
X122005428Y-79154200D01*
X122005428Y-79154200D02*
X122119713Y-79192295D01*
X122119713Y-79192295D02*
X122195904Y-79192295D01*
X122195904Y-79192295D02*
X122310190Y-79154200D01*
X122310190Y-79154200D02*
X122386380Y-79078009D01*
X122386380Y-79078009D02*
X122424475Y-79001819D01*
X122424475Y-79001819D02*
X122462571Y-78849438D01*
X122462571Y-78849438D02*
X122462571Y-78735152D01*
X122462571Y-78735152D02*
X122424475Y-78582771D01*
X122424475Y-78582771D02*
X122386380Y-78506580D01*
X122386380Y-78506580D02*
X122310190Y-78430390D01*
X122310190Y-78430390D02*
X122195904Y-78392295D01*
X122195904Y-78392295D02*
X122119713Y-78392295D01*
X122119713Y-78392295D02*
X122005428Y-78430390D01*
X122005428Y-78430390D02*
X121967332Y-78468485D01*
X121586380Y-79192295D02*
X121433999Y-79192295D01*
X121433999Y-79192295D02*
X121357809Y-79154200D01*
X121357809Y-79154200D02*
X121319713Y-79116104D01*
X121319713Y-79116104D02*
X121243523Y-79001819D01*
X121243523Y-79001819D02*
X121205428Y-78849438D01*
X121205428Y-78849438D02*
X121205428Y-78544676D01*
X121205428Y-78544676D02*
X121243523Y-78468485D01*
X121243523Y-78468485D02*
X121281618Y-78430390D01*
X121281618Y-78430390D02*
X121357809Y-78392295D01*
X121357809Y-78392295D02*
X121510190Y-78392295D01*
X121510190Y-78392295D02*
X121586380Y-78430390D01*
X121586380Y-78430390D02*
X121624475Y-78468485D01*
X121624475Y-78468485D02*
X121662571Y-78544676D01*
X121662571Y-78544676D02*
X121662571Y-78735152D01*
X121662571Y-78735152D02*
X121624475Y-78811342D01*
X121624475Y-78811342D02*
X121586380Y-78849438D01*
X121586380Y-78849438D02*
X121510190Y-78887533D01*
X121510190Y-78887533D02*
X121357809Y-78887533D01*
X121357809Y-78887533D02*
X121281618Y-78849438D01*
X121281618Y-78849438D02*
X121243523Y-78811342D01*
X121243523Y-78811342D02*
X121205428Y-78735152D01*
X183141666Y-86665295D02*
X183141666Y-87236723D01*
X183141666Y-87236723D02*
X183179761Y-87351009D01*
X183179761Y-87351009D02*
X183255952Y-87427200D01*
X183255952Y-87427200D02*
X183370237Y-87465295D01*
X183370237Y-87465295D02*
X183446428Y-87465295D01*
X182798809Y-86741485D02*
X182760713Y-86703390D01*
X182760713Y-86703390D02*
X182684523Y-86665295D01*
X182684523Y-86665295D02*
X182494047Y-86665295D01*
X182494047Y-86665295D02*
X182417856Y-86703390D01*
X182417856Y-86703390D02*
X182379761Y-86741485D01*
X182379761Y-86741485D02*
X182341666Y-86817676D01*
X182341666Y-86817676D02*
X182341666Y-86893866D01*
X182341666Y-86893866D02*
X182379761Y-87008152D01*
X182379761Y-87008152D02*
X182836904Y-87465295D01*
X182836904Y-87465295D02*
X182341666Y-87465295D01*
X182127285Y-77075104D02*
X182165381Y-77113200D01*
X182165381Y-77113200D02*
X182279666Y-77151295D01*
X182279666Y-77151295D02*
X182355857Y-77151295D01*
X182355857Y-77151295D02*
X182470143Y-77113200D01*
X182470143Y-77113200D02*
X182546333Y-77037009D01*
X182546333Y-77037009D02*
X182584428Y-76960819D01*
X182584428Y-76960819D02*
X182622524Y-76808438D01*
X182622524Y-76808438D02*
X182622524Y-76694152D01*
X182622524Y-76694152D02*
X182584428Y-76541771D01*
X182584428Y-76541771D02*
X182546333Y-76465580D01*
X182546333Y-76465580D02*
X182470143Y-76389390D01*
X182470143Y-76389390D02*
X182355857Y-76351295D01*
X182355857Y-76351295D02*
X182279666Y-76351295D01*
X182279666Y-76351295D02*
X182165381Y-76389390D01*
X182165381Y-76389390D02*
X182127285Y-76427485D01*
X181403476Y-76351295D02*
X181784428Y-76351295D01*
X181784428Y-76351295D02*
X181822524Y-76732247D01*
X181822524Y-76732247D02*
X181784428Y-76694152D01*
X181784428Y-76694152D02*
X181708238Y-76656057D01*
X181708238Y-76656057D02*
X181517762Y-76656057D01*
X181517762Y-76656057D02*
X181441571Y-76694152D01*
X181441571Y-76694152D02*
X181403476Y-76732247D01*
X181403476Y-76732247D02*
X181365381Y-76808438D01*
X181365381Y-76808438D02*
X181365381Y-76998914D01*
X181365381Y-76998914D02*
X181403476Y-77075104D01*
X181403476Y-77075104D02*
X181441571Y-77113200D01*
X181441571Y-77113200D02*
X181517762Y-77151295D01*
X181517762Y-77151295D02*
X181708238Y-77151295D01*
X181708238Y-77151295D02*
X181784428Y-77113200D01*
X181784428Y-77113200D02*
X181822524Y-77075104D01*
X180984428Y-77151295D02*
X180832047Y-77151295D01*
X180832047Y-77151295D02*
X180755857Y-77113200D01*
X180755857Y-77113200D02*
X180717761Y-77075104D01*
X180717761Y-77075104D02*
X180641571Y-76960819D01*
X180641571Y-76960819D02*
X180603476Y-76808438D01*
X180603476Y-76808438D02*
X180603476Y-76503676D01*
X180603476Y-76503676D02*
X180641571Y-76427485D01*
X180641571Y-76427485D02*
X180679666Y-76389390D01*
X180679666Y-76389390D02*
X180755857Y-76351295D01*
X180755857Y-76351295D02*
X180908238Y-76351295D01*
X180908238Y-76351295D02*
X180984428Y-76389390D01*
X180984428Y-76389390D02*
X181022523Y-76427485D01*
X181022523Y-76427485D02*
X181060619Y-76503676D01*
X181060619Y-76503676D02*
X181060619Y-76694152D01*
X181060619Y-76694152D02*
X181022523Y-76770342D01*
X181022523Y-76770342D02*
X180984428Y-76808438D01*
X180984428Y-76808438D02*
X180908238Y-76846533D01*
X180908238Y-76846533D02*
X180755857Y-76846533D01*
X180755857Y-76846533D02*
X180679666Y-76808438D01*
X180679666Y-76808438D02*
X180641571Y-76770342D01*
X180641571Y-76770342D02*
X180603476Y-76694152D01*
X162720104Y-76535714D02*
X162758200Y-76497618D01*
X162758200Y-76497618D02*
X162796295Y-76383333D01*
X162796295Y-76383333D02*
X162796295Y-76307142D01*
X162796295Y-76307142D02*
X162758200Y-76192856D01*
X162758200Y-76192856D02*
X162682009Y-76116666D01*
X162682009Y-76116666D02*
X162605819Y-76078571D01*
X162605819Y-76078571D02*
X162453438Y-76040475D01*
X162453438Y-76040475D02*
X162339152Y-76040475D01*
X162339152Y-76040475D02*
X162186771Y-76078571D01*
X162186771Y-76078571D02*
X162110580Y-76116666D01*
X162110580Y-76116666D02*
X162034390Y-76192856D01*
X162034390Y-76192856D02*
X161996295Y-76307142D01*
X161996295Y-76307142D02*
X161996295Y-76383333D01*
X161996295Y-76383333D02*
X162034390Y-76497618D01*
X162034390Y-76497618D02*
X162072485Y-76535714D01*
X161996295Y-77259523D02*
X161996295Y-76878571D01*
X161996295Y-76878571D02*
X162377247Y-76840475D01*
X162377247Y-76840475D02*
X162339152Y-76878571D01*
X162339152Y-76878571D02*
X162301057Y-76954761D01*
X162301057Y-76954761D02*
X162301057Y-77145237D01*
X162301057Y-77145237D02*
X162339152Y-77221428D01*
X162339152Y-77221428D02*
X162377247Y-77259523D01*
X162377247Y-77259523D02*
X162453438Y-77297618D01*
X162453438Y-77297618D02*
X162643914Y-77297618D01*
X162643914Y-77297618D02*
X162720104Y-77259523D01*
X162720104Y-77259523D02*
X162758200Y-77221428D01*
X162758200Y-77221428D02*
X162796295Y-77145237D01*
X162796295Y-77145237D02*
X162796295Y-76954761D01*
X162796295Y-76954761D02*
X162758200Y-76878571D01*
X162758200Y-76878571D02*
X162720104Y-76840475D01*
X162262961Y-77983333D02*
X162796295Y-77983333D01*
X161958200Y-77792857D02*
X162529628Y-77602380D01*
X162529628Y-77602380D02*
X162529628Y-78097619D01*
X151720104Y-85835714D02*
X151758200Y-85797618D01*
X151758200Y-85797618D02*
X151796295Y-85683333D01*
X151796295Y-85683333D02*
X151796295Y-85607142D01*
X151796295Y-85607142D02*
X151758200Y-85492856D01*
X151758200Y-85492856D02*
X151682009Y-85416666D01*
X151682009Y-85416666D02*
X151605819Y-85378571D01*
X151605819Y-85378571D02*
X151453438Y-85340475D01*
X151453438Y-85340475D02*
X151339152Y-85340475D01*
X151339152Y-85340475D02*
X151186771Y-85378571D01*
X151186771Y-85378571D02*
X151110580Y-85416666D01*
X151110580Y-85416666D02*
X151034390Y-85492856D01*
X151034390Y-85492856D02*
X150996295Y-85607142D01*
X150996295Y-85607142D02*
X150996295Y-85683333D01*
X150996295Y-85683333D02*
X151034390Y-85797618D01*
X151034390Y-85797618D02*
X151072485Y-85835714D01*
X151072485Y-86140475D02*
X151034390Y-86178571D01*
X151034390Y-86178571D02*
X150996295Y-86254761D01*
X150996295Y-86254761D02*
X150996295Y-86445237D01*
X150996295Y-86445237D02*
X151034390Y-86521428D01*
X151034390Y-86521428D02*
X151072485Y-86559523D01*
X151072485Y-86559523D02*
X151148676Y-86597618D01*
X151148676Y-86597618D02*
X151224866Y-86597618D01*
X151224866Y-86597618D02*
X151339152Y-86559523D01*
X151339152Y-86559523D02*
X151796295Y-86102380D01*
X151796295Y-86102380D02*
X151796295Y-86597618D01*
X150996295Y-86864285D02*
X150996295Y-87359523D01*
X150996295Y-87359523D02*
X151301057Y-87092857D01*
X151301057Y-87092857D02*
X151301057Y-87207142D01*
X151301057Y-87207142D02*
X151339152Y-87283333D01*
X151339152Y-87283333D02*
X151377247Y-87321428D01*
X151377247Y-87321428D02*
X151453438Y-87359523D01*
X151453438Y-87359523D02*
X151643914Y-87359523D01*
X151643914Y-87359523D02*
X151720104Y-87321428D01*
X151720104Y-87321428D02*
X151758200Y-87283333D01*
X151758200Y-87283333D02*
X151796295Y-87207142D01*
X151796295Y-87207142D02*
X151796295Y-86978571D01*
X151796295Y-86978571D02*
X151758200Y-86902380D01*
X151758200Y-86902380D02*
X151720104Y-86864285D01*
X138448285Y-88036104D02*
X138486381Y-88074200D01*
X138486381Y-88074200D02*
X138600666Y-88112295D01*
X138600666Y-88112295D02*
X138676857Y-88112295D01*
X138676857Y-88112295D02*
X138791143Y-88074200D01*
X138791143Y-88074200D02*
X138867333Y-87998009D01*
X138867333Y-87998009D02*
X138905428Y-87921819D01*
X138905428Y-87921819D02*
X138943524Y-87769438D01*
X138943524Y-87769438D02*
X138943524Y-87655152D01*
X138943524Y-87655152D02*
X138905428Y-87502771D01*
X138905428Y-87502771D02*
X138867333Y-87426580D01*
X138867333Y-87426580D02*
X138791143Y-87350390D01*
X138791143Y-87350390D02*
X138676857Y-87312295D01*
X138676857Y-87312295D02*
X138600666Y-87312295D01*
X138600666Y-87312295D02*
X138486381Y-87350390D01*
X138486381Y-87350390D02*
X138448285Y-87388485D01*
X137762571Y-87578961D02*
X137762571Y-88112295D01*
X137953047Y-87274200D02*
X138143524Y-87845628D01*
X138143524Y-87845628D02*
X137648285Y-87845628D01*
X137229238Y-87655152D02*
X137305428Y-87617057D01*
X137305428Y-87617057D02*
X137343523Y-87578961D01*
X137343523Y-87578961D02*
X137381619Y-87502771D01*
X137381619Y-87502771D02*
X137381619Y-87464676D01*
X137381619Y-87464676D02*
X137343523Y-87388485D01*
X137343523Y-87388485D02*
X137305428Y-87350390D01*
X137305428Y-87350390D02*
X137229238Y-87312295D01*
X137229238Y-87312295D02*
X137076857Y-87312295D01*
X137076857Y-87312295D02*
X137000666Y-87350390D01*
X137000666Y-87350390D02*
X136962571Y-87388485D01*
X136962571Y-87388485D02*
X136924476Y-87464676D01*
X136924476Y-87464676D02*
X136924476Y-87502771D01*
X136924476Y-87502771D02*
X136962571Y-87578961D01*
X136962571Y-87578961D02*
X137000666Y-87617057D01*
X137000666Y-87617057D02*
X137076857Y-87655152D01*
X137076857Y-87655152D02*
X137229238Y-87655152D01*
X137229238Y-87655152D02*
X137305428Y-87693247D01*
X137305428Y-87693247D02*
X137343523Y-87731342D01*
X137343523Y-87731342D02*
X137381619Y-87807533D01*
X137381619Y-87807533D02*
X137381619Y-87959914D01*
X137381619Y-87959914D02*
X137343523Y-88036104D01*
X137343523Y-88036104D02*
X137305428Y-88074200D01*
X137305428Y-88074200D02*
X137229238Y-88112295D01*
X137229238Y-88112295D02*
X137076857Y-88112295D01*
X137076857Y-88112295D02*
X137000666Y-88074200D01*
X137000666Y-88074200D02*
X136962571Y-88036104D01*
X136962571Y-88036104D02*
X136924476Y-87959914D01*
X136924476Y-87959914D02*
X136924476Y-87807533D01*
X136924476Y-87807533D02*
X136962571Y-87731342D01*
X136962571Y-87731342D02*
X137000666Y-87693247D01*
X137000666Y-87693247D02*
X137076857Y-87655152D01*
D11*
X137629000Y-79045748D02*
X137629000Y-79568252D01*
X136159000Y-79045748D02*
X136159000Y-79568252D01*
X159865548Y-83345400D02*
X160388052Y-83345400D01*
X159865548Y-84815400D02*
X160388052Y-84815400D01*
X177651748Y-80687000D02*
X178174252Y-80687000D01*
X177651748Y-82157000D02*
X178174252Y-82157000D01*
X149701000Y-79221748D02*
X149701000Y-79744252D01*
X148231000Y-79221748D02*
X148231000Y-79744252D01*
X129644000Y-79155748D02*
X129644000Y-79678252D01*
X128174000Y-79155748D02*
X128174000Y-79678252D01*
X175969148Y-84587000D02*
X176491652Y-84587000D01*
X175969148Y-86057000D02*
X176491652Y-86057000D01*
X179673000Y-84058436D02*
X179673000Y-84512564D01*
X178203000Y-84058436D02*
X178203000Y-84512564D01*
X132769000Y-83922936D02*
X132769000Y-84377064D01*
X131299000Y-83922936D02*
X131299000Y-84377064D01*
X141589000Y-80938748D02*
X141589000Y-81461252D01*
X140119000Y-80938748D02*
X140119000Y-81461252D01*
X145637000Y-79221748D02*
X145637000Y-79744252D01*
X144167000Y-79221748D02*
X144167000Y-79744252D01*
X121475948Y-86393400D02*
X121998452Y-86393400D01*
X121475948Y-87863400D02*
X121998452Y-87863400D01*
X164669000Y-83822936D02*
X164669000Y-84277064D01*
X163199000Y-83822936D02*
X163199000Y-84277064D01*
X160352452Y-87050600D02*
X159829948Y-87050600D01*
X160352452Y-85580600D02*
X159829948Y-85580600D01*
X173761400Y-81030748D02*
X173761400Y-81553252D01*
X172291400Y-81030748D02*
X172291400Y-81553252D01*
X155748000Y-81060748D02*
X155748000Y-81583252D01*
X154278000Y-81060748D02*
X154278000Y-81583252D01*
X159748000Y-81110748D02*
X159748000Y-81633252D01*
X158278000Y-81110748D02*
X158278000Y-81633252D01*
X171761400Y-81030748D02*
X171761400Y-81553252D01*
X170291400Y-81030748D02*
X170291400Y-81553252D01*
X128130052Y-87050600D02*
X127607548Y-87050600D01*
X128130052Y-85580600D02*
X127607548Y-85580600D01*
X151733000Y-79221748D02*
X151733000Y-79744252D01*
X150263000Y-79221748D02*
X150263000Y-79744252D01*
X154154852Y-84764600D02*
X153632348Y-84764600D01*
X154154852Y-83294600D02*
X153632348Y-83294600D01*
X131644000Y-79105748D02*
X131644000Y-79628252D01*
X130174000Y-79105748D02*
X130174000Y-79628252D01*
X149751800Y-83751736D02*
X149751800Y-84205864D01*
X148281800Y-83751736D02*
X148281800Y-84205864D01*
X127622748Y-83243800D02*
X128145252Y-83243800D01*
X127622748Y-84713800D02*
X128145252Y-84713800D01*
X138305252Y-84663000D02*
X137782748Y-84663000D01*
X138305252Y-83193000D02*
X137782748Y-83193000D01*
X135644000Y-79055748D02*
X135644000Y-79578252D01*
X134174000Y-79055748D02*
X134174000Y-79578252D01*
X118072748Y-76215000D02*
X118595252Y-76215000D01*
X118072748Y-77685000D02*
X118595252Y-77685000D01*
X110309936Y-89509000D02*
X110764064Y-89509000D01*
X110309936Y-90979000D02*
X110764064Y-90979000D01*
X161766000Y-79348748D02*
X161766000Y-79871252D01*
X160296000Y-79348748D02*
X160296000Y-79871252D01*
X127619000Y-80988748D02*
X127619000Y-81511252D01*
X126149000Y-80988748D02*
X126149000Y-81511252D01*
X125619000Y-80938748D02*
X125619000Y-81461252D01*
X124149000Y-80938748D02*
X124149000Y-81461252D01*
X153716000Y-79155748D02*
X153716000Y-79678252D01*
X152246000Y-79155748D02*
X152246000Y-79678252D01*
X118200548Y-88478200D02*
X118723052Y-88478200D01*
X118200548Y-89948200D02*
X118723052Y-89948200D01*
X176471252Y-88066600D02*
X175948748Y-88066600D01*
X176471252Y-86596600D02*
X175948748Y-86596600D01*
X169799000Y-79338748D02*
X169799000Y-79861252D01*
X168329000Y-79338748D02*
X168329000Y-79861252D01*
X118847748Y-78415000D02*
X119370252Y-78415000D01*
X118847748Y-79885000D02*
X119370252Y-79885000D01*
X167836600Y-79348748D02*
X167836600Y-79871252D01*
X166366600Y-79348748D02*
X166366600Y-79871252D01*
X177651748Y-78677000D02*
X178174252Y-78677000D01*
X177651748Y-80147000D02*
X178174252Y-80147000D01*
X117051800Y-87798200D02*
X117051800Y-87998200D01*
X117051800Y-87998200D02*
X119836800Y-87998200D01*
X119836800Y-84328200D02*
X117236800Y-84328200D01*
X175761400Y-81030748D02*
X175761400Y-81553252D01*
X174291400Y-81030748D02*
X174291400Y-81553252D01*
X157748000Y-81110748D02*
X157748000Y-81633252D01*
X156278000Y-81110748D02*
X156278000Y-81633252D01*
X170156852Y-84713800D02*
X169634348Y-84713800D01*
X170156852Y-83243800D02*
X169634348Y-83243800D01*
X167894000Y-82938748D02*
X167894000Y-84361252D01*
X165174000Y-82938748D02*
X165174000Y-84361252D01*
X105194000Y-88835000D02*
X103274000Y-88835000D01*
X105194000Y-88550000D02*
X105194000Y-88835000D01*
X105194000Y-86010000D02*
X105194000Y-87380000D01*
X105194000Y-83470000D02*
X105194000Y-84840000D01*
X105194000Y-80930000D02*
X105194000Y-82300000D01*
X105194000Y-78390000D02*
X105194000Y-79760000D01*
X105194000Y-75665000D02*
X105194000Y-77220000D01*
X105194000Y-75665000D02*
X103274000Y-75665000D01*
X103274000Y-87280000D02*
X103274000Y-88835000D01*
X103274000Y-84740000D02*
X103274000Y-86110000D01*
X103274000Y-82200000D02*
X103274000Y-83570000D01*
X103274000Y-79660000D02*
X103274000Y-81030000D01*
X103274000Y-77120000D02*
X103274000Y-78490000D01*
X103274000Y-75950000D02*
X102044000Y-75950000D01*
X103274000Y-75665000D02*
X103274000Y-75950000D01*
X143827948Y-83193000D02*
X144350452Y-83193000D01*
X143827948Y-84663000D02*
X144350452Y-84663000D01*
X144350452Y-87050600D02*
X143827948Y-87050600D01*
X144350452Y-85580600D02*
X143827948Y-85580600D01*
X132174000Y-79578252D02*
X132174000Y-79055748D01*
X133644000Y-79578252D02*
X133644000Y-79055748D01*
X110764064Y-89074000D02*
X110309936Y-89074000D01*
X110764064Y-87604000D02*
X110309936Y-87604000D01*
X139589000Y-80938748D02*
X139589000Y-81461252D01*
X138119000Y-80938748D02*
X138119000Y-81461252D01*
X135994000Y-82738748D02*
X135994000Y-84161252D01*
X133274000Y-82738748D02*
X133274000Y-84161252D01*
X143589000Y-80938748D02*
X143589000Y-81461252D01*
X142119000Y-80938748D02*
X142119000Y-81461252D01*
X123619000Y-80988748D02*
X123619000Y-81511252D01*
X122149000Y-80988748D02*
X122149000Y-81511252D01*
X153632348Y-85529800D02*
X154154852Y-85529800D01*
X153632348Y-86999800D02*
X154154852Y-86999800D01*
X118847748Y-80415000D02*
X119370252Y-80415000D01*
X118847748Y-81885000D02*
X119370252Y-81885000D01*
X143110975Y-93060000D02*
X149012000Y-93060000D01*
X149712000Y-92360000D02*
X149712000Y-90960000D01*
X142410975Y-90960000D02*
X142410975Y-92360000D01*
X149012000Y-90260000D02*
X143110975Y-90260000D01*
X142410975Y-92360000D02*
G75*
G03*
X143110975Y-93060000I699999J-1D01*
G01*
X149012000Y-93060000D02*
G75*
G03*
X149712000Y-92360000I1J699999D01*
G01*
X143110975Y-90260000D02*
G75*
G03*
X142410975Y-90960000I-4J-699996D01*
G01*
X149712000Y-90960000D02*
G75*
G03*
X149012000Y-90260000I-700000J0D01*
G01*
X147669000Y-79221748D02*
X147669000Y-79744252D01*
X146199000Y-79221748D02*
X146199000Y-79744252D01*
X165830000Y-79348748D02*
X165830000Y-79871252D01*
X164360000Y-79348748D02*
X164360000Y-79871252D01*
X175101748Y-76687000D02*
X175624252Y-76687000D01*
X175101748Y-78157000D02*
X175624252Y-78157000D01*
X122049252Y-85885000D02*
X121526748Y-85885000D01*
X122049252Y-84415000D02*
X121526748Y-84415000D01*
X169634348Y-85580600D02*
X170156852Y-85580600D01*
X169634348Y-87050600D02*
X170156852Y-87050600D01*
X121572748Y-76415000D02*
X122095252Y-76415000D01*
X121572748Y-77885000D02*
X122095252Y-77885000D01*
X183694000Y-86295000D02*
X181774000Y-86295000D01*
X183694000Y-86010000D02*
X183694000Y-86295000D01*
X183694000Y-83470000D02*
X183694000Y-84840000D01*
X183694000Y-80930000D02*
X183694000Y-82300000D01*
X183694000Y-78205000D02*
X183694000Y-79760000D01*
X183694000Y-78205000D02*
X181774000Y-78205000D01*
X181774000Y-84740000D02*
X181774000Y-86295000D01*
X181774000Y-82200000D02*
X181774000Y-83570000D01*
X181774000Y-79660000D02*
X181774000Y-81030000D01*
X181774000Y-78490000D02*
X180544000Y-78490000D01*
X181774000Y-78205000D02*
X181774000Y-78490000D01*
X178601748Y-75954000D02*
X179124252Y-75954000D01*
X178601748Y-77424000D02*
X179124252Y-77424000D01*
X163798000Y-79370748D02*
X163798000Y-79893252D01*
X162328000Y-79370748D02*
X162328000Y-79893252D01*
X152241000Y-89000748D02*
X152241000Y-89523252D01*
X150771000Y-89000748D02*
X150771000Y-89523252D01*
X137731948Y-85631400D02*
X138254452Y-85631400D01*
X137731948Y-87101400D02*
X138254452Y-87101400D01*
%LPC*%
D12*
X165234000Y-89600000D03*
D13*
X189734000Y-91975000D03*
X187453581Y-91030419D03*
X192014419Y-91030419D03*
X186509000Y-88750000D03*
D14*
X189734000Y-88750000D03*
D13*
X192959000Y-88750000D03*
X187453581Y-86469581D03*
X192014419Y-86469581D03*
X189734000Y-85525000D03*
D12*
X133234000Y-89600000D03*
X133234000Y-74900000D03*
D13*
X96734000Y-78975000D03*
X94453581Y-78030419D03*
X99014419Y-78030419D03*
X93509000Y-75750000D03*
D14*
X96734000Y-75750000D03*
D13*
X99959000Y-75750000D03*
X94453581Y-73469581D03*
X99014419Y-73469581D03*
X96734000Y-72525000D03*
X189734000Y-78975000D03*
X187453581Y-78030419D03*
X192014419Y-78030419D03*
X186509000Y-75750000D03*
D14*
X189734000Y-75750000D03*
D13*
X192959000Y-75750000D03*
X187453581Y-73469581D03*
X192014419Y-73469581D03*
X189734000Y-72525000D03*
D12*
X165234000Y-74900000D03*
D13*
X96734000Y-91975000D03*
X94453581Y-91030419D03*
X99014419Y-91030419D03*
X93509000Y-88750000D03*
D14*
X96734000Y-88750000D03*
D13*
X99959000Y-88750000D03*
X94453581Y-86469581D03*
X99014419Y-86469581D03*
X96734000Y-85525000D03*
D15*
X136894000Y-78357000D03*
X136894000Y-80257000D03*
D16*
X159176800Y-84080400D03*
X161076800Y-84080400D03*
X176963000Y-81422000D03*
X178863000Y-81422000D03*
D15*
X148966000Y-78533000D03*
X148966000Y-80433000D03*
X128909000Y-78467000D03*
X128909000Y-80367000D03*
D16*
X175280400Y-85322000D03*
X177180400Y-85322000D03*
D17*
X178938000Y-83373000D03*
X178938000Y-85198000D03*
X132034000Y-83237500D03*
X132034000Y-85062500D03*
D15*
X140854000Y-80250000D03*
X140854000Y-82150000D03*
X144902000Y-78533000D03*
X144902000Y-80433000D03*
D16*
X120787200Y-87128400D03*
X122687200Y-87128400D03*
D17*
X163934000Y-83137500D03*
X163934000Y-84962500D03*
D18*
X161041200Y-86315600D03*
X159141200Y-86315600D03*
D15*
X173026400Y-80342000D03*
X173026400Y-82242000D03*
X155013000Y-80372000D03*
X155013000Y-82272000D03*
X159013000Y-80422000D03*
X159013000Y-82322000D03*
X171026400Y-80342000D03*
X171026400Y-82242000D03*
D18*
X128818800Y-86315600D03*
X126918800Y-86315600D03*
D15*
X150998000Y-78533000D03*
X150998000Y-80433000D03*
D18*
X154843600Y-84029600D03*
X152943600Y-84029600D03*
D15*
X130909000Y-78417000D03*
X130909000Y-80317000D03*
D17*
X149016800Y-83066300D03*
X149016800Y-84891300D03*
D16*
X126934000Y-83978800D03*
X128834000Y-83978800D03*
D18*
X138994000Y-83928000D03*
X137094000Y-83928000D03*
D15*
X134909000Y-78367000D03*
X134909000Y-80267000D03*
D16*
X117384000Y-76950000D03*
X119284000Y-76950000D03*
D19*
X109624500Y-90244000D03*
X111449500Y-90244000D03*
D15*
X161031000Y-78660000D03*
X161031000Y-80560000D03*
X126884000Y-80300000D03*
X126884000Y-82200000D03*
X124884000Y-80250000D03*
X124884000Y-82150000D03*
X152981000Y-78467000D03*
X152981000Y-80367000D03*
D16*
X117511800Y-89213200D03*
X119411800Y-89213200D03*
D18*
X177160000Y-87331600D03*
X175260000Y-87331600D03*
D15*
X169064000Y-78650000D03*
X169064000Y-80550000D03*
D16*
X118159000Y-79150000D03*
X120059000Y-79150000D03*
D15*
X167101600Y-78660000D03*
X167101600Y-80560000D03*
D16*
X176963000Y-79412000D03*
X178863000Y-79412000D03*
D20*
X117761800Y-87238200D03*
X117761800Y-85088200D03*
X119311800Y-85088200D03*
X119311800Y-87238200D03*
D15*
X175026400Y-80342000D03*
X175026400Y-82242000D03*
X157013000Y-80422000D03*
X157013000Y-82322000D03*
D18*
X170845600Y-83978800D03*
X168945600Y-83978800D03*
D21*
X166534000Y-82175000D03*
X166534000Y-85125000D03*
D22*
X102884000Y-76535000D03*
X105584000Y-77805000D03*
X102884000Y-79075000D03*
X105584000Y-80345000D03*
X102884000Y-81615000D03*
X105584000Y-82885000D03*
X102884000Y-84155000D03*
X105584000Y-85425000D03*
X102884000Y-86695000D03*
X105584000Y-87965000D03*
D16*
X143139200Y-83928000D03*
X145039200Y-83928000D03*
D18*
X145039200Y-86315600D03*
X143139200Y-86315600D03*
D23*
X132909000Y-80267000D03*
X132909000Y-78367000D03*
D24*
X111449500Y-88339000D03*
X109624500Y-88339000D03*
D15*
X138854000Y-80250000D03*
X138854000Y-82150000D03*
D21*
X134634000Y-81975000D03*
X134634000Y-84925000D03*
D15*
X142854000Y-80250000D03*
X142854000Y-82150000D03*
X122884000Y-80300000D03*
X122884000Y-82200000D03*
D16*
X152943600Y-86264800D03*
X154843600Y-86264800D03*
X118159000Y-81150000D03*
X120059000Y-81150000D03*
D25*
X143378000Y-92310000D03*
D26*
X146045000Y-92310000D03*
D25*
X148712000Y-92310000D03*
D27*
X148712000Y-91010000D03*
X146934000Y-91010000D03*
X145156000Y-91010000D03*
X143378000Y-91010000D03*
D15*
X146934000Y-78533000D03*
X146934000Y-80433000D03*
X165095000Y-78660000D03*
X165095000Y-80560000D03*
D16*
X174413000Y-77422000D03*
X176313000Y-77422000D03*
D18*
X122738000Y-85150000D03*
X120838000Y-85150000D03*
D16*
X168945600Y-86315600D03*
X170845600Y-86315600D03*
X120884000Y-77150000D03*
X122784000Y-77150000D03*
D22*
X181384000Y-79075000D03*
X184084000Y-80345000D03*
X181384000Y-81615000D03*
X184084000Y-82885000D03*
X181384000Y-84155000D03*
X184084000Y-85425000D03*
D16*
X177913000Y-76689000D03*
X179813000Y-76689000D03*
D15*
X163063000Y-78682000D03*
X163063000Y-80582000D03*
X151506000Y-88312000D03*
X151506000Y-90212000D03*
D16*
X137043200Y-86366400D03*
X138943200Y-86366400D03*
%LPD*%
M02*
