G04 #@! TF.GenerationSoftware,KiCad,Pcbnew,7.0.7-7.0.7~ubuntu22.04.1*
G04 #@! TF.CreationDate,2024-03-13T22:54:31+01:00*
G04 #@! TF.ProjectId,flexaxe,666c6578-6178-4652-9e6b-696361645f70,rev?*
G04 #@! TF.SameCoordinates,Original*
G04 #@! TF.FileFunction,Legend,Top*
G04 #@! TF.FilePolarity,Positive*
%FSLAX46Y46*%
G04 Gerber Fmt 4.6, Leading zero omitted, Abs format (unit mm)*
G04 Created by KiCad (PCBNEW 7.0.7-7.0.7~ubuntu22.04.1) date 2024-03-13 22:54:31*
%MOMM*%
%LPD*%
G01*
G04 APERTURE LIST*
G04 Aperture macros list*
%AMRoundRect*
0 Rectangle with rounded corners*
0 $1 Rounding radius*
0 $2 $3 $4 $5 $6 $7 $8 $9 X,Y pos of 4 corners*
0 Add a 4 corners polygon primitive as box body*
4,1,4,$2,$3,$4,$5,$6,$7,$8,$9,$2,$3,0*
0 Add four circle primitives for the rounded corners*
1,1,$1+$1,$2,$3*
1,1,$1+$1,$4,$5*
1,1,$1+$1,$6,$7*
1,1,$1+$1,$8,$9*
0 Add four rect primitives between the rounded corners*
20,1,$1+$1,$2,$3,$4,$5,0*
20,1,$1+$1,$4,$5,$6,$7,0*
20,1,$1+$1,$6,$7,$8,$9,0*
20,1,$1+$1,$8,$9,$2,$3,0*%
G04 Aperture macros list end*
%ADD10C,0.100000*%
%ADD11C,0.150000*%
%ADD12C,0.120000*%
%ADD13C,0.050000*%
%ADD14C,0.227485*%
%ADD15RoundRect,0.250000X-0.475000X0.250000X-0.475000X-0.250000X0.475000X-0.250000X0.475000X0.250000X0*%
%ADD16C,2.700000*%
%ADD17R,0.792000X0.221000*%
%ADD18R,3.900000X1.810000*%
%ADD19R,4.277000X4.530000*%
%ADD20RoundRect,0.150000X0.150000X-0.512500X0.150000X0.512500X-0.150000X0.512500X-0.150000X-0.512500X0*%
%ADD21RoundRect,0.150000X-0.512500X-0.150000X0.512500X-0.150000X0.512500X0.150000X-0.512500X0.150000X0*%
%ADD22C,0.900000*%
%ADD23C,8.600000*%
%ADD24RoundRect,0.150000X-0.825000X-0.150000X0.825000X-0.150000X0.825000X0.150000X-0.825000X0.150000X0*%
%ADD25RoundRect,0.050000X0.100000X-0.285000X0.100000X0.285000X-0.100000X0.285000X-0.100000X-0.285000X0*%
%ADD26RoundRect,0.250000X-1.075000X0.375000X-1.075000X-0.375000X1.075000X-0.375000X1.075000X0.375000X0*%
%ADD27RoundRect,0.250000X-0.275000X-0.700000X0.275000X-0.700000X0.275000X0.700000X-0.275000X0.700000X0*%
G04 APERTURE END LIST*
D10*
X113234000Y-71250000D02*
X185234000Y-71250000D01*
X185234000Y-93250000D02*
X113234000Y-93250000D01*
X113234000Y-93250000D02*
X113234000Y-71250000D01*
X185234000Y-71250000D02*
X185234000Y-93250000D01*
X113234000Y-93250000D02*
X113234000Y-71250000D01*
D11*
X112930104Y-89496932D02*
X112968200Y-89535028D01*
X112968200Y-89535028D02*
X113006295Y-89649313D01*
X113006295Y-89649313D02*
X113006295Y-89725504D01*
X113006295Y-89725504D02*
X112968200Y-89839790D01*
X112968200Y-89839790D02*
X112892009Y-89915980D01*
X112892009Y-89915980D02*
X112815819Y-89954075D01*
X112815819Y-89954075D02*
X112663438Y-89992171D01*
X112663438Y-89992171D02*
X112549152Y-89992171D01*
X112549152Y-89992171D02*
X112396771Y-89954075D01*
X112396771Y-89954075D02*
X112320580Y-89915980D01*
X112320580Y-89915980D02*
X112244390Y-89839790D01*
X112244390Y-89839790D02*
X112206295Y-89725504D01*
X112206295Y-89725504D02*
X112206295Y-89649313D01*
X112206295Y-89649313D02*
X112244390Y-89535028D01*
X112244390Y-89535028D02*
X112282485Y-89496932D01*
X112549152Y-89039790D02*
X112511057Y-89115980D01*
X112511057Y-89115980D02*
X112472961Y-89154075D01*
X112472961Y-89154075D02*
X112396771Y-89192171D01*
X112396771Y-89192171D02*
X112358676Y-89192171D01*
X112358676Y-89192171D02*
X112282485Y-89154075D01*
X112282485Y-89154075D02*
X112244390Y-89115980D01*
X112244390Y-89115980D02*
X112206295Y-89039790D01*
X112206295Y-89039790D02*
X112206295Y-88887409D01*
X112206295Y-88887409D02*
X112244390Y-88811218D01*
X112244390Y-88811218D02*
X112282485Y-88773123D01*
X112282485Y-88773123D02*
X112358676Y-88735028D01*
X112358676Y-88735028D02*
X112396771Y-88735028D01*
X112396771Y-88735028D02*
X112472961Y-88773123D01*
X112472961Y-88773123D02*
X112511057Y-88811218D01*
X112511057Y-88811218D02*
X112549152Y-88887409D01*
X112549152Y-88887409D02*
X112549152Y-89039790D01*
X112549152Y-89039790D02*
X112587247Y-89115980D01*
X112587247Y-89115980D02*
X112625342Y-89154075D01*
X112625342Y-89154075D02*
X112701533Y-89192171D01*
X112701533Y-89192171D02*
X112853914Y-89192171D01*
X112853914Y-89192171D02*
X112930104Y-89154075D01*
X112930104Y-89154075D02*
X112968200Y-89115980D01*
X112968200Y-89115980D02*
X113006295Y-89039790D01*
X113006295Y-89039790D02*
X113006295Y-88887409D01*
X113006295Y-88887409D02*
X112968200Y-88811218D01*
X112968200Y-88811218D02*
X112930104Y-88773123D01*
X112930104Y-88773123D02*
X112853914Y-88735028D01*
X112853914Y-88735028D02*
X112701533Y-88735028D01*
X112701533Y-88735028D02*
X112625342Y-88773123D01*
X112625342Y-88773123D02*
X112587247Y-88811218D01*
X112587247Y-88811218D02*
X112549152Y-88887409D01*
X123504476Y-77612295D02*
X123504476Y-78259914D01*
X123504476Y-78259914D02*
X123542571Y-78336104D01*
X123542571Y-78336104D02*
X123580666Y-78374200D01*
X123580666Y-78374200D02*
X123656857Y-78412295D01*
X123656857Y-78412295D02*
X123809238Y-78412295D01*
X123809238Y-78412295D02*
X123885428Y-78374200D01*
X123885428Y-78374200D02*
X123923523Y-78336104D01*
X123923523Y-78336104D02*
X123961619Y-78259914D01*
X123961619Y-78259914D02*
X123961619Y-77612295D01*
X124456856Y-77955152D02*
X124380666Y-77917057D01*
X124380666Y-77917057D02*
X124342571Y-77878961D01*
X124342571Y-77878961D02*
X124304475Y-77802771D01*
X124304475Y-77802771D02*
X124304475Y-77764676D01*
X124304475Y-77764676D02*
X124342571Y-77688485D01*
X124342571Y-77688485D02*
X124380666Y-77650390D01*
X124380666Y-77650390D02*
X124456856Y-77612295D01*
X124456856Y-77612295D02*
X124609237Y-77612295D01*
X124609237Y-77612295D02*
X124685428Y-77650390D01*
X124685428Y-77650390D02*
X124723523Y-77688485D01*
X124723523Y-77688485D02*
X124761618Y-77764676D01*
X124761618Y-77764676D02*
X124761618Y-77802771D01*
X124761618Y-77802771D02*
X124723523Y-77878961D01*
X124723523Y-77878961D02*
X124685428Y-77917057D01*
X124685428Y-77917057D02*
X124609237Y-77955152D01*
X124609237Y-77955152D02*
X124456856Y-77955152D01*
X124456856Y-77955152D02*
X124380666Y-77993247D01*
X124380666Y-77993247D02*
X124342571Y-78031342D01*
X124342571Y-78031342D02*
X124304475Y-78107533D01*
X124304475Y-78107533D02*
X124304475Y-78259914D01*
X124304475Y-78259914D02*
X124342571Y-78336104D01*
X124342571Y-78336104D02*
X124380666Y-78374200D01*
X124380666Y-78374200D02*
X124456856Y-78412295D01*
X124456856Y-78412295D02*
X124609237Y-78412295D01*
X124609237Y-78412295D02*
X124685428Y-78374200D01*
X124685428Y-78374200D02*
X124723523Y-78336104D01*
X124723523Y-78336104D02*
X124761618Y-78259914D01*
X124761618Y-78259914D02*
X124761618Y-78107533D01*
X124761618Y-78107533D02*
X124723523Y-78031342D01*
X124723523Y-78031342D02*
X124685428Y-77993247D01*
X124685428Y-77993247D02*
X124609237Y-77955152D01*
X110219476Y-90754295D02*
X110219476Y-91401914D01*
X110219476Y-91401914D02*
X110257571Y-91478104D01*
X110257571Y-91478104D02*
X110295666Y-91516200D01*
X110295666Y-91516200D02*
X110371857Y-91554295D01*
X110371857Y-91554295D02*
X110524238Y-91554295D01*
X110524238Y-91554295D02*
X110600428Y-91516200D01*
X110600428Y-91516200D02*
X110638523Y-91478104D01*
X110638523Y-91478104D02*
X110676619Y-91401914D01*
X110676619Y-91401914D02*
X110676619Y-90754295D01*
X110981380Y-90754295D02*
X111476618Y-90754295D01*
X111476618Y-90754295D02*
X111209952Y-91059057D01*
X111209952Y-91059057D02*
X111324237Y-91059057D01*
X111324237Y-91059057D02*
X111400428Y-91097152D01*
X111400428Y-91097152D02*
X111438523Y-91135247D01*
X111438523Y-91135247D02*
X111476618Y-91211438D01*
X111476618Y-91211438D02*
X111476618Y-91401914D01*
X111476618Y-91401914D02*
X111438523Y-91478104D01*
X111438523Y-91478104D02*
X111400428Y-91516200D01*
X111400428Y-91516200D02*
X111324237Y-91554295D01*
X111324237Y-91554295D02*
X111095666Y-91554295D01*
X111095666Y-91554295D02*
X111019475Y-91516200D01*
X111019475Y-91516200D02*
X110981380Y-91478104D01*
X107590476Y-86462295D02*
X107590476Y-87109914D01*
X107590476Y-87109914D02*
X107628571Y-87186104D01*
X107628571Y-87186104D02*
X107666666Y-87224200D01*
X107666666Y-87224200D02*
X107742857Y-87262295D01*
X107742857Y-87262295D02*
X107895238Y-87262295D01*
X107895238Y-87262295D02*
X107971428Y-87224200D01*
X107971428Y-87224200D02*
X108009523Y-87186104D01*
X108009523Y-87186104D02*
X108047619Y-87109914D01*
X108047619Y-87109914D02*
X108047619Y-86462295D01*
X108771428Y-86728961D02*
X108771428Y-87262295D01*
X108580952Y-86424200D02*
X108390475Y-86995628D01*
X108390475Y-86995628D02*
X108885714Y-86995628D01*
X111372714Y-75470104D02*
X111334618Y-75508200D01*
X111334618Y-75508200D02*
X111220333Y-75546295D01*
X111220333Y-75546295D02*
X111144142Y-75546295D01*
X111144142Y-75546295D02*
X111029856Y-75508200D01*
X111029856Y-75508200D02*
X110953666Y-75432009D01*
X110953666Y-75432009D02*
X110915571Y-75355819D01*
X110915571Y-75355819D02*
X110877475Y-75203438D01*
X110877475Y-75203438D02*
X110877475Y-75089152D01*
X110877475Y-75089152D02*
X110915571Y-74936771D01*
X110915571Y-74936771D02*
X110953666Y-74860580D01*
X110953666Y-74860580D02*
X111029856Y-74784390D01*
X111029856Y-74784390D02*
X111144142Y-74746295D01*
X111144142Y-74746295D02*
X111220333Y-74746295D01*
X111220333Y-74746295D02*
X111334618Y-74784390D01*
X111334618Y-74784390D02*
X111372714Y-74822485D01*
X112134618Y-75546295D02*
X111677475Y-75546295D01*
X111906047Y-75546295D02*
X111906047Y-74746295D01*
X111906047Y-74746295D02*
X111829856Y-74860580D01*
X111829856Y-74860580D02*
X111753666Y-74936771D01*
X111753666Y-74936771D02*
X111677475Y-74974866D01*
X112629857Y-74746295D02*
X112706047Y-74746295D01*
X112706047Y-74746295D02*
X112782238Y-74784390D01*
X112782238Y-74784390D02*
X112820333Y-74822485D01*
X112820333Y-74822485D02*
X112858428Y-74898676D01*
X112858428Y-74898676D02*
X112896523Y-75051057D01*
X112896523Y-75051057D02*
X112896523Y-75241533D01*
X112896523Y-75241533D02*
X112858428Y-75393914D01*
X112858428Y-75393914D02*
X112820333Y-75470104D01*
X112820333Y-75470104D02*
X112782238Y-75508200D01*
X112782238Y-75508200D02*
X112706047Y-75546295D01*
X112706047Y-75546295D02*
X112629857Y-75546295D01*
X112629857Y-75546295D02*
X112553666Y-75508200D01*
X112553666Y-75508200D02*
X112515571Y-75470104D01*
X112515571Y-75470104D02*
X112477476Y-75393914D01*
X112477476Y-75393914D02*
X112439380Y-75241533D01*
X112439380Y-75241533D02*
X112439380Y-75051057D01*
X112439380Y-75051057D02*
X112477476Y-74898676D01*
X112477476Y-74898676D02*
X112515571Y-74822485D01*
X112515571Y-74822485D02*
X112553666Y-74784390D01*
X112553666Y-74784390D02*
X112629857Y-74746295D01*
X104927476Y-82239295D02*
X104927476Y-82886914D01*
X104927476Y-82886914D02*
X104965571Y-82963104D01*
X104965571Y-82963104D02*
X105003666Y-83001200D01*
X105003666Y-83001200D02*
X105079857Y-83039295D01*
X105079857Y-83039295D02*
X105232238Y-83039295D01*
X105232238Y-83039295D02*
X105308428Y-83001200D01*
X105308428Y-83001200D02*
X105346523Y-82963104D01*
X105346523Y-82963104D02*
X105384619Y-82886914D01*
X105384619Y-82886914D02*
X105384619Y-82239295D01*
X106146523Y-82239295D02*
X105765571Y-82239295D01*
X105765571Y-82239295D02*
X105727475Y-82620247D01*
X105727475Y-82620247D02*
X105765571Y-82582152D01*
X105765571Y-82582152D02*
X105841761Y-82544057D01*
X105841761Y-82544057D02*
X106032237Y-82544057D01*
X106032237Y-82544057D02*
X106108428Y-82582152D01*
X106108428Y-82582152D02*
X106146523Y-82620247D01*
X106146523Y-82620247D02*
X106184618Y-82696438D01*
X106184618Y-82696438D02*
X106184618Y-82886914D01*
X106184618Y-82886914D02*
X106146523Y-82963104D01*
X106146523Y-82963104D02*
X106108428Y-83001200D01*
X106108428Y-83001200D02*
X106032237Y-83039295D01*
X106032237Y-83039295D02*
X105841761Y-83039295D01*
X105841761Y-83039295D02*
X105765571Y-83001200D01*
X105765571Y-83001200D02*
X105727475Y-82963104D01*
X112980904Y-84874132D02*
X113019000Y-84912228D01*
X113019000Y-84912228D02*
X113057095Y-85026513D01*
X113057095Y-85026513D02*
X113057095Y-85102704D01*
X113057095Y-85102704D02*
X113019000Y-85216990D01*
X113019000Y-85216990D02*
X112942809Y-85293180D01*
X112942809Y-85293180D02*
X112866619Y-85331275D01*
X112866619Y-85331275D02*
X112714238Y-85369371D01*
X112714238Y-85369371D02*
X112599952Y-85369371D01*
X112599952Y-85369371D02*
X112447571Y-85331275D01*
X112447571Y-85331275D02*
X112371380Y-85293180D01*
X112371380Y-85293180D02*
X112295190Y-85216990D01*
X112295190Y-85216990D02*
X112257095Y-85102704D01*
X112257095Y-85102704D02*
X112257095Y-85026513D01*
X112257095Y-85026513D02*
X112295190Y-84912228D01*
X112295190Y-84912228D02*
X112333285Y-84874132D01*
X112257095Y-84188418D02*
X112257095Y-84340799D01*
X112257095Y-84340799D02*
X112295190Y-84416990D01*
X112295190Y-84416990D02*
X112333285Y-84455085D01*
X112333285Y-84455085D02*
X112447571Y-84531275D01*
X112447571Y-84531275D02*
X112599952Y-84569371D01*
X112599952Y-84569371D02*
X112904714Y-84569371D01*
X112904714Y-84569371D02*
X112980904Y-84531275D01*
X112980904Y-84531275D02*
X113019000Y-84493180D01*
X113019000Y-84493180D02*
X113057095Y-84416990D01*
X113057095Y-84416990D02*
X113057095Y-84264609D01*
X113057095Y-84264609D02*
X113019000Y-84188418D01*
X113019000Y-84188418D02*
X112980904Y-84150323D01*
X112980904Y-84150323D02*
X112904714Y-84112228D01*
X112904714Y-84112228D02*
X112714238Y-84112228D01*
X112714238Y-84112228D02*
X112638047Y-84150323D01*
X112638047Y-84150323D02*
X112599952Y-84188418D01*
X112599952Y-84188418D02*
X112561857Y-84264609D01*
X112561857Y-84264609D02*
X112561857Y-84416990D01*
X112561857Y-84416990D02*
X112599952Y-84493180D01*
X112599952Y-84493180D02*
X112638047Y-84531275D01*
X112638047Y-84531275D02*
X112714238Y-84569371D01*
X104011104Y-84442332D02*
X104049200Y-84480428D01*
X104049200Y-84480428D02*
X104087295Y-84594713D01*
X104087295Y-84594713D02*
X104087295Y-84670904D01*
X104087295Y-84670904D02*
X104049200Y-84785190D01*
X104049200Y-84785190D02*
X103973009Y-84861380D01*
X103973009Y-84861380D02*
X103896819Y-84899475D01*
X103896819Y-84899475D02*
X103744438Y-84937571D01*
X103744438Y-84937571D02*
X103630152Y-84937571D01*
X103630152Y-84937571D02*
X103477771Y-84899475D01*
X103477771Y-84899475D02*
X103401580Y-84861380D01*
X103401580Y-84861380D02*
X103325390Y-84785190D01*
X103325390Y-84785190D02*
X103287295Y-84670904D01*
X103287295Y-84670904D02*
X103287295Y-84594713D01*
X103287295Y-84594713D02*
X103325390Y-84480428D01*
X103325390Y-84480428D02*
X103363485Y-84442332D01*
X103363485Y-84137571D02*
X103325390Y-84099475D01*
X103325390Y-84099475D02*
X103287295Y-84023285D01*
X103287295Y-84023285D02*
X103287295Y-83832809D01*
X103287295Y-83832809D02*
X103325390Y-83756618D01*
X103325390Y-83756618D02*
X103363485Y-83718523D01*
X103363485Y-83718523D02*
X103439676Y-83680428D01*
X103439676Y-83680428D02*
X103515866Y-83680428D01*
X103515866Y-83680428D02*
X103630152Y-83718523D01*
X103630152Y-83718523D02*
X104087295Y-84175666D01*
X104087295Y-84175666D02*
X104087295Y-83680428D01*
X139123524Y-77612295D02*
X139123524Y-78259914D01*
X139123524Y-78259914D02*
X139161619Y-78336104D01*
X139161619Y-78336104D02*
X139199714Y-78374200D01*
X139199714Y-78374200D02*
X139275905Y-78412295D01*
X139275905Y-78412295D02*
X139428286Y-78412295D01*
X139428286Y-78412295D02*
X139504476Y-78374200D01*
X139504476Y-78374200D02*
X139542571Y-78336104D01*
X139542571Y-78336104D02*
X139580667Y-78259914D01*
X139580667Y-78259914D02*
X139580667Y-77612295D01*
X140380666Y-78412295D02*
X139923523Y-78412295D01*
X140152095Y-78412295D02*
X140152095Y-77612295D01*
X140152095Y-77612295D02*
X140075904Y-77726580D01*
X140075904Y-77726580D02*
X139999714Y-77802771D01*
X139999714Y-77802771D02*
X139923523Y-77840866D01*
X140761619Y-78412295D02*
X140914000Y-78412295D01*
X140914000Y-78412295D02*
X140990190Y-78374200D01*
X140990190Y-78374200D02*
X141028286Y-78336104D01*
X141028286Y-78336104D02*
X141104476Y-78221819D01*
X141104476Y-78221819D02*
X141142571Y-78069438D01*
X141142571Y-78069438D02*
X141142571Y-77764676D01*
X141142571Y-77764676D02*
X141104476Y-77688485D01*
X141104476Y-77688485D02*
X141066381Y-77650390D01*
X141066381Y-77650390D02*
X140990190Y-77612295D01*
X140990190Y-77612295D02*
X140837809Y-77612295D01*
X140837809Y-77612295D02*
X140761619Y-77650390D01*
X140761619Y-77650390D02*
X140723524Y-77688485D01*
X140723524Y-77688485D02*
X140685428Y-77764676D01*
X140685428Y-77764676D02*
X140685428Y-77955152D01*
X140685428Y-77955152D02*
X140723524Y-78031342D01*
X140723524Y-78031342D02*
X140761619Y-78069438D01*
X140761619Y-78069438D02*
X140837809Y-78107533D01*
X140837809Y-78107533D02*
X140990190Y-78107533D01*
X140990190Y-78107533D02*
X141066381Y-78069438D01*
X141066381Y-78069438D02*
X141104476Y-78031342D01*
X141104476Y-78031342D02*
X141142571Y-77955152D01*
X147706095Y-89938875D02*
X148353714Y-89938875D01*
X148353714Y-89938875D02*
X148429904Y-89900780D01*
X148429904Y-89900780D02*
X148468000Y-89862685D01*
X148468000Y-89862685D02*
X148506095Y-89786494D01*
X148506095Y-89786494D02*
X148506095Y-89634113D01*
X148506095Y-89634113D02*
X148468000Y-89557923D01*
X148468000Y-89557923D02*
X148429904Y-89519828D01*
X148429904Y-89519828D02*
X148353714Y-89481732D01*
X148353714Y-89481732D02*
X147706095Y-89481732D01*
X147782285Y-89138876D02*
X147744190Y-89100780D01*
X147744190Y-89100780D02*
X147706095Y-89024590D01*
X147706095Y-89024590D02*
X147706095Y-88834114D01*
X147706095Y-88834114D02*
X147744190Y-88757923D01*
X147744190Y-88757923D02*
X147782285Y-88719828D01*
X147782285Y-88719828D02*
X147858476Y-88681733D01*
X147858476Y-88681733D02*
X147934666Y-88681733D01*
X147934666Y-88681733D02*
X148048952Y-88719828D01*
X148048952Y-88719828D02*
X148506095Y-89176971D01*
X148506095Y-89176971D02*
X148506095Y-88681733D01*
X147972761Y-87996018D02*
X148506095Y-87996018D01*
X147668000Y-88186494D02*
X148239428Y-88376971D01*
X148239428Y-88376971D02*
X148239428Y-87881732D01*
X101491295Y-89925333D02*
X101491295Y-90306285D01*
X101491295Y-90306285D02*
X100691295Y-90306285D01*
X100767485Y-89696762D02*
X100729390Y-89658666D01*
X100729390Y-89658666D02*
X100691295Y-89582476D01*
X100691295Y-89582476D02*
X100691295Y-89392000D01*
X100691295Y-89392000D02*
X100729390Y-89315809D01*
X100729390Y-89315809D02*
X100767485Y-89277714D01*
X100767485Y-89277714D02*
X100843676Y-89239619D01*
X100843676Y-89239619D02*
X100919866Y-89239619D01*
X100919866Y-89239619D02*
X101034152Y-89277714D01*
X101034152Y-89277714D02*
X101491295Y-89734857D01*
X101491295Y-89734857D02*
X101491295Y-89239619D01*
X171123524Y-77612295D02*
X171123524Y-78259914D01*
X171123524Y-78259914D02*
X171161619Y-78336104D01*
X171161619Y-78336104D02*
X171199714Y-78374200D01*
X171199714Y-78374200D02*
X171275905Y-78412295D01*
X171275905Y-78412295D02*
X171428286Y-78412295D01*
X171428286Y-78412295D02*
X171504476Y-78374200D01*
X171504476Y-78374200D02*
X171542571Y-78336104D01*
X171542571Y-78336104D02*
X171580667Y-78259914D01*
X171580667Y-78259914D02*
X171580667Y-77612295D01*
X171923523Y-77688485D02*
X171961619Y-77650390D01*
X171961619Y-77650390D02*
X172037809Y-77612295D01*
X172037809Y-77612295D02*
X172228285Y-77612295D01*
X172228285Y-77612295D02*
X172304476Y-77650390D01*
X172304476Y-77650390D02*
X172342571Y-77688485D01*
X172342571Y-77688485D02*
X172380666Y-77764676D01*
X172380666Y-77764676D02*
X172380666Y-77840866D01*
X172380666Y-77840866D02*
X172342571Y-77955152D01*
X172342571Y-77955152D02*
X171885428Y-78412295D01*
X171885428Y-78412295D02*
X172380666Y-78412295D01*
X173066381Y-77612295D02*
X172914000Y-77612295D01*
X172914000Y-77612295D02*
X172837809Y-77650390D01*
X172837809Y-77650390D02*
X172799714Y-77688485D01*
X172799714Y-77688485D02*
X172723524Y-77802771D01*
X172723524Y-77802771D02*
X172685428Y-77955152D01*
X172685428Y-77955152D02*
X172685428Y-78259914D01*
X172685428Y-78259914D02*
X172723524Y-78336104D01*
X172723524Y-78336104D02*
X172761619Y-78374200D01*
X172761619Y-78374200D02*
X172837809Y-78412295D01*
X172837809Y-78412295D02*
X172990190Y-78412295D01*
X172990190Y-78412295D02*
X173066381Y-78374200D01*
X173066381Y-78374200D02*
X173104476Y-78336104D01*
X173104476Y-78336104D02*
X173142571Y-78259914D01*
X173142571Y-78259914D02*
X173142571Y-78069438D01*
X173142571Y-78069438D02*
X173104476Y-77993247D01*
X173104476Y-77993247D02*
X173066381Y-77955152D01*
X173066381Y-77955152D02*
X172990190Y-77917057D01*
X172990190Y-77917057D02*
X172837809Y-77917057D01*
X172837809Y-77917057D02*
X172761619Y-77955152D01*
X172761619Y-77955152D02*
X172723524Y-77993247D01*
X172723524Y-77993247D02*
X172685428Y-78069438D01*
X155123524Y-77612295D02*
X155123524Y-78259914D01*
X155123524Y-78259914D02*
X155161619Y-78336104D01*
X155161619Y-78336104D02*
X155199714Y-78374200D01*
X155199714Y-78374200D02*
X155275905Y-78412295D01*
X155275905Y-78412295D02*
X155428286Y-78412295D01*
X155428286Y-78412295D02*
X155504476Y-78374200D01*
X155504476Y-78374200D02*
X155542571Y-78336104D01*
X155542571Y-78336104D02*
X155580667Y-78259914D01*
X155580667Y-78259914D02*
X155580667Y-77612295D01*
X155923523Y-77688485D02*
X155961619Y-77650390D01*
X155961619Y-77650390D02*
X156037809Y-77612295D01*
X156037809Y-77612295D02*
X156228285Y-77612295D01*
X156228285Y-77612295D02*
X156304476Y-77650390D01*
X156304476Y-77650390D02*
X156342571Y-77688485D01*
X156342571Y-77688485D02*
X156380666Y-77764676D01*
X156380666Y-77764676D02*
X156380666Y-77840866D01*
X156380666Y-77840866D02*
X156342571Y-77955152D01*
X156342571Y-77955152D02*
X155885428Y-78412295D01*
X155885428Y-78412295D02*
X156380666Y-78412295D01*
X156685428Y-77688485D02*
X156723524Y-77650390D01*
X156723524Y-77650390D02*
X156799714Y-77612295D01*
X156799714Y-77612295D02*
X156990190Y-77612295D01*
X156990190Y-77612295D02*
X157066381Y-77650390D01*
X157066381Y-77650390D02*
X157104476Y-77688485D01*
X157104476Y-77688485D02*
X157142571Y-77764676D01*
X157142571Y-77764676D02*
X157142571Y-77840866D01*
X157142571Y-77840866D02*
X157104476Y-77955152D01*
X157104476Y-77955152D02*
X156647333Y-78412295D01*
X156647333Y-78412295D02*
X157142571Y-78412295D01*
X101282104Y-73827285D02*
X101320200Y-73865381D01*
X101320200Y-73865381D02*
X101358295Y-73979666D01*
X101358295Y-73979666D02*
X101358295Y-74055857D01*
X101358295Y-74055857D02*
X101320200Y-74170143D01*
X101320200Y-74170143D02*
X101244009Y-74246333D01*
X101244009Y-74246333D02*
X101167819Y-74284428D01*
X101167819Y-74284428D02*
X101015438Y-74322524D01*
X101015438Y-74322524D02*
X100901152Y-74322524D01*
X100901152Y-74322524D02*
X100748771Y-74284428D01*
X100748771Y-74284428D02*
X100672580Y-74246333D01*
X100672580Y-74246333D02*
X100596390Y-74170143D01*
X100596390Y-74170143D02*
X100558295Y-74055857D01*
X100558295Y-74055857D02*
X100558295Y-73979666D01*
X100558295Y-73979666D02*
X100596390Y-73865381D01*
X100596390Y-73865381D02*
X100634485Y-73827285D01*
X101358295Y-73065381D02*
X101358295Y-73522524D01*
X101358295Y-73293952D02*
X100558295Y-73293952D01*
X100558295Y-73293952D02*
X100672580Y-73370143D01*
X100672580Y-73370143D02*
X100748771Y-73446333D01*
X100748771Y-73446333D02*
X100786866Y-73522524D01*
X101358295Y-72303476D02*
X101358295Y-72760619D01*
X101358295Y-72532047D02*
X100558295Y-72532047D01*
X100558295Y-72532047D02*
X100672580Y-72608238D01*
X100672580Y-72608238D02*
X100748771Y-72684428D01*
X100748771Y-72684428D02*
X100786866Y-72760619D01*
X101067333Y-81793247D02*
X100800667Y-81793247D01*
X100800667Y-82212295D02*
X100800667Y-81412295D01*
X100800667Y-81412295D02*
X101181619Y-81412295D01*
X101753047Y-81793247D02*
X101867333Y-81831342D01*
X101867333Y-81831342D02*
X101905428Y-81869438D01*
X101905428Y-81869438D02*
X101943524Y-81945628D01*
X101943524Y-81945628D02*
X101943524Y-82059914D01*
X101943524Y-82059914D02*
X101905428Y-82136104D01*
X101905428Y-82136104D02*
X101867333Y-82174200D01*
X101867333Y-82174200D02*
X101791143Y-82212295D01*
X101791143Y-82212295D02*
X101486381Y-82212295D01*
X101486381Y-82212295D02*
X101486381Y-81412295D01*
X101486381Y-81412295D02*
X101753047Y-81412295D01*
X101753047Y-81412295D02*
X101829238Y-81450390D01*
X101829238Y-81450390D02*
X101867333Y-81488485D01*
X101867333Y-81488485D02*
X101905428Y-81564676D01*
X101905428Y-81564676D02*
X101905428Y-81640866D01*
X101905428Y-81640866D02*
X101867333Y-81717057D01*
X101867333Y-81717057D02*
X101829238Y-81755152D01*
X101829238Y-81755152D02*
X101753047Y-81793247D01*
X101753047Y-81793247D02*
X101486381Y-81793247D01*
X102705428Y-82212295D02*
X102248285Y-82212295D01*
X102476857Y-82212295D02*
X102476857Y-81412295D01*
X102476857Y-81412295D02*
X102400666Y-81526580D01*
X102400666Y-81526580D02*
X102324476Y-81602771D01*
X102324476Y-81602771D02*
X102248285Y-81640866D01*
X105715104Y-87225332D02*
X105753200Y-87263428D01*
X105753200Y-87263428D02*
X105791295Y-87377713D01*
X105791295Y-87377713D02*
X105791295Y-87453904D01*
X105791295Y-87453904D02*
X105753200Y-87568190D01*
X105753200Y-87568190D02*
X105677009Y-87644380D01*
X105677009Y-87644380D02*
X105600819Y-87682475D01*
X105600819Y-87682475D02*
X105448438Y-87720571D01*
X105448438Y-87720571D02*
X105334152Y-87720571D01*
X105334152Y-87720571D02*
X105181771Y-87682475D01*
X105181771Y-87682475D02*
X105105580Y-87644380D01*
X105105580Y-87644380D02*
X105029390Y-87568190D01*
X105029390Y-87568190D02*
X104991295Y-87453904D01*
X104991295Y-87453904D02*
X104991295Y-87377713D01*
X104991295Y-87377713D02*
X105029390Y-87263428D01*
X105029390Y-87263428D02*
X105067485Y-87225332D01*
X105791295Y-86463428D02*
X105791295Y-86920571D01*
X105791295Y-86691999D02*
X104991295Y-86691999D01*
X104991295Y-86691999D02*
X105105580Y-86768190D01*
X105105580Y-86768190D02*
X105181771Y-86844380D01*
X105181771Y-86844380D02*
X105219866Y-86920571D01*
D12*
X111964000Y-88988748D02*
X111964000Y-89511252D01*
X110494000Y-88988748D02*
X110494000Y-89511252D01*
D13*
X122084000Y-78750000D02*
X128084000Y-78750000D01*
X128084000Y-78750000D02*
X128084000Y-85750000D01*
X128084000Y-85750000D02*
X122084000Y-85750000D01*
X122084000Y-85750000D02*
X122084000Y-78750000D01*
D14*
X121877742Y-78440000D02*
G75*
G03*
X121877742Y-78440000I-113742J0D01*
G01*
D12*
X106919000Y-89387500D02*
X106919000Y-91187500D01*
X106919000Y-89387500D02*
X106919000Y-88587500D01*
X110039000Y-89387500D02*
X110039000Y-90187500D01*
X110039000Y-89387500D02*
X110039000Y-88587500D01*
X108251000Y-83096000D02*
X106451000Y-83096000D01*
X108251000Y-83096000D02*
X109051000Y-83096000D01*
X108251000Y-86216000D02*
X107451000Y-86216000D01*
X108251000Y-86216000D02*
X109051000Y-86216000D01*
X112622000Y-72744748D02*
X112622000Y-73267252D01*
X111152000Y-72744748D02*
X111152000Y-73267252D01*
X107115400Y-71705200D02*
X103665400Y-71705200D01*
X107115400Y-71705200D02*
X109065400Y-71705200D01*
X107115400Y-81825200D02*
X105165400Y-81825200D01*
X107115400Y-81825200D02*
X109065400Y-81825200D01*
X112086000Y-84376748D02*
X112086000Y-84899252D01*
X110616000Y-84376748D02*
X110616000Y-84899252D01*
X105886000Y-84376748D02*
X105886000Y-84899252D01*
X104416000Y-84376748D02*
X104416000Y-84899252D01*
D13*
X138084000Y-78750000D02*
X144084000Y-78750000D01*
X144084000Y-78750000D02*
X144084000Y-85750000D01*
X144084000Y-85750000D02*
X138084000Y-85750000D01*
X138084000Y-85750000D02*
X138084000Y-78750000D01*
D14*
X137877742Y-78440000D02*
G75*
G03*
X137877742Y-78440000I-113742J0D01*
G01*
D10*
X148943800Y-89748400D02*
X150543800Y-89748400D01*
X148943800Y-89748400D02*
X148943800Y-88548400D01*
X150543800Y-89748400D02*
X150543800Y-88548400D01*
X148943800Y-88548400D02*
X150543800Y-88548400D01*
D12*
X104489000Y-89147936D02*
X104489000Y-90352064D01*
X101769000Y-89147936D02*
X101769000Y-90352064D01*
D13*
X170084000Y-78750000D02*
X176084000Y-78750000D01*
X176084000Y-78750000D02*
X176084000Y-85750000D01*
X176084000Y-85750000D02*
X170084000Y-85750000D01*
X170084000Y-85750000D02*
X170084000Y-78750000D01*
D14*
X169877742Y-78440000D02*
G75*
G03*
X169877742Y-78440000I-113742J0D01*
G01*
D13*
X154084000Y-78750000D02*
X160084000Y-78750000D01*
X160084000Y-78750000D02*
X160084000Y-85750000D01*
X160084000Y-85750000D02*
X154084000Y-85750000D01*
X154084000Y-85750000D02*
X154084000Y-78750000D01*
D14*
X153877742Y-78440000D02*
G75*
G03*
X153877742Y-78440000I-113742J0D01*
G01*
G36*
X174732452Y-90541796D02*
G01*
X174732452Y-92407200D01*
X174486078Y-92407200D01*
X174239703Y-92407200D01*
X174239703Y-90541796D01*
X174239703Y-88676392D01*
X174486078Y-88676392D01*
X174732452Y-88676392D01*
X174732452Y-90541796D01*
G37*
G36*
X173838103Y-88773182D02*
G01*
X173834946Y-89034221D01*
X173356863Y-89037286D01*
X172878780Y-89040350D01*
X172878780Y-89556431D01*
X172878780Y-90072512D01*
X173254207Y-90072512D01*
X173629634Y-90072512D01*
X173629634Y-90336484D01*
X173629634Y-90600457D01*
X173254207Y-90600457D01*
X172878780Y-90600457D01*
X172878780Y-91503828D01*
X172878780Y-92407200D01*
X172638272Y-92407200D01*
X172397764Y-92407200D01*
X172397764Y-90459671D01*
X172397764Y-88512143D01*
X173119512Y-88512143D01*
X173841261Y-88512143D01*
X173838103Y-88773182D01*
G37*
G36*
X176001615Y-89488149D02*
G01*
X176069700Y-89490411D01*
X176119278Y-89494291D01*
X176134438Y-89496504D01*
X176238810Y-89527198D01*
X176334797Y-89578532D01*
X176420490Y-89648590D01*
X176493980Y-89735460D01*
X176553360Y-89837227D01*
X176596721Y-89951978D01*
X176599871Y-89963240D01*
X176605982Y-89987052D01*
X176611058Y-90011033D01*
X176615225Y-90037664D01*
X176618610Y-90069429D01*
X176621341Y-90108813D01*
X176623543Y-90158298D01*
X176625344Y-90220367D01*
X176626870Y-90297506D01*
X176628248Y-90392196D01*
X176629604Y-90506922D01*
X176630141Y-90556338D01*
X176635508Y-91057763D01*
X176115135Y-91060819D01*
X175594761Y-91063875D01*
X175594761Y-91392373D01*
X175594824Y-91488957D01*
X175595153Y-91565086D01*
X175595963Y-91623767D01*
X175597468Y-91668009D01*
X175599880Y-91700822D01*
X175603412Y-91725213D01*
X175608280Y-91744191D01*
X175614695Y-91760765D01*
X175621991Y-91776157D01*
X175650526Y-91822079D01*
X175686225Y-91853950D01*
X175733686Y-91874262D01*
X175797510Y-91885509D01*
X175828418Y-91888012D01*
X175917565Y-91888947D01*
X175988008Y-91878971D01*
X176042114Y-91857501D01*
X176080765Y-91825669D01*
X176105142Y-91792701D01*
X176122167Y-91755371D01*
X176132951Y-91708930D01*
X176138604Y-91648627D01*
X176140238Y-91571288D01*
X176140304Y-91445168D01*
X176386678Y-91445168D01*
X176633052Y-91445168D01*
X176632657Y-91559556D01*
X176631237Y-91626634D01*
X176627818Y-91703068D01*
X176623063Y-91774900D01*
X176621644Y-91791596D01*
X176600449Y-91922643D01*
X176562245Y-92041278D01*
X176508080Y-92146024D01*
X176439001Y-92235400D01*
X176356055Y-92307929D01*
X176260290Y-92362129D01*
X176202421Y-92383627D01*
X176174454Y-92391510D01*
X176146017Y-92397406D01*
X176113248Y-92401573D01*
X176072285Y-92404271D01*
X176019266Y-92405757D01*
X175950328Y-92406291D01*
X175866297Y-92406151D01*
X175758165Y-92404910D01*
X175670821Y-92402167D01*
X175605057Y-92397964D01*
X175561669Y-92392339D01*
X175552664Y-92390253D01*
X175449310Y-92349808D01*
X175356325Y-92289055D01*
X175275578Y-92209554D01*
X175208937Y-92112866D01*
X175199172Y-92094883D01*
X175183972Y-92066151D01*
X175170687Y-92040692D01*
X175159188Y-92016796D01*
X175149346Y-91992751D01*
X175141033Y-91966848D01*
X175134121Y-91937375D01*
X175128480Y-91902622D01*
X175123983Y-91860878D01*
X175120500Y-91810433D01*
X175117904Y-91749576D01*
X175116065Y-91676597D01*
X175114854Y-91589784D01*
X175114145Y-91487427D01*
X175113807Y-91367816D01*
X175113712Y-91229240D01*
X175113732Y-91069988D01*
X175113745Y-90958286D01*
X175113819Y-90782179D01*
X175114057Y-90628073D01*
X175114482Y-90494504D01*
X175114799Y-90437423D01*
X175589134Y-90437423D01*
X175590314Y-90484327D01*
X175592801Y-90518212D01*
X175596656Y-90533912D01*
X175596717Y-90533975D01*
X175610208Y-90536210D01*
X175643753Y-90538196D01*
X175693944Y-90539837D01*
X175757371Y-90541036D01*
X175830625Y-90541697D01*
X175873430Y-90541796D01*
X176142323Y-90541796D01*
X176138325Y-90351149D01*
X176135580Y-90265113D01*
X176130744Y-90198858D01*
X176122803Y-90148726D01*
X176110745Y-90111059D01*
X176093556Y-90082199D01*
X176070225Y-90058489D01*
X176053800Y-90045884D01*
X176035178Y-90034454D01*
X176013816Y-90026616D01*
X175984644Y-90021514D01*
X175942591Y-90018293D01*
X175882588Y-90016097D01*
X175876332Y-90015926D01*
X175815863Y-90014618D01*
X175773697Y-90014983D01*
X175744694Y-90017689D01*
X175723712Y-90023401D01*
X175705612Y-90032787D01*
X175695563Y-90039390D01*
X175648886Y-90078999D01*
X175618994Y-90125617D01*
X175601051Y-90186851D01*
X175600739Y-90188501D01*
X175596284Y-90222981D01*
X175592836Y-90270281D01*
X175590455Y-90325233D01*
X175589201Y-90382669D01*
X175589134Y-90437423D01*
X175114799Y-90437423D01*
X175115118Y-90380007D01*
X175115990Y-90283119D01*
X175117121Y-90202376D01*
X175118535Y-90136315D01*
X175120255Y-90083472D01*
X175122306Y-90042383D01*
X175124711Y-90011585D01*
X175127494Y-89989614D01*
X175129692Y-89978655D01*
X175164944Y-89874666D01*
X175216647Y-89775476D01*
X175281354Y-89686116D01*
X175355621Y-89611616D01*
X175407048Y-89573758D01*
X175448369Y-89548743D01*
X175486317Y-89529475D01*
X175524984Y-89515121D01*
X175568462Y-89504845D01*
X175620845Y-89497812D01*
X175686225Y-89493189D01*
X175768697Y-89490139D01*
X175823537Y-89488814D01*
X175918427Y-89487589D01*
X176001615Y-89488149D01*
G37*
G36*
X181937735Y-89446426D02*
G01*
X181962389Y-89466178D01*
X181994464Y-89494348D01*
X182002753Y-89501947D01*
X182080421Y-89567060D01*
X182158939Y-89620566D01*
X182234982Y-89660820D01*
X182305223Y-89686174D01*
X182366338Y-89694983D01*
X182389199Y-89693240D01*
X182416675Y-89691440D01*
X182426619Y-89698743D01*
X182418703Y-89716612D01*
X182392604Y-89746511D01*
X182372983Y-89766088D01*
X182317255Y-89820272D01*
X182313606Y-90210105D01*
X182309956Y-90599938D01*
X182260877Y-90613154D01*
X182217287Y-90627523D01*
X182174411Y-90645526D01*
X182168993Y-90648207D01*
X182142220Y-90663974D01*
X182105967Y-90688097D01*
X182064685Y-90717259D01*
X182022822Y-90748144D01*
X181984827Y-90777435D01*
X181955150Y-90801817D01*
X181938240Y-90817973D01*
X181935962Y-90821900D01*
X181946384Y-90828627D01*
X181975224Y-90841832D01*
X182018846Y-90859984D01*
X182073611Y-90881556D01*
X182117639Y-90898250D01*
X182185684Y-90923405D01*
X182235733Y-90941001D01*
X182271658Y-90951983D01*
X182297333Y-90957294D01*
X182316631Y-90957879D01*
X182333424Y-90954682D01*
X182340362Y-90952538D01*
X182375462Y-90933810D01*
X182407421Y-90905771D01*
X182410796Y-90901710D01*
X182429563Y-90880003D01*
X182438333Y-90876606D01*
X182437808Y-90892767D01*
X182428691Y-90929729D01*
X182428005Y-90932209D01*
X182401498Y-90988236D01*
X182357713Y-91037859D01*
X182302830Y-91074154D01*
X182300235Y-91075346D01*
X182252729Y-91096768D01*
X182252729Y-91551189D01*
X182252729Y-92005610D01*
X182283682Y-92025892D01*
X182338190Y-92049098D01*
X182395059Y-92051246D01*
X182447254Y-92032770D01*
X182474535Y-92018137D01*
X182492073Y-92011469D01*
X182494701Y-92011728D01*
X182488334Y-92021140D01*
X182468050Y-92044956D01*
X182436147Y-92080622D01*
X182394920Y-92125580D01*
X182346669Y-92177276D01*
X182330296Y-92194639D01*
X182256119Y-92275065D01*
X182196430Y-92343983D01*
X182152284Y-92400118D01*
X182124741Y-92442193D01*
X182123887Y-92443776D01*
X182086258Y-92514375D01*
X182010889Y-92443420D01*
X181964278Y-92399638D01*
X181911085Y-92349824D01*
X181861922Y-92303914D01*
X181856549Y-92298908D01*
X181777579Y-92225353D01*
X181771713Y-91750287D01*
X181765847Y-91275222D01*
X181531205Y-91184860D01*
X181461549Y-91158158D01*
X181399291Y-91134525D01*
X181347751Y-91115203D01*
X181310253Y-91101434D01*
X181290119Y-91094459D01*
X181287764Y-91093851D01*
X181285818Y-91105017D01*
X181284022Y-91137133D01*
X181282424Y-91187684D01*
X181281072Y-91254158D01*
X181280014Y-91334039D01*
X181279300Y-91424814D01*
X181278978Y-91523968D01*
X181278964Y-91549408D01*
X181278964Y-92005610D01*
X181311228Y-92027318D01*
X181357725Y-92045884D01*
X181411711Y-92048460D01*
X181463763Y-92035320D01*
X181487209Y-92022175D01*
X181510835Y-92007391D01*
X181524154Y-92003071D01*
X181525245Y-92004577D01*
X181517507Y-92015570D01*
X181495911Y-92040929D01*
X181462798Y-92078042D01*
X181420510Y-92124301D01*
X181371389Y-92177095D01*
X181351184Y-92198577D01*
X181287840Y-92267186D01*
X181232588Y-92329938D01*
X181187789Y-92384013D01*
X181155805Y-92426588D01*
X181142170Y-92448290D01*
X181107125Y-92513602D01*
X180952409Y-92370702D01*
X180797694Y-92227801D01*
X180800754Y-91740391D01*
X180803814Y-91252980D01*
X180868341Y-91233709D01*
X180920519Y-91216270D01*
X180966998Y-91195746D01*
X181014702Y-91168456D01*
X181070552Y-91130720D01*
X181094635Y-91113397D01*
X181133630Y-91084717D01*
X181156036Y-91066384D01*
X181164285Y-91055004D01*
X181160810Y-91047182D01*
X181148040Y-91039524D01*
X181147690Y-91039340D01*
X181102986Y-91018425D01*
X181046818Y-90995779D01*
X180985041Y-90973364D01*
X180923507Y-90953139D01*
X180868072Y-90937067D01*
X180824589Y-90927106D01*
X180805810Y-90924846D01*
X180768756Y-90925762D01*
X180743978Y-90934399D01*
X180720513Y-90955239D01*
X180714051Y-90962339D01*
X180688200Y-90988026D01*
X180674313Y-90993548D01*
X180672088Y-90978740D01*
X180680910Y-90944407D01*
X180713158Y-90877362D01*
X180760948Y-90826148D01*
X180793637Y-90805425D01*
X180823663Y-90788530D01*
X180844256Y-90774044D01*
X180847630Y-90770572D01*
X180849687Y-90756425D01*
X180851579Y-90721634D01*
X180853245Y-90669016D01*
X180854623Y-90601393D01*
X180855652Y-90521582D01*
X180856272Y-90432403D01*
X180856429Y-90364887D01*
X180856609Y-89970934D01*
X180798286Y-89943617D01*
X180756918Y-89920717D01*
X180718434Y-89893756D01*
X180704369Y-89881500D01*
X180668775Y-89846700D01*
X180694442Y-89804156D01*
X180714448Y-89772181D01*
X180742166Y-89729482D01*
X180775046Y-89679807D01*
X180810543Y-89626908D01*
X180846107Y-89574534D01*
X180879192Y-89526435D01*
X180907250Y-89486360D01*
X180927732Y-89458061D01*
X180938092Y-89445286D01*
X180938433Y-89445030D01*
X180951093Y-89449427D01*
X180977011Y-89466241D01*
X181011776Y-89492448D01*
X181033707Y-89510304D01*
X181098032Y-89562770D01*
X181150422Y-89602075D01*
X181195798Y-89631383D01*
X181239080Y-89653857D01*
X181285189Y-89672660D01*
X181287709Y-89673580D01*
X181350401Y-89691508D01*
X181400935Y-89694657D01*
X181407963Y-89693887D01*
X181437211Y-89691742D01*
X181453643Y-89693986D01*
X181454946Y-89695709D01*
X181447178Y-89707387D01*
X181426758Y-89730407D01*
X181398006Y-89759913D01*
X181396285Y-89761611D01*
X181337625Y-89819390D01*
X181337625Y-90208014D01*
X181337625Y-90596638D01*
X181563468Y-90685864D01*
X181632618Y-90713169D01*
X181695233Y-90737866D01*
X181747701Y-90758532D01*
X181786412Y-90773745D01*
X181807753Y-90782083D01*
X181809842Y-90782885D01*
X181815290Y-90783786D01*
X181819681Y-90780436D01*
X181823130Y-90770611D01*
X181825748Y-90752086D01*
X181827649Y-90722633D01*
X181828947Y-90680029D01*
X181829755Y-90622046D01*
X181830186Y-90546461D01*
X181830353Y-90451046D01*
X181830373Y-90379351D01*
X181830373Y-89968021D01*
X181780512Y-89945863D01*
X181741312Y-89925127D01*
X181703882Y-89899826D01*
X181673762Y-89874350D01*
X181656494Y-89853089D01*
X181654392Y-89845965D01*
X181660588Y-89832180D01*
X181677595Y-89803062D01*
X181703041Y-89762174D01*
X181734551Y-89713082D01*
X181769754Y-89659351D01*
X181806276Y-89604545D01*
X181841744Y-89552231D01*
X181873786Y-89505972D01*
X181900029Y-89469334D01*
X181918099Y-89445883D01*
X181925285Y-89438979D01*
X181937735Y-89446426D01*
G37*
G36*
X183461992Y-89443088D02*
G01*
X183492689Y-89454266D01*
X183535916Y-89470786D01*
X183585045Y-89490118D01*
X183674685Y-89525488D01*
X183767304Y-89561402D01*
X183859975Y-89596782D01*
X183949767Y-89630548D01*
X184033752Y-89661621D01*
X184109001Y-89688922D01*
X184172586Y-89711372D01*
X184221578Y-89727892D01*
X184253048Y-89737403D01*
X184260973Y-89739148D01*
X184310742Y-89735897D01*
X184354338Y-89710408D01*
X184384686Y-89674648D01*
X184402156Y-89653092D01*
X184410831Y-89652943D01*
X184410592Y-89673806D01*
X184401323Y-89715287D01*
X184399187Y-89723118D01*
X184370471Y-89783730D01*
X184321929Y-89833651D01*
X184276243Y-89861467D01*
X184223722Y-89886892D01*
X184223787Y-89965037D01*
X184228295Y-90043395D01*
X184242017Y-90101787D01*
X184265472Y-90142037D01*
X184277336Y-90153185D01*
X184306677Y-90176265D01*
X184243906Y-90189296D01*
X184184763Y-90204878D01*
X184128482Y-90227379D01*
X184072762Y-90258637D01*
X184015300Y-90300490D01*
X183953797Y-90354776D01*
X183885950Y-90423333D01*
X183809459Y-90507997D01*
X183733437Y-90596968D01*
X183649858Y-90692854D01*
X183574905Y-90770232D01*
X183505974Y-90831195D01*
X183440458Y-90877835D01*
X183375752Y-90912245D01*
X183311551Y-90935843D01*
X183249957Y-90954085D01*
X183249957Y-91416257D01*
X183250003Y-91532662D01*
X183250208Y-91627812D01*
X183250676Y-91703919D01*
X183251511Y-91763191D01*
X183252815Y-91807839D01*
X183254693Y-91840073D01*
X183257247Y-91862102D01*
X183260581Y-91876137D01*
X183264798Y-91884388D01*
X183270001Y-91889065D01*
X183272124Y-91890293D01*
X183297253Y-91901910D01*
X183337761Y-91918554D01*
X183389690Y-91938792D01*
X183449079Y-91961192D01*
X183511968Y-91984320D01*
X183574397Y-92006745D01*
X183632406Y-92027035D01*
X183682036Y-92043756D01*
X183719327Y-92055476D01*
X183740319Y-92060764D01*
X183743298Y-92060737D01*
X183748460Y-92046216D01*
X183751806Y-92013860D01*
X183753330Y-91969227D01*
X183753029Y-91917878D01*
X183750897Y-91865370D01*
X183746930Y-91817264D01*
X183743528Y-91791968D01*
X183728612Y-91740863D01*
X183703927Y-91708128D01*
X183673836Y-91682246D01*
X183728802Y-91674192D01*
X183802590Y-91657372D01*
X183868651Y-91628252D01*
X183931141Y-91584101D01*
X183994218Y-91522185D01*
X184037191Y-91471506D01*
X184095901Y-91400113D01*
X184144371Y-91345472D01*
X184185498Y-91304891D01*
X184222176Y-91275678D01*
X184257303Y-91255144D01*
X184280691Y-91245168D01*
X184316643Y-91233684D01*
X184342607Y-91228914D01*
X184355090Y-91230730D01*
X184350602Y-91239006D01*
X184337875Y-91247262D01*
X184294858Y-91283198D01*
X184261437Y-91334314D01*
X184247119Y-91373642D01*
X184242879Y-91400927D01*
X184238574Y-91447498D01*
X184234464Y-91509180D01*
X184230809Y-91581798D01*
X184227869Y-91661176D01*
X184226796Y-91700117D01*
X184224473Y-91788136D01*
X184222177Y-91855441D01*
X184219658Y-91904781D01*
X184216662Y-91938902D01*
X184212940Y-91960555D01*
X184208241Y-91972487D01*
X184202311Y-91977446D01*
X184201406Y-91977730D01*
X184179863Y-91982954D01*
X184144610Y-91990946D01*
X184118133Y-91996753D01*
X184008451Y-92031727D01*
X183902157Y-92086968D01*
X183803546Y-92159298D01*
X183716915Y-92245538D01*
X183646559Y-92342508D01*
X183643167Y-92348225D01*
X183617002Y-92394235D01*
X183594207Y-92436797D01*
X183578462Y-92468951D01*
X183575038Y-92477134D01*
X183562494Y-92501298D01*
X183550242Y-92511721D01*
X183549487Y-92511721D01*
X183534782Y-92507169D01*
X183502550Y-92495376D01*
X183456999Y-92477939D01*
X183402339Y-92456452D01*
X183379011Y-92447137D01*
X183298712Y-92415290D01*
X183213568Y-92382146D01*
X183126821Y-92348905D01*
X183041711Y-92316772D01*
X182961477Y-92286947D01*
X182889362Y-92260633D01*
X182828604Y-92239033D01*
X182782445Y-92223348D01*
X182754125Y-92214781D01*
X182750448Y-92213939D01*
X182697791Y-92214929D01*
X182648127Y-92238002D01*
X182614168Y-92269798D01*
X182582583Y-92307477D01*
X182593357Y-92260549D01*
X182600217Y-92228904D01*
X182604107Y-92207555D01*
X182604412Y-92204559D01*
X182613419Y-92186535D01*
X182635767Y-92160483D01*
X182665575Y-92131834D01*
X182696963Y-92106018D01*
X182724049Y-92088465D01*
X182734541Y-92084393D01*
X182768941Y-92076837D01*
X182768941Y-91554568D01*
X182768932Y-91424828D01*
X182768725Y-91316444D01*
X182768052Y-91227305D01*
X182766641Y-91155302D01*
X182764226Y-91098328D01*
X182760535Y-91054271D01*
X182755299Y-91021024D01*
X182748251Y-90996476D01*
X182739119Y-90978520D01*
X182727635Y-90965045D01*
X182713529Y-90953943D01*
X182696532Y-90943104D01*
X182690378Y-90939309D01*
X182652878Y-90916087D01*
X182710909Y-90860151D01*
X182768941Y-90804216D01*
X182768941Y-90391659D01*
X182768941Y-90376291D01*
X183249957Y-90376291D01*
X183250118Y-90482673D01*
X183250576Y-90581447D01*
X183251299Y-90670223D01*
X183252253Y-90746607D01*
X183253403Y-90808209D01*
X183254716Y-90852634D01*
X183256157Y-90877491D01*
X183257114Y-90882027D01*
X183270418Y-90876904D01*
X183298094Y-90863530D01*
X183330926Y-90846501D01*
X183422773Y-90787695D01*
X183509962Y-90713333D01*
X183588564Y-90628000D01*
X183654647Y-90536287D01*
X183704280Y-90442781D01*
X183724854Y-90386644D01*
X183734869Y-90343063D01*
X183743374Y-90287956D01*
X183749759Y-90228312D01*
X183753414Y-90171124D01*
X183753730Y-90123383D01*
X183750427Y-90093323D01*
X183738447Y-90071850D01*
X183711397Y-90053121D01*
X183681317Y-90039806D01*
X183648145Y-90026759D01*
X183598852Y-90007423D01*
X183539174Y-89984048D01*
X183474847Y-89958880D01*
X183449403Y-89948933D01*
X183389785Y-89925619D01*
X183337344Y-89905087D01*
X183296226Y-89888963D01*
X183270580Y-89878871D01*
X183264623Y-89876501D01*
X183260950Y-89879501D01*
X183257905Y-89892880D01*
X183255437Y-89918340D01*
X183253498Y-89957582D01*
X183252036Y-90012306D01*
X183251002Y-90084214D01*
X183250346Y-90175008D01*
X183250018Y-90286387D01*
X183249957Y-90376291D01*
X182768941Y-90376291D01*
X182768941Y-89979102D01*
X182801205Y-89971971D01*
X182909680Y-89944795D01*
X182999769Y-89914267D01*
X183076537Y-89877741D01*
X183145052Y-89832568D01*
X183210380Y-89776103D01*
X183246946Y-89739107D01*
X183308844Y-89668115D01*
X183356922Y-89599151D01*
X183389055Y-89540928D01*
X183411656Y-89497432D01*
X183430966Y-89463182D01*
X183444335Y-89442732D01*
X183448438Y-89438979D01*
X183461992Y-89443088D01*
G37*
G36*
X179562723Y-89443027D02*
G01*
X179593996Y-89454541D01*
X179642158Y-89472576D01*
X179704701Y-89496183D01*
X179779116Y-89524417D01*
X179862897Y-89556332D01*
X179945501Y-89587905D01*
X180058848Y-89631139D01*
X180152562Y-89666272D01*
X180228864Y-89693751D01*
X180289974Y-89714020D01*
X180338112Y-89727524D01*
X180375498Y-89734709D01*
X180404352Y-89736020D01*
X180426896Y-89731902D01*
X180445348Y-89722800D01*
X180461930Y-89709159D01*
X180476217Y-89694324D01*
X180499689Y-89669717D01*
X180511644Y-89661305D01*
X180515806Y-89667444D01*
X180516120Y-89676726D01*
X180508623Y-89713468D01*
X180489956Y-89757453D01*
X180464980Y-89798787D01*
X180444440Y-89822645D01*
X180414546Y-89844432D01*
X180377298Y-89864664D01*
X180370908Y-89867463D01*
X180325481Y-89886443D01*
X180330981Y-90335115D01*
X180332479Y-90455082D01*
X180334001Y-90553912D01*
X180335919Y-90633931D01*
X180338604Y-90697463D01*
X180342427Y-90746833D01*
X180347759Y-90784367D01*
X180354972Y-90812389D01*
X180364436Y-90833224D01*
X180376523Y-90849198D01*
X180391604Y-90862635D01*
X180410050Y-90875860D01*
X180418201Y-90881439D01*
X180458581Y-90909108D01*
X180423026Y-90926328D01*
X180396746Y-90941318D01*
X180376805Y-90959676D01*
X180362261Y-90984728D01*
X180352168Y-91019799D01*
X180345586Y-91068215D01*
X180341570Y-91133302D01*
X180339178Y-91218385D01*
X180339102Y-91222258D01*
X180338053Y-91296092D01*
X180337352Y-91386552D01*
X180337016Y-91486804D01*
X180337064Y-91590012D01*
X180337513Y-91689342D01*
X180337774Y-91722531D01*
X180340396Y-92017493D01*
X180387562Y-92036365D01*
X180436733Y-92051820D01*
X180476250Y-92052413D01*
X180514883Y-92037810D01*
X180526500Y-92031097D01*
X180556568Y-92014838D01*
X180569290Y-92013359D01*
X180564591Y-92026794D01*
X180542394Y-92055278D01*
X180502623Y-92098946D01*
X180468027Y-92134808D01*
X180392513Y-92212773D01*
X180332255Y-92277124D01*
X180285277Y-92330177D01*
X180249608Y-92374249D01*
X180223275Y-92411656D01*
X180204648Y-92444033D01*
X180187246Y-92475575D01*
X180173099Y-92496283D01*
X180167307Y-92501057D01*
X180156714Y-92493153D01*
X180132369Y-92471179D01*
X180097029Y-92437740D01*
X180053449Y-92395444D01*
X180005557Y-92348066D01*
X179852250Y-92195075D01*
X179797441Y-92268874D01*
X179763481Y-92319447D01*
X179729104Y-92378372D01*
X179704217Y-92427719D01*
X179685620Y-92467260D01*
X179670353Y-92496733D01*
X179661073Y-92511098D01*
X179659934Y-92511732D01*
X179647209Y-92507061D01*
X179617995Y-92495399D01*
X179577446Y-92478822D01*
X179554345Y-92469260D01*
X179468905Y-92434418D01*
X179378357Y-92398669D01*
X179285670Y-92363078D01*
X179193809Y-92328709D01*
X179105744Y-92296627D01*
X179024440Y-92267895D01*
X178952866Y-92243580D01*
X178893988Y-92224744D01*
X178850774Y-92212453D01*
X178826191Y-92207770D01*
X178825372Y-92207755D01*
X178791977Y-92211409D01*
X178763527Y-92225431D01*
X178733781Y-92251039D01*
X178688909Y-92294324D01*
X178711004Y-92345869D01*
X178723959Y-92377073D01*
X178731909Y-92398112D01*
X178733098Y-92402545D01*
X178721943Y-92403934D01*
X178690779Y-92404878D01*
X178643058Y-92405350D01*
X178582231Y-92405322D01*
X178511749Y-92404766D01*
X178490250Y-92404505D01*
X178247401Y-92401334D01*
X178026801Y-91938863D01*
X177980556Y-91842008D01*
X177937431Y-91751864D01*
X177898468Y-91670602D01*
X177864714Y-91600391D01*
X177837212Y-91543402D01*
X177817007Y-91501805D01*
X177805143Y-91477769D01*
X177802380Y-91472571D01*
X177796670Y-91481984D01*
X177781869Y-91510450D01*
X177759018Y-91555856D01*
X177729160Y-91616093D01*
X177693337Y-91689050D01*
X177652592Y-91772616D01*
X177607966Y-91864680D01*
X177574018Y-91935043D01*
X177349477Y-92401334D01*
X177108586Y-92404505D01*
X177036283Y-92405118D01*
X176972658Y-92405007D01*
X176921178Y-92404234D01*
X176885307Y-92402858D01*
X176868510Y-92400939D01*
X176867694Y-92400346D01*
X176872627Y-92388790D01*
X176886873Y-92357819D01*
X176909607Y-92309181D01*
X176940002Y-92244619D01*
X176977232Y-92165881D01*
X177020471Y-92074712D01*
X177068893Y-91972857D01*
X177121672Y-91862063D01*
X177177980Y-91744076D01*
X177209881Y-91677323D01*
X177267806Y-91555971D01*
X177322640Y-91440706D01*
X177373556Y-91333291D01*
X177419726Y-91235493D01*
X177460322Y-91149074D01*
X177494518Y-91075800D01*
X177521484Y-91017436D01*
X177540395Y-90975744D01*
X177550421Y-90952491D01*
X177551850Y-90948226D01*
X177546870Y-90935625D01*
X177532557Y-90903640D01*
X177509742Y-90854037D01*
X177479255Y-90788581D01*
X177441926Y-90709037D01*
X177398584Y-90617173D01*
X177350059Y-90514751D01*
X177297181Y-90403540D01*
X177240781Y-90285304D01*
X177209663Y-90220226D01*
X177151758Y-90099081D01*
X177096937Y-89984113D01*
X177046029Y-89877077D01*
X176999862Y-89779727D01*
X176959264Y-89693817D01*
X176925064Y-89621102D01*
X176898089Y-89563337D01*
X176879169Y-89522276D01*
X176869130Y-89499674D01*
X176867694Y-89495769D01*
X176878845Y-89492793D01*
X176909974Y-89490178D01*
X176957596Y-89488066D01*
X177018225Y-89486604D01*
X177088378Y-89485934D01*
X177105966Y-89485907D01*
X177344238Y-89485907D01*
X177571265Y-89961523D01*
X177618195Y-90059291D01*
X177662189Y-90149886D01*
X177702205Y-90231238D01*
X177737204Y-90301282D01*
X177766143Y-90357950D01*
X177787983Y-90399175D01*
X177801682Y-90422890D01*
X177806074Y-90427874D01*
X177812589Y-90415649D01*
X177828089Y-90384416D01*
X177851514Y-90336373D01*
X177881804Y-90273716D01*
X177917897Y-90198644D01*
X177958736Y-90113353D01*
X178003259Y-90020041D01*
X178035512Y-89952258D01*
X178257169Y-89485907D01*
X178495133Y-89485907D01*
X178566978Y-89486389D01*
X178630121Y-89487735D01*
X178681076Y-89489794D01*
X178716354Y-89492415D01*
X178732469Y-89495448D01*
X178733098Y-89496197D01*
X178728158Y-89508262D01*
X178713889Y-89539722D01*
X178691121Y-89588821D01*
X178660681Y-89653803D01*
X178623400Y-89732912D01*
X178580104Y-89824391D01*
X178531625Y-89926484D01*
X178478789Y-90037435D01*
X178422426Y-90155488D01*
X178391253Y-90220655D01*
X178333329Y-90341837D01*
X178278483Y-90456906D01*
X178227546Y-90564099D01*
X178181348Y-90661653D01*
X178140719Y-90747806D01*
X178106490Y-90820794D01*
X178079491Y-90878855D01*
X178060553Y-90920226D01*
X178050504Y-90943143D01*
X178049067Y-90947205D01*
X178053899Y-90960217D01*
X178067859Y-90991960D01*
X178089897Y-91040244D01*
X178118966Y-91102884D01*
X178154017Y-91177690D01*
X178194003Y-91262475D01*
X178237876Y-91355052D01*
X178284587Y-91453233D01*
X178333088Y-91554830D01*
X178382332Y-91657656D01*
X178431269Y-91759523D01*
X178478853Y-91858244D01*
X178524035Y-91951630D01*
X178565767Y-92037495D01*
X178603000Y-92113650D01*
X178634687Y-92177909D01*
X178659780Y-92228083D01*
X178677230Y-92261984D01*
X178685990Y-92277426D01*
X178686718Y-92278147D01*
X178694364Y-92267981D01*
X178701932Y-92243213D01*
X178702537Y-92240309D01*
X178724119Y-92185014D01*
X178763090Y-92133567D01*
X178813642Y-92093348D01*
X178821826Y-92088760D01*
X178873884Y-92061144D01*
X178873884Y-91758554D01*
X178873785Y-91665857D01*
X178873341Y-91593491D01*
X178872328Y-91538321D01*
X178870771Y-91502874D01*
X179360702Y-91502874D01*
X179362415Y-91607370D01*
X179363571Y-91650480D01*
X179370343Y-91885122D01*
X179600196Y-91974760D01*
X179669503Y-92001585D01*
X179731841Y-92025328D01*
X179783751Y-92044703D01*
X179821771Y-92058422D01*
X179842441Y-92065199D01*
X179844715Y-92065683D01*
X179848095Y-92061415D01*
X179850949Y-92046930D01*
X179853314Y-92020666D01*
X179855228Y-91981063D01*
X179856730Y-91926562D01*
X179857855Y-91855600D01*
X179858643Y-91766619D01*
X179859130Y-91658057D01*
X179859355Y-91528354D01*
X179859380Y-91456900D01*
X179859380Y-90846831D01*
X179808162Y-90846831D01*
X179744868Y-90857150D01*
X179676442Y-90886071D01*
X179606780Y-90930534D01*
X179539778Y-90987485D01*
X179479331Y-91053864D01*
X179429336Y-91126615D01*
X179413121Y-91156846D01*
X179395263Y-91197584D01*
X179381495Y-91240692D01*
X179371487Y-91289473D01*
X179364906Y-91347228D01*
X179361422Y-91417261D01*
X179360702Y-91502874D01*
X178870771Y-91502874D01*
X178870523Y-91497217D01*
X178867704Y-91467043D01*
X178863645Y-91444667D01*
X178858126Y-91426955D01*
X178850922Y-91410775D01*
X178848816Y-91406571D01*
X178826342Y-91367393D01*
X178801274Y-91330716D01*
X178794809Y-91322572D01*
X178765868Y-91287967D01*
X178873547Y-91267429D01*
X178974981Y-91241184D01*
X179071259Y-91201069D01*
X179167759Y-91144471D01*
X179250391Y-91084270D01*
X179305109Y-91041366D01*
X179368337Y-90991805D01*
X179430112Y-90943395D01*
X179458764Y-90920948D01*
X179539604Y-90861354D01*
X179610299Y-90818044D01*
X179675241Y-90788878D01*
X179738818Y-90771721D01*
X179775985Y-90766509D01*
X179853514Y-90758840D01*
X179856625Y-90415095D01*
X179859736Y-90071350D01*
X179805402Y-90047316D01*
X179778711Y-90036070D01*
X179737298Y-90019293D01*
X179685177Y-89998544D01*
X179626360Y-89975382D01*
X179564859Y-89951368D01*
X179504688Y-89928062D01*
X179449858Y-89907023D01*
X179404383Y-89889812D01*
X179372275Y-89877988D01*
X179357546Y-89873112D01*
X179357176Y-89873066D01*
X179355920Y-89884269D01*
X179355191Y-89915775D01*
X179354989Y-89964426D01*
X179355315Y-90027068D01*
X179356168Y-90100544D01*
X179357201Y-90163436D01*
X179359518Y-90266371D01*
X179362683Y-90348828D01*
X179367326Y-90413791D01*
X179374078Y-90464243D01*
X179383572Y-90503169D01*
X179396438Y-90533555D01*
X179413308Y-90558383D01*
X179434814Y-90580638D01*
X179447871Y-90592045D01*
X179470466Y-90611920D01*
X179476156Y-90621170D01*
X179466373Y-90623813D01*
X179459227Y-90623921D01*
X179413035Y-90613805D01*
X179360326Y-90585112D01*
X179304933Y-90540323D01*
X179263611Y-90497291D01*
X179192207Y-90416174D01*
X179132535Y-90351433D01*
X179081889Y-90300945D01*
X179037563Y-90262591D01*
X178996852Y-90234249D01*
X178957048Y-90213798D01*
X178915447Y-90199117D01*
X178869341Y-90188086D01*
X178869003Y-90188018D01*
X178831744Y-90180037D01*
X178814067Y-90173776D01*
X178812477Y-90166708D01*
X178823478Y-90156309D01*
X178824260Y-90155685D01*
X178855572Y-90119708D01*
X178871200Y-90071917D01*
X178873884Y-90032444D01*
X178875268Y-89999200D01*
X178881987Y-89982222D01*
X178897887Y-89974359D01*
X178906147Y-89972475D01*
X179014763Y-89946371D01*
X179105014Y-89916664D01*
X179154121Y-89895006D01*
X179261037Y-89828104D01*
X179356820Y-89741706D01*
X179439468Y-89637933D01*
X179504544Y-89524036D01*
X179524093Y-89484512D01*
X179540044Y-89454760D01*
X179549653Y-89439821D01*
X179550845Y-89438979D01*
X179562723Y-89443027D01*
G37*
D12*
X103131000Y-72951748D02*
X103131000Y-73474252D01*
X101661000Y-72951748D02*
X101661000Y-73474252D01*
X100898758Y-82840000D02*
X102569242Y-82840000D01*
X100898758Y-84660000D02*
X102569242Y-84660000D01*
X106464000Y-89180748D02*
X106464000Y-89703252D01*
X104994000Y-89180748D02*
X104994000Y-89703252D01*
%LPC*%
D15*
X111229000Y-88300000D03*
X111229000Y-90200000D03*
D16*
X165234000Y-89600000D03*
D17*
X122168000Y-78987000D03*
X122168000Y-79489000D03*
X122168000Y-79991000D03*
X122168000Y-80493000D03*
X122168000Y-80995000D03*
X122168000Y-81497000D03*
X122168000Y-81999000D03*
X122168000Y-82501000D03*
X122168000Y-83003000D03*
X122168000Y-83505000D03*
X122168000Y-84007000D03*
X122168000Y-84509000D03*
X122168000Y-85011000D03*
X122168000Y-85513000D03*
X128000000Y-85500000D03*
X128000000Y-85000000D03*
X128000000Y-84500000D03*
X128000000Y-84000000D03*
X128000000Y-83500000D03*
X128000000Y-83003000D03*
X128000000Y-82500000D03*
X128000000Y-81999000D03*
X128000000Y-81497000D03*
X128000000Y-80995000D03*
X128000000Y-80493000D03*
X128000000Y-80000000D03*
X128000000Y-79489000D03*
X128000000Y-79000000D03*
D18*
X125084000Y-79782000D03*
D19*
X125084000Y-83358000D03*
D20*
X107529000Y-90525000D03*
X108479000Y-90525000D03*
X109429000Y-90525000D03*
X109429000Y-88250000D03*
X108479000Y-88250000D03*
X107529000Y-88250000D03*
D21*
X107113500Y-83706000D03*
X107113500Y-84656000D03*
X107113500Y-85606000D03*
X109388500Y-85606000D03*
X109388500Y-83706000D03*
D22*
X189734000Y-91975000D03*
X187453581Y-91030419D03*
X192014419Y-91030419D03*
X186509000Y-88750000D03*
D23*
X189734000Y-88750000D03*
D22*
X192959000Y-88750000D03*
X187453581Y-86469581D03*
X192014419Y-86469581D03*
X189734000Y-85525000D03*
D16*
X133234000Y-89600000D03*
D15*
X111887000Y-72056000D03*
X111887000Y-73956000D03*
D24*
X104640400Y-72320200D03*
X104640400Y-73590200D03*
X104640400Y-74860200D03*
X104640400Y-76130200D03*
X104640400Y-77400200D03*
X104640400Y-78670200D03*
X104640400Y-79940200D03*
X104640400Y-81210200D03*
X109590400Y-81210200D03*
X109590400Y-79940200D03*
X109590400Y-78670200D03*
X109590400Y-77400200D03*
X109590400Y-76130200D03*
X109590400Y-74860200D03*
X109590400Y-73590200D03*
X109590400Y-72320200D03*
D15*
X111351000Y-83688000D03*
X111351000Y-85588000D03*
D16*
X133234000Y-74900000D03*
D22*
X96734000Y-78975000D03*
X94453581Y-78030419D03*
X99014419Y-78030419D03*
X93509000Y-75750000D03*
D23*
X96734000Y-75750000D03*
D22*
X99959000Y-75750000D03*
X94453581Y-73469581D03*
X99014419Y-73469581D03*
X96734000Y-72525000D03*
X189734000Y-78975000D03*
X187453581Y-78030419D03*
X192014419Y-78030419D03*
X186509000Y-75750000D03*
D23*
X189734000Y-75750000D03*
D22*
X192959000Y-75750000D03*
X187453581Y-73469581D03*
X192014419Y-73469581D03*
X189734000Y-72525000D03*
D15*
X105151000Y-83688000D03*
X105151000Y-85588000D03*
D17*
X138168000Y-78987000D03*
X138168000Y-79489000D03*
X138168000Y-79991000D03*
X138168000Y-80493000D03*
X138168000Y-80995000D03*
X138168000Y-81497000D03*
X138168000Y-81999000D03*
X138168000Y-82501000D03*
X138168000Y-83003000D03*
X138168000Y-83505000D03*
X138168000Y-84007000D03*
X138168000Y-84509000D03*
X138168000Y-85011000D03*
X138168000Y-85513000D03*
X144000000Y-85500000D03*
X144000000Y-85000000D03*
X144000000Y-84500000D03*
X144000000Y-84000000D03*
X144000000Y-83500000D03*
X144000000Y-83003000D03*
X144000000Y-82500000D03*
X144000000Y-81999000D03*
X144000000Y-81497000D03*
X144000000Y-80995000D03*
X144000000Y-80493000D03*
X144000000Y-80000000D03*
X144000000Y-79489000D03*
X144000000Y-79000000D03*
D18*
X141084000Y-79782000D03*
D19*
X141084000Y-83358000D03*
D25*
X149243800Y-89888400D03*
X149743800Y-89888400D03*
X150243800Y-89888400D03*
X150243800Y-88408400D03*
X149743800Y-88408400D03*
X149243800Y-88408400D03*
D26*
X103129000Y-88350000D03*
X103129000Y-91150000D03*
D17*
X170168000Y-78987000D03*
X170168000Y-79489000D03*
X170168000Y-79991000D03*
X170168000Y-80493000D03*
X170168000Y-80995000D03*
X170168000Y-81497000D03*
X170168000Y-81999000D03*
X170168000Y-82501000D03*
X170168000Y-83003000D03*
X170168000Y-83505000D03*
X170168000Y-84007000D03*
X170168000Y-84509000D03*
X170168000Y-85011000D03*
X170168000Y-85513000D03*
X176000000Y-85500000D03*
X176000000Y-85000000D03*
X176000000Y-84500000D03*
X176000000Y-84000000D03*
X176000000Y-83500000D03*
X176000000Y-83003000D03*
X176000000Y-82500000D03*
X176000000Y-81999000D03*
X176000000Y-81497000D03*
X176000000Y-80995000D03*
X176000000Y-80493000D03*
X176000000Y-80000000D03*
X176000000Y-79489000D03*
X176000000Y-79000000D03*
D18*
X173084000Y-79782000D03*
D19*
X173084000Y-83358000D03*
D17*
X154168000Y-78987000D03*
X154168000Y-79489000D03*
X154168000Y-79991000D03*
X154168000Y-80493000D03*
X154168000Y-80995000D03*
X154168000Y-81497000D03*
X154168000Y-81999000D03*
X154168000Y-82501000D03*
X154168000Y-83003000D03*
X154168000Y-83505000D03*
X154168000Y-84007000D03*
X154168000Y-84509000D03*
X154168000Y-85011000D03*
X154168000Y-85513000D03*
X160000000Y-85500000D03*
X160000000Y-85000000D03*
X160000000Y-84500000D03*
X160000000Y-84000000D03*
X160000000Y-83500000D03*
X160000000Y-83003000D03*
X160000000Y-82500000D03*
X160000000Y-81999000D03*
X160000000Y-81497000D03*
X160000000Y-80995000D03*
X160000000Y-80493000D03*
X160000000Y-80000000D03*
X160000000Y-79489000D03*
X160000000Y-79000000D03*
D18*
X157084000Y-79782000D03*
D19*
X157084000Y-83358000D03*
D15*
X102396000Y-72263000D03*
X102396000Y-74163000D03*
D27*
X100159000Y-83750000D03*
X103309000Y-83750000D03*
D16*
X165234000Y-74900000D03*
D15*
X105729000Y-88492000D03*
X105729000Y-90392000D03*
D22*
X96734000Y-91975000D03*
X94453581Y-91030419D03*
X99014419Y-91030419D03*
X93509000Y-88750000D03*
D23*
X96734000Y-88750000D03*
D22*
X99959000Y-88750000D03*
X94453581Y-86469581D03*
X99014419Y-86469581D03*
X96734000Y-85525000D03*
%LPD*%
M02*
