G04 #@! TF.GenerationSoftware,KiCad,Pcbnew,7.0.7-7.0.7~ubuntu22.04.1*
G04 #@! TF.CreationDate,2024-03-15T11:13:54+01:00*
G04 #@! TF.ProjectId,kicad,6b696361-642e-46b6-9963-61645f706362,302*
G04 #@! TF.SameCoordinates,Original*
G04 #@! TF.FileFunction,Paste,Top*
G04 #@! TF.FilePolarity,Positive*
%FSLAX46Y46*%
G04 Gerber Fmt 4.6, Leading zero omitted, Abs format (unit mm)*
G04 Created by KiCad (PCBNEW 7.0.7-7.0.7~ubuntu22.04.1) date 2024-03-15 11:13:54*
%MOMM*%
%LPD*%
G01*
G04 APERTURE LIST*
G04 Aperture macros list*
%AMRoundRect*
0 Rectangle with rounded corners*
0 $1 Rounding radius*
0 $2 $3 $4 $5 $6 $7 $8 $9 X,Y pos of 4 corners*
0 Add a 4 corners polygon primitive as box body*
4,1,4,$2,$3,$4,$5,$6,$7,$8,$9,$2,$3,0*
0 Add four circle primitives for the rounded corners*
1,1,$1+$1,$2,$3*
1,1,$1+$1,$4,$5*
1,1,$1+$1,$6,$7*
1,1,$1+$1,$8,$9*
0 Add four rect primitives between the rounded corners*
20,1,$1+$1,$2,$3,$4,$5,0*
20,1,$1+$1,$4,$5,$6,$7,0*
20,1,$1+$1,$6,$7,$8,$9,0*
20,1,$1+$1,$8,$9,$2,$3,0*%
G04 Aperture macros list end*
%ADD10R,2.640000X2.240000*%
%ADD11RoundRect,0.147500X0.262500X0.412500X-0.262500X0.412500X-0.262500X-0.412500X0.262500X-0.412500X0*%
%ADD12RoundRect,0.135000X-0.325000X-0.585000X0.325000X-0.585000X0.325000X0.585000X-0.325000X0.585000X0*%
%ADD13RoundRect,0.147500X-0.262500X-0.412500X0.262500X-0.412500X0.262500X0.412500X-0.262500X0.412500X0*%
%ADD14RoundRect,0.135000X-0.585000X0.325000X-0.585000X-0.325000X0.585000X-0.325000X0.585000X0.325000X0*%
%ADD15RoundRect,0.150000X-0.430000X0.250000X-0.430000X-0.250000X0.430000X-0.250000X0.430000X0.250000X0*%
%ADD16RoundRect,0.110000X0.730000X-0.450000X0.730000X0.450000X-0.730000X0.450000X-0.730000X-0.450000X0*%
%ADD17RoundRect,0.147500X0.412500X-0.262500X0.412500X0.262500X-0.412500X0.262500X-0.412500X-0.262500X0*%
%ADD18RoundRect,0.135000X0.945000X-0.325000X0.945000X0.325000X-0.945000X0.325000X-0.945000X-0.325000X0*%
%ADD19RoundRect,0.135000X-0.945000X0.325000X-0.945000X-0.325000X0.945000X-0.325000X0.945000X0.325000X0*%
%ADD20R,1.600000X1.200000*%
%ADD21R,1.600000X3.040000*%
%ADD22RoundRect,0.150000X0.430000X-0.250000X0.430000X0.250000X-0.430000X0.250000X-0.430000X-0.250000X0*%
%ADD23R,2.208000X0.520000*%
%ADD24RoundRect,0.150000X0.250000X0.430000X-0.250000X0.430000X-0.250000X-0.430000X0.250000X-0.430000X0*%
%ADD25RoundRect,0.147500X-0.412500X0.262500X-0.412500X-0.262500X0.412500X-0.262500X0.412500X0.262500X0*%
%ADD26RoundRect,0.125000X0.575000X-0.375000X0.575000X0.375000X-0.575000X0.375000X-0.575000X-0.375000X0*%
%ADD27R,1.200000X3.200000*%
%ADD28R,0.520000X0.320000*%
%ADD29RoundRect,0.220588X0.229412X-0.429412X0.229412X0.429412X-0.229412X0.429412X-0.229412X-0.429412X0*%
%ADD30RoundRect,0.232843X0.242157X-0.467157X0.242157X0.467157X-0.242157X0.467157X-0.242157X-0.467157X0*%
%ADD31RoundRect,0.000000X0.100000X-0.320000X0.100000X0.320000X-0.100000X0.320000X-0.100000X-0.320000X0*%
%ADD32RoundRect,0.037500X0.282500X-0.062500X0.282500X0.062500X-0.282500X0.062500X-0.282500X-0.062500X0*%
%ADD33R,0.480000X0.920000*%
%ADD34R,0.240000X0.920000*%
%ADD35O,0.800000X1.680000*%
%ADD36O,0.800000X1.440000*%
%ADD37RoundRect,0.000000X0.600000X0.200000X-0.600000X0.200000X-0.600000X-0.200000X0.600000X-0.200000X0*%
%ADD38RoundRect,0.075000X0.125000X0.525000X-0.125000X0.525000X-0.125000X-0.525000X0.125000X-0.525000X0*%
%ADD39RoundRect,0.150000X-0.250000X-0.430000X0.250000X-0.430000X0.250000X0.430000X-0.250000X0.430000X0*%
%ADD40R,3.396000X3.048000*%
%ADD41RoundRect,0.137500X0.562500X-0.312500X0.562500X0.312500X-0.562500X0.312500X-0.562500X-0.312500X0*%
%ADD42RoundRect,0.000000X-1.000000X-0.920000X1.000000X-0.920000X1.000000X0.920000X-1.000000X0.920000X0*%
%ADD43RoundRect,0.135000X0.585000X-0.325000X0.585000X0.325000X-0.585000X0.325000X-0.585000X-0.325000X0*%
%ADD44R,2.400000X0.520000*%
%ADD45RoundRect,0.017500X0.512500X0.222500X-0.512500X0.222500X-0.512500X-0.222500X0.512500X-0.222500X0*%
G04 APERTURE END LIST*
D10*
X107066000Y-80899000D03*
X114676000Y-80899000D03*
D11*
X70786000Y-69215000D03*
X68961000Y-69215000D03*
D12*
X141425000Y-79619000D03*
X144375000Y-79619000D03*
D13*
X152528500Y-80000000D03*
X154353500Y-80000000D03*
D14*
X99187000Y-82472000D03*
X99187000Y-85422000D03*
D15*
X99110800Y-69584000D03*
X99110800Y-71484000D03*
D16*
X147091000Y-83851000D03*
X147091000Y-79451000D03*
D17*
X92118800Y-74826500D03*
X92118800Y-73001500D03*
D18*
X119500000Y-75377000D03*
X119500000Y-72427000D03*
D11*
X133400800Y-72796400D03*
X131575800Y-72796400D03*
D17*
X65301500Y-70889500D03*
X65301500Y-69064500D03*
D13*
X131575800Y-74930000D03*
X133400800Y-74930000D03*
D15*
X103752000Y-76139000D03*
X103752000Y-78039000D03*
D19*
X122725800Y-66888000D03*
X122725800Y-69838000D03*
D15*
X83161500Y-83379000D03*
X83161500Y-85279000D03*
D20*
X96622000Y-85231000D03*
X96622000Y-82931000D03*
D21*
X90322000Y-82931000D03*
D20*
X96622000Y-80631000D03*
D22*
X113505600Y-74400000D03*
X113505600Y-72500000D03*
D17*
X66052000Y-82827500D03*
X66052000Y-81002500D03*
X67206500Y-70889500D03*
X67206500Y-69064500D03*
D13*
X61698500Y-69215000D03*
X63523500Y-69215000D03*
D23*
X59460000Y-78359000D03*
X63500000Y-78359000D03*
X59460000Y-79629000D03*
X63500000Y-79629000D03*
X59460000Y-80899000D03*
X63500000Y-80899000D03*
X59460000Y-82169000D03*
X63500000Y-82169000D03*
X59460000Y-83439000D03*
X63500000Y-83439000D03*
D24*
X154010000Y-85461000D03*
X152110000Y-85461000D03*
D17*
X94150800Y-74826500D03*
X94150800Y-73001500D03*
D15*
X84582000Y-78806000D03*
X84582000Y-80706000D03*
D22*
X73382500Y-74865000D03*
X73382500Y-72965000D03*
D25*
X84836000Y-68660000D03*
X84836000Y-70485000D03*
D26*
X87249000Y-75163500D03*
X87249000Y-72363500D03*
D15*
X82169000Y-68204000D03*
X82169000Y-70104000D03*
D14*
X101600000Y-82472000D03*
X101600000Y-85422000D03*
D17*
X74803000Y-70127500D03*
X74803000Y-68302500D03*
D18*
X116299600Y-75377000D03*
X116299600Y-72427000D03*
D15*
X113725200Y-67850000D03*
X113725200Y-69750000D03*
D27*
X144573000Y-83810000D03*
X140973000Y-83810000D03*
D19*
X116325000Y-66889800D03*
X116325000Y-69839800D03*
D17*
X92118800Y-71461700D03*
X92118800Y-69636700D03*
D15*
X76835000Y-68265000D03*
X76835000Y-70165000D03*
D19*
X86868000Y-62406000D03*
X86868000Y-65356000D03*
D18*
X129159000Y-75363600D03*
X129159000Y-72413600D03*
D28*
X78552000Y-68565000D03*
X78552000Y-69215000D03*
X78552000Y-69865000D03*
X80452000Y-69865000D03*
X80452000Y-69215000D03*
X80452000Y-68565000D03*
D17*
X74676000Y-88034500D03*
X74676000Y-86209500D03*
D11*
X77912500Y-72500000D03*
X76087500Y-72500000D03*
D25*
X156108000Y-80587500D03*
X156108000Y-82412500D03*
D15*
X98806000Y-73091000D03*
X98806000Y-74991000D03*
D29*
X102591800Y-72008000D03*
X106791800Y-72008000D03*
D30*
X103991800Y-71958000D03*
X105391800Y-71958000D03*
X103991800Y-70258000D03*
X105391800Y-70258000D03*
D29*
X102591800Y-70208000D03*
X106791800Y-70208000D03*
D31*
X101941800Y-73608000D03*
X102441800Y-73608000D03*
X102941800Y-73608000D03*
X103441800Y-73608000D03*
X103941800Y-73608000D03*
X104441800Y-73608000D03*
X104941800Y-73608000D03*
X105441800Y-73608000D03*
X105941800Y-73608000D03*
X106441800Y-73608000D03*
X106941800Y-73608000D03*
X107441800Y-73608000D03*
D32*
X108191800Y-72858000D03*
X108191800Y-72358000D03*
X108191800Y-71858000D03*
X108191800Y-71358000D03*
X108191800Y-70858000D03*
X108191800Y-70358000D03*
X108191800Y-69858000D03*
X108191800Y-69358000D03*
D31*
X107441800Y-68608000D03*
X106941800Y-68608000D03*
X106441800Y-68608000D03*
X105941800Y-68608000D03*
X105441800Y-68608000D03*
X104941800Y-68608000D03*
X104441800Y-68608000D03*
X103941800Y-68608000D03*
X103441800Y-68608000D03*
X102941800Y-68608000D03*
X102441800Y-68608000D03*
X101941800Y-68608000D03*
D32*
X101191800Y-69358000D03*
X101191800Y-69858000D03*
X101191800Y-70358000D03*
X101191800Y-70858000D03*
X101191800Y-71358000D03*
X101191800Y-71858000D03*
X101191800Y-72358000D03*
X101191800Y-72858000D03*
D17*
X66052000Y-78255500D03*
X66052000Y-76430500D03*
D15*
X109762800Y-67850000D03*
X109762800Y-69750000D03*
D33*
X69526000Y-66680000D03*
X68726000Y-66680000D03*
D34*
X67576000Y-66680000D03*
X66576000Y-66680000D03*
X66076000Y-66680000D03*
X65076000Y-66680000D03*
D33*
X63926000Y-66680000D03*
X63126000Y-66680000D03*
X63126000Y-66680000D03*
X63926000Y-66680000D03*
D34*
X64576000Y-66680000D03*
X65576000Y-66680000D03*
X67076000Y-66680000D03*
X68076000Y-66680000D03*
D33*
X68726000Y-66680000D03*
X69526000Y-66680000D03*
D35*
X70646000Y-66105000D03*
D36*
X70646000Y-61925000D03*
D35*
X62006000Y-66105000D03*
D36*
X62006000Y-61925000D03*
D25*
X87249000Y-68660000D03*
X87249000Y-70485000D03*
D37*
X82383500Y-81922000D03*
X82383500Y-81122000D03*
X82383500Y-80322000D03*
X82383500Y-79522000D03*
X82383500Y-78722000D03*
X82383500Y-77922000D03*
X82383500Y-77122000D03*
X82383500Y-76322000D03*
D38*
X81008500Y-74947000D03*
X80208500Y-74947000D03*
X79408500Y-74947000D03*
X78608500Y-74947000D03*
X77808500Y-74947000D03*
X77008500Y-74947000D03*
X76208500Y-74947000D03*
X75408500Y-74947000D03*
D37*
X74033500Y-76322000D03*
X74033500Y-77122000D03*
X74033500Y-77922000D03*
X74033500Y-78722000D03*
X74033500Y-79522000D03*
X74033500Y-80322000D03*
X74033500Y-81122000D03*
X74033500Y-81922000D03*
D38*
X75408500Y-83297000D03*
X76208500Y-83297000D03*
X77008500Y-83297000D03*
X77808500Y-83297000D03*
X78608500Y-83297000D03*
X79408500Y-83297000D03*
X80208500Y-83297000D03*
X81008500Y-83297000D03*
D17*
X80240500Y-87273500D03*
X80240500Y-85448500D03*
D39*
X107424800Y-75299000D03*
X109324800Y-75299000D03*
D13*
X76407000Y-88138000D03*
X78232000Y-88138000D03*
D17*
X96182800Y-71448300D03*
X96182800Y-69623300D03*
X90086800Y-74865300D03*
X90086800Y-73040300D03*
D40*
X139687500Y-66750000D03*
X133312500Y-66750000D03*
D41*
X111295800Y-75362500D03*
X111295800Y-72437500D03*
D19*
X119525400Y-66888000D03*
X119525400Y-69838000D03*
D17*
X96182800Y-74814500D03*
X96182800Y-72989500D03*
D25*
X94150800Y-69634800D03*
X94150800Y-71459800D03*
D13*
X76684500Y-86233000D03*
X78509500Y-86233000D03*
D42*
X134850000Y-61750000D03*
X139150000Y-61750000D03*
D26*
X84836000Y-75163500D03*
X84836000Y-72363500D03*
D19*
X125926200Y-66889800D03*
X125926200Y-69839800D03*
D18*
X122700400Y-75363600D03*
X122700400Y-72413600D03*
D43*
X149758000Y-82491000D03*
X149758000Y-79541000D03*
D25*
X90086800Y-69636700D03*
X90086800Y-71461700D03*
D15*
X111744000Y-67850000D03*
X111744000Y-69750000D03*
D19*
X129126600Y-66889800D03*
X129126600Y-69839800D03*
D44*
X70042000Y-94996000D03*
X67042000Y-96266000D03*
X70042000Y-97536000D03*
X67042000Y-98806000D03*
X70042000Y-100076000D03*
X67042000Y-101346000D03*
X70042000Y-102616000D03*
X67042000Y-103886000D03*
X70042000Y-105156000D03*
X67042000Y-106426000D03*
X148542000Y-97536000D03*
X145542000Y-98806000D03*
X148542000Y-100076000D03*
X145542000Y-101346000D03*
X148542000Y-102616000D03*
X145542000Y-103886000D03*
D45*
X154197500Y-83617000D03*
X154197500Y-82667000D03*
X154197500Y-81717000D03*
X151922500Y-81717000D03*
X151922500Y-82667000D03*
X151922500Y-83617000D03*
D18*
X125933200Y-75363600D03*
X125933200Y-72413600D03*
G36*
X95543039Y-79719685D02*
G01*
X95588794Y-79772489D01*
X95600000Y-79824000D01*
X95600000Y-85976000D01*
X95580315Y-86043039D01*
X95527511Y-86088794D01*
X95476000Y-86100000D01*
X91424000Y-86100000D01*
X91356961Y-86080315D01*
X91311206Y-86027511D01*
X91300000Y-85976000D01*
X91300000Y-79824000D01*
X91319685Y-79756961D01*
X91372489Y-79711206D01*
X91424000Y-79700000D01*
X95476000Y-79700000D01*
X95543039Y-79719685D01*
G37*
M02*
