G04 #@! TF.GenerationSoftware,KiCad,Pcbnew,7.0.7-7.0.7~ubuntu22.04.1*
G04 #@! TF.CreationDate,2024-03-15T11:13:54+01:00*
G04 #@! TF.ProjectId,kicad,6b696361-642e-46b6-9963-61645f706362,302*
G04 #@! TF.SameCoordinates,Original*
G04 #@! TF.FileFunction,Legend,Top*
G04 #@! TF.FilePolarity,Positive*
%FSLAX46Y46*%
G04 Gerber Fmt 4.6, Leading zero omitted, Abs format (unit mm)*
G04 Created by KiCad (PCBNEW 7.0.7-7.0.7~ubuntu22.04.1) date 2024-03-15 11:13:54*
%MOMM*%
%LPD*%
G01*
G04 APERTURE LIST*
G04 Aperture macros list*
%AMRoundRect*
0 Rectangle with rounded corners*
0 $1 Rounding radius*
0 $2 $3 $4 $5 $6 $7 $8 $9 X,Y pos of 4 corners*
0 Add a 4 corners polygon primitive as box body*
4,1,4,$2,$3,$4,$5,$6,$7,$8,$9,$2,$3,0*
0 Add four circle primitives for the rounded corners*
1,1,$1+$1,$2,$3*
1,1,$1+$1,$4,$5*
1,1,$1+$1,$6,$7*
1,1,$1+$1,$8,$9*
0 Add four rect primitives between the rounded corners*
20,1,$1+$1,$2,$3,$4,$5,0*
20,1,$1+$1,$4,$5,$6,$7,0*
20,1,$1+$1,$6,$7,$8,$9,0*
20,1,$1+$1,$8,$9,$2,$3,0*%
%AMFreePoly0*
4,1,19,0.500000,-0.750000,0.000000,-0.750000,0.000000,-0.744911,-0.071157,-0.744911,-0.207708,-0.704816,-0.327430,-0.627875,-0.420627,-0.520320,-0.479746,-0.390866,-0.500000,-0.250000,-0.500000,0.250000,-0.479746,0.390866,-0.420627,0.520320,-0.327430,0.627875,-0.207708,0.704816,-0.071157,0.744911,0.000000,0.744911,0.000000,0.750000,0.500000,0.750000,0.500000,-0.750000,0.500000,-0.750000,
$1*%
%AMFreePoly1*
4,1,19,0.000000,0.744911,0.071157,0.744911,0.207708,0.704816,0.327430,0.627875,0.420627,0.520320,0.479746,0.390866,0.500000,0.250000,0.500000,-0.250000,0.479746,-0.390866,0.420627,-0.520320,0.327430,-0.627875,0.207708,-0.704816,0.071157,-0.744911,0.000000,-0.744911,0.000000,-0.750000,-0.500000,-0.750000,-0.500000,0.750000,0.000000,0.750000,0.000000,0.744911,0.000000,0.744911,
$1*%
G04 Aperture macros list end*
%ADD10C,0.150000*%
%ADD11C,0.100000*%
%ADD12C,0.120000*%
%ADD13C,0.200000*%
%ADD14R,3.300000X2.800000*%
%ADD15RoundRect,0.250000X0.262500X0.450000X-0.262500X0.450000X-0.262500X-0.450000X0.262500X-0.450000X0*%
%ADD16RoundRect,0.250000X-0.325000X-0.650000X0.325000X-0.650000X0.325000X0.650000X-0.325000X0.650000X0*%
%ADD17RoundRect,0.250000X-0.262500X-0.450000X0.262500X-0.450000X0.262500X0.450000X-0.262500X0.450000X0*%
%ADD18RoundRect,0.250000X-0.650000X0.325000X-0.650000X-0.325000X0.650000X-0.325000X0.650000X0.325000X0*%
%ADD19RoundRect,0.250000X-0.475000X0.250000X-0.475000X-0.250000X0.475000X-0.250000X0.475000X0.250000X0*%
%ADD20RoundRect,0.250000X0.800000X-0.450000X0.800000X0.450000X-0.800000X0.450000X-0.800000X-0.450000X0*%
%ADD21RoundRect,0.250000X0.450000X-0.262500X0.450000X0.262500X-0.450000X0.262500X-0.450000X-0.262500X0*%
%ADD22RoundRect,0.250000X1.100000X-0.325000X1.100000X0.325000X-1.100000X0.325000X-1.100000X-0.325000X0*%
%ADD23RoundRect,0.250000X-1.100000X0.325000X-1.100000X-0.325000X1.100000X-0.325000X1.100000X0.325000X0*%
%ADD24R,2.000000X1.500000*%
%ADD25R,2.000000X3.800000*%
%ADD26RoundRect,0.250000X0.475000X-0.250000X0.475000X0.250000X-0.475000X0.250000X-0.475000X-0.250000X0*%
%ADD27R,2.600000X2.600000*%
%ADD28C,2.600000*%
%ADD29R,2.760000X0.650000*%
%ADD30RoundRect,0.250000X0.250000X0.475000X-0.250000X0.475000X-0.250000X-0.475000X0.250000X-0.475000X0*%
%ADD31RoundRect,0.250000X-0.450000X0.262500X-0.450000X-0.262500X0.450000X-0.262500X0.450000X0.262500X0*%
%ADD32RoundRect,0.250000X0.625000X-0.375000X0.625000X0.375000X-0.625000X0.375000X-0.625000X-0.375000X0*%
%ADD33R,1.500000X4.000000*%
%ADD34R,0.650000X0.400000*%
%ADD35RoundRect,0.062500X0.062500X-0.337500X0.062500X0.337500X-0.062500X0.337500X-0.062500X-0.337500X0*%
%ADD36RoundRect,0.062500X0.337500X-0.062500X0.337500X0.062500X-0.337500X0.062500X-0.337500X-0.062500X0*%
%ADD37C,0.400000*%
%ADD38R,5.300000X3.300000*%
%ADD39C,0.650000*%
%ADD40R,0.600000X1.150000*%
%ADD41R,0.300000X1.150000*%
%ADD42O,1.000000X2.100000*%
%ADD43O,1.000000X1.800000*%
%ADD44RoundRect,0.125000X0.625000X0.125000X-0.625000X0.125000X-0.625000X-0.125000X0.625000X-0.125000X0*%
%ADD45RoundRect,0.125000X0.125000X0.625000X-0.125000X0.625000X-0.125000X-0.625000X0.125000X-0.625000X0*%
%ADD46RoundRect,0.250000X-0.250000X-0.475000X0.250000X-0.475000X0.250000X0.475000X-0.250000X0.475000X0*%
%ADD47R,2.000000X2.000000*%
%ADD48R,4.245000X3.810000*%
%ADD49RoundRect,0.250000X0.625000X-0.312500X0.625000X0.312500X-0.625000X0.312500X-0.625000X-0.312500X0*%
%ADD50C,1.100000*%
%ADD51R,1.730000X2.030000*%
%ADD52O,1.730000X2.030000*%
%ADD53RoundRect,0.250000X-1.000000X-0.900000X1.000000X-0.900000X1.000000X0.900000X-1.000000X0.900000X0*%
%ADD54FreePoly0,180.000000*%
%ADD55FreePoly1,180.000000*%
%ADD56RoundRect,0.250000X0.650000X-0.325000X0.650000X0.325000X-0.650000X0.325000X-0.650000X-0.325000X0*%
%ADD57C,0.900000*%
%ADD58C,8.600000*%
%ADD59R,3.000000X0.650000*%
%ADD60RoundRect,0.150000X0.512500X0.150000X-0.512500X0.150000X-0.512500X-0.150000X0.512500X-0.150000X0*%
G04 APERTURE END LIST*
D10*
X90997255Y-65668057D02*
X90697255Y-65239485D01*
X90482969Y-65668057D02*
X90482969Y-64768057D01*
X90482969Y-64768057D02*
X90825826Y-64768057D01*
X90825826Y-64768057D02*
X90911541Y-64810914D01*
X90911541Y-64810914D02*
X90954398Y-64853771D01*
X90954398Y-64853771D02*
X90997255Y-64939485D01*
X90997255Y-64939485D02*
X90997255Y-65068057D01*
X90997255Y-65068057D02*
X90954398Y-65153771D01*
X90954398Y-65153771D02*
X90911541Y-65196628D01*
X90911541Y-65196628D02*
X90825826Y-65239485D01*
X90825826Y-65239485D02*
X90482969Y-65239485D01*
X91511541Y-65668057D02*
X91425826Y-65625200D01*
X91425826Y-65625200D02*
X91382969Y-65582342D01*
X91382969Y-65582342D02*
X91340112Y-65496628D01*
X91340112Y-65496628D02*
X91340112Y-65239485D01*
X91340112Y-65239485D02*
X91382969Y-65153771D01*
X91382969Y-65153771D02*
X91425826Y-65110914D01*
X91425826Y-65110914D02*
X91511541Y-65068057D01*
X91511541Y-65068057D02*
X91640112Y-65068057D01*
X91640112Y-65068057D02*
X91725826Y-65110914D01*
X91725826Y-65110914D02*
X91768684Y-65153771D01*
X91768684Y-65153771D02*
X91811541Y-65239485D01*
X91811541Y-65239485D02*
X91811541Y-65496628D01*
X91811541Y-65496628D02*
X91768684Y-65582342D01*
X91768684Y-65582342D02*
X91725826Y-65625200D01*
X91725826Y-65625200D02*
X91640112Y-65668057D01*
X91640112Y-65668057D02*
X91511541Y-65668057D01*
X92582970Y-65625200D02*
X92497255Y-65668057D01*
X92497255Y-65668057D02*
X92325827Y-65668057D01*
X92325827Y-65668057D02*
X92240112Y-65625200D01*
X92240112Y-65625200D02*
X92197255Y-65582342D01*
X92197255Y-65582342D02*
X92154398Y-65496628D01*
X92154398Y-65496628D02*
X92154398Y-65239485D01*
X92154398Y-65239485D02*
X92197255Y-65153771D01*
X92197255Y-65153771D02*
X92240112Y-65110914D01*
X92240112Y-65110914D02*
X92325827Y-65068057D01*
X92325827Y-65068057D02*
X92497255Y-65068057D01*
X92497255Y-65068057D02*
X92582970Y-65110914D01*
X92968684Y-65668057D02*
X92968684Y-64768057D01*
X93054399Y-65325200D02*
X93311541Y-65668057D01*
X93311541Y-65068057D02*
X92968684Y-65410914D01*
X94040112Y-65625200D02*
X93954398Y-65668057D01*
X93954398Y-65668057D02*
X93782970Y-65668057D01*
X93782970Y-65668057D02*
X93697255Y-65625200D01*
X93697255Y-65625200D02*
X93654398Y-65539485D01*
X93654398Y-65539485D02*
X93654398Y-65196628D01*
X93654398Y-65196628D02*
X93697255Y-65110914D01*
X93697255Y-65110914D02*
X93782970Y-65068057D01*
X93782970Y-65068057D02*
X93954398Y-65068057D01*
X93954398Y-65068057D02*
X94040112Y-65110914D01*
X94040112Y-65110914D02*
X94082970Y-65196628D01*
X94082970Y-65196628D02*
X94082970Y-65282342D01*
X94082970Y-65282342D02*
X93654398Y-65368057D01*
X94340113Y-65068057D02*
X94682970Y-65068057D01*
X94468684Y-64768057D02*
X94468684Y-65539485D01*
X94468684Y-65539485D02*
X94511541Y-65625200D01*
X94511541Y-65625200D02*
X94597256Y-65668057D01*
X94597256Y-65668057D02*
X94682970Y-65668057D01*
X96182970Y-65668057D02*
X95882970Y-65239485D01*
X95668684Y-65668057D02*
X95668684Y-64768057D01*
X95668684Y-64768057D02*
X96011541Y-64768057D01*
X96011541Y-64768057D02*
X96097256Y-64810914D01*
X96097256Y-64810914D02*
X96140113Y-64853771D01*
X96140113Y-64853771D02*
X96182970Y-64939485D01*
X96182970Y-64939485D02*
X96182970Y-65068057D01*
X96182970Y-65068057D02*
X96140113Y-65153771D01*
X96140113Y-65153771D02*
X96097256Y-65196628D01*
X96097256Y-65196628D02*
X96011541Y-65239485D01*
X96011541Y-65239485D02*
X95668684Y-65239485D01*
X96954399Y-65668057D02*
X96954399Y-65196628D01*
X96954399Y-65196628D02*
X96911541Y-65110914D01*
X96911541Y-65110914D02*
X96825827Y-65068057D01*
X96825827Y-65068057D02*
X96654399Y-65068057D01*
X96654399Y-65068057D02*
X96568684Y-65110914D01*
X96954399Y-65625200D02*
X96868684Y-65668057D01*
X96868684Y-65668057D02*
X96654399Y-65668057D01*
X96654399Y-65668057D02*
X96568684Y-65625200D01*
X96568684Y-65625200D02*
X96525827Y-65539485D01*
X96525827Y-65539485D02*
X96525827Y-65453771D01*
X96525827Y-65453771D02*
X96568684Y-65368057D01*
X96568684Y-65368057D02*
X96654399Y-65325200D01*
X96654399Y-65325200D02*
X96868684Y-65325200D01*
X96868684Y-65325200D02*
X96954399Y-65282342D01*
X97382970Y-65668057D02*
X97382970Y-65068057D01*
X97382970Y-65153771D02*
X97425827Y-65110914D01*
X97425827Y-65110914D02*
X97511542Y-65068057D01*
X97511542Y-65068057D02*
X97640113Y-65068057D01*
X97640113Y-65068057D02*
X97725827Y-65110914D01*
X97725827Y-65110914D02*
X97768685Y-65196628D01*
X97768685Y-65196628D02*
X97768685Y-65668057D01*
X97768685Y-65196628D02*
X97811542Y-65110914D01*
X97811542Y-65110914D02*
X97897256Y-65068057D01*
X97897256Y-65068057D02*
X98025827Y-65068057D01*
X98025827Y-65068057D02*
X98111542Y-65110914D01*
X98111542Y-65110914D02*
X98154399Y-65196628D01*
X98154399Y-65196628D02*
X98154399Y-65668057D01*
X98582970Y-65068057D02*
X98582970Y-65968057D01*
X98582970Y-65110914D02*
X98668685Y-65068057D01*
X98668685Y-65068057D02*
X98840113Y-65068057D01*
X98840113Y-65068057D02*
X98925827Y-65110914D01*
X98925827Y-65110914D02*
X98968685Y-65153771D01*
X98968685Y-65153771D02*
X99011542Y-65239485D01*
X99011542Y-65239485D02*
X99011542Y-65496628D01*
X99011542Y-65496628D02*
X98968685Y-65582342D01*
X98968685Y-65582342D02*
X98925827Y-65625200D01*
X98925827Y-65625200D02*
X98840113Y-65668057D01*
X98840113Y-65668057D02*
X98668685Y-65668057D01*
X98668685Y-65668057D02*
X98582970Y-65625200D01*
X100082970Y-65668057D02*
X100082970Y-65068057D01*
X100082970Y-65239485D02*
X100125827Y-65153771D01*
X100125827Y-65153771D02*
X100168685Y-65110914D01*
X100168685Y-65110914D02*
X100254399Y-65068057D01*
X100254399Y-65068057D02*
X100340113Y-65068057D01*
X100982970Y-65625200D02*
X100897256Y-65668057D01*
X100897256Y-65668057D02*
X100725828Y-65668057D01*
X100725828Y-65668057D02*
X100640113Y-65625200D01*
X100640113Y-65625200D02*
X100597256Y-65539485D01*
X100597256Y-65539485D02*
X100597256Y-65196628D01*
X100597256Y-65196628D02*
X100640113Y-65110914D01*
X100640113Y-65110914D02*
X100725828Y-65068057D01*
X100725828Y-65068057D02*
X100897256Y-65068057D01*
X100897256Y-65068057D02*
X100982970Y-65110914D01*
X100982970Y-65110914D02*
X101025828Y-65196628D01*
X101025828Y-65196628D02*
X101025828Y-65282342D01*
X101025828Y-65282342D02*
X100597256Y-65368057D01*
X101325828Y-65068057D02*
X101540114Y-65668057D01*
X101540114Y-65668057D02*
X101754399Y-65068057D01*
X102568685Y-65668057D02*
X102054399Y-65668057D01*
X102311542Y-65668057D02*
X102311542Y-64768057D01*
X102311542Y-64768057D02*
X102225828Y-64896628D01*
X102225828Y-64896628D02*
X102140113Y-64982342D01*
X102140113Y-64982342D02*
X102054399Y-65025200D01*
D11*
X109704333Y-76356419D02*
X109228143Y-76356419D01*
X109228143Y-76356419D02*
X109228143Y-75356419D01*
X109990048Y-75451657D02*
X110037667Y-75404038D01*
X110037667Y-75404038D02*
X110132905Y-75356419D01*
X110132905Y-75356419D02*
X110371000Y-75356419D01*
X110371000Y-75356419D02*
X110466238Y-75404038D01*
X110466238Y-75404038D02*
X110513857Y-75451657D01*
X110513857Y-75451657D02*
X110561476Y-75546895D01*
X110561476Y-75546895D02*
X110561476Y-75642133D01*
X110561476Y-75642133D02*
X110513857Y-75784990D01*
X110513857Y-75784990D02*
X109942429Y-76356419D01*
X109942429Y-76356419D02*
X110561476Y-76356419D01*
D10*
X70250114Y-71075895D02*
X69983447Y-70694942D01*
X69792971Y-71075895D02*
X69792971Y-70275895D01*
X69792971Y-70275895D02*
X70097733Y-70275895D01*
X70097733Y-70275895D02*
X70173923Y-70313990D01*
X70173923Y-70313990D02*
X70212018Y-70352085D01*
X70212018Y-70352085D02*
X70250114Y-70428276D01*
X70250114Y-70428276D02*
X70250114Y-70542561D01*
X70250114Y-70542561D02*
X70212018Y-70618752D01*
X70212018Y-70618752D02*
X70173923Y-70656847D01*
X70173923Y-70656847D02*
X70097733Y-70694942D01*
X70097733Y-70694942D02*
X69792971Y-70694942D01*
X71012018Y-71075895D02*
X70554875Y-71075895D01*
X70783447Y-71075895D02*
X70783447Y-70275895D01*
X70783447Y-70275895D02*
X70707256Y-70390180D01*
X70707256Y-70390180D02*
X70631066Y-70466371D01*
X70631066Y-70466371D02*
X70554875Y-70504466D01*
X71507257Y-70275895D02*
X71583447Y-70275895D01*
X71583447Y-70275895D02*
X71659638Y-70313990D01*
X71659638Y-70313990D02*
X71697733Y-70352085D01*
X71697733Y-70352085D02*
X71735828Y-70428276D01*
X71735828Y-70428276D02*
X71773923Y-70580657D01*
X71773923Y-70580657D02*
X71773923Y-70771133D01*
X71773923Y-70771133D02*
X71735828Y-70923514D01*
X71735828Y-70923514D02*
X71697733Y-70999704D01*
X71697733Y-70999704D02*
X71659638Y-71037800D01*
X71659638Y-71037800D02*
X71583447Y-71075895D01*
X71583447Y-71075895D02*
X71507257Y-71075895D01*
X71507257Y-71075895D02*
X71431066Y-71037800D01*
X71431066Y-71037800D02*
X71392971Y-70999704D01*
X71392971Y-70999704D02*
X71354876Y-70923514D01*
X71354876Y-70923514D02*
X71316780Y-70771133D01*
X71316780Y-70771133D02*
X71316780Y-70580657D01*
X71316780Y-70580657D02*
X71354876Y-70428276D01*
X71354876Y-70428276D02*
X71392971Y-70352085D01*
X71392971Y-70352085D02*
X71431066Y-70313990D01*
X71431066Y-70313990D02*
X71507257Y-70275895D01*
X143427467Y-78286904D02*
X143389371Y-78325000D01*
X143389371Y-78325000D02*
X143275086Y-78363095D01*
X143275086Y-78363095D02*
X143198895Y-78363095D01*
X143198895Y-78363095D02*
X143084609Y-78325000D01*
X143084609Y-78325000D02*
X143008419Y-78248809D01*
X143008419Y-78248809D02*
X142970324Y-78172619D01*
X142970324Y-78172619D02*
X142932228Y-78020238D01*
X142932228Y-78020238D02*
X142932228Y-77905952D01*
X142932228Y-77905952D02*
X142970324Y-77753571D01*
X142970324Y-77753571D02*
X143008419Y-77677380D01*
X143008419Y-77677380D02*
X143084609Y-77601190D01*
X143084609Y-77601190D02*
X143198895Y-77563095D01*
X143198895Y-77563095D02*
X143275086Y-77563095D01*
X143275086Y-77563095D02*
X143389371Y-77601190D01*
X143389371Y-77601190D02*
X143427467Y-77639285D01*
X143808419Y-78363095D02*
X143960800Y-78363095D01*
X143960800Y-78363095D02*
X144036990Y-78325000D01*
X144036990Y-78325000D02*
X144075086Y-78286904D01*
X144075086Y-78286904D02*
X144151276Y-78172619D01*
X144151276Y-78172619D02*
X144189371Y-78020238D01*
X144189371Y-78020238D02*
X144189371Y-77715476D01*
X144189371Y-77715476D02*
X144151276Y-77639285D01*
X144151276Y-77639285D02*
X144113181Y-77601190D01*
X144113181Y-77601190D02*
X144036990Y-77563095D01*
X144036990Y-77563095D02*
X143884609Y-77563095D01*
X143884609Y-77563095D02*
X143808419Y-77601190D01*
X143808419Y-77601190D02*
X143770324Y-77639285D01*
X143770324Y-77639285D02*
X143732228Y-77715476D01*
X143732228Y-77715476D02*
X143732228Y-77905952D01*
X143732228Y-77905952D02*
X143770324Y-77982142D01*
X143770324Y-77982142D02*
X143808419Y-78020238D01*
X143808419Y-78020238D02*
X143884609Y-78058333D01*
X143884609Y-78058333D02*
X144036990Y-78058333D01*
X144036990Y-78058333D02*
X144113181Y-78020238D01*
X144113181Y-78020238D02*
X144151276Y-77982142D01*
X144151276Y-77982142D02*
X144189371Y-77905952D01*
X153307667Y-78712295D02*
X153041000Y-78331342D01*
X152850524Y-78712295D02*
X152850524Y-77912295D01*
X152850524Y-77912295D02*
X153155286Y-77912295D01*
X153155286Y-77912295D02*
X153231476Y-77950390D01*
X153231476Y-77950390D02*
X153269571Y-77988485D01*
X153269571Y-77988485D02*
X153307667Y-78064676D01*
X153307667Y-78064676D02*
X153307667Y-78178961D01*
X153307667Y-78178961D02*
X153269571Y-78255152D01*
X153269571Y-78255152D02*
X153231476Y-78293247D01*
X153231476Y-78293247D02*
X153155286Y-78331342D01*
X153155286Y-78331342D02*
X152850524Y-78331342D01*
X153574333Y-77912295D02*
X154107667Y-77912295D01*
X154107667Y-77912295D02*
X153764809Y-78712295D01*
X99549304Y-81235485D02*
X99587400Y-81273581D01*
X99587400Y-81273581D02*
X99625495Y-81387866D01*
X99625495Y-81387866D02*
X99625495Y-81464057D01*
X99625495Y-81464057D02*
X99587400Y-81578343D01*
X99587400Y-81578343D02*
X99511209Y-81654533D01*
X99511209Y-81654533D02*
X99435019Y-81692628D01*
X99435019Y-81692628D02*
X99282638Y-81730724D01*
X99282638Y-81730724D02*
X99168352Y-81730724D01*
X99168352Y-81730724D02*
X99015971Y-81692628D01*
X99015971Y-81692628D02*
X98939780Y-81654533D01*
X98939780Y-81654533D02*
X98863590Y-81578343D01*
X98863590Y-81578343D02*
X98825495Y-81464057D01*
X98825495Y-81464057D02*
X98825495Y-81387866D01*
X98825495Y-81387866D02*
X98863590Y-81273581D01*
X98863590Y-81273581D02*
X98901685Y-81235485D01*
X99625495Y-80473581D02*
X99625495Y-80930724D01*
X99625495Y-80702152D02*
X98825495Y-80702152D01*
X98825495Y-80702152D02*
X98939780Y-80778343D01*
X98939780Y-80778343D02*
X99015971Y-80854533D01*
X99015971Y-80854533D02*
X99054066Y-80930724D01*
X98825495Y-80206914D02*
X98825495Y-79673580D01*
X98825495Y-79673580D02*
X99625495Y-80016438D01*
X99378504Y-68433885D02*
X99416600Y-68471981D01*
X99416600Y-68471981D02*
X99454695Y-68586266D01*
X99454695Y-68586266D02*
X99454695Y-68662457D01*
X99454695Y-68662457D02*
X99416600Y-68776743D01*
X99416600Y-68776743D02*
X99340409Y-68852933D01*
X99340409Y-68852933D02*
X99264219Y-68891028D01*
X99264219Y-68891028D02*
X99111838Y-68929124D01*
X99111838Y-68929124D02*
X98997552Y-68929124D01*
X98997552Y-68929124D02*
X98845171Y-68891028D01*
X98845171Y-68891028D02*
X98768980Y-68852933D01*
X98768980Y-68852933D02*
X98692790Y-68776743D01*
X98692790Y-68776743D02*
X98654695Y-68662457D01*
X98654695Y-68662457D02*
X98654695Y-68586266D01*
X98654695Y-68586266D02*
X98692790Y-68471981D01*
X98692790Y-68471981D02*
X98730885Y-68433885D01*
X99454695Y-67671981D02*
X99454695Y-68129124D01*
X99454695Y-67900552D02*
X98654695Y-67900552D01*
X98654695Y-67900552D02*
X98768980Y-67976743D01*
X98768980Y-67976743D02*
X98845171Y-68052933D01*
X98845171Y-68052933D02*
X98883266Y-68129124D01*
X98997552Y-67214838D02*
X98959457Y-67291028D01*
X98959457Y-67291028D02*
X98921361Y-67329123D01*
X98921361Y-67329123D02*
X98845171Y-67367219D01*
X98845171Y-67367219D02*
X98807076Y-67367219D01*
X98807076Y-67367219D02*
X98730885Y-67329123D01*
X98730885Y-67329123D02*
X98692790Y-67291028D01*
X98692790Y-67291028D02*
X98654695Y-67214838D01*
X98654695Y-67214838D02*
X98654695Y-67062457D01*
X98654695Y-67062457D02*
X98692790Y-66986266D01*
X98692790Y-66986266D02*
X98730885Y-66948171D01*
X98730885Y-66948171D02*
X98807076Y-66910076D01*
X98807076Y-66910076D02*
X98845171Y-66910076D01*
X98845171Y-66910076D02*
X98921361Y-66948171D01*
X98921361Y-66948171D02*
X98959457Y-66986266D01*
X98959457Y-66986266D02*
X98997552Y-67062457D01*
X98997552Y-67062457D02*
X98997552Y-67214838D01*
X98997552Y-67214838D02*
X99035647Y-67291028D01*
X99035647Y-67291028D02*
X99073742Y-67329123D01*
X99073742Y-67329123D02*
X99149933Y-67367219D01*
X99149933Y-67367219D02*
X99302314Y-67367219D01*
X99302314Y-67367219D02*
X99378504Y-67329123D01*
X99378504Y-67329123D02*
X99416600Y-67291028D01*
X99416600Y-67291028D02*
X99454695Y-67214838D01*
X99454695Y-67214838D02*
X99454695Y-67062457D01*
X99454695Y-67062457D02*
X99416600Y-66986266D01*
X99416600Y-66986266D02*
X99378504Y-66948171D01*
X99378504Y-66948171D02*
X99302314Y-66910076D01*
X99302314Y-66910076D02*
X99149933Y-66910076D01*
X99149933Y-66910076D02*
X99073742Y-66948171D01*
X99073742Y-66948171D02*
X99035647Y-66986266D01*
X99035647Y-66986266D02*
X98997552Y-67062457D01*
X147326695Y-78540475D02*
X146526695Y-78540475D01*
X146526695Y-78540475D02*
X146526695Y-78349999D01*
X146526695Y-78349999D02*
X146564790Y-78235713D01*
X146564790Y-78235713D02*
X146640980Y-78159523D01*
X146640980Y-78159523D02*
X146717171Y-78121428D01*
X146717171Y-78121428D02*
X146869552Y-78083332D01*
X146869552Y-78083332D02*
X146983838Y-78083332D01*
X146983838Y-78083332D02*
X147136219Y-78121428D01*
X147136219Y-78121428D02*
X147212409Y-78159523D01*
X147212409Y-78159523D02*
X147288600Y-78235713D01*
X147288600Y-78235713D02*
X147326695Y-78349999D01*
X147326695Y-78349999D02*
X147326695Y-78540475D01*
X146602885Y-77778571D02*
X146564790Y-77740475D01*
X146564790Y-77740475D02*
X146526695Y-77664285D01*
X146526695Y-77664285D02*
X146526695Y-77473809D01*
X146526695Y-77473809D02*
X146564790Y-77397618D01*
X146564790Y-77397618D02*
X146602885Y-77359523D01*
X146602885Y-77359523D02*
X146679076Y-77321428D01*
X146679076Y-77321428D02*
X146755266Y-77321428D01*
X146755266Y-77321428D02*
X146869552Y-77359523D01*
X146869552Y-77359523D02*
X147326695Y-77816666D01*
X147326695Y-77816666D02*
X147326695Y-77321428D01*
X92481095Y-76587332D02*
X92100142Y-76853999D01*
X92481095Y-77044475D02*
X91681095Y-77044475D01*
X91681095Y-77044475D02*
X91681095Y-76739713D01*
X91681095Y-76739713D02*
X91719190Y-76663523D01*
X91719190Y-76663523D02*
X91757285Y-76625428D01*
X91757285Y-76625428D02*
X91833476Y-76587332D01*
X91833476Y-76587332D02*
X91947761Y-76587332D01*
X91947761Y-76587332D02*
X92023952Y-76625428D01*
X92023952Y-76625428D02*
X92062047Y-76663523D01*
X92062047Y-76663523D02*
X92100142Y-76739713D01*
X92100142Y-76739713D02*
X92100142Y-77044475D01*
X91757285Y-76282571D02*
X91719190Y-76244475D01*
X91719190Y-76244475D02*
X91681095Y-76168285D01*
X91681095Y-76168285D02*
X91681095Y-75977809D01*
X91681095Y-75977809D02*
X91719190Y-75901618D01*
X91719190Y-75901618D02*
X91757285Y-75863523D01*
X91757285Y-75863523D02*
X91833476Y-75825428D01*
X91833476Y-75825428D02*
X91909666Y-75825428D01*
X91909666Y-75825428D02*
X92023952Y-75863523D01*
X92023952Y-75863523D02*
X92481095Y-76320666D01*
X92481095Y-76320666D02*
X92481095Y-75825428D01*
X119392114Y-77183504D02*
X119354018Y-77221600D01*
X119354018Y-77221600D02*
X119239733Y-77259695D01*
X119239733Y-77259695D02*
X119163542Y-77259695D01*
X119163542Y-77259695D02*
X119049256Y-77221600D01*
X119049256Y-77221600D02*
X118973066Y-77145409D01*
X118973066Y-77145409D02*
X118934971Y-77069219D01*
X118934971Y-77069219D02*
X118896875Y-76916838D01*
X118896875Y-76916838D02*
X118896875Y-76802552D01*
X118896875Y-76802552D02*
X118934971Y-76650171D01*
X118934971Y-76650171D02*
X118973066Y-76573980D01*
X118973066Y-76573980D02*
X119049256Y-76497790D01*
X119049256Y-76497790D02*
X119163542Y-76459695D01*
X119163542Y-76459695D02*
X119239733Y-76459695D01*
X119239733Y-76459695D02*
X119354018Y-76497790D01*
X119354018Y-76497790D02*
X119392114Y-76535885D01*
X119696875Y-76535885D02*
X119734971Y-76497790D01*
X119734971Y-76497790D02*
X119811161Y-76459695D01*
X119811161Y-76459695D02*
X120001637Y-76459695D01*
X120001637Y-76459695D02*
X120077828Y-76497790D01*
X120077828Y-76497790D02*
X120115923Y-76535885D01*
X120115923Y-76535885D02*
X120154018Y-76612076D01*
X120154018Y-76612076D02*
X120154018Y-76688266D01*
X120154018Y-76688266D02*
X120115923Y-76802552D01*
X120115923Y-76802552D02*
X119658780Y-77259695D01*
X119658780Y-77259695D02*
X120154018Y-77259695D01*
X120420685Y-76459695D02*
X120915923Y-76459695D01*
X120915923Y-76459695D02*
X120649257Y-76764457D01*
X120649257Y-76764457D02*
X120763542Y-76764457D01*
X120763542Y-76764457D02*
X120839733Y-76802552D01*
X120839733Y-76802552D02*
X120877828Y-76840647D01*
X120877828Y-76840647D02*
X120915923Y-76916838D01*
X120915923Y-76916838D02*
X120915923Y-77107314D01*
X120915923Y-77107314D02*
X120877828Y-77183504D01*
X120877828Y-77183504D02*
X120839733Y-77221600D01*
X120839733Y-77221600D02*
X120763542Y-77259695D01*
X120763542Y-77259695D02*
X120534971Y-77259695D01*
X120534971Y-77259695D02*
X120458780Y-77221600D01*
X120458780Y-77221600D02*
X120420685Y-77183504D01*
X132022914Y-71837895D02*
X131756247Y-71456942D01*
X131565771Y-71837895D02*
X131565771Y-71037895D01*
X131565771Y-71037895D02*
X131870533Y-71037895D01*
X131870533Y-71037895D02*
X131946723Y-71075990D01*
X131946723Y-71075990D02*
X131984818Y-71114085D01*
X131984818Y-71114085D02*
X132022914Y-71190276D01*
X132022914Y-71190276D02*
X132022914Y-71304561D01*
X132022914Y-71304561D02*
X131984818Y-71380752D01*
X131984818Y-71380752D02*
X131946723Y-71418847D01*
X131946723Y-71418847D02*
X131870533Y-71456942D01*
X131870533Y-71456942D02*
X131565771Y-71456942D01*
X132784818Y-71837895D02*
X132327675Y-71837895D01*
X132556247Y-71837895D02*
X132556247Y-71037895D01*
X132556247Y-71037895D02*
X132480056Y-71152180D01*
X132480056Y-71152180D02*
X132403866Y-71228371D01*
X132403866Y-71228371D02*
X132327675Y-71266466D01*
X133470533Y-71037895D02*
X133318152Y-71037895D01*
X133318152Y-71037895D02*
X133241961Y-71075990D01*
X133241961Y-71075990D02*
X133203866Y-71114085D01*
X133203866Y-71114085D02*
X133127676Y-71228371D01*
X133127676Y-71228371D02*
X133089580Y-71380752D01*
X133089580Y-71380752D02*
X133089580Y-71685514D01*
X133089580Y-71685514D02*
X133127676Y-71761704D01*
X133127676Y-71761704D02*
X133165771Y-71799800D01*
X133165771Y-71799800D02*
X133241961Y-71837895D01*
X133241961Y-71837895D02*
X133394342Y-71837895D01*
X133394342Y-71837895D02*
X133470533Y-71799800D01*
X133470533Y-71799800D02*
X133508628Y-71761704D01*
X133508628Y-71761704D02*
X133546723Y-71685514D01*
X133546723Y-71685514D02*
X133546723Y-71495038D01*
X133546723Y-71495038D02*
X133508628Y-71418847D01*
X133508628Y-71418847D02*
X133470533Y-71380752D01*
X133470533Y-71380752D02*
X133394342Y-71342657D01*
X133394342Y-71342657D02*
X133241961Y-71342657D01*
X133241961Y-71342657D02*
X133165771Y-71380752D01*
X133165771Y-71380752D02*
X133127676Y-71418847D01*
X133127676Y-71418847D02*
X133089580Y-71495038D01*
X64319495Y-71888285D02*
X63938542Y-72154952D01*
X64319495Y-72345428D02*
X63519495Y-72345428D01*
X63519495Y-72345428D02*
X63519495Y-72040666D01*
X63519495Y-72040666D02*
X63557590Y-71964476D01*
X63557590Y-71964476D02*
X63595685Y-71926381D01*
X63595685Y-71926381D02*
X63671876Y-71888285D01*
X63671876Y-71888285D02*
X63786161Y-71888285D01*
X63786161Y-71888285D02*
X63862352Y-71926381D01*
X63862352Y-71926381D02*
X63900447Y-71964476D01*
X63900447Y-71964476D02*
X63938542Y-72040666D01*
X63938542Y-72040666D02*
X63938542Y-72345428D01*
X63595685Y-71583524D02*
X63557590Y-71545428D01*
X63557590Y-71545428D02*
X63519495Y-71469238D01*
X63519495Y-71469238D02*
X63519495Y-71278762D01*
X63519495Y-71278762D02*
X63557590Y-71202571D01*
X63557590Y-71202571D02*
X63595685Y-71164476D01*
X63595685Y-71164476D02*
X63671876Y-71126381D01*
X63671876Y-71126381D02*
X63748066Y-71126381D01*
X63748066Y-71126381D02*
X63862352Y-71164476D01*
X63862352Y-71164476D02*
X64319495Y-71621619D01*
X64319495Y-71621619D02*
X64319495Y-71126381D01*
X63519495Y-70859714D02*
X63519495Y-70326380D01*
X63519495Y-70326380D02*
X64319495Y-70669238D01*
X131972114Y-76663895D02*
X131705447Y-76282942D01*
X131514971Y-76663895D02*
X131514971Y-75863895D01*
X131514971Y-75863895D02*
X131819733Y-75863895D01*
X131819733Y-75863895D02*
X131895923Y-75901990D01*
X131895923Y-75901990D02*
X131934018Y-75940085D01*
X131934018Y-75940085D02*
X131972114Y-76016276D01*
X131972114Y-76016276D02*
X131972114Y-76130561D01*
X131972114Y-76130561D02*
X131934018Y-76206752D01*
X131934018Y-76206752D02*
X131895923Y-76244847D01*
X131895923Y-76244847D02*
X131819733Y-76282942D01*
X131819733Y-76282942D02*
X131514971Y-76282942D01*
X132734018Y-76663895D02*
X132276875Y-76663895D01*
X132505447Y-76663895D02*
X132505447Y-75863895D01*
X132505447Y-75863895D02*
X132429256Y-75978180D01*
X132429256Y-75978180D02*
X132353066Y-76054371D01*
X132353066Y-76054371D02*
X132276875Y-76092466D01*
X133000685Y-75863895D02*
X133534019Y-75863895D01*
X133534019Y-75863895D02*
X133191161Y-76663895D01*
X103034514Y-79803304D02*
X102996418Y-79841400D01*
X102996418Y-79841400D02*
X102882133Y-79879495D01*
X102882133Y-79879495D02*
X102805942Y-79879495D01*
X102805942Y-79879495D02*
X102691656Y-79841400D01*
X102691656Y-79841400D02*
X102615466Y-79765209D01*
X102615466Y-79765209D02*
X102577371Y-79689019D01*
X102577371Y-79689019D02*
X102539275Y-79536638D01*
X102539275Y-79536638D02*
X102539275Y-79422352D01*
X102539275Y-79422352D02*
X102577371Y-79269971D01*
X102577371Y-79269971D02*
X102615466Y-79193780D01*
X102615466Y-79193780D02*
X102691656Y-79117590D01*
X102691656Y-79117590D02*
X102805942Y-79079495D01*
X102805942Y-79079495D02*
X102882133Y-79079495D01*
X102882133Y-79079495D02*
X102996418Y-79117590D01*
X102996418Y-79117590D02*
X103034514Y-79155685D01*
X103796418Y-79879495D02*
X103339275Y-79879495D01*
X103567847Y-79879495D02*
X103567847Y-79079495D01*
X103567847Y-79079495D02*
X103491656Y-79193780D01*
X103491656Y-79193780D02*
X103415466Y-79269971D01*
X103415466Y-79269971D02*
X103339275Y-79308066D01*
X104177371Y-79879495D02*
X104329752Y-79879495D01*
X104329752Y-79879495D02*
X104405942Y-79841400D01*
X104405942Y-79841400D02*
X104444038Y-79803304D01*
X104444038Y-79803304D02*
X104520228Y-79689019D01*
X104520228Y-79689019D02*
X104558323Y-79536638D01*
X104558323Y-79536638D02*
X104558323Y-79231876D01*
X104558323Y-79231876D02*
X104520228Y-79155685D01*
X104520228Y-79155685D02*
X104482133Y-79117590D01*
X104482133Y-79117590D02*
X104405942Y-79079495D01*
X104405942Y-79079495D02*
X104253561Y-79079495D01*
X104253561Y-79079495D02*
X104177371Y-79117590D01*
X104177371Y-79117590D02*
X104139276Y-79155685D01*
X104139276Y-79155685D02*
X104101180Y-79231876D01*
X104101180Y-79231876D02*
X104101180Y-79422352D01*
X104101180Y-79422352D02*
X104139276Y-79498542D01*
X104139276Y-79498542D02*
X104177371Y-79536638D01*
X104177371Y-79536638D02*
X104253561Y-79574733D01*
X104253561Y-79574733D02*
X104405942Y-79574733D01*
X104405942Y-79574733D02*
X104482133Y-79536638D01*
X104482133Y-79536638D02*
X104520228Y-79498542D01*
X104520228Y-79498542D02*
X104558323Y-79422352D01*
X122529467Y-65986104D02*
X122491371Y-66024200D01*
X122491371Y-66024200D02*
X122377086Y-66062295D01*
X122377086Y-66062295D02*
X122300895Y-66062295D01*
X122300895Y-66062295D02*
X122186609Y-66024200D01*
X122186609Y-66024200D02*
X122110419Y-65948009D01*
X122110419Y-65948009D02*
X122072324Y-65871819D01*
X122072324Y-65871819D02*
X122034228Y-65719438D01*
X122034228Y-65719438D02*
X122034228Y-65605152D01*
X122034228Y-65605152D02*
X122072324Y-65452771D01*
X122072324Y-65452771D02*
X122110419Y-65376580D01*
X122110419Y-65376580D02*
X122186609Y-65300390D01*
X122186609Y-65300390D02*
X122300895Y-65262295D01*
X122300895Y-65262295D02*
X122377086Y-65262295D01*
X122377086Y-65262295D02*
X122491371Y-65300390D01*
X122491371Y-65300390D02*
X122529467Y-65338485D01*
X122986609Y-65605152D02*
X122910419Y-65567057D01*
X122910419Y-65567057D02*
X122872324Y-65528961D01*
X122872324Y-65528961D02*
X122834228Y-65452771D01*
X122834228Y-65452771D02*
X122834228Y-65414676D01*
X122834228Y-65414676D02*
X122872324Y-65338485D01*
X122872324Y-65338485D02*
X122910419Y-65300390D01*
X122910419Y-65300390D02*
X122986609Y-65262295D01*
X122986609Y-65262295D02*
X123138990Y-65262295D01*
X123138990Y-65262295D02*
X123215181Y-65300390D01*
X123215181Y-65300390D02*
X123253276Y-65338485D01*
X123253276Y-65338485D02*
X123291371Y-65414676D01*
X123291371Y-65414676D02*
X123291371Y-65452771D01*
X123291371Y-65452771D02*
X123253276Y-65528961D01*
X123253276Y-65528961D02*
X123215181Y-65567057D01*
X123215181Y-65567057D02*
X123138990Y-65605152D01*
X123138990Y-65605152D02*
X122986609Y-65605152D01*
X122986609Y-65605152D02*
X122910419Y-65643247D01*
X122910419Y-65643247D02*
X122872324Y-65681342D01*
X122872324Y-65681342D02*
X122834228Y-65757533D01*
X122834228Y-65757533D02*
X122834228Y-65909914D01*
X122834228Y-65909914D02*
X122872324Y-65986104D01*
X122872324Y-65986104D02*
X122910419Y-66024200D01*
X122910419Y-66024200D02*
X122986609Y-66062295D01*
X122986609Y-66062295D02*
X123138990Y-66062295D01*
X123138990Y-66062295D02*
X123215181Y-66024200D01*
X123215181Y-66024200D02*
X123253276Y-65986104D01*
X123253276Y-65986104D02*
X123291371Y-65909914D01*
X123291371Y-65909914D02*
X123291371Y-65757533D01*
X123291371Y-65757533D02*
X123253276Y-65681342D01*
X123253276Y-65681342D02*
X123215181Y-65643247D01*
X123215181Y-65643247D02*
X123138990Y-65605152D01*
X85127604Y-84843285D02*
X85165700Y-84881381D01*
X85165700Y-84881381D02*
X85203795Y-84995666D01*
X85203795Y-84995666D02*
X85203795Y-85071857D01*
X85203795Y-85071857D02*
X85165700Y-85186143D01*
X85165700Y-85186143D02*
X85089509Y-85262333D01*
X85089509Y-85262333D02*
X85013319Y-85300428D01*
X85013319Y-85300428D02*
X84860938Y-85338524D01*
X84860938Y-85338524D02*
X84746652Y-85338524D01*
X84746652Y-85338524D02*
X84594271Y-85300428D01*
X84594271Y-85300428D02*
X84518080Y-85262333D01*
X84518080Y-85262333D02*
X84441890Y-85186143D01*
X84441890Y-85186143D02*
X84403795Y-85071857D01*
X84403795Y-85071857D02*
X84403795Y-84995666D01*
X84403795Y-84995666D02*
X84441890Y-84881381D01*
X84441890Y-84881381D02*
X84479985Y-84843285D01*
X84479985Y-84538524D02*
X84441890Y-84500428D01*
X84441890Y-84500428D02*
X84403795Y-84424238D01*
X84403795Y-84424238D02*
X84403795Y-84233762D01*
X84403795Y-84233762D02*
X84441890Y-84157571D01*
X84441890Y-84157571D02*
X84479985Y-84119476D01*
X84479985Y-84119476D02*
X84556176Y-84081381D01*
X84556176Y-84081381D02*
X84632366Y-84081381D01*
X84632366Y-84081381D02*
X84746652Y-84119476D01*
X84746652Y-84119476D02*
X85203795Y-84576619D01*
X85203795Y-84576619D02*
X85203795Y-84081381D01*
X84403795Y-83814714D02*
X84403795Y-83281380D01*
X84403795Y-83281380D02*
X85203795Y-83624238D01*
X92862476Y-86993295D02*
X92862476Y-87640914D01*
X92862476Y-87640914D02*
X92900571Y-87717104D01*
X92900571Y-87717104D02*
X92938666Y-87755200D01*
X92938666Y-87755200D02*
X93014857Y-87793295D01*
X93014857Y-87793295D02*
X93167238Y-87793295D01*
X93167238Y-87793295D02*
X93243428Y-87755200D01*
X93243428Y-87755200D02*
X93281523Y-87717104D01*
X93281523Y-87717104D02*
X93319619Y-87640914D01*
X93319619Y-87640914D02*
X93319619Y-86993295D01*
X93662475Y-87069485D02*
X93700571Y-87031390D01*
X93700571Y-87031390D02*
X93776761Y-86993295D01*
X93776761Y-86993295D02*
X93967237Y-86993295D01*
X93967237Y-86993295D02*
X94043428Y-87031390D01*
X94043428Y-87031390D02*
X94081523Y-87069485D01*
X94081523Y-87069485D02*
X94119618Y-87145676D01*
X94119618Y-87145676D02*
X94119618Y-87221866D01*
X94119618Y-87221866D02*
X94081523Y-87336152D01*
X94081523Y-87336152D02*
X93624380Y-87793295D01*
X93624380Y-87793295D02*
X94119618Y-87793295D01*
X112940514Y-76022104D02*
X112902418Y-76060200D01*
X112902418Y-76060200D02*
X112788133Y-76098295D01*
X112788133Y-76098295D02*
X112711942Y-76098295D01*
X112711942Y-76098295D02*
X112597656Y-76060200D01*
X112597656Y-76060200D02*
X112521466Y-75984009D01*
X112521466Y-75984009D02*
X112483371Y-75907819D01*
X112483371Y-75907819D02*
X112445275Y-75755438D01*
X112445275Y-75755438D02*
X112445275Y-75641152D01*
X112445275Y-75641152D02*
X112483371Y-75488771D01*
X112483371Y-75488771D02*
X112521466Y-75412580D01*
X112521466Y-75412580D02*
X112597656Y-75336390D01*
X112597656Y-75336390D02*
X112711942Y-75298295D01*
X112711942Y-75298295D02*
X112788133Y-75298295D01*
X112788133Y-75298295D02*
X112902418Y-75336390D01*
X112902418Y-75336390D02*
X112940514Y-75374485D01*
X113245275Y-75374485D02*
X113283371Y-75336390D01*
X113283371Y-75336390D02*
X113359561Y-75298295D01*
X113359561Y-75298295D02*
X113550037Y-75298295D01*
X113550037Y-75298295D02*
X113626228Y-75336390D01*
X113626228Y-75336390D02*
X113664323Y-75374485D01*
X113664323Y-75374485D02*
X113702418Y-75450676D01*
X113702418Y-75450676D02*
X113702418Y-75526866D01*
X113702418Y-75526866D02*
X113664323Y-75641152D01*
X113664323Y-75641152D02*
X113207180Y-76098295D01*
X113207180Y-76098295D02*
X113702418Y-76098295D01*
X114464323Y-76098295D02*
X114007180Y-76098295D01*
X114235752Y-76098295D02*
X114235752Y-75298295D01*
X114235752Y-75298295D02*
X114159561Y-75412580D01*
X114159561Y-75412580D02*
X114083371Y-75488771D01*
X114083371Y-75488771D02*
X114007180Y-75526866D01*
X144312295Y-65016666D02*
X144883723Y-65016666D01*
X144883723Y-65016666D02*
X144998009Y-65054761D01*
X144998009Y-65054761D02*
X145074200Y-65130952D01*
X145074200Y-65130952D02*
X145112295Y-65245237D01*
X145112295Y-65245237D02*
X145112295Y-65321428D01*
X145112295Y-64216666D02*
X145112295Y-64673809D01*
X145112295Y-64445237D02*
X144312295Y-64445237D01*
X144312295Y-64445237D02*
X144426580Y-64521428D01*
X144426580Y-64521428D02*
X144502771Y-64597618D01*
X144502771Y-64597618D02*
X144540866Y-64673809D01*
X67875495Y-82429285D02*
X67494542Y-82695952D01*
X67875495Y-82886428D02*
X67075495Y-82886428D01*
X67075495Y-82886428D02*
X67075495Y-82581666D01*
X67075495Y-82581666D02*
X67113590Y-82505476D01*
X67113590Y-82505476D02*
X67151685Y-82467381D01*
X67151685Y-82467381D02*
X67227876Y-82429285D01*
X67227876Y-82429285D02*
X67342161Y-82429285D01*
X67342161Y-82429285D02*
X67418352Y-82467381D01*
X67418352Y-82467381D02*
X67456447Y-82505476D01*
X67456447Y-82505476D02*
X67494542Y-82581666D01*
X67494542Y-82581666D02*
X67494542Y-82886428D01*
X67151685Y-82124524D02*
X67113590Y-82086428D01*
X67113590Y-82086428D02*
X67075495Y-82010238D01*
X67075495Y-82010238D02*
X67075495Y-81819762D01*
X67075495Y-81819762D02*
X67113590Y-81743571D01*
X67113590Y-81743571D02*
X67151685Y-81705476D01*
X67151685Y-81705476D02*
X67227876Y-81667381D01*
X67227876Y-81667381D02*
X67304066Y-81667381D01*
X67304066Y-81667381D02*
X67418352Y-81705476D01*
X67418352Y-81705476D02*
X67875495Y-82162619D01*
X67875495Y-82162619D02*
X67875495Y-81667381D01*
X67151685Y-81362619D02*
X67113590Y-81324523D01*
X67113590Y-81324523D02*
X67075495Y-81248333D01*
X67075495Y-81248333D02*
X67075495Y-81057857D01*
X67075495Y-81057857D02*
X67113590Y-80981666D01*
X67113590Y-80981666D02*
X67151685Y-80943571D01*
X67151685Y-80943571D02*
X67227876Y-80905476D01*
X67227876Y-80905476D02*
X67304066Y-80905476D01*
X67304066Y-80905476D02*
X67418352Y-80943571D01*
X67418352Y-80943571D02*
X67875495Y-81400714D01*
X67875495Y-81400714D02*
X67875495Y-80905476D01*
X68993095Y-71888285D02*
X68612142Y-72154952D01*
X68993095Y-72345428D02*
X68193095Y-72345428D01*
X68193095Y-72345428D02*
X68193095Y-72040666D01*
X68193095Y-72040666D02*
X68231190Y-71964476D01*
X68231190Y-71964476D02*
X68269285Y-71926381D01*
X68269285Y-71926381D02*
X68345476Y-71888285D01*
X68345476Y-71888285D02*
X68459761Y-71888285D01*
X68459761Y-71888285D02*
X68535952Y-71926381D01*
X68535952Y-71926381D02*
X68574047Y-71964476D01*
X68574047Y-71964476D02*
X68612142Y-72040666D01*
X68612142Y-72040666D02*
X68612142Y-72345428D01*
X68269285Y-71583524D02*
X68231190Y-71545428D01*
X68231190Y-71545428D02*
X68193095Y-71469238D01*
X68193095Y-71469238D02*
X68193095Y-71278762D01*
X68193095Y-71278762D02*
X68231190Y-71202571D01*
X68231190Y-71202571D02*
X68269285Y-71164476D01*
X68269285Y-71164476D02*
X68345476Y-71126381D01*
X68345476Y-71126381D02*
X68421666Y-71126381D01*
X68421666Y-71126381D02*
X68535952Y-71164476D01*
X68535952Y-71164476D02*
X68993095Y-71621619D01*
X68993095Y-71621619D02*
X68993095Y-71126381D01*
X68193095Y-70631142D02*
X68193095Y-70554952D01*
X68193095Y-70554952D02*
X68231190Y-70478761D01*
X68231190Y-70478761D02*
X68269285Y-70440666D01*
X68269285Y-70440666D02*
X68345476Y-70402571D01*
X68345476Y-70402571D02*
X68497857Y-70364476D01*
X68497857Y-70364476D02*
X68688333Y-70364476D01*
X68688333Y-70364476D02*
X68840714Y-70402571D01*
X68840714Y-70402571D02*
X68916904Y-70440666D01*
X68916904Y-70440666D02*
X68955000Y-70478761D01*
X68955000Y-70478761D02*
X68993095Y-70554952D01*
X68993095Y-70554952D02*
X68993095Y-70631142D01*
X68993095Y-70631142D02*
X68955000Y-70707333D01*
X68955000Y-70707333D02*
X68916904Y-70745428D01*
X68916904Y-70745428D02*
X68840714Y-70783523D01*
X68840714Y-70783523D02*
X68688333Y-70821619D01*
X68688333Y-70821619D02*
X68497857Y-70821619D01*
X68497857Y-70821619D02*
X68345476Y-70783523D01*
X68345476Y-70783523D02*
X68269285Y-70745428D01*
X68269285Y-70745428D02*
X68231190Y-70707333D01*
X68231190Y-70707333D02*
X68193095Y-70631142D01*
X61207714Y-71075895D02*
X60941047Y-70694942D01*
X60750571Y-71075895D02*
X60750571Y-70275895D01*
X60750571Y-70275895D02*
X61055333Y-70275895D01*
X61055333Y-70275895D02*
X61131523Y-70313990D01*
X61131523Y-70313990D02*
X61169618Y-70352085D01*
X61169618Y-70352085D02*
X61207714Y-70428276D01*
X61207714Y-70428276D02*
X61207714Y-70542561D01*
X61207714Y-70542561D02*
X61169618Y-70618752D01*
X61169618Y-70618752D02*
X61131523Y-70656847D01*
X61131523Y-70656847D02*
X61055333Y-70694942D01*
X61055333Y-70694942D02*
X60750571Y-70694942D01*
X61969618Y-71075895D02*
X61512475Y-71075895D01*
X61741047Y-71075895D02*
X61741047Y-70275895D01*
X61741047Y-70275895D02*
X61664856Y-70390180D01*
X61664856Y-70390180D02*
X61588666Y-70466371D01*
X61588666Y-70466371D02*
X61512475Y-70504466D01*
X62350571Y-71075895D02*
X62502952Y-71075895D01*
X62502952Y-71075895D02*
X62579142Y-71037800D01*
X62579142Y-71037800D02*
X62617238Y-70999704D01*
X62617238Y-70999704D02*
X62693428Y-70885419D01*
X62693428Y-70885419D02*
X62731523Y-70733038D01*
X62731523Y-70733038D02*
X62731523Y-70428276D01*
X62731523Y-70428276D02*
X62693428Y-70352085D01*
X62693428Y-70352085D02*
X62655333Y-70313990D01*
X62655333Y-70313990D02*
X62579142Y-70275895D01*
X62579142Y-70275895D02*
X62426761Y-70275895D01*
X62426761Y-70275895D02*
X62350571Y-70313990D01*
X62350571Y-70313990D02*
X62312476Y-70352085D01*
X62312476Y-70352085D02*
X62274380Y-70428276D01*
X62274380Y-70428276D02*
X62274380Y-70618752D01*
X62274380Y-70618752D02*
X62312476Y-70694942D01*
X62312476Y-70694942D02*
X62350571Y-70733038D01*
X62350571Y-70733038D02*
X62426761Y-70771133D01*
X62426761Y-70771133D02*
X62579142Y-70771133D01*
X62579142Y-70771133D02*
X62655333Y-70733038D01*
X62655333Y-70733038D02*
X62693428Y-70694942D01*
X62693428Y-70694942D02*
X62731523Y-70618752D01*
X61213333Y-73476295D02*
X61213333Y-74047723D01*
X61213333Y-74047723D02*
X61175238Y-74162009D01*
X61175238Y-74162009D02*
X61099047Y-74238200D01*
X61099047Y-74238200D02*
X60984762Y-74276295D01*
X60984762Y-74276295D02*
X60908571Y-74276295D01*
X61556190Y-73552485D02*
X61594286Y-73514390D01*
X61594286Y-73514390D02*
X61670476Y-73476295D01*
X61670476Y-73476295D02*
X61860952Y-73476295D01*
X61860952Y-73476295D02*
X61937143Y-73514390D01*
X61937143Y-73514390D02*
X61975238Y-73552485D01*
X61975238Y-73552485D02*
X62013333Y-73628676D01*
X62013333Y-73628676D02*
X62013333Y-73704866D01*
X62013333Y-73704866D02*
X61975238Y-73819152D01*
X61975238Y-73819152D02*
X61518095Y-74276295D01*
X61518095Y-74276295D02*
X62013333Y-74276295D01*
X152926667Y-87427104D02*
X152888571Y-87465200D01*
X152888571Y-87465200D02*
X152774286Y-87503295D01*
X152774286Y-87503295D02*
X152698095Y-87503295D01*
X152698095Y-87503295D02*
X152583809Y-87465200D01*
X152583809Y-87465200D02*
X152507619Y-87389009D01*
X152507619Y-87389009D02*
X152469524Y-87312819D01*
X152469524Y-87312819D02*
X152431428Y-87160438D01*
X152431428Y-87160438D02*
X152431428Y-87046152D01*
X152431428Y-87046152D02*
X152469524Y-86893771D01*
X152469524Y-86893771D02*
X152507619Y-86817580D01*
X152507619Y-86817580D02*
X152583809Y-86741390D01*
X152583809Y-86741390D02*
X152698095Y-86703295D01*
X152698095Y-86703295D02*
X152774286Y-86703295D01*
X152774286Y-86703295D02*
X152888571Y-86741390D01*
X152888571Y-86741390D02*
X152926667Y-86779485D01*
X153193333Y-86703295D02*
X153726667Y-86703295D01*
X153726667Y-86703295D02*
X153383809Y-87503295D01*
X94513095Y-76587332D02*
X94132142Y-76853999D01*
X94513095Y-77044475D02*
X93713095Y-77044475D01*
X93713095Y-77044475D02*
X93713095Y-76739713D01*
X93713095Y-76739713D02*
X93751190Y-76663523D01*
X93751190Y-76663523D02*
X93789285Y-76625428D01*
X93789285Y-76625428D02*
X93865476Y-76587332D01*
X93865476Y-76587332D02*
X93979761Y-76587332D01*
X93979761Y-76587332D02*
X94055952Y-76625428D01*
X94055952Y-76625428D02*
X94094047Y-76663523D01*
X94094047Y-76663523D02*
X94132142Y-76739713D01*
X94132142Y-76739713D02*
X94132142Y-77044475D01*
X93713095Y-76320666D02*
X93713095Y-75825428D01*
X93713095Y-75825428D02*
X94017857Y-76092094D01*
X94017857Y-76092094D02*
X94017857Y-75977809D01*
X94017857Y-75977809D02*
X94055952Y-75901618D01*
X94055952Y-75901618D02*
X94094047Y-75863523D01*
X94094047Y-75863523D02*
X94170238Y-75825428D01*
X94170238Y-75825428D02*
X94360714Y-75825428D01*
X94360714Y-75825428D02*
X94436904Y-75863523D01*
X94436904Y-75863523D02*
X94475000Y-75901618D01*
X94475000Y-75901618D02*
X94513095Y-75977809D01*
X94513095Y-75977809D02*
X94513095Y-76206380D01*
X94513095Y-76206380D02*
X94475000Y-76282571D01*
X94475000Y-76282571D02*
X94436904Y-76320666D01*
X86548104Y-80270285D02*
X86586200Y-80308381D01*
X86586200Y-80308381D02*
X86624295Y-80422666D01*
X86624295Y-80422666D02*
X86624295Y-80498857D01*
X86624295Y-80498857D02*
X86586200Y-80613143D01*
X86586200Y-80613143D02*
X86510009Y-80689333D01*
X86510009Y-80689333D02*
X86433819Y-80727428D01*
X86433819Y-80727428D02*
X86281438Y-80765524D01*
X86281438Y-80765524D02*
X86167152Y-80765524D01*
X86167152Y-80765524D02*
X86014771Y-80727428D01*
X86014771Y-80727428D02*
X85938580Y-80689333D01*
X85938580Y-80689333D02*
X85862390Y-80613143D01*
X85862390Y-80613143D02*
X85824295Y-80498857D01*
X85824295Y-80498857D02*
X85824295Y-80422666D01*
X85824295Y-80422666D02*
X85862390Y-80308381D01*
X85862390Y-80308381D02*
X85900485Y-80270285D01*
X85824295Y-80003619D02*
X85824295Y-79508381D01*
X85824295Y-79508381D02*
X86129057Y-79775047D01*
X86129057Y-79775047D02*
X86129057Y-79660762D01*
X86129057Y-79660762D02*
X86167152Y-79584571D01*
X86167152Y-79584571D02*
X86205247Y-79546476D01*
X86205247Y-79546476D02*
X86281438Y-79508381D01*
X86281438Y-79508381D02*
X86471914Y-79508381D01*
X86471914Y-79508381D02*
X86548104Y-79546476D01*
X86548104Y-79546476D02*
X86586200Y-79584571D01*
X86586200Y-79584571D02*
X86624295Y-79660762D01*
X86624295Y-79660762D02*
X86624295Y-79889333D01*
X86624295Y-79889333D02*
X86586200Y-79965524D01*
X86586200Y-79965524D02*
X86548104Y-80003619D01*
X85900485Y-79203619D02*
X85862390Y-79165523D01*
X85862390Y-79165523D02*
X85824295Y-79089333D01*
X85824295Y-79089333D02*
X85824295Y-78898857D01*
X85824295Y-78898857D02*
X85862390Y-78822666D01*
X85862390Y-78822666D02*
X85900485Y-78784571D01*
X85900485Y-78784571D02*
X85976676Y-78746476D01*
X85976676Y-78746476D02*
X86052866Y-78746476D01*
X86052866Y-78746476D02*
X86167152Y-78784571D01*
X86167152Y-78784571D02*
X86624295Y-79241714D01*
X86624295Y-79241714D02*
X86624295Y-78746476D01*
X71988604Y-74429285D02*
X72026700Y-74467381D01*
X72026700Y-74467381D02*
X72064795Y-74581666D01*
X72064795Y-74581666D02*
X72064795Y-74657857D01*
X72064795Y-74657857D02*
X72026700Y-74772143D01*
X72026700Y-74772143D02*
X71950509Y-74848333D01*
X71950509Y-74848333D02*
X71874319Y-74886428D01*
X71874319Y-74886428D02*
X71721938Y-74924524D01*
X71721938Y-74924524D02*
X71607652Y-74924524D01*
X71607652Y-74924524D02*
X71455271Y-74886428D01*
X71455271Y-74886428D02*
X71379080Y-74848333D01*
X71379080Y-74848333D02*
X71302890Y-74772143D01*
X71302890Y-74772143D02*
X71264795Y-74657857D01*
X71264795Y-74657857D02*
X71264795Y-74581666D01*
X71264795Y-74581666D02*
X71302890Y-74467381D01*
X71302890Y-74467381D02*
X71340985Y-74429285D01*
X71340985Y-74124524D02*
X71302890Y-74086428D01*
X71302890Y-74086428D02*
X71264795Y-74010238D01*
X71264795Y-74010238D02*
X71264795Y-73819762D01*
X71264795Y-73819762D02*
X71302890Y-73743571D01*
X71302890Y-73743571D02*
X71340985Y-73705476D01*
X71340985Y-73705476D02*
X71417176Y-73667381D01*
X71417176Y-73667381D02*
X71493366Y-73667381D01*
X71493366Y-73667381D02*
X71607652Y-73705476D01*
X71607652Y-73705476D02*
X72064795Y-74162619D01*
X72064795Y-74162619D02*
X72064795Y-73667381D01*
X71607652Y-73210238D02*
X71569557Y-73286428D01*
X71569557Y-73286428D02*
X71531461Y-73324523D01*
X71531461Y-73324523D02*
X71455271Y-73362619D01*
X71455271Y-73362619D02*
X71417176Y-73362619D01*
X71417176Y-73362619D02*
X71340985Y-73324523D01*
X71340985Y-73324523D02*
X71302890Y-73286428D01*
X71302890Y-73286428D02*
X71264795Y-73210238D01*
X71264795Y-73210238D02*
X71264795Y-73057857D01*
X71264795Y-73057857D02*
X71302890Y-72981666D01*
X71302890Y-72981666D02*
X71340985Y-72943571D01*
X71340985Y-72943571D02*
X71417176Y-72905476D01*
X71417176Y-72905476D02*
X71455271Y-72905476D01*
X71455271Y-72905476D02*
X71531461Y-72943571D01*
X71531461Y-72943571D02*
X71569557Y-72981666D01*
X71569557Y-72981666D02*
X71607652Y-73057857D01*
X71607652Y-73057857D02*
X71607652Y-73210238D01*
X71607652Y-73210238D02*
X71645747Y-73286428D01*
X71645747Y-73286428D02*
X71683842Y-73324523D01*
X71683842Y-73324523D02*
X71760033Y-73362619D01*
X71760033Y-73362619D02*
X71912414Y-73362619D01*
X71912414Y-73362619D02*
X71988604Y-73324523D01*
X71988604Y-73324523D02*
X72026700Y-73286428D01*
X72026700Y-73286428D02*
X72064795Y-73210238D01*
X72064795Y-73210238D02*
X72064795Y-73057857D01*
X72064795Y-73057857D02*
X72026700Y-72981666D01*
X72026700Y-72981666D02*
X71988604Y-72943571D01*
X71988604Y-72943571D02*
X71912414Y-72905476D01*
X71912414Y-72905476D02*
X71760033Y-72905476D01*
X71760033Y-72905476D02*
X71683842Y-72943571D01*
X71683842Y-72943571D02*
X71645747Y-72981666D01*
X71645747Y-72981666D02*
X71607652Y-73057857D01*
X84474114Y-68027895D02*
X84207447Y-67646942D01*
X84016971Y-68027895D02*
X84016971Y-67227895D01*
X84016971Y-67227895D02*
X84321733Y-67227895D01*
X84321733Y-67227895D02*
X84397923Y-67265990D01*
X84397923Y-67265990D02*
X84436018Y-67304085D01*
X84436018Y-67304085D02*
X84474114Y-67380276D01*
X84474114Y-67380276D02*
X84474114Y-67494561D01*
X84474114Y-67494561D02*
X84436018Y-67570752D01*
X84436018Y-67570752D02*
X84397923Y-67608847D01*
X84397923Y-67608847D02*
X84321733Y-67646942D01*
X84321733Y-67646942D02*
X84016971Y-67646942D01*
X84778875Y-67304085D02*
X84816971Y-67265990D01*
X84816971Y-67265990D02*
X84893161Y-67227895D01*
X84893161Y-67227895D02*
X85083637Y-67227895D01*
X85083637Y-67227895D02*
X85159828Y-67265990D01*
X85159828Y-67265990D02*
X85197923Y-67304085D01*
X85197923Y-67304085D02*
X85236018Y-67380276D01*
X85236018Y-67380276D02*
X85236018Y-67456466D01*
X85236018Y-67456466D02*
X85197923Y-67570752D01*
X85197923Y-67570752D02*
X84740780Y-68027895D01*
X84740780Y-68027895D02*
X85236018Y-68027895D01*
X85921733Y-67494561D02*
X85921733Y-68027895D01*
X85731257Y-67189800D02*
X85540780Y-67761228D01*
X85540780Y-67761228D02*
X86036019Y-67761228D01*
X85791295Y-74353975D02*
X84991295Y-74353975D01*
X84991295Y-74353975D02*
X84991295Y-74163499D01*
X84991295Y-74163499D02*
X85029390Y-74049213D01*
X85029390Y-74049213D02*
X85105580Y-73973023D01*
X85105580Y-73973023D02*
X85181771Y-73934928D01*
X85181771Y-73934928D02*
X85334152Y-73896832D01*
X85334152Y-73896832D02*
X85448438Y-73896832D01*
X85448438Y-73896832D02*
X85600819Y-73934928D01*
X85600819Y-73934928D02*
X85677009Y-73973023D01*
X85677009Y-73973023D02*
X85753200Y-74049213D01*
X85753200Y-74049213D02*
X85791295Y-74163499D01*
X85791295Y-74163499D02*
X85791295Y-74353975D01*
X85257961Y-73211118D02*
X85791295Y-73211118D01*
X84953200Y-73401594D02*
X85524628Y-73592071D01*
X85524628Y-73592071D02*
X85524628Y-73096832D01*
X82277304Y-72294685D02*
X82315400Y-72332781D01*
X82315400Y-72332781D02*
X82353495Y-72447066D01*
X82353495Y-72447066D02*
X82353495Y-72523257D01*
X82353495Y-72523257D02*
X82315400Y-72637543D01*
X82315400Y-72637543D02*
X82239209Y-72713733D01*
X82239209Y-72713733D02*
X82163019Y-72751828D01*
X82163019Y-72751828D02*
X82010638Y-72789924D01*
X82010638Y-72789924D02*
X81896352Y-72789924D01*
X81896352Y-72789924D02*
X81743971Y-72751828D01*
X81743971Y-72751828D02*
X81667780Y-72713733D01*
X81667780Y-72713733D02*
X81591590Y-72637543D01*
X81591590Y-72637543D02*
X81553495Y-72523257D01*
X81553495Y-72523257D02*
X81553495Y-72447066D01*
X81553495Y-72447066D02*
X81591590Y-72332781D01*
X81591590Y-72332781D02*
X81629685Y-72294685D01*
X81553495Y-72028019D02*
X81553495Y-71532781D01*
X81553495Y-71532781D02*
X81858257Y-71799447D01*
X81858257Y-71799447D02*
X81858257Y-71685162D01*
X81858257Y-71685162D02*
X81896352Y-71608971D01*
X81896352Y-71608971D02*
X81934447Y-71570876D01*
X81934447Y-71570876D02*
X82010638Y-71532781D01*
X82010638Y-71532781D02*
X82201114Y-71532781D01*
X82201114Y-71532781D02*
X82277304Y-71570876D01*
X82277304Y-71570876D02*
X82315400Y-71608971D01*
X82315400Y-71608971D02*
X82353495Y-71685162D01*
X82353495Y-71685162D02*
X82353495Y-71913733D01*
X82353495Y-71913733D02*
X82315400Y-71989924D01*
X82315400Y-71989924D02*
X82277304Y-72028019D01*
X82353495Y-70770876D02*
X82353495Y-71228019D01*
X82353495Y-70999447D02*
X81553495Y-70999447D01*
X81553495Y-70999447D02*
X81667780Y-71075638D01*
X81667780Y-71075638D02*
X81743971Y-71151828D01*
X81743971Y-71151828D02*
X81782066Y-71228019D01*
X103736104Y-84461285D02*
X103774200Y-84499381D01*
X103774200Y-84499381D02*
X103812295Y-84613666D01*
X103812295Y-84613666D02*
X103812295Y-84689857D01*
X103812295Y-84689857D02*
X103774200Y-84804143D01*
X103774200Y-84804143D02*
X103698009Y-84880333D01*
X103698009Y-84880333D02*
X103621819Y-84918428D01*
X103621819Y-84918428D02*
X103469438Y-84956524D01*
X103469438Y-84956524D02*
X103355152Y-84956524D01*
X103355152Y-84956524D02*
X103202771Y-84918428D01*
X103202771Y-84918428D02*
X103126580Y-84880333D01*
X103126580Y-84880333D02*
X103050390Y-84804143D01*
X103050390Y-84804143D02*
X103012295Y-84689857D01*
X103012295Y-84689857D02*
X103012295Y-84613666D01*
X103012295Y-84613666D02*
X103050390Y-84499381D01*
X103050390Y-84499381D02*
X103088485Y-84461285D01*
X103812295Y-83699381D02*
X103812295Y-84156524D01*
X103812295Y-83927952D02*
X103012295Y-83927952D01*
X103012295Y-83927952D02*
X103126580Y-84004143D01*
X103126580Y-84004143D02*
X103202771Y-84080333D01*
X103202771Y-84080333D02*
X103240866Y-84156524D01*
X103278961Y-83013666D02*
X103812295Y-83013666D01*
X102974200Y-83204142D02*
X103545628Y-83394619D01*
X103545628Y-83394619D02*
X103545628Y-82899380D01*
X73515295Y-69729285D02*
X73134342Y-69995952D01*
X73515295Y-70186428D02*
X72715295Y-70186428D01*
X72715295Y-70186428D02*
X72715295Y-69881666D01*
X72715295Y-69881666D02*
X72753390Y-69805476D01*
X72753390Y-69805476D02*
X72791485Y-69767381D01*
X72791485Y-69767381D02*
X72867676Y-69729285D01*
X72867676Y-69729285D02*
X72981961Y-69729285D01*
X72981961Y-69729285D02*
X73058152Y-69767381D01*
X73058152Y-69767381D02*
X73096247Y-69805476D01*
X73096247Y-69805476D02*
X73134342Y-69881666D01*
X73134342Y-69881666D02*
X73134342Y-70186428D01*
X72791485Y-69424524D02*
X72753390Y-69386428D01*
X72753390Y-69386428D02*
X72715295Y-69310238D01*
X72715295Y-69310238D02*
X72715295Y-69119762D01*
X72715295Y-69119762D02*
X72753390Y-69043571D01*
X72753390Y-69043571D02*
X72791485Y-69005476D01*
X72791485Y-69005476D02*
X72867676Y-68967381D01*
X72867676Y-68967381D02*
X72943866Y-68967381D01*
X72943866Y-68967381D02*
X73058152Y-69005476D01*
X73058152Y-69005476D02*
X73515295Y-69462619D01*
X73515295Y-69462619D02*
X73515295Y-68967381D01*
X72715295Y-68281666D02*
X72715295Y-68434047D01*
X72715295Y-68434047D02*
X72753390Y-68510238D01*
X72753390Y-68510238D02*
X72791485Y-68548333D01*
X72791485Y-68548333D02*
X72905771Y-68624523D01*
X72905771Y-68624523D02*
X73058152Y-68662619D01*
X73058152Y-68662619D02*
X73362914Y-68662619D01*
X73362914Y-68662619D02*
X73439104Y-68624523D01*
X73439104Y-68624523D02*
X73477200Y-68586428D01*
X73477200Y-68586428D02*
X73515295Y-68510238D01*
X73515295Y-68510238D02*
X73515295Y-68357857D01*
X73515295Y-68357857D02*
X73477200Y-68281666D01*
X73477200Y-68281666D02*
X73439104Y-68243571D01*
X73439104Y-68243571D02*
X73362914Y-68205476D01*
X73362914Y-68205476D02*
X73172438Y-68205476D01*
X73172438Y-68205476D02*
X73096247Y-68243571D01*
X73096247Y-68243571D02*
X73058152Y-68281666D01*
X73058152Y-68281666D02*
X73020057Y-68357857D01*
X73020057Y-68357857D02*
X73020057Y-68510238D01*
X73020057Y-68510238D02*
X73058152Y-68586428D01*
X73058152Y-68586428D02*
X73096247Y-68624523D01*
X73096247Y-68624523D02*
X73172438Y-68662619D01*
X116833714Y-77136104D02*
X116795618Y-77174200D01*
X116795618Y-77174200D02*
X116681333Y-77212295D01*
X116681333Y-77212295D02*
X116605142Y-77212295D01*
X116605142Y-77212295D02*
X116490856Y-77174200D01*
X116490856Y-77174200D02*
X116414666Y-77098009D01*
X116414666Y-77098009D02*
X116376571Y-77021819D01*
X116376571Y-77021819D02*
X116338475Y-76869438D01*
X116338475Y-76869438D02*
X116338475Y-76755152D01*
X116338475Y-76755152D02*
X116376571Y-76602771D01*
X116376571Y-76602771D02*
X116414666Y-76526580D01*
X116414666Y-76526580D02*
X116490856Y-76450390D01*
X116490856Y-76450390D02*
X116605142Y-76412295D01*
X116605142Y-76412295D02*
X116681333Y-76412295D01*
X116681333Y-76412295D02*
X116795618Y-76450390D01*
X116795618Y-76450390D02*
X116833714Y-76488485D01*
X117138475Y-76488485D02*
X117176571Y-76450390D01*
X117176571Y-76450390D02*
X117252761Y-76412295D01*
X117252761Y-76412295D02*
X117443237Y-76412295D01*
X117443237Y-76412295D02*
X117519428Y-76450390D01*
X117519428Y-76450390D02*
X117557523Y-76488485D01*
X117557523Y-76488485D02*
X117595618Y-76564676D01*
X117595618Y-76564676D02*
X117595618Y-76640866D01*
X117595618Y-76640866D02*
X117557523Y-76755152D01*
X117557523Y-76755152D02*
X117100380Y-77212295D01*
X117100380Y-77212295D02*
X117595618Y-77212295D01*
X117900380Y-76488485D02*
X117938476Y-76450390D01*
X117938476Y-76450390D02*
X118014666Y-76412295D01*
X118014666Y-76412295D02*
X118205142Y-76412295D01*
X118205142Y-76412295D02*
X118281333Y-76450390D01*
X118281333Y-76450390D02*
X118319428Y-76488485D01*
X118319428Y-76488485D02*
X118357523Y-76564676D01*
X118357523Y-76564676D02*
X118357523Y-76640866D01*
X118357523Y-76640866D02*
X118319428Y-76755152D01*
X118319428Y-76755152D02*
X117862285Y-77212295D01*
X117862285Y-77212295D02*
X118357523Y-77212295D01*
X113148514Y-66986104D02*
X113110418Y-67024200D01*
X113110418Y-67024200D02*
X112996133Y-67062295D01*
X112996133Y-67062295D02*
X112919942Y-67062295D01*
X112919942Y-67062295D02*
X112805656Y-67024200D01*
X112805656Y-67024200D02*
X112729466Y-66948009D01*
X112729466Y-66948009D02*
X112691371Y-66871819D01*
X112691371Y-66871819D02*
X112653275Y-66719438D01*
X112653275Y-66719438D02*
X112653275Y-66605152D01*
X112653275Y-66605152D02*
X112691371Y-66452771D01*
X112691371Y-66452771D02*
X112729466Y-66376580D01*
X112729466Y-66376580D02*
X112805656Y-66300390D01*
X112805656Y-66300390D02*
X112919942Y-66262295D01*
X112919942Y-66262295D02*
X112996133Y-66262295D01*
X112996133Y-66262295D02*
X113110418Y-66300390D01*
X113110418Y-66300390D02*
X113148514Y-66338485D01*
X113910418Y-67062295D02*
X113453275Y-67062295D01*
X113681847Y-67062295D02*
X113681847Y-66262295D01*
X113681847Y-66262295D02*
X113605656Y-66376580D01*
X113605656Y-66376580D02*
X113529466Y-66452771D01*
X113529466Y-66452771D02*
X113453275Y-66490866D01*
X114405657Y-66262295D02*
X114481847Y-66262295D01*
X114481847Y-66262295D02*
X114558038Y-66300390D01*
X114558038Y-66300390D02*
X114596133Y-66338485D01*
X114596133Y-66338485D02*
X114634228Y-66414676D01*
X114634228Y-66414676D02*
X114672323Y-66567057D01*
X114672323Y-66567057D02*
X114672323Y-66757533D01*
X114672323Y-66757533D02*
X114634228Y-66909914D01*
X114634228Y-66909914D02*
X114596133Y-66986104D01*
X114596133Y-66986104D02*
X114558038Y-67024200D01*
X114558038Y-67024200D02*
X114481847Y-67062295D01*
X114481847Y-67062295D02*
X114405657Y-67062295D01*
X114405657Y-67062295D02*
X114329466Y-67024200D01*
X114329466Y-67024200D02*
X114291371Y-66986104D01*
X114291371Y-66986104D02*
X114253276Y-66909914D01*
X114253276Y-66909914D02*
X114215180Y-66757533D01*
X114215180Y-66757533D02*
X114215180Y-66567057D01*
X114215180Y-66567057D02*
X114253276Y-66414676D01*
X114253276Y-66414676D02*
X114291371Y-66338485D01*
X114291371Y-66338485D02*
X114329466Y-66300390D01*
X114329466Y-66300390D02*
X114405657Y-66262295D01*
X142639666Y-87622295D02*
X142258714Y-87622295D01*
X142258714Y-87622295D02*
X142258714Y-86822295D01*
X143325380Y-87622295D02*
X142868237Y-87622295D01*
X143096809Y-87622295D02*
X143096809Y-86822295D01*
X143096809Y-86822295D02*
X143020618Y-86936580D01*
X143020618Y-86936580D02*
X142944428Y-87012771D01*
X142944428Y-87012771D02*
X142868237Y-87050866D01*
X116129467Y-66086104D02*
X116091371Y-66124200D01*
X116091371Y-66124200D02*
X115977086Y-66162295D01*
X115977086Y-66162295D02*
X115900895Y-66162295D01*
X115900895Y-66162295D02*
X115786609Y-66124200D01*
X115786609Y-66124200D02*
X115710419Y-66048009D01*
X115710419Y-66048009D02*
X115672324Y-65971819D01*
X115672324Y-65971819D02*
X115634228Y-65819438D01*
X115634228Y-65819438D02*
X115634228Y-65705152D01*
X115634228Y-65705152D02*
X115672324Y-65552771D01*
X115672324Y-65552771D02*
X115710419Y-65476580D01*
X115710419Y-65476580D02*
X115786609Y-65400390D01*
X115786609Y-65400390D02*
X115900895Y-65362295D01*
X115900895Y-65362295D02*
X115977086Y-65362295D01*
X115977086Y-65362295D02*
X116091371Y-65400390D01*
X116091371Y-65400390D02*
X116129467Y-65438485D01*
X116815181Y-65628961D02*
X116815181Y-66162295D01*
X116624705Y-65324200D02*
X116434228Y-65895628D01*
X116434228Y-65895628D02*
X116929467Y-65895628D01*
X92481095Y-68193332D02*
X92100142Y-68459999D01*
X92481095Y-68650475D02*
X91681095Y-68650475D01*
X91681095Y-68650475D02*
X91681095Y-68345713D01*
X91681095Y-68345713D02*
X91719190Y-68269523D01*
X91719190Y-68269523D02*
X91757285Y-68231428D01*
X91757285Y-68231428D02*
X91833476Y-68193332D01*
X91833476Y-68193332D02*
X91947761Y-68193332D01*
X91947761Y-68193332D02*
X92023952Y-68231428D01*
X92023952Y-68231428D02*
X92062047Y-68269523D01*
X92062047Y-68269523D02*
X92100142Y-68345713D01*
X92100142Y-68345713D02*
X92100142Y-68650475D01*
X91681095Y-67507618D02*
X91681095Y-67659999D01*
X91681095Y-67659999D02*
X91719190Y-67736190D01*
X91719190Y-67736190D02*
X91757285Y-67774285D01*
X91757285Y-67774285D02*
X91871571Y-67850475D01*
X91871571Y-67850475D02*
X92023952Y-67888571D01*
X92023952Y-67888571D02*
X92328714Y-67888571D01*
X92328714Y-67888571D02*
X92404904Y-67850475D01*
X92404904Y-67850475D02*
X92443000Y-67812380D01*
X92443000Y-67812380D02*
X92481095Y-67736190D01*
X92481095Y-67736190D02*
X92481095Y-67583809D01*
X92481095Y-67583809D02*
X92443000Y-67507618D01*
X92443000Y-67507618D02*
X92404904Y-67469523D01*
X92404904Y-67469523D02*
X92328714Y-67431428D01*
X92328714Y-67431428D02*
X92138238Y-67431428D01*
X92138238Y-67431428D02*
X92062047Y-67469523D01*
X92062047Y-67469523D02*
X92023952Y-67507618D01*
X92023952Y-67507618D02*
X91985857Y-67583809D01*
X91985857Y-67583809D02*
X91985857Y-67736190D01*
X91985857Y-67736190D02*
X92023952Y-67812380D01*
X92023952Y-67812380D02*
X92062047Y-67850475D01*
X92062047Y-67850475D02*
X92138238Y-67888571D01*
X76193714Y-71533104D02*
X76155618Y-71571200D01*
X76155618Y-71571200D02*
X76041333Y-71609295D01*
X76041333Y-71609295D02*
X75965142Y-71609295D01*
X75965142Y-71609295D02*
X75850856Y-71571200D01*
X75850856Y-71571200D02*
X75774666Y-71495009D01*
X75774666Y-71495009D02*
X75736571Y-71418819D01*
X75736571Y-71418819D02*
X75698475Y-71266438D01*
X75698475Y-71266438D02*
X75698475Y-71152152D01*
X75698475Y-71152152D02*
X75736571Y-70999771D01*
X75736571Y-70999771D02*
X75774666Y-70923580D01*
X75774666Y-70923580D02*
X75850856Y-70847390D01*
X75850856Y-70847390D02*
X75965142Y-70809295D01*
X75965142Y-70809295D02*
X76041333Y-70809295D01*
X76041333Y-70809295D02*
X76155618Y-70847390D01*
X76155618Y-70847390D02*
X76193714Y-70885485D01*
X76498475Y-70885485D02*
X76536571Y-70847390D01*
X76536571Y-70847390D02*
X76612761Y-70809295D01*
X76612761Y-70809295D02*
X76803237Y-70809295D01*
X76803237Y-70809295D02*
X76879428Y-70847390D01*
X76879428Y-70847390D02*
X76917523Y-70885485D01*
X76917523Y-70885485D02*
X76955618Y-70961676D01*
X76955618Y-70961676D02*
X76955618Y-71037866D01*
X76955618Y-71037866D02*
X76917523Y-71152152D01*
X76917523Y-71152152D02*
X76460380Y-71609295D01*
X76460380Y-71609295D02*
X76955618Y-71609295D01*
X77336571Y-71609295D02*
X77488952Y-71609295D01*
X77488952Y-71609295D02*
X77565142Y-71571200D01*
X77565142Y-71571200D02*
X77603238Y-71533104D01*
X77603238Y-71533104D02*
X77679428Y-71418819D01*
X77679428Y-71418819D02*
X77717523Y-71266438D01*
X77717523Y-71266438D02*
X77717523Y-70961676D01*
X77717523Y-70961676D02*
X77679428Y-70885485D01*
X77679428Y-70885485D02*
X77641333Y-70847390D01*
X77641333Y-70847390D02*
X77565142Y-70809295D01*
X77565142Y-70809295D02*
X77412761Y-70809295D01*
X77412761Y-70809295D02*
X77336571Y-70847390D01*
X77336571Y-70847390D02*
X77298476Y-70885485D01*
X77298476Y-70885485D02*
X77260380Y-70961676D01*
X77260380Y-70961676D02*
X77260380Y-71152152D01*
X77260380Y-71152152D02*
X77298476Y-71228342D01*
X77298476Y-71228342D02*
X77336571Y-71266438D01*
X77336571Y-71266438D02*
X77412761Y-71304533D01*
X77412761Y-71304533D02*
X77565142Y-71304533D01*
X77565142Y-71304533D02*
X77641333Y-71266438D01*
X77641333Y-71266438D02*
X77679428Y-71228342D01*
X77679428Y-71228342D02*
X77717523Y-71152152D01*
X85540914Y-61703304D02*
X85502818Y-61741400D01*
X85502818Y-61741400D02*
X85388533Y-61779495D01*
X85388533Y-61779495D02*
X85312342Y-61779495D01*
X85312342Y-61779495D02*
X85198056Y-61741400D01*
X85198056Y-61741400D02*
X85121866Y-61665209D01*
X85121866Y-61665209D02*
X85083771Y-61589019D01*
X85083771Y-61589019D02*
X85045675Y-61436638D01*
X85045675Y-61436638D02*
X85045675Y-61322352D01*
X85045675Y-61322352D02*
X85083771Y-61169971D01*
X85083771Y-61169971D02*
X85121866Y-61093780D01*
X85121866Y-61093780D02*
X85198056Y-61017590D01*
X85198056Y-61017590D02*
X85312342Y-60979495D01*
X85312342Y-60979495D02*
X85388533Y-60979495D01*
X85388533Y-60979495D02*
X85502818Y-61017590D01*
X85502818Y-61017590D02*
X85540914Y-61055685D01*
X85807580Y-60979495D02*
X86302818Y-60979495D01*
X86302818Y-60979495D02*
X86036152Y-61284257D01*
X86036152Y-61284257D02*
X86150437Y-61284257D01*
X86150437Y-61284257D02*
X86226628Y-61322352D01*
X86226628Y-61322352D02*
X86264723Y-61360447D01*
X86264723Y-61360447D02*
X86302818Y-61436638D01*
X86302818Y-61436638D02*
X86302818Y-61627114D01*
X86302818Y-61627114D02*
X86264723Y-61703304D01*
X86264723Y-61703304D02*
X86226628Y-61741400D01*
X86226628Y-61741400D02*
X86150437Y-61779495D01*
X86150437Y-61779495D02*
X85921866Y-61779495D01*
X85921866Y-61779495D02*
X85845675Y-61741400D01*
X85845675Y-61741400D02*
X85807580Y-61703304D01*
X86798057Y-60979495D02*
X86874247Y-60979495D01*
X86874247Y-60979495D02*
X86950438Y-61017590D01*
X86950438Y-61017590D02*
X86988533Y-61055685D01*
X86988533Y-61055685D02*
X87026628Y-61131876D01*
X87026628Y-61131876D02*
X87064723Y-61284257D01*
X87064723Y-61284257D02*
X87064723Y-61474733D01*
X87064723Y-61474733D02*
X87026628Y-61627114D01*
X87026628Y-61627114D02*
X86988533Y-61703304D01*
X86988533Y-61703304D02*
X86950438Y-61741400D01*
X86950438Y-61741400D02*
X86874247Y-61779495D01*
X86874247Y-61779495D02*
X86798057Y-61779495D01*
X86798057Y-61779495D02*
X86721866Y-61741400D01*
X86721866Y-61741400D02*
X86683771Y-61703304D01*
X86683771Y-61703304D02*
X86645676Y-61627114D01*
X86645676Y-61627114D02*
X86607580Y-61474733D01*
X86607580Y-61474733D02*
X86607580Y-61284257D01*
X86607580Y-61284257D02*
X86645676Y-61131876D01*
X86645676Y-61131876D02*
X86683771Y-61055685D01*
X86683771Y-61055685D02*
X86721866Y-61017590D01*
X86721866Y-61017590D02*
X86798057Y-60979495D01*
X128581714Y-77022704D02*
X128543618Y-77060800D01*
X128543618Y-77060800D02*
X128429333Y-77098895D01*
X128429333Y-77098895D02*
X128353142Y-77098895D01*
X128353142Y-77098895D02*
X128238856Y-77060800D01*
X128238856Y-77060800D02*
X128162666Y-76984609D01*
X128162666Y-76984609D02*
X128124571Y-76908419D01*
X128124571Y-76908419D02*
X128086475Y-76756038D01*
X128086475Y-76756038D02*
X128086475Y-76641752D01*
X128086475Y-76641752D02*
X128124571Y-76489371D01*
X128124571Y-76489371D02*
X128162666Y-76413180D01*
X128162666Y-76413180D02*
X128238856Y-76336990D01*
X128238856Y-76336990D02*
X128353142Y-76298895D01*
X128353142Y-76298895D02*
X128429333Y-76298895D01*
X128429333Y-76298895D02*
X128543618Y-76336990D01*
X128543618Y-76336990D02*
X128581714Y-76375085D01*
X128886475Y-76375085D02*
X128924571Y-76336990D01*
X128924571Y-76336990D02*
X129000761Y-76298895D01*
X129000761Y-76298895D02*
X129191237Y-76298895D01*
X129191237Y-76298895D02*
X129267428Y-76336990D01*
X129267428Y-76336990D02*
X129305523Y-76375085D01*
X129305523Y-76375085D02*
X129343618Y-76451276D01*
X129343618Y-76451276D02*
X129343618Y-76527466D01*
X129343618Y-76527466D02*
X129305523Y-76641752D01*
X129305523Y-76641752D02*
X128848380Y-77098895D01*
X128848380Y-77098895D02*
X129343618Y-77098895D01*
X130029333Y-76298895D02*
X129876952Y-76298895D01*
X129876952Y-76298895D02*
X129800761Y-76336990D01*
X129800761Y-76336990D02*
X129762666Y-76375085D01*
X129762666Y-76375085D02*
X129686476Y-76489371D01*
X129686476Y-76489371D02*
X129648380Y-76641752D01*
X129648380Y-76641752D02*
X129648380Y-76946514D01*
X129648380Y-76946514D02*
X129686476Y-77022704D01*
X129686476Y-77022704D02*
X129724571Y-77060800D01*
X129724571Y-77060800D02*
X129800761Y-77098895D01*
X129800761Y-77098895D02*
X129953142Y-77098895D01*
X129953142Y-77098895D02*
X130029333Y-77060800D01*
X130029333Y-77060800D02*
X130067428Y-77022704D01*
X130067428Y-77022704D02*
X130105523Y-76946514D01*
X130105523Y-76946514D02*
X130105523Y-76756038D01*
X130105523Y-76756038D02*
X130067428Y-76679847D01*
X130067428Y-76679847D02*
X130029333Y-76641752D01*
X130029333Y-76641752D02*
X129953142Y-76603657D01*
X129953142Y-76603657D02*
X129800761Y-76603657D01*
X129800761Y-76603657D02*
X129724571Y-76641752D01*
X129724571Y-76641752D02*
X129686476Y-76679847D01*
X129686476Y-76679847D02*
X129648380Y-76756038D01*
X79146476Y-70682295D02*
X79146476Y-71329914D01*
X79146476Y-71329914D02*
X79184571Y-71406104D01*
X79184571Y-71406104D02*
X79222666Y-71444200D01*
X79222666Y-71444200D02*
X79298857Y-71482295D01*
X79298857Y-71482295D02*
X79451238Y-71482295D01*
X79451238Y-71482295D02*
X79527428Y-71444200D01*
X79527428Y-71444200D02*
X79565523Y-71406104D01*
X79565523Y-71406104D02*
X79603619Y-71329914D01*
X79603619Y-71329914D02*
X79603619Y-70682295D01*
X80365523Y-70682295D02*
X79984571Y-70682295D01*
X79984571Y-70682295D02*
X79946475Y-71063247D01*
X79946475Y-71063247D02*
X79984571Y-71025152D01*
X79984571Y-71025152D02*
X80060761Y-70987057D01*
X80060761Y-70987057D02*
X80251237Y-70987057D01*
X80251237Y-70987057D02*
X80327428Y-71025152D01*
X80327428Y-71025152D02*
X80365523Y-71063247D01*
X80365523Y-71063247D02*
X80403618Y-71139438D01*
X80403618Y-71139438D02*
X80403618Y-71329914D01*
X80403618Y-71329914D02*
X80365523Y-71406104D01*
X80365523Y-71406104D02*
X80327428Y-71444200D01*
X80327428Y-71444200D02*
X80251237Y-71482295D01*
X80251237Y-71482295D02*
X80060761Y-71482295D01*
X80060761Y-71482295D02*
X79984571Y-71444200D01*
X79984571Y-71444200D02*
X79946475Y-71406104D01*
X73388295Y-87636285D02*
X73007342Y-87902952D01*
X73388295Y-88093428D02*
X72588295Y-88093428D01*
X72588295Y-88093428D02*
X72588295Y-87788666D01*
X72588295Y-87788666D02*
X72626390Y-87712476D01*
X72626390Y-87712476D02*
X72664485Y-87674381D01*
X72664485Y-87674381D02*
X72740676Y-87636285D01*
X72740676Y-87636285D02*
X72854961Y-87636285D01*
X72854961Y-87636285D02*
X72931152Y-87674381D01*
X72931152Y-87674381D02*
X72969247Y-87712476D01*
X72969247Y-87712476D02*
X73007342Y-87788666D01*
X73007342Y-87788666D02*
X73007342Y-88093428D01*
X73388295Y-86874381D02*
X73388295Y-87331524D01*
X73388295Y-87102952D02*
X72588295Y-87102952D01*
X72588295Y-87102952D02*
X72702580Y-87179143D01*
X72702580Y-87179143D02*
X72778771Y-87255333D01*
X72778771Y-87255333D02*
X72816866Y-87331524D01*
X72664485Y-86569619D02*
X72626390Y-86531523D01*
X72626390Y-86531523D02*
X72588295Y-86455333D01*
X72588295Y-86455333D02*
X72588295Y-86264857D01*
X72588295Y-86264857D02*
X72626390Y-86188666D01*
X72626390Y-86188666D02*
X72664485Y-86150571D01*
X72664485Y-86150571D02*
X72740676Y-86112476D01*
X72740676Y-86112476D02*
X72816866Y-86112476D01*
X72816866Y-86112476D02*
X72931152Y-86150571D01*
X72931152Y-86150571D02*
X73388295Y-86607714D01*
X73388295Y-86607714D02*
X73388295Y-86112476D01*
X76785714Y-74162295D02*
X76519047Y-73781342D01*
X76328571Y-74162295D02*
X76328571Y-73362295D01*
X76328571Y-73362295D02*
X76633333Y-73362295D01*
X76633333Y-73362295D02*
X76709523Y-73400390D01*
X76709523Y-73400390D02*
X76747618Y-73438485D01*
X76747618Y-73438485D02*
X76785714Y-73514676D01*
X76785714Y-73514676D02*
X76785714Y-73628961D01*
X76785714Y-73628961D02*
X76747618Y-73705152D01*
X76747618Y-73705152D02*
X76709523Y-73743247D01*
X76709523Y-73743247D02*
X76633333Y-73781342D01*
X76633333Y-73781342D02*
X76328571Y-73781342D01*
X77547618Y-74162295D02*
X77090475Y-74162295D01*
X77319047Y-74162295D02*
X77319047Y-73362295D01*
X77319047Y-73362295D02*
X77242856Y-73476580D01*
X77242856Y-73476580D02*
X77166666Y-73552771D01*
X77166666Y-73552771D02*
X77090475Y-73590866D01*
X78004761Y-73705152D02*
X77928571Y-73667057D01*
X77928571Y-73667057D02*
X77890476Y-73628961D01*
X77890476Y-73628961D02*
X77852380Y-73552771D01*
X77852380Y-73552771D02*
X77852380Y-73514676D01*
X77852380Y-73514676D02*
X77890476Y-73438485D01*
X77890476Y-73438485D02*
X77928571Y-73400390D01*
X77928571Y-73400390D02*
X78004761Y-73362295D01*
X78004761Y-73362295D02*
X78157142Y-73362295D01*
X78157142Y-73362295D02*
X78233333Y-73400390D01*
X78233333Y-73400390D02*
X78271428Y-73438485D01*
X78271428Y-73438485D02*
X78309523Y-73514676D01*
X78309523Y-73514676D02*
X78309523Y-73552771D01*
X78309523Y-73552771D02*
X78271428Y-73628961D01*
X78271428Y-73628961D02*
X78233333Y-73667057D01*
X78233333Y-73667057D02*
X78157142Y-73705152D01*
X78157142Y-73705152D02*
X78004761Y-73705152D01*
X78004761Y-73705152D02*
X77928571Y-73743247D01*
X77928571Y-73743247D02*
X77890476Y-73781342D01*
X77890476Y-73781342D02*
X77852380Y-73857533D01*
X77852380Y-73857533D02*
X77852380Y-74009914D01*
X77852380Y-74009914D02*
X77890476Y-74086104D01*
X77890476Y-74086104D02*
X77928571Y-74124200D01*
X77928571Y-74124200D02*
X78004761Y-74162295D01*
X78004761Y-74162295D02*
X78157142Y-74162295D01*
X78157142Y-74162295D02*
X78233333Y-74124200D01*
X78233333Y-74124200D02*
X78271428Y-74086104D01*
X78271428Y-74086104D02*
X78309523Y-74009914D01*
X78309523Y-74009914D02*
X78309523Y-73857533D01*
X78309523Y-73857533D02*
X78271428Y-73781342D01*
X78271428Y-73781342D02*
X78233333Y-73743247D01*
X78233333Y-73743247D02*
X78157142Y-73705152D01*
X158120295Y-81633332D02*
X157739342Y-81899999D01*
X158120295Y-82090475D02*
X157320295Y-82090475D01*
X157320295Y-82090475D02*
X157320295Y-81785713D01*
X157320295Y-81785713D02*
X157358390Y-81709523D01*
X157358390Y-81709523D02*
X157396485Y-81671428D01*
X157396485Y-81671428D02*
X157472676Y-81633332D01*
X157472676Y-81633332D02*
X157586961Y-81633332D01*
X157586961Y-81633332D02*
X157663152Y-81671428D01*
X157663152Y-81671428D02*
X157701247Y-81709523D01*
X157701247Y-81709523D02*
X157739342Y-81785713D01*
X157739342Y-81785713D02*
X157739342Y-82090475D01*
X157663152Y-81176190D02*
X157625057Y-81252380D01*
X157625057Y-81252380D02*
X157586961Y-81290475D01*
X157586961Y-81290475D02*
X157510771Y-81328571D01*
X157510771Y-81328571D02*
X157472676Y-81328571D01*
X157472676Y-81328571D02*
X157396485Y-81290475D01*
X157396485Y-81290475D02*
X157358390Y-81252380D01*
X157358390Y-81252380D02*
X157320295Y-81176190D01*
X157320295Y-81176190D02*
X157320295Y-81023809D01*
X157320295Y-81023809D02*
X157358390Y-80947618D01*
X157358390Y-80947618D02*
X157396485Y-80909523D01*
X157396485Y-80909523D02*
X157472676Y-80871428D01*
X157472676Y-80871428D02*
X157510771Y-80871428D01*
X157510771Y-80871428D02*
X157586961Y-80909523D01*
X157586961Y-80909523D02*
X157625057Y-80947618D01*
X157625057Y-80947618D02*
X157663152Y-81023809D01*
X157663152Y-81023809D02*
X157663152Y-81176190D01*
X157663152Y-81176190D02*
X157701247Y-81252380D01*
X157701247Y-81252380D02*
X157739342Y-81290475D01*
X157739342Y-81290475D02*
X157815533Y-81328571D01*
X157815533Y-81328571D02*
X157967914Y-81328571D01*
X157967914Y-81328571D02*
X158044104Y-81290475D01*
X158044104Y-81290475D02*
X158082200Y-81252380D01*
X158082200Y-81252380D02*
X158120295Y-81176190D01*
X158120295Y-81176190D02*
X158120295Y-81023809D01*
X158120295Y-81023809D02*
X158082200Y-80947618D01*
X158082200Y-80947618D02*
X158044104Y-80909523D01*
X158044104Y-80909523D02*
X157967914Y-80871428D01*
X157967914Y-80871428D02*
X157815533Y-80871428D01*
X157815533Y-80871428D02*
X157739342Y-80909523D01*
X157739342Y-80909523D02*
X157701247Y-80947618D01*
X157701247Y-80947618D02*
X157663152Y-81023809D01*
X97847495Y-76301485D02*
X97047495Y-76301485D01*
X97047495Y-76301485D02*
X97847495Y-75844342D01*
X97847495Y-75844342D02*
X97047495Y-75844342D01*
X97047495Y-75577676D02*
X97047495Y-75120533D01*
X97847495Y-75349105D02*
X97047495Y-75349105D01*
X97847495Y-74434819D02*
X97847495Y-74891962D01*
X97847495Y-74663390D02*
X97047495Y-74663390D01*
X97047495Y-74663390D02*
X97161780Y-74739581D01*
X97161780Y-74739581D02*
X97237971Y-74815771D01*
X97237971Y-74815771D02*
X97276066Y-74891962D01*
X100552695Y-75234723D02*
X101200314Y-75234723D01*
X101200314Y-75234723D02*
X101276504Y-75196628D01*
X101276504Y-75196628D02*
X101314600Y-75158533D01*
X101314600Y-75158533D02*
X101352695Y-75082342D01*
X101352695Y-75082342D02*
X101352695Y-74929961D01*
X101352695Y-74929961D02*
X101314600Y-74853771D01*
X101314600Y-74853771D02*
X101276504Y-74815676D01*
X101276504Y-74815676D02*
X101200314Y-74777580D01*
X101200314Y-74777580D02*
X100552695Y-74777580D01*
X100552695Y-74472819D02*
X100552695Y-73977581D01*
X100552695Y-73977581D02*
X100857457Y-74244247D01*
X100857457Y-74244247D02*
X100857457Y-74129962D01*
X100857457Y-74129962D02*
X100895552Y-74053771D01*
X100895552Y-74053771D02*
X100933647Y-74015676D01*
X100933647Y-74015676D02*
X101009838Y-73977581D01*
X101009838Y-73977581D02*
X101200314Y-73977581D01*
X101200314Y-73977581D02*
X101276504Y-74015676D01*
X101276504Y-74015676D02*
X101314600Y-74053771D01*
X101314600Y-74053771D02*
X101352695Y-74129962D01*
X101352695Y-74129962D02*
X101352695Y-74358533D01*
X101352695Y-74358533D02*
X101314600Y-74434724D01*
X101314600Y-74434724D02*
X101276504Y-74472819D01*
X67875495Y-77730285D02*
X67494542Y-77996952D01*
X67875495Y-78187428D02*
X67075495Y-78187428D01*
X67075495Y-78187428D02*
X67075495Y-77882666D01*
X67075495Y-77882666D02*
X67113590Y-77806476D01*
X67113590Y-77806476D02*
X67151685Y-77768381D01*
X67151685Y-77768381D02*
X67227876Y-77730285D01*
X67227876Y-77730285D02*
X67342161Y-77730285D01*
X67342161Y-77730285D02*
X67418352Y-77768381D01*
X67418352Y-77768381D02*
X67456447Y-77806476D01*
X67456447Y-77806476D02*
X67494542Y-77882666D01*
X67494542Y-77882666D02*
X67494542Y-78187428D01*
X67151685Y-77425524D02*
X67113590Y-77387428D01*
X67113590Y-77387428D02*
X67075495Y-77311238D01*
X67075495Y-77311238D02*
X67075495Y-77120762D01*
X67075495Y-77120762D02*
X67113590Y-77044571D01*
X67113590Y-77044571D02*
X67151685Y-77006476D01*
X67151685Y-77006476D02*
X67227876Y-76968381D01*
X67227876Y-76968381D02*
X67304066Y-76968381D01*
X67304066Y-76968381D02*
X67418352Y-77006476D01*
X67418352Y-77006476D02*
X67875495Y-77463619D01*
X67875495Y-77463619D02*
X67875495Y-76968381D01*
X67875495Y-76206476D02*
X67875495Y-76663619D01*
X67875495Y-76435047D02*
X67075495Y-76435047D01*
X67075495Y-76435047D02*
X67189780Y-76511238D01*
X67189780Y-76511238D02*
X67265971Y-76587428D01*
X67265971Y-76587428D02*
X67304066Y-76663619D01*
X109248514Y-66886104D02*
X109210418Y-66924200D01*
X109210418Y-66924200D02*
X109096133Y-66962295D01*
X109096133Y-66962295D02*
X109019942Y-66962295D01*
X109019942Y-66962295D02*
X108905656Y-66924200D01*
X108905656Y-66924200D02*
X108829466Y-66848009D01*
X108829466Y-66848009D02*
X108791371Y-66771819D01*
X108791371Y-66771819D02*
X108753275Y-66619438D01*
X108753275Y-66619438D02*
X108753275Y-66505152D01*
X108753275Y-66505152D02*
X108791371Y-66352771D01*
X108791371Y-66352771D02*
X108829466Y-66276580D01*
X108829466Y-66276580D02*
X108905656Y-66200390D01*
X108905656Y-66200390D02*
X109019942Y-66162295D01*
X109019942Y-66162295D02*
X109096133Y-66162295D01*
X109096133Y-66162295D02*
X109210418Y-66200390D01*
X109210418Y-66200390D02*
X109248514Y-66238485D01*
X110010418Y-66962295D02*
X109553275Y-66962295D01*
X109781847Y-66962295D02*
X109781847Y-66162295D01*
X109781847Y-66162295D02*
X109705656Y-66276580D01*
X109705656Y-66276580D02*
X109629466Y-66352771D01*
X109629466Y-66352771D02*
X109553275Y-66390866D01*
X110277085Y-66162295D02*
X110772323Y-66162295D01*
X110772323Y-66162295D02*
X110505657Y-66467057D01*
X110505657Y-66467057D02*
X110619942Y-66467057D01*
X110619942Y-66467057D02*
X110696133Y-66505152D01*
X110696133Y-66505152D02*
X110734228Y-66543247D01*
X110734228Y-66543247D02*
X110772323Y-66619438D01*
X110772323Y-66619438D02*
X110772323Y-66809914D01*
X110772323Y-66809914D02*
X110734228Y-66886104D01*
X110734228Y-66886104D02*
X110696133Y-66924200D01*
X110696133Y-66924200D02*
X110619942Y-66962295D01*
X110619942Y-66962295D02*
X110391371Y-66962295D01*
X110391371Y-66962295D02*
X110315180Y-66924200D01*
X110315180Y-66924200D02*
X110277085Y-66886104D01*
X60471495Y-64427066D02*
X61042923Y-64427066D01*
X61042923Y-64427066D02*
X61157209Y-64465161D01*
X61157209Y-64465161D02*
X61233400Y-64541352D01*
X61233400Y-64541352D02*
X61271495Y-64655637D01*
X61271495Y-64655637D02*
X61271495Y-64731828D01*
X60471495Y-64122304D02*
X60471495Y-63627066D01*
X60471495Y-63627066D02*
X60776257Y-63893732D01*
X60776257Y-63893732D02*
X60776257Y-63779447D01*
X60776257Y-63779447D02*
X60814352Y-63703256D01*
X60814352Y-63703256D02*
X60852447Y-63665161D01*
X60852447Y-63665161D02*
X60928638Y-63627066D01*
X60928638Y-63627066D02*
X61119114Y-63627066D01*
X61119114Y-63627066D02*
X61195304Y-63665161D01*
X61195304Y-63665161D02*
X61233400Y-63703256D01*
X61233400Y-63703256D02*
X61271495Y-63779447D01*
X61271495Y-63779447D02*
X61271495Y-64008018D01*
X61271495Y-64008018D02*
X61233400Y-64084209D01*
X61233400Y-64084209D02*
X61195304Y-64122304D01*
X89109895Y-70086785D02*
X88728942Y-70353452D01*
X89109895Y-70543928D02*
X88309895Y-70543928D01*
X88309895Y-70543928D02*
X88309895Y-70239166D01*
X88309895Y-70239166D02*
X88347990Y-70162976D01*
X88347990Y-70162976D02*
X88386085Y-70124881D01*
X88386085Y-70124881D02*
X88462276Y-70086785D01*
X88462276Y-70086785D02*
X88576561Y-70086785D01*
X88576561Y-70086785D02*
X88652752Y-70124881D01*
X88652752Y-70124881D02*
X88690847Y-70162976D01*
X88690847Y-70162976D02*
X88728942Y-70239166D01*
X88728942Y-70239166D02*
X88728942Y-70543928D01*
X88386085Y-69782024D02*
X88347990Y-69743928D01*
X88347990Y-69743928D02*
X88309895Y-69667738D01*
X88309895Y-69667738D02*
X88309895Y-69477262D01*
X88309895Y-69477262D02*
X88347990Y-69401071D01*
X88347990Y-69401071D02*
X88386085Y-69362976D01*
X88386085Y-69362976D02*
X88462276Y-69324881D01*
X88462276Y-69324881D02*
X88538466Y-69324881D01*
X88538466Y-69324881D02*
X88652752Y-69362976D01*
X88652752Y-69362976D02*
X89109895Y-69820119D01*
X89109895Y-69820119D02*
X89109895Y-69324881D01*
X88309895Y-68601071D02*
X88309895Y-68982023D01*
X88309895Y-68982023D02*
X88690847Y-69020119D01*
X88690847Y-69020119D02*
X88652752Y-68982023D01*
X88652752Y-68982023D02*
X88614657Y-68905833D01*
X88614657Y-68905833D02*
X88614657Y-68715357D01*
X88614657Y-68715357D02*
X88652752Y-68639166D01*
X88652752Y-68639166D02*
X88690847Y-68601071D01*
X88690847Y-68601071D02*
X88767038Y-68562976D01*
X88767038Y-68562976D02*
X88957514Y-68562976D01*
X88957514Y-68562976D02*
X89033704Y-68601071D01*
X89033704Y-68601071D02*
X89071800Y-68639166D01*
X89071800Y-68639166D02*
X89109895Y-68715357D01*
X89109895Y-68715357D02*
X89109895Y-68905833D01*
X89109895Y-68905833D02*
X89071800Y-68982023D01*
X89071800Y-68982023D02*
X89033704Y-69020119D01*
X73101276Y-82569495D02*
X73101276Y-83217114D01*
X73101276Y-83217114D02*
X73139371Y-83293304D01*
X73139371Y-83293304D02*
X73177466Y-83331400D01*
X73177466Y-83331400D02*
X73253657Y-83369495D01*
X73253657Y-83369495D02*
X73406038Y-83369495D01*
X73406038Y-83369495D02*
X73482228Y-83331400D01*
X73482228Y-83331400D02*
X73520323Y-83293304D01*
X73520323Y-83293304D02*
X73558419Y-83217114D01*
X73558419Y-83217114D02*
X73558419Y-82569495D01*
X74282228Y-82836161D02*
X74282228Y-83369495D01*
X74091752Y-82531400D02*
X73901275Y-83102828D01*
X73901275Y-83102828D02*
X74396514Y-83102828D01*
X82150295Y-86875285D02*
X81769342Y-87141952D01*
X82150295Y-87332428D02*
X81350295Y-87332428D01*
X81350295Y-87332428D02*
X81350295Y-87027666D01*
X81350295Y-87027666D02*
X81388390Y-86951476D01*
X81388390Y-86951476D02*
X81426485Y-86913381D01*
X81426485Y-86913381D02*
X81502676Y-86875285D01*
X81502676Y-86875285D02*
X81616961Y-86875285D01*
X81616961Y-86875285D02*
X81693152Y-86913381D01*
X81693152Y-86913381D02*
X81731247Y-86951476D01*
X81731247Y-86951476D02*
X81769342Y-87027666D01*
X81769342Y-87027666D02*
X81769342Y-87332428D01*
X81426485Y-86570524D02*
X81388390Y-86532428D01*
X81388390Y-86532428D02*
X81350295Y-86456238D01*
X81350295Y-86456238D02*
X81350295Y-86265762D01*
X81350295Y-86265762D02*
X81388390Y-86189571D01*
X81388390Y-86189571D02*
X81426485Y-86151476D01*
X81426485Y-86151476D02*
X81502676Y-86113381D01*
X81502676Y-86113381D02*
X81578866Y-86113381D01*
X81578866Y-86113381D02*
X81693152Y-86151476D01*
X81693152Y-86151476D02*
X82150295Y-86608619D01*
X82150295Y-86608619D02*
X82150295Y-86113381D01*
X81350295Y-85846714D02*
X81350295Y-85351476D01*
X81350295Y-85351476D02*
X81655057Y-85618142D01*
X81655057Y-85618142D02*
X81655057Y-85503857D01*
X81655057Y-85503857D02*
X81693152Y-85427666D01*
X81693152Y-85427666D02*
X81731247Y-85389571D01*
X81731247Y-85389571D02*
X81807438Y-85351476D01*
X81807438Y-85351476D02*
X81997914Y-85351476D01*
X81997914Y-85351476D02*
X82074104Y-85389571D01*
X82074104Y-85389571D02*
X82112200Y-85427666D01*
X82112200Y-85427666D02*
X82150295Y-85503857D01*
X82150295Y-85503857D02*
X82150295Y-85732428D01*
X82150295Y-85732428D02*
X82112200Y-85808619D01*
X82112200Y-85808619D02*
X82074104Y-85846714D01*
X106374904Y-75686285D02*
X106413000Y-75724381D01*
X106413000Y-75724381D02*
X106451095Y-75838666D01*
X106451095Y-75838666D02*
X106451095Y-75914857D01*
X106451095Y-75914857D02*
X106413000Y-76029143D01*
X106413000Y-76029143D02*
X106336809Y-76105333D01*
X106336809Y-76105333D02*
X106260619Y-76143428D01*
X106260619Y-76143428D02*
X106108238Y-76181524D01*
X106108238Y-76181524D02*
X105993952Y-76181524D01*
X105993952Y-76181524D02*
X105841571Y-76143428D01*
X105841571Y-76143428D02*
X105765380Y-76105333D01*
X105765380Y-76105333D02*
X105689190Y-76029143D01*
X105689190Y-76029143D02*
X105651095Y-75914857D01*
X105651095Y-75914857D02*
X105651095Y-75838666D01*
X105651095Y-75838666D02*
X105689190Y-75724381D01*
X105689190Y-75724381D02*
X105727285Y-75686285D01*
X105727285Y-75381524D02*
X105689190Y-75343428D01*
X105689190Y-75343428D02*
X105651095Y-75267238D01*
X105651095Y-75267238D02*
X105651095Y-75076762D01*
X105651095Y-75076762D02*
X105689190Y-75000571D01*
X105689190Y-75000571D02*
X105727285Y-74962476D01*
X105727285Y-74962476D02*
X105803476Y-74924381D01*
X105803476Y-74924381D02*
X105879666Y-74924381D01*
X105879666Y-74924381D02*
X105993952Y-74962476D01*
X105993952Y-74962476D02*
X106451095Y-75419619D01*
X106451095Y-75419619D02*
X106451095Y-74924381D01*
X105651095Y-74429142D02*
X105651095Y-74352952D01*
X105651095Y-74352952D02*
X105689190Y-74276761D01*
X105689190Y-74276761D02*
X105727285Y-74238666D01*
X105727285Y-74238666D02*
X105803476Y-74200571D01*
X105803476Y-74200571D02*
X105955857Y-74162476D01*
X105955857Y-74162476D02*
X106146333Y-74162476D01*
X106146333Y-74162476D02*
X106298714Y-74200571D01*
X106298714Y-74200571D02*
X106374904Y-74238666D01*
X106374904Y-74238666D02*
X106413000Y-74276761D01*
X106413000Y-74276761D02*
X106451095Y-74352952D01*
X106451095Y-74352952D02*
X106451095Y-74429142D01*
X106451095Y-74429142D02*
X106413000Y-74505333D01*
X106413000Y-74505333D02*
X106374904Y-74543428D01*
X106374904Y-74543428D02*
X106298714Y-74581523D01*
X106298714Y-74581523D02*
X106146333Y-74619619D01*
X106146333Y-74619619D02*
X105955857Y-74619619D01*
X105955857Y-74619619D02*
X105803476Y-74581523D01*
X105803476Y-74581523D02*
X105727285Y-74543428D01*
X105727285Y-74543428D02*
X105689190Y-74505333D01*
X105689190Y-74505333D02*
X105651095Y-74429142D01*
X139008295Y-77486323D02*
X139008295Y-77029180D01*
X139808295Y-77257752D02*
X139008295Y-77257752D01*
X139808295Y-76762513D02*
X139008295Y-76762513D01*
X139008295Y-76762513D02*
X139008295Y-76457751D01*
X139008295Y-76457751D02*
X139046390Y-76381561D01*
X139046390Y-76381561D02*
X139084485Y-76343466D01*
X139084485Y-76343466D02*
X139160676Y-76305370D01*
X139160676Y-76305370D02*
X139274961Y-76305370D01*
X139274961Y-76305370D02*
X139351152Y-76343466D01*
X139351152Y-76343466D02*
X139389247Y-76381561D01*
X139389247Y-76381561D02*
X139427342Y-76457751D01*
X139427342Y-76457751D02*
X139427342Y-76762513D01*
X139808295Y-75543466D02*
X139808295Y-76000609D01*
X139808295Y-75772037D02*
X139008295Y-75772037D01*
X139008295Y-75772037D02*
X139122580Y-75848228D01*
X139122580Y-75848228D02*
X139198771Y-75924418D01*
X139198771Y-75924418D02*
X139236866Y-76000609D01*
X79394114Y-89211495D02*
X79127447Y-88830542D01*
X78936971Y-89211495D02*
X78936971Y-88411495D01*
X78936971Y-88411495D02*
X79241733Y-88411495D01*
X79241733Y-88411495D02*
X79317923Y-88449590D01*
X79317923Y-88449590D02*
X79356018Y-88487685D01*
X79356018Y-88487685D02*
X79394114Y-88563876D01*
X79394114Y-88563876D02*
X79394114Y-88678161D01*
X79394114Y-88678161D02*
X79356018Y-88754352D01*
X79356018Y-88754352D02*
X79317923Y-88792447D01*
X79317923Y-88792447D02*
X79241733Y-88830542D01*
X79241733Y-88830542D02*
X78936971Y-88830542D01*
X80156018Y-89211495D02*
X79698875Y-89211495D01*
X79927447Y-89211495D02*
X79927447Y-88411495D01*
X79927447Y-88411495D02*
X79851256Y-88525780D01*
X79851256Y-88525780D02*
X79775066Y-88601971D01*
X79775066Y-88601971D02*
X79698875Y-88640066D01*
X80422685Y-88411495D02*
X80917923Y-88411495D01*
X80917923Y-88411495D02*
X80651257Y-88716257D01*
X80651257Y-88716257D02*
X80765542Y-88716257D01*
X80765542Y-88716257D02*
X80841733Y-88754352D01*
X80841733Y-88754352D02*
X80879828Y-88792447D01*
X80879828Y-88792447D02*
X80917923Y-88868638D01*
X80917923Y-88868638D02*
X80917923Y-89059114D01*
X80917923Y-89059114D02*
X80879828Y-89135304D01*
X80879828Y-89135304D02*
X80841733Y-89173400D01*
X80841733Y-89173400D02*
X80765542Y-89211495D01*
X80765542Y-89211495D02*
X80536971Y-89211495D01*
X80536971Y-89211495D02*
X80460780Y-89173400D01*
X80460780Y-89173400D02*
X80422685Y-89135304D01*
X96494295Y-68306885D02*
X96113342Y-68573552D01*
X96494295Y-68764028D02*
X95694295Y-68764028D01*
X95694295Y-68764028D02*
X95694295Y-68459266D01*
X95694295Y-68459266D02*
X95732390Y-68383076D01*
X95732390Y-68383076D02*
X95770485Y-68344981D01*
X95770485Y-68344981D02*
X95846676Y-68306885D01*
X95846676Y-68306885D02*
X95960961Y-68306885D01*
X95960961Y-68306885D02*
X96037152Y-68344981D01*
X96037152Y-68344981D02*
X96075247Y-68383076D01*
X96075247Y-68383076D02*
X96113342Y-68459266D01*
X96113342Y-68459266D02*
X96113342Y-68764028D01*
X96494295Y-67544981D02*
X96494295Y-68002124D01*
X96494295Y-67773552D02*
X95694295Y-67773552D01*
X95694295Y-67773552D02*
X95808580Y-67849743D01*
X95808580Y-67849743D02*
X95884771Y-67925933D01*
X95884771Y-67925933D02*
X95922866Y-68002124D01*
X96494295Y-66783076D02*
X96494295Y-67240219D01*
X96494295Y-67011647D02*
X95694295Y-67011647D01*
X95694295Y-67011647D02*
X95808580Y-67087838D01*
X95808580Y-67087838D02*
X95884771Y-67164028D01*
X95884771Y-67164028D02*
X95922866Y-67240219D01*
X90550695Y-76676932D02*
X90169742Y-76943599D01*
X90550695Y-77134075D02*
X89750695Y-77134075D01*
X89750695Y-77134075D02*
X89750695Y-76829313D01*
X89750695Y-76829313D02*
X89788790Y-76753123D01*
X89788790Y-76753123D02*
X89826885Y-76715028D01*
X89826885Y-76715028D02*
X89903076Y-76676932D01*
X89903076Y-76676932D02*
X90017361Y-76676932D01*
X90017361Y-76676932D02*
X90093552Y-76715028D01*
X90093552Y-76715028D02*
X90131647Y-76753123D01*
X90131647Y-76753123D02*
X90169742Y-76829313D01*
X90169742Y-76829313D02*
X90169742Y-77134075D01*
X90550695Y-75915028D02*
X90550695Y-76372171D01*
X90550695Y-76143599D02*
X89750695Y-76143599D01*
X89750695Y-76143599D02*
X89864980Y-76219790D01*
X89864980Y-76219790D02*
X89941171Y-76295980D01*
X89941171Y-76295980D02*
X89979266Y-76372171D01*
X135603333Y-70313247D02*
X135336667Y-70313247D01*
X135336667Y-70732295D02*
X135336667Y-69932295D01*
X135336667Y-69932295D02*
X135717619Y-69932295D01*
X136441428Y-70732295D02*
X135984285Y-70732295D01*
X136212857Y-70732295D02*
X136212857Y-69932295D01*
X136212857Y-69932295D02*
X136136666Y-70046580D01*
X136136666Y-70046580D02*
X136060476Y-70122771D01*
X136060476Y-70122771D02*
X135984285Y-70160866D01*
X109880095Y-74033285D02*
X109499142Y-74299952D01*
X109880095Y-74490428D02*
X109080095Y-74490428D01*
X109080095Y-74490428D02*
X109080095Y-74185666D01*
X109080095Y-74185666D02*
X109118190Y-74109476D01*
X109118190Y-74109476D02*
X109156285Y-74071381D01*
X109156285Y-74071381D02*
X109232476Y-74033285D01*
X109232476Y-74033285D02*
X109346761Y-74033285D01*
X109346761Y-74033285D02*
X109422952Y-74071381D01*
X109422952Y-74071381D02*
X109461047Y-74109476D01*
X109461047Y-74109476D02*
X109499142Y-74185666D01*
X109499142Y-74185666D02*
X109499142Y-74490428D01*
X109880095Y-73271381D02*
X109880095Y-73728524D01*
X109880095Y-73499952D02*
X109080095Y-73499952D01*
X109080095Y-73499952D02*
X109194380Y-73576143D01*
X109194380Y-73576143D02*
X109270571Y-73652333D01*
X109270571Y-73652333D02*
X109308666Y-73728524D01*
X109080095Y-72547571D02*
X109080095Y-72928523D01*
X109080095Y-72928523D02*
X109461047Y-72966619D01*
X109461047Y-72966619D02*
X109422952Y-72928523D01*
X109422952Y-72928523D02*
X109384857Y-72852333D01*
X109384857Y-72852333D02*
X109384857Y-72661857D01*
X109384857Y-72661857D02*
X109422952Y-72585666D01*
X109422952Y-72585666D02*
X109461047Y-72547571D01*
X109461047Y-72547571D02*
X109537238Y-72509476D01*
X109537238Y-72509476D02*
X109727714Y-72509476D01*
X109727714Y-72509476D02*
X109803904Y-72547571D01*
X109803904Y-72547571D02*
X109842000Y-72585666D01*
X109842000Y-72585666D02*
X109880095Y-72661857D01*
X109880095Y-72661857D02*
X109880095Y-72852333D01*
X109880095Y-72852333D02*
X109842000Y-72928523D01*
X109842000Y-72928523D02*
X109803904Y-72966619D01*
X79171381Y-60439295D02*
X79171381Y-59639295D01*
X79171381Y-59639295D02*
X79438047Y-60210723D01*
X79438047Y-60210723D02*
X79704714Y-59639295D01*
X79704714Y-59639295D02*
X79704714Y-60439295D01*
X80504714Y-60439295D02*
X80047571Y-60439295D01*
X80276143Y-60439295D02*
X80276143Y-59639295D01*
X80276143Y-59639295D02*
X80199952Y-59753580D01*
X80199952Y-59753580D02*
X80123762Y-59829771D01*
X80123762Y-59829771D02*
X80047571Y-59867866D01*
X119329467Y-65986104D02*
X119291371Y-66024200D01*
X119291371Y-66024200D02*
X119177086Y-66062295D01*
X119177086Y-66062295D02*
X119100895Y-66062295D01*
X119100895Y-66062295D02*
X118986609Y-66024200D01*
X118986609Y-66024200D02*
X118910419Y-65948009D01*
X118910419Y-65948009D02*
X118872324Y-65871819D01*
X118872324Y-65871819D02*
X118834228Y-65719438D01*
X118834228Y-65719438D02*
X118834228Y-65605152D01*
X118834228Y-65605152D02*
X118872324Y-65452771D01*
X118872324Y-65452771D02*
X118910419Y-65376580D01*
X118910419Y-65376580D02*
X118986609Y-65300390D01*
X118986609Y-65300390D02*
X119100895Y-65262295D01*
X119100895Y-65262295D02*
X119177086Y-65262295D01*
X119177086Y-65262295D02*
X119291371Y-65300390D01*
X119291371Y-65300390D02*
X119329467Y-65338485D01*
X120015181Y-65262295D02*
X119862800Y-65262295D01*
X119862800Y-65262295D02*
X119786609Y-65300390D01*
X119786609Y-65300390D02*
X119748514Y-65338485D01*
X119748514Y-65338485D02*
X119672324Y-65452771D01*
X119672324Y-65452771D02*
X119634228Y-65605152D01*
X119634228Y-65605152D02*
X119634228Y-65909914D01*
X119634228Y-65909914D02*
X119672324Y-65986104D01*
X119672324Y-65986104D02*
X119710419Y-66024200D01*
X119710419Y-66024200D02*
X119786609Y-66062295D01*
X119786609Y-66062295D02*
X119938990Y-66062295D01*
X119938990Y-66062295D02*
X120015181Y-66024200D01*
X120015181Y-66024200D02*
X120053276Y-65986104D01*
X120053276Y-65986104D02*
X120091371Y-65909914D01*
X120091371Y-65909914D02*
X120091371Y-65719438D01*
X120091371Y-65719438D02*
X120053276Y-65643247D01*
X120053276Y-65643247D02*
X120015181Y-65605152D01*
X120015181Y-65605152D02*
X119938990Y-65567057D01*
X119938990Y-65567057D02*
X119786609Y-65567057D01*
X119786609Y-65567057D02*
X119710419Y-65605152D01*
X119710419Y-65605152D02*
X119672324Y-65643247D01*
X119672324Y-65643247D02*
X119634228Y-65719438D01*
X96545095Y-76575332D02*
X96164142Y-76841999D01*
X96545095Y-77032475D02*
X95745095Y-77032475D01*
X95745095Y-77032475D02*
X95745095Y-76727713D01*
X95745095Y-76727713D02*
X95783190Y-76651523D01*
X95783190Y-76651523D02*
X95821285Y-76613428D01*
X95821285Y-76613428D02*
X95897476Y-76575332D01*
X95897476Y-76575332D02*
X96011761Y-76575332D01*
X96011761Y-76575332D02*
X96087952Y-76613428D01*
X96087952Y-76613428D02*
X96126047Y-76651523D01*
X96126047Y-76651523D02*
X96164142Y-76727713D01*
X96164142Y-76727713D02*
X96164142Y-77032475D01*
X96011761Y-75889618D02*
X96545095Y-75889618D01*
X95707000Y-76080094D02*
X96278428Y-76270571D01*
X96278428Y-76270571D02*
X96278428Y-75775332D01*
X94513095Y-68293032D02*
X94132142Y-68559699D01*
X94513095Y-68750175D02*
X93713095Y-68750175D01*
X93713095Y-68750175D02*
X93713095Y-68445413D01*
X93713095Y-68445413D02*
X93751190Y-68369223D01*
X93751190Y-68369223D02*
X93789285Y-68331128D01*
X93789285Y-68331128D02*
X93865476Y-68293032D01*
X93865476Y-68293032D02*
X93979761Y-68293032D01*
X93979761Y-68293032D02*
X94055952Y-68331128D01*
X94055952Y-68331128D02*
X94094047Y-68369223D01*
X94094047Y-68369223D02*
X94132142Y-68445413D01*
X94132142Y-68445413D02*
X94132142Y-68750175D01*
X94513095Y-67912080D02*
X94513095Y-67759699D01*
X94513095Y-67759699D02*
X94475000Y-67683509D01*
X94475000Y-67683509D02*
X94436904Y-67645413D01*
X94436904Y-67645413D02*
X94322619Y-67569223D01*
X94322619Y-67569223D02*
X94170238Y-67531128D01*
X94170238Y-67531128D02*
X93865476Y-67531128D01*
X93865476Y-67531128D02*
X93789285Y-67569223D01*
X93789285Y-67569223D02*
X93751190Y-67607318D01*
X93751190Y-67607318D02*
X93713095Y-67683509D01*
X93713095Y-67683509D02*
X93713095Y-67835890D01*
X93713095Y-67835890D02*
X93751190Y-67912080D01*
X93751190Y-67912080D02*
X93789285Y-67950175D01*
X93789285Y-67950175D02*
X93865476Y-67988271D01*
X93865476Y-67988271D02*
X94055952Y-67988271D01*
X94055952Y-67988271D02*
X94132142Y-67950175D01*
X94132142Y-67950175D02*
X94170238Y-67912080D01*
X94170238Y-67912080D02*
X94208333Y-67835890D01*
X94208333Y-67835890D02*
X94208333Y-67683509D01*
X94208333Y-67683509D02*
X94170238Y-67607318D01*
X94170238Y-67607318D02*
X94132142Y-67569223D01*
X94132142Y-67569223D02*
X94055952Y-67531128D01*
X75787314Y-85299895D02*
X75520647Y-84918942D01*
X75330171Y-85299895D02*
X75330171Y-84499895D01*
X75330171Y-84499895D02*
X75634933Y-84499895D01*
X75634933Y-84499895D02*
X75711123Y-84537990D01*
X75711123Y-84537990D02*
X75749218Y-84576085D01*
X75749218Y-84576085D02*
X75787314Y-84652276D01*
X75787314Y-84652276D02*
X75787314Y-84766561D01*
X75787314Y-84766561D02*
X75749218Y-84842752D01*
X75749218Y-84842752D02*
X75711123Y-84880847D01*
X75711123Y-84880847D02*
X75634933Y-84918942D01*
X75634933Y-84918942D02*
X75330171Y-84918942D01*
X76092075Y-84576085D02*
X76130171Y-84537990D01*
X76130171Y-84537990D02*
X76206361Y-84499895D01*
X76206361Y-84499895D02*
X76396837Y-84499895D01*
X76396837Y-84499895D02*
X76473028Y-84537990D01*
X76473028Y-84537990D02*
X76511123Y-84576085D01*
X76511123Y-84576085D02*
X76549218Y-84652276D01*
X76549218Y-84652276D02*
X76549218Y-84728466D01*
X76549218Y-84728466D02*
X76511123Y-84842752D01*
X76511123Y-84842752D02*
X76053980Y-85299895D01*
X76053980Y-85299895D02*
X76549218Y-85299895D01*
X77006361Y-84842752D02*
X76930171Y-84804657D01*
X76930171Y-84804657D02*
X76892076Y-84766561D01*
X76892076Y-84766561D02*
X76853980Y-84690371D01*
X76853980Y-84690371D02*
X76853980Y-84652276D01*
X76853980Y-84652276D02*
X76892076Y-84576085D01*
X76892076Y-84576085D02*
X76930171Y-84537990D01*
X76930171Y-84537990D02*
X77006361Y-84499895D01*
X77006361Y-84499895D02*
X77158742Y-84499895D01*
X77158742Y-84499895D02*
X77234933Y-84537990D01*
X77234933Y-84537990D02*
X77273028Y-84576085D01*
X77273028Y-84576085D02*
X77311123Y-84652276D01*
X77311123Y-84652276D02*
X77311123Y-84690371D01*
X77311123Y-84690371D02*
X77273028Y-84766561D01*
X77273028Y-84766561D02*
X77234933Y-84804657D01*
X77234933Y-84804657D02*
X77158742Y-84842752D01*
X77158742Y-84842752D02*
X77006361Y-84842752D01*
X77006361Y-84842752D02*
X76930171Y-84880847D01*
X76930171Y-84880847D02*
X76892076Y-84918942D01*
X76892076Y-84918942D02*
X76853980Y-84995133D01*
X76853980Y-84995133D02*
X76853980Y-85147514D01*
X76853980Y-85147514D02*
X76892076Y-85223704D01*
X76892076Y-85223704D02*
X76930171Y-85261800D01*
X76930171Y-85261800D02*
X77006361Y-85299895D01*
X77006361Y-85299895D02*
X77158742Y-85299895D01*
X77158742Y-85299895D02*
X77234933Y-85261800D01*
X77234933Y-85261800D02*
X77273028Y-85223704D01*
X77273028Y-85223704D02*
X77311123Y-85147514D01*
X77311123Y-85147514D02*
X77311123Y-84995133D01*
X77311123Y-84995133D02*
X77273028Y-84918942D01*
X77273028Y-84918942D02*
X77234933Y-84880847D01*
X77234933Y-84880847D02*
X77158742Y-84842752D01*
X131895924Y-61931895D02*
X131895924Y-61131895D01*
X131895924Y-61131895D02*
X132086400Y-61131895D01*
X132086400Y-61131895D02*
X132200686Y-61169990D01*
X132200686Y-61169990D02*
X132276876Y-61246180D01*
X132276876Y-61246180D02*
X132314971Y-61322371D01*
X132314971Y-61322371D02*
X132353067Y-61474752D01*
X132353067Y-61474752D02*
X132353067Y-61589038D01*
X132353067Y-61589038D02*
X132314971Y-61741419D01*
X132314971Y-61741419D02*
X132276876Y-61817609D01*
X132276876Y-61817609D02*
X132200686Y-61893800D01*
X132200686Y-61893800D02*
X132086400Y-61931895D01*
X132086400Y-61931895D02*
X131895924Y-61931895D01*
X133114971Y-61931895D02*
X132657828Y-61931895D01*
X132886400Y-61931895D02*
X132886400Y-61131895D01*
X132886400Y-61131895D02*
X132810209Y-61246180D01*
X132810209Y-61246180D02*
X132734019Y-61322371D01*
X132734019Y-61322371D02*
X132657828Y-61360466D01*
X83378295Y-74353975D02*
X82578295Y-74353975D01*
X82578295Y-74353975D02*
X82578295Y-74163499D01*
X82578295Y-74163499D02*
X82616390Y-74049213D01*
X82616390Y-74049213D02*
X82692580Y-73973023D01*
X82692580Y-73973023D02*
X82768771Y-73934928D01*
X82768771Y-73934928D02*
X82921152Y-73896832D01*
X82921152Y-73896832D02*
X83035438Y-73896832D01*
X83035438Y-73896832D02*
X83187819Y-73934928D01*
X83187819Y-73934928D02*
X83264009Y-73973023D01*
X83264009Y-73973023D02*
X83340200Y-74049213D01*
X83340200Y-74049213D02*
X83378295Y-74163499D01*
X83378295Y-74163499D02*
X83378295Y-74353975D01*
X82578295Y-73630166D02*
X82578295Y-73134928D01*
X82578295Y-73134928D02*
X82883057Y-73401594D01*
X82883057Y-73401594D02*
X82883057Y-73287309D01*
X82883057Y-73287309D02*
X82921152Y-73211118D01*
X82921152Y-73211118D02*
X82959247Y-73173023D01*
X82959247Y-73173023D02*
X83035438Y-73134928D01*
X83035438Y-73134928D02*
X83225914Y-73134928D01*
X83225914Y-73134928D02*
X83302104Y-73173023D01*
X83302104Y-73173023D02*
X83340200Y-73211118D01*
X83340200Y-73211118D02*
X83378295Y-73287309D01*
X83378295Y-73287309D02*
X83378295Y-73515880D01*
X83378295Y-73515880D02*
X83340200Y-73592071D01*
X83340200Y-73592071D02*
X83302104Y-73630166D01*
X125729467Y-66036104D02*
X125691371Y-66074200D01*
X125691371Y-66074200D02*
X125577086Y-66112295D01*
X125577086Y-66112295D02*
X125500895Y-66112295D01*
X125500895Y-66112295D02*
X125386609Y-66074200D01*
X125386609Y-66074200D02*
X125310419Y-65998009D01*
X125310419Y-65998009D02*
X125272324Y-65921819D01*
X125272324Y-65921819D02*
X125234228Y-65769438D01*
X125234228Y-65769438D02*
X125234228Y-65655152D01*
X125234228Y-65655152D02*
X125272324Y-65502771D01*
X125272324Y-65502771D02*
X125310419Y-65426580D01*
X125310419Y-65426580D02*
X125386609Y-65350390D01*
X125386609Y-65350390D02*
X125500895Y-65312295D01*
X125500895Y-65312295D02*
X125577086Y-65312295D01*
X125577086Y-65312295D02*
X125691371Y-65350390D01*
X125691371Y-65350390D02*
X125729467Y-65388485D01*
X125996133Y-65312295D02*
X126491371Y-65312295D01*
X126491371Y-65312295D02*
X126224705Y-65617057D01*
X126224705Y-65617057D02*
X126338990Y-65617057D01*
X126338990Y-65617057D02*
X126415181Y-65655152D01*
X126415181Y-65655152D02*
X126453276Y-65693247D01*
X126453276Y-65693247D02*
X126491371Y-65769438D01*
X126491371Y-65769438D02*
X126491371Y-65959914D01*
X126491371Y-65959914D02*
X126453276Y-66036104D01*
X126453276Y-66036104D02*
X126415181Y-66074200D01*
X126415181Y-66074200D02*
X126338990Y-66112295D01*
X126338990Y-66112295D02*
X126110419Y-66112295D01*
X126110419Y-66112295D02*
X126034228Y-66074200D01*
X126034228Y-66074200D02*
X125996133Y-66036104D01*
X122248514Y-77030704D02*
X122210418Y-77068800D01*
X122210418Y-77068800D02*
X122096133Y-77106895D01*
X122096133Y-77106895D02*
X122019942Y-77106895D01*
X122019942Y-77106895D02*
X121905656Y-77068800D01*
X121905656Y-77068800D02*
X121829466Y-76992609D01*
X121829466Y-76992609D02*
X121791371Y-76916419D01*
X121791371Y-76916419D02*
X121753275Y-76764038D01*
X121753275Y-76764038D02*
X121753275Y-76649752D01*
X121753275Y-76649752D02*
X121791371Y-76497371D01*
X121791371Y-76497371D02*
X121829466Y-76421180D01*
X121829466Y-76421180D02*
X121905656Y-76344990D01*
X121905656Y-76344990D02*
X122019942Y-76306895D01*
X122019942Y-76306895D02*
X122096133Y-76306895D01*
X122096133Y-76306895D02*
X122210418Y-76344990D01*
X122210418Y-76344990D02*
X122248514Y-76383085D01*
X122553275Y-76383085D02*
X122591371Y-76344990D01*
X122591371Y-76344990D02*
X122667561Y-76306895D01*
X122667561Y-76306895D02*
X122858037Y-76306895D01*
X122858037Y-76306895D02*
X122934228Y-76344990D01*
X122934228Y-76344990D02*
X122972323Y-76383085D01*
X122972323Y-76383085D02*
X123010418Y-76459276D01*
X123010418Y-76459276D02*
X123010418Y-76535466D01*
X123010418Y-76535466D02*
X122972323Y-76649752D01*
X122972323Y-76649752D02*
X122515180Y-77106895D01*
X122515180Y-77106895D02*
X123010418Y-77106895D01*
X123696133Y-76573561D02*
X123696133Y-77106895D01*
X123505657Y-76268800D02*
X123315180Y-76840228D01*
X123315180Y-76840228D02*
X123810419Y-76840228D01*
X138002333Y-80963295D02*
X138002333Y-81534723D01*
X138002333Y-81534723D02*
X137964238Y-81649009D01*
X137964238Y-81649009D02*
X137888047Y-81725200D01*
X137888047Y-81725200D02*
X137773762Y-81763295D01*
X137773762Y-81763295D02*
X137697571Y-81763295D01*
X138383286Y-81763295D02*
X138383286Y-80963295D01*
X138383286Y-80963295D02*
X138688048Y-80963295D01*
X138688048Y-80963295D02*
X138764238Y-81001390D01*
X138764238Y-81001390D02*
X138802333Y-81039485D01*
X138802333Y-81039485D02*
X138840429Y-81115676D01*
X138840429Y-81115676D02*
X138840429Y-81229961D01*
X138840429Y-81229961D02*
X138802333Y-81306152D01*
X138802333Y-81306152D02*
X138764238Y-81344247D01*
X138764238Y-81344247D02*
X138688048Y-81382342D01*
X138688048Y-81382342D02*
X138383286Y-81382342D01*
X139602333Y-81763295D02*
X139145190Y-81763295D01*
X139373762Y-81763295D02*
X139373762Y-80963295D01*
X139373762Y-80963295D02*
X139297571Y-81077580D01*
X139297571Y-81077580D02*
X139221381Y-81153771D01*
X139221381Y-81153771D02*
X139145190Y-81191866D01*
X151619304Y-80369332D02*
X151657400Y-80407428D01*
X151657400Y-80407428D02*
X151695495Y-80521713D01*
X151695495Y-80521713D02*
X151695495Y-80597904D01*
X151695495Y-80597904D02*
X151657400Y-80712190D01*
X151657400Y-80712190D02*
X151581209Y-80788380D01*
X151581209Y-80788380D02*
X151505019Y-80826475D01*
X151505019Y-80826475D02*
X151352638Y-80864571D01*
X151352638Y-80864571D02*
X151238352Y-80864571D01*
X151238352Y-80864571D02*
X151085971Y-80826475D01*
X151085971Y-80826475D02*
X151009780Y-80788380D01*
X151009780Y-80788380D02*
X150933590Y-80712190D01*
X150933590Y-80712190D02*
X150895495Y-80597904D01*
X150895495Y-80597904D02*
X150895495Y-80521713D01*
X150895495Y-80521713D02*
X150933590Y-80407428D01*
X150933590Y-80407428D02*
X150971685Y-80369332D01*
X150971685Y-80064571D02*
X150933590Y-80026475D01*
X150933590Y-80026475D02*
X150895495Y-79950285D01*
X150895495Y-79950285D02*
X150895495Y-79759809D01*
X150895495Y-79759809D02*
X150933590Y-79683618D01*
X150933590Y-79683618D02*
X150971685Y-79645523D01*
X150971685Y-79645523D02*
X151047876Y-79607428D01*
X151047876Y-79607428D02*
X151124066Y-79607428D01*
X151124066Y-79607428D02*
X151238352Y-79645523D01*
X151238352Y-79645523D02*
X151695495Y-80102666D01*
X151695495Y-80102666D02*
X151695495Y-79607428D01*
X90499895Y-68193332D02*
X90118942Y-68459999D01*
X90499895Y-68650475D02*
X89699895Y-68650475D01*
X89699895Y-68650475D02*
X89699895Y-68345713D01*
X89699895Y-68345713D02*
X89737990Y-68269523D01*
X89737990Y-68269523D02*
X89776085Y-68231428D01*
X89776085Y-68231428D02*
X89852276Y-68193332D01*
X89852276Y-68193332D02*
X89966561Y-68193332D01*
X89966561Y-68193332D02*
X90042752Y-68231428D01*
X90042752Y-68231428D02*
X90080847Y-68269523D01*
X90080847Y-68269523D02*
X90118942Y-68345713D01*
X90118942Y-68345713D02*
X90118942Y-68650475D01*
X89699895Y-67469523D02*
X89699895Y-67850475D01*
X89699895Y-67850475D02*
X90080847Y-67888571D01*
X90080847Y-67888571D02*
X90042752Y-67850475D01*
X90042752Y-67850475D02*
X90004657Y-67774285D01*
X90004657Y-67774285D02*
X90004657Y-67583809D01*
X90004657Y-67583809D02*
X90042752Y-67507618D01*
X90042752Y-67507618D02*
X90080847Y-67469523D01*
X90080847Y-67469523D02*
X90157038Y-67431428D01*
X90157038Y-67431428D02*
X90347514Y-67431428D01*
X90347514Y-67431428D02*
X90423704Y-67469523D01*
X90423704Y-67469523D02*
X90461800Y-67507618D01*
X90461800Y-67507618D02*
X90499895Y-67583809D01*
X90499895Y-67583809D02*
X90499895Y-67774285D01*
X90499895Y-67774285D02*
X90461800Y-67850475D01*
X90461800Y-67850475D02*
X90423704Y-67888571D01*
X112048904Y-66414285D02*
X112087000Y-66452381D01*
X112087000Y-66452381D02*
X112125095Y-66566666D01*
X112125095Y-66566666D02*
X112125095Y-66642857D01*
X112125095Y-66642857D02*
X112087000Y-66757143D01*
X112087000Y-66757143D02*
X112010809Y-66833333D01*
X112010809Y-66833333D02*
X111934619Y-66871428D01*
X111934619Y-66871428D02*
X111782238Y-66909524D01*
X111782238Y-66909524D02*
X111667952Y-66909524D01*
X111667952Y-66909524D02*
X111515571Y-66871428D01*
X111515571Y-66871428D02*
X111439380Y-66833333D01*
X111439380Y-66833333D02*
X111363190Y-66757143D01*
X111363190Y-66757143D02*
X111325095Y-66642857D01*
X111325095Y-66642857D02*
X111325095Y-66566666D01*
X111325095Y-66566666D02*
X111363190Y-66452381D01*
X111363190Y-66452381D02*
X111401285Y-66414285D01*
X112125095Y-65652381D02*
X112125095Y-66109524D01*
X112125095Y-65880952D02*
X111325095Y-65880952D01*
X111325095Y-65880952D02*
X111439380Y-65957143D01*
X111439380Y-65957143D02*
X111515571Y-66033333D01*
X111515571Y-66033333D02*
X111553666Y-66109524D01*
X112125095Y-64890476D02*
X112125095Y-65347619D01*
X112125095Y-65119047D02*
X111325095Y-65119047D01*
X111325095Y-65119047D02*
X111439380Y-65195238D01*
X111439380Y-65195238D02*
X111515571Y-65271428D01*
X111515571Y-65271428D02*
X111553666Y-65347619D01*
X128898667Y-66021304D02*
X128860571Y-66059400D01*
X128860571Y-66059400D02*
X128746286Y-66097495D01*
X128746286Y-66097495D02*
X128670095Y-66097495D01*
X128670095Y-66097495D02*
X128555809Y-66059400D01*
X128555809Y-66059400D02*
X128479619Y-65983209D01*
X128479619Y-65983209D02*
X128441524Y-65907019D01*
X128441524Y-65907019D02*
X128403428Y-65754638D01*
X128403428Y-65754638D02*
X128403428Y-65640352D01*
X128403428Y-65640352D02*
X128441524Y-65487971D01*
X128441524Y-65487971D02*
X128479619Y-65411780D01*
X128479619Y-65411780D02*
X128555809Y-65335590D01*
X128555809Y-65335590D02*
X128670095Y-65297495D01*
X128670095Y-65297495D02*
X128746286Y-65297495D01*
X128746286Y-65297495D02*
X128860571Y-65335590D01*
X128860571Y-65335590D02*
X128898667Y-65373685D01*
X129660571Y-66097495D02*
X129203428Y-66097495D01*
X129432000Y-66097495D02*
X129432000Y-65297495D01*
X129432000Y-65297495D02*
X129355809Y-65411780D01*
X129355809Y-65411780D02*
X129279619Y-65487971D01*
X129279619Y-65487971D02*
X129203428Y-65526066D01*
X119126076Y-88462295D02*
X119126076Y-89109914D01*
X119126076Y-89109914D02*
X119164171Y-89186104D01*
X119164171Y-89186104D02*
X119202266Y-89224200D01*
X119202266Y-89224200D02*
X119278457Y-89262295D01*
X119278457Y-89262295D02*
X119430838Y-89262295D01*
X119430838Y-89262295D02*
X119507028Y-89224200D01*
X119507028Y-89224200D02*
X119545123Y-89186104D01*
X119545123Y-89186104D02*
X119583219Y-89109914D01*
X119583219Y-89109914D02*
X119583219Y-88462295D01*
X120307028Y-88462295D02*
X120154647Y-88462295D01*
X120154647Y-88462295D02*
X120078456Y-88500390D01*
X120078456Y-88500390D02*
X120040361Y-88538485D01*
X120040361Y-88538485D02*
X119964171Y-88652771D01*
X119964171Y-88652771D02*
X119926075Y-88805152D01*
X119926075Y-88805152D02*
X119926075Y-89109914D01*
X119926075Y-89109914D02*
X119964171Y-89186104D01*
X119964171Y-89186104D02*
X120002266Y-89224200D01*
X120002266Y-89224200D02*
X120078456Y-89262295D01*
X120078456Y-89262295D02*
X120230837Y-89262295D01*
X120230837Y-89262295D02*
X120307028Y-89224200D01*
X120307028Y-89224200D02*
X120345123Y-89186104D01*
X120345123Y-89186104D02*
X120383218Y-89109914D01*
X120383218Y-89109914D02*
X120383218Y-88919438D01*
X120383218Y-88919438D02*
X120345123Y-88843247D01*
X120345123Y-88843247D02*
X120307028Y-88805152D01*
X120307028Y-88805152D02*
X120230837Y-88767057D01*
X120230837Y-88767057D02*
X120078456Y-88767057D01*
X120078456Y-88767057D02*
X120002266Y-88805152D01*
X120002266Y-88805152D02*
X119964171Y-88843247D01*
X119964171Y-88843247D02*
X119926075Y-88919438D01*
X155244876Y-83862295D02*
X155244876Y-84509914D01*
X155244876Y-84509914D02*
X155282971Y-84586104D01*
X155282971Y-84586104D02*
X155321066Y-84624200D01*
X155321066Y-84624200D02*
X155397257Y-84662295D01*
X155397257Y-84662295D02*
X155549638Y-84662295D01*
X155549638Y-84662295D02*
X155625828Y-84624200D01*
X155625828Y-84624200D02*
X155663923Y-84586104D01*
X155663923Y-84586104D02*
X155702019Y-84509914D01*
X155702019Y-84509914D02*
X155702019Y-83862295D01*
X156502018Y-84662295D02*
X156044875Y-84662295D01*
X156273447Y-84662295D02*
X156273447Y-83862295D01*
X156273447Y-83862295D02*
X156197256Y-83976580D01*
X156197256Y-83976580D02*
X156121066Y-84052771D01*
X156121066Y-84052771D02*
X156044875Y-84090866D01*
X125306314Y-77072704D02*
X125268218Y-77110800D01*
X125268218Y-77110800D02*
X125153933Y-77148895D01*
X125153933Y-77148895D02*
X125077742Y-77148895D01*
X125077742Y-77148895D02*
X124963456Y-77110800D01*
X124963456Y-77110800D02*
X124887266Y-77034609D01*
X124887266Y-77034609D02*
X124849171Y-76958419D01*
X124849171Y-76958419D02*
X124811075Y-76806038D01*
X124811075Y-76806038D02*
X124811075Y-76691752D01*
X124811075Y-76691752D02*
X124849171Y-76539371D01*
X124849171Y-76539371D02*
X124887266Y-76463180D01*
X124887266Y-76463180D02*
X124963456Y-76386990D01*
X124963456Y-76386990D02*
X125077742Y-76348895D01*
X125077742Y-76348895D02*
X125153933Y-76348895D01*
X125153933Y-76348895D02*
X125268218Y-76386990D01*
X125268218Y-76386990D02*
X125306314Y-76425085D01*
X125611075Y-76425085D02*
X125649171Y-76386990D01*
X125649171Y-76386990D02*
X125725361Y-76348895D01*
X125725361Y-76348895D02*
X125915837Y-76348895D01*
X125915837Y-76348895D02*
X125992028Y-76386990D01*
X125992028Y-76386990D02*
X126030123Y-76425085D01*
X126030123Y-76425085D02*
X126068218Y-76501276D01*
X126068218Y-76501276D02*
X126068218Y-76577466D01*
X126068218Y-76577466D02*
X126030123Y-76691752D01*
X126030123Y-76691752D02*
X125572980Y-77148895D01*
X125572980Y-77148895D02*
X126068218Y-77148895D01*
X126792028Y-76348895D02*
X126411076Y-76348895D01*
X126411076Y-76348895D02*
X126372980Y-76729847D01*
X126372980Y-76729847D02*
X126411076Y-76691752D01*
X126411076Y-76691752D02*
X126487266Y-76653657D01*
X126487266Y-76653657D02*
X126677742Y-76653657D01*
X126677742Y-76653657D02*
X126753933Y-76691752D01*
X126753933Y-76691752D02*
X126792028Y-76729847D01*
X126792028Y-76729847D02*
X126830123Y-76806038D01*
X126830123Y-76806038D02*
X126830123Y-76996514D01*
X126830123Y-76996514D02*
X126792028Y-77072704D01*
X126792028Y-77072704D02*
X126753933Y-77110800D01*
X126753933Y-77110800D02*
X126677742Y-77148895D01*
X126677742Y-77148895D02*
X126487266Y-77148895D01*
X126487266Y-77148895D02*
X126411076Y-77110800D01*
X126411076Y-77110800D02*
X126372980Y-77072704D01*
D11*
X105671000Y-76899000D02*
X105671000Y-84899000D01*
X105671000Y-76899000D02*
X116071000Y-76899000D01*
X105671000Y-84899000D02*
X116071000Y-84899000D01*
X116071000Y-76899000D02*
X116071000Y-84899000D01*
D12*
X70100564Y-69950000D02*
X69646436Y-69950000D01*
X70100564Y-68480000D02*
X69646436Y-68480000D01*
X142188748Y-78709000D02*
X143611252Y-78709000D01*
X142188748Y-80529000D02*
X143611252Y-80529000D01*
X153213936Y-79265000D02*
X153668064Y-79265000D01*
X153213936Y-80735000D02*
X153668064Y-80735000D01*
X100097000Y-83235748D02*
X100097000Y-84658252D01*
X98277000Y-83235748D02*
X98277000Y-84658252D01*
X99845800Y-70272748D02*
X99845800Y-70795252D01*
X98375800Y-70272748D02*
X98375800Y-70795252D01*
X145731000Y-84811000D02*
X148451000Y-84811000D01*
X145731000Y-84811000D02*
X145731000Y-79751000D01*
X148451000Y-84811000D02*
X148451000Y-79751000D01*
X91383800Y-74141064D02*
X91383800Y-73686936D01*
X92853800Y-74141064D02*
X92853800Y-73686936D01*
X118140000Y-74613252D02*
X118140000Y-73190748D01*
X120860000Y-74613252D02*
X120860000Y-73190748D01*
X132715364Y-73531400D02*
X132261236Y-73531400D01*
X132715364Y-72061400D02*
X132261236Y-72061400D01*
X64566500Y-70204064D02*
X64566500Y-69749936D01*
X66036500Y-70204064D02*
X66036500Y-69749936D01*
X132261236Y-74195000D02*
X132715364Y-74195000D01*
X132261236Y-75665000D02*
X132715364Y-75665000D01*
X104487000Y-76827748D02*
X104487000Y-77350252D01*
X103017000Y-76827748D02*
X103017000Y-77350252D01*
X124085800Y-67651748D02*
X124085800Y-69074252D01*
X121365800Y-67651748D02*
X121365800Y-69074252D01*
X83896500Y-84067748D02*
X83896500Y-84590252D01*
X82426500Y-84067748D02*
X82426500Y-84590252D01*
X97572000Y-86341000D02*
X91562000Y-86341000D01*
X95322000Y-79521000D02*
X91562000Y-79521000D01*
X91562000Y-86341000D02*
X91562000Y-85081000D01*
X91562000Y-79521000D02*
X91562000Y-80781000D01*
X112770600Y-73711252D02*
X112770600Y-73188748D01*
X114240600Y-73711252D02*
X114240600Y-73188748D01*
X155340000Y-74240000D02*
X153600000Y-74240000D01*
X155340000Y-72500000D02*
X155340000Y-74240000D01*
X155100000Y-74000000D02*
X152300000Y-74000000D01*
X155100000Y-59400000D02*
X155100000Y-74000000D01*
X148700000Y-74000000D02*
X145900000Y-74000000D01*
X145900000Y-74000000D02*
X145900000Y-72000000D01*
X145900000Y-68400000D02*
X145900000Y-59400000D01*
X145900000Y-59400000D02*
X155100000Y-59400000D01*
X65317000Y-82142064D02*
X65317000Y-81687936D01*
X66787000Y-82142064D02*
X66787000Y-81687936D01*
X66471500Y-70204064D02*
X66471500Y-69749936D01*
X67941500Y-70204064D02*
X67941500Y-69749936D01*
X62383936Y-68480000D02*
X62838064Y-68480000D01*
X62383936Y-69950000D02*
X62838064Y-69950000D01*
X58980000Y-74549000D02*
X58980000Y-87249000D01*
X58980000Y-74549000D02*
X63980000Y-74549000D01*
X58980000Y-79699000D02*
X59780000Y-79699000D01*
X58980000Y-82099000D02*
X59780000Y-82099000D01*
X58980000Y-87249000D02*
X63980000Y-87249000D01*
X59780000Y-75349000D02*
X59780000Y-79699000D01*
X59780000Y-75349000D02*
X63180000Y-75349000D01*
X59780000Y-82099000D02*
X59780000Y-86449000D01*
X59780000Y-86449000D02*
X63180000Y-86449000D01*
X63180000Y-75349000D02*
X63180000Y-86449000D01*
X63980000Y-74549000D02*
X63980000Y-87249000D01*
X153321252Y-86196000D02*
X152798748Y-86196000D01*
X153321252Y-84726000D02*
X152798748Y-84726000D01*
X93415800Y-74141064D02*
X93415800Y-73686936D01*
X94885800Y-74141064D02*
X94885800Y-73686936D01*
X85317000Y-79494748D02*
X85317000Y-80017252D01*
X83847000Y-79494748D02*
X83847000Y-80017252D01*
X72647500Y-74176252D02*
X72647500Y-73653748D01*
X74117500Y-74176252D02*
X74117500Y-73653748D01*
X85571000Y-69345436D02*
X85571000Y-69799564D01*
X84101000Y-69345436D02*
X84101000Y-69799564D01*
X86114000Y-76048500D02*
X88384000Y-76048500D01*
X88384000Y-76048500D02*
X88384000Y-72163500D01*
X86114000Y-72163500D02*
X86114000Y-76048500D01*
G36*
X92746252Y-62671596D02*
G01*
X92746252Y-64537000D01*
X92499878Y-64537000D01*
X92253503Y-64537000D01*
X92253503Y-62671596D01*
X92253503Y-60806192D01*
X92499878Y-60806192D01*
X92746252Y-60806192D01*
X92746252Y-62671596D01*
G37*
G36*
X91851903Y-60902982D02*
G01*
X91848746Y-61164021D01*
X91370663Y-61167086D01*
X90892580Y-61170150D01*
X90892580Y-61686231D01*
X90892580Y-62202312D01*
X91268007Y-62202312D01*
X91643434Y-62202312D01*
X91643434Y-62466284D01*
X91643434Y-62730257D01*
X91268007Y-62730257D01*
X90892580Y-62730257D01*
X90892580Y-63633628D01*
X90892580Y-64537000D01*
X90652072Y-64537000D01*
X90411564Y-64537000D01*
X90411564Y-62589471D01*
X90411564Y-60641943D01*
X91133312Y-60641943D01*
X91855061Y-60641943D01*
X91851903Y-60902982D01*
G37*
G36*
X94015415Y-61617949D02*
G01*
X94083500Y-61620211D01*
X94133078Y-61624091D01*
X94148238Y-61626304D01*
X94252610Y-61656998D01*
X94348597Y-61708332D01*
X94434290Y-61778390D01*
X94507780Y-61865260D01*
X94567160Y-61967027D01*
X94610521Y-62081778D01*
X94613671Y-62093040D01*
X94619782Y-62116852D01*
X94624858Y-62140833D01*
X94629025Y-62167464D01*
X94632410Y-62199229D01*
X94635141Y-62238613D01*
X94637343Y-62288098D01*
X94639144Y-62350167D01*
X94640670Y-62427306D01*
X94642048Y-62521996D01*
X94643404Y-62636722D01*
X94643941Y-62686138D01*
X94649308Y-63187563D01*
X94128935Y-63190619D01*
X93608561Y-63193675D01*
X93608561Y-63522173D01*
X93608624Y-63618757D01*
X93608953Y-63694886D01*
X93609763Y-63753567D01*
X93611268Y-63797809D01*
X93613680Y-63830622D01*
X93617212Y-63855013D01*
X93622080Y-63873991D01*
X93628495Y-63890565D01*
X93635791Y-63905957D01*
X93664326Y-63951879D01*
X93700025Y-63983750D01*
X93747486Y-64004062D01*
X93811310Y-64015309D01*
X93842218Y-64017812D01*
X93931365Y-64018747D01*
X94001808Y-64008771D01*
X94055914Y-63987301D01*
X94094565Y-63955469D01*
X94118942Y-63922501D01*
X94135967Y-63885171D01*
X94146751Y-63838730D01*
X94152404Y-63778427D01*
X94154038Y-63701088D01*
X94154104Y-63574968D01*
X94400478Y-63574968D01*
X94646852Y-63574968D01*
X94646457Y-63689356D01*
X94645037Y-63756434D01*
X94641618Y-63832868D01*
X94636863Y-63904700D01*
X94635444Y-63921396D01*
X94614249Y-64052443D01*
X94576045Y-64171078D01*
X94521880Y-64275824D01*
X94452801Y-64365200D01*
X94369855Y-64437729D01*
X94274090Y-64491929D01*
X94216221Y-64513427D01*
X94188254Y-64521310D01*
X94159817Y-64527206D01*
X94127048Y-64531373D01*
X94086085Y-64534071D01*
X94033066Y-64535557D01*
X93964128Y-64536091D01*
X93880097Y-64535951D01*
X93771965Y-64534710D01*
X93684621Y-64531967D01*
X93618857Y-64527764D01*
X93575469Y-64522139D01*
X93566464Y-64520053D01*
X93463110Y-64479608D01*
X93370125Y-64418855D01*
X93289378Y-64339354D01*
X93222737Y-64242666D01*
X93212972Y-64224683D01*
X93197772Y-64195951D01*
X93184487Y-64170492D01*
X93172988Y-64146596D01*
X93163146Y-64122551D01*
X93154833Y-64096648D01*
X93147921Y-64067175D01*
X93142280Y-64032422D01*
X93137783Y-63990678D01*
X93134300Y-63940233D01*
X93131704Y-63879376D01*
X93129865Y-63806397D01*
X93128654Y-63719584D01*
X93127945Y-63617227D01*
X93127607Y-63497616D01*
X93127512Y-63359040D01*
X93127532Y-63199788D01*
X93127545Y-63088086D01*
X93127619Y-62911979D01*
X93127857Y-62757873D01*
X93128282Y-62624304D01*
X93128599Y-62567223D01*
X93602934Y-62567223D01*
X93604114Y-62614127D01*
X93606601Y-62648012D01*
X93610456Y-62663712D01*
X93610517Y-62663775D01*
X93624008Y-62666010D01*
X93657553Y-62667996D01*
X93707744Y-62669637D01*
X93771171Y-62670836D01*
X93844425Y-62671497D01*
X93887230Y-62671596D01*
X94156123Y-62671596D01*
X94152125Y-62480949D01*
X94149380Y-62394913D01*
X94144544Y-62328658D01*
X94136603Y-62278526D01*
X94124545Y-62240859D01*
X94107356Y-62211999D01*
X94084025Y-62188289D01*
X94067600Y-62175684D01*
X94048978Y-62164254D01*
X94027616Y-62156416D01*
X93998444Y-62151314D01*
X93956391Y-62148093D01*
X93896388Y-62145897D01*
X93890132Y-62145726D01*
X93829663Y-62144418D01*
X93787497Y-62144783D01*
X93758494Y-62147489D01*
X93737512Y-62153201D01*
X93719412Y-62162587D01*
X93709363Y-62169190D01*
X93662686Y-62208799D01*
X93632794Y-62255417D01*
X93614851Y-62316651D01*
X93614539Y-62318301D01*
X93610084Y-62352781D01*
X93606636Y-62400081D01*
X93604255Y-62455033D01*
X93603001Y-62512469D01*
X93602934Y-62567223D01*
X93128599Y-62567223D01*
X93128918Y-62509807D01*
X93129790Y-62412919D01*
X93130921Y-62332176D01*
X93132335Y-62266115D01*
X93134055Y-62213272D01*
X93136106Y-62172183D01*
X93138511Y-62141385D01*
X93141294Y-62119414D01*
X93143492Y-62108455D01*
X93178744Y-62004466D01*
X93230447Y-61905276D01*
X93295154Y-61815916D01*
X93369421Y-61741416D01*
X93420848Y-61703558D01*
X93462169Y-61678543D01*
X93500117Y-61659275D01*
X93538784Y-61644921D01*
X93582262Y-61634645D01*
X93634645Y-61627612D01*
X93700025Y-61622989D01*
X93782497Y-61619939D01*
X93837337Y-61618614D01*
X93932227Y-61617389D01*
X94015415Y-61617949D01*
G37*
G36*
X99951535Y-61576226D02*
G01*
X99976189Y-61595978D01*
X100008264Y-61624148D01*
X100016553Y-61631747D01*
X100094221Y-61696860D01*
X100172739Y-61750366D01*
X100248782Y-61790620D01*
X100319023Y-61815974D01*
X100380138Y-61824783D01*
X100402999Y-61823040D01*
X100430475Y-61821240D01*
X100440419Y-61828543D01*
X100432503Y-61846412D01*
X100406404Y-61876311D01*
X100386783Y-61895888D01*
X100331055Y-61950072D01*
X100327406Y-62339905D01*
X100323756Y-62729738D01*
X100274677Y-62742954D01*
X100231087Y-62757323D01*
X100188211Y-62775326D01*
X100182793Y-62778007D01*
X100156020Y-62793774D01*
X100119767Y-62817897D01*
X100078485Y-62847059D01*
X100036622Y-62877944D01*
X99998627Y-62907235D01*
X99968950Y-62931617D01*
X99952040Y-62947773D01*
X99949762Y-62951700D01*
X99960184Y-62958427D01*
X99989024Y-62971632D01*
X100032646Y-62989784D01*
X100087411Y-63011356D01*
X100131439Y-63028050D01*
X100199484Y-63053205D01*
X100249533Y-63070801D01*
X100285458Y-63081783D01*
X100311133Y-63087094D01*
X100330431Y-63087679D01*
X100347224Y-63084482D01*
X100354162Y-63082338D01*
X100389262Y-63063610D01*
X100421221Y-63035571D01*
X100424596Y-63031510D01*
X100443363Y-63009803D01*
X100452133Y-63006406D01*
X100451608Y-63022567D01*
X100442491Y-63059529D01*
X100441805Y-63062009D01*
X100415298Y-63118036D01*
X100371513Y-63167659D01*
X100316630Y-63203954D01*
X100314035Y-63205146D01*
X100266529Y-63226568D01*
X100266529Y-63680989D01*
X100266529Y-64135410D01*
X100297482Y-64155692D01*
X100351990Y-64178898D01*
X100408859Y-64181046D01*
X100461054Y-64162570D01*
X100488335Y-64147937D01*
X100505873Y-64141269D01*
X100508501Y-64141528D01*
X100502134Y-64150940D01*
X100481850Y-64174756D01*
X100449947Y-64210422D01*
X100408720Y-64255380D01*
X100360469Y-64307076D01*
X100344096Y-64324439D01*
X100269919Y-64404865D01*
X100210230Y-64473783D01*
X100166084Y-64529918D01*
X100138541Y-64571993D01*
X100137687Y-64573576D01*
X100100058Y-64644175D01*
X100024689Y-64573220D01*
X99978078Y-64529438D01*
X99924885Y-64479624D01*
X99875722Y-64433714D01*
X99870349Y-64428708D01*
X99791379Y-64355153D01*
X99785513Y-63880087D01*
X99779647Y-63405022D01*
X99545005Y-63314660D01*
X99475349Y-63287958D01*
X99413091Y-63264325D01*
X99361551Y-63245003D01*
X99324053Y-63231234D01*
X99303919Y-63224259D01*
X99301564Y-63223651D01*
X99299618Y-63234817D01*
X99297822Y-63266933D01*
X99296224Y-63317484D01*
X99294872Y-63383958D01*
X99293814Y-63463839D01*
X99293100Y-63554614D01*
X99292778Y-63653768D01*
X99292764Y-63679208D01*
X99292764Y-64135410D01*
X99325028Y-64157118D01*
X99371525Y-64175684D01*
X99425511Y-64178260D01*
X99477563Y-64165120D01*
X99501009Y-64151975D01*
X99524635Y-64137191D01*
X99537954Y-64132871D01*
X99539045Y-64134377D01*
X99531307Y-64145370D01*
X99509711Y-64170729D01*
X99476598Y-64207842D01*
X99434310Y-64254101D01*
X99385189Y-64306895D01*
X99364984Y-64328377D01*
X99301640Y-64396986D01*
X99246388Y-64459738D01*
X99201589Y-64513813D01*
X99169605Y-64556388D01*
X99155970Y-64578090D01*
X99120925Y-64643402D01*
X98966209Y-64500502D01*
X98811494Y-64357601D01*
X98814554Y-63870191D01*
X98817614Y-63382780D01*
X98882141Y-63363509D01*
X98934319Y-63346070D01*
X98980798Y-63325546D01*
X99028502Y-63298256D01*
X99084352Y-63260520D01*
X99108435Y-63243197D01*
X99147430Y-63214517D01*
X99169836Y-63196184D01*
X99178085Y-63184804D01*
X99174610Y-63176982D01*
X99161840Y-63169324D01*
X99161490Y-63169140D01*
X99116786Y-63148225D01*
X99060618Y-63125579D01*
X98998841Y-63103164D01*
X98937307Y-63082939D01*
X98881872Y-63066867D01*
X98838389Y-63056906D01*
X98819610Y-63054646D01*
X98782556Y-63055562D01*
X98757778Y-63064199D01*
X98734313Y-63085039D01*
X98727851Y-63092139D01*
X98702000Y-63117826D01*
X98688113Y-63123348D01*
X98685888Y-63108540D01*
X98694710Y-63074207D01*
X98726958Y-63007162D01*
X98774748Y-62955948D01*
X98807437Y-62935225D01*
X98837463Y-62918330D01*
X98858056Y-62903844D01*
X98861430Y-62900372D01*
X98863487Y-62886225D01*
X98865379Y-62851434D01*
X98867045Y-62798816D01*
X98868423Y-62731193D01*
X98869452Y-62651382D01*
X98870072Y-62562203D01*
X98870229Y-62494687D01*
X98870409Y-62100734D01*
X98812086Y-62073417D01*
X98770718Y-62050517D01*
X98732234Y-62023556D01*
X98718169Y-62011300D01*
X98682575Y-61976500D01*
X98708242Y-61933956D01*
X98728248Y-61901981D01*
X98755966Y-61859282D01*
X98788846Y-61809607D01*
X98824343Y-61756708D01*
X98859907Y-61704334D01*
X98892992Y-61656235D01*
X98921050Y-61616160D01*
X98941532Y-61587861D01*
X98951892Y-61575086D01*
X98952233Y-61574830D01*
X98964893Y-61579227D01*
X98990811Y-61596041D01*
X99025576Y-61622248D01*
X99047507Y-61640104D01*
X99111832Y-61692570D01*
X99164222Y-61731875D01*
X99209598Y-61761183D01*
X99252880Y-61783657D01*
X99298989Y-61802460D01*
X99301509Y-61803380D01*
X99364201Y-61821308D01*
X99414735Y-61824457D01*
X99421763Y-61823687D01*
X99451011Y-61821542D01*
X99467443Y-61823786D01*
X99468746Y-61825509D01*
X99460978Y-61837187D01*
X99440558Y-61860207D01*
X99411806Y-61889713D01*
X99410085Y-61891411D01*
X99351425Y-61949190D01*
X99351425Y-62337814D01*
X99351425Y-62726438D01*
X99577268Y-62815664D01*
X99646418Y-62842969D01*
X99709033Y-62867666D01*
X99761501Y-62888332D01*
X99800212Y-62903545D01*
X99821553Y-62911883D01*
X99823642Y-62912685D01*
X99829090Y-62913586D01*
X99833481Y-62910236D01*
X99836930Y-62900411D01*
X99839548Y-62881886D01*
X99841449Y-62852433D01*
X99842747Y-62809829D01*
X99843555Y-62751846D01*
X99843986Y-62676261D01*
X99844153Y-62580846D01*
X99844173Y-62509151D01*
X99844173Y-62097821D01*
X99794312Y-62075663D01*
X99755112Y-62054927D01*
X99717682Y-62029626D01*
X99687562Y-62004150D01*
X99670294Y-61982889D01*
X99668192Y-61975765D01*
X99674388Y-61961980D01*
X99691395Y-61932862D01*
X99716841Y-61891974D01*
X99748351Y-61842882D01*
X99783554Y-61789151D01*
X99820076Y-61734345D01*
X99855544Y-61682031D01*
X99887586Y-61635772D01*
X99913829Y-61599134D01*
X99931899Y-61575683D01*
X99939085Y-61568779D01*
X99951535Y-61576226D01*
G37*
G36*
X101475792Y-61572888D02*
G01*
X101506489Y-61584066D01*
X101549716Y-61600586D01*
X101598845Y-61619918D01*
X101688485Y-61655288D01*
X101781104Y-61691202D01*
X101873775Y-61726582D01*
X101963567Y-61760348D01*
X102047552Y-61791421D01*
X102122801Y-61818722D01*
X102186386Y-61841172D01*
X102235378Y-61857692D01*
X102266848Y-61867203D01*
X102274773Y-61868948D01*
X102324542Y-61865697D01*
X102368138Y-61840208D01*
X102398486Y-61804448D01*
X102415956Y-61782892D01*
X102424631Y-61782743D01*
X102424392Y-61803606D01*
X102415123Y-61845087D01*
X102412987Y-61852918D01*
X102384271Y-61913530D01*
X102335729Y-61963451D01*
X102290043Y-61991267D01*
X102237522Y-62016692D01*
X102237587Y-62094837D01*
X102242095Y-62173195D01*
X102255817Y-62231587D01*
X102279272Y-62271837D01*
X102291136Y-62282985D01*
X102320477Y-62306065D01*
X102257706Y-62319096D01*
X102198563Y-62334678D01*
X102142282Y-62357179D01*
X102086562Y-62388437D01*
X102029100Y-62430290D01*
X101967597Y-62484576D01*
X101899750Y-62553133D01*
X101823259Y-62637797D01*
X101747237Y-62726768D01*
X101663658Y-62822654D01*
X101588705Y-62900032D01*
X101519774Y-62960995D01*
X101454258Y-63007635D01*
X101389552Y-63042045D01*
X101325351Y-63065643D01*
X101263757Y-63083885D01*
X101263757Y-63546057D01*
X101263803Y-63662462D01*
X101264008Y-63757612D01*
X101264476Y-63833719D01*
X101265311Y-63892991D01*
X101266615Y-63937639D01*
X101268493Y-63969873D01*
X101271047Y-63991902D01*
X101274381Y-64005937D01*
X101278598Y-64014188D01*
X101283801Y-64018865D01*
X101285924Y-64020093D01*
X101311053Y-64031710D01*
X101351561Y-64048354D01*
X101403490Y-64068592D01*
X101462879Y-64090992D01*
X101525768Y-64114120D01*
X101588197Y-64136545D01*
X101646206Y-64156835D01*
X101695836Y-64173556D01*
X101733127Y-64185276D01*
X101754119Y-64190564D01*
X101757098Y-64190537D01*
X101762260Y-64176016D01*
X101765606Y-64143660D01*
X101767130Y-64099027D01*
X101766829Y-64047678D01*
X101764697Y-63995170D01*
X101760730Y-63947064D01*
X101757328Y-63921768D01*
X101742412Y-63870663D01*
X101717727Y-63837928D01*
X101687636Y-63812046D01*
X101742602Y-63803992D01*
X101816390Y-63787172D01*
X101882451Y-63758052D01*
X101944941Y-63713901D01*
X102008018Y-63651985D01*
X102050991Y-63601306D01*
X102109701Y-63529913D01*
X102158171Y-63475272D01*
X102199298Y-63434691D01*
X102235976Y-63405478D01*
X102271103Y-63384944D01*
X102294491Y-63374968D01*
X102330443Y-63363484D01*
X102356407Y-63358714D01*
X102368890Y-63360530D01*
X102364402Y-63368806D01*
X102351675Y-63377062D01*
X102308658Y-63412998D01*
X102275237Y-63464114D01*
X102260919Y-63503442D01*
X102256679Y-63530727D01*
X102252374Y-63577298D01*
X102248264Y-63638980D01*
X102244609Y-63711598D01*
X102241669Y-63790976D01*
X102240596Y-63829917D01*
X102238273Y-63917936D01*
X102235977Y-63985241D01*
X102233458Y-64034581D01*
X102230462Y-64068702D01*
X102226740Y-64090355D01*
X102222041Y-64102287D01*
X102216111Y-64107246D01*
X102215206Y-64107530D01*
X102193663Y-64112754D01*
X102158410Y-64120746D01*
X102131933Y-64126553D01*
X102022251Y-64161527D01*
X101915957Y-64216768D01*
X101817346Y-64289098D01*
X101730715Y-64375338D01*
X101660359Y-64472308D01*
X101656967Y-64478025D01*
X101630802Y-64524035D01*
X101608007Y-64566597D01*
X101592262Y-64598751D01*
X101588838Y-64606934D01*
X101576294Y-64631098D01*
X101564042Y-64641521D01*
X101563287Y-64641521D01*
X101548582Y-64636969D01*
X101516350Y-64625176D01*
X101470799Y-64607739D01*
X101416139Y-64586252D01*
X101392811Y-64576937D01*
X101312512Y-64545090D01*
X101227368Y-64511946D01*
X101140621Y-64478705D01*
X101055511Y-64446572D01*
X100975277Y-64416747D01*
X100903162Y-64390433D01*
X100842404Y-64368833D01*
X100796245Y-64353148D01*
X100767925Y-64344581D01*
X100764248Y-64343739D01*
X100711591Y-64344729D01*
X100661927Y-64367802D01*
X100627968Y-64399598D01*
X100596383Y-64437277D01*
X100607157Y-64390349D01*
X100614017Y-64358704D01*
X100617907Y-64337355D01*
X100618212Y-64334359D01*
X100627219Y-64316335D01*
X100649567Y-64290283D01*
X100679375Y-64261634D01*
X100710763Y-64235818D01*
X100737849Y-64218265D01*
X100748341Y-64214193D01*
X100782741Y-64206637D01*
X100782741Y-63684368D01*
X100782732Y-63554628D01*
X100782525Y-63446244D01*
X100781852Y-63357105D01*
X100780441Y-63285102D01*
X100778026Y-63228128D01*
X100774335Y-63184071D01*
X100769099Y-63150824D01*
X100762051Y-63126276D01*
X100752919Y-63108320D01*
X100741435Y-63094845D01*
X100727329Y-63083743D01*
X100710332Y-63072904D01*
X100704178Y-63069109D01*
X100666678Y-63045887D01*
X100724709Y-62989951D01*
X100782741Y-62934016D01*
X100782741Y-62521459D01*
X100782741Y-62506091D01*
X101263757Y-62506091D01*
X101263918Y-62612473D01*
X101264376Y-62711247D01*
X101265099Y-62800023D01*
X101266053Y-62876407D01*
X101267203Y-62938009D01*
X101268516Y-62982434D01*
X101269957Y-63007291D01*
X101270914Y-63011827D01*
X101284218Y-63006704D01*
X101311894Y-62993330D01*
X101344726Y-62976301D01*
X101436573Y-62917495D01*
X101523762Y-62843133D01*
X101602364Y-62757800D01*
X101668447Y-62666087D01*
X101718080Y-62572581D01*
X101738654Y-62516444D01*
X101748669Y-62472863D01*
X101757174Y-62417756D01*
X101763559Y-62358112D01*
X101767214Y-62300924D01*
X101767530Y-62253183D01*
X101764227Y-62223123D01*
X101752247Y-62201650D01*
X101725197Y-62182921D01*
X101695117Y-62169606D01*
X101661945Y-62156559D01*
X101612652Y-62137223D01*
X101552974Y-62113848D01*
X101488647Y-62088680D01*
X101463203Y-62078733D01*
X101403585Y-62055419D01*
X101351144Y-62034887D01*
X101310026Y-62018763D01*
X101284380Y-62008671D01*
X101278423Y-62006301D01*
X101274750Y-62009301D01*
X101271705Y-62022680D01*
X101269237Y-62048140D01*
X101267298Y-62087382D01*
X101265836Y-62142106D01*
X101264802Y-62214014D01*
X101264146Y-62304808D01*
X101263818Y-62416187D01*
X101263757Y-62506091D01*
X100782741Y-62506091D01*
X100782741Y-62108902D01*
X100815005Y-62101771D01*
X100923480Y-62074595D01*
X101013569Y-62044067D01*
X101090337Y-62007541D01*
X101158852Y-61962368D01*
X101224180Y-61905903D01*
X101260746Y-61868907D01*
X101322644Y-61797915D01*
X101370722Y-61728951D01*
X101402855Y-61670728D01*
X101425456Y-61627232D01*
X101444766Y-61592982D01*
X101458135Y-61572532D01*
X101462238Y-61568779D01*
X101475792Y-61572888D01*
G37*
G36*
X97576523Y-61572827D02*
G01*
X97607796Y-61584341D01*
X97655958Y-61602376D01*
X97718501Y-61625983D01*
X97792916Y-61654217D01*
X97876697Y-61686132D01*
X97959301Y-61717705D01*
X98072648Y-61760939D01*
X98166362Y-61796072D01*
X98242664Y-61823551D01*
X98303774Y-61843820D01*
X98351912Y-61857324D01*
X98389298Y-61864509D01*
X98418152Y-61865820D01*
X98440696Y-61861702D01*
X98459148Y-61852600D01*
X98475730Y-61838959D01*
X98490017Y-61824124D01*
X98513489Y-61799517D01*
X98525444Y-61791105D01*
X98529606Y-61797244D01*
X98529920Y-61806526D01*
X98522423Y-61843268D01*
X98503756Y-61887253D01*
X98478780Y-61928587D01*
X98458240Y-61952445D01*
X98428346Y-61974232D01*
X98391098Y-61994464D01*
X98384708Y-61997263D01*
X98339281Y-62016243D01*
X98344781Y-62464915D01*
X98346279Y-62584882D01*
X98347801Y-62683712D01*
X98349719Y-62763731D01*
X98352404Y-62827263D01*
X98356227Y-62876633D01*
X98361559Y-62914167D01*
X98368772Y-62942189D01*
X98378236Y-62963024D01*
X98390323Y-62978998D01*
X98405404Y-62992435D01*
X98423850Y-63005660D01*
X98432001Y-63011239D01*
X98472381Y-63038908D01*
X98436826Y-63056128D01*
X98410546Y-63071118D01*
X98390605Y-63089476D01*
X98376061Y-63114528D01*
X98365968Y-63149599D01*
X98359386Y-63198015D01*
X98355370Y-63263102D01*
X98352978Y-63348185D01*
X98352902Y-63352058D01*
X98351853Y-63425892D01*
X98351152Y-63516352D01*
X98350816Y-63616604D01*
X98350864Y-63719812D01*
X98351313Y-63819142D01*
X98351574Y-63852331D01*
X98354196Y-64147293D01*
X98401362Y-64166165D01*
X98450533Y-64181620D01*
X98490050Y-64182213D01*
X98528683Y-64167610D01*
X98540300Y-64160897D01*
X98570368Y-64144638D01*
X98583090Y-64143159D01*
X98578391Y-64156594D01*
X98556194Y-64185078D01*
X98516423Y-64228746D01*
X98481827Y-64264608D01*
X98406313Y-64342573D01*
X98346055Y-64406924D01*
X98299077Y-64459977D01*
X98263408Y-64504049D01*
X98237075Y-64541456D01*
X98218448Y-64573833D01*
X98201046Y-64605375D01*
X98186899Y-64626083D01*
X98181107Y-64630857D01*
X98170514Y-64622953D01*
X98146169Y-64600979D01*
X98110829Y-64567540D01*
X98067249Y-64525244D01*
X98019357Y-64477866D01*
X97866050Y-64324875D01*
X97811241Y-64398674D01*
X97777281Y-64449247D01*
X97742904Y-64508172D01*
X97718017Y-64557519D01*
X97699420Y-64597060D01*
X97684153Y-64626533D01*
X97674873Y-64640898D01*
X97673734Y-64641532D01*
X97661009Y-64636861D01*
X97631795Y-64625199D01*
X97591246Y-64608622D01*
X97568145Y-64599060D01*
X97482705Y-64564218D01*
X97392157Y-64528469D01*
X97299470Y-64492878D01*
X97207609Y-64458509D01*
X97119544Y-64426427D01*
X97038240Y-64397695D01*
X96966666Y-64373380D01*
X96907788Y-64354544D01*
X96864574Y-64342253D01*
X96839991Y-64337570D01*
X96839172Y-64337555D01*
X96805777Y-64341209D01*
X96777327Y-64355231D01*
X96747581Y-64380839D01*
X96702709Y-64424124D01*
X96724804Y-64475669D01*
X96737759Y-64506873D01*
X96745709Y-64527912D01*
X96746898Y-64532345D01*
X96735743Y-64533734D01*
X96704579Y-64534678D01*
X96656858Y-64535150D01*
X96596031Y-64535122D01*
X96525549Y-64534566D01*
X96504050Y-64534305D01*
X96261201Y-64531134D01*
X96040601Y-64068663D01*
X95994356Y-63971808D01*
X95951231Y-63881664D01*
X95912268Y-63800402D01*
X95878514Y-63730191D01*
X95851012Y-63673202D01*
X95830807Y-63631605D01*
X95818943Y-63607569D01*
X95816180Y-63602371D01*
X95810470Y-63611784D01*
X95795669Y-63640250D01*
X95772818Y-63685656D01*
X95742960Y-63745893D01*
X95707137Y-63818850D01*
X95666392Y-63902416D01*
X95621766Y-63994480D01*
X95587818Y-64064843D01*
X95363277Y-64531134D01*
X95122386Y-64534305D01*
X95050083Y-64534918D01*
X94986458Y-64534807D01*
X94934978Y-64534034D01*
X94899107Y-64532658D01*
X94882310Y-64530739D01*
X94881494Y-64530146D01*
X94886427Y-64518590D01*
X94900673Y-64487619D01*
X94923407Y-64438981D01*
X94953802Y-64374419D01*
X94991032Y-64295681D01*
X95034271Y-64204512D01*
X95082693Y-64102657D01*
X95135472Y-63991863D01*
X95191780Y-63873876D01*
X95223681Y-63807123D01*
X95281606Y-63685771D01*
X95336440Y-63570506D01*
X95387356Y-63463091D01*
X95433526Y-63365293D01*
X95474122Y-63278874D01*
X95508318Y-63205600D01*
X95535284Y-63147236D01*
X95554195Y-63105544D01*
X95564221Y-63082291D01*
X95565650Y-63078026D01*
X95560670Y-63065425D01*
X95546357Y-63033440D01*
X95523542Y-62983837D01*
X95493055Y-62918381D01*
X95455726Y-62838837D01*
X95412384Y-62746973D01*
X95363859Y-62644551D01*
X95310981Y-62533340D01*
X95254581Y-62415104D01*
X95223463Y-62350026D01*
X95165558Y-62228881D01*
X95110737Y-62113913D01*
X95059829Y-62006877D01*
X95013662Y-61909527D01*
X94973064Y-61823617D01*
X94938864Y-61750902D01*
X94911889Y-61693137D01*
X94892969Y-61652076D01*
X94882930Y-61629474D01*
X94881494Y-61625569D01*
X94892645Y-61622593D01*
X94923774Y-61619978D01*
X94971396Y-61617866D01*
X95032025Y-61616404D01*
X95102178Y-61615734D01*
X95119766Y-61615707D01*
X95358038Y-61615707D01*
X95585065Y-62091323D01*
X95631995Y-62189091D01*
X95675989Y-62279686D01*
X95716005Y-62361038D01*
X95751004Y-62431082D01*
X95779943Y-62487750D01*
X95801783Y-62528975D01*
X95815482Y-62552690D01*
X95819874Y-62557674D01*
X95826389Y-62545449D01*
X95841889Y-62514216D01*
X95865314Y-62466173D01*
X95895604Y-62403516D01*
X95931697Y-62328444D01*
X95972536Y-62243153D01*
X96017059Y-62149841D01*
X96049312Y-62082058D01*
X96270969Y-61615707D01*
X96508933Y-61615707D01*
X96580778Y-61616189D01*
X96643921Y-61617535D01*
X96694876Y-61619594D01*
X96730154Y-61622215D01*
X96746269Y-61625248D01*
X96746898Y-61625997D01*
X96741958Y-61638062D01*
X96727689Y-61669522D01*
X96704921Y-61718621D01*
X96674481Y-61783603D01*
X96637200Y-61862712D01*
X96593904Y-61954191D01*
X96545425Y-62056284D01*
X96492589Y-62167235D01*
X96436226Y-62285288D01*
X96405053Y-62350455D01*
X96347129Y-62471637D01*
X96292283Y-62586706D01*
X96241346Y-62693899D01*
X96195148Y-62791453D01*
X96154519Y-62877606D01*
X96120290Y-62950594D01*
X96093291Y-63008655D01*
X96074353Y-63050026D01*
X96064304Y-63072943D01*
X96062867Y-63077005D01*
X96067699Y-63090017D01*
X96081659Y-63121760D01*
X96103697Y-63170044D01*
X96132766Y-63232684D01*
X96167817Y-63307490D01*
X96207803Y-63392275D01*
X96251676Y-63484852D01*
X96298387Y-63583033D01*
X96346888Y-63684630D01*
X96396132Y-63787456D01*
X96445069Y-63889323D01*
X96492653Y-63988044D01*
X96537835Y-64081430D01*
X96579567Y-64167295D01*
X96616800Y-64243450D01*
X96648487Y-64307709D01*
X96673580Y-64357883D01*
X96691030Y-64391784D01*
X96699790Y-64407226D01*
X96700518Y-64407947D01*
X96708164Y-64397781D01*
X96715732Y-64373013D01*
X96716337Y-64370109D01*
X96737919Y-64314814D01*
X96776890Y-64263367D01*
X96827442Y-64223148D01*
X96835626Y-64218560D01*
X96887684Y-64190944D01*
X96887684Y-63888354D01*
X96887585Y-63795657D01*
X96887141Y-63723291D01*
X96886128Y-63668121D01*
X96884571Y-63632674D01*
X97374502Y-63632674D01*
X97376215Y-63737170D01*
X97377371Y-63780280D01*
X97384143Y-64014922D01*
X97613996Y-64104560D01*
X97683303Y-64131385D01*
X97745641Y-64155128D01*
X97797551Y-64174503D01*
X97835571Y-64188222D01*
X97856241Y-64194999D01*
X97858515Y-64195483D01*
X97861895Y-64191215D01*
X97864749Y-64176730D01*
X97867114Y-64150466D01*
X97869028Y-64110863D01*
X97870530Y-64056362D01*
X97871655Y-63985400D01*
X97872443Y-63896419D01*
X97872930Y-63787857D01*
X97873155Y-63658154D01*
X97873180Y-63586700D01*
X97873180Y-62976631D01*
X97821962Y-62976631D01*
X97758668Y-62986950D01*
X97690242Y-63015871D01*
X97620580Y-63060334D01*
X97553578Y-63117285D01*
X97493131Y-63183664D01*
X97443136Y-63256415D01*
X97426921Y-63286646D01*
X97409063Y-63327384D01*
X97395295Y-63370492D01*
X97385287Y-63419273D01*
X97378706Y-63477028D01*
X97375222Y-63547061D01*
X97374502Y-63632674D01*
X96884571Y-63632674D01*
X96884323Y-63627017D01*
X96881504Y-63596843D01*
X96877445Y-63574467D01*
X96871926Y-63556755D01*
X96864722Y-63540575D01*
X96862616Y-63536371D01*
X96840142Y-63497193D01*
X96815074Y-63460516D01*
X96808609Y-63452372D01*
X96779668Y-63417767D01*
X96887347Y-63397229D01*
X96988781Y-63370984D01*
X97085059Y-63330869D01*
X97181559Y-63274271D01*
X97264191Y-63214070D01*
X97318909Y-63171166D01*
X97382137Y-63121605D01*
X97443912Y-63073195D01*
X97472564Y-63050748D01*
X97553404Y-62991154D01*
X97624099Y-62947844D01*
X97689041Y-62918678D01*
X97752618Y-62901521D01*
X97789785Y-62896309D01*
X97867314Y-62888640D01*
X97870425Y-62544895D01*
X97873536Y-62201150D01*
X97819202Y-62177116D01*
X97792511Y-62165870D01*
X97751098Y-62149093D01*
X97698977Y-62128344D01*
X97640160Y-62105182D01*
X97578659Y-62081168D01*
X97518488Y-62057862D01*
X97463658Y-62036823D01*
X97418183Y-62019612D01*
X97386075Y-62007788D01*
X97371346Y-62002912D01*
X97370976Y-62002866D01*
X97369720Y-62014069D01*
X97368991Y-62045575D01*
X97368789Y-62094226D01*
X97369115Y-62156868D01*
X97369968Y-62230344D01*
X97371001Y-62293236D01*
X97373318Y-62396171D01*
X97376483Y-62478628D01*
X97381126Y-62543591D01*
X97387878Y-62594043D01*
X97397372Y-62632969D01*
X97410238Y-62663355D01*
X97427108Y-62688183D01*
X97448614Y-62710438D01*
X97461671Y-62721845D01*
X97484266Y-62741720D01*
X97489956Y-62750970D01*
X97480173Y-62753613D01*
X97473027Y-62753721D01*
X97426835Y-62743605D01*
X97374126Y-62714912D01*
X97318733Y-62670123D01*
X97277411Y-62627091D01*
X97206007Y-62545974D01*
X97146335Y-62481233D01*
X97095689Y-62430745D01*
X97051363Y-62392391D01*
X97010652Y-62364049D01*
X96970848Y-62343598D01*
X96929247Y-62328917D01*
X96883141Y-62317886D01*
X96882803Y-62317818D01*
X96845544Y-62309837D01*
X96827867Y-62303576D01*
X96826277Y-62296508D01*
X96837278Y-62286109D01*
X96838060Y-62285485D01*
X96869372Y-62249508D01*
X96885000Y-62201717D01*
X96887684Y-62162244D01*
X96889068Y-62129000D01*
X96895787Y-62112022D01*
X96911687Y-62104159D01*
X96919947Y-62102275D01*
X97028563Y-62076171D01*
X97118814Y-62046464D01*
X97167921Y-62024806D01*
X97274837Y-61957904D01*
X97370620Y-61871506D01*
X97453268Y-61767733D01*
X97518344Y-61653836D01*
X97537893Y-61614312D01*
X97553844Y-61584560D01*
X97563453Y-61569621D01*
X97564645Y-61568779D01*
X97576523Y-61572827D01*
G37*
X82904000Y-68892748D02*
X82904000Y-69415252D01*
X81434000Y-68892748D02*
X81434000Y-69415252D01*
X102510000Y-83235748D02*
X102510000Y-84658252D01*
X100690000Y-83235748D02*
X100690000Y-84658252D01*
X74068000Y-69442064D02*
X74068000Y-68987936D01*
X75538000Y-69442064D02*
X75538000Y-68987936D01*
X114939600Y-74613252D02*
X114939600Y-73190748D01*
X117659600Y-74613252D02*
X117659600Y-73190748D01*
X114460200Y-68538748D02*
X114460200Y-69061252D01*
X112990200Y-68538748D02*
X112990200Y-69061252D01*
X145323000Y-86360000D02*
X140223000Y-86360000D01*
X145323000Y-81260000D02*
X140223000Y-81260000D01*
X117685000Y-67653548D02*
X117685000Y-69076052D01*
X114965000Y-67653548D02*
X114965000Y-69076052D01*
X91383800Y-70776264D02*
X91383800Y-70322136D01*
X92853800Y-70776264D02*
X92853800Y-70322136D01*
X77570000Y-68953748D02*
X77570000Y-69476252D01*
X76100000Y-68953748D02*
X76100000Y-69476252D01*
X88228000Y-63169748D02*
X88228000Y-64592252D01*
X85508000Y-63169748D02*
X85508000Y-64592252D01*
X127799000Y-74599852D02*
X127799000Y-73177348D01*
X130519000Y-74599852D02*
X130519000Y-73177348D01*
X78802000Y-70375000D02*
X80202000Y-70375000D01*
X80202000Y-68055000D02*
X78302000Y-68055000D01*
X73941000Y-87349064D02*
X73941000Y-86894936D01*
X75411000Y-87349064D02*
X75411000Y-86894936D01*
X77227064Y-73235000D02*
X76772936Y-73235000D01*
X77227064Y-71765000D02*
X76772936Y-71765000D01*
X156843000Y-81272936D02*
X156843000Y-81727064D01*
X155373000Y-81272936D02*
X155373000Y-81727064D01*
X99541000Y-73779748D02*
X99541000Y-74302252D01*
X98071000Y-73779748D02*
X98071000Y-74302252D01*
X101041800Y-73758000D02*
X101541800Y-73758000D01*
X108341800Y-73758000D02*
X107841800Y-73758000D01*
X101041800Y-73258000D02*
X101041800Y-73758000D01*
X108341800Y-73258000D02*
X108341800Y-73758000D01*
X101041800Y-68958000D02*
X101041800Y-68458000D01*
X108341800Y-68958000D02*
X108341800Y-68458000D01*
X101041800Y-68458000D02*
X101541800Y-68458000D01*
X108341800Y-68458000D02*
X107841800Y-68458000D01*
D13*
X102031800Y-74338000D02*
G75*
G03*
X102031800Y-74338000I-90000J0D01*
G01*
D12*
X65317000Y-77570064D02*
X65317000Y-77115936D01*
X66787000Y-77570064D02*
X66787000Y-77115936D01*
X110497800Y-68538748D02*
X110497800Y-69061252D01*
X109027800Y-68538748D02*
X109027800Y-69061252D01*
X70996000Y-63000000D02*
X70996000Y-64800000D01*
X70996000Y-60900000D02*
X70996000Y-59750000D01*
X61656000Y-63000000D02*
X61656000Y-64800000D01*
X61656000Y-60900000D02*
X61656000Y-59750000D01*
X87984000Y-69345436D02*
X87984000Y-69799564D01*
X86514000Y-69345436D02*
X86514000Y-69799564D01*
X81818500Y-82732000D02*
X81818500Y-82432000D01*
X81818500Y-82432000D02*
X83133500Y-82432000D01*
X81818500Y-75512000D02*
X81818500Y-75812000D01*
X81518500Y-82732000D02*
X81818500Y-82732000D01*
X81518500Y-75512000D02*
X81818500Y-75512000D01*
X74898500Y-82732000D02*
X74598500Y-82732000D01*
X74898500Y-75512000D02*
X74598500Y-75512000D01*
X74598500Y-82732000D02*
X74598500Y-82432000D01*
X74598500Y-75512000D02*
X74598500Y-75812000D01*
X79505500Y-86588064D02*
X79505500Y-86133936D01*
X80975500Y-86588064D02*
X80975500Y-86133936D01*
X108113548Y-74564000D02*
X108636052Y-74564000D01*
X108113548Y-76034000D02*
X108636052Y-76034000D01*
X142551000Y-75353000D02*
X142551000Y-77753000D01*
X140151000Y-75353000D02*
X142551000Y-75353000D01*
X142551000Y-77753000D02*
X140151000Y-77753000D01*
X140151000Y-77753000D02*
X140151000Y-75353000D01*
X77092436Y-87403000D02*
X77546564Y-87403000D01*
X77092436Y-88873000D02*
X77546564Y-88873000D01*
X95447800Y-70762864D02*
X95447800Y-70308736D01*
X96917800Y-70762864D02*
X96917800Y-70308736D01*
X89351800Y-74179864D02*
X89351800Y-73725736D01*
X90821800Y-74179864D02*
X90821800Y-73725736D01*
D10*
X141365000Y-69265000D02*
X141365000Y-64235000D01*
X131635000Y-69265000D02*
X141365000Y-69265000D01*
X131635000Y-69265000D02*
X131635000Y-64235000D01*
X131635000Y-64235000D02*
X141365000Y-64235000D01*
D12*
X110385800Y-74627064D02*
X110385800Y-73172936D01*
X112205800Y-74627064D02*
X112205800Y-73172936D01*
X74469000Y-61027000D02*
X80219000Y-61027000D01*
X74469000Y-67027000D02*
X74469000Y-61027000D01*
X75819000Y-65917000D02*
X80899000Y-65917000D01*
X75819000Y-66927000D02*
X75819000Y-65917000D01*
X80899000Y-65917000D02*
X80899000Y-66927000D01*
X81569000Y-61077000D02*
X84769000Y-61077000D01*
X84769000Y-61077000D02*
X84769000Y-67027000D01*
X84769000Y-67027000D02*
X74469000Y-67027000D01*
X120885400Y-67651748D02*
X120885400Y-69074252D01*
X118165400Y-67651748D02*
X118165400Y-69074252D01*
X95447800Y-74129064D02*
X95447800Y-73674936D01*
X96917800Y-74129064D02*
X96917800Y-73674936D01*
X94885800Y-70320236D02*
X94885800Y-70774364D01*
X93415800Y-70320236D02*
X93415800Y-70774364D01*
X77369936Y-85498000D02*
X77824064Y-85498000D01*
X77369936Y-86968000D02*
X77824064Y-86968000D01*
X133340000Y-59600000D02*
X133340000Y-63900000D01*
X133340000Y-59600000D02*
X139150000Y-59600000D01*
X133340000Y-63900000D02*
X139150000Y-63900000D01*
X83701000Y-76048500D02*
X85971000Y-76048500D01*
X85971000Y-76048500D02*
X85971000Y-72163500D01*
X83701000Y-72163500D02*
X83701000Y-76048500D01*
X127286200Y-67653548D02*
X127286200Y-69076052D01*
X124566200Y-67653548D02*
X124566200Y-69076052D01*
X121340400Y-74599852D02*
X121340400Y-73177348D01*
X124060400Y-74599852D02*
X124060400Y-73177348D01*
X140069000Y-79301000D02*
X140069000Y-79901000D01*
X139369000Y-80601000D02*
X137969000Y-80601000D01*
X137969000Y-78601000D02*
X139369000Y-78601000D01*
X137269000Y-79901000D02*
X137269000Y-79301000D01*
X139369000Y-80601000D02*
G75*
G03*
X140069000Y-79901000I1J699999D01*
G01*
X140069000Y-79301000D02*
G75*
G03*
X139369000Y-78601000I-699999J1D01*
G01*
X137269000Y-79901000D02*
G75*
G03*
X137969000Y-80601000I700000J0D01*
G01*
X137969000Y-78601000D02*
G75*
G03*
X137269000Y-79301000I0J-700000D01*
G01*
X148848000Y-81727252D02*
X148848000Y-80304748D01*
X150668000Y-81727252D02*
X150668000Y-80304748D01*
X90821800Y-70322136D02*
X90821800Y-70776264D01*
X89351800Y-70322136D02*
X89351800Y-70776264D01*
X112479000Y-68538748D02*
X112479000Y-69061252D01*
X111009000Y-68538748D02*
X111009000Y-69061252D01*
X130486600Y-67653548D02*
X130486600Y-69076052D01*
X127766600Y-67653548D02*
X127766600Y-69076052D01*
D11*
X56542000Y-111711000D02*
X56542000Y-89711000D01*
X158542000Y-111711000D02*
X56542000Y-111711000D01*
D12*
X67432000Y-107121000D02*
X69652000Y-107121000D01*
X67432000Y-107011000D02*
X67432000Y-107121000D01*
X69652000Y-105741000D02*
X69652000Y-107111000D01*
X145932000Y-104581000D02*
X148152000Y-104581000D01*
X67432000Y-104471000D02*
X67432000Y-105841000D01*
X145932000Y-104471000D02*
X145932000Y-104581000D01*
X69652000Y-103201000D02*
X69652000Y-104571000D01*
X148152000Y-103201000D02*
X148152000Y-104571000D01*
X67432000Y-101931000D02*
X67432000Y-103301000D01*
X145932000Y-101931000D02*
X145932000Y-103301000D01*
X69652000Y-100661000D02*
X69652000Y-102031000D01*
X148152000Y-100661000D02*
X148152000Y-102031000D01*
X67432000Y-99391000D02*
X67432000Y-100761000D01*
X145932000Y-99391000D02*
X145932000Y-100761000D01*
X69652000Y-98121000D02*
X69652000Y-99491000D01*
X148152000Y-98121000D02*
X148152000Y-99491000D01*
X148152000Y-96951000D02*
X149982000Y-96951000D01*
X67432000Y-96851000D02*
X67432000Y-98221000D01*
X145932000Y-96851000D02*
X145932000Y-98221000D01*
X145932000Y-96841000D02*
X148152000Y-96841000D01*
X148152000Y-96841000D02*
X148152000Y-96951000D01*
X69652000Y-95581000D02*
X69652000Y-96951000D01*
X69652000Y-94411000D02*
X71482000Y-94411000D01*
X67432000Y-94311000D02*
X67432000Y-95681000D01*
X67432000Y-94301000D02*
X69652000Y-94301000D01*
X69652000Y-94301000D02*
X69652000Y-94411000D01*
D11*
X56542000Y-89711000D02*
X158542000Y-89711000D01*
X158542000Y-89711000D02*
X158542000Y-111711000D01*
D12*
X153060000Y-84227000D02*
X154860000Y-84227000D01*
X153060000Y-84227000D02*
X152260000Y-84227000D01*
X153060000Y-81107000D02*
X153860000Y-81107000D01*
X153060000Y-81107000D02*
X152260000Y-81107000D01*
X124573200Y-74599852D02*
X124573200Y-73177348D01*
X127293200Y-74599852D02*
X127293200Y-73177348D01*
%LPC*%
D14*
X107066000Y-80899000D03*
X114676000Y-80899000D03*
D15*
X70786000Y-69215000D03*
X68961000Y-69215000D03*
D16*
X141425000Y-79619000D03*
X144375000Y-79619000D03*
D17*
X152528500Y-80000000D03*
X154353500Y-80000000D03*
D18*
X99187000Y-82472000D03*
X99187000Y-85422000D03*
D19*
X99110800Y-69584000D03*
X99110800Y-71484000D03*
D20*
X147091000Y-83851000D03*
X147091000Y-79451000D03*
D21*
X92118800Y-74826500D03*
X92118800Y-73001500D03*
D22*
X119500000Y-75377000D03*
X119500000Y-72427000D03*
D15*
X133400800Y-72796400D03*
X131575800Y-72796400D03*
D21*
X65301500Y-70889500D03*
X65301500Y-69064500D03*
D17*
X131575800Y-74930000D03*
X133400800Y-74930000D03*
D19*
X103752000Y-76139000D03*
X103752000Y-78039000D03*
D23*
X122725800Y-66888000D03*
X122725800Y-69838000D03*
D19*
X83161500Y-83379000D03*
X83161500Y-85279000D03*
D24*
X96622000Y-85231000D03*
X96622000Y-82931000D03*
D25*
X90322000Y-82931000D03*
D24*
X96622000Y-80631000D03*
D26*
X113505600Y-74400000D03*
X113505600Y-72500000D03*
D27*
X150500000Y-73200000D03*
D28*
X150500000Y-67200000D03*
X145800000Y-70200000D03*
D21*
X66052000Y-82827500D03*
X66052000Y-81002500D03*
X67206500Y-70889500D03*
X67206500Y-69064500D03*
D17*
X61698500Y-69215000D03*
X63523500Y-69215000D03*
D29*
X59460000Y-78359000D03*
X63500000Y-78359000D03*
X59460000Y-79629000D03*
X63500000Y-79629000D03*
X59460000Y-80899000D03*
X63500000Y-80899000D03*
X59460000Y-82169000D03*
X63500000Y-82169000D03*
X59460000Y-83439000D03*
X63500000Y-83439000D03*
D30*
X154010000Y-85461000D03*
X152110000Y-85461000D03*
D21*
X94150800Y-74826500D03*
X94150800Y-73001500D03*
D19*
X84582000Y-78806000D03*
X84582000Y-80706000D03*
D26*
X73382500Y-74865000D03*
X73382500Y-72965000D03*
D31*
X84836000Y-68660000D03*
X84836000Y-70485000D03*
D32*
X87249000Y-75163500D03*
X87249000Y-72363500D03*
D19*
X82169000Y-68204000D03*
X82169000Y-70104000D03*
D18*
X101600000Y-82472000D03*
X101600000Y-85422000D03*
D21*
X74803000Y-70127500D03*
X74803000Y-68302500D03*
D22*
X116299600Y-75377000D03*
X116299600Y-72427000D03*
D19*
X113725200Y-67850000D03*
X113725200Y-69750000D03*
D33*
X144573000Y-83810000D03*
X140973000Y-83810000D03*
D23*
X116325000Y-66889800D03*
X116325000Y-69839800D03*
D21*
X92118800Y-71461700D03*
X92118800Y-69636700D03*
D19*
X76835000Y-68265000D03*
X76835000Y-70165000D03*
D23*
X86868000Y-62406000D03*
X86868000Y-65356000D03*
D22*
X129159000Y-75363600D03*
X129159000Y-72413600D03*
D34*
X78552000Y-68565000D03*
X78552000Y-69215000D03*
X78552000Y-69865000D03*
X80452000Y-69865000D03*
X80452000Y-69215000D03*
X80452000Y-68565000D03*
D21*
X74676000Y-88034500D03*
X74676000Y-86209500D03*
D15*
X77912500Y-72500000D03*
X76087500Y-72500000D03*
D31*
X156108000Y-80587500D03*
X156108000Y-82412500D03*
D19*
X98806000Y-73091000D03*
X98806000Y-74991000D03*
D35*
X101941800Y-73608000D03*
X102441800Y-73608000D03*
X102941800Y-73608000D03*
X103441800Y-73608000D03*
X103941800Y-73608000D03*
X104441800Y-73608000D03*
X104941800Y-73608000D03*
X105441800Y-73608000D03*
X105941800Y-73608000D03*
X106441800Y-73608000D03*
X106941800Y-73608000D03*
X107441800Y-73608000D03*
D36*
X108191800Y-72858000D03*
X108191800Y-72358000D03*
X108191800Y-71858000D03*
X108191800Y-71358000D03*
X108191800Y-70858000D03*
X108191800Y-70358000D03*
X108191800Y-69858000D03*
X108191800Y-69358000D03*
D35*
X107441800Y-68608000D03*
X106941800Y-68608000D03*
X106441800Y-68608000D03*
X105941800Y-68608000D03*
X105441800Y-68608000D03*
X104941800Y-68608000D03*
X104441800Y-68608000D03*
X103941800Y-68608000D03*
X103441800Y-68608000D03*
X102941800Y-68608000D03*
X102441800Y-68608000D03*
X101941800Y-68608000D03*
D36*
X101191800Y-69358000D03*
X101191800Y-69858000D03*
X101191800Y-70358000D03*
X101191800Y-70858000D03*
X101191800Y-71358000D03*
X101191800Y-71858000D03*
X101191800Y-72358000D03*
X101191800Y-72858000D03*
D37*
X103291800Y-72388000D03*
X104691800Y-72388000D03*
X106091800Y-72388000D03*
X102291800Y-71108000D03*
X103291800Y-71108000D03*
X104691800Y-71108000D03*
D38*
X104691800Y-71108000D03*
D37*
X106091800Y-71108000D03*
X107091800Y-71108000D03*
X103291800Y-69828000D03*
X104691800Y-69828000D03*
X106091800Y-69828000D03*
D21*
X66052000Y-78255500D03*
X66052000Y-76430500D03*
D19*
X109762800Y-67850000D03*
X109762800Y-69750000D03*
D39*
X69216000Y-65605000D03*
X63436000Y-65605000D03*
D40*
X69526000Y-66680000D03*
X68726000Y-66680000D03*
D41*
X67576000Y-66680000D03*
X66576000Y-66680000D03*
X66076000Y-66680000D03*
X65076000Y-66680000D03*
D40*
X63926000Y-66680000D03*
X63126000Y-66680000D03*
X63126000Y-66680000D03*
X63926000Y-66680000D03*
D41*
X64576000Y-66680000D03*
X65576000Y-66680000D03*
X67076000Y-66680000D03*
X68076000Y-66680000D03*
D40*
X68726000Y-66680000D03*
X69526000Y-66680000D03*
D42*
X70646000Y-66105000D03*
D43*
X70646000Y-61925000D03*
D42*
X62006000Y-66105000D03*
D43*
X62006000Y-61925000D03*
D31*
X87249000Y-68660000D03*
X87249000Y-70485000D03*
D44*
X82383500Y-81922000D03*
X82383500Y-81122000D03*
X82383500Y-80322000D03*
X82383500Y-79522000D03*
X82383500Y-78722000D03*
X82383500Y-77922000D03*
X82383500Y-77122000D03*
X82383500Y-76322000D03*
D45*
X81008500Y-74947000D03*
X80208500Y-74947000D03*
X79408500Y-74947000D03*
X78608500Y-74947000D03*
X77808500Y-74947000D03*
X77008500Y-74947000D03*
X76208500Y-74947000D03*
X75408500Y-74947000D03*
D44*
X74033500Y-76322000D03*
X74033500Y-77122000D03*
X74033500Y-77922000D03*
X74033500Y-78722000D03*
X74033500Y-79522000D03*
X74033500Y-80322000D03*
X74033500Y-81122000D03*
X74033500Y-81922000D03*
D45*
X75408500Y-83297000D03*
X76208500Y-83297000D03*
X77008500Y-83297000D03*
X77808500Y-83297000D03*
X78608500Y-83297000D03*
X79408500Y-83297000D03*
X80208500Y-83297000D03*
X81008500Y-83297000D03*
D21*
X80240500Y-87273500D03*
X80240500Y-85448500D03*
D46*
X107424800Y-75299000D03*
X109324800Y-75299000D03*
D47*
X141351000Y-76553000D03*
D17*
X76407000Y-88138000D03*
X78232000Y-88138000D03*
D21*
X96182800Y-71448300D03*
X96182800Y-69623300D03*
X90086800Y-74865300D03*
X90086800Y-73040300D03*
D48*
X139687500Y-66750000D03*
X133312500Y-66750000D03*
D49*
X111295800Y-75362500D03*
X111295800Y-72437500D03*
D50*
X80899000Y-61467000D03*
D51*
X75819000Y-63627000D03*
D52*
X78359000Y-63627000D03*
X80899000Y-63627000D03*
X83439000Y-63627000D03*
D23*
X119525400Y-66888000D03*
X119525400Y-69838000D03*
D21*
X96182800Y-74814500D03*
X96182800Y-72989500D03*
D31*
X94150800Y-69634800D03*
X94150800Y-71459800D03*
D17*
X76684500Y-86233000D03*
X78509500Y-86233000D03*
D53*
X134850000Y-61750000D03*
X139150000Y-61750000D03*
D32*
X84836000Y-75163500D03*
X84836000Y-72363500D03*
D23*
X125926200Y-66889800D03*
X125926200Y-69839800D03*
D22*
X122700400Y-75363600D03*
X122700400Y-72413600D03*
D54*
X139319000Y-79601000D03*
D55*
X138019000Y-79601000D03*
D56*
X149758000Y-82491000D03*
X149758000Y-79541000D03*
D31*
X90086800Y-69636700D03*
X90086800Y-71461700D03*
D19*
X111744000Y-67850000D03*
X111744000Y-69750000D03*
D23*
X129126600Y-66889800D03*
X129126600Y-69839800D03*
D57*
X61042000Y-97436000D03*
X154042000Y-97436000D03*
X58761581Y-96491419D03*
X63322419Y-96491419D03*
X151761581Y-96491419D03*
X156322419Y-96491419D03*
X57817000Y-94211000D03*
D58*
X61042000Y-94211000D03*
D57*
X64267000Y-94211000D03*
X150817000Y-94211000D03*
D58*
X154042000Y-94211000D03*
D57*
X157267000Y-94211000D03*
X58761581Y-91930581D03*
X63322419Y-91930581D03*
X151761581Y-91930581D03*
X156322419Y-91930581D03*
X61042000Y-90986000D03*
X154042000Y-90986000D03*
X61042000Y-110436000D03*
X154042000Y-110436000D03*
X58761581Y-109491419D03*
X63322419Y-109491419D03*
X151761581Y-109491419D03*
X156322419Y-109491419D03*
X57817000Y-107211000D03*
D58*
X61042000Y-107211000D03*
D57*
X64267000Y-107211000D03*
X150817000Y-107211000D03*
D58*
X154042000Y-107211000D03*
D57*
X157267000Y-107211000D03*
X58761581Y-104930581D03*
X63322419Y-104930581D03*
X151761581Y-104930581D03*
X156322419Y-104930581D03*
X61042000Y-103986000D03*
X154042000Y-103986000D03*
D59*
X70042000Y-94996000D03*
X67042000Y-96266000D03*
X70042000Y-97536000D03*
X67042000Y-98806000D03*
X70042000Y-100076000D03*
X67042000Y-101346000D03*
X70042000Y-102616000D03*
X67042000Y-103886000D03*
X70042000Y-105156000D03*
X67042000Y-106426000D03*
X148542000Y-97536000D03*
X145542000Y-98806000D03*
X148542000Y-100076000D03*
X145542000Y-101346000D03*
X148542000Y-102616000D03*
X145542000Y-103886000D03*
D60*
X154197500Y-83617000D03*
X154197500Y-82667000D03*
X154197500Y-81717000D03*
X151922500Y-81717000D03*
X151922500Y-82667000D03*
X151922500Y-83617000D03*
D22*
X125933200Y-75363600D03*
X125933200Y-72413600D03*
%LPD*%
M02*
