G04 #@! TF.GenerationSoftware,KiCad,Pcbnew,7.0.7-7.0.7~ubuntu22.04.1*
G04 #@! TF.CreationDate,2024-03-15T11:13:54+01:00*
G04 #@! TF.ProjectId,kicad,6b696361-642e-46b6-9963-61645f706362,302*
G04 #@! TF.SameCoordinates,Original*
G04 #@! TF.FileFunction,Soldermask,Bot*
G04 #@! TF.FilePolarity,Negative*
%FSLAX46Y46*%
G04 Gerber Fmt 4.6, Leading zero omitted, Abs format (unit mm)*
G04 Created by KiCad (PCBNEW 7.0.7-7.0.7~ubuntu22.04.1) date 2024-03-15 11:13:54*
%MOMM*%
%LPD*%
G01*
G04 APERTURE LIST*
G04 Aperture macros list*
%AMRoundRect*
0 Rectangle with rounded corners*
0 $1 Rounding radius*
0 $2 $3 $4 $5 $6 $7 $8 $9 X,Y pos of 4 corners*
0 Add a 4 corners polygon primitive as box body*
4,1,4,$2,$3,$4,$5,$6,$7,$8,$9,$2,$3,0*
0 Add four circle primitives for the rounded corners*
1,1,$1+$1,$2,$3*
1,1,$1+$1,$4,$5*
1,1,$1+$1,$6,$7*
1,1,$1+$1,$8,$9*
0 Add four rect primitives between the rounded corners*
20,1,$1+$1,$2,$3,$4,$5,0*
20,1,$1+$1,$4,$5,$6,$7,0*
20,1,$1+$1,$6,$7,$8,$9,0*
20,1,$1+$1,$8,$9,$2,$3,0*%
G04 Aperture macros list end*
%ADD10R,2.600000X2.600000*%
%ADD11C,2.600000*%
%ADD12C,0.400000*%
%ADD13C,0.650000*%
%ADD14O,1.000000X2.100000*%
%ADD15O,1.000000X1.800000*%
%ADD16C,1.100000*%
%ADD17R,1.730000X2.030000*%
%ADD18O,1.730000X2.030000*%
%ADD19C,0.900000*%
%ADD20C,8.600000*%
%ADD21RoundRect,0.250000X0.250000X0.475000X-0.250000X0.475000X-0.250000X-0.475000X0.250000X-0.475000X0*%
%ADD22RoundRect,0.250000X-0.250000X-0.475000X0.250000X-0.475000X0.250000X0.475000X-0.250000X0.475000X0*%
%ADD23RoundRect,0.250000X0.262500X0.450000X-0.262500X0.450000X-0.262500X-0.450000X0.262500X-0.450000X0*%
G04 APERTURE END LIST*
D10*
X150500000Y-73200000D03*
D11*
X150500000Y-67200000D03*
X145800000Y-70200000D03*
D12*
X103291800Y-72388000D03*
X104691800Y-72388000D03*
X106091800Y-72388000D03*
X102291800Y-71108000D03*
X103291800Y-71108000D03*
X104691800Y-71108000D03*
X106091800Y-71108000D03*
X107091800Y-71108000D03*
X103291800Y-69828000D03*
X104691800Y-69828000D03*
X106091800Y-69828000D03*
D13*
X69216000Y-65605000D03*
X63436000Y-65605000D03*
D14*
X70646000Y-66105000D03*
D15*
X70646000Y-61925000D03*
D14*
X62006000Y-66105000D03*
D15*
X62006000Y-61925000D03*
D16*
X80899000Y-61467000D03*
D17*
X75819000Y-63627000D03*
D18*
X78359000Y-63627000D03*
X80899000Y-63627000D03*
X83439000Y-63627000D03*
D19*
X61042000Y-97436000D03*
X154042000Y-97436000D03*
X58761581Y-96491419D03*
X63322419Y-96491419D03*
X151761581Y-96491419D03*
X156322419Y-96491419D03*
X57817000Y-94211000D03*
D20*
X61042000Y-94211000D03*
D19*
X64267000Y-94211000D03*
X150817000Y-94211000D03*
D20*
X154042000Y-94211000D03*
D19*
X157267000Y-94211000D03*
X58761581Y-91930581D03*
X63322419Y-91930581D03*
X151761581Y-91930581D03*
X156322419Y-91930581D03*
X61042000Y-90986000D03*
X154042000Y-90986000D03*
X61042000Y-110436000D03*
X154042000Y-110436000D03*
X58761581Y-109491419D03*
X63322419Y-109491419D03*
X151761581Y-109491419D03*
X156322419Y-109491419D03*
X57817000Y-107211000D03*
D20*
X61042000Y-107211000D03*
D19*
X64267000Y-107211000D03*
X150817000Y-107211000D03*
D20*
X154042000Y-107211000D03*
D19*
X157267000Y-107211000D03*
X58761581Y-104930581D03*
X63322419Y-104930581D03*
X151761581Y-104930581D03*
X156322419Y-104930581D03*
X61042000Y-103986000D03*
X154042000Y-103986000D03*
D21*
X104700000Y-66300000D03*
X102800000Y-66300000D03*
D22*
X102301000Y-73914000D03*
X104201000Y-73914000D03*
D21*
X103300000Y-68500000D03*
X101400000Y-68500000D03*
D23*
X104712500Y-64300000D03*
X102887500Y-64300000D03*
M02*
