G04 #@! TF.GenerationSoftware,KiCad,Pcbnew,7.0.7-7.0.7~ubuntu22.04.1*
G04 #@! TF.CreationDate,2024-03-15T11:13:54+01:00*
G04 #@! TF.ProjectId,kicad,6b696361-642e-46b6-9963-61645f706362,302*
G04 #@! TF.SameCoordinates,Original*
G04 #@! TF.FileFunction,Copper,L4,Bot*
G04 #@! TF.FilePolarity,Positive*
%FSLAX46Y46*%
G04 Gerber Fmt 4.6, Leading zero omitted, Abs format (unit mm)*
G04 Created by KiCad (PCBNEW 7.0.7-7.0.7~ubuntu22.04.1) date 2024-03-15 11:13:54*
%MOMM*%
%LPD*%
G01*
G04 APERTURE LIST*
G04 Aperture macros list*
%AMRoundRect*
0 Rectangle with rounded corners*
0 $1 Rounding radius*
0 $2 $3 $4 $5 $6 $7 $8 $9 X,Y pos of 4 corners*
0 Add a 4 corners polygon primitive as box body*
4,1,4,$2,$3,$4,$5,$6,$7,$8,$9,$2,$3,0*
0 Add four circle primitives for the rounded corners*
1,1,$1+$1,$2,$3*
1,1,$1+$1,$4,$5*
1,1,$1+$1,$6,$7*
1,1,$1+$1,$8,$9*
0 Add four rect primitives between the rounded corners*
20,1,$1+$1,$2,$3,$4,$5,0*
20,1,$1+$1,$4,$5,$6,$7,0*
20,1,$1+$1,$6,$7,$8,$9,0*
20,1,$1+$1,$8,$9,$2,$3,0*%
G04 Aperture macros list end*
G04 #@! TA.AperFunction,ComponentPad*
%ADD10R,2.600000X2.600000*%
G04 #@! TD*
G04 #@! TA.AperFunction,ComponentPad*
%ADD11C,2.600000*%
G04 #@! TD*
G04 #@! TA.AperFunction,ComponentPad*
%ADD12C,0.400000*%
G04 #@! TD*
G04 #@! TA.AperFunction,ComponentPad*
%ADD13O,1.000000X2.100000*%
G04 #@! TD*
G04 #@! TA.AperFunction,ComponentPad*
%ADD14O,1.000000X1.800000*%
G04 #@! TD*
G04 #@! TA.AperFunction,ComponentPad*
%ADD15R,1.730000X2.030000*%
G04 #@! TD*
G04 #@! TA.AperFunction,ComponentPad*
%ADD16O,1.730000X2.030000*%
G04 #@! TD*
G04 #@! TA.AperFunction,ComponentPad*
%ADD17C,0.900000*%
G04 #@! TD*
G04 #@! TA.AperFunction,ComponentPad*
%ADD18C,8.600000*%
G04 #@! TD*
G04 #@! TA.AperFunction,SMDPad,CuDef*
%ADD19RoundRect,0.250000X0.250000X0.475000X-0.250000X0.475000X-0.250000X-0.475000X0.250000X-0.475000X0*%
G04 #@! TD*
G04 #@! TA.AperFunction,SMDPad,CuDef*
%ADD20RoundRect,0.250000X-0.250000X-0.475000X0.250000X-0.475000X0.250000X0.475000X-0.250000X0.475000X0*%
G04 #@! TD*
G04 #@! TA.AperFunction,SMDPad,CuDef*
%ADD21RoundRect,0.250000X0.262500X0.450000X-0.262500X0.450000X-0.262500X-0.450000X0.262500X-0.450000X0*%
G04 #@! TD*
G04 #@! TA.AperFunction,ViaPad*
%ADD22C,0.800000*%
G04 #@! TD*
G04 #@! TA.AperFunction,ViaPad*
%ADD23C,1.000000*%
G04 #@! TD*
G04 #@! TA.AperFunction,Conductor*
%ADD24C,0.500000*%
G04 #@! TD*
G04 #@! TA.AperFunction,Conductor*
%ADD25C,0.300000*%
G04 #@! TD*
G04 #@! TA.AperFunction,Conductor*
%ADD26C,0.400000*%
G04 #@! TD*
G04 #@! TA.AperFunction,Conductor*
%ADD27C,1.000000*%
G04 #@! TD*
G04 APERTURE END LIST*
D10*
X150500000Y-73200000D03*
D11*
X150500000Y-67200000D03*
X145800000Y-70200000D03*
D12*
X103291800Y-72388000D03*
X104691800Y-72388000D03*
X106091800Y-72388000D03*
X102291800Y-71108000D03*
X103291800Y-71108000D03*
X104691800Y-71108000D03*
X106091800Y-71108000D03*
X107091800Y-71108000D03*
X103291800Y-69828000D03*
X104691800Y-69828000D03*
X106091800Y-69828000D03*
D13*
X70646000Y-66105000D03*
D14*
X70646000Y-61925000D03*
D13*
X62006000Y-66105000D03*
D14*
X62006000Y-61925000D03*
D15*
X75819000Y-63627000D03*
D16*
X78359000Y-63627000D03*
X80899000Y-63627000D03*
X83439000Y-63627000D03*
D17*
X61042000Y-97436000D03*
X154042000Y-97436000D03*
X58761581Y-96491419D03*
X63322419Y-96491419D03*
X151761581Y-96491419D03*
X156322419Y-96491419D03*
X57817000Y-94211000D03*
D18*
X61042000Y-94211000D03*
D17*
X64267000Y-94211000D03*
X150817000Y-94211000D03*
D18*
X154042000Y-94211000D03*
D17*
X157267000Y-94211000D03*
X58761581Y-91930581D03*
X63322419Y-91930581D03*
X151761581Y-91930581D03*
X156322419Y-91930581D03*
X61042000Y-90986000D03*
X154042000Y-90986000D03*
X61042000Y-110436000D03*
X154042000Y-110436000D03*
X58761581Y-109491419D03*
X63322419Y-109491419D03*
X151761581Y-109491419D03*
X156322419Y-109491419D03*
X57817000Y-107211000D03*
D18*
X61042000Y-107211000D03*
D17*
X64267000Y-107211000D03*
X150817000Y-107211000D03*
D18*
X154042000Y-107211000D03*
D17*
X157267000Y-107211000D03*
X58761581Y-104930581D03*
X63322419Y-104930581D03*
X151761581Y-104930581D03*
X156322419Y-104930581D03*
X61042000Y-103986000D03*
X154042000Y-103986000D03*
D19*
X104700000Y-66300000D03*
X102800000Y-66300000D03*
D20*
X102301000Y-73914000D03*
X104201000Y-73914000D03*
D19*
X103300000Y-68500000D03*
X101400000Y-68500000D03*
D21*
X104712500Y-64300000D03*
X102887500Y-64300000D03*
D22*
X124762800Y-71550000D03*
X145669000Y-79619000D03*
X129762800Y-71550000D03*
X130262800Y-70701600D03*
X109212800Y-70701600D03*
X114712800Y-71550000D03*
X116262800Y-70701600D03*
X66040000Y-83693000D03*
X98000000Y-85231000D03*
X112212800Y-70701600D03*
X121262800Y-70701600D03*
X126262800Y-70701600D03*
X120762800Y-71550000D03*
X125762800Y-71550000D03*
X114212800Y-70701600D03*
X69088000Y-106426000D03*
X71764600Y-97536000D03*
X81745250Y-83862750D03*
X82169000Y-70993000D03*
X110712800Y-71550000D03*
X156083000Y-83284000D03*
X98044000Y-75946000D03*
X123262800Y-70701600D03*
X118262800Y-70701600D03*
X147500000Y-80750000D03*
X128262800Y-70701600D03*
X122262800Y-70701600D03*
X127262800Y-70701600D03*
X65151000Y-101346000D03*
X148500000Y-80750000D03*
X146500000Y-80750000D03*
X118762800Y-71550000D03*
X115762800Y-71550000D03*
X74313250Y-73895750D03*
X111212800Y-70701600D03*
X121762800Y-71550000D03*
X130747600Y-71550000D03*
X70646000Y-68072000D03*
X125262800Y-70701600D03*
X113712800Y-71550000D03*
X61595000Y-79629000D03*
X113212800Y-70701600D03*
X126762800Y-71550000D03*
X145500000Y-80750000D03*
X128762800Y-71550000D03*
X117762800Y-71550000D03*
X122762800Y-71550000D03*
X141000000Y-61500000D03*
X119262800Y-70701600D03*
D23*
X85725000Y-80772000D03*
D22*
X86360000Y-66294000D03*
X124262800Y-70701600D03*
X110212800Y-70701600D03*
X79375000Y-69215000D03*
X111712800Y-71550000D03*
X80391000Y-88138000D03*
X76835000Y-70993000D03*
X148696200Y-79318520D03*
X127762800Y-71550000D03*
X120262800Y-70701600D03*
X116762800Y-71550000D03*
X112712800Y-71550000D03*
X117262800Y-70701600D03*
X109712800Y-71550000D03*
X129262800Y-70701600D03*
X149500000Y-80750000D03*
X123762800Y-71550000D03*
X119762800Y-71550000D03*
X115262800Y-70701600D03*
X62006000Y-68072000D03*
X100405646Y-71375741D03*
X92525200Y-68720400D03*
X96742400Y-68843608D03*
X90086800Y-68771200D03*
X103648100Y-66100000D03*
X94557200Y-68720400D03*
X99948994Y-74041227D03*
X102362764Y-75464962D03*
X103759000Y-75087100D03*
X85855810Y-78485665D03*
X104782487Y-75198019D03*
X77851000Y-82042000D03*
X101854000Y-76454000D03*
X136144000Y-63627000D03*
X150876000Y-82667000D03*
X86500000Y-63500000D03*
X136194800Y-60706000D03*
X105121200Y-67502080D03*
X98062400Y-69634800D03*
X134213600Y-74879200D03*
X134213600Y-72796400D03*
X98128200Y-71463600D03*
D23*
X130000000Y-79000000D03*
X130000000Y-83000000D03*
X132000000Y-79000000D03*
X128000000Y-83000000D03*
X118000000Y-77000000D03*
X126000000Y-77000000D03*
X124000000Y-77000000D03*
X132000000Y-81000000D03*
X122000000Y-79000000D03*
X120000000Y-79000000D03*
X124000000Y-83000000D03*
X132000000Y-83000000D03*
X120000000Y-77000000D03*
X122000000Y-81000000D03*
X120000000Y-83000000D03*
X130000000Y-77000000D03*
X124000000Y-81000000D03*
X128000000Y-79000000D03*
X118000000Y-79000000D03*
X120000000Y-81000000D03*
X130000000Y-81000000D03*
X116000000Y-83000000D03*
X116000000Y-77000000D03*
X126000000Y-81000000D03*
X126000000Y-79000000D03*
X124000000Y-79000000D03*
X116000000Y-79000000D03*
X118000000Y-83000000D03*
X122000000Y-77000000D03*
X128000000Y-77000000D03*
X128000000Y-81000000D03*
X118000000Y-81000000D03*
X126000000Y-83000000D03*
X116000000Y-81000000D03*
X132000000Y-77000000D03*
X122000000Y-83000000D03*
D22*
X93000000Y-80900000D03*
X93000000Y-84900000D03*
X75788500Y-69311500D03*
X92000000Y-81900000D03*
X76407000Y-87122000D03*
X95000000Y-80900000D03*
X93000000Y-81900000D03*
X83566000Y-78722000D03*
X78597200Y-72713088D03*
X86106000Y-68660000D03*
X82383500Y-82601000D03*
X94000000Y-80900000D03*
X95000000Y-82900000D03*
X71764600Y-94996000D03*
X72009000Y-102616000D03*
X71755000Y-87884000D03*
X93000000Y-82900000D03*
X95000000Y-84900000D03*
X92000000Y-83900000D03*
X94000000Y-84900000D03*
X98000000Y-82931000D03*
X66040000Y-75565000D03*
X94000000Y-83900000D03*
X93000000Y-83900000D03*
X94000000Y-82900000D03*
X92000000Y-82900000D03*
X95000000Y-81900000D03*
X74033500Y-75516000D03*
X77851000Y-68565000D03*
X92000000Y-80900000D03*
X92000000Y-84900000D03*
X75692000Y-88034500D03*
X95000000Y-83900000D03*
X94000000Y-81900000D03*
X70231000Y-83439000D03*
X72644000Y-77343000D03*
X75311000Y-79121000D03*
X71332062Y-83956649D03*
X76175970Y-78637030D03*
X72657935Y-84314065D03*
X79375000Y-80264000D03*
X84060482Y-76943425D03*
X73025000Y-100965000D03*
X84584078Y-77738986D03*
X78613000Y-81280000D03*
X73092899Y-103660211D03*
X102000000Y-64600000D03*
X100564000Y-81436000D03*
X103748620Y-67176509D03*
X89500000Y-67500000D03*
X138049000Y-78077000D03*
X82500000Y-67500000D03*
X84836000Y-74168000D03*
X80303652Y-77012800D03*
X87249000Y-74168000D03*
X81026000Y-76248900D03*
X75565000Y-76962000D03*
X60428400Y-77390600D03*
X79334722Y-78578000D03*
X79248000Y-70510400D03*
X78282800Y-77368400D03*
X77113400Y-67213100D03*
D24*
X101400000Y-68500000D02*
X102728000Y-69828000D01*
X102728000Y-69828000D02*
X103291800Y-69828000D01*
D25*
X103000000Y-66100000D02*
X102800000Y-66300000D01*
X103648100Y-66100000D02*
X103000000Y-66100000D01*
D24*
X102301000Y-75403198D02*
X102362764Y-75464962D01*
X102301000Y-73914000D02*
X102301000Y-75403198D01*
D25*
X102362764Y-75464962D02*
X102362764Y-74233236D01*
X102362764Y-74233236D02*
X102682000Y-73914000D01*
D24*
X100939029Y-74041227D02*
X99948994Y-74041227D01*
X102362764Y-75464962D02*
X100939029Y-74041227D01*
X104201000Y-73914000D02*
X104201000Y-74645100D01*
X104201000Y-74645100D02*
X103759000Y-75087100D01*
D25*
X103759000Y-74737000D02*
X104582000Y-73914000D01*
X103759000Y-75087100D02*
X103759000Y-74737000D01*
D26*
X81345119Y-82042000D02*
X77851000Y-82042000D01*
X104782487Y-75198019D02*
X104782487Y-75303513D01*
X85855810Y-78485665D02*
X84901454Y-78485665D01*
X104782487Y-75303513D02*
X103759000Y-76327000D01*
X103759000Y-76327000D02*
X103632000Y-76454000D01*
X103632000Y-76454000D02*
X101854000Y-76454000D01*
X84901454Y-78485665D02*
X81345119Y-82042000D01*
D27*
X78359000Y-63627000D02*
X80026400Y-65294400D01*
X84705600Y-65294400D02*
X86500000Y-63500000D01*
X80026400Y-65294400D02*
X84705600Y-65294400D01*
D24*
X104700000Y-67080880D02*
X105121200Y-67502080D01*
X104712500Y-66287500D02*
X104700000Y-66300000D01*
X104712500Y-64300000D02*
X104712500Y-66287500D01*
X104700000Y-66300000D02*
X104700000Y-67080880D01*
D27*
X72009000Y-102616000D02*
X70358000Y-100965000D01*
X70358000Y-96402600D02*
X71764600Y-94996000D01*
X70358000Y-100965000D02*
X70358000Y-96402600D01*
D26*
X72644000Y-80772000D02*
X70231000Y-83185000D01*
X70231000Y-83185000D02*
X70231000Y-83439000D01*
X72644000Y-77343000D02*
X72644000Y-80772000D01*
X75311000Y-79121000D02*
X75311000Y-80596945D01*
X75311000Y-80596945D02*
X71951296Y-83956649D01*
X71951296Y-83956649D02*
X71332062Y-83956649D01*
X76175970Y-78637030D02*
X76175970Y-80669030D01*
X76175970Y-80669030D02*
X72657935Y-84187065D01*
X72657935Y-84187065D02*
X72657935Y-84314065D01*
D25*
X82695575Y-76943425D02*
X84060482Y-76943425D01*
X79375000Y-80264000D02*
X82695575Y-76943425D01*
D26*
X73025000Y-100965000D02*
X73025000Y-103592312D01*
D25*
X83170014Y-77738986D02*
X84584078Y-77738986D01*
D26*
X73025000Y-103592312D02*
X73092899Y-103660211D01*
D25*
X78613000Y-81280000D02*
X79629000Y-81280000D01*
X79629000Y-81280000D02*
X83170014Y-77738986D01*
D24*
X103300000Y-67625129D02*
X103748620Y-67176509D01*
D27*
X82500000Y-67500000D02*
X89500000Y-67500000D01*
D24*
X102300000Y-64300000D02*
X102000000Y-64600000D01*
X103300000Y-68500000D02*
X103300000Y-67625129D01*
X102887500Y-64300000D02*
X102300000Y-64300000D01*
D26*
X84455000Y-74168000D02*
X84836000Y-74168000D01*
X80303652Y-77012800D02*
X81610200Y-77012800D01*
X81610200Y-77012800D02*
X84455000Y-74168000D01*
X86496600Y-73415600D02*
X87249000Y-74168000D01*
X81026000Y-76248900D02*
X83859300Y-73415600D01*
X83859300Y-73415600D02*
X86496600Y-73415600D01*
X75565000Y-76962000D02*
X74930000Y-76327000D01*
X61492000Y-76327000D02*
X60428400Y-77390600D01*
X74930000Y-76327000D02*
X61492000Y-76327000D01*
X79551752Y-70814152D02*
X79551752Y-78360970D01*
X79248000Y-70510400D02*
X79551752Y-70814152D01*
X79551752Y-78360970D02*
X79334722Y-78578000D01*
X77673200Y-76758800D02*
X78282800Y-77368400D01*
X77098600Y-70189800D02*
X77673200Y-70764400D01*
X77673200Y-70764400D02*
X77673200Y-76758800D01*
X77113400Y-67213100D02*
X77098600Y-67227900D01*
X77098600Y-67227900D02*
X77098600Y-70189800D01*
G04 #@! TA.AperFunction,Conductor*
G36*
X158192539Y-59770185D02*
G01*
X158238294Y-59822989D01*
X158249500Y-59874500D01*
X158249500Y-91935921D01*
X158229815Y-92002960D01*
X158177011Y-92048715D01*
X158107853Y-92058659D01*
X158044297Y-92029634D01*
X158017171Y-91996260D01*
X157915050Y-91812918D01*
X157915049Y-91812917D01*
X157915046Y-91812911D01*
X157677257Y-91465782D01*
X157677251Y-91465775D01*
X157677247Y-91465769D01*
X157408461Y-91142084D01*
X157408452Y-91142073D01*
X157110927Y-90844548D01*
X157110915Y-90844538D01*
X156787230Y-90575752D01*
X156787220Y-90575745D01*
X156787218Y-90575743D01*
X156440089Y-90337954D01*
X156440085Y-90337952D01*
X156440081Y-90337949D01*
X156072508Y-90133213D01*
X156072507Y-90133212D01*
X156072499Y-90133208D01*
X156072490Y-90133204D01*
X156072480Y-90133199D01*
X155687601Y-89963257D01*
X155687597Y-89963256D01*
X155687588Y-89963253D01*
X155687586Y-89963252D01*
X155288634Y-89829537D01*
X155288633Y-89829536D01*
X155288631Y-89829536D01*
X154879050Y-89733204D01*
X154879047Y-89733203D01*
X154879045Y-89733203D01*
X154651493Y-89701460D01*
X154462324Y-89675072D01*
X154462322Y-89675071D01*
X154462316Y-89675071D01*
X154042000Y-89655639D01*
X153621684Y-89675071D01*
X153621677Y-89675071D01*
X153621675Y-89675072D01*
X153204955Y-89733203D01*
X153204949Y-89733204D01*
X152795368Y-89829536D01*
X152396402Y-89963256D01*
X152396398Y-89963257D01*
X152011519Y-90133199D01*
X152011491Y-90133213D01*
X151643918Y-90337949D01*
X151643912Y-90337953D01*
X151296779Y-90575745D01*
X151296769Y-90575752D01*
X150973084Y-90844538D01*
X150973064Y-90844556D01*
X150675556Y-91142064D01*
X150675538Y-91142084D01*
X150406752Y-91465769D01*
X150406745Y-91465779D01*
X150168953Y-91812912D01*
X150168949Y-91812918D01*
X149964213Y-92180491D01*
X149964199Y-92180519D01*
X149794257Y-92565398D01*
X149794256Y-92565402D01*
X149660536Y-92964368D01*
X149564204Y-93373949D01*
X149564203Y-93373955D01*
X149506071Y-93790684D01*
X149486639Y-94211000D01*
X149506071Y-94631316D01*
X149506071Y-94631322D01*
X149506072Y-94631324D01*
X149564203Y-95048044D01*
X149564204Y-95048050D01*
X149660536Y-95457631D01*
X149794256Y-95856597D01*
X149794257Y-95856601D01*
X149964199Y-96241480D01*
X149964204Y-96241490D01*
X149964208Y-96241499D01*
X149964212Y-96241507D01*
X149964213Y-96241508D01*
X150168949Y-96609081D01*
X150168952Y-96609085D01*
X150168954Y-96609089D01*
X150406743Y-96956218D01*
X150406745Y-96956220D01*
X150406752Y-96956230D01*
X150675538Y-97279915D01*
X150675548Y-97279927D01*
X150973073Y-97577452D01*
X150973084Y-97577461D01*
X151296769Y-97846247D01*
X151296775Y-97846251D01*
X151296782Y-97846257D01*
X151643911Y-98084046D01*
X152011501Y-98288792D01*
X152011518Y-98288799D01*
X152011519Y-98288800D01*
X152396398Y-98458742D01*
X152396402Y-98458743D01*
X152396404Y-98458743D01*
X152396414Y-98458748D01*
X152795366Y-98592463D01*
X153204955Y-98688797D01*
X153621684Y-98746929D01*
X154042000Y-98766361D01*
X154462316Y-98746929D01*
X154879045Y-98688797D01*
X155288634Y-98592463D01*
X155687586Y-98458748D01*
X155687597Y-98458742D01*
X155687601Y-98458742D01*
X155924482Y-98354147D01*
X156072499Y-98288792D01*
X156440089Y-98084046D01*
X156787218Y-97846257D01*
X157110927Y-97577452D01*
X157408452Y-97279927D01*
X157677257Y-96956218D01*
X157915046Y-96609089D01*
X158017171Y-96425738D01*
X158066989Y-96376751D01*
X158135384Y-96362473D01*
X158200641Y-96387438D01*
X158242042Y-96443722D01*
X158249500Y-96486078D01*
X158249500Y-111625500D01*
X158229815Y-111692539D01*
X158177011Y-111738294D01*
X158125500Y-111749500D01*
X56874500Y-111749500D01*
X56807461Y-111729815D01*
X56761706Y-111677011D01*
X56750500Y-111625500D01*
X56750500Y-100943025D01*
X69602710Y-100943025D01*
X69607264Y-100995064D01*
X69607500Y-101000470D01*
X69607500Y-101008709D01*
X69611306Y-101041274D01*
X69618000Y-101117791D01*
X69619461Y-101124867D01*
X69619403Y-101124878D01*
X69621034Y-101132237D01*
X69621092Y-101132224D01*
X69622757Y-101139250D01*
X69649025Y-101211424D01*
X69673185Y-101284331D01*
X69676236Y-101290874D01*
X69676182Y-101290898D01*
X69679470Y-101297688D01*
X69679521Y-101297663D01*
X69682761Y-101304113D01*
X69682762Y-101304114D01*
X69682763Y-101304117D01*
X69724965Y-101368283D01*
X69765287Y-101433655D01*
X69769766Y-101439319D01*
X69769719Y-101439356D01*
X69774482Y-101445202D01*
X69774528Y-101445164D01*
X69779173Y-101450700D01*
X69835018Y-101503386D01*
X71509217Y-103177585D01*
X71509221Y-103177588D01*
X71509224Y-103177591D01*
X71612323Y-103259111D01*
X71771328Y-103333257D01*
X71771329Y-103333257D01*
X71771331Y-103333258D01*
X71857236Y-103350995D01*
X71943145Y-103368734D01*
X72118513Y-103363631D01*
X72287976Y-103318223D01*
X72295579Y-103314123D01*
X72363926Y-103299631D01*
X72429261Y-103324391D01*
X72470839Y-103380544D01*
X72475457Y-103450260D01*
X72470373Y-103467237D01*
X72456662Y-103503389D01*
X72456662Y-103503391D01*
X72437621Y-103660210D01*
X72437621Y-103660211D01*
X72456661Y-103817029D01*
X72512679Y-103964734D01*
X72602416Y-104094741D01*
X72720659Y-104199494D01*
X72720661Y-104199495D01*
X72860533Y-104272907D01*
X73013913Y-104310711D01*
X73013914Y-104310711D01*
X73171884Y-104310711D01*
X73325264Y-104272907D01*
X73325264Y-104272906D01*
X73465139Y-104199494D01*
X73583382Y-104094741D01*
X73673119Y-103964734D01*
X73729136Y-103817029D01*
X73748177Y-103660211D01*
X73729136Y-103503393D01*
X73729135Y-103503391D01*
X73707891Y-103447375D01*
X73673119Y-103355688D01*
X73583382Y-103225681D01*
X73583381Y-103225679D01*
X73534567Y-103182434D01*
X73517272Y-103167113D01*
X73480147Y-103107925D01*
X73475500Y-103074298D01*
X73475500Y-101490759D01*
X73495185Y-101423720D01*
X73510846Y-101405444D01*
X73510509Y-101405145D01*
X73515481Y-101399532D01*
X73515481Y-101399531D01*
X73515483Y-101399530D01*
X73605220Y-101269523D01*
X73661237Y-101121818D01*
X73680278Y-100965000D01*
X73661237Y-100808182D01*
X73605220Y-100660477D01*
X73515483Y-100530470D01*
X73397240Y-100425717D01*
X73397238Y-100425716D01*
X73397237Y-100425715D01*
X73257365Y-100352303D01*
X73103986Y-100314500D01*
X73103985Y-100314500D01*
X72946015Y-100314500D01*
X72946014Y-100314500D01*
X72792634Y-100352303D01*
X72652762Y-100425715D01*
X72534516Y-100530471D01*
X72444781Y-100660475D01*
X72444780Y-100660476D01*
X72388762Y-100808181D01*
X72369722Y-100964999D01*
X72369722Y-100965000D01*
X72388762Y-101121818D01*
X72422746Y-101211424D01*
X72444780Y-101269523D01*
X72485051Y-101327865D01*
X72534518Y-101399532D01*
X72539491Y-101405145D01*
X72538044Y-101406426D01*
X72569850Y-101457120D01*
X72574500Y-101490759D01*
X72574500Y-101820770D01*
X72554815Y-101887809D01*
X72502011Y-101933564D01*
X72432853Y-101943508D01*
X72369297Y-101914483D01*
X72362819Y-101908451D01*
X71144819Y-100690450D01*
X71111334Y-100629127D01*
X71108500Y-100602769D01*
X71108500Y-96764830D01*
X71128185Y-96697791D01*
X71144819Y-96677149D01*
X72326185Y-95495783D01*
X72326185Y-95495782D01*
X72326191Y-95495777D01*
X72407711Y-95392677D01*
X72481857Y-95233673D01*
X72517334Y-95061856D01*
X72512231Y-94886487D01*
X72466823Y-94717024D01*
X72466823Y-94717023D01*
X72383558Y-94562599D01*
X72266926Y-94431541D01*
X72266923Y-94431539D01*
X72123212Y-94330912D01*
X72123209Y-94330910D01*
X72123204Y-94330908D01*
X71960170Y-94266138D01*
X71786570Y-94240710D01*
X71611804Y-94256000D01*
X71445268Y-94311185D01*
X71445263Y-94311187D01*
X71295943Y-94403289D01*
X69872358Y-95826872D01*
X69858729Y-95838651D01*
X69839468Y-95852990D01*
X69805898Y-95892997D01*
X69802253Y-95896976D01*
X69796409Y-95902822D01*
X69776059Y-95928559D01*
X69726695Y-95987389D01*
X69722729Y-95993419D01*
X69722682Y-95993388D01*
X69718630Y-95999747D01*
X69718679Y-95999777D01*
X69714889Y-96005921D01*
X69682424Y-96075541D01*
X69647960Y-96144166D01*
X69645488Y-96150957D01*
X69645432Y-96150936D01*
X69642960Y-96158050D01*
X69643015Y-96158069D01*
X69640742Y-96164927D01*
X69632974Y-96202545D01*
X69625207Y-96240165D01*
X69618556Y-96268229D01*
X69607498Y-96314886D01*
X69606661Y-96322054D01*
X69606601Y-96322047D01*
X69605835Y-96329545D01*
X69605895Y-96329551D01*
X69605265Y-96336740D01*
X69607500Y-96413516D01*
X69607500Y-100901294D01*
X69606191Y-100919263D01*
X69602710Y-100943025D01*
X56750500Y-100943025D01*
X56750500Y-96335268D01*
X56770185Y-96268229D01*
X56822989Y-96222474D01*
X56892147Y-96212530D01*
X56955703Y-96241555D01*
X56982826Y-96274926D01*
X57060021Y-96413516D01*
X57168949Y-96609081D01*
X57168952Y-96609085D01*
X57168954Y-96609089D01*
X57406743Y-96956218D01*
X57406745Y-96956220D01*
X57406752Y-96956230D01*
X57675538Y-97279915D01*
X57675548Y-97279927D01*
X57973073Y-97577452D01*
X57973084Y-97577461D01*
X58296769Y-97846247D01*
X58296775Y-97846251D01*
X58296782Y-97846257D01*
X58643911Y-98084046D01*
X59011501Y-98288792D01*
X59011518Y-98288799D01*
X59011519Y-98288800D01*
X59396398Y-98458742D01*
X59396402Y-98458743D01*
X59396404Y-98458743D01*
X59396414Y-98458748D01*
X59795366Y-98592463D01*
X60204955Y-98688797D01*
X60621684Y-98746929D01*
X61042000Y-98766361D01*
X61462316Y-98746929D01*
X61879045Y-98688797D01*
X62288634Y-98592463D01*
X62687586Y-98458748D01*
X62687597Y-98458742D01*
X62687601Y-98458742D01*
X62924482Y-98354147D01*
X63072499Y-98288792D01*
X63440089Y-98084046D01*
X63787218Y-97846257D01*
X64110927Y-97577452D01*
X64408452Y-97279927D01*
X64677257Y-96956218D01*
X64915046Y-96609089D01*
X65119792Y-96241499D01*
X65231994Y-95987386D01*
X65289742Y-95856601D01*
X65289743Y-95856597D01*
X65289748Y-95856586D01*
X65423463Y-95457634D01*
X65519797Y-95048045D01*
X65577929Y-94631316D01*
X65597361Y-94211000D01*
X65577929Y-93790684D01*
X65519797Y-93373955D01*
X65423463Y-92964366D01*
X65289748Y-92565414D01*
X65289743Y-92565402D01*
X65289742Y-92565398D01*
X65119800Y-92180519D01*
X65119799Y-92180518D01*
X65119792Y-92180501D01*
X64915046Y-91812911D01*
X64677257Y-91465782D01*
X64677251Y-91465775D01*
X64677247Y-91465769D01*
X64408461Y-91142084D01*
X64408452Y-91142073D01*
X64110927Y-90844548D01*
X64110915Y-90844538D01*
X63787230Y-90575752D01*
X63787220Y-90575745D01*
X63787218Y-90575743D01*
X63440089Y-90337954D01*
X63440085Y-90337952D01*
X63440081Y-90337949D01*
X63072508Y-90133213D01*
X63072507Y-90133212D01*
X63072499Y-90133208D01*
X63072490Y-90133204D01*
X63072480Y-90133199D01*
X62687601Y-89963257D01*
X62687597Y-89963256D01*
X62687588Y-89963253D01*
X62687586Y-89963252D01*
X62288634Y-89829537D01*
X62288633Y-89829536D01*
X62288631Y-89829536D01*
X61879050Y-89733204D01*
X61879047Y-89733203D01*
X61879045Y-89733203D01*
X61651493Y-89701460D01*
X61462324Y-89675072D01*
X61462322Y-89675071D01*
X61462316Y-89675071D01*
X61042000Y-89655639D01*
X61041999Y-89655639D01*
X61011161Y-89657064D01*
X60621684Y-89675071D01*
X60621677Y-89675071D01*
X60621675Y-89675072D01*
X60204955Y-89733203D01*
X60204949Y-89733204D01*
X59795368Y-89829536D01*
X59396402Y-89963256D01*
X59396398Y-89963257D01*
X59011519Y-90133199D01*
X59011491Y-90133213D01*
X58643918Y-90337949D01*
X58643912Y-90337953D01*
X58296779Y-90575745D01*
X58296769Y-90575752D01*
X57973084Y-90844538D01*
X57973064Y-90844556D01*
X57675556Y-91142064D01*
X57675538Y-91142084D01*
X57406752Y-91465769D01*
X57406745Y-91465779D01*
X57168953Y-91812912D01*
X57168949Y-91812918D01*
X56982829Y-92147070D01*
X56933011Y-92196058D01*
X56864615Y-92210336D01*
X56799358Y-92185370D01*
X56757958Y-92129087D01*
X56750500Y-92086731D01*
X56750500Y-87884000D01*
X71099722Y-87884000D01*
X71118762Y-88040818D01*
X71174779Y-88188522D01*
X71174780Y-88188523D01*
X71264517Y-88318530D01*
X71382760Y-88423283D01*
X71382762Y-88423284D01*
X71522634Y-88496696D01*
X71676014Y-88534500D01*
X71676015Y-88534500D01*
X71833985Y-88534500D01*
X71987365Y-88496696D01*
X72040081Y-88469028D01*
X72127240Y-88423283D01*
X72245483Y-88318530D01*
X72335220Y-88188523D01*
X72391237Y-88040818D01*
X72392004Y-88034500D01*
X75036722Y-88034500D01*
X75055762Y-88191318D01*
X75104007Y-88318528D01*
X75111780Y-88339023D01*
X75201517Y-88469030D01*
X75319760Y-88573783D01*
X75319762Y-88573784D01*
X75459634Y-88647196D01*
X75613014Y-88685000D01*
X75613015Y-88685000D01*
X75770985Y-88685000D01*
X75924365Y-88647196D01*
X75924364Y-88647196D01*
X76064240Y-88573783D01*
X76182483Y-88469030D01*
X76272220Y-88339023D01*
X76328237Y-88191318D01*
X76347278Y-88034500D01*
X76332337Y-87911446D01*
X76343798Y-87842523D01*
X76390702Y-87790737D01*
X76455433Y-87772500D01*
X76485985Y-87772500D01*
X76639365Y-87734696D01*
X76648360Y-87729975D01*
X76779240Y-87661283D01*
X76897483Y-87556530D01*
X76987220Y-87426523D01*
X77043237Y-87278818D01*
X77062278Y-87122000D01*
X77043237Y-86965182D01*
X76987220Y-86817477D01*
X76897483Y-86687470D01*
X76779240Y-86582717D01*
X76779238Y-86582716D01*
X76779237Y-86582715D01*
X76639365Y-86509303D01*
X76485986Y-86471500D01*
X76485985Y-86471500D01*
X76328015Y-86471500D01*
X76328014Y-86471500D01*
X76174634Y-86509303D01*
X76034762Y-86582715D01*
X75916516Y-86687471D01*
X75826781Y-86817475D01*
X75826780Y-86817476D01*
X75770762Y-86965181D01*
X75751722Y-87121999D01*
X75751722Y-87122000D01*
X75766663Y-87245054D01*
X75755202Y-87313977D01*
X75708298Y-87365763D01*
X75643567Y-87384000D01*
X75613014Y-87384000D01*
X75459634Y-87421803D01*
X75319762Y-87495215D01*
X75201516Y-87599971D01*
X75111781Y-87729975D01*
X75111780Y-87729976D01*
X75055762Y-87877681D01*
X75036722Y-88034499D01*
X75036722Y-88034500D01*
X72392004Y-88034500D01*
X72410278Y-87884000D01*
X72391237Y-87727182D01*
X72335220Y-87579477D01*
X72245483Y-87449470D01*
X72127240Y-87344717D01*
X72127238Y-87344716D01*
X72127237Y-87344715D01*
X71987365Y-87271303D01*
X71833986Y-87233500D01*
X71833985Y-87233500D01*
X71676015Y-87233500D01*
X71676014Y-87233500D01*
X71522634Y-87271303D01*
X71382762Y-87344715D01*
X71264516Y-87449471D01*
X71174781Y-87579475D01*
X71174780Y-87579476D01*
X71118762Y-87727181D01*
X71099722Y-87883999D01*
X71099722Y-87884000D01*
X56750500Y-87884000D01*
X56750500Y-77390600D01*
X59773122Y-77390600D01*
X59792162Y-77547418D01*
X59848180Y-77695123D01*
X59937917Y-77825130D01*
X60056160Y-77929883D01*
X60056162Y-77929884D01*
X60196034Y-78003296D01*
X60349414Y-78041100D01*
X60349415Y-78041100D01*
X60507385Y-78041100D01*
X60660765Y-78003296D01*
X60672763Y-77996999D01*
X60800640Y-77929883D01*
X60918883Y-77825130D01*
X61008620Y-77695123D01*
X61064637Y-77547418D01*
X61081032Y-77412389D01*
X61108654Y-77348212D01*
X61116436Y-77339666D01*
X61642283Y-76813819D01*
X61703607Y-76780334D01*
X61729965Y-76777500D01*
X72007657Y-76777500D01*
X72074696Y-76797185D01*
X72120451Y-76849989D01*
X72130395Y-76919147D01*
X72109707Y-76971940D01*
X72063781Y-77038475D01*
X72063780Y-77038476D01*
X72007762Y-77186181D01*
X71988722Y-77342999D01*
X71988722Y-77343000D01*
X72007762Y-77499818D01*
X72055426Y-77625496D01*
X72063780Y-77647523D01*
X72099805Y-77699715D01*
X72153518Y-77777532D01*
X72158491Y-77783145D01*
X72157044Y-77784426D01*
X72188850Y-77835120D01*
X72193500Y-77868759D01*
X72193500Y-80534034D01*
X72173815Y-80601073D01*
X72157181Y-80621715D01*
X69932805Y-82846091D01*
X69927618Y-82850726D01*
X69889769Y-82880912D01*
X69888800Y-82879698D01*
X69870059Y-82893786D01*
X69858764Y-82899714D01*
X69858760Y-82899717D01*
X69745561Y-83000002D01*
X69740516Y-83004471D01*
X69650781Y-83134475D01*
X69650780Y-83134476D01*
X69594762Y-83282181D01*
X69575722Y-83438999D01*
X69575722Y-83439000D01*
X69594762Y-83595818D01*
X69648046Y-83736313D01*
X69650780Y-83743523D01*
X69740517Y-83873530D01*
X69858760Y-83978283D01*
X69858762Y-83978284D01*
X69998634Y-84051696D01*
X70152014Y-84089500D01*
X70152015Y-84089500D01*
X70309985Y-84089500D01*
X70463365Y-84051696D01*
X70515779Y-84024187D01*
X70584287Y-84010461D01*
X70649340Y-84035953D01*
X70690285Y-84092569D01*
X70693513Y-84106312D01*
X70694030Y-84106185D01*
X70695824Y-84113467D01*
X70730357Y-84204521D01*
X70751842Y-84261172D01*
X70841579Y-84391179D01*
X70959822Y-84495932D01*
X70959824Y-84495933D01*
X71099696Y-84569345D01*
X71253076Y-84607149D01*
X71253077Y-84607149D01*
X71411047Y-84607149D01*
X71564427Y-84569345D01*
X71564426Y-84569345D01*
X71704302Y-84495932D01*
X71769318Y-84438332D01*
X71832552Y-84408612D01*
X71851545Y-84407149D01*
X71911936Y-84407149D01*
X71978975Y-84426834D01*
X72024730Y-84479638D01*
X72027876Y-84487174D01*
X72077715Y-84618588D01*
X72167452Y-84748595D01*
X72285695Y-84853348D01*
X72285697Y-84853349D01*
X72425569Y-84926761D01*
X72578949Y-84964565D01*
X72578950Y-84964565D01*
X72736920Y-84964565D01*
X72890300Y-84926761D01*
X72941288Y-84900000D01*
X91344722Y-84900000D01*
X91363762Y-85056818D01*
X91419780Y-85204523D01*
X91509517Y-85334530D01*
X91627760Y-85439283D01*
X91627762Y-85439284D01*
X91767634Y-85512696D01*
X91921014Y-85550500D01*
X91921015Y-85550500D01*
X92078985Y-85550500D01*
X92232365Y-85512696D01*
X92372237Y-85439285D01*
X92372238Y-85439283D01*
X92372240Y-85439283D01*
X92417774Y-85398943D01*
X92481004Y-85369224D01*
X92550268Y-85378406D01*
X92582225Y-85398944D01*
X92627759Y-85439282D01*
X92627761Y-85439284D01*
X92767634Y-85512696D01*
X92921014Y-85550500D01*
X92921015Y-85550500D01*
X93078985Y-85550500D01*
X93232365Y-85512696D01*
X93372237Y-85439285D01*
X93372238Y-85439283D01*
X93372240Y-85439283D01*
X93417774Y-85398943D01*
X93481006Y-85369223D01*
X93550270Y-85378407D01*
X93582224Y-85398942D01*
X93616890Y-85429653D01*
X93627762Y-85439285D01*
X93767634Y-85512696D01*
X93921014Y-85550500D01*
X93921015Y-85550500D01*
X94078985Y-85550500D01*
X94232365Y-85512696D01*
X94372237Y-85439285D01*
X94372238Y-85439283D01*
X94372240Y-85439283D01*
X94417774Y-85398943D01*
X94481004Y-85369224D01*
X94550268Y-85378406D01*
X94582225Y-85398944D01*
X94627759Y-85439282D01*
X94627761Y-85439284D01*
X94767634Y-85512696D01*
X94921014Y-85550500D01*
X94921015Y-85550500D01*
X95078985Y-85550500D01*
X95232365Y-85512696D01*
X95232364Y-85512696D01*
X95372240Y-85439283D01*
X95490483Y-85334530D01*
X95580220Y-85204523D01*
X95636237Y-85056818D01*
X95655278Y-84900000D01*
X95649614Y-84853348D01*
X95636237Y-84743181D01*
X95588985Y-84618589D01*
X95580220Y-84595477D01*
X95505467Y-84487178D01*
X95493913Y-84470439D01*
X95472030Y-84404084D01*
X95489496Y-84336433D01*
X95493887Y-84329597D01*
X95580220Y-84204523D01*
X95636237Y-84056818D01*
X95655278Y-83900000D01*
X95636279Y-83743523D01*
X95636237Y-83743181D01*
X95580349Y-83595818D01*
X95580220Y-83595477D01*
X95493912Y-83470438D01*
X95472030Y-83404086D01*
X95489495Y-83336434D01*
X95493905Y-83329571D01*
X95580220Y-83204523D01*
X95636237Y-83056818D01*
X95651514Y-82931000D01*
X97344722Y-82931000D01*
X97363762Y-83087818D01*
X97419780Y-83235523D01*
X97509517Y-83365530D01*
X97627760Y-83470283D01*
X97627762Y-83470284D01*
X97767634Y-83543696D01*
X97921014Y-83581500D01*
X97921015Y-83581500D01*
X98078985Y-83581500D01*
X98232365Y-83543696D01*
X98232364Y-83543696D01*
X98372240Y-83470283D01*
X98490483Y-83365530D01*
X98580220Y-83235523D01*
X98636237Y-83087818D01*
X98646900Y-83000002D01*
X115244751Y-83000002D01*
X115263685Y-83168056D01*
X115319545Y-83327694D01*
X115319547Y-83327697D01*
X115409518Y-83470884D01*
X115409523Y-83470890D01*
X115529109Y-83590476D01*
X115529115Y-83590481D01*
X115672302Y-83680452D01*
X115672305Y-83680454D01*
X115672309Y-83680455D01*
X115672310Y-83680456D01*
X115744913Y-83705860D01*
X115831943Y-83736314D01*
X115999997Y-83755249D01*
X116000000Y-83755249D01*
X116000003Y-83755249D01*
X116168056Y-83736314D01*
X116168059Y-83736313D01*
X116327690Y-83680456D01*
X116327692Y-83680454D01*
X116327694Y-83680454D01*
X116327697Y-83680452D01*
X116470884Y-83590481D01*
X116470885Y-83590480D01*
X116470890Y-83590477D01*
X116590477Y-83470890D01*
X116590858Y-83470284D01*
X116680452Y-83327697D01*
X116680454Y-83327694D01*
X116680454Y-83327692D01*
X116680456Y-83327690D01*
X116736313Y-83168059D01*
X116736313Y-83168058D01*
X116736314Y-83168056D01*
X116755249Y-83000002D01*
X117244751Y-83000002D01*
X117263685Y-83168056D01*
X117319545Y-83327694D01*
X117319547Y-83327697D01*
X117409518Y-83470884D01*
X117409523Y-83470890D01*
X117529109Y-83590476D01*
X117529115Y-83590481D01*
X117672302Y-83680452D01*
X117672305Y-83680454D01*
X117672309Y-83680455D01*
X117672310Y-83680456D01*
X117744913Y-83705860D01*
X117831943Y-83736314D01*
X117999997Y-83755249D01*
X118000000Y-83755249D01*
X118000003Y-83755249D01*
X118168056Y-83736314D01*
X118168059Y-83736313D01*
X118327690Y-83680456D01*
X118327692Y-83680454D01*
X118327694Y-83680454D01*
X118327697Y-83680452D01*
X118470884Y-83590481D01*
X118470885Y-83590480D01*
X118470890Y-83590477D01*
X118590477Y-83470890D01*
X118590858Y-83470284D01*
X118680452Y-83327697D01*
X118680454Y-83327694D01*
X118680454Y-83327692D01*
X118680456Y-83327690D01*
X118736313Y-83168059D01*
X118736313Y-83168058D01*
X118736314Y-83168056D01*
X118755249Y-83000002D01*
X119244751Y-83000002D01*
X119263685Y-83168056D01*
X119319545Y-83327694D01*
X119319547Y-83327697D01*
X119409518Y-83470884D01*
X119409523Y-83470890D01*
X119529109Y-83590476D01*
X119529115Y-83590481D01*
X119672302Y-83680452D01*
X119672305Y-83680454D01*
X119672309Y-83680455D01*
X119672310Y-83680456D01*
X119744913Y-83705860D01*
X119831943Y-83736314D01*
X119999997Y-83755249D01*
X120000000Y-83755249D01*
X120000003Y-83755249D01*
X120168056Y-83736314D01*
X120168059Y-83736313D01*
X120327690Y-83680456D01*
X120327692Y-83680454D01*
X120327694Y-83680454D01*
X120327697Y-83680452D01*
X120470884Y-83590481D01*
X120470885Y-83590480D01*
X120470890Y-83590477D01*
X120590477Y-83470890D01*
X120590858Y-83470284D01*
X120680452Y-83327697D01*
X120680454Y-83327694D01*
X120680454Y-83327692D01*
X120680456Y-83327690D01*
X120736313Y-83168059D01*
X120736313Y-83168058D01*
X120736314Y-83168056D01*
X120755249Y-83000002D01*
X121244751Y-83000002D01*
X121263685Y-83168056D01*
X121319545Y-83327694D01*
X121319547Y-83327697D01*
X121409518Y-83470884D01*
X121409523Y-83470890D01*
X121529109Y-83590476D01*
X121529115Y-83590481D01*
X121672302Y-83680452D01*
X121672305Y-83680454D01*
X121672309Y-83680455D01*
X121672310Y-83680456D01*
X121744913Y-83705860D01*
X121831943Y-83736314D01*
X121999997Y-83755249D01*
X122000000Y-83755249D01*
X122000003Y-83755249D01*
X122168056Y-83736314D01*
X122168059Y-83736313D01*
X122327690Y-83680456D01*
X122327692Y-83680454D01*
X122327694Y-83680454D01*
X122327697Y-83680452D01*
X122470884Y-83590481D01*
X122470885Y-83590480D01*
X122470890Y-83590477D01*
X122590477Y-83470890D01*
X122590858Y-83470284D01*
X122680452Y-83327697D01*
X122680454Y-83327694D01*
X122680454Y-83327692D01*
X122680456Y-83327690D01*
X122736313Y-83168059D01*
X122736313Y-83168058D01*
X122736314Y-83168056D01*
X122755249Y-83000002D01*
X123244751Y-83000002D01*
X123263685Y-83168056D01*
X123319545Y-83327694D01*
X123319547Y-83327697D01*
X123409518Y-83470884D01*
X123409523Y-83470890D01*
X123529109Y-83590476D01*
X123529115Y-83590481D01*
X123672302Y-83680452D01*
X123672305Y-83680454D01*
X123672309Y-83680455D01*
X123672310Y-83680456D01*
X123744913Y-83705860D01*
X123831943Y-83736314D01*
X123999997Y-83755249D01*
X124000000Y-83755249D01*
X124000003Y-83755249D01*
X124168056Y-83736314D01*
X124168059Y-83736313D01*
X124327690Y-83680456D01*
X124327692Y-83680454D01*
X124327694Y-83680454D01*
X124327697Y-83680452D01*
X124470884Y-83590481D01*
X124470885Y-83590480D01*
X124470890Y-83590477D01*
X124590477Y-83470890D01*
X124590858Y-83470284D01*
X124680452Y-83327697D01*
X124680454Y-83327694D01*
X124680454Y-83327692D01*
X124680456Y-83327690D01*
X124736313Y-83168059D01*
X124736313Y-83168058D01*
X124736314Y-83168056D01*
X124755249Y-83000002D01*
X125244751Y-83000002D01*
X125263685Y-83168056D01*
X125319545Y-83327694D01*
X125319547Y-83327697D01*
X125409518Y-83470884D01*
X125409523Y-83470890D01*
X125529109Y-83590476D01*
X125529115Y-83590481D01*
X125672302Y-83680452D01*
X125672305Y-83680454D01*
X125672309Y-83680455D01*
X125672310Y-83680456D01*
X125744913Y-83705860D01*
X125831943Y-83736314D01*
X125999997Y-83755249D01*
X126000000Y-83755249D01*
X126000003Y-83755249D01*
X126168056Y-83736314D01*
X126168059Y-83736313D01*
X126327690Y-83680456D01*
X126327692Y-83680454D01*
X126327694Y-83680454D01*
X126327697Y-83680452D01*
X126470884Y-83590481D01*
X126470885Y-83590480D01*
X126470890Y-83590477D01*
X126590477Y-83470890D01*
X126590858Y-83470284D01*
X126680452Y-83327697D01*
X126680454Y-83327694D01*
X126680454Y-83327692D01*
X126680456Y-83327690D01*
X126736313Y-83168059D01*
X126736313Y-83168058D01*
X126736314Y-83168056D01*
X126755249Y-83000002D01*
X127244751Y-83000002D01*
X127263685Y-83168056D01*
X127319545Y-83327694D01*
X127319547Y-83327697D01*
X127409518Y-83470884D01*
X127409523Y-83470890D01*
X127529109Y-83590476D01*
X127529115Y-83590481D01*
X127672302Y-83680452D01*
X127672305Y-83680454D01*
X127672309Y-83680455D01*
X127672310Y-83680456D01*
X127744913Y-83705860D01*
X127831943Y-83736314D01*
X127999997Y-83755249D01*
X128000000Y-83755249D01*
X128000003Y-83755249D01*
X128168056Y-83736314D01*
X128168059Y-83736313D01*
X128327690Y-83680456D01*
X128327692Y-83680454D01*
X128327694Y-83680454D01*
X128327697Y-83680452D01*
X128470884Y-83590481D01*
X128470885Y-83590480D01*
X128470890Y-83590477D01*
X128590477Y-83470890D01*
X128590858Y-83470284D01*
X128680452Y-83327697D01*
X128680454Y-83327694D01*
X128680454Y-83327692D01*
X128680456Y-83327690D01*
X128736313Y-83168059D01*
X128736313Y-83168058D01*
X128736314Y-83168056D01*
X128755249Y-83000002D01*
X129244751Y-83000002D01*
X129263685Y-83168056D01*
X129319545Y-83327694D01*
X129319547Y-83327697D01*
X129409518Y-83470884D01*
X129409523Y-83470890D01*
X129529109Y-83590476D01*
X129529115Y-83590481D01*
X129672302Y-83680452D01*
X129672305Y-83680454D01*
X129672309Y-83680455D01*
X129672310Y-83680456D01*
X129744913Y-83705860D01*
X129831943Y-83736314D01*
X129999997Y-83755249D01*
X130000000Y-83755249D01*
X130000003Y-83755249D01*
X130168056Y-83736314D01*
X130168059Y-83736313D01*
X130327690Y-83680456D01*
X130327692Y-83680454D01*
X130327694Y-83680454D01*
X130327697Y-83680452D01*
X130470884Y-83590481D01*
X130470885Y-83590480D01*
X130470890Y-83590477D01*
X130590477Y-83470890D01*
X130590858Y-83470284D01*
X130680452Y-83327697D01*
X130680454Y-83327694D01*
X130680454Y-83327692D01*
X130680456Y-83327690D01*
X130736313Y-83168059D01*
X130736313Y-83168058D01*
X130736314Y-83168056D01*
X130755249Y-83000002D01*
X131244751Y-83000002D01*
X131263685Y-83168056D01*
X131319545Y-83327694D01*
X131319547Y-83327697D01*
X131409518Y-83470884D01*
X131409523Y-83470890D01*
X131529109Y-83590476D01*
X131529115Y-83590481D01*
X131672302Y-83680452D01*
X131672305Y-83680454D01*
X131672309Y-83680455D01*
X131672310Y-83680456D01*
X131744913Y-83705860D01*
X131831943Y-83736314D01*
X131999997Y-83755249D01*
X132000000Y-83755249D01*
X132000003Y-83755249D01*
X132168056Y-83736314D01*
X132168059Y-83736313D01*
X132327690Y-83680456D01*
X132327692Y-83680454D01*
X132327694Y-83680454D01*
X132327697Y-83680452D01*
X132470884Y-83590481D01*
X132470885Y-83590480D01*
X132470890Y-83590477D01*
X132590477Y-83470890D01*
X132590858Y-83470284D01*
X132680452Y-83327697D01*
X132680454Y-83327694D01*
X132680454Y-83327692D01*
X132680456Y-83327690D01*
X132736313Y-83168059D01*
X132736313Y-83168058D01*
X132736314Y-83168056D01*
X132755249Y-83000002D01*
X132755249Y-82999997D01*
X132736314Y-82831943D01*
X132680454Y-82672305D01*
X132680452Y-82672302D01*
X132677121Y-82667000D01*
X150220722Y-82667000D01*
X150239762Y-82823818D01*
X150295780Y-82971522D01*
X150295780Y-82971523D01*
X150385517Y-83101530D01*
X150503760Y-83206283D01*
X150503762Y-83206284D01*
X150643634Y-83279696D01*
X150797014Y-83317500D01*
X150797015Y-83317500D01*
X150954985Y-83317500D01*
X151108365Y-83279696D01*
X151162087Y-83251500D01*
X151248240Y-83206283D01*
X151366483Y-83101530D01*
X151456220Y-82971523D01*
X151512237Y-82823818D01*
X151531278Y-82667000D01*
X151526358Y-82626475D01*
X151512237Y-82510181D01*
X151487222Y-82444222D01*
X151456220Y-82362477D01*
X151366483Y-82232470D01*
X151248240Y-82127717D01*
X151248238Y-82127716D01*
X151248237Y-82127715D01*
X151108365Y-82054303D01*
X150954986Y-82016500D01*
X150954985Y-82016500D01*
X150797015Y-82016500D01*
X150797014Y-82016500D01*
X150643634Y-82054303D01*
X150503762Y-82127715D01*
X150385516Y-82232471D01*
X150295781Y-82362475D01*
X150295780Y-82362476D01*
X150239762Y-82510181D01*
X150220722Y-82666999D01*
X150220722Y-82667000D01*
X132677121Y-82667000D01*
X132590481Y-82529115D01*
X132590476Y-82529109D01*
X132470890Y-82409523D01*
X132470884Y-82409518D01*
X132327697Y-82319547D01*
X132327694Y-82319545D01*
X132168056Y-82263685D01*
X132000003Y-82244751D01*
X131999997Y-82244751D01*
X131831943Y-82263685D01*
X131672305Y-82319545D01*
X131672302Y-82319547D01*
X131529115Y-82409518D01*
X131529109Y-82409523D01*
X131409523Y-82529109D01*
X131409518Y-82529115D01*
X131319547Y-82672302D01*
X131319545Y-82672305D01*
X131263685Y-82831943D01*
X131244751Y-82999997D01*
X131244751Y-83000002D01*
X130755249Y-83000002D01*
X130755249Y-82999997D01*
X130736314Y-82831943D01*
X130680454Y-82672305D01*
X130680452Y-82672302D01*
X130590481Y-82529115D01*
X130590476Y-82529109D01*
X130470890Y-82409523D01*
X130470884Y-82409518D01*
X130327697Y-82319547D01*
X130327694Y-82319545D01*
X130168056Y-82263685D01*
X130000003Y-82244751D01*
X129999997Y-82244751D01*
X129831943Y-82263685D01*
X129672305Y-82319545D01*
X129672302Y-82319547D01*
X129529115Y-82409518D01*
X129529109Y-82409523D01*
X129409523Y-82529109D01*
X129409518Y-82529115D01*
X129319547Y-82672302D01*
X129319545Y-82672305D01*
X129263685Y-82831943D01*
X129244751Y-82999997D01*
X129244751Y-83000002D01*
X128755249Y-83000002D01*
X128755249Y-82999997D01*
X128736314Y-82831943D01*
X128680454Y-82672305D01*
X128680452Y-82672302D01*
X128590481Y-82529115D01*
X128590476Y-82529109D01*
X128470890Y-82409523D01*
X128470884Y-82409518D01*
X128327697Y-82319547D01*
X128327694Y-82319545D01*
X128168056Y-82263685D01*
X128000003Y-82244751D01*
X127999997Y-82244751D01*
X127831943Y-82263685D01*
X127672305Y-82319545D01*
X127672302Y-82319547D01*
X127529115Y-82409518D01*
X127529109Y-82409523D01*
X127409523Y-82529109D01*
X127409518Y-82529115D01*
X127319547Y-82672302D01*
X127319545Y-82672305D01*
X127263685Y-82831943D01*
X127244751Y-82999997D01*
X127244751Y-83000002D01*
X126755249Y-83000002D01*
X126755249Y-82999997D01*
X126736314Y-82831943D01*
X126680454Y-82672305D01*
X126680452Y-82672302D01*
X126590481Y-82529115D01*
X126590476Y-82529109D01*
X126470890Y-82409523D01*
X126470884Y-82409518D01*
X126327697Y-82319547D01*
X126327694Y-82319545D01*
X126168056Y-82263685D01*
X126000003Y-82244751D01*
X125999997Y-82244751D01*
X125831943Y-82263685D01*
X125672305Y-82319545D01*
X125672302Y-82319547D01*
X125529115Y-82409518D01*
X125529109Y-82409523D01*
X125409523Y-82529109D01*
X125409518Y-82529115D01*
X125319547Y-82672302D01*
X125319545Y-82672305D01*
X125263685Y-82831943D01*
X125244751Y-82999997D01*
X125244751Y-83000002D01*
X124755249Y-83000002D01*
X124755249Y-82999997D01*
X124736314Y-82831943D01*
X124680454Y-82672305D01*
X124680452Y-82672302D01*
X124590481Y-82529115D01*
X124590476Y-82529109D01*
X124470890Y-82409523D01*
X124470884Y-82409518D01*
X124327697Y-82319547D01*
X124327694Y-82319545D01*
X124168056Y-82263685D01*
X124000003Y-82244751D01*
X123999997Y-82244751D01*
X123831943Y-82263685D01*
X123672305Y-82319545D01*
X123672302Y-82319547D01*
X123529115Y-82409518D01*
X123529109Y-82409523D01*
X123409523Y-82529109D01*
X123409518Y-82529115D01*
X123319547Y-82672302D01*
X123319545Y-82672305D01*
X123263685Y-82831943D01*
X123244751Y-82999997D01*
X123244751Y-83000002D01*
X122755249Y-83000002D01*
X122755249Y-82999997D01*
X122736314Y-82831943D01*
X122680454Y-82672305D01*
X122680452Y-82672302D01*
X122590481Y-82529115D01*
X122590476Y-82529109D01*
X122470890Y-82409523D01*
X122470884Y-82409518D01*
X122327697Y-82319547D01*
X122327694Y-82319545D01*
X122168056Y-82263685D01*
X122000003Y-82244751D01*
X121999997Y-82244751D01*
X121831943Y-82263685D01*
X121672305Y-82319545D01*
X121672302Y-82319547D01*
X121529115Y-82409518D01*
X121529109Y-82409523D01*
X121409523Y-82529109D01*
X121409518Y-82529115D01*
X121319547Y-82672302D01*
X121319545Y-82672305D01*
X121263685Y-82831943D01*
X121244751Y-82999997D01*
X121244751Y-83000002D01*
X120755249Y-83000002D01*
X120755249Y-82999997D01*
X120736314Y-82831943D01*
X120680454Y-82672305D01*
X120680452Y-82672302D01*
X120590481Y-82529115D01*
X120590476Y-82529109D01*
X120470890Y-82409523D01*
X120470884Y-82409518D01*
X120327697Y-82319547D01*
X120327694Y-82319545D01*
X120168056Y-82263685D01*
X120000003Y-82244751D01*
X119999997Y-82244751D01*
X119831943Y-82263685D01*
X119672305Y-82319545D01*
X119672302Y-82319547D01*
X119529115Y-82409518D01*
X119529109Y-82409523D01*
X119409523Y-82529109D01*
X119409518Y-82529115D01*
X119319547Y-82672302D01*
X119319545Y-82672305D01*
X119263685Y-82831943D01*
X119244751Y-82999997D01*
X119244751Y-83000002D01*
X118755249Y-83000002D01*
X118755249Y-82999997D01*
X118736314Y-82831943D01*
X118680454Y-82672305D01*
X118680452Y-82672302D01*
X118590481Y-82529115D01*
X118590476Y-82529109D01*
X118470890Y-82409523D01*
X118470884Y-82409518D01*
X118327697Y-82319547D01*
X118327694Y-82319545D01*
X118168056Y-82263685D01*
X118000003Y-82244751D01*
X117999997Y-82244751D01*
X117831943Y-82263685D01*
X117672305Y-82319545D01*
X117672302Y-82319547D01*
X117529115Y-82409518D01*
X117529109Y-82409523D01*
X117409523Y-82529109D01*
X117409518Y-82529115D01*
X117319547Y-82672302D01*
X117319545Y-82672305D01*
X117263685Y-82831943D01*
X117244751Y-82999997D01*
X117244751Y-83000002D01*
X116755249Y-83000002D01*
X116755249Y-82999997D01*
X116736314Y-82831943D01*
X116680454Y-82672305D01*
X116680452Y-82672302D01*
X116590481Y-82529115D01*
X116590476Y-82529109D01*
X116470890Y-82409523D01*
X116470884Y-82409518D01*
X116327697Y-82319547D01*
X116327694Y-82319545D01*
X116168056Y-82263685D01*
X116000003Y-82244751D01*
X115999997Y-82244751D01*
X115831943Y-82263685D01*
X115672305Y-82319545D01*
X115672302Y-82319547D01*
X115529115Y-82409518D01*
X115529109Y-82409523D01*
X115409523Y-82529109D01*
X115409518Y-82529115D01*
X115319547Y-82672302D01*
X115319545Y-82672305D01*
X115263685Y-82831943D01*
X115244751Y-82999997D01*
X115244751Y-83000002D01*
X98646900Y-83000002D01*
X98655278Y-82931000D01*
X98650760Y-82893786D01*
X98636237Y-82774181D01*
X98590922Y-82654696D01*
X98580220Y-82626477D01*
X98490483Y-82496470D01*
X98372240Y-82391717D01*
X98372238Y-82391716D01*
X98372237Y-82391715D01*
X98232365Y-82318303D01*
X98078986Y-82280500D01*
X98078985Y-82280500D01*
X97921015Y-82280500D01*
X97921014Y-82280500D01*
X97767634Y-82318303D01*
X97627762Y-82391715D01*
X97509516Y-82496471D01*
X97419781Y-82626475D01*
X97419780Y-82626476D01*
X97363762Y-82774181D01*
X97344722Y-82930999D01*
X97344722Y-82931000D01*
X95651514Y-82931000D01*
X95655278Y-82900000D01*
X95654524Y-82893786D01*
X95636237Y-82743181D01*
X95602679Y-82654696D01*
X95580220Y-82595477D01*
X95493912Y-82470438D01*
X95472030Y-82404086D01*
X95489495Y-82336434D01*
X95493905Y-82329571D01*
X95580220Y-82204523D01*
X95636237Y-82056818D01*
X95655278Y-81900000D01*
X95651700Y-81870528D01*
X95636237Y-81743181D01*
X95612447Y-81680452D01*
X95580220Y-81595477D01*
X95493912Y-81470438D01*
X95482555Y-81436000D01*
X99908722Y-81436000D01*
X99927762Y-81592818D01*
X99982183Y-81736313D01*
X99983780Y-81740523D01*
X100073517Y-81870530D01*
X100191760Y-81975283D01*
X100191762Y-81975284D01*
X100331634Y-82048696D01*
X100485014Y-82086500D01*
X100485015Y-82086500D01*
X100642985Y-82086500D01*
X100796365Y-82048696D01*
X100809125Y-82041999D01*
X100936240Y-81975283D01*
X101054483Y-81870530D01*
X101144220Y-81740523D01*
X101200237Y-81592818D01*
X101219278Y-81436000D01*
X101212457Y-81379819D01*
X101200237Y-81279181D01*
X101171923Y-81204523D01*
X101144220Y-81131477D01*
X101054483Y-81001470D01*
X101052826Y-81000002D01*
X115244751Y-81000002D01*
X115263685Y-81168056D01*
X115319545Y-81327694D01*
X115319547Y-81327697D01*
X115409518Y-81470884D01*
X115409523Y-81470890D01*
X115529109Y-81590476D01*
X115529115Y-81590481D01*
X115672302Y-81680452D01*
X115672305Y-81680454D01*
X115672309Y-81680455D01*
X115672310Y-81680456D01*
X115744913Y-81705860D01*
X115831943Y-81736314D01*
X115999997Y-81755249D01*
X116000000Y-81755249D01*
X116000003Y-81755249D01*
X116168056Y-81736314D01*
X116168059Y-81736313D01*
X116327690Y-81680456D01*
X116327692Y-81680454D01*
X116327694Y-81680454D01*
X116327697Y-81680452D01*
X116470884Y-81590481D01*
X116470885Y-81590480D01*
X116470890Y-81590477D01*
X116590477Y-81470890D01*
X116595079Y-81463566D01*
X116680452Y-81327697D01*
X116680454Y-81327694D01*
X116680454Y-81327692D01*
X116680456Y-81327690D01*
X116736313Y-81168059D01*
X116736313Y-81168058D01*
X116736314Y-81168056D01*
X116755249Y-81000002D01*
X117244751Y-81000002D01*
X117263685Y-81168056D01*
X117319545Y-81327694D01*
X117319547Y-81327697D01*
X117409518Y-81470884D01*
X117409523Y-81470890D01*
X117529109Y-81590476D01*
X117529115Y-81590481D01*
X117672302Y-81680452D01*
X117672305Y-81680454D01*
X117672309Y-81680455D01*
X117672310Y-81680456D01*
X117744913Y-81705860D01*
X117831943Y-81736314D01*
X117999997Y-81755249D01*
X118000000Y-81755249D01*
X118000003Y-81755249D01*
X118168056Y-81736314D01*
X118168059Y-81736313D01*
X118327690Y-81680456D01*
X118327692Y-81680454D01*
X118327694Y-81680454D01*
X118327697Y-81680452D01*
X118470884Y-81590481D01*
X118470885Y-81590480D01*
X118470890Y-81590477D01*
X118590477Y-81470890D01*
X118595079Y-81463566D01*
X118680452Y-81327697D01*
X118680454Y-81327694D01*
X118680454Y-81327692D01*
X118680456Y-81327690D01*
X118736313Y-81168059D01*
X118736313Y-81168058D01*
X118736314Y-81168056D01*
X118755249Y-81000002D01*
X119244751Y-81000002D01*
X119263685Y-81168056D01*
X119319545Y-81327694D01*
X119319547Y-81327697D01*
X119409518Y-81470884D01*
X119409523Y-81470890D01*
X119529109Y-81590476D01*
X119529115Y-81590481D01*
X119672302Y-81680452D01*
X119672305Y-81680454D01*
X119672309Y-81680455D01*
X119672310Y-81680456D01*
X119744913Y-81705860D01*
X119831943Y-81736314D01*
X119999997Y-81755249D01*
X120000000Y-81755249D01*
X120000003Y-81755249D01*
X120168056Y-81736314D01*
X120168059Y-81736313D01*
X120327690Y-81680456D01*
X120327692Y-81680454D01*
X120327694Y-81680454D01*
X120327697Y-81680452D01*
X120470884Y-81590481D01*
X120470885Y-81590480D01*
X120470890Y-81590477D01*
X120590477Y-81470890D01*
X120595079Y-81463566D01*
X120680452Y-81327697D01*
X120680454Y-81327694D01*
X120680454Y-81327692D01*
X120680456Y-81327690D01*
X120736313Y-81168059D01*
X120736313Y-81168058D01*
X120736314Y-81168056D01*
X120755249Y-81000002D01*
X121244751Y-81000002D01*
X121263685Y-81168056D01*
X121319545Y-81327694D01*
X121319547Y-81327697D01*
X121409518Y-81470884D01*
X121409523Y-81470890D01*
X121529109Y-81590476D01*
X121529115Y-81590481D01*
X121672302Y-81680452D01*
X121672305Y-81680454D01*
X121672309Y-81680455D01*
X121672310Y-81680456D01*
X121744913Y-81705860D01*
X121831943Y-81736314D01*
X121999997Y-81755249D01*
X122000000Y-81755249D01*
X122000003Y-81755249D01*
X122168056Y-81736314D01*
X122168059Y-81736313D01*
X122327690Y-81680456D01*
X122327692Y-81680454D01*
X122327694Y-81680454D01*
X122327697Y-81680452D01*
X122470884Y-81590481D01*
X122470885Y-81590480D01*
X122470890Y-81590477D01*
X122590477Y-81470890D01*
X122595079Y-81463566D01*
X122680452Y-81327697D01*
X122680454Y-81327694D01*
X122680454Y-81327692D01*
X122680456Y-81327690D01*
X122736313Y-81168059D01*
X122736313Y-81168058D01*
X122736314Y-81168056D01*
X122755249Y-81000002D01*
X123244751Y-81000002D01*
X123263685Y-81168056D01*
X123319545Y-81327694D01*
X123319547Y-81327697D01*
X123409518Y-81470884D01*
X123409523Y-81470890D01*
X123529109Y-81590476D01*
X123529115Y-81590481D01*
X123672302Y-81680452D01*
X123672305Y-81680454D01*
X123672309Y-81680455D01*
X123672310Y-81680456D01*
X123744913Y-81705860D01*
X123831943Y-81736314D01*
X123999997Y-81755249D01*
X124000000Y-81755249D01*
X124000003Y-81755249D01*
X124168056Y-81736314D01*
X124168059Y-81736313D01*
X124327690Y-81680456D01*
X124327692Y-81680454D01*
X124327694Y-81680454D01*
X124327697Y-81680452D01*
X124470884Y-81590481D01*
X124470885Y-81590480D01*
X124470890Y-81590477D01*
X124590477Y-81470890D01*
X124595079Y-81463566D01*
X124680452Y-81327697D01*
X124680454Y-81327694D01*
X124680454Y-81327692D01*
X124680456Y-81327690D01*
X124736313Y-81168059D01*
X124736313Y-81168058D01*
X124736314Y-81168056D01*
X124755249Y-81000002D01*
X125244751Y-81000002D01*
X125263685Y-81168056D01*
X125319545Y-81327694D01*
X125319547Y-81327697D01*
X125409518Y-81470884D01*
X125409523Y-81470890D01*
X125529109Y-81590476D01*
X125529115Y-81590481D01*
X125672302Y-81680452D01*
X125672305Y-81680454D01*
X125672309Y-81680455D01*
X125672310Y-81680456D01*
X125744913Y-81705860D01*
X125831943Y-81736314D01*
X125999997Y-81755249D01*
X126000000Y-81755249D01*
X126000003Y-81755249D01*
X126168056Y-81736314D01*
X126168059Y-81736313D01*
X126327690Y-81680456D01*
X126327692Y-81680454D01*
X126327694Y-81680454D01*
X126327697Y-81680452D01*
X126470884Y-81590481D01*
X126470885Y-81590480D01*
X126470890Y-81590477D01*
X126590477Y-81470890D01*
X126595079Y-81463566D01*
X126680452Y-81327697D01*
X126680454Y-81327694D01*
X126680454Y-81327692D01*
X126680456Y-81327690D01*
X126736313Y-81168059D01*
X126736313Y-81168058D01*
X126736314Y-81168056D01*
X126755249Y-81000002D01*
X127244751Y-81000002D01*
X127263685Y-81168056D01*
X127319545Y-81327694D01*
X127319547Y-81327697D01*
X127409518Y-81470884D01*
X127409523Y-81470890D01*
X127529109Y-81590476D01*
X127529115Y-81590481D01*
X127672302Y-81680452D01*
X127672305Y-81680454D01*
X127672309Y-81680455D01*
X127672310Y-81680456D01*
X127744913Y-81705860D01*
X127831943Y-81736314D01*
X127999997Y-81755249D01*
X128000000Y-81755249D01*
X128000003Y-81755249D01*
X128168056Y-81736314D01*
X128168059Y-81736313D01*
X128327690Y-81680456D01*
X128327692Y-81680454D01*
X128327694Y-81680454D01*
X128327697Y-81680452D01*
X128470884Y-81590481D01*
X128470885Y-81590480D01*
X128470890Y-81590477D01*
X128590477Y-81470890D01*
X128595079Y-81463566D01*
X128680452Y-81327697D01*
X128680454Y-81327694D01*
X128680454Y-81327692D01*
X128680456Y-81327690D01*
X128736313Y-81168059D01*
X128736313Y-81168058D01*
X128736314Y-81168056D01*
X128755249Y-81000002D01*
X129244751Y-81000002D01*
X129263685Y-81168056D01*
X129319545Y-81327694D01*
X129319547Y-81327697D01*
X129409518Y-81470884D01*
X129409523Y-81470890D01*
X129529109Y-81590476D01*
X129529115Y-81590481D01*
X129672302Y-81680452D01*
X129672305Y-81680454D01*
X129672309Y-81680455D01*
X129672310Y-81680456D01*
X129744913Y-81705860D01*
X129831943Y-81736314D01*
X129999997Y-81755249D01*
X130000000Y-81755249D01*
X130000003Y-81755249D01*
X130168056Y-81736314D01*
X130168059Y-81736313D01*
X130327690Y-81680456D01*
X130327692Y-81680454D01*
X130327694Y-81680454D01*
X130327697Y-81680452D01*
X130470884Y-81590481D01*
X130470885Y-81590480D01*
X130470890Y-81590477D01*
X130590477Y-81470890D01*
X130595079Y-81463566D01*
X130680452Y-81327697D01*
X130680454Y-81327694D01*
X130680454Y-81327692D01*
X130680456Y-81327690D01*
X130736313Y-81168059D01*
X130736313Y-81168058D01*
X130736314Y-81168056D01*
X130755249Y-81000002D01*
X131244751Y-81000002D01*
X131263685Y-81168056D01*
X131319545Y-81327694D01*
X131319547Y-81327697D01*
X131409518Y-81470884D01*
X131409523Y-81470890D01*
X131529109Y-81590476D01*
X131529115Y-81590481D01*
X131672302Y-81680452D01*
X131672305Y-81680454D01*
X131672309Y-81680455D01*
X131672310Y-81680456D01*
X131744913Y-81705860D01*
X131831943Y-81736314D01*
X131999997Y-81755249D01*
X132000000Y-81755249D01*
X132000003Y-81755249D01*
X132168056Y-81736314D01*
X132168059Y-81736313D01*
X132327690Y-81680456D01*
X132327692Y-81680454D01*
X132327694Y-81680454D01*
X132327697Y-81680452D01*
X132470884Y-81590481D01*
X132470885Y-81590480D01*
X132470890Y-81590477D01*
X132590477Y-81470890D01*
X132595079Y-81463566D01*
X132680452Y-81327697D01*
X132680454Y-81327694D01*
X132680454Y-81327692D01*
X132680456Y-81327690D01*
X132736313Y-81168059D01*
X132736313Y-81168058D01*
X132736314Y-81168056D01*
X132755249Y-81000002D01*
X132755249Y-80999997D01*
X132736314Y-80831943D01*
X132694260Y-80711761D01*
X132680456Y-80672310D01*
X132680455Y-80672309D01*
X132680454Y-80672305D01*
X132680452Y-80672302D01*
X132590481Y-80529115D01*
X132590476Y-80529109D01*
X132470890Y-80409523D01*
X132470884Y-80409518D01*
X132327697Y-80319547D01*
X132327694Y-80319545D01*
X132168056Y-80263685D01*
X132000003Y-80244751D01*
X131999997Y-80244751D01*
X131831943Y-80263685D01*
X131672305Y-80319545D01*
X131672302Y-80319547D01*
X131529115Y-80409518D01*
X131529109Y-80409523D01*
X131409523Y-80529109D01*
X131409518Y-80529115D01*
X131319547Y-80672302D01*
X131319545Y-80672305D01*
X131263685Y-80831943D01*
X131244751Y-80999997D01*
X131244751Y-81000002D01*
X130755249Y-81000002D01*
X130755249Y-80999997D01*
X130736314Y-80831943D01*
X130694260Y-80711761D01*
X130680456Y-80672310D01*
X130680455Y-80672309D01*
X130680454Y-80672305D01*
X130680452Y-80672302D01*
X130590481Y-80529115D01*
X130590476Y-80529109D01*
X130470890Y-80409523D01*
X130470884Y-80409518D01*
X130327697Y-80319547D01*
X130327694Y-80319545D01*
X130168056Y-80263685D01*
X130000003Y-80244751D01*
X129999997Y-80244751D01*
X129831943Y-80263685D01*
X129672305Y-80319545D01*
X129672302Y-80319547D01*
X129529115Y-80409518D01*
X129529109Y-80409523D01*
X129409523Y-80529109D01*
X129409518Y-80529115D01*
X129319547Y-80672302D01*
X129319545Y-80672305D01*
X129263685Y-80831943D01*
X129244751Y-80999997D01*
X129244751Y-81000002D01*
X128755249Y-81000002D01*
X128755249Y-80999997D01*
X128736314Y-80831943D01*
X128694260Y-80711761D01*
X128680456Y-80672310D01*
X128680455Y-80672309D01*
X128680454Y-80672305D01*
X128680452Y-80672302D01*
X128590481Y-80529115D01*
X128590476Y-80529109D01*
X128470890Y-80409523D01*
X128470884Y-80409518D01*
X128327697Y-80319547D01*
X128327694Y-80319545D01*
X128168056Y-80263685D01*
X128000003Y-80244751D01*
X127999997Y-80244751D01*
X127831943Y-80263685D01*
X127672305Y-80319545D01*
X127672302Y-80319547D01*
X127529115Y-80409518D01*
X127529109Y-80409523D01*
X127409523Y-80529109D01*
X127409518Y-80529115D01*
X127319547Y-80672302D01*
X127319545Y-80672305D01*
X127263685Y-80831943D01*
X127244751Y-80999997D01*
X127244751Y-81000002D01*
X126755249Y-81000002D01*
X126755249Y-80999997D01*
X126736314Y-80831943D01*
X126694260Y-80711761D01*
X126680456Y-80672310D01*
X126680455Y-80672309D01*
X126680454Y-80672305D01*
X126680452Y-80672302D01*
X126590481Y-80529115D01*
X126590476Y-80529109D01*
X126470890Y-80409523D01*
X126470884Y-80409518D01*
X126327697Y-80319547D01*
X126327694Y-80319545D01*
X126168056Y-80263685D01*
X126000003Y-80244751D01*
X125999997Y-80244751D01*
X125831943Y-80263685D01*
X125672305Y-80319545D01*
X125672302Y-80319547D01*
X125529115Y-80409518D01*
X125529109Y-80409523D01*
X125409523Y-80529109D01*
X125409518Y-80529115D01*
X125319547Y-80672302D01*
X125319545Y-80672305D01*
X125263685Y-80831943D01*
X125244751Y-80999997D01*
X125244751Y-81000002D01*
X124755249Y-81000002D01*
X124755249Y-80999997D01*
X124736314Y-80831943D01*
X124694260Y-80711761D01*
X124680456Y-80672310D01*
X124680455Y-80672309D01*
X124680454Y-80672305D01*
X124680452Y-80672302D01*
X124590481Y-80529115D01*
X124590476Y-80529109D01*
X124470890Y-80409523D01*
X124470884Y-80409518D01*
X124327697Y-80319547D01*
X124327694Y-80319545D01*
X124168056Y-80263685D01*
X124000003Y-80244751D01*
X123999997Y-80244751D01*
X123831943Y-80263685D01*
X123672305Y-80319545D01*
X123672302Y-80319547D01*
X123529115Y-80409518D01*
X123529109Y-80409523D01*
X123409523Y-80529109D01*
X123409518Y-80529115D01*
X123319547Y-80672302D01*
X123319545Y-80672305D01*
X123263685Y-80831943D01*
X123244751Y-80999997D01*
X123244751Y-81000002D01*
X122755249Y-81000002D01*
X122755249Y-80999997D01*
X122736314Y-80831943D01*
X122694260Y-80711761D01*
X122680456Y-80672310D01*
X122680455Y-80672309D01*
X122680454Y-80672305D01*
X122680452Y-80672302D01*
X122590481Y-80529115D01*
X122590476Y-80529109D01*
X122470890Y-80409523D01*
X122470884Y-80409518D01*
X122327697Y-80319547D01*
X122327694Y-80319545D01*
X122168056Y-80263685D01*
X122000003Y-80244751D01*
X121999997Y-80244751D01*
X121831943Y-80263685D01*
X121672305Y-80319545D01*
X121672302Y-80319547D01*
X121529115Y-80409518D01*
X121529109Y-80409523D01*
X121409523Y-80529109D01*
X121409518Y-80529115D01*
X121319547Y-80672302D01*
X121319545Y-80672305D01*
X121263685Y-80831943D01*
X121244751Y-80999997D01*
X121244751Y-81000002D01*
X120755249Y-81000002D01*
X120755249Y-80999997D01*
X120736314Y-80831943D01*
X120694260Y-80711761D01*
X120680456Y-80672310D01*
X120680455Y-80672309D01*
X120680454Y-80672305D01*
X120680452Y-80672302D01*
X120590481Y-80529115D01*
X120590476Y-80529109D01*
X120470890Y-80409523D01*
X120470884Y-80409518D01*
X120327697Y-80319547D01*
X120327694Y-80319545D01*
X120168056Y-80263685D01*
X120000003Y-80244751D01*
X119999997Y-80244751D01*
X119831943Y-80263685D01*
X119672305Y-80319545D01*
X119672302Y-80319547D01*
X119529115Y-80409518D01*
X119529109Y-80409523D01*
X119409523Y-80529109D01*
X119409518Y-80529115D01*
X119319547Y-80672302D01*
X119319545Y-80672305D01*
X119263685Y-80831943D01*
X119244751Y-80999997D01*
X119244751Y-81000002D01*
X118755249Y-81000002D01*
X118755249Y-80999997D01*
X118736314Y-80831943D01*
X118694260Y-80711761D01*
X118680456Y-80672310D01*
X118680455Y-80672309D01*
X118680454Y-80672305D01*
X118680452Y-80672302D01*
X118590481Y-80529115D01*
X118590476Y-80529109D01*
X118470890Y-80409523D01*
X118470884Y-80409518D01*
X118327697Y-80319547D01*
X118327694Y-80319545D01*
X118168056Y-80263685D01*
X118000003Y-80244751D01*
X117999997Y-80244751D01*
X117831943Y-80263685D01*
X117672305Y-80319545D01*
X117672302Y-80319547D01*
X117529115Y-80409518D01*
X117529109Y-80409523D01*
X117409523Y-80529109D01*
X117409518Y-80529115D01*
X117319547Y-80672302D01*
X117319545Y-80672305D01*
X117263685Y-80831943D01*
X117244751Y-80999997D01*
X117244751Y-81000002D01*
X116755249Y-81000002D01*
X116755249Y-80999997D01*
X116736314Y-80831943D01*
X116694260Y-80711761D01*
X116680456Y-80672310D01*
X116680455Y-80672309D01*
X116680454Y-80672305D01*
X116680452Y-80672302D01*
X116590481Y-80529115D01*
X116590476Y-80529109D01*
X116470890Y-80409523D01*
X116470884Y-80409518D01*
X116327697Y-80319547D01*
X116327694Y-80319545D01*
X116168056Y-80263685D01*
X116000003Y-80244751D01*
X115999997Y-80244751D01*
X115831943Y-80263685D01*
X115672305Y-80319545D01*
X115672302Y-80319547D01*
X115529115Y-80409518D01*
X115529109Y-80409523D01*
X115409523Y-80529109D01*
X115409518Y-80529115D01*
X115319547Y-80672302D01*
X115319545Y-80672305D01*
X115263685Y-80831943D01*
X115244751Y-80999997D01*
X115244751Y-81000002D01*
X101052826Y-81000002D01*
X100936240Y-80896717D01*
X100936238Y-80896716D01*
X100936237Y-80896715D01*
X100796365Y-80823303D01*
X100642986Y-80785500D01*
X100642985Y-80785500D01*
X100485015Y-80785500D01*
X100485014Y-80785500D01*
X100331634Y-80823303D01*
X100191762Y-80896715D01*
X100191759Y-80896717D01*
X100191760Y-80896717D01*
X100102859Y-80975476D01*
X100073516Y-81001471D01*
X99983781Y-81131475D01*
X99983780Y-81131476D01*
X99927762Y-81279181D01*
X99908722Y-81435999D01*
X99908722Y-81436000D01*
X95482555Y-81436000D01*
X95472030Y-81404086D01*
X95489495Y-81336434D01*
X95493905Y-81329571D01*
X95580220Y-81204523D01*
X95636237Y-81056818D01*
X95655278Y-80900000D01*
X95652449Y-80876696D01*
X95636237Y-80743181D01*
X95591993Y-80626520D01*
X95580220Y-80595477D01*
X95490483Y-80465470D01*
X95372240Y-80360717D01*
X95372238Y-80360716D01*
X95372237Y-80360715D01*
X95232365Y-80287303D01*
X95078986Y-80249500D01*
X95078985Y-80249500D01*
X94921015Y-80249500D01*
X94921014Y-80249500D01*
X94767634Y-80287303D01*
X94627761Y-80360715D01*
X94627759Y-80360717D01*
X94582226Y-80401055D01*
X94518992Y-80430776D01*
X94449729Y-80421592D01*
X94417774Y-80401055D01*
X94372240Y-80360717D01*
X94372238Y-80360715D01*
X94232365Y-80287303D01*
X94078986Y-80249500D01*
X94078985Y-80249500D01*
X93921015Y-80249500D01*
X93921014Y-80249500D01*
X93767634Y-80287303D01*
X93627761Y-80360715D01*
X93627759Y-80360717D01*
X93582224Y-80401056D01*
X93518990Y-80430776D01*
X93449727Y-80421591D01*
X93417774Y-80401056D01*
X93372240Y-80360717D01*
X93372237Y-80360714D01*
X93232365Y-80287303D01*
X93078986Y-80249500D01*
X93078985Y-80249500D01*
X92921015Y-80249500D01*
X92921014Y-80249500D01*
X92767634Y-80287303D01*
X92627761Y-80360715D01*
X92627759Y-80360717D01*
X92582226Y-80401055D01*
X92518992Y-80430776D01*
X92449729Y-80421592D01*
X92417774Y-80401055D01*
X92372240Y-80360717D01*
X92372238Y-80360715D01*
X92232365Y-80287303D01*
X92078986Y-80249500D01*
X92078985Y-80249500D01*
X91921015Y-80249500D01*
X91921014Y-80249500D01*
X91767634Y-80287303D01*
X91627762Y-80360715D01*
X91627759Y-80360717D01*
X91627760Y-80360717D01*
X91513965Y-80461530D01*
X91509516Y-80465471D01*
X91419781Y-80595475D01*
X91419780Y-80595476D01*
X91363762Y-80743181D01*
X91344722Y-80899999D01*
X91344722Y-80900000D01*
X91363762Y-81056818D01*
X91419780Y-81204523D01*
X91419781Y-81204524D01*
X91506086Y-81329560D01*
X91527969Y-81395915D01*
X91510503Y-81463566D01*
X91506086Y-81470440D01*
X91419781Y-81595475D01*
X91419780Y-81595476D01*
X91363762Y-81743181D01*
X91344722Y-81899999D01*
X91344722Y-81900000D01*
X91363762Y-82056818D01*
X91419780Y-82204523D01*
X91419781Y-82204524D01*
X91506086Y-82329560D01*
X91527969Y-82395915D01*
X91510503Y-82463566D01*
X91506086Y-82470440D01*
X91419781Y-82595475D01*
X91419780Y-82595476D01*
X91363762Y-82743181D01*
X91344722Y-82899999D01*
X91344722Y-82900000D01*
X91363762Y-83056818D01*
X91419780Y-83204523D01*
X91419781Y-83204524D01*
X91506086Y-83329560D01*
X91527969Y-83395915D01*
X91510503Y-83463566D01*
X91506086Y-83470440D01*
X91419781Y-83595475D01*
X91419780Y-83595476D01*
X91363762Y-83743181D01*
X91344722Y-83899999D01*
X91344722Y-83900000D01*
X91363762Y-84056818D01*
X91419779Y-84204521D01*
X91419780Y-84204523D01*
X91458882Y-84261172D01*
X91506086Y-84329559D01*
X91527969Y-84395913D01*
X91510504Y-84463565D01*
X91506087Y-84470438D01*
X91419780Y-84595476D01*
X91363762Y-84743181D01*
X91344722Y-84899999D01*
X91344722Y-84900000D01*
X72941288Y-84900000D01*
X72941290Y-84899999D01*
X73030175Y-84853348D01*
X73148418Y-84748595D01*
X73238155Y-84618588D01*
X73294172Y-84470883D01*
X73313213Y-84314065D01*
X73304771Y-84244542D01*
X73316231Y-84175621D01*
X73340183Y-84141919D01*
X76474175Y-81007926D01*
X76479343Y-81003307D01*
X76509940Y-80978909D01*
X76543450Y-80929758D01*
X76578763Y-80881912D01*
X76578764Y-80881909D01*
X76582757Y-80874354D01*
X76586440Y-80866706D01*
X76586440Y-80866705D01*
X76586442Y-80866703D01*
X76603977Y-80809852D01*
X76623616Y-80753729D01*
X76625198Y-80745366D01*
X76626470Y-80736929D01*
X76626470Y-80677471D01*
X76628695Y-80618020D01*
X76627655Y-80608788D01*
X76628483Y-80608694D01*
X76626470Y-80593391D01*
X76626470Y-79162789D01*
X76646155Y-79095750D01*
X76661816Y-79077474D01*
X76661479Y-79077175D01*
X76666451Y-79071562D01*
X76666451Y-79071561D01*
X76666453Y-79071560D01*
X76756190Y-78941553D01*
X76812207Y-78793848D01*
X76831248Y-78637030D01*
X76824081Y-78577999D01*
X76812207Y-78480211D01*
X76782685Y-78402369D01*
X76756190Y-78332507D01*
X76666453Y-78202500D01*
X76548210Y-78097747D01*
X76548208Y-78097746D01*
X76548207Y-78097745D01*
X76408335Y-78024333D01*
X76254956Y-77986530D01*
X76254955Y-77986530D01*
X76096985Y-77986530D01*
X76096984Y-77986530D01*
X75943604Y-78024333D01*
X75803732Y-78097745D01*
X75803729Y-78097747D01*
X75803730Y-78097747D01*
X75709596Y-78181142D01*
X75685486Y-78202501D01*
X75595751Y-78332504D01*
X75569255Y-78402369D01*
X75527076Y-78458071D01*
X75461479Y-78482128D01*
X75423640Y-78478794D01*
X75389988Y-78470500D01*
X75389985Y-78470500D01*
X75232015Y-78470500D01*
X75232014Y-78470500D01*
X75078634Y-78508303D01*
X74938762Y-78581715D01*
X74820516Y-78686471D01*
X74730781Y-78816475D01*
X74730780Y-78816476D01*
X74674762Y-78964181D01*
X74655722Y-79120999D01*
X74655722Y-79121000D01*
X74674762Y-79277818D01*
X74710094Y-79370979D01*
X74730780Y-79425523D01*
X74769744Y-79481972D01*
X74820518Y-79555532D01*
X74825491Y-79561145D01*
X74824044Y-79562426D01*
X74855850Y-79613120D01*
X74860500Y-79646759D01*
X74860500Y-80358979D01*
X74840815Y-80426018D01*
X74824181Y-80446660D01*
X71865630Y-83405210D01*
X71804307Y-83438695D01*
X71734615Y-83433711D01*
X71707513Y-83419582D01*
X71704300Y-83417364D01*
X71564427Y-83343952D01*
X71411048Y-83306149D01*
X71411047Y-83306149D01*
X71253077Y-83306149D01*
X71253076Y-83306149D01*
X71099696Y-83343952D01*
X71099695Y-83343953D01*
X71047280Y-83371462D01*
X70978772Y-83385186D01*
X70913719Y-83359693D01*
X70872775Y-83303077D01*
X70869550Y-83289336D01*
X70869032Y-83289464D01*
X70865442Y-83274898D01*
X70868178Y-83274223D01*
X70863809Y-83217676D01*
X70896943Y-83156162D01*
X70897280Y-83155822D01*
X72942205Y-81110896D01*
X72947373Y-81106277D01*
X72977970Y-81081879D01*
X73011477Y-81032733D01*
X73046793Y-80984883D01*
X73046795Y-80984875D01*
X73050786Y-80977324D01*
X73054466Y-80969680D01*
X73054472Y-80969673D01*
X73066916Y-80929325D01*
X73072005Y-80912830D01*
X73091646Y-80856700D01*
X73093227Y-80848341D01*
X73094500Y-80839899D01*
X73094500Y-80780426D01*
X73096724Y-80720992D01*
X73095684Y-80711761D01*
X73096513Y-80711667D01*
X73094500Y-80696366D01*
X73094500Y-77868759D01*
X73114185Y-77801720D01*
X73129846Y-77783444D01*
X73129509Y-77783145D01*
X73134481Y-77777532D01*
X73134481Y-77777531D01*
X73134483Y-77777530D01*
X73224220Y-77647523D01*
X73280237Y-77499818D01*
X73299278Y-77343000D01*
X73296177Y-77317456D01*
X73280237Y-77186181D01*
X73253239Y-77114994D01*
X73224220Y-77038477D01*
X73178292Y-76971939D01*
X73156410Y-76905585D01*
X73173875Y-76837934D01*
X73225143Y-76790464D01*
X73280343Y-76777500D01*
X74692034Y-76777500D01*
X74759073Y-76797185D01*
X74779715Y-76813819D01*
X74876952Y-76911056D01*
X74910437Y-76972379D01*
X74912367Y-76983790D01*
X74928763Y-77118819D01*
X74963944Y-77211582D01*
X74984780Y-77266523D01*
X75074517Y-77396530D01*
X75192760Y-77501283D01*
X75192762Y-77501284D01*
X75332634Y-77574696D01*
X75486014Y-77612500D01*
X75486015Y-77612500D01*
X75643985Y-77612500D01*
X75797365Y-77574696D01*
X75849338Y-77547418D01*
X75937240Y-77501283D01*
X76055483Y-77396530D01*
X76145220Y-77266523D01*
X76201237Y-77118818D01*
X76220278Y-76962000D01*
X76220263Y-76961872D01*
X76201237Y-76805181D01*
X76168135Y-76717900D01*
X76145220Y-76657477D01*
X76055483Y-76527470D01*
X75937240Y-76422717D01*
X75937238Y-76422716D01*
X75937237Y-76422715D01*
X75797365Y-76349303D01*
X75643986Y-76311500D01*
X75643985Y-76311500D01*
X75602965Y-76311500D01*
X75535926Y-76291815D01*
X75515284Y-76275181D01*
X75268908Y-76028805D01*
X75264271Y-76023617D01*
X75248228Y-76003500D01*
X75239879Y-75993030D01*
X75226363Y-75983815D01*
X75190728Y-75959519D01*
X75142882Y-75924207D01*
X75135297Y-75920198D01*
X75127677Y-75916529D01*
X75103161Y-75908967D01*
X75070822Y-75898992D01*
X75049845Y-75891652D01*
X75014695Y-75879352D01*
X75006326Y-75877768D01*
X74997904Y-75876500D01*
X74997902Y-75876500D01*
X74938426Y-75876500D01*
X74878990Y-75874275D01*
X74869756Y-75875316D01*
X74869662Y-75874486D01*
X74854364Y-75876500D01*
X74772136Y-75876500D01*
X74705097Y-75856815D01*
X74659342Y-75804011D01*
X74649398Y-75734853D01*
X74656194Y-75708529D01*
X74660167Y-75698052D01*
X74669737Y-75672818D01*
X74688778Y-75516000D01*
X74677839Y-75425904D01*
X74669737Y-75359181D01*
X74626023Y-75243918D01*
X74613720Y-75211477D01*
X74523983Y-75081470D01*
X74405740Y-74976717D01*
X74405738Y-74976716D01*
X74405737Y-74976715D01*
X74265865Y-74903303D01*
X74112486Y-74865500D01*
X74112485Y-74865500D01*
X73954515Y-74865500D01*
X73954514Y-74865500D01*
X73801134Y-74903303D01*
X73661262Y-74976715D01*
X73543016Y-75081471D01*
X73453281Y-75211475D01*
X73453280Y-75211476D01*
X73397262Y-75359181D01*
X73378222Y-75515999D01*
X73378222Y-75516000D01*
X73397263Y-75672818D01*
X73410806Y-75708529D01*
X73416173Y-75778192D01*
X73383025Y-75839698D01*
X73321887Y-75873520D01*
X73294864Y-75876500D01*
X66796386Y-75876500D01*
X66729347Y-75856815D01*
X66683592Y-75804011D01*
X66673648Y-75734853D01*
X66675988Y-75722829D01*
X66676237Y-75721818D01*
X66695278Y-75565000D01*
X66695278Y-75564999D01*
X66676237Y-75408181D01*
X66640415Y-75313728D01*
X66620220Y-75260477D01*
X66530483Y-75130470D01*
X66412240Y-75025717D01*
X66412238Y-75025716D01*
X66412237Y-75025715D01*
X66272365Y-74952303D01*
X66118986Y-74914500D01*
X66118985Y-74914500D01*
X65961015Y-74914500D01*
X65961014Y-74914500D01*
X65807634Y-74952303D01*
X65667762Y-75025715D01*
X65656132Y-75036018D01*
X65554386Y-75126157D01*
X65549516Y-75130471D01*
X65459781Y-75260475D01*
X65459780Y-75260476D01*
X65403762Y-75408181D01*
X65384722Y-75564999D01*
X65384722Y-75565000D01*
X65403762Y-75721818D01*
X65404012Y-75722829D01*
X65403978Y-75723592D01*
X65404667Y-75729264D01*
X65403723Y-75729378D01*
X65400940Y-75792631D01*
X65360619Y-75849692D01*
X65295849Y-75875895D01*
X65283614Y-75876500D01*
X61520783Y-75876500D01*
X61513844Y-75876110D01*
X61499426Y-75874486D01*
X61474964Y-75871729D01*
X61416511Y-75882789D01*
X61357711Y-75891652D01*
X61349556Y-75894167D01*
X61341530Y-75896975D01*
X61341529Y-75896976D01*
X61341527Y-75896976D01*
X61341524Y-75896978D01*
X61288926Y-75924777D01*
X61235358Y-75950575D01*
X61228308Y-75955380D01*
X61221461Y-75960435D01*
X61200437Y-75981458D01*
X61179413Y-76002483D01*
X61161106Y-76019470D01*
X61135803Y-76042947D01*
X61130013Y-76050208D01*
X61129362Y-76049688D01*
X61119967Y-76061928D01*
X60478116Y-76703781D01*
X60416793Y-76737266D01*
X60390435Y-76740100D01*
X60349414Y-76740100D01*
X60196034Y-76777903D01*
X60056162Y-76851315D01*
X60003227Y-76898211D01*
X59949518Y-76945793D01*
X59937916Y-76956071D01*
X59848181Y-77086075D01*
X59848180Y-77086076D01*
X59792162Y-77233781D01*
X59773122Y-77390599D01*
X59773122Y-77390600D01*
X56750500Y-77390600D01*
X56750500Y-69311500D01*
X75133222Y-69311500D01*
X75152262Y-69468318D01*
X75208280Y-69616023D01*
X75298017Y-69746030D01*
X75416260Y-69850783D01*
X75416262Y-69850784D01*
X75556134Y-69924196D01*
X75709514Y-69962000D01*
X75709515Y-69962000D01*
X75867485Y-69962000D01*
X76020865Y-69924196D01*
X76020865Y-69924195D01*
X76160740Y-69850783D01*
X76278983Y-69746030D01*
X76368720Y-69616023D01*
X76408158Y-69512032D01*
X76450336Y-69456330D01*
X76515933Y-69432273D01*
X76584124Y-69447500D01*
X76633257Y-69497176D01*
X76648100Y-69556004D01*
X76648100Y-70161017D01*
X76647710Y-70167955D01*
X76647020Y-70174083D01*
X76643329Y-70206834D01*
X76654388Y-70265279D01*
X76663252Y-70324090D01*
X76665762Y-70332227D01*
X76668578Y-70340275D01*
X76696377Y-70392872D01*
X76722176Y-70446444D01*
X76726962Y-70453465D01*
X76732031Y-70460332D01*
X76732034Y-70460338D01*
X76732038Y-70460342D01*
X76774095Y-70502399D01*
X76814547Y-70545996D01*
X76821810Y-70551788D01*
X76821289Y-70552441D01*
X76833530Y-70561834D01*
X77019061Y-70747365D01*
X77186381Y-70914684D01*
X77219866Y-70976007D01*
X77222700Y-71002365D01*
X77222700Y-76730017D01*
X77222310Y-76736955D01*
X77220924Y-76749254D01*
X77217929Y-76775834D01*
X77228988Y-76834279D01*
X77237852Y-76893090D01*
X77240362Y-76901227D01*
X77243178Y-76909275D01*
X77267911Y-76956071D01*
X77270977Y-76961872D01*
X77289339Y-77000002D01*
X77296776Y-77015444D01*
X77301562Y-77022465D01*
X77306631Y-77029332D01*
X77306634Y-77029338D01*
X77348695Y-77071399D01*
X77383685Y-77109110D01*
X77389147Y-77114996D01*
X77396410Y-77120788D01*
X77395889Y-77121441D01*
X77408130Y-77130834D01*
X77594752Y-77317456D01*
X77628237Y-77378779D01*
X77630167Y-77390190D01*
X77646563Y-77525219D01*
X77679815Y-77612897D01*
X77702580Y-77672923D01*
X77792317Y-77802930D01*
X77910560Y-77907683D01*
X77910562Y-77907684D01*
X78050434Y-77981096D01*
X78203814Y-78018900D01*
X78203815Y-78018900D01*
X78361785Y-78018900D01*
X78515165Y-77981096D01*
X78531806Y-77972362D01*
X78655040Y-77907683D01*
X78773283Y-77802930D01*
X78863020Y-77672923D01*
X78863023Y-77672912D01*
X78866504Y-77666284D01*
X78868827Y-77667503D01*
X78903487Y-77621729D01*
X78969084Y-77597671D01*
X79037275Y-77612897D01*
X79086409Y-77662573D01*
X79101252Y-77721402D01*
X79101252Y-77890923D01*
X79081567Y-77957962D01*
X79034879Y-78000719D01*
X78962482Y-78038717D01*
X78844238Y-78143471D01*
X78754503Y-78273475D01*
X78754502Y-78273476D01*
X78698484Y-78421181D01*
X78679444Y-78577999D01*
X78679444Y-78578000D01*
X78698484Y-78734818D01*
X78753097Y-78878818D01*
X78754502Y-78882523D01*
X78844239Y-79012530D01*
X78962482Y-79117283D01*
X78962484Y-79117284D01*
X79102356Y-79190696D01*
X79255736Y-79228500D01*
X79255737Y-79228500D01*
X79413707Y-79228500D01*
X79553007Y-79194166D01*
X79622807Y-79197235D01*
X79679869Y-79237555D01*
X79706075Y-79302324D01*
X79693103Y-79370979D01*
X79670361Y-79402244D01*
X79495425Y-79577181D01*
X79434102Y-79610666D01*
X79407744Y-79613500D01*
X79296014Y-79613500D01*
X79142634Y-79651303D01*
X79002762Y-79724715D01*
X78884516Y-79829471D01*
X78794781Y-79959475D01*
X78794780Y-79959476D01*
X78738762Y-80107181D01*
X78719722Y-80263999D01*
X78719722Y-80264000D01*
X78738763Y-80420819D01*
X78738763Y-80420821D01*
X78754202Y-80461530D01*
X78759569Y-80531193D01*
X78726421Y-80592699D01*
X78665282Y-80626520D01*
X78638260Y-80629500D01*
X78534014Y-80629500D01*
X78380634Y-80667303D01*
X78240762Y-80740715D01*
X78235765Y-80745142D01*
X78128806Y-80839899D01*
X78122516Y-80845471D01*
X78032781Y-80975475D01*
X78032780Y-80975476D01*
X77976762Y-81123181D01*
X77957425Y-81282446D01*
X77929803Y-81346624D01*
X77871869Y-81385681D01*
X77834329Y-81391500D01*
X77772014Y-81391500D01*
X77618634Y-81429303D01*
X77478762Y-81502715D01*
X77419540Y-81555181D01*
X77374055Y-81595477D01*
X77360516Y-81607471D01*
X77270781Y-81737475D01*
X77270780Y-81737476D01*
X77214762Y-81885181D01*
X77195722Y-82041999D01*
X77195722Y-82042000D01*
X77214762Y-82198818D01*
X77264347Y-82329560D01*
X77270780Y-82346523D01*
X77360517Y-82476530D01*
X77478760Y-82581283D01*
X77478762Y-82581284D01*
X77618634Y-82654696D01*
X77772014Y-82692500D01*
X77772015Y-82692500D01*
X77929985Y-82692500D01*
X78083365Y-82654696D01*
X78137135Y-82626475D01*
X78223240Y-82581283D01*
X78288256Y-82523683D01*
X78351490Y-82493963D01*
X78370483Y-82492500D01*
X81316336Y-82492500D01*
X81323274Y-82492889D01*
X81355169Y-82496483D01*
X81362153Y-82497270D01*
X81362153Y-82497269D01*
X81362154Y-82497270D01*
X81420598Y-82486211D01*
X81479406Y-82477348D01*
X81479409Y-82477346D01*
X81487566Y-82474830D01*
X81495588Y-82472023D01*
X81495591Y-82472023D01*
X81548182Y-82444227D01*
X81550755Y-82442987D01*
X81555389Y-82440755D01*
X81624326Y-82429395D01*
X81688464Y-82457108D01*
X81727438Y-82515098D01*
X81732299Y-82567413D01*
X81728222Y-82600996D01*
X81728222Y-82601000D01*
X81747262Y-82757818D01*
X81798829Y-82893786D01*
X81803280Y-82905523D01*
X81893017Y-83035530D01*
X82011260Y-83140283D01*
X82011262Y-83140284D01*
X82151134Y-83213696D01*
X82304514Y-83251500D01*
X82304515Y-83251500D01*
X82462485Y-83251500D01*
X82615865Y-83213696D01*
X82629989Y-83206283D01*
X82755740Y-83140283D01*
X82873983Y-83035530D01*
X82963720Y-82905523D01*
X83019737Y-82757818D01*
X83038778Y-82601000D01*
X83038108Y-82595477D01*
X83019737Y-82444181D01*
X82982700Y-82346523D01*
X82963720Y-82296477D01*
X82873983Y-82166470D01*
X82755740Y-82061717D01*
X82755738Y-82061716D01*
X82755737Y-82061715D01*
X82615865Y-81988303D01*
X82462486Y-81950500D01*
X82462485Y-81950500D01*
X82373084Y-81950500D01*
X82306045Y-81930815D01*
X82260290Y-81878011D01*
X82250346Y-81808853D01*
X82279371Y-81745297D01*
X82285403Y-81738819D01*
X85051738Y-78972484D01*
X85113061Y-78938999D01*
X85139419Y-78936165D01*
X85336327Y-78936165D01*
X85403366Y-78955850D01*
X85418551Y-78967347D01*
X85483570Y-79024948D01*
X85483572Y-79024949D01*
X85623444Y-79098361D01*
X85776824Y-79136165D01*
X85776825Y-79136165D01*
X85934795Y-79136165D01*
X86088175Y-79098361D01*
X86128541Y-79077175D01*
X86228050Y-79024948D01*
X86256209Y-79000002D01*
X115244751Y-79000002D01*
X115263685Y-79168056D01*
X115319545Y-79327694D01*
X115319547Y-79327697D01*
X115409518Y-79470884D01*
X115409523Y-79470890D01*
X115529109Y-79590476D01*
X115529115Y-79590481D01*
X115672302Y-79680452D01*
X115672305Y-79680454D01*
X115672309Y-79680455D01*
X115672310Y-79680456D01*
X115744913Y-79705860D01*
X115831943Y-79736314D01*
X115999997Y-79755249D01*
X116000000Y-79755249D01*
X116000003Y-79755249D01*
X116168056Y-79736314D01*
X116168059Y-79736313D01*
X116327690Y-79680456D01*
X116327692Y-79680454D01*
X116327694Y-79680454D01*
X116327697Y-79680452D01*
X116470884Y-79590481D01*
X116470885Y-79590480D01*
X116470890Y-79590477D01*
X116590477Y-79470890D01*
X116592950Y-79466955D01*
X116680452Y-79327697D01*
X116680454Y-79327694D01*
X116680454Y-79327692D01*
X116680456Y-79327690D01*
X116736313Y-79168059D01*
X116736313Y-79168058D01*
X116736314Y-79168056D01*
X116755249Y-79000002D01*
X117244751Y-79000002D01*
X117263685Y-79168056D01*
X117319545Y-79327694D01*
X117319547Y-79327697D01*
X117409518Y-79470884D01*
X117409523Y-79470890D01*
X117529109Y-79590476D01*
X117529115Y-79590481D01*
X117672302Y-79680452D01*
X117672305Y-79680454D01*
X117672309Y-79680455D01*
X117672310Y-79680456D01*
X117744913Y-79705860D01*
X117831943Y-79736314D01*
X117999997Y-79755249D01*
X118000000Y-79755249D01*
X118000003Y-79755249D01*
X118168056Y-79736314D01*
X118168059Y-79736313D01*
X118327690Y-79680456D01*
X118327692Y-79680454D01*
X118327694Y-79680454D01*
X118327697Y-79680452D01*
X118470884Y-79590481D01*
X118470885Y-79590480D01*
X118470890Y-79590477D01*
X118590477Y-79470890D01*
X118592950Y-79466955D01*
X118680452Y-79327697D01*
X118680454Y-79327694D01*
X118680454Y-79327692D01*
X118680456Y-79327690D01*
X118736313Y-79168059D01*
X118736313Y-79168058D01*
X118736314Y-79168056D01*
X118755249Y-79000002D01*
X119244751Y-79000002D01*
X119263685Y-79168056D01*
X119319545Y-79327694D01*
X119319547Y-79327697D01*
X119409518Y-79470884D01*
X119409523Y-79470890D01*
X119529109Y-79590476D01*
X119529115Y-79590481D01*
X119672302Y-79680452D01*
X119672305Y-79680454D01*
X119672309Y-79680455D01*
X119672310Y-79680456D01*
X119744913Y-79705860D01*
X119831943Y-79736314D01*
X119999997Y-79755249D01*
X120000000Y-79755249D01*
X120000003Y-79755249D01*
X120168056Y-79736314D01*
X120168059Y-79736313D01*
X120327690Y-79680456D01*
X120327692Y-79680454D01*
X120327694Y-79680454D01*
X120327697Y-79680452D01*
X120470884Y-79590481D01*
X120470885Y-79590480D01*
X120470890Y-79590477D01*
X120590477Y-79470890D01*
X120592950Y-79466955D01*
X120680452Y-79327697D01*
X120680454Y-79327694D01*
X120680454Y-79327692D01*
X120680456Y-79327690D01*
X120736313Y-79168059D01*
X120736313Y-79168058D01*
X120736314Y-79168056D01*
X120755249Y-79000002D01*
X121244751Y-79000002D01*
X121263685Y-79168056D01*
X121319545Y-79327694D01*
X121319547Y-79327697D01*
X121409518Y-79470884D01*
X121409523Y-79470890D01*
X121529109Y-79590476D01*
X121529115Y-79590481D01*
X121672302Y-79680452D01*
X121672305Y-79680454D01*
X121672309Y-79680455D01*
X121672310Y-79680456D01*
X121744913Y-79705860D01*
X121831943Y-79736314D01*
X121999997Y-79755249D01*
X122000000Y-79755249D01*
X122000003Y-79755249D01*
X122168056Y-79736314D01*
X122168059Y-79736313D01*
X122327690Y-79680456D01*
X122327692Y-79680454D01*
X122327694Y-79680454D01*
X122327697Y-79680452D01*
X122470884Y-79590481D01*
X122470885Y-79590480D01*
X122470890Y-79590477D01*
X122590477Y-79470890D01*
X122592950Y-79466955D01*
X122680452Y-79327697D01*
X122680454Y-79327694D01*
X122680454Y-79327692D01*
X122680456Y-79327690D01*
X122736313Y-79168059D01*
X122736313Y-79168058D01*
X122736314Y-79168056D01*
X122755249Y-79000002D01*
X123244751Y-79000002D01*
X123263685Y-79168056D01*
X123319545Y-79327694D01*
X123319547Y-79327697D01*
X123409518Y-79470884D01*
X123409523Y-79470890D01*
X123529109Y-79590476D01*
X123529115Y-79590481D01*
X123672302Y-79680452D01*
X123672305Y-79680454D01*
X123672309Y-79680455D01*
X123672310Y-79680456D01*
X123744913Y-79705860D01*
X123831943Y-79736314D01*
X123999997Y-79755249D01*
X124000000Y-79755249D01*
X124000003Y-79755249D01*
X124168056Y-79736314D01*
X124168059Y-79736313D01*
X124327690Y-79680456D01*
X124327692Y-79680454D01*
X124327694Y-79680454D01*
X124327697Y-79680452D01*
X124470884Y-79590481D01*
X124470885Y-79590480D01*
X124470890Y-79590477D01*
X124590477Y-79470890D01*
X124592950Y-79466955D01*
X124680452Y-79327697D01*
X124680454Y-79327694D01*
X124680454Y-79327692D01*
X124680456Y-79327690D01*
X124736313Y-79168059D01*
X124736313Y-79168058D01*
X124736314Y-79168056D01*
X124755249Y-79000002D01*
X125244751Y-79000002D01*
X125263685Y-79168056D01*
X125319545Y-79327694D01*
X125319547Y-79327697D01*
X125409518Y-79470884D01*
X125409523Y-79470890D01*
X125529109Y-79590476D01*
X125529115Y-79590481D01*
X125672302Y-79680452D01*
X125672305Y-79680454D01*
X125672309Y-79680455D01*
X125672310Y-79680456D01*
X125744913Y-79705860D01*
X125831943Y-79736314D01*
X125999997Y-79755249D01*
X126000000Y-79755249D01*
X126000003Y-79755249D01*
X126168056Y-79736314D01*
X126168059Y-79736313D01*
X126327690Y-79680456D01*
X126327692Y-79680454D01*
X126327694Y-79680454D01*
X126327697Y-79680452D01*
X126470884Y-79590481D01*
X126470885Y-79590480D01*
X126470890Y-79590477D01*
X126590477Y-79470890D01*
X126592950Y-79466955D01*
X126680452Y-79327697D01*
X126680454Y-79327694D01*
X126680454Y-79327692D01*
X126680456Y-79327690D01*
X126736313Y-79168059D01*
X126736313Y-79168058D01*
X126736314Y-79168056D01*
X126755249Y-79000002D01*
X127244751Y-79000002D01*
X127263685Y-79168056D01*
X127319545Y-79327694D01*
X127319547Y-79327697D01*
X127409518Y-79470884D01*
X127409523Y-79470890D01*
X127529109Y-79590476D01*
X127529115Y-79590481D01*
X127672302Y-79680452D01*
X127672305Y-79680454D01*
X127672309Y-79680455D01*
X127672310Y-79680456D01*
X127744913Y-79705860D01*
X127831943Y-79736314D01*
X127999997Y-79755249D01*
X128000000Y-79755249D01*
X128000003Y-79755249D01*
X128168056Y-79736314D01*
X128168059Y-79736313D01*
X128327690Y-79680456D01*
X128327692Y-79680454D01*
X128327694Y-79680454D01*
X128327697Y-79680452D01*
X128470884Y-79590481D01*
X128470885Y-79590480D01*
X128470890Y-79590477D01*
X128590477Y-79470890D01*
X128592950Y-79466955D01*
X128680452Y-79327697D01*
X128680454Y-79327694D01*
X128680454Y-79327692D01*
X128680456Y-79327690D01*
X128736313Y-79168059D01*
X128736313Y-79168058D01*
X128736314Y-79168056D01*
X128755249Y-79000002D01*
X129244751Y-79000002D01*
X129263685Y-79168056D01*
X129319545Y-79327694D01*
X129319547Y-79327697D01*
X129409518Y-79470884D01*
X129409523Y-79470890D01*
X129529109Y-79590476D01*
X129529115Y-79590481D01*
X129672302Y-79680452D01*
X129672305Y-79680454D01*
X129672309Y-79680455D01*
X129672310Y-79680456D01*
X129744913Y-79705860D01*
X129831943Y-79736314D01*
X129999997Y-79755249D01*
X130000000Y-79755249D01*
X130000003Y-79755249D01*
X130168056Y-79736314D01*
X130168059Y-79736313D01*
X130327690Y-79680456D01*
X130327692Y-79680454D01*
X130327694Y-79680454D01*
X130327697Y-79680452D01*
X130470884Y-79590481D01*
X130470885Y-79590480D01*
X130470890Y-79590477D01*
X130590477Y-79470890D01*
X130592950Y-79466955D01*
X130680452Y-79327697D01*
X130680454Y-79327694D01*
X130680454Y-79327692D01*
X130680456Y-79327690D01*
X130736313Y-79168059D01*
X130736313Y-79168058D01*
X130736314Y-79168056D01*
X130755249Y-79000002D01*
X131244751Y-79000002D01*
X131263685Y-79168056D01*
X131319545Y-79327694D01*
X131319547Y-79327697D01*
X131409518Y-79470884D01*
X131409523Y-79470890D01*
X131529109Y-79590476D01*
X131529115Y-79590481D01*
X131672302Y-79680452D01*
X131672305Y-79680454D01*
X131672309Y-79680455D01*
X131672310Y-79680456D01*
X131744913Y-79705860D01*
X131831943Y-79736314D01*
X131999997Y-79755249D01*
X132000000Y-79755249D01*
X132000003Y-79755249D01*
X132168056Y-79736314D01*
X132168059Y-79736313D01*
X132327690Y-79680456D01*
X132327692Y-79680454D01*
X132327694Y-79680454D01*
X132327697Y-79680452D01*
X132470884Y-79590481D01*
X132470885Y-79590480D01*
X132470890Y-79590477D01*
X132590477Y-79470890D01*
X132592950Y-79466955D01*
X132680452Y-79327697D01*
X132680454Y-79327694D01*
X132680454Y-79327692D01*
X132680456Y-79327690D01*
X132736313Y-79168059D01*
X132736313Y-79168058D01*
X132736314Y-79168056D01*
X132755249Y-79000002D01*
X132755249Y-78999997D01*
X132736314Y-78831943D01*
X132697843Y-78722000D01*
X132680456Y-78672310D01*
X132680455Y-78672309D01*
X132680454Y-78672305D01*
X132680452Y-78672302D01*
X132590481Y-78529115D01*
X132590476Y-78529109D01*
X132470890Y-78409523D01*
X132470884Y-78409518D01*
X132327697Y-78319547D01*
X132327694Y-78319545D01*
X132168056Y-78263685D01*
X132000003Y-78244751D01*
X131999997Y-78244751D01*
X131831943Y-78263685D01*
X131672305Y-78319545D01*
X131672302Y-78319547D01*
X131529115Y-78409518D01*
X131529109Y-78409523D01*
X131409523Y-78529109D01*
X131409518Y-78529115D01*
X131319547Y-78672302D01*
X131319545Y-78672305D01*
X131263685Y-78831943D01*
X131244751Y-78999997D01*
X131244751Y-79000002D01*
X130755249Y-79000002D01*
X130755249Y-78999997D01*
X130736314Y-78831943D01*
X130697843Y-78722000D01*
X130680456Y-78672310D01*
X130680455Y-78672309D01*
X130680454Y-78672305D01*
X130680452Y-78672302D01*
X130590481Y-78529115D01*
X130590476Y-78529109D01*
X130470890Y-78409523D01*
X130470884Y-78409518D01*
X130327697Y-78319547D01*
X130327694Y-78319545D01*
X130168056Y-78263685D01*
X130000003Y-78244751D01*
X129999997Y-78244751D01*
X129831943Y-78263685D01*
X129672305Y-78319545D01*
X129672302Y-78319547D01*
X129529115Y-78409518D01*
X129529109Y-78409523D01*
X129409523Y-78529109D01*
X129409518Y-78529115D01*
X129319547Y-78672302D01*
X129319545Y-78672305D01*
X129263685Y-78831943D01*
X129244751Y-78999997D01*
X129244751Y-79000002D01*
X128755249Y-79000002D01*
X128755249Y-78999997D01*
X128736314Y-78831943D01*
X128697843Y-78722000D01*
X128680456Y-78672310D01*
X128680455Y-78672309D01*
X128680454Y-78672305D01*
X128680452Y-78672302D01*
X128590481Y-78529115D01*
X128590476Y-78529109D01*
X128470890Y-78409523D01*
X128470884Y-78409518D01*
X128327697Y-78319547D01*
X128327694Y-78319545D01*
X128168056Y-78263685D01*
X128000003Y-78244751D01*
X127999997Y-78244751D01*
X127831943Y-78263685D01*
X127672305Y-78319545D01*
X127672302Y-78319547D01*
X127529115Y-78409518D01*
X127529109Y-78409523D01*
X127409523Y-78529109D01*
X127409518Y-78529115D01*
X127319547Y-78672302D01*
X127319545Y-78672305D01*
X127263685Y-78831943D01*
X127244751Y-78999997D01*
X127244751Y-79000002D01*
X126755249Y-79000002D01*
X126755249Y-78999997D01*
X126736314Y-78831943D01*
X126697843Y-78722000D01*
X126680456Y-78672310D01*
X126680455Y-78672309D01*
X126680454Y-78672305D01*
X126680452Y-78672302D01*
X126590481Y-78529115D01*
X126590476Y-78529109D01*
X126470890Y-78409523D01*
X126470884Y-78409518D01*
X126327697Y-78319547D01*
X126327694Y-78319545D01*
X126168056Y-78263685D01*
X126000003Y-78244751D01*
X125999997Y-78244751D01*
X125831943Y-78263685D01*
X125672305Y-78319545D01*
X125672302Y-78319547D01*
X125529115Y-78409518D01*
X125529109Y-78409523D01*
X125409523Y-78529109D01*
X125409518Y-78529115D01*
X125319547Y-78672302D01*
X125319545Y-78672305D01*
X125263685Y-78831943D01*
X125244751Y-78999997D01*
X125244751Y-79000002D01*
X124755249Y-79000002D01*
X124755249Y-78999997D01*
X124736314Y-78831943D01*
X124697843Y-78722000D01*
X124680456Y-78672310D01*
X124680455Y-78672309D01*
X124680454Y-78672305D01*
X124680452Y-78672302D01*
X124590481Y-78529115D01*
X124590476Y-78529109D01*
X124470890Y-78409523D01*
X124470884Y-78409518D01*
X124327697Y-78319547D01*
X124327694Y-78319545D01*
X124168056Y-78263685D01*
X124000003Y-78244751D01*
X123999997Y-78244751D01*
X123831943Y-78263685D01*
X123672305Y-78319545D01*
X123672302Y-78319547D01*
X123529115Y-78409518D01*
X123529109Y-78409523D01*
X123409523Y-78529109D01*
X123409518Y-78529115D01*
X123319547Y-78672302D01*
X123319545Y-78672305D01*
X123263685Y-78831943D01*
X123244751Y-78999997D01*
X123244751Y-79000002D01*
X122755249Y-79000002D01*
X122755249Y-78999997D01*
X122736314Y-78831943D01*
X122697843Y-78722000D01*
X122680456Y-78672310D01*
X122680455Y-78672309D01*
X122680454Y-78672305D01*
X122680452Y-78672302D01*
X122590481Y-78529115D01*
X122590476Y-78529109D01*
X122470890Y-78409523D01*
X122470884Y-78409518D01*
X122327697Y-78319547D01*
X122327694Y-78319545D01*
X122168056Y-78263685D01*
X122000003Y-78244751D01*
X121999997Y-78244751D01*
X121831943Y-78263685D01*
X121672305Y-78319545D01*
X121672302Y-78319547D01*
X121529115Y-78409518D01*
X121529109Y-78409523D01*
X121409523Y-78529109D01*
X121409518Y-78529115D01*
X121319547Y-78672302D01*
X121319545Y-78672305D01*
X121263685Y-78831943D01*
X121244751Y-78999997D01*
X121244751Y-79000002D01*
X120755249Y-79000002D01*
X120755249Y-78999997D01*
X120736314Y-78831943D01*
X120697843Y-78722000D01*
X120680456Y-78672310D01*
X120680455Y-78672309D01*
X120680454Y-78672305D01*
X120680452Y-78672302D01*
X120590481Y-78529115D01*
X120590476Y-78529109D01*
X120470890Y-78409523D01*
X120470884Y-78409518D01*
X120327697Y-78319547D01*
X120327694Y-78319545D01*
X120168056Y-78263685D01*
X120000003Y-78244751D01*
X119999997Y-78244751D01*
X119831943Y-78263685D01*
X119672305Y-78319545D01*
X119672302Y-78319547D01*
X119529115Y-78409518D01*
X119529109Y-78409523D01*
X119409523Y-78529109D01*
X119409518Y-78529115D01*
X119319547Y-78672302D01*
X119319545Y-78672305D01*
X119263685Y-78831943D01*
X119244751Y-78999997D01*
X119244751Y-79000002D01*
X118755249Y-79000002D01*
X118755249Y-78999997D01*
X118736314Y-78831943D01*
X118697843Y-78722000D01*
X118680456Y-78672310D01*
X118680455Y-78672309D01*
X118680454Y-78672305D01*
X118680452Y-78672302D01*
X118590481Y-78529115D01*
X118590476Y-78529109D01*
X118470890Y-78409523D01*
X118470884Y-78409518D01*
X118327697Y-78319547D01*
X118327694Y-78319545D01*
X118168056Y-78263685D01*
X118000003Y-78244751D01*
X117999997Y-78244751D01*
X117831943Y-78263685D01*
X117672305Y-78319545D01*
X117672302Y-78319547D01*
X117529115Y-78409518D01*
X117529109Y-78409523D01*
X117409523Y-78529109D01*
X117409518Y-78529115D01*
X117319547Y-78672302D01*
X117319545Y-78672305D01*
X117263685Y-78831943D01*
X117244751Y-78999997D01*
X117244751Y-79000002D01*
X116755249Y-79000002D01*
X116755249Y-78999997D01*
X116736314Y-78831943D01*
X116697843Y-78722000D01*
X116680456Y-78672310D01*
X116680455Y-78672309D01*
X116680454Y-78672305D01*
X116680452Y-78672302D01*
X116590481Y-78529115D01*
X116590476Y-78529109D01*
X116470890Y-78409523D01*
X116470884Y-78409518D01*
X116327697Y-78319547D01*
X116327694Y-78319545D01*
X116168056Y-78263685D01*
X116000003Y-78244751D01*
X115999997Y-78244751D01*
X115831943Y-78263685D01*
X115672305Y-78319545D01*
X115672302Y-78319547D01*
X115529115Y-78409518D01*
X115529109Y-78409523D01*
X115409523Y-78529109D01*
X115409518Y-78529115D01*
X115319547Y-78672302D01*
X115319545Y-78672305D01*
X115263685Y-78831943D01*
X115244751Y-78999997D01*
X115244751Y-79000002D01*
X86256209Y-79000002D01*
X86346293Y-78920195D01*
X86436030Y-78790188D01*
X86492047Y-78642483D01*
X86511088Y-78485665D01*
X86503259Y-78421182D01*
X86492047Y-78328846D01*
X86467334Y-78263685D01*
X86436030Y-78181142D01*
X86364146Y-78077000D01*
X137393722Y-78077000D01*
X137412762Y-78233818D01*
X137468779Y-78381522D01*
X137468780Y-78381523D01*
X137558517Y-78511530D01*
X137676760Y-78616283D01*
X137676762Y-78616284D01*
X137816634Y-78689696D01*
X137970014Y-78727500D01*
X137970015Y-78727500D01*
X138127985Y-78727500D01*
X138281365Y-78689696D01*
X138314506Y-78672302D01*
X138421240Y-78616283D01*
X138539483Y-78511530D01*
X138629220Y-78381523D01*
X138685237Y-78233818D01*
X138704278Y-78077000D01*
X138701138Y-78051135D01*
X138685237Y-77920181D01*
X138652977Y-77835120D01*
X138629220Y-77772477D01*
X138539483Y-77642470D01*
X138421240Y-77537717D01*
X138421238Y-77537716D01*
X138421237Y-77537715D01*
X138281365Y-77464303D01*
X138127986Y-77426500D01*
X138127985Y-77426500D01*
X137970015Y-77426500D01*
X137970014Y-77426500D01*
X137816634Y-77464303D01*
X137676762Y-77537715D01*
X137558516Y-77642471D01*
X137468781Y-77772475D01*
X137468780Y-77772476D01*
X137412762Y-77920181D01*
X137393722Y-78076999D01*
X137393722Y-78077000D01*
X86364146Y-78077000D01*
X86346293Y-78051135D01*
X86228050Y-77946382D01*
X86228048Y-77946381D01*
X86228047Y-77946380D01*
X86088175Y-77872968D01*
X85934796Y-77835165D01*
X85934795Y-77835165D01*
X85776825Y-77835165D01*
X85776824Y-77835165D01*
X85623444Y-77872968D01*
X85483572Y-77946379D01*
X85426434Y-77996999D01*
X85363200Y-78026719D01*
X85293937Y-78017535D01*
X85240634Y-77972362D01*
X85220215Y-77905542D01*
X85221111Y-77889244D01*
X85239356Y-77738986D01*
X85221324Y-77590476D01*
X85220315Y-77582167D01*
X85178113Y-77470890D01*
X85164298Y-77434463D01*
X85074561Y-77304456D01*
X84956318Y-77199703D01*
X84956316Y-77199702D01*
X84956315Y-77199701D01*
X84816444Y-77126290D01*
X84803789Y-77123171D01*
X84743408Y-77088015D01*
X84711620Y-77025795D01*
X84710368Y-76987830D01*
X84715760Y-76943425D01*
X84696719Y-76786607D01*
X84693418Y-76777904D01*
X84668048Y-76711008D01*
X84640702Y-76638902D01*
X84550965Y-76508895D01*
X84432722Y-76404142D01*
X84432720Y-76404141D01*
X84432719Y-76404140D01*
X84292847Y-76330728D01*
X84139468Y-76292925D01*
X84139467Y-76292925D01*
X83981497Y-76292925D01*
X83981496Y-76292925D01*
X83828116Y-76330728D01*
X83688244Y-76404140D01*
X83682168Y-76409523D01*
X83631965Y-76453999D01*
X83566787Y-76511741D01*
X83503553Y-76541462D01*
X83484560Y-76542925D01*
X83016541Y-76542925D01*
X82949502Y-76523240D01*
X82903747Y-76470436D01*
X82893803Y-76401278D01*
X82922828Y-76337722D01*
X82928860Y-76331244D01*
X83692871Y-75567232D01*
X84457649Y-74802452D01*
X84518970Y-74768969D01*
X84588661Y-74773953D01*
X84602949Y-74780336D01*
X84603635Y-74780696D01*
X84757015Y-74818500D01*
X84914985Y-74818500D01*
X85068365Y-74780696D01*
X85069051Y-74780336D01*
X85208240Y-74707283D01*
X85326483Y-74602530D01*
X85416220Y-74472523D01*
X85472237Y-74324818D01*
X85491278Y-74168000D01*
X85472237Y-74011182D01*
X85472237Y-74011181D01*
X85471492Y-74005046D01*
X85482952Y-73936123D01*
X85529856Y-73884337D01*
X85594588Y-73866100D01*
X86258634Y-73866100D01*
X86325673Y-73885785D01*
X86346315Y-73902419D01*
X86560952Y-74117056D01*
X86594437Y-74178379D01*
X86596367Y-74189790D01*
X86612763Y-74324819D01*
X86658217Y-74444670D01*
X86668780Y-74472523D01*
X86758517Y-74602530D01*
X86876760Y-74707283D01*
X86876762Y-74707284D01*
X87016634Y-74780696D01*
X87170014Y-74818500D01*
X87170015Y-74818500D01*
X87327985Y-74818500D01*
X87481365Y-74780696D01*
X87482051Y-74780336D01*
X87621240Y-74707283D01*
X87739483Y-74602530D01*
X87829220Y-74472523D01*
X87885237Y-74324818D01*
X87904278Y-74168000D01*
X87888885Y-74041227D01*
X99293716Y-74041227D01*
X99312756Y-74198045D01*
X99360836Y-74324819D01*
X99368774Y-74345750D01*
X99458511Y-74475757D01*
X99576754Y-74580510D01*
X99576756Y-74580511D01*
X99716628Y-74653923D01*
X99870008Y-74691727D01*
X99870009Y-74691727D01*
X100027979Y-74691727D01*
X100181359Y-74653923D01*
X100321227Y-74580514D01*
X100321228Y-74580512D01*
X100321234Y-74580510D01*
X100329812Y-74572910D01*
X100393044Y-74543190D01*
X100412038Y-74541727D01*
X100680353Y-74541727D01*
X100747392Y-74561412D01*
X100768034Y-74578046D01*
X101684488Y-75494499D01*
X101717973Y-75555822D01*
X101719903Y-75567232D01*
X101726526Y-75621778D01*
X101726527Y-75621783D01*
X101744064Y-75668022D01*
X101749431Y-75737685D01*
X101716284Y-75799191D01*
X101657799Y-75832389D01*
X101621637Y-75841302D01*
X101621634Y-75841303D01*
X101481762Y-75914715D01*
X101363516Y-76019471D01*
X101273781Y-76149475D01*
X101273780Y-76149476D01*
X101217762Y-76297181D01*
X101198722Y-76453999D01*
X101198722Y-76454000D01*
X101217762Y-76610818D01*
X101272711Y-76755704D01*
X101273780Y-76758523D01*
X101363517Y-76888530D01*
X101481760Y-76993283D01*
X101481762Y-76993284D01*
X101621634Y-77066696D01*
X101775014Y-77104500D01*
X101775015Y-77104500D01*
X101932985Y-77104500D01*
X102086365Y-77066696D01*
X102157536Y-77029342D01*
X102213438Y-77000002D01*
X115244751Y-77000002D01*
X115263685Y-77168056D01*
X115319545Y-77327694D01*
X115319547Y-77327697D01*
X115409518Y-77470884D01*
X115409523Y-77470890D01*
X115529109Y-77590476D01*
X115529115Y-77590481D01*
X115672302Y-77680452D01*
X115672305Y-77680454D01*
X115672309Y-77680455D01*
X115672310Y-77680456D01*
X115744913Y-77705860D01*
X115831943Y-77736314D01*
X115999997Y-77755249D01*
X116000000Y-77755249D01*
X116000003Y-77755249D01*
X116168056Y-77736314D01*
X116210672Y-77721402D01*
X116327690Y-77680456D01*
X116327692Y-77680454D01*
X116327694Y-77680454D01*
X116327697Y-77680452D01*
X116470884Y-77590481D01*
X116470885Y-77590480D01*
X116470890Y-77590477D01*
X116590477Y-77470890D01*
X116590481Y-77470884D01*
X116680452Y-77327697D01*
X116680454Y-77327694D01*
X116680454Y-77327692D01*
X116680456Y-77327690D01*
X116736313Y-77168059D01*
X116736313Y-77168058D01*
X116736314Y-77168056D01*
X116755249Y-77000002D01*
X117244751Y-77000002D01*
X117263685Y-77168056D01*
X117319545Y-77327694D01*
X117319547Y-77327697D01*
X117409518Y-77470884D01*
X117409523Y-77470890D01*
X117529109Y-77590476D01*
X117529115Y-77590481D01*
X117672302Y-77680452D01*
X117672305Y-77680454D01*
X117672309Y-77680455D01*
X117672310Y-77680456D01*
X117744913Y-77705860D01*
X117831943Y-77736314D01*
X117999997Y-77755249D01*
X118000000Y-77755249D01*
X118000003Y-77755249D01*
X118168056Y-77736314D01*
X118210672Y-77721402D01*
X118327690Y-77680456D01*
X118327692Y-77680454D01*
X118327694Y-77680454D01*
X118327697Y-77680452D01*
X118470884Y-77590481D01*
X118470885Y-77590480D01*
X118470890Y-77590477D01*
X118590477Y-77470890D01*
X118590481Y-77470884D01*
X118680452Y-77327697D01*
X118680454Y-77327694D01*
X118680454Y-77327692D01*
X118680456Y-77327690D01*
X118736313Y-77168059D01*
X118736313Y-77168058D01*
X118736314Y-77168056D01*
X118755249Y-77000002D01*
X119244751Y-77000002D01*
X119263685Y-77168056D01*
X119319545Y-77327694D01*
X119319547Y-77327697D01*
X119409518Y-77470884D01*
X119409523Y-77470890D01*
X119529109Y-77590476D01*
X119529115Y-77590481D01*
X119672302Y-77680452D01*
X119672305Y-77680454D01*
X119672309Y-77680455D01*
X119672310Y-77680456D01*
X119744913Y-77705860D01*
X119831943Y-77736314D01*
X119999997Y-77755249D01*
X120000000Y-77755249D01*
X120000003Y-77755249D01*
X120168056Y-77736314D01*
X120210672Y-77721402D01*
X120327690Y-77680456D01*
X120327692Y-77680454D01*
X120327694Y-77680454D01*
X120327697Y-77680452D01*
X120470884Y-77590481D01*
X120470885Y-77590480D01*
X120470890Y-77590477D01*
X120590477Y-77470890D01*
X120590481Y-77470884D01*
X120680452Y-77327697D01*
X120680454Y-77327694D01*
X120680454Y-77327692D01*
X120680456Y-77327690D01*
X120736313Y-77168059D01*
X120736313Y-77168058D01*
X120736314Y-77168056D01*
X120755249Y-77000002D01*
X121244751Y-77000002D01*
X121263685Y-77168056D01*
X121319545Y-77327694D01*
X121319547Y-77327697D01*
X121409518Y-77470884D01*
X121409523Y-77470890D01*
X121529109Y-77590476D01*
X121529115Y-77590481D01*
X121672302Y-77680452D01*
X121672305Y-77680454D01*
X121672309Y-77680455D01*
X121672310Y-77680456D01*
X121744913Y-77705860D01*
X121831943Y-77736314D01*
X121999997Y-77755249D01*
X122000000Y-77755249D01*
X122000003Y-77755249D01*
X122168056Y-77736314D01*
X122210672Y-77721402D01*
X122327690Y-77680456D01*
X122327692Y-77680454D01*
X122327694Y-77680454D01*
X122327697Y-77680452D01*
X122470884Y-77590481D01*
X122470885Y-77590480D01*
X122470890Y-77590477D01*
X122590477Y-77470890D01*
X122590481Y-77470884D01*
X122680452Y-77327697D01*
X122680454Y-77327694D01*
X122680454Y-77327692D01*
X122680456Y-77327690D01*
X122736313Y-77168059D01*
X122736313Y-77168058D01*
X122736314Y-77168056D01*
X122755249Y-77000002D01*
X123244751Y-77000002D01*
X123263685Y-77168056D01*
X123319545Y-77327694D01*
X123319547Y-77327697D01*
X123409518Y-77470884D01*
X123409523Y-77470890D01*
X123529109Y-77590476D01*
X123529115Y-77590481D01*
X123672302Y-77680452D01*
X123672305Y-77680454D01*
X123672309Y-77680455D01*
X123672310Y-77680456D01*
X123744913Y-77705860D01*
X123831943Y-77736314D01*
X123999997Y-77755249D01*
X124000000Y-77755249D01*
X124000003Y-77755249D01*
X124168056Y-77736314D01*
X124210672Y-77721402D01*
X124327690Y-77680456D01*
X124327692Y-77680454D01*
X124327694Y-77680454D01*
X124327697Y-77680452D01*
X124470884Y-77590481D01*
X124470885Y-77590480D01*
X124470890Y-77590477D01*
X124590477Y-77470890D01*
X124590481Y-77470884D01*
X124680452Y-77327697D01*
X124680454Y-77327694D01*
X124680454Y-77327692D01*
X124680456Y-77327690D01*
X124736313Y-77168059D01*
X124736313Y-77168058D01*
X124736314Y-77168056D01*
X124755249Y-77000002D01*
X125244751Y-77000002D01*
X125263685Y-77168056D01*
X125319545Y-77327694D01*
X125319547Y-77327697D01*
X125409518Y-77470884D01*
X125409523Y-77470890D01*
X125529109Y-77590476D01*
X125529115Y-77590481D01*
X125672302Y-77680452D01*
X125672305Y-77680454D01*
X125672309Y-77680455D01*
X125672310Y-77680456D01*
X125744913Y-77705860D01*
X125831943Y-77736314D01*
X125999997Y-77755249D01*
X126000000Y-77755249D01*
X126000003Y-77755249D01*
X126168056Y-77736314D01*
X126210672Y-77721402D01*
X126327690Y-77680456D01*
X126327692Y-77680454D01*
X126327694Y-77680454D01*
X126327697Y-77680452D01*
X126470884Y-77590481D01*
X126470885Y-77590480D01*
X126470890Y-77590477D01*
X126590477Y-77470890D01*
X126590481Y-77470884D01*
X126680452Y-77327697D01*
X126680454Y-77327694D01*
X126680454Y-77327692D01*
X126680456Y-77327690D01*
X126736313Y-77168059D01*
X126736313Y-77168058D01*
X126736314Y-77168056D01*
X126755249Y-77000002D01*
X127244751Y-77000002D01*
X127263685Y-77168056D01*
X127319545Y-77327694D01*
X127319547Y-77327697D01*
X127409518Y-77470884D01*
X127409523Y-77470890D01*
X127529109Y-77590476D01*
X127529115Y-77590481D01*
X127672302Y-77680452D01*
X127672305Y-77680454D01*
X127672309Y-77680455D01*
X127672310Y-77680456D01*
X127744913Y-77705860D01*
X127831943Y-77736314D01*
X127999997Y-77755249D01*
X128000000Y-77755249D01*
X128000003Y-77755249D01*
X128168056Y-77736314D01*
X128210672Y-77721402D01*
X128327690Y-77680456D01*
X128327692Y-77680454D01*
X128327694Y-77680454D01*
X128327697Y-77680452D01*
X128470884Y-77590481D01*
X128470885Y-77590480D01*
X128470890Y-77590477D01*
X128590477Y-77470890D01*
X128590481Y-77470884D01*
X128680452Y-77327697D01*
X128680454Y-77327694D01*
X128680454Y-77327692D01*
X128680456Y-77327690D01*
X128736313Y-77168059D01*
X128736313Y-77168058D01*
X128736314Y-77168056D01*
X128755249Y-77000002D01*
X129244751Y-77000002D01*
X129263685Y-77168056D01*
X129319545Y-77327694D01*
X129319547Y-77327697D01*
X129409518Y-77470884D01*
X129409523Y-77470890D01*
X129529109Y-77590476D01*
X129529115Y-77590481D01*
X129672302Y-77680452D01*
X129672305Y-77680454D01*
X129672309Y-77680455D01*
X129672310Y-77680456D01*
X129744913Y-77705860D01*
X129831943Y-77736314D01*
X129999997Y-77755249D01*
X130000000Y-77755249D01*
X130000003Y-77755249D01*
X130168056Y-77736314D01*
X130210672Y-77721402D01*
X130327690Y-77680456D01*
X130327692Y-77680454D01*
X130327694Y-77680454D01*
X130327697Y-77680452D01*
X130470884Y-77590481D01*
X130470885Y-77590480D01*
X130470890Y-77590477D01*
X130590477Y-77470890D01*
X130590481Y-77470884D01*
X130680452Y-77327697D01*
X130680454Y-77327694D01*
X130680454Y-77327692D01*
X130680456Y-77327690D01*
X130736313Y-77168059D01*
X130736313Y-77168058D01*
X130736314Y-77168056D01*
X130755249Y-77000002D01*
X131244751Y-77000002D01*
X131263685Y-77168056D01*
X131319545Y-77327694D01*
X131319547Y-77327697D01*
X131409518Y-77470884D01*
X131409523Y-77470890D01*
X131529109Y-77590476D01*
X131529115Y-77590481D01*
X131672302Y-77680452D01*
X131672305Y-77680454D01*
X131672309Y-77680455D01*
X131672310Y-77680456D01*
X131744913Y-77705860D01*
X131831943Y-77736314D01*
X131999997Y-77755249D01*
X132000000Y-77755249D01*
X132000003Y-77755249D01*
X132168056Y-77736314D01*
X132210672Y-77721402D01*
X132327690Y-77680456D01*
X132327692Y-77680454D01*
X132327694Y-77680454D01*
X132327697Y-77680452D01*
X132470884Y-77590481D01*
X132470885Y-77590480D01*
X132470890Y-77590477D01*
X132590477Y-77470890D01*
X132590481Y-77470884D01*
X132680452Y-77327697D01*
X132680454Y-77327694D01*
X132680454Y-77327692D01*
X132680456Y-77327690D01*
X132736313Y-77168059D01*
X132736313Y-77168058D01*
X132736314Y-77168056D01*
X132755249Y-77000002D01*
X132755249Y-76999997D01*
X132736314Y-76831943D01*
X132696815Y-76719062D01*
X132680456Y-76672310D01*
X132680455Y-76672309D01*
X132680454Y-76672305D01*
X132680452Y-76672302D01*
X132590481Y-76529115D01*
X132590476Y-76529109D01*
X132470890Y-76409523D01*
X132470884Y-76409518D01*
X132327697Y-76319547D01*
X132327694Y-76319545D01*
X132168056Y-76263685D01*
X132000003Y-76244751D01*
X131999997Y-76244751D01*
X131831943Y-76263685D01*
X131672305Y-76319545D01*
X131672302Y-76319547D01*
X131529115Y-76409518D01*
X131529109Y-76409523D01*
X131409523Y-76529109D01*
X131409518Y-76529115D01*
X131319547Y-76672302D01*
X131319545Y-76672305D01*
X131263685Y-76831943D01*
X131244751Y-76999997D01*
X131244751Y-77000002D01*
X130755249Y-77000002D01*
X130755249Y-76999997D01*
X130736314Y-76831943D01*
X130696815Y-76719062D01*
X130680456Y-76672310D01*
X130680455Y-76672309D01*
X130680454Y-76672305D01*
X130680452Y-76672302D01*
X130590481Y-76529115D01*
X130590476Y-76529109D01*
X130470890Y-76409523D01*
X130470884Y-76409518D01*
X130327697Y-76319547D01*
X130327694Y-76319545D01*
X130168056Y-76263685D01*
X130000003Y-76244751D01*
X129999997Y-76244751D01*
X129831943Y-76263685D01*
X129672305Y-76319545D01*
X129672302Y-76319547D01*
X129529115Y-76409518D01*
X129529109Y-76409523D01*
X129409523Y-76529109D01*
X129409518Y-76529115D01*
X129319547Y-76672302D01*
X129319545Y-76672305D01*
X129263685Y-76831943D01*
X129244751Y-76999997D01*
X129244751Y-77000002D01*
X128755249Y-77000002D01*
X128755249Y-76999997D01*
X128736314Y-76831943D01*
X128696815Y-76719062D01*
X128680456Y-76672310D01*
X128680455Y-76672309D01*
X128680454Y-76672305D01*
X128680452Y-76672302D01*
X128590481Y-76529115D01*
X128590476Y-76529109D01*
X128470890Y-76409523D01*
X128470884Y-76409518D01*
X128327697Y-76319547D01*
X128327694Y-76319545D01*
X128168056Y-76263685D01*
X128000003Y-76244751D01*
X127999997Y-76244751D01*
X127831943Y-76263685D01*
X127672305Y-76319545D01*
X127672302Y-76319547D01*
X127529115Y-76409518D01*
X127529109Y-76409523D01*
X127409523Y-76529109D01*
X127409518Y-76529115D01*
X127319547Y-76672302D01*
X127319545Y-76672305D01*
X127263685Y-76831943D01*
X127244751Y-76999997D01*
X127244751Y-77000002D01*
X126755249Y-77000002D01*
X126755249Y-76999997D01*
X126736314Y-76831943D01*
X126696815Y-76719062D01*
X126680456Y-76672310D01*
X126680455Y-76672309D01*
X126680454Y-76672305D01*
X126680452Y-76672302D01*
X126590481Y-76529115D01*
X126590476Y-76529109D01*
X126470890Y-76409523D01*
X126470884Y-76409518D01*
X126327697Y-76319547D01*
X126327694Y-76319545D01*
X126168056Y-76263685D01*
X126000003Y-76244751D01*
X125999997Y-76244751D01*
X125831943Y-76263685D01*
X125672305Y-76319545D01*
X125672302Y-76319547D01*
X125529115Y-76409518D01*
X125529109Y-76409523D01*
X125409523Y-76529109D01*
X125409518Y-76529115D01*
X125319547Y-76672302D01*
X125319545Y-76672305D01*
X125263685Y-76831943D01*
X125244751Y-76999997D01*
X125244751Y-77000002D01*
X124755249Y-77000002D01*
X124755249Y-76999997D01*
X124736314Y-76831943D01*
X124696815Y-76719062D01*
X124680456Y-76672310D01*
X124680455Y-76672309D01*
X124680454Y-76672305D01*
X124680452Y-76672302D01*
X124590481Y-76529115D01*
X124590476Y-76529109D01*
X124470890Y-76409523D01*
X124470884Y-76409518D01*
X124327697Y-76319547D01*
X124327694Y-76319545D01*
X124168056Y-76263685D01*
X124000003Y-76244751D01*
X123999997Y-76244751D01*
X123831943Y-76263685D01*
X123672305Y-76319545D01*
X123672302Y-76319547D01*
X123529115Y-76409518D01*
X123529109Y-76409523D01*
X123409523Y-76529109D01*
X123409518Y-76529115D01*
X123319547Y-76672302D01*
X123319545Y-76672305D01*
X123263685Y-76831943D01*
X123244751Y-76999997D01*
X123244751Y-77000002D01*
X122755249Y-77000002D01*
X122755249Y-76999997D01*
X122736314Y-76831943D01*
X122696815Y-76719062D01*
X122680456Y-76672310D01*
X122680455Y-76672309D01*
X122680454Y-76672305D01*
X122680452Y-76672302D01*
X122590481Y-76529115D01*
X122590476Y-76529109D01*
X122470890Y-76409523D01*
X122470884Y-76409518D01*
X122327697Y-76319547D01*
X122327694Y-76319545D01*
X122168056Y-76263685D01*
X122000003Y-76244751D01*
X121999997Y-76244751D01*
X121831943Y-76263685D01*
X121672305Y-76319545D01*
X121672302Y-76319547D01*
X121529115Y-76409518D01*
X121529109Y-76409523D01*
X121409523Y-76529109D01*
X121409518Y-76529115D01*
X121319547Y-76672302D01*
X121319545Y-76672305D01*
X121263685Y-76831943D01*
X121244751Y-76999997D01*
X121244751Y-77000002D01*
X120755249Y-77000002D01*
X120755249Y-76999997D01*
X120736314Y-76831943D01*
X120696815Y-76719062D01*
X120680456Y-76672310D01*
X120680455Y-76672309D01*
X120680454Y-76672305D01*
X120680452Y-76672302D01*
X120590481Y-76529115D01*
X120590476Y-76529109D01*
X120470890Y-76409523D01*
X120470884Y-76409518D01*
X120327697Y-76319547D01*
X120327694Y-76319545D01*
X120168056Y-76263685D01*
X120000003Y-76244751D01*
X119999997Y-76244751D01*
X119831943Y-76263685D01*
X119672305Y-76319545D01*
X119672302Y-76319547D01*
X119529115Y-76409518D01*
X119529109Y-76409523D01*
X119409523Y-76529109D01*
X119409518Y-76529115D01*
X119319547Y-76672302D01*
X119319545Y-76672305D01*
X119263685Y-76831943D01*
X119244751Y-76999997D01*
X119244751Y-77000002D01*
X118755249Y-77000002D01*
X118755249Y-76999997D01*
X118736314Y-76831943D01*
X118696815Y-76719062D01*
X118680456Y-76672310D01*
X118680455Y-76672309D01*
X118680454Y-76672305D01*
X118680452Y-76672302D01*
X118590481Y-76529115D01*
X118590476Y-76529109D01*
X118470890Y-76409523D01*
X118470884Y-76409518D01*
X118327697Y-76319547D01*
X118327694Y-76319545D01*
X118168056Y-76263685D01*
X118000003Y-76244751D01*
X117999997Y-76244751D01*
X117831943Y-76263685D01*
X117672305Y-76319545D01*
X117672302Y-76319547D01*
X117529115Y-76409518D01*
X117529109Y-76409523D01*
X117409523Y-76529109D01*
X117409518Y-76529115D01*
X117319547Y-76672302D01*
X117319545Y-76672305D01*
X117263685Y-76831943D01*
X117244751Y-76999997D01*
X117244751Y-77000002D01*
X116755249Y-77000002D01*
X116755249Y-76999997D01*
X116736314Y-76831943D01*
X116696815Y-76719062D01*
X116680456Y-76672310D01*
X116680455Y-76672309D01*
X116680454Y-76672305D01*
X116680452Y-76672302D01*
X116590481Y-76529115D01*
X116590476Y-76529109D01*
X116470890Y-76409523D01*
X116470884Y-76409518D01*
X116327697Y-76319547D01*
X116327694Y-76319545D01*
X116168056Y-76263685D01*
X116000003Y-76244751D01*
X115999997Y-76244751D01*
X115831943Y-76263685D01*
X115672305Y-76319545D01*
X115672302Y-76319547D01*
X115529115Y-76409518D01*
X115529109Y-76409523D01*
X115409523Y-76529109D01*
X115409518Y-76529115D01*
X115319547Y-76672302D01*
X115319545Y-76672305D01*
X115263685Y-76831943D01*
X115244751Y-76999997D01*
X115244751Y-77000002D01*
X102213438Y-77000002D01*
X102226240Y-76993283D01*
X102291256Y-76935683D01*
X102354490Y-76905963D01*
X102373483Y-76904500D01*
X103603217Y-76904500D01*
X103610155Y-76904889D01*
X103641935Y-76908470D01*
X103649034Y-76909270D01*
X103649034Y-76909269D01*
X103649035Y-76909270D01*
X103707479Y-76898211D01*
X103766287Y-76889348D01*
X103766290Y-76889346D01*
X103774447Y-76886830D01*
X103782469Y-76884023D01*
X103782472Y-76884023D01*
X103835072Y-76856222D01*
X103888642Y-76830425D01*
X103888642Y-76830424D01*
X103888644Y-76830424D01*
X103895695Y-76825616D01*
X103902534Y-76820567D01*
X103902538Y-76820566D01*
X103944597Y-76778506D01*
X103988194Y-76738055D01*
X103988197Y-76738048D01*
X103993991Y-76730785D01*
X103994647Y-76731308D01*
X104004035Y-76719066D01*
X104012096Y-76711006D01*
X104012099Y-76711004D01*
X104029537Y-76693566D01*
X104029538Y-76693566D01*
X104854431Y-75868671D01*
X104912433Y-75835958D01*
X105014852Y-75810715D01*
X105154727Y-75737302D01*
X105272970Y-75632549D01*
X105362707Y-75502542D01*
X105418724Y-75354837D01*
X105437765Y-75198019D01*
X105429040Y-75126157D01*
X105418724Y-75041200D01*
X105385010Y-74952304D01*
X105362707Y-74893496D01*
X105352839Y-74879200D01*
X133558321Y-74879200D01*
X133577362Y-75036018D01*
X133633379Y-75183722D01*
X133633380Y-75183723D01*
X133723117Y-75313730D01*
X133841360Y-75418483D01*
X133841362Y-75418484D01*
X133981234Y-75491896D01*
X134134614Y-75529700D01*
X134134615Y-75529700D01*
X134292585Y-75529700D01*
X134445965Y-75491896D01*
X134480741Y-75473644D01*
X134585840Y-75418483D01*
X134704083Y-75313730D01*
X134793820Y-75183723D01*
X134849837Y-75036018D01*
X134868878Y-74879200D01*
X134859560Y-74802454D01*
X134849837Y-74722381D01*
X134825699Y-74658736D01*
X134793820Y-74574677D01*
X134759308Y-74524678D01*
X148949500Y-74524678D01*
X148964032Y-74597735D01*
X148964033Y-74597739D01*
X148968823Y-74604908D01*
X149019399Y-74680601D01*
X149081930Y-74722382D01*
X149102260Y-74735966D01*
X149102264Y-74735967D01*
X149175321Y-74750499D01*
X149175324Y-74750500D01*
X149175326Y-74750500D01*
X151824676Y-74750500D01*
X151824677Y-74750499D01*
X151897740Y-74735966D01*
X151980601Y-74680601D01*
X152035966Y-74597740D01*
X152050500Y-74524674D01*
X152050500Y-71875326D01*
X152050500Y-71875325D01*
X152050500Y-71875323D01*
X152050499Y-71875321D01*
X152035967Y-71802264D01*
X152035966Y-71802260D01*
X152013157Y-71768124D01*
X151980601Y-71719399D01*
X151897740Y-71664034D01*
X151897739Y-71664033D01*
X151897735Y-71664032D01*
X151824677Y-71649500D01*
X151824674Y-71649500D01*
X149175326Y-71649500D01*
X149175323Y-71649500D01*
X149102264Y-71664032D01*
X149102260Y-71664033D01*
X149019399Y-71719399D01*
X148964033Y-71802260D01*
X148964032Y-71802264D01*
X148949500Y-71875321D01*
X148949500Y-74524678D01*
X134759308Y-74524678D01*
X134704083Y-74444670D01*
X134585840Y-74339917D01*
X134585838Y-74339916D01*
X134585837Y-74339915D01*
X134445965Y-74266503D01*
X134292586Y-74228700D01*
X134292585Y-74228700D01*
X134134615Y-74228700D01*
X134134614Y-74228700D01*
X133981234Y-74266503D01*
X133841362Y-74339915D01*
X133762531Y-74409752D01*
X133738031Y-74431458D01*
X133723116Y-74444671D01*
X133633381Y-74574675D01*
X133633380Y-74574676D01*
X133577362Y-74722381D01*
X133558321Y-74879199D01*
X133558321Y-74879200D01*
X105352839Y-74879200D01*
X105272970Y-74763489D01*
X105154727Y-74658736D01*
X105154725Y-74658735D01*
X105154724Y-74658734D01*
X105014454Y-74585114D01*
X104964242Y-74536530D01*
X104948267Y-74468511D01*
X104948787Y-74462098D01*
X104951500Y-74436873D01*
X104951499Y-74092481D01*
X104957569Y-74054162D01*
X104982499Y-73977438D01*
X104982500Y-73977433D01*
X104982500Y-73850568D01*
X104982499Y-73850565D01*
X104957568Y-73773835D01*
X104951499Y-73735516D01*
X104951499Y-73391129D01*
X104951498Y-73391123D01*
X104951497Y-73391116D01*
X104945091Y-73331517D01*
X104930185Y-73291553D01*
X104894797Y-73196671D01*
X104894793Y-73196664D01*
X104808547Y-73081455D01*
X104808544Y-73081452D01*
X104693335Y-72995206D01*
X104693328Y-72995202D01*
X104558486Y-72944910D01*
X104558485Y-72944909D01*
X104558483Y-72944909D01*
X104498873Y-72938500D01*
X104498863Y-72938500D01*
X103903129Y-72938500D01*
X103903123Y-72938501D01*
X103843516Y-72944908D01*
X103708671Y-72995202D01*
X103708664Y-72995206D01*
X103593455Y-73081452D01*
X103593452Y-73081455D01*
X103507206Y-73196664D01*
X103507202Y-73196671D01*
X103456908Y-73331517D01*
X103450543Y-73390727D01*
X103450501Y-73391123D01*
X103450500Y-73391135D01*
X103450500Y-74431458D01*
X103433584Y-74489064D01*
X103435374Y-74489976D01*
X103430515Y-74499509D01*
X103428727Y-74501551D01*
X103426844Y-74504307D01*
X103425241Y-74506515D01*
X103424716Y-74506134D01*
X103390490Y-74545241D01*
X103386766Y-74547811D01*
X103330409Y-74597739D01*
X103273245Y-74648382D01*
X103268515Y-74652572D01*
X103222881Y-74718683D01*
X103175331Y-74757215D01*
X103172296Y-74799667D01*
X103172056Y-74800305D01*
X103122763Y-74930280D01*
X103111514Y-75022923D01*
X103083892Y-75087101D01*
X103025958Y-75126157D01*
X102956105Y-75127692D01*
X102896511Y-75091217D01*
X102886368Y-75078416D01*
X102860680Y-75041201D01*
X102853247Y-75030432D01*
X102853243Y-75030429D01*
X102853241Y-75030426D01*
X102843272Y-75021594D01*
X102806146Y-74962404D01*
X102801500Y-74928780D01*
X102801500Y-74888749D01*
X102821185Y-74821710D01*
X102851190Y-74789482D01*
X102863408Y-74780336D01*
X102908546Y-74746546D01*
X102916466Y-74735967D01*
X102937938Y-74707283D01*
X102956847Y-74682023D01*
X103001785Y-74648382D01*
X103003071Y-74609405D01*
X103004631Y-74604959D01*
X103045091Y-74496483D01*
X103051500Y-74436873D01*
X103051499Y-74092481D01*
X103057569Y-74054162D01*
X103082499Y-73977438D01*
X103082500Y-73977433D01*
X103082500Y-73850568D01*
X103082499Y-73850565D01*
X103057568Y-73773835D01*
X103051499Y-73735516D01*
X103051499Y-73391129D01*
X103051498Y-73391123D01*
X103051497Y-73391116D01*
X103045091Y-73331517D01*
X103030185Y-73291553D01*
X102994797Y-73196671D01*
X102994793Y-73196664D01*
X102908547Y-73081455D01*
X102908544Y-73081452D01*
X102793335Y-72995206D01*
X102793328Y-72995202D01*
X102658486Y-72944910D01*
X102658485Y-72944909D01*
X102658483Y-72944909D01*
X102598873Y-72938500D01*
X102598863Y-72938500D01*
X102003129Y-72938500D01*
X102003123Y-72938501D01*
X101943516Y-72944908D01*
X101808671Y-72995202D01*
X101808664Y-72995206D01*
X101693455Y-73081452D01*
X101693452Y-73081455D01*
X101607206Y-73196664D01*
X101607202Y-73196671D01*
X101556908Y-73331517D01*
X101550543Y-73390727D01*
X101550501Y-73391123D01*
X101550500Y-73391135D01*
X101550500Y-73644634D01*
X101530815Y-73711673D01*
X101478011Y-73757428D01*
X101408853Y-73767372D01*
X101345297Y-73738347D01*
X101322187Y-73711678D01*
X101321173Y-73710100D01*
X101321171Y-73710098D01*
X101314176Y-73704037D01*
X101281961Y-73676123D01*
X101278729Y-73673113D01*
X101267625Y-73662009D01*
X101267617Y-73662002D01*
X101255042Y-73652589D01*
X101251612Y-73649825D01*
X101212402Y-73615850D01*
X101212400Y-73615849D01*
X101212396Y-73615846D01*
X101208012Y-73613844D01*
X101185223Y-73600323D01*
X101181360Y-73597431D01*
X101181358Y-73597430D01*
X101132745Y-73579298D01*
X101128671Y-73577610D01*
X101081486Y-73556062D01*
X101081484Y-73556061D01*
X101076711Y-73555375D01*
X101051029Y-73548820D01*
X101046514Y-73547136D01*
X100994769Y-73543434D01*
X100990372Y-73542961D01*
X100974828Y-73540727D01*
X100959123Y-73540727D01*
X100954700Y-73540569D01*
X100937112Y-73539311D01*
X100902958Y-73536868D01*
X100902954Y-73536868D01*
X100898244Y-73537893D01*
X100871886Y-73540727D01*
X100412038Y-73540727D01*
X100344999Y-73521042D01*
X100329814Y-73509545D01*
X100321234Y-73501944D01*
X100321232Y-73501943D01*
X100321231Y-73501942D01*
X100321227Y-73501939D01*
X100181359Y-73428530D01*
X100027980Y-73390727D01*
X100027979Y-73390727D01*
X99870009Y-73390727D01*
X99870008Y-73390727D01*
X99716628Y-73428530D01*
X99576756Y-73501942D01*
X99458510Y-73606698D01*
X99368775Y-73736702D01*
X99368774Y-73736703D01*
X99312756Y-73884408D01*
X99293716Y-74041226D01*
X99293716Y-74041227D01*
X87888885Y-74041227D01*
X87885237Y-74011182D01*
X87829220Y-73863477D01*
X87739483Y-73733470D01*
X87621240Y-73628717D01*
X87621238Y-73628716D01*
X87621237Y-73628715D01*
X87481365Y-73555303D01*
X87327986Y-73517500D01*
X87327985Y-73517500D01*
X87286965Y-73517500D01*
X87219926Y-73497815D01*
X87199284Y-73481181D01*
X86835508Y-73117405D01*
X86830871Y-73112217D01*
X86821864Y-73100923D01*
X86806479Y-73081630D01*
X86806222Y-73081455D01*
X86757328Y-73048119D01*
X86709482Y-73012807D01*
X86701897Y-73008798D01*
X86694277Y-73005129D01*
X86662093Y-72995202D01*
X86637422Y-72987592D01*
X86616442Y-72980251D01*
X86581295Y-72967952D01*
X86572926Y-72966368D01*
X86564504Y-72965100D01*
X86564502Y-72965100D01*
X86505026Y-72965100D01*
X86445590Y-72962875D01*
X86436356Y-72963916D01*
X86436262Y-72963086D01*
X86420964Y-72965100D01*
X83888083Y-72965100D01*
X83881144Y-72964710D01*
X83866726Y-72963086D01*
X83842264Y-72960329D01*
X83791843Y-72969870D01*
X83783820Y-72971388D01*
X83771132Y-72973300D01*
X83725016Y-72980251D01*
X83716832Y-72982775D01*
X83708828Y-72985576D01*
X83656236Y-73013373D01*
X83602657Y-73039174D01*
X83595638Y-73043959D01*
X83588761Y-73049035D01*
X83546713Y-73091083D01*
X83503103Y-73131547D01*
X83497313Y-73138808D01*
X83496662Y-73138288D01*
X83487267Y-73150528D01*
X81075716Y-75562081D01*
X81014393Y-75595566D01*
X80988035Y-75598400D01*
X80947014Y-75598400D01*
X80793634Y-75636203D01*
X80653762Y-75709615D01*
X80535516Y-75814371D01*
X80445781Y-75944375D01*
X80445780Y-75944376D01*
X80389763Y-76092080D01*
X80370194Y-76253247D01*
X80342572Y-76317425D01*
X80284638Y-76356481D01*
X80247098Y-76362300D01*
X80224666Y-76362300D01*
X80155926Y-76379242D01*
X80086123Y-76376172D01*
X80029062Y-76335852D01*
X80002857Y-76271082D01*
X80002252Y-76258845D01*
X80002252Y-72796400D01*
X133558321Y-72796400D01*
X133577362Y-72953218D01*
X133625996Y-73081452D01*
X133633380Y-73100923D01*
X133723117Y-73230930D01*
X133841360Y-73335683D01*
X133841362Y-73335684D01*
X133981234Y-73409096D01*
X134134614Y-73446900D01*
X134134615Y-73446900D01*
X134292585Y-73446900D01*
X134445965Y-73409096D01*
X134480198Y-73391129D01*
X134585840Y-73335683D01*
X134704083Y-73230930D01*
X134793820Y-73100923D01*
X134849837Y-72953218D01*
X134868878Y-72796400D01*
X134849837Y-72639582D01*
X134793820Y-72491877D01*
X134704083Y-72361870D01*
X134585840Y-72257117D01*
X134585838Y-72257116D01*
X134585837Y-72257115D01*
X134445965Y-72183703D01*
X134292586Y-72145900D01*
X134292585Y-72145900D01*
X134134615Y-72145900D01*
X134134614Y-72145900D01*
X133981234Y-72183703D01*
X133841362Y-72257115D01*
X133723116Y-72361871D01*
X133633381Y-72491875D01*
X133633380Y-72491876D01*
X133577362Y-72639581D01*
X133558321Y-72796399D01*
X133558321Y-72796400D01*
X80002252Y-72796400D01*
X80002252Y-71463600D01*
X97472922Y-71463600D01*
X97491962Y-71620418D01*
X97529501Y-71719399D01*
X97547980Y-71768123D01*
X97637717Y-71898130D01*
X97755960Y-72002883D01*
X97755962Y-72002884D01*
X97895834Y-72076296D01*
X98049214Y-72114100D01*
X98049215Y-72114100D01*
X98207185Y-72114100D01*
X98360565Y-72076296D01*
X98386683Y-72062588D01*
X98500440Y-72002883D01*
X98618683Y-71898130D01*
X98708420Y-71768123D01*
X98764437Y-71620418D01*
X98783478Y-71463600D01*
X98772810Y-71375741D01*
X99750368Y-71375741D01*
X99769408Y-71532559D01*
X99802729Y-71620418D01*
X99825426Y-71680264D01*
X99915163Y-71810271D01*
X100033406Y-71915024D01*
X100033408Y-71915025D01*
X100173280Y-71988437D01*
X100326660Y-72026241D01*
X100326661Y-72026241D01*
X100484631Y-72026241D01*
X100638011Y-71988437D01*
X100777886Y-71915024D01*
X100896129Y-71810271D01*
X100985866Y-71680264D01*
X101041883Y-71532559D01*
X101060924Y-71375741D01*
X101041883Y-71218923D01*
X100985866Y-71071218D01*
X100896129Y-70941211D01*
X100777886Y-70836458D01*
X100777884Y-70836457D01*
X100777883Y-70836456D01*
X100638011Y-70763044D01*
X100484632Y-70725241D01*
X100484631Y-70725241D01*
X100326661Y-70725241D01*
X100326660Y-70725241D01*
X100173280Y-70763044D01*
X100033408Y-70836456D01*
X99915162Y-70941212D01*
X99825427Y-71071216D01*
X99825426Y-71071217D01*
X99769408Y-71218922D01*
X99750368Y-71375740D01*
X99750368Y-71375741D01*
X98772810Y-71375741D01*
X98764437Y-71306782D01*
X98708420Y-71159077D01*
X98618683Y-71029070D01*
X98500440Y-70924317D01*
X98500438Y-70924316D01*
X98500437Y-70924315D01*
X98360565Y-70850903D01*
X98207186Y-70813100D01*
X98207185Y-70813100D01*
X98049215Y-70813100D01*
X98049214Y-70813100D01*
X97895834Y-70850903D01*
X97755962Y-70924315D01*
X97637716Y-71029071D01*
X97547981Y-71159075D01*
X97547980Y-71159076D01*
X97491962Y-71306781D01*
X97472922Y-71463599D01*
X97472922Y-71463600D01*
X80002252Y-71463600D01*
X80002252Y-70842934D01*
X80002641Y-70835995D01*
X80007022Y-70797117D01*
X79995963Y-70738672D01*
X79987100Y-70679865D01*
X79987099Y-70679863D01*
X79984588Y-70671723D01*
X79981776Y-70663685D01*
X79981775Y-70663680D01*
X79953978Y-70611088D01*
X79928177Y-70557510D01*
X79928174Y-70557507D01*
X79928173Y-70557504D01*
X79922941Y-70549830D01*
X79925819Y-70547867D01*
X79902296Y-70500697D01*
X79901265Y-70493826D01*
X79884237Y-70353582D01*
X79828220Y-70205877D01*
X79738483Y-70075870D01*
X79620240Y-69971117D01*
X79620238Y-69971116D01*
X79620237Y-69971115D01*
X79480365Y-69897703D01*
X79326986Y-69859900D01*
X79326985Y-69859900D01*
X79169015Y-69859900D01*
X79169014Y-69859900D01*
X79015634Y-69897703D01*
X78875762Y-69971115D01*
X78875759Y-69971117D01*
X78875760Y-69971117D01*
X78764902Y-70069328D01*
X78757516Y-70075871D01*
X78667781Y-70205875D01*
X78667780Y-70205876D01*
X78611762Y-70353581D01*
X78592722Y-70510399D01*
X78592722Y-70510400D01*
X78611762Y-70667218D01*
X78648105Y-70763044D01*
X78667780Y-70814923D01*
X78757517Y-70944930D01*
X78875760Y-71049683D01*
X79015635Y-71123096D01*
X79015643Y-71123098D01*
X79021224Y-71125215D01*
X79076926Y-71167393D01*
X79100983Y-71232991D01*
X79101252Y-71241157D01*
X79101252Y-72037863D01*
X79081567Y-72104902D01*
X79028763Y-72150657D01*
X78959605Y-72160601D01*
X78919626Y-72147660D01*
X78866652Y-72119857D01*
X78829565Y-72100392D01*
X78829562Y-72100391D01*
X78676186Y-72062588D01*
X78676185Y-72062588D01*
X78518215Y-72062588D01*
X78518214Y-72062588D01*
X78364835Y-72100391D01*
X78305325Y-72131625D01*
X78236817Y-72145349D01*
X78171764Y-72119857D01*
X78130820Y-72063241D01*
X78123700Y-72021828D01*
X78123700Y-70793182D01*
X78124089Y-70786243D01*
X78128470Y-70747365D01*
X78117411Y-70688920D01*
X78108548Y-70630113D01*
X78108547Y-70630111D01*
X78106036Y-70621971D01*
X78103224Y-70613933D01*
X78103223Y-70613928D01*
X78101722Y-70611089D01*
X78075689Y-70561834D01*
X78075426Y-70561336D01*
X78049625Y-70507758D01*
X78049622Y-70507755D01*
X78049621Y-70507752D01*
X78044842Y-70500742D01*
X78039768Y-70493869D01*
X78039765Y-70493862D01*
X77997716Y-70451813D01*
X77957255Y-70408206D01*
X77949992Y-70402414D01*
X77950512Y-70401761D01*
X77938267Y-70392364D01*
X77585419Y-70039516D01*
X77551934Y-69978193D01*
X77549100Y-69951835D01*
X77549100Y-69634800D01*
X97407122Y-69634800D01*
X97426162Y-69791618D01*
X97466396Y-69897704D01*
X97482180Y-69939323D01*
X97571917Y-70069330D01*
X97690160Y-70174083D01*
X97690162Y-70174084D01*
X97830034Y-70247496D01*
X97983414Y-70285300D01*
X97983415Y-70285300D01*
X98141385Y-70285300D01*
X98294765Y-70247496D01*
X98294764Y-70247496D01*
X98434640Y-70174083D01*
X98552883Y-70069330D01*
X98642620Y-69939323D01*
X98698637Y-69791618D01*
X98717678Y-69634800D01*
X98698637Y-69477982D01*
X98697695Y-69475499D01*
X98656860Y-69367826D01*
X98642620Y-69330277D01*
X98552883Y-69200270D01*
X98434640Y-69095517D01*
X98434638Y-69095516D01*
X98434637Y-69095515D01*
X98294765Y-69022103D01*
X98141386Y-68984300D01*
X98141385Y-68984300D01*
X97983415Y-68984300D01*
X97983414Y-68984300D01*
X97830034Y-69022103D01*
X97690162Y-69095515D01*
X97571916Y-69200270D01*
X97554851Y-69224994D01*
X97500567Y-69268983D01*
X97460446Y-69273407D01*
X97472060Y-69292857D01*
X97469759Y-69362688D01*
X97467939Y-69367826D01*
X97426163Y-69477981D01*
X97407122Y-69634799D01*
X97407122Y-69634800D01*
X77549100Y-69634800D01*
X77549100Y-69318831D01*
X77568785Y-69251792D01*
X77621589Y-69206037D01*
X77690747Y-69196093D01*
X77702770Y-69198433D01*
X77772015Y-69215500D01*
X77929985Y-69215500D01*
X78083365Y-69177696D01*
X78083364Y-69177696D01*
X78223240Y-69104283D01*
X78341483Y-68999530D01*
X78431220Y-68869523D01*
X78487237Y-68721818D01*
X78506278Y-68565000D01*
X78494340Y-68466676D01*
X78487237Y-68408181D01*
X78464720Y-68348809D01*
X78431220Y-68260477D01*
X78341483Y-68130470D01*
X78223240Y-68025717D01*
X78223238Y-68025716D01*
X78223237Y-68025715D01*
X78083365Y-67952303D01*
X77929986Y-67914500D01*
X77929985Y-67914500D01*
X77772015Y-67914500D01*
X77772011Y-67914500D01*
X77702773Y-67931565D01*
X77632971Y-67928495D01*
X77575910Y-67888175D01*
X77549705Y-67823405D01*
X77549100Y-67811168D01*
X77549100Y-67751971D01*
X77568785Y-67684932D01*
X77590874Y-67659155D01*
X77603882Y-67647631D01*
X77603883Y-67647630D01*
X77675460Y-67543933D01*
X81745668Y-67543933D01*
X81775973Y-67715792D01*
X81776135Y-67716711D01*
X81845623Y-67877804D01*
X81845624Y-67877806D01*
X81845626Y-67877809D01*
X81919566Y-67977127D01*
X81950390Y-68018530D01*
X82084786Y-68131302D01*
X82138950Y-68158504D01*
X82241562Y-68210038D01*
X82241563Y-68210038D01*
X82241567Y-68210040D01*
X82412279Y-68250500D01*
X85385948Y-68250500D01*
X85452987Y-68270185D01*
X85498742Y-68322989D01*
X85508686Y-68392147D01*
X85501891Y-68418465D01*
X85491851Y-68444940D01*
X85469762Y-68503182D01*
X85450722Y-68659999D01*
X85450722Y-68660000D01*
X85469762Y-68816818D01*
X85525780Y-68964522D01*
X85525780Y-68964523D01*
X85615517Y-69094530D01*
X85733760Y-69199283D01*
X85744651Y-69204999D01*
X85873634Y-69272696D01*
X86027014Y-69310500D01*
X86027015Y-69310500D01*
X86184985Y-69310500D01*
X86338365Y-69272696D01*
X86363159Y-69259683D01*
X86478240Y-69199283D01*
X86596483Y-69094530D01*
X86686220Y-68964523D01*
X86742237Y-68816818D01*
X86761278Y-68660000D01*
X86742237Y-68503182D01*
X86710109Y-68418469D01*
X86704743Y-68348809D01*
X86737890Y-68287302D01*
X86799028Y-68253481D01*
X86826052Y-68250500D01*
X89419534Y-68250500D01*
X89486573Y-68270185D01*
X89532328Y-68322989D01*
X89542272Y-68392147D01*
X89521584Y-68444940D01*
X89506580Y-68466675D01*
X89506580Y-68466676D01*
X89450562Y-68614381D01*
X89431522Y-68771199D01*
X89431522Y-68771200D01*
X89450562Y-68928018D01*
X89503270Y-69066995D01*
X89506580Y-69075723D01*
X89596317Y-69205730D01*
X89714560Y-69310483D01*
X89714562Y-69310484D01*
X89854434Y-69383896D01*
X90007814Y-69421700D01*
X90007815Y-69421700D01*
X90165785Y-69421700D01*
X90319165Y-69383896D01*
X90359573Y-69362688D01*
X90459040Y-69310483D01*
X90577283Y-69205730D01*
X90667020Y-69075723D01*
X90723037Y-68928018D01*
X90742078Y-68771200D01*
X90735910Y-68720400D01*
X91869922Y-68720400D01*
X91888962Y-68877218D01*
X91943911Y-69022104D01*
X91944980Y-69024923D01*
X92034717Y-69154930D01*
X92152960Y-69259683D01*
X92152962Y-69259684D01*
X92292834Y-69333096D01*
X92446214Y-69370900D01*
X92446215Y-69370900D01*
X92604185Y-69370900D01*
X92757565Y-69333096D01*
X92798714Y-69311499D01*
X92897440Y-69259683D01*
X93015683Y-69154930D01*
X93105420Y-69024923D01*
X93161437Y-68877218D01*
X93180478Y-68720400D01*
X93901922Y-68720400D01*
X93920962Y-68877218D01*
X93975911Y-69022104D01*
X93976980Y-69024923D01*
X94066717Y-69154930D01*
X94184960Y-69259683D01*
X94184962Y-69259684D01*
X94324834Y-69333096D01*
X94478214Y-69370900D01*
X94478215Y-69370900D01*
X94636185Y-69370900D01*
X94789565Y-69333096D01*
X94830714Y-69311499D01*
X94929440Y-69259683D01*
X95047683Y-69154930D01*
X95137420Y-69024923D01*
X95193437Y-68877218D01*
X95197518Y-68843608D01*
X96087122Y-68843608D01*
X96106162Y-69000426D01*
X96145551Y-69104284D01*
X96162180Y-69148131D01*
X96251917Y-69278138D01*
X96370160Y-69382891D01*
X96370162Y-69382892D01*
X96510034Y-69456304D01*
X96663414Y-69494108D01*
X96663415Y-69494108D01*
X96821385Y-69494108D01*
X96974765Y-69456304D01*
X96991539Y-69447500D01*
X97114640Y-69382891D01*
X97232883Y-69278138D01*
X97249947Y-69253415D01*
X97304227Y-69209426D01*
X97344352Y-69204999D01*
X97332738Y-69185546D01*
X97335041Y-69115714D01*
X97336843Y-69110627D01*
X97378637Y-69000426D01*
X97397678Y-68843608D01*
X97389010Y-68772215D01*
X97378637Y-68686789D01*
X97332448Y-68565000D01*
X97322620Y-68539085D01*
X97232883Y-68409078D01*
X97114640Y-68304325D01*
X97114638Y-68304324D01*
X97114637Y-68304323D01*
X96974765Y-68230911D01*
X96821386Y-68193108D01*
X96821385Y-68193108D01*
X96663415Y-68193108D01*
X96663414Y-68193108D01*
X96510034Y-68230911D01*
X96370162Y-68304323D01*
X96319947Y-68348809D01*
X96252929Y-68408182D01*
X96251916Y-68409079D01*
X96162181Y-68539083D01*
X96162180Y-68539084D01*
X96106162Y-68686789D01*
X96087122Y-68843607D01*
X96087122Y-68843608D01*
X95197518Y-68843608D01*
X95212478Y-68720400D01*
X95193437Y-68563582D01*
X95137420Y-68415877D01*
X95047683Y-68285870D01*
X94929440Y-68181117D01*
X94929438Y-68181116D01*
X94929437Y-68181115D01*
X94789565Y-68107703D01*
X94636186Y-68069900D01*
X94636185Y-68069900D01*
X94478215Y-68069900D01*
X94478214Y-68069900D01*
X94324834Y-68107703D01*
X94184962Y-68181115D01*
X94066716Y-68285871D01*
X93976981Y-68415875D01*
X93976980Y-68415876D01*
X93920962Y-68563581D01*
X93901922Y-68720399D01*
X93901922Y-68720400D01*
X93180478Y-68720400D01*
X93161437Y-68563582D01*
X93105420Y-68415877D01*
X93015683Y-68285870D01*
X92897440Y-68181117D01*
X92897438Y-68181116D01*
X92897437Y-68181115D01*
X92757565Y-68107703D01*
X92604186Y-68069900D01*
X92604185Y-68069900D01*
X92446215Y-68069900D01*
X92446214Y-68069900D01*
X92292834Y-68107703D01*
X92152962Y-68181115D01*
X92034716Y-68285871D01*
X91944981Y-68415875D01*
X91944980Y-68415876D01*
X91888962Y-68563581D01*
X91869922Y-68720399D01*
X91869922Y-68720400D01*
X90735910Y-68720400D01*
X90733288Y-68698803D01*
X90723037Y-68614381D01*
X90680864Y-68503182D01*
X90667020Y-68466677D01*
X90577283Y-68336670D01*
X90459040Y-68231917D01*
X90459038Y-68231916D01*
X90459037Y-68231915D01*
X90319166Y-68158504D01*
X90188086Y-68126196D01*
X90127705Y-68091040D01*
X90095917Y-68028820D01*
X90102813Y-67959292D01*
X90110366Y-67943813D01*
X90193812Y-67799281D01*
X90244130Y-67631210D01*
X90254331Y-67456065D01*
X90223865Y-67283289D01*
X90154377Y-67122196D01*
X90113694Y-67067550D01*
X90049609Y-66981469D01*
X89915214Y-66868698D01*
X89915212Y-66868697D01*
X89758437Y-66789961D01*
X89758433Y-66789960D01*
X89587721Y-66749500D01*
X82456291Y-66749500D01*
X82351854Y-66761707D01*
X82325743Y-66764759D01*
X82325740Y-66764760D01*
X82160884Y-66824762D01*
X82160880Y-66824764D01*
X82014306Y-66921167D01*
X82014305Y-66921168D01*
X81893910Y-67048778D01*
X81806188Y-67200718D01*
X81755870Y-67368789D01*
X81755869Y-67368794D01*
X81745668Y-67543933D01*
X77675460Y-67543933D01*
X77693620Y-67517623D01*
X77749637Y-67369918D01*
X77768678Y-67213100D01*
X77749637Y-67056282D01*
X77693620Y-66908577D01*
X77603883Y-66778570D01*
X77485640Y-66673817D01*
X77485638Y-66673816D01*
X77485637Y-66673815D01*
X77345765Y-66600403D01*
X77192386Y-66562600D01*
X77192385Y-66562600D01*
X77034415Y-66562600D01*
X77034414Y-66562600D01*
X76881034Y-66600403D01*
X76741162Y-66673815D01*
X76741159Y-66673817D01*
X76741160Y-66673817D01*
X76638506Y-66764760D01*
X76622916Y-66778571D01*
X76533181Y-66908575D01*
X76533180Y-66908576D01*
X76477162Y-67056281D01*
X76458122Y-67213099D01*
X76458122Y-67213100D01*
X76477162Y-67369918D01*
X76521739Y-67487456D01*
X76533180Y-67517623D01*
X76622917Y-67647630D01*
X76622918Y-67647631D01*
X76626150Y-67652313D01*
X76648033Y-67718667D01*
X76648100Y-67722753D01*
X76648100Y-69066995D01*
X76628415Y-69134034D01*
X76575611Y-69179789D01*
X76506453Y-69189733D01*
X76442897Y-69160708D01*
X76408158Y-69110966D01*
X76374752Y-69022883D01*
X76368720Y-69006977D01*
X76278983Y-68876970D01*
X76160740Y-68772217D01*
X76160738Y-68772216D01*
X76160737Y-68772215D01*
X76020865Y-68698803D01*
X75867486Y-68661000D01*
X75867485Y-68661000D01*
X75709515Y-68661000D01*
X75709514Y-68661000D01*
X75556134Y-68698803D01*
X75416262Y-68772215D01*
X75298016Y-68876971D01*
X75208281Y-69006975D01*
X75208280Y-69006976D01*
X75152262Y-69154681D01*
X75133222Y-69311499D01*
X75133222Y-69311500D01*
X56750500Y-69311500D01*
X56750500Y-65605000D01*
X62855534Y-65605000D01*
X62875312Y-65755234D01*
X62875313Y-65755236D01*
X62929938Y-65887113D01*
X62933302Y-65895233D01*
X63025549Y-66015451D01*
X63145767Y-66107698D01*
X63285764Y-66165687D01*
X63398280Y-66180500D01*
X63398287Y-66180500D01*
X63473713Y-66180500D01*
X63473720Y-66180500D01*
X63586236Y-66165687D01*
X63726233Y-66107698D01*
X63846451Y-66015451D01*
X63938698Y-65895233D01*
X63996687Y-65755236D01*
X64016466Y-65605000D01*
X68635534Y-65605000D01*
X68655312Y-65755234D01*
X68655313Y-65755236D01*
X68709938Y-65887113D01*
X68713302Y-65895233D01*
X68805549Y-66015451D01*
X68925767Y-66107698D01*
X69065764Y-66165687D01*
X69178280Y-66180500D01*
X69178287Y-66180500D01*
X69253713Y-66180500D01*
X69253720Y-66180500D01*
X69366236Y-66165687D01*
X69506233Y-66107698D01*
X69626451Y-66015451D01*
X69718698Y-65895233D01*
X69776687Y-65755236D01*
X69796466Y-65605000D01*
X69776687Y-65454764D01*
X69718698Y-65314767D01*
X69626451Y-65194549D01*
X69506233Y-65102302D01*
X69506229Y-65102300D01*
X69442801Y-65076027D01*
X69366236Y-65044313D01*
X69352171Y-65042461D01*
X69253727Y-65029500D01*
X69253720Y-65029500D01*
X69178280Y-65029500D01*
X69178272Y-65029500D01*
X69065764Y-65044313D01*
X69065763Y-65044313D01*
X68925770Y-65102300D01*
X68925767Y-65102301D01*
X68925767Y-65102302D01*
X68805549Y-65194549D01*
X68731173Y-65291478D01*
X68713300Y-65314770D01*
X68655313Y-65454763D01*
X68655312Y-65454765D01*
X68635534Y-65604999D01*
X68635534Y-65605000D01*
X64016466Y-65605000D01*
X63996687Y-65454764D01*
X63938698Y-65314767D01*
X63846451Y-65194549D01*
X63726233Y-65102302D01*
X63726229Y-65102300D01*
X63662801Y-65076027D01*
X63586236Y-65044313D01*
X63572171Y-65042461D01*
X63473727Y-65029500D01*
X63473720Y-65029500D01*
X63398280Y-65029500D01*
X63398272Y-65029500D01*
X63285764Y-65044313D01*
X63285763Y-65044313D01*
X63145770Y-65102300D01*
X63145767Y-65102301D01*
X63145767Y-65102302D01*
X63025549Y-65194549D01*
X62951173Y-65291478D01*
X62933300Y-65314770D01*
X62875313Y-65454763D01*
X62875312Y-65454765D01*
X62855534Y-65604999D01*
X62855534Y-65605000D01*
X56750500Y-65605000D01*
X56750500Y-63830138D01*
X77243500Y-63830138D01*
X77254898Y-63949500D01*
X77258676Y-63989069D01*
X77258677Y-63989073D01*
X77302988Y-64139984D01*
X77318695Y-64193475D01*
X77362013Y-64277500D01*
X77416313Y-64382828D01*
X77537617Y-64537080D01*
X77548002Y-64550285D01*
X77709003Y-64689793D01*
X77709006Y-64689795D01*
X77709009Y-64689797D01*
X77825094Y-64756818D01*
X77893497Y-64796310D01*
X78094815Y-64865987D01*
X78305681Y-64896305D01*
X78305686Y-64896304D01*
X78305688Y-64896305D01*
X78305689Y-64896305D01*
X78386827Y-64892439D01*
X78500264Y-64887035D01*
X78568163Y-64903506D01*
X78593845Y-64923213D01*
X79450667Y-65780034D01*
X79462448Y-65793666D01*
X79476790Y-65812930D01*
X79516820Y-65846519D01*
X79520792Y-65850159D01*
X79526624Y-65855991D01*
X79526627Y-65855994D01*
X79552347Y-65876331D01*
X79611188Y-65925704D01*
X79617218Y-65929670D01*
X79617185Y-65929719D01*
X79623547Y-65933772D01*
X79623579Y-65933721D01*
X79629719Y-65937508D01*
X79629723Y-65937511D01*
X79664532Y-65953743D01*
X79699341Y-65969975D01*
X79717736Y-65979213D01*
X79767967Y-66004440D01*
X79767969Y-66004440D01*
X79774757Y-66006911D01*
X79774736Y-66006967D01*
X79781855Y-66009442D01*
X79781874Y-66009386D01*
X79788729Y-66011658D01*
X79863961Y-66027190D01*
X79863962Y-66027191D01*
X79938679Y-66044900D01*
X79938689Y-66044900D01*
X79945852Y-66045738D01*
X79945844Y-66045797D01*
X79953345Y-66046564D01*
X79953351Y-66046505D01*
X79960540Y-66047134D01*
X79960544Y-66047133D01*
X79960545Y-66047134D01*
X80037318Y-66044900D01*
X84641895Y-66044900D01*
X84659865Y-66046209D01*
X84683623Y-66049689D01*
X84735668Y-66045135D01*
X84741070Y-66044900D01*
X84749304Y-66044900D01*
X84749309Y-66044900D01*
X84760927Y-66043541D01*
X84781876Y-66041093D01*
X84794628Y-66039977D01*
X84858397Y-66034399D01*
X84858405Y-66034396D01*
X84865466Y-66032939D01*
X84865478Y-66032998D01*
X84872843Y-66031365D01*
X84872829Y-66031306D01*
X84879846Y-66029641D01*
X84879855Y-66029641D01*
X84952023Y-66003374D01*
X85024934Y-65979214D01*
X85024943Y-65979207D01*
X85031482Y-65976160D01*
X85031508Y-65976216D01*
X85038290Y-65972932D01*
X85038263Y-65972878D01*
X85044706Y-65969640D01*
X85044717Y-65969637D01*
X85108883Y-65927434D01*
X85174256Y-65887112D01*
X85174262Y-65887105D01*
X85179925Y-65882629D01*
X85179963Y-65882677D01*
X85185800Y-65877922D01*
X85185761Y-65877875D01*
X85191296Y-65873230D01*
X85243985Y-65817382D01*
X86461368Y-64600000D01*
X101344722Y-64600000D01*
X101363762Y-64756818D01*
X101401940Y-64857483D01*
X101419780Y-64904523D01*
X101509517Y-65034530D01*
X101627760Y-65139283D01*
X101627762Y-65139284D01*
X101767634Y-65212696D01*
X101921014Y-65250500D01*
X101921015Y-65250500D01*
X102078986Y-65250500D01*
X102078986Y-65250499D01*
X102086098Y-65248746D01*
X102087725Y-65248346D01*
X102157528Y-65251414D01*
X102214590Y-65291733D01*
X102240796Y-65356502D01*
X102227826Y-65425157D01*
X102198042Y-65460500D01*
X102198725Y-65461183D01*
X102192452Y-65467455D01*
X102106206Y-65582664D01*
X102106202Y-65582671D01*
X102055908Y-65717517D01*
X102049501Y-65777116D01*
X102049501Y-65777123D01*
X102049500Y-65777135D01*
X102049500Y-66822870D01*
X102049501Y-66822876D01*
X102055908Y-66882483D01*
X102106202Y-67017328D01*
X102106206Y-67017335D01*
X102192452Y-67132544D01*
X102192455Y-67132547D01*
X102307664Y-67218793D01*
X102307671Y-67218797D01*
X102352618Y-67235560D01*
X102442517Y-67269091D01*
X102502127Y-67275500D01*
X102716499Y-67275499D01*
X102783538Y-67295183D01*
X102829293Y-67347987D01*
X102839237Y-67417145D01*
X102829295Y-67451007D01*
X102814835Y-67482671D01*
X102814833Y-67482679D01*
X102814146Y-67487456D01*
X102807598Y-67513115D01*
X102805910Y-67517642D01*
X102805909Y-67517645D01*
X102805046Y-67529711D01*
X102780626Y-67595174D01*
X102755675Y-67620125D01*
X102692453Y-67667454D01*
X102692452Y-67667455D01*
X102606206Y-67782664D01*
X102606202Y-67782671D01*
X102555908Y-67917517D01*
X102549501Y-67977116D01*
X102549501Y-67977123D01*
X102549500Y-67977135D01*
X102549500Y-69022870D01*
X102549501Y-69022876D01*
X102555908Y-69082483D01*
X102606202Y-69217328D01*
X102606206Y-69217335D01*
X102692452Y-69332544D01*
X102692455Y-69332547D01*
X102807664Y-69418793D01*
X102807671Y-69418797D01*
X102843803Y-69432273D01*
X102942517Y-69469091D01*
X103002127Y-69475500D01*
X103597872Y-69475499D01*
X103657483Y-69469091D01*
X103792331Y-69418796D01*
X103907546Y-69332546D01*
X103993796Y-69217331D01*
X104044091Y-69082483D01*
X104050500Y-69022873D01*
X104050499Y-67977128D01*
X104044091Y-67917517D01*
X104031914Y-67884871D01*
X104026930Y-67815180D01*
X104060414Y-67753857D01*
X104090469Y-67731742D01*
X104120860Y-67715792D01*
X104239103Y-67611039D01*
X104257507Y-67584374D01*
X104311786Y-67540387D01*
X104381235Y-67532726D01*
X104443800Y-67563828D01*
X104479619Y-67623818D01*
X104482652Y-67639868D01*
X104484962Y-67658896D01*
X104484963Y-67658901D01*
X104520976Y-67753857D01*
X104540980Y-67806603D01*
X104630717Y-67936610D01*
X104748960Y-68041363D01*
X104748962Y-68041364D01*
X104888834Y-68114776D01*
X105042214Y-68152580D01*
X105042215Y-68152580D01*
X105200185Y-68152580D01*
X105353565Y-68114776D01*
X105367041Y-68107703D01*
X105493440Y-68041363D01*
X105611683Y-67936610D01*
X105701420Y-67806603D01*
X105757437Y-67658898D01*
X105776478Y-67502080D01*
X105774122Y-67482672D01*
X105757437Y-67345261D01*
X105709475Y-67218797D01*
X105701420Y-67197557D01*
X105611683Y-67067550D01*
X105493440Y-66962797D01*
X105493439Y-66962796D01*
X105488402Y-66958334D01*
X105451275Y-66899144D01*
X105447340Y-66852262D01*
X105450500Y-66822873D01*
X105450499Y-65777128D01*
X105444091Y-65717517D01*
X105393796Y-65582669D01*
X105393795Y-65582668D01*
X105393793Y-65582664D01*
X105307548Y-65467457D01*
X105307546Y-65467454D01*
X105307544Y-65467452D01*
X105307542Y-65467450D01*
X105262688Y-65433872D01*
X105220817Y-65377937D01*
X105213000Y-65334606D01*
X105213000Y-65259107D01*
X105232685Y-65192068D01*
X105262685Y-65159843D01*
X105332546Y-65107546D01*
X105418796Y-64992331D01*
X105469091Y-64857483D01*
X105475500Y-64797873D01*
X105475499Y-63802128D01*
X105469091Y-63742517D01*
X105467284Y-63737673D01*
X105426006Y-63627000D01*
X135488722Y-63627000D01*
X135507762Y-63783818D01*
X135555079Y-63908580D01*
X135563780Y-63931523D01*
X135653517Y-64061530D01*
X135771760Y-64166283D01*
X135771762Y-64166284D01*
X135911634Y-64239696D01*
X136065014Y-64277500D01*
X136065015Y-64277500D01*
X136222985Y-64277500D01*
X136376365Y-64239696D01*
X136441618Y-64205448D01*
X136516240Y-64166283D01*
X136634483Y-64061530D01*
X136724220Y-63931523D01*
X136780237Y-63783818D01*
X136799278Y-63627000D01*
X136782942Y-63492455D01*
X136780237Y-63470181D01*
X136750013Y-63390487D01*
X136724220Y-63322477D01*
X136634483Y-63192470D01*
X136516240Y-63087717D01*
X136516238Y-63087716D01*
X136516237Y-63087715D01*
X136376365Y-63014303D01*
X136222986Y-62976500D01*
X136222985Y-62976500D01*
X136065015Y-62976500D01*
X136065014Y-62976500D01*
X135911634Y-63014303D01*
X135771762Y-63087715D01*
X135653516Y-63192471D01*
X135563781Y-63322475D01*
X135563780Y-63322476D01*
X135507762Y-63470181D01*
X135488722Y-63626999D01*
X135488722Y-63627000D01*
X105426006Y-63627000D01*
X105418797Y-63607671D01*
X105418793Y-63607664D01*
X105332547Y-63492455D01*
X105332544Y-63492452D01*
X105217335Y-63406206D01*
X105217328Y-63406202D01*
X105082486Y-63355910D01*
X105082485Y-63355909D01*
X105082483Y-63355909D01*
X105022873Y-63349500D01*
X105022863Y-63349500D01*
X104402129Y-63349500D01*
X104402123Y-63349501D01*
X104342516Y-63355908D01*
X104207671Y-63406202D01*
X104207664Y-63406206D01*
X104092455Y-63492452D01*
X104092452Y-63492455D01*
X104006206Y-63607664D01*
X104006202Y-63607671D01*
X103955908Y-63742517D01*
X103951397Y-63784483D01*
X103949501Y-63802123D01*
X103949500Y-63802135D01*
X103949500Y-64797870D01*
X103949501Y-64797876D01*
X103955908Y-64857483D01*
X104006202Y-64992328D01*
X104006206Y-64992335D01*
X104092451Y-65107543D01*
X104092452Y-65107544D01*
X104092454Y-65107546D01*
X104162312Y-65159842D01*
X104204182Y-65215774D01*
X104212000Y-65259107D01*
X104212000Y-65315892D01*
X104192315Y-65382931D01*
X104162312Y-65415158D01*
X104092454Y-65467453D01*
X104092450Y-65467458D01*
X104085312Y-65476993D01*
X104029376Y-65518862D01*
X103959684Y-65523843D01*
X103928423Y-65512474D01*
X103880465Y-65487304D01*
X103880464Y-65487303D01*
X103880463Y-65487303D01*
X103727086Y-65449500D01*
X103727085Y-65449500D01*
X103569115Y-65449500D01*
X103569109Y-65449500D01*
X103486513Y-65469857D01*
X103416711Y-65466787D01*
X103382531Y-65448727D01*
X103340286Y-65417103D01*
X103298414Y-65361170D01*
X103293430Y-65291478D01*
X103326914Y-65230155D01*
X103371264Y-65201654D01*
X103392326Y-65193798D01*
X103392326Y-65193797D01*
X103392331Y-65193796D01*
X103507546Y-65107546D01*
X103593796Y-64992331D01*
X103644091Y-64857483D01*
X103650500Y-64797873D01*
X103650499Y-63802128D01*
X103644091Y-63742517D01*
X103642284Y-63737673D01*
X103593797Y-63607671D01*
X103593793Y-63607664D01*
X103507547Y-63492455D01*
X103507544Y-63492452D01*
X103392335Y-63406206D01*
X103392328Y-63406202D01*
X103257486Y-63355910D01*
X103257485Y-63355909D01*
X103257483Y-63355909D01*
X103197873Y-63349500D01*
X103197863Y-63349500D01*
X102577129Y-63349500D01*
X102577123Y-63349501D01*
X102517516Y-63355908D01*
X102382671Y-63406202D01*
X102382664Y-63406206D01*
X102267455Y-63492452D01*
X102267452Y-63492455D01*
X102181206Y-63607664D01*
X102181202Y-63607671D01*
X102130908Y-63742517D01*
X102129423Y-63756336D01*
X102102685Y-63820887D01*
X102063808Y-63848942D01*
X102065453Y-63851954D01*
X102057664Y-63856206D01*
X102053799Y-63859100D01*
X102031020Y-63872615D01*
X102026636Y-63874617D01*
X102026626Y-63874623D01*
X102016362Y-63883517D01*
X101987428Y-63908587D01*
X101983996Y-63911354D01*
X101971400Y-63920783D01*
X101968055Y-63923682D01*
X101966782Y-63922213D01*
X101916210Y-63950684D01*
X101767633Y-63987304D01*
X101627762Y-64060715D01*
X101509516Y-64165471D01*
X101419781Y-64295475D01*
X101419780Y-64295476D01*
X101363762Y-64443181D01*
X101344722Y-64599999D01*
X101344722Y-64600000D01*
X86461368Y-64600000D01*
X87061585Y-63999783D01*
X87061585Y-63999782D01*
X87061591Y-63999777D01*
X87143111Y-63896677D01*
X87217257Y-63737673D01*
X87252734Y-63565856D01*
X87247631Y-63390487D01*
X87202223Y-63221024D01*
X87202223Y-63221023D01*
X87118958Y-63066599D01*
X87002326Y-62935541D01*
X87002323Y-62935539D01*
X86858612Y-62834912D01*
X86858609Y-62834910D01*
X86858604Y-62834908D01*
X86695570Y-62770138D01*
X86521970Y-62744710D01*
X86347204Y-62760000D01*
X86180668Y-62815185D01*
X86180663Y-62815187D01*
X86031343Y-62907289D01*
X84719812Y-64218819D01*
X84658489Y-64252304D01*
X84588797Y-64247320D01*
X84532864Y-64205448D01*
X84508447Y-64139984D01*
X84513156Y-64096194D01*
X84514176Y-64092719D01*
X84514183Y-64092702D01*
X84554500Y-63883517D01*
X84554500Y-63423862D01*
X84539324Y-63264930D01*
X84479305Y-63060525D01*
X84381687Y-62871172D01*
X84249998Y-62703715D01*
X84088997Y-62564207D01*
X84088993Y-62564205D01*
X84088990Y-62564202D01*
X83904505Y-62457691D01*
X83904504Y-62457690D01*
X83904503Y-62457690D01*
X83789991Y-62418057D01*
X83703186Y-62388013D01*
X83650468Y-62380433D01*
X83492319Y-62357695D01*
X83492316Y-62357695D01*
X83461905Y-62359143D01*
X83279526Y-62367832D01*
X83072496Y-62418057D01*
X82998547Y-62451827D01*
X82878707Y-62506556D01*
X82705185Y-62630122D01*
X82705178Y-62630128D01*
X82558168Y-62784307D01*
X82442994Y-62963522D01*
X82363816Y-63161299D01*
X82323500Y-63370482D01*
X82323500Y-63370483D01*
X82323500Y-63830138D01*
X82334898Y-63949500D01*
X82338676Y-63989069D01*
X82338677Y-63989073D01*
X82382988Y-64139984D01*
X82398695Y-64193475D01*
X82486133Y-64363082D01*
X82499356Y-64431687D01*
X82473388Y-64496552D01*
X82416473Y-64537080D01*
X82375917Y-64543900D01*
X81959230Y-64543900D01*
X81892191Y-64524215D01*
X81846436Y-64471411D01*
X81836492Y-64402253D01*
X81854914Y-64352861D01*
X81895006Y-64290477D01*
X81974183Y-64092702D01*
X82014500Y-63883517D01*
X82014500Y-63423862D01*
X81999324Y-63264930D01*
X81939305Y-63060525D01*
X81841687Y-62871172D01*
X81709998Y-62703715D01*
X81548997Y-62564207D01*
X81548993Y-62564205D01*
X81548990Y-62564202D01*
X81364505Y-62457691D01*
X81364504Y-62457690D01*
X81364503Y-62457690D01*
X81261231Y-62421947D01*
X81204317Y-62381418D01*
X81178349Y-62316553D01*
X81191573Y-62247946D01*
X81239789Y-62197380D01*
X81247993Y-62193044D01*
X81248518Y-62192790D01*
X81248522Y-62192789D01*
X81401262Y-62096816D01*
X81528816Y-61969262D01*
X81624789Y-61816522D01*
X81684368Y-61646255D01*
X81704565Y-61467000D01*
X81687855Y-61318696D01*
X81684369Y-61287750D01*
X81684368Y-61287745D01*
X81632855Y-61140530D01*
X81624789Y-61117478D01*
X81528816Y-60964738D01*
X81401262Y-60837184D01*
X81401261Y-60837184D01*
X81248523Y-60741211D01*
X81147896Y-60706000D01*
X135539522Y-60706000D01*
X135558562Y-60862818D01*
X135597216Y-60964738D01*
X135614580Y-61010523D01*
X135704317Y-61140530D01*
X135822560Y-61245283D01*
X135822562Y-61245284D01*
X135962434Y-61318696D01*
X136115814Y-61356500D01*
X136115815Y-61356500D01*
X136273785Y-61356500D01*
X136427165Y-61318696D01*
X136567040Y-61245283D01*
X136685283Y-61140530D01*
X136775020Y-61010523D01*
X136831037Y-60862818D01*
X136850078Y-60706000D01*
X136831037Y-60549182D01*
X136775020Y-60401477D01*
X136685283Y-60271470D01*
X136567040Y-60166717D01*
X136567038Y-60166716D01*
X136567037Y-60166715D01*
X136427165Y-60093303D01*
X136273786Y-60055500D01*
X136273785Y-60055500D01*
X136115815Y-60055500D01*
X136115814Y-60055500D01*
X135962434Y-60093303D01*
X135822562Y-60166715D01*
X135704316Y-60271471D01*
X135614581Y-60401475D01*
X135614580Y-60401476D01*
X135558562Y-60549181D01*
X135539522Y-60705999D01*
X135539522Y-60706000D01*
X81147896Y-60706000D01*
X81078254Y-60681631D01*
X81078249Y-60681630D01*
X80943960Y-60666500D01*
X80943954Y-60666500D01*
X80854046Y-60666500D01*
X80854039Y-60666500D01*
X80719750Y-60681630D01*
X80719745Y-60681631D01*
X80549476Y-60741211D01*
X80396737Y-60837184D01*
X80269184Y-60964737D01*
X80173211Y-61117476D01*
X80113631Y-61287745D01*
X80113630Y-61287750D01*
X80093435Y-61466996D01*
X80093435Y-61467003D01*
X80113630Y-61646249D01*
X80113631Y-61646254D01*
X80173211Y-61816523D01*
X80269184Y-61969262D01*
X80396738Y-62096816D01*
X80485320Y-62152476D01*
X80555374Y-62196494D01*
X80553704Y-62199151D01*
X80595297Y-62236600D01*
X80613703Y-62304001D01*
X80592747Y-62370654D01*
X80539082Y-62415397D01*
X80533924Y-62417405D01*
X80338707Y-62506556D01*
X80165185Y-62630122D01*
X80165178Y-62630128D01*
X80018168Y-62784307D01*
X79902994Y-62963522D01*
X79823816Y-63161299D01*
X79783500Y-63370482D01*
X79783500Y-63690770D01*
X79763815Y-63757809D01*
X79711011Y-63803564D01*
X79641853Y-63813508D01*
X79578297Y-63784483D01*
X79571819Y-63778451D01*
X79510819Y-63717451D01*
X79477334Y-63656128D01*
X79474500Y-63629770D01*
X79474500Y-63423868D01*
X79474500Y-63423867D01*
X79474500Y-63423862D01*
X79459324Y-63264930D01*
X79399305Y-63060525D01*
X79301687Y-62871172D01*
X79169998Y-62703715D01*
X79008997Y-62564207D01*
X79008993Y-62564205D01*
X79008990Y-62564202D01*
X78824505Y-62457691D01*
X78824504Y-62457690D01*
X78824503Y-62457690D01*
X78709991Y-62418057D01*
X78623186Y-62388013D01*
X78570468Y-62380433D01*
X78412319Y-62357695D01*
X78412316Y-62357695D01*
X78381904Y-62359143D01*
X78199526Y-62367832D01*
X77992496Y-62418057D01*
X77918547Y-62451827D01*
X77798707Y-62506556D01*
X77625185Y-62630122D01*
X77625178Y-62630128D01*
X77478168Y-62784307D01*
X77362994Y-62963522D01*
X77283816Y-63161299D01*
X77243500Y-63370482D01*
X77243500Y-63370483D01*
X77243500Y-63830138D01*
X56750500Y-63830138D01*
X56750500Y-59874500D01*
X56770185Y-59807461D01*
X56822989Y-59761706D01*
X56874500Y-59750500D01*
X158125500Y-59750500D01*
X158192539Y-59770185D01*
G37*
G04 #@! TD.AperFunction*
M02*
