M48
; DRILL file {KiCad 7.0.7-7.0.7~ubuntu22.04.1} date Fri 15 Mar 2024 11:13:56 CET
; FORMAT={-:-/ absolute / metric / decimal}
; #@! TF.CreationDate,2024-03-15T11:13:56+01:00
; #@! TF.GenerationSoftware,Kicad,Pcbnew,7.0.7-7.0.7~ubuntu22.04.1
; #@! TF.FileFunction,Plated,1,4,PTH
FMAT,2
METRIC
; #@! TA.AperFunction,Plated,PTH,ComponentDrill
T1C0.300
; #@! TA.AperFunction,Plated,PTH,ViaDrill
T2C0.400
; #@! TA.AperFunction,Plated,PTH,ViaDrill
T3C0.600
; #@! TA.AperFunction,Plated,PTH,ComponentDrill
T4C0.600
; #@! TA.AperFunction,Plated,PTH,ComponentDrill
T5C1.020
; #@! TA.AperFunction,Plated,PTH,ComponentDrill
T6C1.600
; #@! TA.AperFunction,Plated,PTH,ComponentDrill
T7C4.300
%
G90
G05
T1
X102.292Y-71.108
X103.292Y-69.828
X103.292Y-71.108
X103.292Y-72.388
X104.692Y-69.828
X104.692Y-71.108
X104.692Y-72.388
X106.092Y-69.828
X106.092Y-71.108
X106.092Y-72.388
X107.092Y-71.108
T2
X60.428Y-77.391
X61.595Y-79.629
X62.006Y-68.072
X65.151Y-101.346
X66.04Y-75.565
X66.04Y-83.693
X69.088Y-106.426
X70.231Y-83.439
X70.646Y-68.072
X71.332Y-83.957
X71.755Y-87.884
X71.765Y-94.996
X71.765Y-97.536
X72.009Y-102.616
X72.644Y-77.343
X72.658Y-84.314
X73.025Y-100.965
X73.093Y-103.66
X74.034Y-75.516
X74.313Y-73.896
X75.311Y-79.121
X75.565Y-76.962
X75.692Y-88.034
X75.788Y-69.311
X76.176Y-78.637
X76.407Y-87.122
X76.835Y-70.993
X77.113Y-67.213
X77.851Y-68.565
X77.851Y-82.042
X78.283Y-77.368
X78.597Y-72.713
X78.613Y-81.28
X79.248Y-70.51
X79.335Y-78.578
X79.375Y-69.215
X79.375Y-80.264
X80.304Y-77.013
X80.391Y-88.138
X81.026Y-76.249
X81.745Y-83.863
X82.169Y-70.993
X82.383Y-82.601
X82.5Y-67.5
X83.566Y-78.722
X84.06Y-76.943
X84.584Y-77.739
X84.836Y-74.168
X85.856Y-78.486
X86.106Y-68.66
X86.36Y-66.294
X86.5Y-63.5
X87.249Y-74.168
X89.5Y-67.5
X90.087Y-68.771
X92.0Y-80.9
X92.0Y-81.9
X92.0Y-82.9
X92.0Y-83.9
X92.0Y-84.9
X92.525Y-68.72
X93.0Y-80.9
X93.0Y-81.9
X93.0Y-82.9
X93.0Y-83.9
X93.0Y-84.9
X94.0Y-80.9
X94.0Y-81.9
X94.0Y-82.9
X94.0Y-83.9
X94.0Y-84.9
X94.557Y-68.72
X95.0Y-80.9
X95.0Y-81.9
X95.0Y-82.9
X95.0Y-83.9
X95.0Y-84.9
X96.742Y-68.844
X98.0Y-82.931
X98.0Y-85.231
X98.044Y-75.946
X98.062Y-69.635
X98.128Y-71.464
X99.949Y-74.041
X100.406Y-71.376
X100.564Y-81.436
X101.854Y-76.454
X102.0Y-64.6
X102.363Y-75.465
X103.648Y-66.1
X103.749Y-67.177
X103.759Y-75.087
X104.782Y-75.198
X105.121Y-67.502
X109.213Y-70.702
X109.713Y-71.55
X110.213Y-70.702
X110.713Y-71.55
X111.213Y-70.702
X111.713Y-71.55
X112.213Y-70.702
X112.713Y-71.55
X113.213Y-70.702
X113.713Y-71.55
X114.213Y-70.702
X114.713Y-71.55
X115.263Y-70.702
X115.763Y-71.55
X116.263Y-70.702
X116.763Y-71.55
X117.263Y-70.702
X117.763Y-71.55
X118.263Y-70.702
X118.763Y-71.55
X119.263Y-70.702
X119.763Y-71.55
X120.263Y-70.702
X120.763Y-71.55
X121.263Y-70.702
X121.763Y-71.55
X122.263Y-70.702
X122.763Y-71.55
X123.263Y-70.702
X123.763Y-71.55
X124.263Y-70.702
X124.763Y-71.55
X125.263Y-70.702
X125.763Y-71.55
X126.263Y-70.702
X126.763Y-71.55
X127.263Y-70.702
X127.763Y-71.55
X128.263Y-70.702
X128.763Y-71.55
X129.263Y-70.702
X129.763Y-71.55
X130.263Y-70.702
X130.748Y-71.55
X134.214Y-72.796
X134.214Y-74.879
X136.144Y-63.627
X136.195Y-60.706
X138.049Y-78.077
X141.0Y-61.5
X145.5Y-80.75
X145.669Y-79.619
X146.5Y-80.75
X147.5Y-80.75
X148.5Y-80.75
X148.696Y-79.319
X149.5Y-80.75
X150.876Y-82.667
X156.083Y-83.284
T3
X85.725Y-80.772
X116.0Y-77.0
X116.0Y-79.0
X116.0Y-81.0
X116.0Y-83.0
X118.0Y-77.0
X118.0Y-79.0
X118.0Y-81.0
X118.0Y-83.0
X120.0Y-77.0
X120.0Y-79.0
X120.0Y-81.0
X120.0Y-83.0
X122.0Y-77.0
X122.0Y-79.0
X122.0Y-81.0
X122.0Y-83.0
X124.0Y-77.0
X124.0Y-79.0
X124.0Y-81.0
X124.0Y-83.0
X126.0Y-77.0
X126.0Y-79.0
X126.0Y-81.0
X126.0Y-83.0
X128.0Y-77.0
X128.0Y-79.0
X128.0Y-81.0
X128.0Y-83.0
X130.0Y-77.0
X130.0Y-79.0
X130.0Y-81.0
X130.0Y-83.0
X132.0Y-77.0
X132.0Y-79.0
X132.0Y-81.0
X132.0Y-83.0
T4
X57.817Y-94.211
X57.817Y-107.211
X58.762Y-91.931
X58.762Y-96.491
X58.762Y-104.931
X58.762Y-109.491
X61.042Y-90.986
X61.042Y-97.436
X61.042Y-103.986
X61.042Y-110.436
X63.322Y-91.931
X63.322Y-96.491
X63.322Y-104.931
X63.322Y-109.491
X64.267Y-94.211
X64.267Y-107.211
X150.817Y-94.211
X150.817Y-107.211
X151.762Y-91.931
X151.762Y-96.491
X151.762Y-104.931
X151.762Y-109.491
X154.042Y-90.986
X154.042Y-97.436
X154.042Y-103.986
X154.042Y-110.436
X156.322Y-91.931
X156.322Y-96.491
X156.322Y-104.931
X156.322Y-109.491
X157.267Y-94.211
X157.267Y-107.211
T5
X75.819Y-63.627
X78.359Y-63.627
X80.899Y-63.627
X83.439Y-63.627
T6
X145.8Y-70.2
X150.5Y-67.2
X150.5Y-73.2
T7
X61.042Y-94.211
X61.042Y-107.211
X154.042Y-94.211
X154.042Y-107.211
T4
X62.006Y-62.325G85X62.006Y-61.525
G05
X62.006Y-66.655G85X62.006Y-65.555
G05
X70.646Y-62.325G85X70.646Y-61.525
G05
X70.646Y-66.655G85X70.646Y-65.555
G05
T0
M30
