G04 #@! TF.GenerationSoftware,KiCad,Pcbnew,7.0.7-7.0.7~ubuntu22.04.1*
G04 #@! TF.CreationDate,2024-03-15T11:13:54+01:00*
G04 #@! TF.ProjectId,kicad,6b696361-642e-46b6-9963-61645f706362,302*
G04 #@! TF.SameCoordinates,Original*
G04 #@! TF.FileFunction,Copper,L3,Inr*
G04 #@! TF.FilePolarity,Positive*
%FSLAX46Y46*%
G04 Gerber Fmt 4.6, Leading zero omitted, Abs format (unit mm)*
G04 Created by KiCad (PCBNEW 7.0.7-7.0.7~ubuntu22.04.1) date 2024-03-15 11:13:54*
%MOMM*%
%LPD*%
G01*
G04 APERTURE LIST*
G04 #@! TA.AperFunction,ComponentPad*
%ADD10R,2.600000X2.600000*%
G04 #@! TD*
G04 #@! TA.AperFunction,ComponentPad*
%ADD11C,2.600000*%
G04 #@! TD*
G04 #@! TA.AperFunction,ComponentPad*
%ADD12C,0.400000*%
G04 #@! TD*
G04 #@! TA.AperFunction,ComponentPad*
%ADD13O,1.000000X2.100000*%
G04 #@! TD*
G04 #@! TA.AperFunction,ComponentPad*
%ADD14O,1.000000X1.800000*%
G04 #@! TD*
G04 #@! TA.AperFunction,ComponentPad*
%ADD15R,1.730000X2.030000*%
G04 #@! TD*
G04 #@! TA.AperFunction,ComponentPad*
%ADD16O,1.730000X2.030000*%
G04 #@! TD*
G04 #@! TA.AperFunction,ComponentPad*
%ADD17C,0.900000*%
G04 #@! TD*
G04 #@! TA.AperFunction,ComponentPad*
%ADD18C,8.600000*%
G04 #@! TD*
G04 #@! TA.AperFunction,ViaPad*
%ADD19C,0.800000*%
G04 #@! TD*
G04 #@! TA.AperFunction,ViaPad*
%ADD20C,1.000000*%
G04 #@! TD*
G04 APERTURE END LIST*
D10*
X150500000Y-73200000D03*
D11*
X150500000Y-67200000D03*
X145800000Y-70200000D03*
D12*
X103291800Y-72388000D03*
X104691800Y-72388000D03*
X106091800Y-72388000D03*
X102291800Y-71108000D03*
X103291800Y-71108000D03*
X104691800Y-71108000D03*
X106091800Y-71108000D03*
X107091800Y-71108000D03*
X103291800Y-69828000D03*
X104691800Y-69828000D03*
X106091800Y-69828000D03*
D13*
X70646000Y-66105000D03*
D14*
X70646000Y-61925000D03*
D13*
X62006000Y-66105000D03*
D14*
X62006000Y-61925000D03*
D15*
X75819000Y-63627000D03*
D16*
X78359000Y-63627000D03*
X80899000Y-63627000D03*
X83439000Y-63627000D03*
D17*
X61042000Y-97436000D03*
X154042000Y-97436000D03*
X58761581Y-96491419D03*
X63322419Y-96491419D03*
X151761581Y-96491419D03*
X156322419Y-96491419D03*
X57817000Y-94211000D03*
D18*
X61042000Y-94211000D03*
D17*
X64267000Y-94211000D03*
X150817000Y-94211000D03*
D18*
X154042000Y-94211000D03*
D17*
X157267000Y-94211000D03*
X58761581Y-91930581D03*
X63322419Y-91930581D03*
X151761581Y-91930581D03*
X156322419Y-91930581D03*
X61042000Y-90986000D03*
X154042000Y-90986000D03*
X61042000Y-110436000D03*
X154042000Y-110436000D03*
X58761581Y-109491419D03*
X63322419Y-109491419D03*
X151761581Y-109491419D03*
X156322419Y-109491419D03*
X57817000Y-107211000D03*
D18*
X61042000Y-107211000D03*
D17*
X64267000Y-107211000D03*
X150817000Y-107211000D03*
D18*
X154042000Y-107211000D03*
D17*
X157267000Y-107211000D03*
X58761581Y-104930581D03*
X63322419Y-104930581D03*
X151761581Y-104930581D03*
X156322419Y-104930581D03*
X61042000Y-103986000D03*
X154042000Y-103986000D03*
D19*
X124762800Y-71550000D03*
X145669000Y-79619000D03*
X129762800Y-71550000D03*
X130262800Y-70701600D03*
X109212800Y-70701600D03*
X114712800Y-71550000D03*
X116262800Y-70701600D03*
X66040000Y-83693000D03*
X98000000Y-85231000D03*
X112212800Y-70701600D03*
X121262800Y-70701600D03*
X126262800Y-70701600D03*
X120762800Y-71550000D03*
X125762800Y-71550000D03*
X114212800Y-70701600D03*
X69088000Y-106426000D03*
X71764600Y-97536000D03*
X81745250Y-83862750D03*
X82169000Y-70993000D03*
X110712800Y-71550000D03*
X156083000Y-83284000D03*
X98044000Y-75946000D03*
X123262800Y-70701600D03*
X118262800Y-70701600D03*
X147500000Y-80750000D03*
X128262800Y-70701600D03*
X122262800Y-70701600D03*
X127262800Y-70701600D03*
X65151000Y-101346000D03*
X148500000Y-80750000D03*
X146500000Y-80750000D03*
X118762800Y-71550000D03*
X115762800Y-71550000D03*
X74313250Y-73895750D03*
X111212800Y-70701600D03*
X121762800Y-71550000D03*
X130747600Y-71550000D03*
X70646000Y-68072000D03*
X125262800Y-70701600D03*
X113712800Y-71550000D03*
X61595000Y-79629000D03*
X113212800Y-70701600D03*
X126762800Y-71550000D03*
X145500000Y-80750000D03*
X128762800Y-71550000D03*
X117762800Y-71550000D03*
X122762800Y-71550000D03*
X141000000Y-61500000D03*
X119262800Y-70701600D03*
D20*
X85725000Y-80772000D03*
D19*
X86360000Y-66294000D03*
X124262800Y-70701600D03*
X110212800Y-70701600D03*
X79375000Y-69215000D03*
X111712800Y-71550000D03*
X80391000Y-88138000D03*
X76835000Y-70993000D03*
X148696200Y-79318520D03*
X127762800Y-71550000D03*
X120262800Y-70701600D03*
X116762800Y-71550000D03*
X112712800Y-71550000D03*
X117262800Y-70701600D03*
X109712800Y-71550000D03*
X129262800Y-70701600D03*
X149500000Y-80750000D03*
X123762800Y-71550000D03*
X119762800Y-71550000D03*
X115262800Y-70701600D03*
X62006000Y-68072000D03*
X100405646Y-71375741D03*
X92525200Y-68720400D03*
X96742400Y-68843608D03*
X90086800Y-68771200D03*
X103648100Y-66100000D03*
X94557200Y-68720400D03*
X99948994Y-74041227D03*
X102362764Y-75464962D03*
X103759000Y-75087100D03*
X85855810Y-78485665D03*
X104782487Y-75198019D03*
X77851000Y-82042000D03*
X101854000Y-76454000D03*
X136144000Y-63627000D03*
X150876000Y-82667000D03*
X86500000Y-63500000D03*
X136194800Y-60706000D03*
X105121200Y-67502080D03*
X98062400Y-69634800D03*
X134213600Y-74879200D03*
X134213600Y-72796400D03*
X98128200Y-71463600D03*
D20*
X130000000Y-79000000D03*
X130000000Y-83000000D03*
X132000000Y-79000000D03*
X128000000Y-83000000D03*
X118000000Y-77000000D03*
X126000000Y-77000000D03*
X124000000Y-77000000D03*
X132000000Y-81000000D03*
X122000000Y-79000000D03*
X120000000Y-79000000D03*
X124000000Y-83000000D03*
X132000000Y-83000000D03*
X120000000Y-77000000D03*
X122000000Y-81000000D03*
X120000000Y-83000000D03*
X130000000Y-77000000D03*
X124000000Y-81000000D03*
X128000000Y-79000000D03*
X118000000Y-79000000D03*
X120000000Y-81000000D03*
X130000000Y-81000000D03*
X116000000Y-83000000D03*
X116000000Y-77000000D03*
X126000000Y-81000000D03*
X126000000Y-79000000D03*
X124000000Y-79000000D03*
X116000000Y-79000000D03*
X118000000Y-83000000D03*
X122000000Y-77000000D03*
X128000000Y-77000000D03*
X128000000Y-81000000D03*
X118000000Y-81000000D03*
X126000000Y-83000000D03*
X116000000Y-81000000D03*
X132000000Y-77000000D03*
X122000000Y-83000000D03*
D19*
X93000000Y-80900000D03*
X93000000Y-84900000D03*
X75788500Y-69311500D03*
X92000000Y-81900000D03*
X76407000Y-87122000D03*
X95000000Y-80900000D03*
X93000000Y-81900000D03*
X83566000Y-78722000D03*
X78597200Y-72713088D03*
X86106000Y-68660000D03*
X82383500Y-82601000D03*
X94000000Y-80900000D03*
X95000000Y-82900000D03*
X71764600Y-94996000D03*
X72009000Y-102616000D03*
X71755000Y-87884000D03*
X93000000Y-82900000D03*
X95000000Y-84900000D03*
X92000000Y-83900000D03*
X94000000Y-84900000D03*
X98000000Y-82931000D03*
X66040000Y-75565000D03*
X94000000Y-83900000D03*
X93000000Y-83900000D03*
X94000000Y-82900000D03*
X92000000Y-82900000D03*
X95000000Y-81900000D03*
X74033500Y-75516000D03*
X77851000Y-68565000D03*
X92000000Y-80900000D03*
X92000000Y-84900000D03*
X75692000Y-88034500D03*
X95000000Y-83900000D03*
X94000000Y-81900000D03*
X70231000Y-83439000D03*
X72644000Y-77343000D03*
X75311000Y-79121000D03*
X71332062Y-83956649D03*
X76175970Y-78637030D03*
X72657935Y-84314065D03*
X79375000Y-80264000D03*
X84060482Y-76943425D03*
X73025000Y-100965000D03*
X84584078Y-77738986D03*
X78613000Y-81280000D03*
X73092899Y-103660211D03*
X102000000Y-64600000D03*
X100564000Y-81436000D03*
X103748620Y-67176509D03*
X89500000Y-67500000D03*
X138049000Y-78077000D03*
X82500000Y-67500000D03*
X84836000Y-74168000D03*
X80303652Y-77012800D03*
X87249000Y-74168000D03*
X81026000Y-76248900D03*
X75565000Y-76962000D03*
X60428400Y-77390600D03*
X79334722Y-78578000D03*
X79248000Y-70510400D03*
X78282800Y-77368400D03*
X77113400Y-67213100D03*
G04 #@! TA.AperFunction,Conductor*
G36*
X106705839Y-62269685D02*
G01*
X106751594Y-62322489D01*
X106762800Y-62374000D01*
X106762800Y-67626000D01*
X106743115Y-67693039D01*
X106690311Y-67738794D01*
X106638800Y-67750000D01*
X105886342Y-67750000D01*
X105819303Y-67730315D01*
X105773548Y-67677511D01*
X105763246Y-67611053D01*
X105776478Y-67502079D01*
X105757437Y-67345261D01*
X105736192Y-67289244D01*
X105701420Y-67197557D01*
X105611683Y-67067550D01*
X105493440Y-66962797D01*
X105493438Y-66962796D01*
X105493437Y-66962795D01*
X105353565Y-66889383D01*
X105200186Y-66851580D01*
X105200185Y-66851580D01*
X105042215Y-66851580D01*
X105042214Y-66851580D01*
X104888834Y-66889383D01*
X104748962Y-66962795D01*
X104748959Y-66962797D01*
X104748960Y-66962797D01*
X104645148Y-67054766D01*
X104630715Y-67067552D01*
X104612312Y-67094213D01*
X104558029Y-67138203D01*
X104488580Y-67145862D01*
X104426016Y-67114758D01*
X104390199Y-67054766D01*
X104387167Y-67038717D01*
X104384857Y-67019690D01*
X104335438Y-66889384D01*
X104328840Y-66871986D01*
X104239103Y-66741979D01*
X104120860Y-66637226D01*
X104120858Y-66637225D01*
X104120857Y-66637224D01*
X103980985Y-66563812D01*
X103827606Y-66526009D01*
X103827605Y-66526009D01*
X103669635Y-66526009D01*
X103669634Y-66526009D01*
X103516254Y-66563812D01*
X103376382Y-66637224D01*
X103258136Y-66741980D01*
X103168401Y-66871984D01*
X103168400Y-66871985D01*
X103112382Y-67019690D01*
X103093342Y-67176508D01*
X103093342Y-67176509D01*
X103112382Y-67333327D01*
X103168399Y-67481032D01*
X103168400Y-67481032D01*
X103219843Y-67555560D01*
X103241726Y-67621914D01*
X103224261Y-67689566D01*
X103172993Y-67737036D01*
X103117793Y-67750000D01*
X101262800Y-67750000D01*
X101262800Y-72626000D01*
X101243115Y-72693039D01*
X101190311Y-72738794D01*
X101138800Y-72750000D01*
X88886800Y-72750000D01*
X88819761Y-72730315D01*
X88774006Y-72677511D01*
X88762800Y-72626000D01*
X88762800Y-71463600D01*
X97472922Y-71463600D01*
X97491962Y-71620418D01*
X97547980Y-71768122D01*
X97547980Y-71768123D01*
X97637717Y-71898130D01*
X97755960Y-72002883D01*
X97755962Y-72002884D01*
X97895834Y-72076296D01*
X98049214Y-72114100D01*
X98049215Y-72114100D01*
X98207185Y-72114100D01*
X98360565Y-72076296D01*
X98422036Y-72044033D01*
X98500440Y-72002883D01*
X98618683Y-71898130D01*
X98708420Y-71768123D01*
X98764437Y-71620418D01*
X98783478Y-71463600D01*
X98764437Y-71306782D01*
X98708420Y-71159077D01*
X98618683Y-71029070D01*
X98500440Y-70924317D01*
X98500438Y-70924316D01*
X98500437Y-70924315D01*
X98360565Y-70850903D01*
X98207186Y-70813100D01*
X98207185Y-70813100D01*
X98049215Y-70813100D01*
X98049214Y-70813100D01*
X97895834Y-70850903D01*
X97755962Y-70924315D01*
X97637716Y-71029071D01*
X97547981Y-71159075D01*
X97547980Y-71159076D01*
X97491962Y-71306781D01*
X97472922Y-71463599D01*
X97472922Y-71463600D01*
X88762800Y-71463600D01*
X88762800Y-69634800D01*
X97407122Y-69634800D01*
X97426162Y-69791618D01*
X97482180Y-69939322D01*
X97482180Y-69939323D01*
X97571917Y-70069330D01*
X97690160Y-70174083D01*
X97690162Y-70174084D01*
X97830034Y-70247496D01*
X97983414Y-70285300D01*
X97983415Y-70285300D01*
X98141385Y-70285300D01*
X98294765Y-70247496D01*
X98305229Y-70242004D01*
X98434640Y-70174083D01*
X98552883Y-70069330D01*
X98642620Y-69939323D01*
X98698637Y-69791618D01*
X98717678Y-69634800D01*
X98698637Y-69477982D01*
X98642620Y-69330277D01*
X98552883Y-69200270D01*
X98434640Y-69095517D01*
X98434638Y-69095516D01*
X98434637Y-69095515D01*
X98294765Y-69022103D01*
X98141386Y-68984300D01*
X98141385Y-68984300D01*
X97983415Y-68984300D01*
X97983414Y-68984300D01*
X97830034Y-69022103D01*
X97690162Y-69095515D01*
X97571916Y-69200271D01*
X97482181Y-69330275D01*
X97482180Y-69330276D01*
X97426162Y-69477981D01*
X97407122Y-69634799D01*
X97407122Y-69634800D01*
X88762800Y-69634800D01*
X88762800Y-67975028D01*
X88782485Y-67907989D01*
X88835289Y-67862234D01*
X88904447Y-67852290D01*
X88968003Y-67881315D01*
X88988847Y-67904585D01*
X89009517Y-67934530D01*
X89127760Y-68039283D01*
X89127762Y-68039284D01*
X89267634Y-68112696D01*
X89421014Y-68150500D01*
X89421015Y-68150500D01*
X89578985Y-68150500D01*
X89732365Y-68112696D01*
X89732365Y-68112695D01*
X89872240Y-68039283D01*
X89990483Y-67934530D01*
X90080220Y-67804523D01*
X90136237Y-67656818D01*
X90155278Y-67500000D01*
X90136490Y-67345261D01*
X90136237Y-67343181D01*
X90114992Y-67287164D01*
X90080220Y-67195477D01*
X89990483Y-67065470D01*
X89872240Y-66960717D01*
X89872238Y-66960716D01*
X89872237Y-66960715D01*
X89732365Y-66887303D01*
X89578986Y-66849500D01*
X89578985Y-66849500D01*
X89421015Y-66849500D01*
X89421014Y-66849500D01*
X89267634Y-66887303D01*
X89127762Y-66960715D01*
X89009517Y-67065469D01*
X88996300Y-67084617D01*
X88989678Y-67094213D01*
X88988850Y-67095412D01*
X88934567Y-67139402D01*
X88865118Y-67147061D01*
X88802553Y-67115957D01*
X88766736Y-67055966D01*
X88762800Y-67024971D01*
X88762800Y-64600000D01*
X101344722Y-64600000D01*
X101363762Y-64756818D01*
X101419780Y-64904523D01*
X101509517Y-65034530D01*
X101627760Y-65139283D01*
X101627762Y-65139284D01*
X101767634Y-65212696D01*
X101921014Y-65250500D01*
X101921015Y-65250500D01*
X102078985Y-65250500D01*
X102232365Y-65212696D01*
X102232364Y-65212695D01*
X102372240Y-65139283D01*
X102490483Y-65034530D01*
X102580220Y-64904523D01*
X102636237Y-64756818D01*
X102655278Y-64600000D01*
X102636237Y-64443182D01*
X102580220Y-64295477D01*
X102490483Y-64165470D01*
X102372240Y-64060717D01*
X102372238Y-64060716D01*
X102372237Y-64060715D01*
X102232365Y-63987303D01*
X102078986Y-63949500D01*
X102078985Y-63949500D01*
X101921015Y-63949500D01*
X101921014Y-63949500D01*
X101767634Y-63987303D01*
X101627762Y-64060715D01*
X101509516Y-64165471D01*
X101419781Y-64295475D01*
X101419780Y-64295476D01*
X101363762Y-64443181D01*
X101344722Y-64599999D01*
X101344722Y-64600000D01*
X88762800Y-64600000D01*
X88762800Y-62374000D01*
X88782485Y-62306961D01*
X88835289Y-62261206D01*
X88886800Y-62250000D01*
X106638800Y-62250000D01*
X106705839Y-62269685D01*
G37*
G04 #@! TD.AperFunction*
G04 #@! TA.AperFunction,Conductor*
G36*
X158192539Y-59770185D02*
G01*
X158238294Y-59822989D01*
X158249500Y-59874500D01*
X158249500Y-91935921D01*
X158229815Y-92002960D01*
X158177011Y-92048715D01*
X158107853Y-92058659D01*
X158044297Y-92029634D01*
X158017171Y-91996260D01*
X157915050Y-91812918D01*
X157915049Y-91812917D01*
X157915046Y-91812911D01*
X157677257Y-91465782D01*
X157677251Y-91465775D01*
X157677247Y-91465769D01*
X157408461Y-91142084D01*
X157408452Y-91142073D01*
X157110927Y-90844548D01*
X157110915Y-90844538D01*
X156787230Y-90575752D01*
X156787220Y-90575745D01*
X156787218Y-90575743D01*
X156440089Y-90337954D01*
X156440085Y-90337952D01*
X156440081Y-90337949D01*
X156072508Y-90133213D01*
X156072507Y-90133212D01*
X156072499Y-90133208D01*
X156072490Y-90133204D01*
X156072480Y-90133199D01*
X155687601Y-89963257D01*
X155687597Y-89963256D01*
X155687588Y-89963253D01*
X155687586Y-89963252D01*
X155288634Y-89829537D01*
X155288633Y-89829536D01*
X155288631Y-89829536D01*
X154879050Y-89733204D01*
X154879047Y-89733203D01*
X154879045Y-89733203D01*
X154651493Y-89701460D01*
X154462324Y-89675072D01*
X154462322Y-89675071D01*
X154462316Y-89675071D01*
X154042000Y-89655639D01*
X153621684Y-89675071D01*
X153621677Y-89675071D01*
X153621675Y-89675072D01*
X153204955Y-89733203D01*
X153204949Y-89733204D01*
X152795368Y-89829536D01*
X152396402Y-89963256D01*
X152396398Y-89963257D01*
X152011519Y-90133199D01*
X152011491Y-90133213D01*
X151643918Y-90337949D01*
X151643912Y-90337953D01*
X151296779Y-90575745D01*
X151296769Y-90575752D01*
X150973084Y-90844538D01*
X150973064Y-90844556D01*
X150675556Y-91142064D01*
X150675538Y-91142084D01*
X150406752Y-91465769D01*
X150406745Y-91465779D01*
X150168953Y-91812912D01*
X150168949Y-91812918D01*
X149964213Y-92180491D01*
X149964199Y-92180519D01*
X149794257Y-92565398D01*
X149794256Y-92565402D01*
X149660536Y-92964368D01*
X149564204Y-93373949D01*
X149564203Y-93373955D01*
X149506071Y-93790684D01*
X149486639Y-94211000D01*
X149506071Y-94631316D01*
X149506071Y-94631322D01*
X149506072Y-94631324D01*
X149564203Y-95048044D01*
X149564204Y-95048050D01*
X149654161Y-95430528D01*
X149660537Y-95457634D01*
X149723838Y-95646500D01*
X149794256Y-95856597D01*
X149794257Y-95856601D01*
X149964199Y-96241480D01*
X149964204Y-96241490D01*
X149964208Y-96241499D01*
X149964212Y-96241507D01*
X149964213Y-96241508D01*
X150168949Y-96609081D01*
X150168952Y-96609085D01*
X150168954Y-96609089D01*
X150406743Y-96956218D01*
X150406745Y-96956220D01*
X150406752Y-96956230D01*
X150675538Y-97279915D01*
X150675548Y-97279927D01*
X150973073Y-97577452D01*
X150973084Y-97577461D01*
X151296769Y-97846247D01*
X151296775Y-97846251D01*
X151296782Y-97846257D01*
X151643911Y-98084046D01*
X152011501Y-98288792D01*
X152011518Y-98288799D01*
X152011519Y-98288800D01*
X152396398Y-98458742D01*
X152396402Y-98458743D01*
X152396404Y-98458743D01*
X152396414Y-98458748D01*
X152795366Y-98592463D01*
X153204955Y-98688797D01*
X153621684Y-98746929D01*
X154042000Y-98766361D01*
X154462316Y-98746929D01*
X154879045Y-98688797D01*
X155288634Y-98592463D01*
X155687586Y-98458748D01*
X155687597Y-98458742D01*
X155687601Y-98458742D01*
X155924482Y-98354147D01*
X156072499Y-98288792D01*
X156440089Y-98084046D01*
X156787218Y-97846257D01*
X157110927Y-97577452D01*
X157408452Y-97279927D01*
X157677257Y-96956218D01*
X157915046Y-96609089D01*
X158017171Y-96425738D01*
X158066989Y-96376751D01*
X158135384Y-96362473D01*
X158200641Y-96387438D01*
X158242042Y-96443722D01*
X158249500Y-96486078D01*
X158249500Y-111625500D01*
X158229815Y-111692539D01*
X158177011Y-111738294D01*
X158125500Y-111749500D01*
X56874500Y-111749500D01*
X56807461Y-111729815D01*
X56761706Y-111677011D01*
X56750500Y-111625500D01*
X56750500Y-102616000D01*
X71353722Y-102616000D01*
X71372762Y-102772818D01*
X71428780Y-102920523D01*
X71518517Y-103050530D01*
X71636760Y-103155283D01*
X71636762Y-103155284D01*
X71776634Y-103228696D01*
X71930014Y-103266500D01*
X71930015Y-103266500D01*
X72087985Y-103266500D01*
X72241365Y-103228696D01*
X72358792Y-103167064D01*
X72427298Y-103153339D01*
X72492352Y-103178831D01*
X72533297Y-103235446D01*
X72537133Y-103305211D01*
X72518470Y-103347296D01*
X72512682Y-103355680D01*
X72512679Y-103355687D01*
X72456661Y-103503392D01*
X72437621Y-103660210D01*
X72437621Y-103660211D01*
X72456661Y-103817029D01*
X72512679Y-103964734D01*
X72602416Y-104094741D01*
X72720659Y-104199494D01*
X72720661Y-104199495D01*
X72860533Y-104272907D01*
X73013913Y-104310711D01*
X73013914Y-104310711D01*
X73171884Y-104310711D01*
X73325264Y-104272907D01*
X73325264Y-104272906D01*
X73465139Y-104199494D01*
X73583382Y-104094741D01*
X73673119Y-103964734D01*
X73729136Y-103817029D01*
X73748177Y-103660211D01*
X73729136Y-103503393D01*
X73673119Y-103355688D01*
X73583382Y-103225681D01*
X73465139Y-103120928D01*
X73465137Y-103120927D01*
X73465136Y-103120926D01*
X73325264Y-103047514D01*
X73171885Y-103009711D01*
X73171884Y-103009711D01*
X73013914Y-103009711D01*
X73013913Y-103009711D01*
X72860536Y-103047514D01*
X72860534Y-103047514D01*
X72860534Y-103047515D01*
X72839701Y-103058449D01*
X72743107Y-103109146D01*
X72674598Y-103122871D01*
X72609545Y-103097378D01*
X72568601Y-103040763D01*
X72564765Y-102970998D01*
X72583431Y-102928908D01*
X72589220Y-102920523D01*
X72645237Y-102772818D01*
X72664278Y-102616000D01*
X72645237Y-102459182D01*
X72589220Y-102311477D01*
X72499483Y-102181470D01*
X72381240Y-102076717D01*
X72381238Y-102076716D01*
X72381237Y-102076715D01*
X72241365Y-102003303D01*
X72087986Y-101965500D01*
X72087985Y-101965500D01*
X71930015Y-101965500D01*
X71930014Y-101965500D01*
X71776634Y-102003303D01*
X71636762Y-102076715D01*
X71518516Y-102181471D01*
X71428781Y-102311475D01*
X71428780Y-102311476D01*
X71372762Y-102459181D01*
X71353722Y-102615999D01*
X71353722Y-102616000D01*
X56750500Y-102616000D01*
X56750500Y-100965000D01*
X72369722Y-100965000D01*
X72388762Y-101121818D01*
X72444779Y-101269523D01*
X72444780Y-101269523D01*
X72534517Y-101399530D01*
X72652760Y-101504283D01*
X72652762Y-101504284D01*
X72792634Y-101577696D01*
X72946014Y-101615500D01*
X72946015Y-101615500D01*
X73103985Y-101615500D01*
X73257365Y-101577696D01*
X73257364Y-101577696D01*
X73397240Y-101504283D01*
X73515483Y-101399530D01*
X73605220Y-101269523D01*
X73661237Y-101121818D01*
X73680278Y-100965000D01*
X73661237Y-100808182D01*
X73605220Y-100660477D01*
X73515483Y-100530470D01*
X73397240Y-100425717D01*
X73397238Y-100425716D01*
X73397237Y-100425715D01*
X73257365Y-100352303D01*
X73103986Y-100314500D01*
X73103985Y-100314500D01*
X72946015Y-100314500D01*
X72946014Y-100314500D01*
X72792634Y-100352303D01*
X72652762Y-100425715D01*
X72534516Y-100530471D01*
X72444781Y-100660475D01*
X72444780Y-100660476D01*
X72388762Y-100808181D01*
X72369722Y-100964999D01*
X72369722Y-100965000D01*
X56750500Y-100965000D01*
X56750500Y-96335268D01*
X56770185Y-96268229D01*
X56822989Y-96222474D01*
X56892147Y-96212530D01*
X56955703Y-96241555D01*
X56982826Y-96274926D01*
X57066829Y-96425739D01*
X57168949Y-96609081D01*
X57168952Y-96609085D01*
X57168954Y-96609089D01*
X57406743Y-96956218D01*
X57406745Y-96956220D01*
X57406752Y-96956230D01*
X57675538Y-97279915D01*
X57675548Y-97279927D01*
X57973073Y-97577452D01*
X57973084Y-97577461D01*
X58296769Y-97846247D01*
X58296775Y-97846251D01*
X58296782Y-97846257D01*
X58643911Y-98084046D01*
X59011501Y-98288792D01*
X59011518Y-98288799D01*
X59011519Y-98288800D01*
X59396398Y-98458742D01*
X59396402Y-98458743D01*
X59396404Y-98458743D01*
X59396414Y-98458748D01*
X59795366Y-98592463D01*
X60204955Y-98688797D01*
X60621684Y-98746929D01*
X61042000Y-98766361D01*
X61462316Y-98746929D01*
X61879045Y-98688797D01*
X62288634Y-98592463D01*
X62687586Y-98458748D01*
X62687597Y-98458742D01*
X62687601Y-98458742D01*
X62924482Y-98354147D01*
X63072499Y-98288792D01*
X63440089Y-98084046D01*
X63787218Y-97846257D01*
X64110927Y-97577452D01*
X64408452Y-97279927D01*
X64677257Y-96956218D01*
X64915046Y-96609089D01*
X65119792Y-96241499D01*
X65185147Y-96093482D01*
X65289742Y-95856601D01*
X65289743Y-95856597D01*
X65289748Y-95856586D01*
X65423463Y-95457634D01*
X65519797Y-95048045D01*
X65527057Y-94996000D01*
X71109322Y-94996000D01*
X71128362Y-95152818D01*
X71184379Y-95300523D01*
X71184380Y-95300523D01*
X71274117Y-95430530D01*
X71392360Y-95535283D01*
X71392362Y-95535284D01*
X71532234Y-95608696D01*
X71685614Y-95646500D01*
X71685615Y-95646500D01*
X71843585Y-95646500D01*
X71996965Y-95608696D01*
X71996965Y-95608695D01*
X72136840Y-95535283D01*
X72255083Y-95430530D01*
X72344820Y-95300523D01*
X72400837Y-95152818D01*
X72419878Y-94996000D01*
X72400837Y-94839182D01*
X72344820Y-94691477D01*
X72255083Y-94561470D01*
X72136840Y-94456717D01*
X72136838Y-94456716D01*
X72136837Y-94456715D01*
X71996965Y-94383303D01*
X71843586Y-94345500D01*
X71843585Y-94345500D01*
X71685615Y-94345500D01*
X71685614Y-94345500D01*
X71532234Y-94383303D01*
X71392362Y-94456715D01*
X71274116Y-94561471D01*
X71184381Y-94691475D01*
X71184380Y-94691476D01*
X71128362Y-94839181D01*
X71109322Y-94995999D01*
X71109322Y-94996000D01*
X65527057Y-94996000D01*
X65577929Y-94631316D01*
X65597361Y-94211000D01*
X65577929Y-93790684D01*
X65519797Y-93373955D01*
X65423463Y-92964366D01*
X65289748Y-92565414D01*
X65289743Y-92565402D01*
X65289742Y-92565398D01*
X65119800Y-92180519D01*
X65119799Y-92180518D01*
X65119792Y-92180501D01*
X64915046Y-91812911D01*
X64677257Y-91465782D01*
X64677251Y-91465775D01*
X64677247Y-91465769D01*
X64408461Y-91142084D01*
X64408452Y-91142073D01*
X64110927Y-90844548D01*
X64110915Y-90844538D01*
X63787230Y-90575752D01*
X63787220Y-90575745D01*
X63787218Y-90575743D01*
X63440089Y-90337954D01*
X63440085Y-90337952D01*
X63440081Y-90337949D01*
X63072508Y-90133213D01*
X63072507Y-90133212D01*
X63072499Y-90133208D01*
X63072490Y-90133204D01*
X63072480Y-90133199D01*
X62687601Y-89963257D01*
X62687597Y-89963256D01*
X62687588Y-89963253D01*
X62687586Y-89963252D01*
X62288634Y-89829537D01*
X62288633Y-89829536D01*
X62288631Y-89829536D01*
X61879050Y-89733204D01*
X61879047Y-89733203D01*
X61879045Y-89733203D01*
X61651493Y-89701460D01*
X61462324Y-89675072D01*
X61462322Y-89675071D01*
X61462316Y-89675071D01*
X61042000Y-89655639D01*
X61041999Y-89655639D01*
X61011161Y-89657064D01*
X60621684Y-89675071D01*
X60621677Y-89675071D01*
X60621675Y-89675072D01*
X60204955Y-89733203D01*
X60204949Y-89733204D01*
X59795368Y-89829536D01*
X59396402Y-89963256D01*
X59396398Y-89963257D01*
X59011519Y-90133199D01*
X59011491Y-90133213D01*
X58643918Y-90337949D01*
X58643912Y-90337953D01*
X58296779Y-90575745D01*
X58296769Y-90575752D01*
X57973084Y-90844538D01*
X57973064Y-90844556D01*
X57675556Y-91142064D01*
X57675538Y-91142084D01*
X57406752Y-91465769D01*
X57406745Y-91465779D01*
X57168953Y-91812912D01*
X57168949Y-91812918D01*
X56982829Y-92147070D01*
X56933011Y-92196058D01*
X56864615Y-92210336D01*
X56799358Y-92185370D01*
X56757958Y-92129087D01*
X56750500Y-92086731D01*
X56750500Y-87884000D01*
X71099722Y-87884000D01*
X71118762Y-88040818D01*
X71174779Y-88188522D01*
X71174780Y-88188523D01*
X71264517Y-88318530D01*
X71382760Y-88423283D01*
X71382762Y-88423284D01*
X71522634Y-88496696D01*
X71676014Y-88534500D01*
X71676015Y-88534500D01*
X71833985Y-88534500D01*
X71987365Y-88496696D01*
X72040081Y-88469028D01*
X72127240Y-88423283D01*
X72245483Y-88318530D01*
X72335220Y-88188523D01*
X72391237Y-88040818D01*
X72392004Y-88034500D01*
X75036722Y-88034500D01*
X75055762Y-88191318D01*
X75104007Y-88318528D01*
X75111780Y-88339023D01*
X75201517Y-88469030D01*
X75319760Y-88573783D01*
X75319762Y-88573784D01*
X75459634Y-88647196D01*
X75613014Y-88685000D01*
X75613015Y-88685000D01*
X75770985Y-88685000D01*
X75924365Y-88647196D01*
X75924364Y-88647196D01*
X76064240Y-88573783D01*
X76182483Y-88469030D01*
X76272220Y-88339023D01*
X76328237Y-88191318D01*
X76347278Y-88034500D01*
X76332337Y-87911446D01*
X76343798Y-87842523D01*
X76390702Y-87790737D01*
X76455433Y-87772500D01*
X76485985Y-87772500D01*
X76639365Y-87734696D01*
X76648360Y-87729975D01*
X76779240Y-87661283D01*
X76897483Y-87556530D01*
X76987220Y-87426523D01*
X77043237Y-87278818D01*
X77062278Y-87122000D01*
X77043237Y-86965182D01*
X76987220Y-86817477D01*
X76897483Y-86687470D01*
X76779240Y-86582717D01*
X76779238Y-86582716D01*
X76779237Y-86582715D01*
X76639365Y-86509303D01*
X76485986Y-86471500D01*
X76485985Y-86471500D01*
X76328015Y-86471500D01*
X76328014Y-86471500D01*
X76174634Y-86509303D01*
X76034762Y-86582715D01*
X75916516Y-86687471D01*
X75826781Y-86817475D01*
X75826780Y-86817476D01*
X75770762Y-86965181D01*
X75751722Y-87121999D01*
X75751722Y-87122000D01*
X75766663Y-87245054D01*
X75755202Y-87313977D01*
X75708298Y-87365763D01*
X75643567Y-87384000D01*
X75613014Y-87384000D01*
X75459634Y-87421803D01*
X75319762Y-87495215D01*
X75201516Y-87599971D01*
X75111781Y-87729975D01*
X75111780Y-87729976D01*
X75055762Y-87877681D01*
X75036722Y-88034499D01*
X75036722Y-88034500D01*
X72392004Y-88034500D01*
X72410278Y-87884000D01*
X72391237Y-87727182D01*
X72335220Y-87579477D01*
X72245483Y-87449470D01*
X72127240Y-87344717D01*
X72127238Y-87344716D01*
X72127237Y-87344715D01*
X71987365Y-87271303D01*
X71833986Y-87233500D01*
X71833985Y-87233500D01*
X71676015Y-87233500D01*
X71676014Y-87233500D01*
X71522634Y-87271303D01*
X71382762Y-87344715D01*
X71264516Y-87449471D01*
X71174781Y-87579475D01*
X71174780Y-87579476D01*
X71118762Y-87727181D01*
X71099722Y-87883999D01*
X71099722Y-87884000D01*
X56750500Y-87884000D01*
X56750500Y-83439000D01*
X69575722Y-83439000D01*
X69594762Y-83595818D01*
X69634793Y-83701369D01*
X69650780Y-83743523D01*
X69740517Y-83873530D01*
X69858760Y-83978283D01*
X69858762Y-83978284D01*
X69998634Y-84051696D01*
X70152014Y-84089500D01*
X70152015Y-84089500D01*
X70309985Y-84089500D01*
X70463365Y-84051696D01*
X70515779Y-84024187D01*
X70584287Y-84010461D01*
X70649340Y-84035953D01*
X70690285Y-84092569D01*
X70693513Y-84106312D01*
X70694030Y-84106185D01*
X70695824Y-84113467D01*
X70730357Y-84204521D01*
X70751842Y-84261172D01*
X70841579Y-84391179D01*
X70959822Y-84495932D01*
X70959824Y-84495933D01*
X71099696Y-84569345D01*
X71253076Y-84607149D01*
X71253077Y-84607149D01*
X71411047Y-84607149D01*
X71564427Y-84569345D01*
X71704300Y-84495933D01*
X71704299Y-84495933D01*
X71704302Y-84495932D01*
X71816774Y-84396291D01*
X71880006Y-84366570D01*
X71949269Y-84375754D01*
X72002573Y-84420926D01*
X72018362Y-84463980D01*
X72019903Y-84463601D01*
X72021697Y-84470883D01*
X72068949Y-84595475D01*
X72077715Y-84618588D01*
X72167452Y-84748595D01*
X72285695Y-84853348D01*
X72285697Y-84853349D01*
X72425569Y-84926761D01*
X72578949Y-84964565D01*
X72578950Y-84964565D01*
X72736920Y-84964565D01*
X72890300Y-84926761D01*
X72941288Y-84900000D01*
X91344722Y-84900000D01*
X91363762Y-85056818D01*
X91419780Y-85204523D01*
X91509517Y-85334530D01*
X91627760Y-85439283D01*
X91627762Y-85439284D01*
X91767634Y-85512696D01*
X91921014Y-85550500D01*
X91921015Y-85550500D01*
X92078985Y-85550500D01*
X92232365Y-85512696D01*
X92372237Y-85439285D01*
X92372238Y-85439283D01*
X92372240Y-85439283D01*
X92417774Y-85398943D01*
X92481004Y-85369224D01*
X92550268Y-85378406D01*
X92582225Y-85398944D01*
X92627759Y-85439282D01*
X92627761Y-85439284D01*
X92767634Y-85512696D01*
X92921014Y-85550500D01*
X92921015Y-85550500D01*
X93078985Y-85550500D01*
X93232365Y-85512696D01*
X93372237Y-85439285D01*
X93372238Y-85439283D01*
X93372240Y-85439283D01*
X93417774Y-85398943D01*
X93481006Y-85369223D01*
X93550270Y-85378407D01*
X93582224Y-85398942D01*
X93616890Y-85429653D01*
X93627762Y-85439285D01*
X93767634Y-85512696D01*
X93921014Y-85550500D01*
X93921015Y-85550500D01*
X94078985Y-85550500D01*
X94232365Y-85512696D01*
X94372237Y-85439285D01*
X94372238Y-85439283D01*
X94372240Y-85439283D01*
X94417774Y-85398943D01*
X94481004Y-85369224D01*
X94550268Y-85378406D01*
X94582225Y-85398944D01*
X94627759Y-85439282D01*
X94627761Y-85439284D01*
X94767634Y-85512696D01*
X94921014Y-85550500D01*
X94921015Y-85550500D01*
X95078985Y-85550500D01*
X95232365Y-85512696D01*
X95232364Y-85512696D01*
X95372240Y-85439283D01*
X95490483Y-85334530D01*
X95580220Y-85204523D01*
X95636237Y-85056818D01*
X95655278Y-84900000D01*
X95649614Y-84853348D01*
X95636237Y-84743181D01*
X95588985Y-84618589D01*
X95580220Y-84595477D01*
X95511509Y-84495931D01*
X95493913Y-84470439D01*
X95472030Y-84404084D01*
X95489496Y-84336433D01*
X95493887Y-84329597D01*
X95580220Y-84204523D01*
X95636237Y-84056818D01*
X95655278Y-83900000D01*
X95643116Y-83799831D01*
X95636237Y-83743181D01*
X95601704Y-83652126D01*
X95580220Y-83595477D01*
X95493912Y-83470438D01*
X95472030Y-83404086D01*
X95489495Y-83336434D01*
X95493905Y-83329571D01*
X95580220Y-83204523D01*
X95636237Y-83056818D01*
X95651514Y-82931000D01*
X97344722Y-82931000D01*
X97363762Y-83087818D01*
X97408691Y-83206283D01*
X97419780Y-83235523D01*
X97509517Y-83365530D01*
X97627760Y-83470283D01*
X97627762Y-83470284D01*
X97767634Y-83543696D01*
X97921014Y-83581500D01*
X97921015Y-83581500D01*
X98078985Y-83581500D01*
X98232365Y-83543696D01*
X98273476Y-83522119D01*
X98372240Y-83470283D01*
X98490483Y-83365530D01*
X98580220Y-83235523D01*
X98636237Y-83087818D01*
X98646900Y-83000002D01*
X115244751Y-83000002D01*
X115263685Y-83168056D01*
X115319545Y-83327694D01*
X115319547Y-83327697D01*
X115409518Y-83470884D01*
X115409523Y-83470890D01*
X115529109Y-83590476D01*
X115529115Y-83590481D01*
X115672302Y-83680452D01*
X115672305Y-83680454D01*
X115672309Y-83680455D01*
X115672310Y-83680456D01*
X115732076Y-83701369D01*
X115831943Y-83736314D01*
X115999997Y-83755249D01*
X116000000Y-83755249D01*
X116000003Y-83755249D01*
X116168056Y-83736314D01*
X116168059Y-83736313D01*
X116327690Y-83680456D01*
X116327692Y-83680454D01*
X116327694Y-83680454D01*
X116327697Y-83680452D01*
X116470884Y-83590481D01*
X116470885Y-83590480D01*
X116470890Y-83590477D01*
X116590477Y-83470890D01*
X116590858Y-83470284D01*
X116680452Y-83327697D01*
X116680454Y-83327694D01*
X116680454Y-83327692D01*
X116680456Y-83327690D01*
X116736313Y-83168059D01*
X116736313Y-83168058D01*
X116736314Y-83168056D01*
X116755249Y-83000002D01*
X117244751Y-83000002D01*
X117263685Y-83168056D01*
X117319545Y-83327694D01*
X117319547Y-83327697D01*
X117409518Y-83470884D01*
X117409523Y-83470890D01*
X117529109Y-83590476D01*
X117529115Y-83590481D01*
X117672302Y-83680452D01*
X117672305Y-83680454D01*
X117672309Y-83680455D01*
X117672310Y-83680456D01*
X117732076Y-83701369D01*
X117831943Y-83736314D01*
X117999997Y-83755249D01*
X118000000Y-83755249D01*
X118000003Y-83755249D01*
X118168056Y-83736314D01*
X118168059Y-83736313D01*
X118327690Y-83680456D01*
X118327692Y-83680454D01*
X118327694Y-83680454D01*
X118327697Y-83680452D01*
X118470884Y-83590481D01*
X118470885Y-83590480D01*
X118470890Y-83590477D01*
X118590477Y-83470890D01*
X118590858Y-83470284D01*
X118680452Y-83327697D01*
X118680454Y-83327694D01*
X118680454Y-83327692D01*
X118680456Y-83327690D01*
X118736313Y-83168059D01*
X118736313Y-83168058D01*
X118736314Y-83168056D01*
X118755249Y-83000002D01*
X119244751Y-83000002D01*
X119263685Y-83168056D01*
X119319545Y-83327694D01*
X119319547Y-83327697D01*
X119409518Y-83470884D01*
X119409523Y-83470890D01*
X119529109Y-83590476D01*
X119529115Y-83590481D01*
X119672302Y-83680452D01*
X119672305Y-83680454D01*
X119672309Y-83680455D01*
X119672310Y-83680456D01*
X119732076Y-83701369D01*
X119831943Y-83736314D01*
X119999997Y-83755249D01*
X120000000Y-83755249D01*
X120000003Y-83755249D01*
X120168056Y-83736314D01*
X120168059Y-83736313D01*
X120327690Y-83680456D01*
X120327692Y-83680454D01*
X120327694Y-83680454D01*
X120327697Y-83680452D01*
X120470884Y-83590481D01*
X120470885Y-83590480D01*
X120470890Y-83590477D01*
X120590477Y-83470890D01*
X120590858Y-83470284D01*
X120680452Y-83327697D01*
X120680454Y-83327694D01*
X120680454Y-83327692D01*
X120680456Y-83327690D01*
X120736313Y-83168059D01*
X120736313Y-83168058D01*
X120736314Y-83168056D01*
X120755249Y-83000002D01*
X121244751Y-83000002D01*
X121263685Y-83168056D01*
X121319545Y-83327694D01*
X121319547Y-83327697D01*
X121409518Y-83470884D01*
X121409523Y-83470890D01*
X121529109Y-83590476D01*
X121529115Y-83590481D01*
X121672302Y-83680452D01*
X121672305Y-83680454D01*
X121672309Y-83680455D01*
X121672310Y-83680456D01*
X121732076Y-83701369D01*
X121831943Y-83736314D01*
X121999997Y-83755249D01*
X122000000Y-83755249D01*
X122000003Y-83755249D01*
X122168056Y-83736314D01*
X122168059Y-83736313D01*
X122327690Y-83680456D01*
X122327692Y-83680454D01*
X122327694Y-83680454D01*
X122327697Y-83680452D01*
X122470884Y-83590481D01*
X122470885Y-83590480D01*
X122470890Y-83590477D01*
X122590477Y-83470890D01*
X122590858Y-83470284D01*
X122680452Y-83327697D01*
X122680454Y-83327694D01*
X122680454Y-83327692D01*
X122680456Y-83327690D01*
X122736313Y-83168059D01*
X122736313Y-83168058D01*
X122736314Y-83168056D01*
X122755249Y-83000002D01*
X123244751Y-83000002D01*
X123263685Y-83168056D01*
X123319545Y-83327694D01*
X123319547Y-83327697D01*
X123409518Y-83470884D01*
X123409523Y-83470890D01*
X123529109Y-83590476D01*
X123529115Y-83590481D01*
X123672302Y-83680452D01*
X123672305Y-83680454D01*
X123672309Y-83680455D01*
X123672310Y-83680456D01*
X123732076Y-83701369D01*
X123831943Y-83736314D01*
X123999997Y-83755249D01*
X124000000Y-83755249D01*
X124000003Y-83755249D01*
X124168056Y-83736314D01*
X124168059Y-83736313D01*
X124327690Y-83680456D01*
X124327692Y-83680454D01*
X124327694Y-83680454D01*
X124327697Y-83680452D01*
X124470884Y-83590481D01*
X124470885Y-83590480D01*
X124470890Y-83590477D01*
X124590477Y-83470890D01*
X124590858Y-83470284D01*
X124680452Y-83327697D01*
X124680454Y-83327694D01*
X124680454Y-83327692D01*
X124680456Y-83327690D01*
X124736313Y-83168059D01*
X124736313Y-83168058D01*
X124736314Y-83168056D01*
X124755249Y-83000002D01*
X125244751Y-83000002D01*
X125263685Y-83168056D01*
X125319545Y-83327694D01*
X125319547Y-83327697D01*
X125409518Y-83470884D01*
X125409523Y-83470890D01*
X125529109Y-83590476D01*
X125529115Y-83590481D01*
X125672302Y-83680452D01*
X125672305Y-83680454D01*
X125672309Y-83680455D01*
X125672310Y-83680456D01*
X125732076Y-83701369D01*
X125831943Y-83736314D01*
X125999997Y-83755249D01*
X126000000Y-83755249D01*
X126000003Y-83755249D01*
X126168056Y-83736314D01*
X126168059Y-83736313D01*
X126327690Y-83680456D01*
X126327692Y-83680454D01*
X126327694Y-83680454D01*
X126327697Y-83680452D01*
X126470884Y-83590481D01*
X126470885Y-83590480D01*
X126470890Y-83590477D01*
X126590477Y-83470890D01*
X126590858Y-83470284D01*
X126680452Y-83327697D01*
X126680454Y-83327694D01*
X126680454Y-83327692D01*
X126680456Y-83327690D01*
X126736313Y-83168059D01*
X126736313Y-83168058D01*
X126736314Y-83168056D01*
X126755249Y-83000002D01*
X127244751Y-83000002D01*
X127263685Y-83168056D01*
X127319545Y-83327694D01*
X127319547Y-83327697D01*
X127409518Y-83470884D01*
X127409523Y-83470890D01*
X127529109Y-83590476D01*
X127529115Y-83590481D01*
X127672302Y-83680452D01*
X127672305Y-83680454D01*
X127672309Y-83680455D01*
X127672310Y-83680456D01*
X127732076Y-83701369D01*
X127831943Y-83736314D01*
X127999997Y-83755249D01*
X128000000Y-83755249D01*
X128000003Y-83755249D01*
X128168056Y-83736314D01*
X128168059Y-83736313D01*
X128327690Y-83680456D01*
X128327692Y-83680454D01*
X128327694Y-83680454D01*
X128327697Y-83680452D01*
X128470884Y-83590481D01*
X128470885Y-83590480D01*
X128470890Y-83590477D01*
X128590477Y-83470890D01*
X128590858Y-83470284D01*
X128680452Y-83327697D01*
X128680454Y-83327694D01*
X128680454Y-83327692D01*
X128680456Y-83327690D01*
X128736313Y-83168059D01*
X128736313Y-83168058D01*
X128736314Y-83168056D01*
X128755249Y-83000002D01*
X129244751Y-83000002D01*
X129263685Y-83168056D01*
X129319545Y-83327694D01*
X129319547Y-83327697D01*
X129409518Y-83470884D01*
X129409523Y-83470890D01*
X129529109Y-83590476D01*
X129529115Y-83590481D01*
X129672302Y-83680452D01*
X129672305Y-83680454D01*
X129672309Y-83680455D01*
X129672310Y-83680456D01*
X129732076Y-83701369D01*
X129831943Y-83736314D01*
X129999997Y-83755249D01*
X130000000Y-83755249D01*
X130000003Y-83755249D01*
X130168056Y-83736314D01*
X130168059Y-83736313D01*
X130327690Y-83680456D01*
X130327692Y-83680454D01*
X130327694Y-83680454D01*
X130327697Y-83680452D01*
X130470884Y-83590481D01*
X130470885Y-83590480D01*
X130470890Y-83590477D01*
X130590477Y-83470890D01*
X130590858Y-83470284D01*
X130680452Y-83327697D01*
X130680454Y-83327694D01*
X130680454Y-83327692D01*
X130680456Y-83327690D01*
X130736313Y-83168059D01*
X130736313Y-83168058D01*
X130736314Y-83168056D01*
X130755249Y-83000002D01*
X131244751Y-83000002D01*
X131263685Y-83168056D01*
X131319545Y-83327694D01*
X131319547Y-83327697D01*
X131409518Y-83470884D01*
X131409523Y-83470890D01*
X131529109Y-83590476D01*
X131529115Y-83590481D01*
X131672302Y-83680452D01*
X131672305Y-83680454D01*
X131672309Y-83680455D01*
X131672310Y-83680456D01*
X131732076Y-83701369D01*
X131831943Y-83736314D01*
X131999997Y-83755249D01*
X132000000Y-83755249D01*
X132000003Y-83755249D01*
X132168056Y-83736314D01*
X132168059Y-83736313D01*
X132327690Y-83680456D01*
X132327692Y-83680454D01*
X132327694Y-83680454D01*
X132327697Y-83680452D01*
X132470884Y-83590481D01*
X132470885Y-83590480D01*
X132470890Y-83590477D01*
X132590477Y-83470890D01*
X132590858Y-83470284D01*
X132680452Y-83327697D01*
X132680454Y-83327694D01*
X132680454Y-83327692D01*
X132680456Y-83327690D01*
X132736313Y-83168059D01*
X132736313Y-83168058D01*
X132736314Y-83168056D01*
X132755249Y-83000002D01*
X132755249Y-82999997D01*
X132736314Y-82831943D01*
X132680454Y-82672305D01*
X132680452Y-82672302D01*
X132677121Y-82667000D01*
X150220722Y-82667000D01*
X150239762Y-82823818D01*
X150295780Y-82971522D01*
X150295780Y-82971523D01*
X150385517Y-83101530D01*
X150503760Y-83206283D01*
X150503762Y-83206284D01*
X150643634Y-83279696D01*
X150797014Y-83317500D01*
X150797015Y-83317500D01*
X150954985Y-83317500D01*
X151108365Y-83279696D01*
X151162087Y-83251500D01*
X151248240Y-83206283D01*
X151366483Y-83101530D01*
X151456220Y-82971523D01*
X151512237Y-82823818D01*
X151531278Y-82667000D01*
X151526358Y-82626475D01*
X151512237Y-82510181D01*
X151490992Y-82454164D01*
X151456220Y-82362477D01*
X151366483Y-82232470D01*
X151248240Y-82127717D01*
X151248238Y-82127716D01*
X151248237Y-82127715D01*
X151108365Y-82054303D01*
X150954986Y-82016500D01*
X150954985Y-82016500D01*
X150797015Y-82016500D01*
X150797014Y-82016500D01*
X150643634Y-82054303D01*
X150503762Y-82127715D01*
X150385516Y-82232471D01*
X150295781Y-82362475D01*
X150295780Y-82362476D01*
X150239762Y-82510181D01*
X150220722Y-82666999D01*
X150220722Y-82667000D01*
X132677121Y-82667000D01*
X132590481Y-82529115D01*
X132590476Y-82529109D01*
X132470890Y-82409523D01*
X132470884Y-82409518D01*
X132327697Y-82319547D01*
X132327694Y-82319545D01*
X132168056Y-82263685D01*
X132000003Y-82244751D01*
X131999997Y-82244751D01*
X131831943Y-82263685D01*
X131672305Y-82319545D01*
X131672302Y-82319547D01*
X131529115Y-82409518D01*
X131529109Y-82409523D01*
X131409523Y-82529109D01*
X131409518Y-82529115D01*
X131319547Y-82672302D01*
X131319545Y-82672305D01*
X131263685Y-82831943D01*
X131244751Y-82999997D01*
X131244751Y-83000002D01*
X130755249Y-83000002D01*
X130755249Y-82999997D01*
X130736314Y-82831943D01*
X130680454Y-82672305D01*
X130680452Y-82672302D01*
X130590481Y-82529115D01*
X130590476Y-82529109D01*
X130470890Y-82409523D01*
X130470884Y-82409518D01*
X130327697Y-82319547D01*
X130327694Y-82319545D01*
X130168056Y-82263685D01*
X130000003Y-82244751D01*
X129999997Y-82244751D01*
X129831943Y-82263685D01*
X129672305Y-82319545D01*
X129672302Y-82319547D01*
X129529115Y-82409518D01*
X129529109Y-82409523D01*
X129409523Y-82529109D01*
X129409518Y-82529115D01*
X129319547Y-82672302D01*
X129319545Y-82672305D01*
X129263685Y-82831943D01*
X129244751Y-82999997D01*
X129244751Y-83000002D01*
X128755249Y-83000002D01*
X128755249Y-82999997D01*
X128736314Y-82831943D01*
X128680454Y-82672305D01*
X128680452Y-82672302D01*
X128590481Y-82529115D01*
X128590476Y-82529109D01*
X128470890Y-82409523D01*
X128470884Y-82409518D01*
X128327697Y-82319547D01*
X128327694Y-82319545D01*
X128168056Y-82263685D01*
X128000003Y-82244751D01*
X127999997Y-82244751D01*
X127831943Y-82263685D01*
X127672305Y-82319545D01*
X127672302Y-82319547D01*
X127529115Y-82409518D01*
X127529109Y-82409523D01*
X127409523Y-82529109D01*
X127409518Y-82529115D01*
X127319547Y-82672302D01*
X127319545Y-82672305D01*
X127263685Y-82831943D01*
X127244751Y-82999997D01*
X127244751Y-83000002D01*
X126755249Y-83000002D01*
X126755249Y-82999997D01*
X126736314Y-82831943D01*
X126680454Y-82672305D01*
X126680452Y-82672302D01*
X126590481Y-82529115D01*
X126590476Y-82529109D01*
X126470890Y-82409523D01*
X126470884Y-82409518D01*
X126327697Y-82319547D01*
X126327694Y-82319545D01*
X126168056Y-82263685D01*
X126000003Y-82244751D01*
X125999997Y-82244751D01*
X125831943Y-82263685D01*
X125672305Y-82319545D01*
X125672302Y-82319547D01*
X125529115Y-82409518D01*
X125529109Y-82409523D01*
X125409523Y-82529109D01*
X125409518Y-82529115D01*
X125319547Y-82672302D01*
X125319545Y-82672305D01*
X125263685Y-82831943D01*
X125244751Y-82999997D01*
X125244751Y-83000002D01*
X124755249Y-83000002D01*
X124755249Y-82999997D01*
X124736314Y-82831943D01*
X124680454Y-82672305D01*
X124680452Y-82672302D01*
X124590481Y-82529115D01*
X124590476Y-82529109D01*
X124470890Y-82409523D01*
X124470884Y-82409518D01*
X124327697Y-82319547D01*
X124327694Y-82319545D01*
X124168056Y-82263685D01*
X124000003Y-82244751D01*
X123999997Y-82244751D01*
X123831943Y-82263685D01*
X123672305Y-82319545D01*
X123672302Y-82319547D01*
X123529115Y-82409518D01*
X123529109Y-82409523D01*
X123409523Y-82529109D01*
X123409518Y-82529115D01*
X123319547Y-82672302D01*
X123319545Y-82672305D01*
X123263685Y-82831943D01*
X123244751Y-82999997D01*
X123244751Y-83000002D01*
X122755249Y-83000002D01*
X122755249Y-82999997D01*
X122736314Y-82831943D01*
X122680454Y-82672305D01*
X122680452Y-82672302D01*
X122590481Y-82529115D01*
X122590476Y-82529109D01*
X122470890Y-82409523D01*
X122470884Y-82409518D01*
X122327697Y-82319547D01*
X122327694Y-82319545D01*
X122168056Y-82263685D01*
X122000003Y-82244751D01*
X121999997Y-82244751D01*
X121831943Y-82263685D01*
X121672305Y-82319545D01*
X121672302Y-82319547D01*
X121529115Y-82409518D01*
X121529109Y-82409523D01*
X121409523Y-82529109D01*
X121409518Y-82529115D01*
X121319547Y-82672302D01*
X121319545Y-82672305D01*
X121263685Y-82831943D01*
X121244751Y-82999997D01*
X121244751Y-83000002D01*
X120755249Y-83000002D01*
X120755249Y-82999997D01*
X120736314Y-82831943D01*
X120680454Y-82672305D01*
X120680452Y-82672302D01*
X120590481Y-82529115D01*
X120590476Y-82529109D01*
X120470890Y-82409523D01*
X120470884Y-82409518D01*
X120327697Y-82319547D01*
X120327694Y-82319545D01*
X120168056Y-82263685D01*
X120000003Y-82244751D01*
X119999997Y-82244751D01*
X119831943Y-82263685D01*
X119672305Y-82319545D01*
X119672302Y-82319547D01*
X119529115Y-82409518D01*
X119529109Y-82409523D01*
X119409523Y-82529109D01*
X119409518Y-82529115D01*
X119319547Y-82672302D01*
X119319545Y-82672305D01*
X119263685Y-82831943D01*
X119244751Y-82999997D01*
X119244751Y-83000002D01*
X118755249Y-83000002D01*
X118755249Y-82999997D01*
X118736314Y-82831943D01*
X118680454Y-82672305D01*
X118680452Y-82672302D01*
X118590481Y-82529115D01*
X118590476Y-82529109D01*
X118470890Y-82409523D01*
X118470884Y-82409518D01*
X118327697Y-82319547D01*
X118327694Y-82319545D01*
X118168056Y-82263685D01*
X118000003Y-82244751D01*
X117999997Y-82244751D01*
X117831943Y-82263685D01*
X117672305Y-82319545D01*
X117672302Y-82319547D01*
X117529115Y-82409518D01*
X117529109Y-82409523D01*
X117409523Y-82529109D01*
X117409518Y-82529115D01*
X117319547Y-82672302D01*
X117319545Y-82672305D01*
X117263685Y-82831943D01*
X117244751Y-82999997D01*
X117244751Y-83000002D01*
X116755249Y-83000002D01*
X116755249Y-82999997D01*
X116736314Y-82831943D01*
X116680454Y-82672305D01*
X116680452Y-82672302D01*
X116590481Y-82529115D01*
X116590476Y-82529109D01*
X116470890Y-82409523D01*
X116470884Y-82409518D01*
X116327697Y-82319547D01*
X116327694Y-82319545D01*
X116168056Y-82263685D01*
X116000003Y-82244751D01*
X115999997Y-82244751D01*
X115831943Y-82263685D01*
X115672305Y-82319545D01*
X115672302Y-82319547D01*
X115529115Y-82409518D01*
X115529109Y-82409523D01*
X115409523Y-82529109D01*
X115409518Y-82529115D01*
X115319547Y-82672302D01*
X115319545Y-82672305D01*
X115263685Y-82831943D01*
X115244751Y-82999997D01*
X115244751Y-83000002D01*
X98646900Y-83000002D01*
X98655278Y-82931000D01*
X98643251Y-82831943D01*
X98636237Y-82774181D01*
X98590922Y-82654696D01*
X98580220Y-82626477D01*
X98490483Y-82496470D01*
X98372240Y-82391717D01*
X98372238Y-82391716D01*
X98372237Y-82391715D01*
X98232365Y-82318303D01*
X98078986Y-82280500D01*
X98078985Y-82280500D01*
X97921015Y-82280500D01*
X97921014Y-82280500D01*
X97767634Y-82318303D01*
X97627762Y-82391715D01*
X97509516Y-82496471D01*
X97419781Y-82626475D01*
X97419780Y-82626476D01*
X97363762Y-82774181D01*
X97344722Y-82930999D01*
X97344722Y-82931000D01*
X95651514Y-82931000D01*
X95655278Y-82900000D01*
X95655244Y-82899715D01*
X95636237Y-82743181D01*
X95602679Y-82654696D01*
X95580220Y-82595477D01*
X95493912Y-82470438D01*
X95472030Y-82404086D01*
X95489495Y-82336434D01*
X95493905Y-82329571D01*
X95580220Y-82204523D01*
X95636237Y-82056818D01*
X95655278Y-81900000D01*
X95651700Y-81870528D01*
X95636237Y-81743181D01*
X95612447Y-81680452D01*
X95580220Y-81595477D01*
X95493912Y-81470438D01*
X95482555Y-81436000D01*
X99908722Y-81436000D01*
X99927762Y-81592818D01*
X99973921Y-81714528D01*
X99983780Y-81740523D01*
X100073517Y-81870530D01*
X100191760Y-81975283D01*
X100191762Y-81975284D01*
X100331634Y-82048696D01*
X100485014Y-82086500D01*
X100485015Y-82086500D01*
X100642985Y-82086500D01*
X100796365Y-82048696D01*
X100813783Y-82039554D01*
X100936240Y-81975283D01*
X101054483Y-81870530D01*
X101144220Y-81740523D01*
X101200237Y-81592818D01*
X101219278Y-81436000D01*
X101206958Y-81334530D01*
X101200237Y-81279181D01*
X101171923Y-81204523D01*
X101144220Y-81131477D01*
X101054483Y-81001470D01*
X101052826Y-81000002D01*
X115244751Y-81000002D01*
X115263685Y-81168056D01*
X115319545Y-81327694D01*
X115319547Y-81327697D01*
X115409518Y-81470884D01*
X115409523Y-81470890D01*
X115529109Y-81590476D01*
X115529115Y-81590481D01*
X115672302Y-81680452D01*
X115672305Y-81680454D01*
X115672309Y-81680455D01*
X115672310Y-81680456D01*
X115744913Y-81705860D01*
X115831943Y-81736314D01*
X115999997Y-81755249D01*
X116000000Y-81755249D01*
X116000003Y-81755249D01*
X116168056Y-81736314D01*
X116168059Y-81736313D01*
X116327690Y-81680456D01*
X116327692Y-81680454D01*
X116327694Y-81680454D01*
X116327697Y-81680452D01*
X116470884Y-81590481D01*
X116470885Y-81590480D01*
X116470890Y-81590477D01*
X116590477Y-81470890D01*
X116612401Y-81435999D01*
X116680452Y-81327697D01*
X116680454Y-81327694D01*
X116680454Y-81327692D01*
X116680456Y-81327690D01*
X116736313Y-81168059D01*
X116736313Y-81168058D01*
X116736314Y-81168056D01*
X116755249Y-81000002D01*
X117244751Y-81000002D01*
X117263685Y-81168056D01*
X117319545Y-81327694D01*
X117319547Y-81327697D01*
X117409518Y-81470884D01*
X117409523Y-81470890D01*
X117529109Y-81590476D01*
X117529115Y-81590481D01*
X117672302Y-81680452D01*
X117672305Y-81680454D01*
X117672309Y-81680455D01*
X117672310Y-81680456D01*
X117744913Y-81705860D01*
X117831943Y-81736314D01*
X117999997Y-81755249D01*
X118000000Y-81755249D01*
X118000003Y-81755249D01*
X118168056Y-81736314D01*
X118168059Y-81736313D01*
X118327690Y-81680456D01*
X118327692Y-81680454D01*
X118327694Y-81680454D01*
X118327697Y-81680452D01*
X118470884Y-81590481D01*
X118470885Y-81590480D01*
X118470890Y-81590477D01*
X118590477Y-81470890D01*
X118612401Y-81435999D01*
X118680452Y-81327697D01*
X118680454Y-81327694D01*
X118680454Y-81327692D01*
X118680456Y-81327690D01*
X118736313Y-81168059D01*
X118736313Y-81168058D01*
X118736314Y-81168056D01*
X118755249Y-81000002D01*
X119244751Y-81000002D01*
X119263685Y-81168056D01*
X119319545Y-81327694D01*
X119319547Y-81327697D01*
X119409518Y-81470884D01*
X119409523Y-81470890D01*
X119529109Y-81590476D01*
X119529115Y-81590481D01*
X119672302Y-81680452D01*
X119672305Y-81680454D01*
X119672309Y-81680455D01*
X119672310Y-81680456D01*
X119744913Y-81705860D01*
X119831943Y-81736314D01*
X119999997Y-81755249D01*
X120000000Y-81755249D01*
X120000003Y-81755249D01*
X120168056Y-81736314D01*
X120168059Y-81736313D01*
X120327690Y-81680456D01*
X120327692Y-81680454D01*
X120327694Y-81680454D01*
X120327697Y-81680452D01*
X120470884Y-81590481D01*
X120470885Y-81590480D01*
X120470890Y-81590477D01*
X120590477Y-81470890D01*
X120612401Y-81435999D01*
X120680452Y-81327697D01*
X120680454Y-81327694D01*
X120680454Y-81327692D01*
X120680456Y-81327690D01*
X120736313Y-81168059D01*
X120736313Y-81168058D01*
X120736314Y-81168056D01*
X120755249Y-81000002D01*
X121244751Y-81000002D01*
X121263685Y-81168056D01*
X121319545Y-81327694D01*
X121319547Y-81327697D01*
X121409518Y-81470884D01*
X121409523Y-81470890D01*
X121529109Y-81590476D01*
X121529115Y-81590481D01*
X121672302Y-81680452D01*
X121672305Y-81680454D01*
X121672309Y-81680455D01*
X121672310Y-81680456D01*
X121744913Y-81705860D01*
X121831943Y-81736314D01*
X121999997Y-81755249D01*
X122000000Y-81755249D01*
X122000003Y-81755249D01*
X122168056Y-81736314D01*
X122168059Y-81736313D01*
X122327690Y-81680456D01*
X122327692Y-81680454D01*
X122327694Y-81680454D01*
X122327697Y-81680452D01*
X122470884Y-81590481D01*
X122470885Y-81590480D01*
X122470890Y-81590477D01*
X122590477Y-81470890D01*
X122612401Y-81435999D01*
X122680452Y-81327697D01*
X122680454Y-81327694D01*
X122680454Y-81327692D01*
X122680456Y-81327690D01*
X122736313Y-81168059D01*
X122736313Y-81168058D01*
X122736314Y-81168056D01*
X122755249Y-81000002D01*
X123244751Y-81000002D01*
X123263685Y-81168056D01*
X123319545Y-81327694D01*
X123319547Y-81327697D01*
X123409518Y-81470884D01*
X123409523Y-81470890D01*
X123529109Y-81590476D01*
X123529115Y-81590481D01*
X123672302Y-81680452D01*
X123672305Y-81680454D01*
X123672309Y-81680455D01*
X123672310Y-81680456D01*
X123744913Y-81705860D01*
X123831943Y-81736314D01*
X123999997Y-81755249D01*
X124000000Y-81755249D01*
X124000003Y-81755249D01*
X124168056Y-81736314D01*
X124168059Y-81736313D01*
X124327690Y-81680456D01*
X124327692Y-81680454D01*
X124327694Y-81680454D01*
X124327697Y-81680452D01*
X124470884Y-81590481D01*
X124470885Y-81590480D01*
X124470890Y-81590477D01*
X124590477Y-81470890D01*
X124612401Y-81435999D01*
X124680452Y-81327697D01*
X124680454Y-81327694D01*
X124680454Y-81327692D01*
X124680456Y-81327690D01*
X124736313Y-81168059D01*
X124736313Y-81168058D01*
X124736314Y-81168056D01*
X124755249Y-81000002D01*
X125244751Y-81000002D01*
X125263685Y-81168056D01*
X125319545Y-81327694D01*
X125319547Y-81327697D01*
X125409518Y-81470884D01*
X125409523Y-81470890D01*
X125529109Y-81590476D01*
X125529115Y-81590481D01*
X125672302Y-81680452D01*
X125672305Y-81680454D01*
X125672309Y-81680455D01*
X125672310Y-81680456D01*
X125744913Y-81705860D01*
X125831943Y-81736314D01*
X125999997Y-81755249D01*
X126000000Y-81755249D01*
X126000003Y-81755249D01*
X126168056Y-81736314D01*
X126168059Y-81736313D01*
X126327690Y-81680456D01*
X126327692Y-81680454D01*
X126327694Y-81680454D01*
X126327697Y-81680452D01*
X126470884Y-81590481D01*
X126470885Y-81590480D01*
X126470890Y-81590477D01*
X126590477Y-81470890D01*
X126612401Y-81435999D01*
X126680452Y-81327697D01*
X126680454Y-81327694D01*
X126680454Y-81327692D01*
X126680456Y-81327690D01*
X126736313Y-81168059D01*
X126736313Y-81168058D01*
X126736314Y-81168056D01*
X126755249Y-81000002D01*
X127244751Y-81000002D01*
X127263685Y-81168056D01*
X127319545Y-81327694D01*
X127319547Y-81327697D01*
X127409518Y-81470884D01*
X127409523Y-81470890D01*
X127529109Y-81590476D01*
X127529115Y-81590481D01*
X127672302Y-81680452D01*
X127672305Y-81680454D01*
X127672309Y-81680455D01*
X127672310Y-81680456D01*
X127744913Y-81705860D01*
X127831943Y-81736314D01*
X127999997Y-81755249D01*
X128000000Y-81755249D01*
X128000003Y-81755249D01*
X128168056Y-81736314D01*
X128168059Y-81736313D01*
X128327690Y-81680456D01*
X128327692Y-81680454D01*
X128327694Y-81680454D01*
X128327697Y-81680452D01*
X128470884Y-81590481D01*
X128470885Y-81590480D01*
X128470890Y-81590477D01*
X128590477Y-81470890D01*
X128612401Y-81435999D01*
X128680452Y-81327697D01*
X128680454Y-81327694D01*
X128680454Y-81327692D01*
X128680456Y-81327690D01*
X128736313Y-81168059D01*
X128736313Y-81168058D01*
X128736314Y-81168056D01*
X128755249Y-81000002D01*
X129244751Y-81000002D01*
X129263685Y-81168056D01*
X129319545Y-81327694D01*
X129319547Y-81327697D01*
X129409518Y-81470884D01*
X129409523Y-81470890D01*
X129529109Y-81590476D01*
X129529115Y-81590481D01*
X129672302Y-81680452D01*
X129672305Y-81680454D01*
X129672309Y-81680455D01*
X129672310Y-81680456D01*
X129744913Y-81705860D01*
X129831943Y-81736314D01*
X129999997Y-81755249D01*
X130000000Y-81755249D01*
X130000003Y-81755249D01*
X130168056Y-81736314D01*
X130168059Y-81736313D01*
X130327690Y-81680456D01*
X130327692Y-81680454D01*
X130327694Y-81680454D01*
X130327697Y-81680452D01*
X130470884Y-81590481D01*
X130470885Y-81590480D01*
X130470890Y-81590477D01*
X130590477Y-81470890D01*
X130612401Y-81435999D01*
X130680452Y-81327697D01*
X130680454Y-81327694D01*
X130680454Y-81327692D01*
X130680456Y-81327690D01*
X130736313Y-81168059D01*
X130736313Y-81168058D01*
X130736314Y-81168056D01*
X130755249Y-81000002D01*
X131244751Y-81000002D01*
X131263685Y-81168056D01*
X131319545Y-81327694D01*
X131319547Y-81327697D01*
X131409518Y-81470884D01*
X131409523Y-81470890D01*
X131529109Y-81590476D01*
X131529115Y-81590481D01*
X131672302Y-81680452D01*
X131672305Y-81680454D01*
X131672309Y-81680455D01*
X131672310Y-81680456D01*
X131744913Y-81705860D01*
X131831943Y-81736314D01*
X131999997Y-81755249D01*
X132000000Y-81755249D01*
X132000003Y-81755249D01*
X132168056Y-81736314D01*
X132168059Y-81736313D01*
X132327690Y-81680456D01*
X132327692Y-81680454D01*
X132327694Y-81680454D01*
X132327697Y-81680452D01*
X132470884Y-81590481D01*
X132470885Y-81590480D01*
X132470890Y-81590477D01*
X132590477Y-81470890D01*
X132612401Y-81435999D01*
X132680452Y-81327697D01*
X132680454Y-81327694D01*
X132680454Y-81327692D01*
X132680456Y-81327690D01*
X132736313Y-81168059D01*
X132736313Y-81168058D01*
X132736314Y-81168056D01*
X132755249Y-81000002D01*
X132755249Y-80999997D01*
X132736314Y-80831943D01*
X132680454Y-80672305D01*
X132680452Y-80672302D01*
X132590481Y-80529115D01*
X132590476Y-80529109D01*
X132470890Y-80409523D01*
X132470884Y-80409518D01*
X132327697Y-80319547D01*
X132327694Y-80319545D01*
X132168056Y-80263685D01*
X132000003Y-80244751D01*
X131999997Y-80244751D01*
X131831943Y-80263685D01*
X131672305Y-80319545D01*
X131672302Y-80319547D01*
X131529115Y-80409518D01*
X131529109Y-80409523D01*
X131409523Y-80529109D01*
X131409518Y-80529115D01*
X131319547Y-80672302D01*
X131319545Y-80672305D01*
X131263685Y-80831943D01*
X131244751Y-80999997D01*
X131244751Y-81000002D01*
X130755249Y-81000002D01*
X130755249Y-80999997D01*
X130736314Y-80831943D01*
X130680454Y-80672305D01*
X130680452Y-80672302D01*
X130590481Y-80529115D01*
X130590476Y-80529109D01*
X130470890Y-80409523D01*
X130470884Y-80409518D01*
X130327697Y-80319547D01*
X130327694Y-80319545D01*
X130168056Y-80263685D01*
X130000003Y-80244751D01*
X129999997Y-80244751D01*
X129831943Y-80263685D01*
X129672305Y-80319545D01*
X129672302Y-80319547D01*
X129529115Y-80409518D01*
X129529109Y-80409523D01*
X129409523Y-80529109D01*
X129409518Y-80529115D01*
X129319547Y-80672302D01*
X129319545Y-80672305D01*
X129263685Y-80831943D01*
X129244751Y-80999997D01*
X129244751Y-81000002D01*
X128755249Y-81000002D01*
X128755249Y-80999997D01*
X128736314Y-80831943D01*
X128680454Y-80672305D01*
X128680452Y-80672302D01*
X128590481Y-80529115D01*
X128590476Y-80529109D01*
X128470890Y-80409523D01*
X128470884Y-80409518D01*
X128327697Y-80319547D01*
X128327694Y-80319545D01*
X128168056Y-80263685D01*
X128000003Y-80244751D01*
X127999997Y-80244751D01*
X127831943Y-80263685D01*
X127672305Y-80319545D01*
X127672302Y-80319547D01*
X127529115Y-80409518D01*
X127529109Y-80409523D01*
X127409523Y-80529109D01*
X127409518Y-80529115D01*
X127319547Y-80672302D01*
X127319545Y-80672305D01*
X127263685Y-80831943D01*
X127244751Y-80999997D01*
X127244751Y-81000002D01*
X126755249Y-81000002D01*
X126755249Y-80999997D01*
X126736314Y-80831943D01*
X126680454Y-80672305D01*
X126680452Y-80672302D01*
X126590481Y-80529115D01*
X126590476Y-80529109D01*
X126470890Y-80409523D01*
X126470884Y-80409518D01*
X126327697Y-80319547D01*
X126327694Y-80319545D01*
X126168056Y-80263685D01*
X126000003Y-80244751D01*
X125999997Y-80244751D01*
X125831943Y-80263685D01*
X125672305Y-80319545D01*
X125672302Y-80319547D01*
X125529115Y-80409518D01*
X125529109Y-80409523D01*
X125409523Y-80529109D01*
X125409518Y-80529115D01*
X125319547Y-80672302D01*
X125319545Y-80672305D01*
X125263685Y-80831943D01*
X125244751Y-80999997D01*
X125244751Y-81000002D01*
X124755249Y-81000002D01*
X124755249Y-80999997D01*
X124736314Y-80831943D01*
X124680454Y-80672305D01*
X124680452Y-80672302D01*
X124590481Y-80529115D01*
X124590476Y-80529109D01*
X124470890Y-80409523D01*
X124470884Y-80409518D01*
X124327697Y-80319547D01*
X124327694Y-80319545D01*
X124168056Y-80263685D01*
X124000003Y-80244751D01*
X123999997Y-80244751D01*
X123831943Y-80263685D01*
X123672305Y-80319545D01*
X123672302Y-80319547D01*
X123529115Y-80409518D01*
X123529109Y-80409523D01*
X123409523Y-80529109D01*
X123409518Y-80529115D01*
X123319547Y-80672302D01*
X123319545Y-80672305D01*
X123263685Y-80831943D01*
X123244751Y-80999997D01*
X123244751Y-81000002D01*
X122755249Y-81000002D01*
X122755249Y-80999997D01*
X122736314Y-80831943D01*
X122680454Y-80672305D01*
X122680452Y-80672302D01*
X122590481Y-80529115D01*
X122590476Y-80529109D01*
X122470890Y-80409523D01*
X122470884Y-80409518D01*
X122327697Y-80319547D01*
X122327694Y-80319545D01*
X122168056Y-80263685D01*
X122000003Y-80244751D01*
X121999997Y-80244751D01*
X121831943Y-80263685D01*
X121672305Y-80319545D01*
X121672302Y-80319547D01*
X121529115Y-80409518D01*
X121529109Y-80409523D01*
X121409523Y-80529109D01*
X121409518Y-80529115D01*
X121319547Y-80672302D01*
X121319545Y-80672305D01*
X121263685Y-80831943D01*
X121244751Y-80999997D01*
X121244751Y-81000002D01*
X120755249Y-81000002D01*
X120755249Y-80999997D01*
X120736314Y-80831943D01*
X120680454Y-80672305D01*
X120680452Y-80672302D01*
X120590481Y-80529115D01*
X120590476Y-80529109D01*
X120470890Y-80409523D01*
X120470884Y-80409518D01*
X120327697Y-80319547D01*
X120327694Y-80319545D01*
X120168056Y-80263685D01*
X120000003Y-80244751D01*
X119999997Y-80244751D01*
X119831943Y-80263685D01*
X119672305Y-80319545D01*
X119672302Y-80319547D01*
X119529115Y-80409518D01*
X119529109Y-80409523D01*
X119409523Y-80529109D01*
X119409518Y-80529115D01*
X119319547Y-80672302D01*
X119319545Y-80672305D01*
X119263685Y-80831943D01*
X119244751Y-80999997D01*
X119244751Y-81000002D01*
X118755249Y-81000002D01*
X118755249Y-80999997D01*
X118736314Y-80831943D01*
X118680454Y-80672305D01*
X118680452Y-80672302D01*
X118590481Y-80529115D01*
X118590476Y-80529109D01*
X118470890Y-80409523D01*
X118470884Y-80409518D01*
X118327697Y-80319547D01*
X118327694Y-80319545D01*
X118168056Y-80263685D01*
X118000003Y-80244751D01*
X117999997Y-80244751D01*
X117831943Y-80263685D01*
X117672305Y-80319545D01*
X117672302Y-80319547D01*
X117529115Y-80409518D01*
X117529109Y-80409523D01*
X117409523Y-80529109D01*
X117409518Y-80529115D01*
X117319547Y-80672302D01*
X117319545Y-80672305D01*
X117263685Y-80831943D01*
X117244751Y-80999997D01*
X117244751Y-81000002D01*
X116755249Y-81000002D01*
X116755249Y-80999997D01*
X116736314Y-80831943D01*
X116680454Y-80672305D01*
X116680452Y-80672302D01*
X116590481Y-80529115D01*
X116590476Y-80529109D01*
X116470890Y-80409523D01*
X116470884Y-80409518D01*
X116327697Y-80319547D01*
X116327694Y-80319545D01*
X116168056Y-80263685D01*
X116000003Y-80244751D01*
X115999997Y-80244751D01*
X115831943Y-80263685D01*
X115672305Y-80319545D01*
X115672302Y-80319547D01*
X115529115Y-80409518D01*
X115529109Y-80409523D01*
X115409523Y-80529109D01*
X115409518Y-80529115D01*
X115319547Y-80672302D01*
X115319545Y-80672305D01*
X115263685Y-80831943D01*
X115244751Y-80999997D01*
X115244751Y-81000002D01*
X101052826Y-81000002D01*
X100936240Y-80896717D01*
X100936238Y-80896716D01*
X100936237Y-80896715D01*
X100796365Y-80823303D01*
X100642986Y-80785500D01*
X100642985Y-80785500D01*
X100485015Y-80785500D01*
X100485014Y-80785500D01*
X100331634Y-80823303D01*
X100191762Y-80896715D01*
X100191759Y-80896717D01*
X100191760Y-80896717D01*
X100102859Y-80975476D01*
X100073516Y-81001471D01*
X99983781Y-81131475D01*
X99983780Y-81131476D01*
X99927762Y-81279181D01*
X99908722Y-81435999D01*
X99908722Y-81436000D01*
X95482555Y-81436000D01*
X95472030Y-81404086D01*
X95489495Y-81336434D01*
X95493905Y-81329571D01*
X95580220Y-81204523D01*
X95636237Y-81056818D01*
X95655278Y-80900000D01*
X95652449Y-80876696D01*
X95636237Y-80743181D01*
X95591993Y-80626520D01*
X95580220Y-80595477D01*
X95490483Y-80465470D01*
X95372240Y-80360717D01*
X95372238Y-80360716D01*
X95372237Y-80360715D01*
X95232365Y-80287303D01*
X95078986Y-80249500D01*
X95078985Y-80249500D01*
X94921015Y-80249500D01*
X94921014Y-80249500D01*
X94767634Y-80287303D01*
X94627761Y-80360715D01*
X94627759Y-80360717D01*
X94582226Y-80401055D01*
X94518992Y-80430776D01*
X94449729Y-80421592D01*
X94417774Y-80401055D01*
X94372240Y-80360717D01*
X94372238Y-80360715D01*
X94232365Y-80287303D01*
X94078986Y-80249500D01*
X94078985Y-80249500D01*
X93921015Y-80249500D01*
X93921014Y-80249500D01*
X93767634Y-80287303D01*
X93627761Y-80360715D01*
X93627759Y-80360717D01*
X93582224Y-80401056D01*
X93518990Y-80430776D01*
X93449727Y-80421591D01*
X93417774Y-80401056D01*
X93372240Y-80360717D01*
X93372237Y-80360714D01*
X93232365Y-80287303D01*
X93078986Y-80249500D01*
X93078985Y-80249500D01*
X92921015Y-80249500D01*
X92921014Y-80249500D01*
X92767634Y-80287303D01*
X92627761Y-80360715D01*
X92627759Y-80360717D01*
X92582226Y-80401055D01*
X92518992Y-80430776D01*
X92449729Y-80421592D01*
X92417774Y-80401055D01*
X92372240Y-80360717D01*
X92372238Y-80360715D01*
X92232365Y-80287303D01*
X92078986Y-80249500D01*
X92078985Y-80249500D01*
X91921015Y-80249500D01*
X91921014Y-80249500D01*
X91767634Y-80287303D01*
X91627762Y-80360715D01*
X91627759Y-80360717D01*
X91627760Y-80360717D01*
X91513965Y-80461530D01*
X91509516Y-80465471D01*
X91419781Y-80595475D01*
X91419780Y-80595476D01*
X91363762Y-80743181D01*
X91344722Y-80899999D01*
X91344722Y-80900000D01*
X91363762Y-81056818D01*
X91419780Y-81204523D01*
X91419781Y-81204524D01*
X91506086Y-81329560D01*
X91527969Y-81395915D01*
X91510503Y-81463566D01*
X91506086Y-81470440D01*
X91419781Y-81595475D01*
X91419780Y-81595476D01*
X91363762Y-81743181D01*
X91344722Y-81899999D01*
X91344722Y-81900000D01*
X91363762Y-82056818D01*
X91419780Y-82204523D01*
X91419781Y-82204524D01*
X91506086Y-82329560D01*
X91527969Y-82395915D01*
X91510503Y-82463566D01*
X91506086Y-82470440D01*
X91419781Y-82595475D01*
X91419780Y-82595476D01*
X91363762Y-82743181D01*
X91344722Y-82899999D01*
X91344722Y-82900000D01*
X91363762Y-83056818D01*
X91419780Y-83204523D01*
X91419781Y-83204524D01*
X91506086Y-83329560D01*
X91527969Y-83395915D01*
X91510503Y-83463566D01*
X91506086Y-83470440D01*
X91419781Y-83595475D01*
X91419780Y-83595476D01*
X91363762Y-83743181D01*
X91344722Y-83899999D01*
X91344722Y-83900000D01*
X91363762Y-84056818D01*
X91419779Y-84204521D01*
X91419780Y-84204523D01*
X91495391Y-84314065D01*
X91506086Y-84329559D01*
X91527969Y-84395913D01*
X91510504Y-84463565D01*
X91506087Y-84470438D01*
X91419780Y-84595476D01*
X91363762Y-84743181D01*
X91344722Y-84899999D01*
X91344722Y-84900000D01*
X72941288Y-84900000D01*
X72941290Y-84899999D01*
X73030175Y-84853348D01*
X73148418Y-84748595D01*
X73238155Y-84618588D01*
X73294172Y-84470883D01*
X73313213Y-84314065D01*
X73299913Y-84204524D01*
X73294172Y-84157246D01*
X73243709Y-84024187D01*
X73238155Y-84009542D01*
X73148418Y-83879535D01*
X73030175Y-83774782D01*
X73030173Y-83774781D01*
X73030172Y-83774780D01*
X72890300Y-83701368D01*
X72736921Y-83663565D01*
X72736920Y-83663565D01*
X72578950Y-83663565D01*
X72578949Y-83663565D01*
X72425569Y-83701368D01*
X72285696Y-83774780D01*
X72285694Y-83774782D01*
X72173222Y-83874422D01*
X72109989Y-83904143D01*
X72040726Y-83894959D01*
X71987423Y-83849786D01*
X71971639Y-83806732D01*
X71970094Y-83807113D01*
X71968299Y-83799830D01*
X71923025Y-83680454D01*
X71912282Y-83652126D01*
X71822545Y-83522119D01*
X71704302Y-83417366D01*
X71704300Y-83417365D01*
X71704299Y-83417364D01*
X71564427Y-83343952D01*
X71411048Y-83306149D01*
X71411047Y-83306149D01*
X71253077Y-83306149D01*
X71253076Y-83306149D01*
X71099696Y-83343952D01*
X71099695Y-83343953D01*
X71047280Y-83371462D01*
X70978772Y-83385186D01*
X70913719Y-83359693D01*
X70872775Y-83303077D01*
X70869550Y-83289336D01*
X70869032Y-83289464D01*
X70867237Y-83282181D01*
X70823956Y-83168059D01*
X70811220Y-83134477D01*
X70721483Y-83004470D01*
X70603240Y-82899717D01*
X70603238Y-82899716D01*
X70603237Y-82899715D01*
X70463365Y-82826303D01*
X70309986Y-82788500D01*
X70309985Y-82788500D01*
X70152015Y-82788500D01*
X70152014Y-82788500D01*
X69998634Y-82826303D01*
X69858762Y-82899715D01*
X69740516Y-83004471D01*
X69650781Y-83134475D01*
X69650780Y-83134476D01*
X69594762Y-83282181D01*
X69575722Y-83438999D01*
X69575722Y-83439000D01*
X56750500Y-83439000D01*
X56750500Y-82042000D01*
X77195722Y-82042000D01*
X77214762Y-82198818D01*
X77264347Y-82329560D01*
X77270780Y-82346523D01*
X77360517Y-82476530D01*
X77478760Y-82581283D01*
X77478762Y-82581284D01*
X77618634Y-82654696D01*
X77772014Y-82692500D01*
X77772015Y-82692500D01*
X77929985Y-82692500D01*
X78083365Y-82654696D01*
X78137135Y-82626475D01*
X78185673Y-82601000D01*
X81728222Y-82601000D01*
X81747262Y-82757818D01*
X81801077Y-82899715D01*
X81803280Y-82905523D01*
X81893017Y-83035530D01*
X82011260Y-83140283D01*
X82011262Y-83140284D01*
X82151134Y-83213696D01*
X82304514Y-83251500D01*
X82304515Y-83251500D01*
X82462485Y-83251500D01*
X82615865Y-83213696D01*
X82629989Y-83206283D01*
X82755740Y-83140283D01*
X82873983Y-83035530D01*
X82963720Y-82905523D01*
X83019737Y-82757818D01*
X83038778Y-82601000D01*
X83038108Y-82595477D01*
X83019737Y-82444181D01*
X82982700Y-82346523D01*
X82963720Y-82296477D01*
X82873983Y-82166470D01*
X82755740Y-82061717D01*
X82755738Y-82061716D01*
X82755737Y-82061715D01*
X82615865Y-81988303D01*
X82462486Y-81950500D01*
X82462485Y-81950500D01*
X82304515Y-81950500D01*
X82304514Y-81950500D01*
X82151134Y-81988303D01*
X82011262Y-82061715D01*
X81893016Y-82166471D01*
X81803281Y-82296475D01*
X81803280Y-82296476D01*
X81747262Y-82444181D01*
X81728222Y-82600999D01*
X81728222Y-82601000D01*
X78185673Y-82601000D01*
X78223240Y-82581283D01*
X78341483Y-82476530D01*
X78431220Y-82346523D01*
X78487237Y-82198818D01*
X78506278Y-82042000D01*
X78506278Y-82041999D01*
X78506575Y-82039554D01*
X78534197Y-81975376D01*
X78592131Y-81936319D01*
X78629671Y-81930500D01*
X78691985Y-81930500D01*
X78845365Y-81892696D01*
X78845365Y-81892695D01*
X78985240Y-81819283D01*
X79103483Y-81714530D01*
X79193220Y-81584523D01*
X79249237Y-81436818D01*
X79268278Y-81280000D01*
X79249237Y-81123182D01*
X79249236Y-81123179D01*
X79249236Y-81123178D01*
X79233798Y-81082470D01*
X79228431Y-81012807D01*
X79261579Y-80951301D01*
X79322718Y-80917480D01*
X79349740Y-80914500D01*
X79453985Y-80914500D01*
X79607365Y-80876696D01*
X79607364Y-80876695D01*
X79747240Y-80803283D01*
X79865483Y-80698530D01*
X79955220Y-80568523D01*
X80011237Y-80420818D01*
X80030278Y-80264000D01*
X80028518Y-80249500D01*
X80011237Y-80107181D01*
X79989992Y-80051164D01*
X79955220Y-79959477D01*
X79865483Y-79829470D01*
X79747240Y-79724717D01*
X79747238Y-79724716D01*
X79747237Y-79724715D01*
X79607365Y-79651303D01*
X79453986Y-79613500D01*
X79453985Y-79613500D01*
X79296015Y-79613500D01*
X79296014Y-79613500D01*
X79142634Y-79651303D01*
X79002762Y-79724715D01*
X78884516Y-79829471D01*
X78794781Y-79959475D01*
X78794780Y-79959476D01*
X78738762Y-80107181D01*
X78719722Y-80263999D01*
X78719722Y-80264000D01*
X78738763Y-80420819D01*
X78738763Y-80420821D01*
X78754202Y-80461530D01*
X78759569Y-80531193D01*
X78726421Y-80592699D01*
X78665282Y-80626520D01*
X78638260Y-80629500D01*
X78534014Y-80629500D01*
X78380634Y-80667303D01*
X78240762Y-80740715D01*
X78122516Y-80845471D01*
X78032781Y-80975475D01*
X78032780Y-80975476D01*
X77976762Y-81123181D01*
X77957425Y-81282446D01*
X77929803Y-81346624D01*
X77871869Y-81385681D01*
X77834329Y-81391500D01*
X77772014Y-81391500D01*
X77618634Y-81429303D01*
X77478762Y-81502715D01*
X77478759Y-81502717D01*
X77478760Y-81502717D01*
X77374055Y-81595477D01*
X77360516Y-81607471D01*
X77270781Y-81737475D01*
X77270780Y-81737476D01*
X77214762Y-81885181D01*
X77195722Y-82041999D01*
X77195722Y-82042000D01*
X56750500Y-82042000D01*
X56750500Y-79121000D01*
X74655722Y-79121000D01*
X74674762Y-79277818D01*
X74704285Y-79355662D01*
X74730780Y-79425523D01*
X74820517Y-79555530D01*
X74938760Y-79660283D01*
X74938762Y-79660284D01*
X75078634Y-79733696D01*
X75232014Y-79771500D01*
X75232015Y-79771500D01*
X75389985Y-79771500D01*
X75543365Y-79733696D01*
X75560477Y-79724715D01*
X75683240Y-79660283D01*
X75801483Y-79555530D01*
X75891220Y-79425523D01*
X75917715Y-79355660D01*
X75959891Y-79299959D01*
X76025488Y-79275901D01*
X76063330Y-79279234D01*
X76096985Y-79287530D01*
X76254955Y-79287530D01*
X76408335Y-79249726D01*
X76448777Y-79228500D01*
X76548210Y-79176313D01*
X76666453Y-79071560D01*
X76756190Y-78941553D01*
X76812207Y-78793848D01*
X76831248Y-78637030D01*
X76824081Y-78578000D01*
X78679444Y-78578000D01*
X78698484Y-78734818D01*
X78753097Y-78878818D01*
X78754502Y-78882523D01*
X78844239Y-79012530D01*
X78962482Y-79117283D01*
X78962484Y-79117284D01*
X79102356Y-79190696D01*
X79255736Y-79228500D01*
X79255737Y-79228500D01*
X79413707Y-79228500D01*
X79567087Y-79190696D01*
X79594491Y-79176313D01*
X79706962Y-79117283D01*
X79825205Y-79012530D01*
X79914942Y-78882523D01*
X79970959Y-78734818D01*
X79972515Y-78722000D01*
X82910722Y-78722000D01*
X82929762Y-78878818D01*
X82962137Y-78964182D01*
X82985780Y-79026523D01*
X83075517Y-79156530D01*
X83193760Y-79261283D01*
X83193762Y-79261284D01*
X83333634Y-79334696D01*
X83487014Y-79372500D01*
X83487015Y-79372500D01*
X83644985Y-79372500D01*
X83798365Y-79334696D01*
X83811714Y-79327690D01*
X83938240Y-79261283D01*
X84056483Y-79156530D01*
X84146220Y-79026523D01*
X84202237Y-78878818D01*
X84221278Y-78722000D01*
X84204245Y-78581715D01*
X84202237Y-78565181D01*
X84179941Y-78506392D01*
X84174574Y-78436729D01*
X84207721Y-78375223D01*
X84268859Y-78341401D01*
X84338577Y-78346003D01*
X84349436Y-78350819D01*
X84351712Y-78351682D01*
X84505092Y-78389486D01*
X84505093Y-78389486D01*
X84663063Y-78389486D01*
X84816443Y-78351682D01*
X84956316Y-78278270D01*
X84956315Y-78278270D01*
X84956318Y-78278269D01*
X85013452Y-78227652D01*
X85076685Y-78197931D01*
X85145948Y-78207115D01*
X85199252Y-78252287D01*
X85219672Y-78319106D01*
X85218775Y-78335414D01*
X85200532Y-78485664D01*
X85200532Y-78485665D01*
X85219572Y-78642483D01*
X85254591Y-78734818D01*
X85275590Y-78790188D01*
X85365327Y-78920195D01*
X85483570Y-79024948D01*
X85483572Y-79024949D01*
X85623444Y-79098361D01*
X85776824Y-79136165D01*
X85776825Y-79136165D01*
X85934795Y-79136165D01*
X86088175Y-79098361D01*
X86139243Y-79071558D01*
X86228050Y-79024948D01*
X86256209Y-79000002D01*
X115244751Y-79000002D01*
X115263685Y-79168056D01*
X115319545Y-79327694D01*
X115319547Y-79327697D01*
X115409518Y-79470884D01*
X115409523Y-79470890D01*
X115529109Y-79590476D01*
X115529115Y-79590481D01*
X115672302Y-79680452D01*
X115672305Y-79680454D01*
X115672309Y-79680455D01*
X115672310Y-79680456D01*
X115744913Y-79705860D01*
X115831943Y-79736314D01*
X115999997Y-79755249D01*
X116000000Y-79755249D01*
X116000003Y-79755249D01*
X116168056Y-79736314D01*
X116175538Y-79733696D01*
X116327690Y-79680456D01*
X116327692Y-79680454D01*
X116327694Y-79680454D01*
X116327697Y-79680452D01*
X116470884Y-79590481D01*
X116470885Y-79590480D01*
X116470890Y-79590477D01*
X116590477Y-79470890D01*
X116590481Y-79470884D01*
X116680452Y-79327697D01*
X116680454Y-79327694D01*
X116680454Y-79327692D01*
X116680456Y-79327690D01*
X116736313Y-79168059D01*
X116736313Y-79168058D01*
X116736314Y-79168056D01*
X116755249Y-79000002D01*
X117244751Y-79000002D01*
X117263685Y-79168056D01*
X117319545Y-79327694D01*
X117319547Y-79327697D01*
X117409518Y-79470884D01*
X117409523Y-79470890D01*
X117529109Y-79590476D01*
X117529115Y-79590481D01*
X117672302Y-79680452D01*
X117672305Y-79680454D01*
X117672309Y-79680455D01*
X117672310Y-79680456D01*
X117744913Y-79705860D01*
X117831943Y-79736314D01*
X117999997Y-79755249D01*
X118000000Y-79755249D01*
X118000003Y-79755249D01*
X118168056Y-79736314D01*
X118175538Y-79733696D01*
X118327690Y-79680456D01*
X118327692Y-79680454D01*
X118327694Y-79680454D01*
X118327697Y-79680452D01*
X118470884Y-79590481D01*
X118470885Y-79590480D01*
X118470890Y-79590477D01*
X118590477Y-79470890D01*
X118590481Y-79470884D01*
X118680452Y-79327697D01*
X118680454Y-79327694D01*
X118680454Y-79327692D01*
X118680456Y-79327690D01*
X118736313Y-79168059D01*
X118736313Y-79168058D01*
X118736314Y-79168056D01*
X118755249Y-79000002D01*
X119244751Y-79000002D01*
X119263685Y-79168056D01*
X119319545Y-79327694D01*
X119319547Y-79327697D01*
X119409518Y-79470884D01*
X119409523Y-79470890D01*
X119529109Y-79590476D01*
X119529115Y-79590481D01*
X119672302Y-79680452D01*
X119672305Y-79680454D01*
X119672309Y-79680455D01*
X119672310Y-79680456D01*
X119744913Y-79705860D01*
X119831943Y-79736314D01*
X119999997Y-79755249D01*
X120000000Y-79755249D01*
X120000003Y-79755249D01*
X120168056Y-79736314D01*
X120175538Y-79733696D01*
X120327690Y-79680456D01*
X120327692Y-79680454D01*
X120327694Y-79680454D01*
X120327697Y-79680452D01*
X120470884Y-79590481D01*
X120470885Y-79590480D01*
X120470890Y-79590477D01*
X120590477Y-79470890D01*
X120590481Y-79470884D01*
X120680452Y-79327697D01*
X120680454Y-79327694D01*
X120680454Y-79327692D01*
X120680456Y-79327690D01*
X120736313Y-79168059D01*
X120736313Y-79168058D01*
X120736314Y-79168056D01*
X120755249Y-79000002D01*
X121244751Y-79000002D01*
X121263685Y-79168056D01*
X121319545Y-79327694D01*
X121319547Y-79327697D01*
X121409518Y-79470884D01*
X121409523Y-79470890D01*
X121529109Y-79590476D01*
X121529115Y-79590481D01*
X121672302Y-79680452D01*
X121672305Y-79680454D01*
X121672309Y-79680455D01*
X121672310Y-79680456D01*
X121744913Y-79705860D01*
X121831943Y-79736314D01*
X121999997Y-79755249D01*
X122000000Y-79755249D01*
X122000003Y-79755249D01*
X122168056Y-79736314D01*
X122175538Y-79733696D01*
X122327690Y-79680456D01*
X122327692Y-79680454D01*
X122327694Y-79680454D01*
X122327697Y-79680452D01*
X122470884Y-79590481D01*
X122470885Y-79590480D01*
X122470890Y-79590477D01*
X122590477Y-79470890D01*
X122590481Y-79470884D01*
X122680452Y-79327697D01*
X122680454Y-79327694D01*
X122680454Y-79327692D01*
X122680456Y-79327690D01*
X122736313Y-79168059D01*
X122736313Y-79168058D01*
X122736314Y-79168056D01*
X122755249Y-79000002D01*
X123244751Y-79000002D01*
X123263685Y-79168056D01*
X123319545Y-79327694D01*
X123319547Y-79327697D01*
X123409518Y-79470884D01*
X123409523Y-79470890D01*
X123529109Y-79590476D01*
X123529115Y-79590481D01*
X123672302Y-79680452D01*
X123672305Y-79680454D01*
X123672309Y-79680455D01*
X123672310Y-79680456D01*
X123744913Y-79705860D01*
X123831943Y-79736314D01*
X123999997Y-79755249D01*
X124000000Y-79755249D01*
X124000003Y-79755249D01*
X124168056Y-79736314D01*
X124175538Y-79733696D01*
X124327690Y-79680456D01*
X124327692Y-79680454D01*
X124327694Y-79680454D01*
X124327697Y-79680452D01*
X124470884Y-79590481D01*
X124470885Y-79590480D01*
X124470890Y-79590477D01*
X124590477Y-79470890D01*
X124590481Y-79470884D01*
X124680452Y-79327697D01*
X124680454Y-79327694D01*
X124680454Y-79327692D01*
X124680456Y-79327690D01*
X124736313Y-79168059D01*
X124736313Y-79168058D01*
X124736314Y-79168056D01*
X124755249Y-79000002D01*
X125244751Y-79000002D01*
X125263685Y-79168056D01*
X125319545Y-79327694D01*
X125319547Y-79327697D01*
X125409518Y-79470884D01*
X125409523Y-79470890D01*
X125529109Y-79590476D01*
X125529115Y-79590481D01*
X125672302Y-79680452D01*
X125672305Y-79680454D01*
X125672309Y-79680455D01*
X125672310Y-79680456D01*
X125744913Y-79705860D01*
X125831943Y-79736314D01*
X125999997Y-79755249D01*
X126000000Y-79755249D01*
X126000003Y-79755249D01*
X126168056Y-79736314D01*
X126175538Y-79733696D01*
X126327690Y-79680456D01*
X126327692Y-79680454D01*
X126327694Y-79680454D01*
X126327697Y-79680452D01*
X126470884Y-79590481D01*
X126470885Y-79590480D01*
X126470890Y-79590477D01*
X126590477Y-79470890D01*
X126590481Y-79470884D01*
X126680452Y-79327697D01*
X126680454Y-79327694D01*
X126680454Y-79327692D01*
X126680456Y-79327690D01*
X126736313Y-79168059D01*
X126736313Y-79168058D01*
X126736314Y-79168056D01*
X126755249Y-79000002D01*
X127244751Y-79000002D01*
X127263685Y-79168056D01*
X127319545Y-79327694D01*
X127319547Y-79327697D01*
X127409518Y-79470884D01*
X127409523Y-79470890D01*
X127529109Y-79590476D01*
X127529115Y-79590481D01*
X127672302Y-79680452D01*
X127672305Y-79680454D01*
X127672309Y-79680455D01*
X127672310Y-79680456D01*
X127744913Y-79705860D01*
X127831943Y-79736314D01*
X127999997Y-79755249D01*
X128000000Y-79755249D01*
X128000003Y-79755249D01*
X128168056Y-79736314D01*
X128175538Y-79733696D01*
X128327690Y-79680456D01*
X128327692Y-79680454D01*
X128327694Y-79680454D01*
X128327697Y-79680452D01*
X128470884Y-79590481D01*
X128470885Y-79590480D01*
X128470890Y-79590477D01*
X128590477Y-79470890D01*
X128590481Y-79470884D01*
X128680452Y-79327697D01*
X128680454Y-79327694D01*
X128680454Y-79327692D01*
X128680456Y-79327690D01*
X128736313Y-79168059D01*
X128736313Y-79168058D01*
X128736314Y-79168056D01*
X128755249Y-79000002D01*
X129244751Y-79000002D01*
X129263685Y-79168056D01*
X129319545Y-79327694D01*
X129319547Y-79327697D01*
X129409518Y-79470884D01*
X129409523Y-79470890D01*
X129529109Y-79590476D01*
X129529115Y-79590481D01*
X129672302Y-79680452D01*
X129672305Y-79680454D01*
X129672309Y-79680455D01*
X129672310Y-79680456D01*
X129744913Y-79705860D01*
X129831943Y-79736314D01*
X129999997Y-79755249D01*
X130000000Y-79755249D01*
X130000003Y-79755249D01*
X130168056Y-79736314D01*
X130175538Y-79733696D01*
X130327690Y-79680456D01*
X130327692Y-79680454D01*
X130327694Y-79680454D01*
X130327697Y-79680452D01*
X130470884Y-79590481D01*
X130470885Y-79590480D01*
X130470890Y-79590477D01*
X130590477Y-79470890D01*
X130590481Y-79470884D01*
X130680452Y-79327697D01*
X130680454Y-79327694D01*
X130680454Y-79327692D01*
X130680456Y-79327690D01*
X130736313Y-79168059D01*
X130736313Y-79168058D01*
X130736314Y-79168056D01*
X130755249Y-79000002D01*
X131244751Y-79000002D01*
X131263685Y-79168056D01*
X131319545Y-79327694D01*
X131319547Y-79327697D01*
X131409518Y-79470884D01*
X131409523Y-79470890D01*
X131529109Y-79590476D01*
X131529115Y-79590481D01*
X131672302Y-79680452D01*
X131672305Y-79680454D01*
X131672309Y-79680455D01*
X131672310Y-79680456D01*
X131744913Y-79705860D01*
X131831943Y-79736314D01*
X131999997Y-79755249D01*
X132000000Y-79755249D01*
X132000003Y-79755249D01*
X132168056Y-79736314D01*
X132175538Y-79733696D01*
X132327690Y-79680456D01*
X132327692Y-79680454D01*
X132327694Y-79680454D01*
X132327697Y-79680452D01*
X132470884Y-79590481D01*
X132470885Y-79590480D01*
X132470890Y-79590477D01*
X132590477Y-79470890D01*
X132590481Y-79470884D01*
X132680452Y-79327697D01*
X132680454Y-79327694D01*
X132680454Y-79327692D01*
X132680456Y-79327690D01*
X132736313Y-79168059D01*
X132736313Y-79168058D01*
X132736314Y-79168056D01*
X132755249Y-79000002D01*
X132755249Y-78999997D01*
X132736314Y-78831943D01*
X132697843Y-78721999D01*
X132680456Y-78672310D01*
X132680455Y-78672309D01*
X132680454Y-78672305D01*
X132680452Y-78672302D01*
X132590481Y-78529115D01*
X132590476Y-78529109D01*
X132470890Y-78409523D01*
X132470884Y-78409518D01*
X132327697Y-78319547D01*
X132327694Y-78319545D01*
X132168056Y-78263685D01*
X132000003Y-78244751D01*
X131999997Y-78244751D01*
X131831943Y-78263685D01*
X131672305Y-78319545D01*
X131672302Y-78319547D01*
X131529115Y-78409518D01*
X131529109Y-78409523D01*
X131409523Y-78529109D01*
X131409518Y-78529115D01*
X131319547Y-78672302D01*
X131319545Y-78672305D01*
X131263685Y-78831943D01*
X131244751Y-78999997D01*
X131244751Y-79000002D01*
X130755249Y-79000002D01*
X130755249Y-78999997D01*
X130736314Y-78831943D01*
X130697843Y-78721999D01*
X130680456Y-78672310D01*
X130680455Y-78672309D01*
X130680454Y-78672305D01*
X130680452Y-78672302D01*
X130590481Y-78529115D01*
X130590476Y-78529109D01*
X130470890Y-78409523D01*
X130470884Y-78409518D01*
X130327697Y-78319547D01*
X130327694Y-78319545D01*
X130168056Y-78263685D01*
X130000003Y-78244751D01*
X129999997Y-78244751D01*
X129831943Y-78263685D01*
X129672305Y-78319545D01*
X129672302Y-78319547D01*
X129529115Y-78409518D01*
X129529109Y-78409523D01*
X129409523Y-78529109D01*
X129409518Y-78529115D01*
X129319547Y-78672302D01*
X129319545Y-78672305D01*
X129263685Y-78831943D01*
X129244751Y-78999997D01*
X129244751Y-79000002D01*
X128755249Y-79000002D01*
X128755249Y-78999997D01*
X128736314Y-78831943D01*
X128697843Y-78721999D01*
X128680456Y-78672310D01*
X128680455Y-78672309D01*
X128680454Y-78672305D01*
X128680452Y-78672302D01*
X128590481Y-78529115D01*
X128590476Y-78529109D01*
X128470890Y-78409523D01*
X128470884Y-78409518D01*
X128327697Y-78319547D01*
X128327694Y-78319545D01*
X128168056Y-78263685D01*
X128000003Y-78244751D01*
X127999997Y-78244751D01*
X127831943Y-78263685D01*
X127672305Y-78319545D01*
X127672302Y-78319547D01*
X127529115Y-78409518D01*
X127529109Y-78409523D01*
X127409523Y-78529109D01*
X127409518Y-78529115D01*
X127319547Y-78672302D01*
X127319545Y-78672305D01*
X127263685Y-78831943D01*
X127244751Y-78999997D01*
X127244751Y-79000002D01*
X126755249Y-79000002D01*
X126755249Y-78999997D01*
X126736314Y-78831943D01*
X126697843Y-78721999D01*
X126680456Y-78672310D01*
X126680455Y-78672309D01*
X126680454Y-78672305D01*
X126680452Y-78672302D01*
X126590481Y-78529115D01*
X126590476Y-78529109D01*
X126470890Y-78409523D01*
X126470884Y-78409518D01*
X126327697Y-78319547D01*
X126327694Y-78319545D01*
X126168056Y-78263685D01*
X126000003Y-78244751D01*
X125999997Y-78244751D01*
X125831943Y-78263685D01*
X125672305Y-78319545D01*
X125672302Y-78319547D01*
X125529115Y-78409518D01*
X125529109Y-78409523D01*
X125409523Y-78529109D01*
X125409518Y-78529115D01*
X125319547Y-78672302D01*
X125319545Y-78672305D01*
X125263685Y-78831943D01*
X125244751Y-78999997D01*
X125244751Y-79000002D01*
X124755249Y-79000002D01*
X124755249Y-78999997D01*
X124736314Y-78831943D01*
X124697843Y-78721999D01*
X124680456Y-78672310D01*
X124680455Y-78672309D01*
X124680454Y-78672305D01*
X124680452Y-78672302D01*
X124590481Y-78529115D01*
X124590476Y-78529109D01*
X124470890Y-78409523D01*
X124470884Y-78409518D01*
X124327697Y-78319547D01*
X124327694Y-78319545D01*
X124168056Y-78263685D01*
X124000003Y-78244751D01*
X123999997Y-78244751D01*
X123831943Y-78263685D01*
X123672305Y-78319545D01*
X123672302Y-78319547D01*
X123529115Y-78409518D01*
X123529109Y-78409523D01*
X123409523Y-78529109D01*
X123409518Y-78529115D01*
X123319547Y-78672302D01*
X123319545Y-78672305D01*
X123263685Y-78831943D01*
X123244751Y-78999997D01*
X123244751Y-79000002D01*
X122755249Y-79000002D01*
X122755249Y-78999997D01*
X122736314Y-78831943D01*
X122697843Y-78721999D01*
X122680456Y-78672310D01*
X122680455Y-78672309D01*
X122680454Y-78672305D01*
X122680452Y-78672302D01*
X122590481Y-78529115D01*
X122590476Y-78529109D01*
X122470890Y-78409523D01*
X122470884Y-78409518D01*
X122327697Y-78319547D01*
X122327694Y-78319545D01*
X122168056Y-78263685D01*
X122000003Y-78244751D01*
X121999997Y-78244751D01*
X121831943Y-78263685D01*
X121672305Y-78319545D01*
X121672302Y-78319547D01*
X121529115Y-78409518D01*
X121529109Y-78409523D01*
X121409523Y-78529109D01*
X121409518Y-78529115D01*
X121319547Y-78672302D01*
X121319545Y-78672305D01*
X121263685Y-78831943D01*
X121244751Y-78999997D01*
X121244751Y-79000002D01*
X120755249Y-79000002D01*
X120755249Y-78999997D01*
X120736314Y-78831943D01*
X120697843Y-78721999D01*
X120680456Y-78672310D01*
X120680455Y-78672309D01*
X120680454Y-78672305D01*
X120680452Y-78672302D01*
X120590481Y-78529115D01*
X120590476Y-78529109D01*
X120470890Y-78409523D01*
X120470884Y-78409518D01*
X120327697Y-78319547D01*
X120327694Y-78319545D01*
X120168056Y-78263685D01*
X120000003Y-78244751D01*
X119999997Y-78244751D01*
X119831943Y-78263685D01*
X119672305Y-78319545D01*
X119672302Y-78319547D01*
X119529115Y-78409518D01*
X119529109Y-78409523D01*
X119409523Y-78529109D01*
X119409518Y-78529115D01*
X119319547Y-78672302D01*
X119319545Y-78672305D01*
X119263685Y-78831943D01*
X119244751Y-78999997D01*
X119244751Y-79000002D01*
X118755249Y-79000002D01*
X118755249Y-78999997D01*
X118736314Y-78831943D01*
X118697843Y-78721999D01*
X118680456Y-78672310D01*
X118680455Y-78672309D01*
X118680454Y-78672305D01*
X118680452Y-78672302D01*
X118590481Y-78529115D01*
X118590476Y-78529109D01*
X118470890Y-78409523D01*
X118470884Y-78409518D01*
X118327697Y-78319547D01*
X118327694Y-78319545D01*
X118168056Y-78263685D01*
X118000003Y-78244751D01*
X117999997Y-78244751D01*
X117831943Y-78263685D01*
X117672305Y-78319545D01*
X117672302Y-78319547D01*
X117529115Y-78409518D01*
X117529109Y-78409523D01*
X117409523Y-78529109D01*
X117409518Y-78529115D01*
X117319547Y-78672302D01*
X117319545Y-78672305D01*
X117263685Y-78831943D01*
X117244751Y-78999997D01*
X117244751Y-79000002D01*
X116755249Y-79000002D01*
X116755249Y-78999997D01*
X116736314Y-78831943D01*
X116697843Y-78721999D01*
X116680456Y-78672310D01*
X116680455Y-78672309D01*
X116680454Y-78672305D01*
X116680452Y-78672302D01*
X116590481Y-78529115D01*
X116590476Y-78529109D01*
X116470890Y-78409523D01*
X116470884Y-78409518D01*
X116327697Y-78319547D01*
X116327694Y-78319545D01*
X116168056Y-78263685D01*
X116000003Y-78244751D01*
X115999997Y-78244751D01*
X115831943Y-78263685D01*
X115672305Y-78319545D01*
X115672302Y-78319547D01*
X115529115Y-78409518D01*
X115529109Y-78409523D01*
X115409523Y-78529109D01*
X115409518Y-78529115D01*
X115319547Y-78672302D01*
X115319545Y-78672305D01*
X115263685Y-78831943D01*
X115244751Y-78999997D01*
X115244751Y-79000002D01*
X86256209Y-79000002D01*
X86346293Y-78920195D01*
X86436030Y-78790188D01*
X86492047Y-78642483D01*
X86511088Y-78485665D01*
X86503259Y-78421182D01*
X86492047Y-78328846D01*
X86463012Y-78252287D01*
X86436030Y-78181142D01*
X86364146Y-78077000D01*
X137393722Y-78077000D01*
X137412762Y-78233818D01*
X137457463Y-78351682D01*
X137468780Y-78381523D01*
X137558517Y-78511530D01*
X137676760Y-78616283D01*
X137676762Y-78616284D01*
X137816634Y-78689696D01*
X137970014Y-78727500D01*
X137970015Y-78727500D01*
X138127985Y-78727500D01*
X138281365Y-78689696D01*
X138314506Y-78672302D01*
X138421240Y-78616283D01*
X138539483Y-78511530D01*
X138629220Y-78381523D01*
X138685237Y-78233818D01*
X138704278Y-78077000D01*
X138701138Y-78051135D01*
X138685237Y-77920181D01*
X138652994Y-77835165D01*
X138629220Y-77772477D01*
X138539483Y-77642470D01*
X138421240Y-77537717D01*
X138421238Y-77537716D01*
X138421237Y-77537715D01*
X138281365Y-77464303D01*
X138127986Y-77426500D01*
X138127985Y-77426500D01*
X137970015Y-77426500D01*
X137970014Y-77426500D01*
X137816634Y-77464303D01*
X137676762Y-77537715D01*
X137558516Y-77642471D01*
X137468781Y-77772475D01*
X137468780Y-77772476D01*
X137412762Y-77920181D01*
X137393722Y-78076999D01*
X137393722Y-78077000D01*
X86364146Y-78077000D01*
X86346293Y-78051135D01*
X86228050Y-77946382D01*
X86228048Y-77946381D01*
X86228047Y-77946380D01*
X86088175Y-77872968D01*
X85934796Y-77835165D01*
X85934795Y-77835165D01*
X85776825Y-77835165D01*
X85776824Y-77835165D01*
X85623444Y-77872968D01*
X85483572Y-77946379D01*
X85426434Y-77996999D01*
X85363200Y-78026719D01*
X85293937Y-78017535D01*
X85240634Y-77972362D01*
X85220215Y-77905542D01*
X85221111Y-77889244D01*
X85239356Y-77738986D01*
X85220315Y-77582168D01*
X85217481Y-77574696D01*
X85178113Y-77470890D01*
X85164298Y-77434463D01*
X85074561Y-77304456D01*
X84956318Y-77199703D01*
X84956316Y-77199702D01*
X84956315Y-77199701D01*
X84816444Y-77126290D01*
X84803789Y-77123171D01*
X84743408Y-77088015D01*
X84711620Y-77025795D01*
X84710368Y-76987830D01*
X84715760Y-76943425D01*
X84698796Y-76803715D01*
X84696719Y-76786606D01*
X84653369Y-76672302D01*
X84640702Y-76638902D01*
X84550965Y-76508895D01*
X84489001Y-76454000D01*
X101198722Y-76454000D01*
X101217762Y-76610818D01*
X101272711Y-76755704D01*
X101273780Y-76758523D01*
X101363517Y-76888530D01*
X101481760Y-76993283D01*
X101481762Y-76993284D01*
X101621634Y-77066696D01*
X101775014Y-77104500D01*
X101775015Y-77104500D01*
X101932985Y-77104500D01*
X102086365Y-77066696D01*
X102164294Y-77025795D01*
X102213438Y-77000002D01*
X115244751Y-77000002D01*
X115263685Y-77168056D01*
X115319545Y-77327694D01*
X115319547Y-77327697D01*
X115409518Y-77470884D01*
X115409523Y-77470890D01*
X115529109Y-77590476D01*
X115529115Y-77590481D01*
X115672302Y-77680452D01*
X115672305Y-77680454D01*
X115672309Y-77680455D01*
X115672310Y-77680456D01*
X115712677Y-77694581D01*
X115831943Y-77736314D01*
X115999997Y-77755249D01*
X116000000Y-77755249D01*
X116000003Y-77755249D01*
X116168056Y-77736314D01*
X116168059Y-77736313D01*
X116327690Y-77680456D01*
X116327692Y-77680454D01*
X116327694Y-77680454D01*
X116327697Y-77680452D01*
X116470884Y-77590481D01*
X116470885Y-77590480D01*
X116470890Y-77590477D01*
X116590477Y-77470890D01*
X116590481Y-77470884D01*
X116680452Y-77327697D01*
X116680454Y-77327694D01*
X116680454Y-77327692D01*
X116680456Y-77327690D01*
X116736313Y-77168059D01*
X116736313Y-77168058D01*
X116736314Y-77168056D01*
X116755249Y-77000002D01*
X117244751Y-77000002D01*
X117263685Y-77168056D01*
X117319545Y-77327694D01*
X117319547Y-77327697D01*
X117409518Y-77470884D01*
X117409523Y-77470890D01*
X117529109Y-77590476D01*
X117529115Y-77590481D01*
X117672302Y-77680452D01*
X117672305Y-77680454D01*
X117672309Y-77680455D01*
X117672310Y-77680456D01*
X117712677Y-77694581D01*
X117831943Y-77736314D01*
X117999997Y-77755249D01*
X118000000Y-77755249D01*
X118000003Y-77755249D01*
X118168056Y-77736314D01*
X118168059Y-77736313D01*
X118327690Y-77680456D01*
X118327692Y-77680454D01*
X118327694Y-77680454D01*
X118327697Y-77680452D01*
X118470884Y-77590481D01*
X118470885Y-77590480D01*
X118470890Y-77590477D01*
X118590477Y-77470890D01*
X118590481Y-77470884D01*
X118680452Y-77327697D01*
X118680454Y-77327694D01*
X118680454Y-77327692D01*
X118680456Y-77327690D01*
X118736313Y-77168059D01*
X118736313Y-77168058D01*
X118736314Y-77168056D01*
X118755249Y-77000002D01*
X119244751Y-77000002D01*
X119263685Y-77168056D01*
X119319545Y-77327694D01*
X119319547Y-77327697D01*
X119409518Y-77470884D01*
X119409523Y-77470890D01*
X119529109Y-77590476D01*
X119529115Y-77590481D01*
X119672302Y-77680452D01*
X119672305Y-77680454D01*
X119672309Y-77680455D01*
X119672310Y-77680456D01*
X119712677Y-77694581D01*
X119831943Y-77736314D01*
X119999997Y-77755249D01*
X120000000Y-77755249D01*
X120000003Y-77755249D01*
X120168056Y-77736314D01*
X120168059Y-77736313D01*
X120327690Y-77680456D01*
X120327692Y-77680454D01*
X120327694Y-77680454D01*
X120327697Y-77680452D01*
X120470884Y-77590481D01*
X120470885Y-77590480D01*
X120470890Y-77590477D01*
X120590477Y-77470890D01*
X120590481Y-77470884D01*
X120680452Y-77327697D01*
X120680454Y-77327694D01*
X120680454Y-77327692D01*
X120680456Y-77327690D01*
X120736313Y-77168059D01*
X120736313Y-77168058D01*
X120736314Y-77168056D01*
X120755249Y-77000002D01*
X121244751Y-77000002D01*
X121263685Y-77168056D01*
X121319545Y-77327694D01*
X121319547Y-77327697D01*
X121409518Y-77470884D01*
X121409523Y-77470890D01*
X121529109Y-77590476D01*
X121529115Y-77590481D01*
X121672302Y-77680452D01*
X121672305Y-77680454D01*
X121672309Y-77680455D01*
X121672310Y-77680456D01*
X121712677Y-77694581D01*
X121831943Y-77736314D01*
X121999997Y-77755249D01*
X122000000Y-77755249D01*
X122000003Y-77755249D01*
X122168056Y-77736314D01*
X122168059Y-77736313D01*
X122327690Y-77680456D01*
X122327692Y-77680454D01*
X122327694Y-77680454D01*
X122327697Y-77680452D01*
X122470884Y-77590481D01*
X122470885Y-77590480D01*
X122470890Y-77590477D01*
X122590477Y-77470890D01*
X122590481Y-77470884D01*
X122680452Y-77327697D01*
X122680454Y-77327694D01*
X122680454Y-77327692D01*
X122680456Y-77327690D01*
X122736313Y-77168059D01*
X122736313Y-77168058D01*
X122736314Y-77168056D01*
X122755249Y-77000002D01*
X123244751Y-77000002D01*
X123263685Y-77168056D01*
X123319545Y-77327694D01*
X123319547Y-77327697D01*
X123409518Y-77470884D01*
X123409523Y-77470890D01*
X123529109Y-77590476D01*
X123529115Y-77590481D01*
X123672302Y-77680452D01*
X123672305Y-77680454D01*
X123672309Y-77680455D01*
X123672310Y-77680456D01*
X123712677Y-77694581D01*
X123831943Y-77736314D01*
X123999997Y-77755249D01*
X124000000Y-77755249D01*
X124000003Y-77755249D01*
X124168056Y-77736314D01*
X124168059Y-77736313D01*
X124327690Y-77680456D01*
X124327692Y-77680454D01*
X124327694Y-77680454D01*
X124327697Y-77680452D01*
X124470884Y-77590481D01*
X124470885Y-77590480D01*
X124470890Y-77590477D01*
X124590477Y-77470890D01*
X124590481Y-77470884D01*
X124680452Y-77327697D01*
X124680454Y-77327694D01*
X124680454Y-77327692D01*
X124680456Y-77327690D01*
X124736313Y-77168059D01*
X124736313Y-77168058D01*
X124736314Y-77168056D01*
X124755249Y-77000002D01*
X125244751Y-77000002D01*
X125263685Y-77168056D01*
X125319545Y-77327694D01*
X125319547Y-77327697D01*
X125409518Y-77470884D01*
X125409523Y-77470890D01*
X125529109Y-77590476D01*
X125529115Y-77590481D01*
X125672302Y-77680452D01*
X125672305Y-77680454D01*
X125672309Y-77680455D01*
X125672310Y-77680456D01*
X125712677Y-77694581D01*
X125831943Y-77736314D01*
X125999997Y-77755249D01*
X126000000Y-77755249D01*
X126000003Y-77755249D01*
X126168056Y-77736314D01*
X126168059Y-77736313D01*
X126327690Y-77680456D01*
X126327692Y-77680454D01*
X126327694Y-77680454D01*
X126327697Y-77680452D01*
X126470884Y-77590481D01*
X126470885Y-77590480D01*
X126470890Y-77590477D01*
X126590477Y-77470890D01*
X126590481Y-77470884D01*
X126680452Y-77327697D01*
X126680454Y-77327694D01*
X126680454Y-77327692D01*
X126680456Y-77327690D01*
X126736313Y-77168059D01*
X126736313Y-77168058D01*
X126736314Y-77168056D01*
X126755249Y-77000002D01*
X127244751Y-77000002D01*
X127263685Y-77168056D01*
X127319545Y-77327694D01*
X127319547Y-77327697D01*
X127409518Y-77470884D01*
X127409523Y-77470890D01*
X127529109Y-77590476D01*
X127529115Y-77590481D01*
X127672302Y-77680452D01*
X127672305Y-77680454D01*
X127672309Y-77680455D01*
X127672310Y-77680456D01*
X127712677Y-77694581D01*
X127831943Y-77736314D01*
X127999997Y-77755249D01*
X128000000Y-77755249D01*
X128000003Y-77755249D01*
X128168056Y-77736314D01*
X128168059Y-77736313D01*
X128327690Y-77680456D01*
X128327692Y-77680454D01*
X128327694Y-77680454D01*
X128327697Y-77680452D01*
X128470884Y-77590481D01*
X128470885Y-77590480D01*
X128470890Y-77590477D01*
X128590477Y-77470890D01*
X128590481Y-77470884D01*
X128680452Y-77327697D01*
X128680454Y-77327694D01*
X128680454Y-77327692D01*
X128680456Y-77327690D01*
X128736313Y-77168059D01*
X128736313Y-77168058D01*
X128736314Y-77168056D01*
X128755249Y-77000002D01*
X129244751Y-77000002D01*
X129263685Y-77168056D01*
X129319545Y-77327694D01*
X129319547Y-77327697D01*
X129409518Y-77470884D01*
X129409523Y-77470890D01*
X129529109Y-77590476D01*
X129529115Y-77590481D01*
X129672302Y-77680452D01*
X129672305Y-77680454D01*
X129672309Y-77680455D01*
X129672310Y-77680456D01*
X129712677Y-77694581D01*
X129831943Y-77736314D01*
X129999997Y-77755249D01*
X130000000Y-77755249D01*
X130000003Y-77755249D01*
X130168056Y-77736314D01*
X130168059Y-77736313D01*
X130327690Y-77680456D01*
X130327692Y-77680454D01*
X130327694Y-77680454D01*
X130327697Y-77680452D01*
X130470884Y-77590481D01*
X130470885Y-77590480D01*
X130470890Y-77590477D01*
X130590477Y-77470890D01*
X130590481Y-77470884D01*
X130680452Y-77327697D01*
X130680454Y-77327694D01*
X130680454Y-77327692D01*
X130680456Y-77327690D01*
X130736313Y-77168059D01*
X130736313Y-77168058D01*
X130736314Y-77168056D01*
X130755249Y-77000002D01*
X131244751Y-77000002D01*
X131263685Y-77168056D01*
X131319545Y-77327694D01*
X131319547Y-77327697D01*
X131409518Y-77470884D01*
X131409523Y-77470890D01*
X131529109Y-77590476D01*
X131529115Y-77590481D01*
X131672302Y-77680452D01*
X131672305Y-77680454D01*
X131672309Y-77680455D01*
X131672310Y-77680456D01*
X131712677Y-77694581D01*
X131831943Y-77736314D01*
X131999997Y-77755249D01*
X132000000Y-77755249D01*
X132000003Y-77755249D01*
X132168056Y-77736314D01*
X132168059Y-77736313D01*
X132327690Y-77680456D01*
X132327692Y-77680454D01*
X132327694Y-77680454D01*
X132327697Y-77680452D01*
X132470884Y-77590481D01*
X132470885Y-77590480D01*
X132470890Y-77590477D01*
X132590477Y-77470890D01*
X132590481Y-77470884D01*
X132680452Y-77327697D01*
X132680454Y-77327694D01*
X132680454Y-77327692D01*
X132680456Y-77327690D01*
X132736313Y-77168059D01*
X132736313Y-77168058D01*
X132736314Y-77168056D01*
X132755249Y-77000002D01*
X132755249Y-76999997D01*
X132736314Y-76831943D01*
X132700749Y-76730304D01*
X132680456Y-76672310D01*
X132680455Y-76672309D01*
X132680454Y-76672305D01*
X132680452Y-76672302D01*
X132590481Y-76529115D01*
X132590476Y-76529109D01*
X132470890Y-76409523D01*
X132470884Y-76409518D01*
X132327697Y-76319547D01*
X132327694Y-76319545D01*
X132168056Y-76263685D01*
X132000003Y-76244751D01*
X131999997Y-76244751D01*
X131831943Y-76263685D01*
X131672305Y-76319545D01*
X131672302Y-76319547D01*
X131529115Y-76409518D01*
X131529109Y-76409523D01*
X131409523Y-76529109D01*
X131409518Y-76529115D01*
X131319547Y-76672302D01*
X131319545Y-76672305D01*
X131263685Y-76831943D01*
X131244751Y-76999997D01*
X131244751Y-77000002D01*
X130755249Y-77000002D01*
X130755249Y-76999997D01*
X130736314Y-76831943D01*
X130700749Y-76730304D01*
X130680456Y-76672310D01*
X130680455Y-76672309D01*
X130680454Y-76672305D01*
X130680452Y-76672302D01*
X130590481Y-76529115D01*
X130590476Y-76529109D01*
X130470890Y-76409523D01*
X130470884Y-76409518D01*
X130327697Y-76319547D01*
X130327694Y-76319545D01*
X130168056Y-76263685D01*
X130000003Y-76244751D01*
X129999997Y-76244751D01*
X129831943Y-76263685D01*
X129672305Y-76319545D01*
X129672302Y-76319547D01*
X129529115Y-76409518D01*
X129529109Y-76409523D01*
X129409523Y-76529109D01*
X129409518Y-76529115D01*
X129319547Y-76672302D01*
X129319545Y-76672305D01*
X129263685Y-76831943D01*
X129244751Y-76999997D01*
X129244751Y-77000002D01*
X128755249Y-77000002D01*
X128755249Y-76999997D01*
X128736314Y-76831943D01*
X128700749Y-76730304D01*
X128680456Y-76672310D01*
X128680455Y-76672309D01*
X128680454Y-76672305D01*
X128680452Y-76672302D01*
X128590481Y-76529115D01*
X128590476Y-76529109D01*
X128470890Y-76409523D01*
X128470884Y-76409518D01*
X128327697Y-76319547D01*
X128327694Y-76319545D01*
X128168056Y-76263685D01*
X128000003Y-76244751D01*
X127999997Y-76244751D01*
X127831943Y-76263685D01*
X127672305Y-76319545D01*
X127672302Y-76319547D01*
X127529115Y-76409518D01*
X127529109Y-76409523D01*
X127409523Y-76529109D01*
X127409518Y-76529115D01*
X127319547Y-76672302D01*
X127319545Y-76672305D01*
X127263685Y-76831943D01*
X127244751Y-76999997D01*
X127244751Y-77000002D01*
X126755249Y-77000002D01*
X126755249Y-76999997D01*
X126736314Y-76831943D01*
X126700749Y-76730304D01*
X126680456Y-76672310D01*
X126680455Y-76672309D01*
X126680454Y-76672305D01*
X126680452Y-76672302D01*
X126590481Y-76529115D01*
X126590476Y-76529109D01*
X126470890Y-76409523D01*
X126470884Y-76409518D01*
X126327697Y-76319547D01*
X126327694Y-76319545D01*
X126168056Y-76263685D01*
X126000003Y-76244751D01*
X125999997Y-76244751D01*
X125831943Y-76263685D01*
X125672305Y-76319545D01*
X125672302Y-76319547D01*
X125529115Y-76409518D01*
X125529109Y-76409523D01*
X125409523Y-76529109D01*
X125409518Y-76529115D01*
X125319547Y-76672302D01*
X125319545Y-76672305D01*
X125263685Y-76831943D01*
X125244751Y-76999997D01*
X125244751Y-77000002D01*
X124755249Y-77000002D01*
X124755249Y-76999997D01*
X124736314Y-76831943D01*
X124700749Y-76730304D01*
X124680456Y-76672310D01*
X124680455Y-76672309D01*
X124680454Y-76672305D01*
X124680452Y-76672302D01*
X124590481Y-76529115D01*
X124590476Y-76529109D01*
X124470890Y-76409523D01*
X124470884Y-76409518D01*
X124327697Y-76319547D01*
X124327694Y-76319545D01*
X124168056Y-76263685D01*
X124000003Y-76244751D01*
X123999997Y-76244751D01*
X123831943Y-76263685D01*
X123672305Y-76319545D01*
X123672302Y-76319547D01*
X123529115Y-76409518D01*
X123529109Y-76409523D01*
X123409523Y-76529109D01*
X123409518Y-76529115D01*
X123319547Y-76672302D01*
X123319545Y-76672305D01*
X123263685Y-76831943D01*
X123244751Y-76999997D01*
X123244751Y-77000002D01*
X122755249Y-77000002D01*
X122755249Y-76999997D01*
X122736314Y-76831943D01*
X122700749Y-76730304D01*
X122680456Y-76672310D01*
X122680455Y-76672309D01*
X122680454Y-76672305D01*
X122680452Y-76672302D01*
X122590481Y-76529115D01*
X122590476Y-76529109D01*
X122470890Y-76409523D01*
X122470884Y-76409518D01*
X122327697Y-76319547D01*
X122327694Y-76319545D01*
X122168056Y-76263685D01*
X122000003Y-76244751D01*
X121999997Y-76244751D01*
X121831943Y-76263685D01*
X121672305Y-76319545D01*
X121672302Y-76319547D01*
X121529115Y-76409518D01*
X121529109Y-76409523D01*
X121409523Y-76529109D01*
X121409518Y-76529115D01*
X121319547Y-76672302D01*
X121319545Y-76672305D01*
X121263685Y-76831943D01*
X121244751Y-76999997D01*
X121244751Y-77000002D01*
X120755249Y-77000002D01*
X120755249Y-76999997D01*
X120736314Y-76831943D01*
X120700749Y-76730304D01*
X120680456Y-76672310D01*
X120680455Y-76672309D01*
X120680454Y-76672305D01*
X120680452Y-76672302D01*
X120590481Y-76529115D01*
X120590476Y-76529109D01*
X120470890Y-76409523D01*
X120470884Y-76409518D01*
X120327697Y-76319547D01*
X120327694Y-76319545D01*
X120168056Y-76263685D01*
X120000003Y-76244751D01*
X119999997Y-76244751D01*
X119831943Y-76263685D01*
X119672305Y-76319545D01*
X119672302Y-76319547D01*
X119529115Y-76409518D01*
X119529109Y-76409523D01*
X119409523Y-76529109D01*
X119409518Y-76529115D01*
X119319547Y-76672302D01*
X119319545Y-76672305D01*
X119263685Y-76831943D01*
X119244751Y-76999997D01*
X119244751Y-77000002D01*
X118755249Y-77000002D01*
X118755249Y-76999997D01*
X118736314Y-76831943D01*
X118700749Y-76730304D01*
X118680456Y-76672310D01*
X118680455Y-76672309D01*
X118680454Y-76672305D01*
X118680452Y-76672302D01*
X118590481Y-76529115D01*
X118590476Y-76529109D01*
X118470890Y-76409523D01*
X118470884Y-76409518D01*
X118327697Y-76319547D01*
X118327694Y-76319545D01*
X118168056Y-76263685D01*
X118000003Y-76244751D01*
X117999997Y-76244751D01*
X117831943Y-76263685D01*
X117672305Y-76319545D01*
X117672302Y-76319547D01*
X117529115Y-76409518D01*
X117529109Y-76409523D01*
X117409523Y-76529109D01*
X117409518Y-76529115D01*
X117319547Y-76672302D01*
X117319545Y-76672305D01*
X117263685Y-76831943D01*
X117244751Y-76999997D01*
X117244751Y-77000002D01*
X116755249Y-77000002D01*
X116755249Y-76999997D01*
X116736314Y-76831943D01*
X116700749Y-76730304D01*
X116680456Y-76672310D01*
X116680455Y-76672309D01*
X116680454Y-76672305D01*
X116680452Y-76672302D01*
X116590481Y-76529115D01*
X116590476Y-76529109D01*
X116470890Y-76409523D01*
X116470884Y-76409518D01*
X116327697Y-76319547D01*
X116327694Y-76319545D01*
X116168056Y-76263685D01*
X116000003Y-76244751D01*
X115999997Y-76244751D01*
X115831943Y-76263685D01*
X115672305Y-76319545D01*
X115672302Y-76319547D01*
X115529115Y-76409518D01*
X115529109Y-76409523D01*
X115409523Y-76529109D01*
X115409518Y-76529115D01*
X115319547Y-76672302D01*
X115319545Y-76672305D01*
X115263685Y-76831943D01*
X115244751Y-76999997D01*
X115244751Y-77000002D01*
X102213438Y-77000002D01*
X102226240Y-76993283D01*
X102344483Y-76888530D01*
X102434220Y-76758523D01*
X102490237Y-76610818D01*
X102509278Y-76454000D01*
X102490237Y-76297182D01*
X102472698Y-76250937D01*
X102467332Y-76181277D01*
X102500479Y-76119771D01*
X102558967Y-76086571D01*
X102595129Y-76077658D01*
X102735004Y-76004245D01*
X102853247Y-75899492D01*
X102942984Y-75769485D01*
X102999001Y-75621780D01*
X103010249Y-75529137D01*
X103037870Y-75464961D01*
X103095804Y-75425904D01*
X103165657Y-75424369D01*
X103225251Y-75460843D01*
X103235393Y-75473641D01*
X103268517Y-75521630D01*
X103386760Y-75626383D01*
X103386762Y-75626384D01*
X103526634Y-75699796D01*
X103680014Y-75737600D01*
X103680015Y-75737600D01*
X103837985Y-75737600D01*
X103991365Y-75699796D01*
X104131233Y-75626387D01*
X104131234Y-75626385D01*
X104131240Y-75626383D01*
X104131244Y-75626379D01*
X104137408Y-75622125D01*
X104139289Y-75624850D01*
X104188944Y-75601411D01*
X104258222Y-75610479D01*
X104290367Y-75631100D01*
X104410246Y-75737301D01*
X104410248Y-75737303D01*
X104550121Y-75810715D01*
X104703501Y-75848519D01*
X104703502Y-75848519D01*
X104861472Y-75848519D01*
X105014852Y-75810715D01*
X105093408Y-75769485D01*
X105154727Y-75737302D01*
X105272970Y-75632549D01*
X105362707Y-75502542D01*
X105418724Y-75354837D01*
X105437765Y-75198019D01*
X105429040Y-75126157D01*
X105418724Y-75041200D01*
X105385010Y-74952304D01*
X105362707Y-74893496D01*
X105352839Y-74879200D01*
X133558321Y-74879200D01*
X133577362Y-75036018D01*
X133633379Y-75183722D01*
X133633380Y-75183723D01*
X133723117Y-75313730D01*
X133841360Y-75418483D01*
X133841362Y-75418484D01*
X133981234Y-75491896D01*
X134134614Y-75529700D01*
X134134615Y-75529700D01*
X134292585Y-75529700D01*
X134445965Y-75491896D01*
X134480741Y-75473644D01*
X134585840Y-75418483D01*
X134704083Y-75313730D01*
X134793820Y-75183723D01*
X134849837Y-75036018D01*
X134868878Y-74879200D01*
X134861018Y-74814462D01*
X134849837Y-74722381D01*
X134825699Y-74658736D01*
X134793820Y-74574677D01*
X134759308Y-74524678D01*
X148949500Y-74524678D01*
X148964032Y-74597735D01*
X148964033Y-74597739D01*
X148982405Y-74625234D01*
X149019399Y-74680601D01*
X149081930Y-74722382D01*
X149102260Y-74735966D01*
X149102264Y-74735967D01*
X149175321Y-74750499D01*
X149175324Y-74750500D01*
X149175326Y-74750500D01*
X151824676Y-74750500D01*
X151824677Y-74750499D01*
X151897740Y-74735966D01*
X151980601Y-74680601D01*
X152035966Y-74597740D01*
X152050500Y-74524674D01*
X152050500Y-71875326D01*
X152050500Y-71875325D01*
X152050500Y-71875323D01*
X152050499Y-71875321D01*
X152035967Y-71802264D01*
X152035966Y-71802260D01*
X152035965Y-71802259D01*
X151980601Y-71719399D01*
X151897740Y-71664034D01*
X151897739Y-71664033D01*
X151897735Y-71664032D01*
X151824677Y-71649500D01*
X151824674Y-71649500D01*
X149175326Y-71649500D01*
X149175323Y-71649500D01*
X149102264Y-71664032D01*
X149102260Y-71664033D01*
X149019399Y-71719399D01*
X148964033Y-71802260D01*
X148964032Y-71802264D01*
X148949500Y-71875321D01*
X148949500Y-74524678D01*
X134759308Y-74524678D01*
X134704083Y-74444670D01*
X134585840Y-74339917D01*
X134585838Y-74339916D01*
X134585837Y-74339915D01*
X134445965Y-74266503D01*
X134292586Y-74228700D01*
X134292585Y-74228700D01*
X134134615Y-74228700D01*
X134134614Y-74228700D01*
X133981234Y-74266503D01*
X133841362Y-74339915D01*
X133723116Y-74444671D01*
X133633381Y-74574675D01*
X133633380Y-74574676D01*
X133577362Y-74722381D01*
X133558321Y-74879199D01*
X133558321Y-74879200D01*
X105352839Y-74879200D01*
X105272970Y-74763489D01*
X105154727Y-74658736D01*
X105154725Y-74658735D01*
X105154724Y-74658734D01*
X105014852Y-74585322D01*
X104861473Y-74547519D01*
X104861472Y-74547519D01*
X104703502Y-74547519D01*
X104703501Y-74547519D01*
X104550121Y-74585322D01*
X104410251Y-74658733D01*
X104404074Y-74662997D01*
X104402251Y-74660356D01*
X104351911Y-74683804D01*
X104282680Y-74674380D01*
X104251117Y-74654018D01*
X104249483Y-74652570D01*
X104131240Y-74547817D01*
X104131238Y-74547816D01*
X104131237Y-74547815D01*
X103991365Y-74474403D01*
X103837986Y-74436600D01*
X103837985Y-74436600D01*
X103680015Y-74436600D01*
X103680014Y-74436600D01*
X103526634Y-74474403D01*
X103386762Y-74547815D01*
X103268516Y-74652571D01*
X103178781Y-74782575D01*
X103178780Y-74782576D01*
X103122763Y-74930280D01*
X103111514Y-75022923D01*
X103083892Y-75087101D01*
X103025958Y-75126157D01*
X102956105Y-75127692D01*
X102896511Y-75091217D01*
X102886368Y-75078416D01*
X102860680Y-75041201D01*
X102853247Y-75030432D01*
X102735004Y-74925679D01*
X102735002Y-74925678D01*
X102735001Y-74925677D01*
X102595129Y-74852265D01*
X102441750Y-74814462D01*
X102441749Y-74814462D01*
X102283779Y-74814462D01*
X102283778Y-74814462D01*
X102130398Y-74852265D01*
X101990526Y-74925677D01*
X101990523Y-74925679D01*
X101990524Y-74925679D01*
X101877606Y-75025715D01*
X101872280Y-75030433D01*
X101782545Y-75160437D01*
X101782544Y-75160438D01*
X101726526Y-75308143D01*
X101712228Y-75425904D01*
X101707486Y-75464962D01*
X101715347Y-75529700D01*
X101726527Y-75621780D01*
X101744064Y-75668022D01*
X101749431Y-75737685D01*
X101716284Y-75799191D01*
X101657799Y-75832389D01*
X101621637Y-75841302D01*
X101621634Y-75841303D01*
X101481762Y-75914715D01*
X101363516Y-76019471D01*
X101273781Y-76149475D01*
X101273780Y-76149476D01*
X101217762Y-76297181D01*
X101198722Y-76453999D01*
X101198722Y-76454000D01*
X84489001Y-76454000D01*
X84432722Y-76404142D01*
X84432720Y-76404141D01*
X84432719Y-76404140D01*
X84292847Y-76330728D01*
X84139468Y-76292925D01*
X84139467Y-76292925D01*
X83981497Y-76292925D01*
X83981496Y-76292925D01*
X83828116Y-76330728D01*
X83688244Y-76404140D01*
X83569998Y-76508896D01*
X83480263Y-76638900D01*
X83480262Y-76638901D01*
X83424244Y-76786606D01*
X83405204Y-76943424D01*
X83405204Y-76943425D01*
X83424244Y-77100243D01*
X83480262Y-77247948D01*
X83569999Y-77377955D01*
X83688242Y-77482708D01*
X83688244Y-77482709D01*
X83828114Y-77556120D01*
X83828116Y-77556120D01*
X83828117Y-77556121D01*
X83840767Y-77559239D01*
X83901148Y-77594392D01*
X83932938Y-77656610D01*
X83934191Y-77694581D01*
X83928800Y-77738985D01*
X83928800Y-77738986D01*
X83947841Y-77895805D01*
X83947841Y-77895807D01*
X83970136Y-77954594D01*
X83975503Y-78024257D01*
X83942355Y-78085763D01*
X83881217Y-78119584D01*
X83811499Y-78114982D01*
X83800631Y-78110163D01*
X83798365Y-78109303D01*
X83644986Y-78071500D01*
X83644985Y-78071500D01*
X83487015Y-78071500D01*
X83487014Y-78071500D01*
X83333634Y-78109303D01*
X83193762Y-78182715D01*
X83075516Y-78287471D01*
X82985781Y-78417475D01*
X82985780Y-78417476D01*
X82929762Y-78565181D01*
X82910722Y-78721999D01*
X82910722Y-78722000D01*
X79972515Y-78722000D01*
X79990000Y-78578000D01*
X79981538Y-78508304D01*
X79970959Y-78421181D01*
X79940702Y-78341401D01*
X79914942Y-78273477D01*
X79825205Y-78143470D01*
X79706962Y-78038717D01*
X79706960Y-78038716D01*
X79706959Y-78038715D01*
X79567087Y-77965303D01*
X79413708Y-77927500D01*
X79413707Y-77927500D01*
X79255737Y-77927500D01*
X79255736Y-77927500D01*
X79102356Y-77965303D01*
X78962484Y-78038715D01*
X78844238Y-78143471D01*
X78754503Y-78273475D01*
X78754502Y-78273476D01*
X78698484Y-78421181D01*
X78679444Y-78577999D01*
X78679444Y-78578000D01*
X76824081Y-78578000D01*
X76824081Y-78577999D01*
X76812207Y-78480211D01*
X76777799Y-78389486D01*
X76756190Y-78332507D01*
X76666453Y-78202500D01*
X76548210Y-78097747D01*
X76548208Y-78097746D01*
X76548207Y-78097745D01*
X76408335Y-78024333D01*
X76254956Y-77986530D01*
X76254955Y-77986530D01*
X76096985Y-77986530D01*
X76096984Y-77986530D01*
X75943604Y-78024333D01*
X75803732Y-78097745D01*
X75789715Y-78110163D01*
X75690645Y-78197931D01*
X75685486Y-78202501D01*
X75595751Y-78332504D01*
X75569255Y-78402369D01*
X75527076Y-78458071D01*
X75461479Y-78482128D01*
X75423640Y-78478794D01*
X75389988Y-78470500D01*
X75389985Y-78470500D01*
X75232015Y-78470500D01*
X75232014Y-78470500D01*
X75078634Y-78508303D01*
X74938762Y-78581715D01*
X74820516Y-78686471D01*
X74730781Y-78816475D01*
X74730780Y-78816476D01*
X74674762Y-78964181D01*
X74655722Y-79120999D01*
X74655722Y-79121000D01*
X56750500Y-79121000D01*
X56750500Y-77390600D01*
X59773122Y-77390600D01*
X59792162Y-77547418D01*
X59847974Y-77694581D01*
X59848180Y-77695123D01*
X59937917Y-77825130D01*
X60056160Y-77929883D01*
X60056162Y-77929884D01*
X60196034Y-78003296D01*
X60349414Y-78041100D01*
X60349415Y-78041100D01*
X60507385Y-78041100D01*
X60660765Y-78003296D01*
X60679429Y-77993500D01*
X60800640Y-77929883D01*
X60918883Y-77825130D01*
X61008620Y-77695123D01*
X61064637Y-77547418D01*
X61083678Y-77390600D01*
X61082143Y-77377953D01*
X61077899Y-77343000D01*
X71988722Y-77343000D01*
X72007762Y-77499818D01*
X72055426Y-77625496D01*
X72063780Y-77647523D01*
X72153517Y-77777530D01*
X72271760Y-77882283D01*
X72271762Y-77882284D01*
X72411634Y-77955696D01*
X72565014Y-77993500D01*
X72565015Y-77993500D01*
X72722985Y-77993500D01*
X72876365Y-77955696D01*
X72944032Y-77920181D01*
X73016240Y-77882283D01*
X73134483Y-77777530D01*
X73224220Y-77647523D01*
X73280237Y-77499818D01*
X73299278Y-77343000D01*
X73296161Y-77317324D01*
X73280237Y-77186181D01*
X73247645Y-77100243D01*
X73224220Y-77038477D01*
X73171432Y-76962000D01*
X74909722Y-76962000D01*
X74928762Y-77118818D01*
X74972363Y-77233782D01*
X74984780Y-77266523D01*
X75074517Y-77396530D01*
X75192760Y-77501283D01*
X75192762Y-77501284D01*
X75332634Y-77574696D01*
X75486014Y-77612500D01*
X75486015Y-77612500D01*
X75643985Y-77612500D01*
X75797365Y-77574696D01*
X75849338Y-77547418D01*
X75937240Y-77501283D01*
X76055483Y-77396530D01*
X76074900Y-77368400D01*
X77627522Y-77368400D01*
X77646562Y-77525218D01*
X77684593Y-77625496D01*
X77702580Y-77672923D01*
X77792317Y-77802930D01*
X77910560Y-77907683D01*
X77910562Y-77907684D01*
X78050434Y-77981096D01*
X78203814Y-78018900D01*
X78203815Y-78018900D01*
X78361785Y-78018900D01*
X78515165Y-77981096D01*
X78545254Y-77965304D01*
X78655040Y-77907683D01*
X78773283Y-77802930D01*
X78863020Y-77672923D01*
X78919037Y-77525218D01*
X78938078Y-77368400D01*
X78933136Y-77327694D01*
X78919037Y-77211581D01*
X78878426Y-77104500D01*
X78863020Y-77063877D01*
X78827764Y-77012800D01*
X79648374Y-77012800D01*
X79667414Y-77169618D01*
X79723432Y-77317323D01*
X79813169Y-77447330D01*
X79931412Y-77552083D01*
X79931414Y-77552084D01*
X80071286Y-77625496D01*
X80224666Y-77663300D01*
X80224667Y-77663300D01*
X80382637Y-77663300D01*
X80536017Y-77625496D01*
X80595280Y-77594392D01*
X80675892Y-77552083D01*
X80794135Y-77447330D01*
X80883872Y-77317323D01*
X80939889Y-77169618D01*
X80958930Y-77012800D01*
X80958930Y-77012799D01*
X80959458Y-77008453D01*
X80987080Y-76944275D01*
X81045014Y-76905219D01*
X81082554Y-76899400D01*
X81104985Y-76899400D01*
X81258365Y-76861596D01*
X81277950Y-76851317D01*
X81398240Y-76788183D01*
X81516483Y-76683430D01*
X81606220Y-76553423D01*
X81662237Y-76405718D01*
X81681278Y-76248900D01*
X81663719Y-76104283D01*
X81662237Y-76092081D01*
X81628925Y-76004245D01*
X81606220Y-75944377D01*
X81516483Y-75814370D01*
X81398240Y-75709617D01*
X81398238Y-75709616D01*
X81398237Y-75709615D01*
X81258365Y-75636203D01*
X81104986Y-75598400D01*
X81104985Y-75598400D01*
X80947015Y-75598400D01*
X80947014Y-75598400D01*
X80793634Y-75636203D01*
X80653762Y-75709615D01*
X80535516Y-75814371D01*
X80445781Y-75944375D01*
X80445780Y-75944376D01*
X80389763Y-76092080D01*
X80370194Y-76253247D01*
X80342572Y-76317425D01*
X80284638Y-76356481D01*
X80247098Y-76362300D01*
X80224666Y-76362300D01*
X80071286Y-76400103D01*
X79931414Y-76473515D01*
X79813168Y-76578271D01*
X79723433Y-76708275D01*
X79723432Y-76708276D01*
X79667414Y-76855981D01*
X79648374Y-77012799D01*
X79648374Y-77012800D01*
X78827764Y-77012800D01*
X78773283Y-76933870D01*
X78655040Y-76829117D01*
X78655038Y-76829116D01*
X78655037Y-76829115D01*
X78515165Y-76755703D01*
X78361786Y-76717900D01*
X78361785Y-76717900D01*
X78203815Y-76717900D01*
X78203814Y-76717900D01*
X78050434Y-76755703D01*
X77910562Y-76829115D01*
X77792316Y-76933871D01*
X77702581Y-77063875D01*
X77702580Y-77063876D01*
X77646562Y-77211581D01*
X77627522Y-77368399D01*
X77627522Y-77368400D01*
X76074900Y-77368400D01*
X76145220Y-77266523D01*
X76201237Y-77118818D01*
X76220278Y-76962000D01*
X76218023Y-76943424D01*
X76201237Y-76805181D01*
X76176555Y-76740100D01*
X76145220Y-76657477D01*
X76055483Y-76527470D01*
X75937240Y-76422717D01*
X75937238Y-76422716D01*
X75937237Y-76422715D01*
X75797365Y-76349303D01*
X75643986Y-76311500D01*
X75643985Y-76311500D01*
X75486015Y-76311500D01*
X75486014Y-76311500D01*
X75332634Y-76349303D01*
X75192762Y-76422715D01*
X75074516Y-76527471D01*
X74984781Y-76657475D01*
X74984780Y-76657476D01*
X74928762Y-76805181D01*
X74909722Y-76961999D01*
X74909722Y-76962000D01*
X73171432Y-76962000D01*
X73134483Y-76908470D01*
X73016240Y-76803717D01*
X73016238Y-76803716D01*
X73016237Y-76803715D01*
X72876365Y-76730303D01*
X72722986Y-76692500D01*
X72722985Y-76692500D01*
X72565015Y-76692500D01*
X72565014Y-76692500D01*
X72411634Y-76730303D01*
X72271762Y-76803715D01*
X72153516Y-76908471D01*
X72063781Y-77038475D01*
X72063780Y-77038476D01*
X72007762Y-77186181D01*
X71988722Y-77342999D01*
X71988722Y-77343000D01*
X61077899Y-77343000D01*
X61064637Y-77233781D01*
X61039710Y-77168056D01*
X61008620Y-77086077D01*
X60918883Y-76956070D01*
X60800640Y-76851317D01*
X60800638Y-76851316D01*
X60800637Y-76851315D01*
X60660765Y-76777903D01*
X60507386Y-76740100D01*
X60507385Y-76740100D01*
X60349415Y-76740100D01*
X60349414Y-76740100D01*
X60196034Y-76777903D01*
X60056162Y-76851315D01*
X59937916Y-76956071D01*
X59848181Y-77086075D01*
X59848180Y-77086076D01*
X59792162Y-77233781D01*
X59773122Y-77390599D01*
X59773122Y-77390600D01*
X56750500Y-77390600D01*
X56750500Y-75565000D01*
X65384722Y-75565000D01*
X65403762Y-75721818D01*
X65449078Y-75841304D01*
X65459780Y-75869523D01*
X65549517Y-75999530D01*
X65667760Y-76104283D01*
X65667762Y-76104284D01*
X65807634Y-76177696D01*
X65961014Y-76215500D01*
X65961015Y-76215500D01*
X66118985Y-76215500D01*
X66272365Y-76177696D01*
X66326135Y-76149475D01*
X66412240Y-76104283D01*
X66530483Y-75999530D01*
X66620220Y-75869523D01*
X66676237Y-75721818D01*
X66695278Y-75565000D01*
X66689329Y-75516000D01*
X73378222Y-75516000D01*
X73397262Y-75672818D01*
X73433924Y-75769485D01*
X73453280Y-75820523D01*
X73543017Y-75950530D01*
X73661260Y-76055283D01*
X73661262Y-76055284D01*
X73801134Y-76128696D01*
X73954514Y-76166500D01*
X73954515Y-76166500D01*
X74112485Y-76166500D01*
X74265865Y-76128696D01*
X74291080Y-76115462D01*
X74405740Y-76055283D01*
X74523983Y-75950530D01*
X74613720Y-75820523D01*
X74669737Y-75672818D01*
X74688778Y-75516000D01*
X74677839Y-75425904D01*
X74669737Y-75359181D01*
X74626023Y-75243918D01*
X74613720Y-75211477D01*
X74523983Y-75081470D01*
X74405740Y-74976717D01*
X74405738Y-74976716D01*
X74405737Y-74976715D01*
X74265865Y-74903303D01*
X74112486Y-74865500D01*
X74112485Y-74865500D01*
X73954515Y-74865500D01*
X73954514Y-74865500D01*
X73801134Y-74903303D01*
X73661262Y-74976715D01*
X73543016Y-75081471D01*
X73453281Y-75211475D01*
X73453280Y-75211476D01*
X73397262Y-75359181D01*
X73378222Y-75515999D01*
X73378222Y-75516000D01*
X66689329Y-75516000D01*
X66687695Y-75502543D01*
X66676237Y-75408181D01*
X66640415Y-75313728D01*
X66620220Y-75260477D01*
X66530483Y-75130470D01*
X66412240Y-75025717D01*
X66412238Y-75025716D01*
X66412237Y-75025715D01*
X66272365Y-74952303D01*
X66118986Y-74914500D01*
X66118985Y-74914500D01*
X65961015Y-74914500D01*
X65961014Y-74914500D01*
X65807634Y-74952303D01*
X65667762Y-75025715D01*
X65656132Y-75036018D01*
X65554386Y-75126157D01*
X65549516Y-75130471D01*
X65459781Y-75260475D01*
X65459780Y-75260476D01*
X65403762Y-75408181D01*
X65384722Y-75564999D01*
X65384722Y-75565000D01*
X56750500Y-75565000D01*
X56750500Y-74168000D01*
X84180722Y-74168000D01*
X84199762Y-74324818D01*
X84242156Y-74436600D01*
X84255780Y-74472523D01*
X84345517Y-74602530D01*
X84463760Y-74707283D01*
X84463762Y-74707284D01*
X84603634Y-74780696D01*
X84757014Y-74818500D01*
X84757015Y-74818500D01*
X84914985Y-74818500D01*
X85068365Y-74780696D01*
X85101150Y-74763489D01*
X85208240Y-74707283D01*
X85326483Y-74602530D01*
X85416220Y-74472523D01*
X85472237Y-74324818D01*
X85491278Y-74168000D01*
X86593722Y-74168000D01*
X86612762Y-74324818D01*
X86655156Y-74436600D01*
X86668780Y-74472523D01*
X86758517Y-74602530D01*
X86876760Y-74707283D01*
X86876762Y-74707284D01*
X87016634Y-74780696D01*
X87170014Y-74818500D01*
X87170015Y-74818500D01*
X87327985Y-74818500D01*
X87481365Y-74780696D01*
X87514150Y-74763489D01*
X87621240Y-74707283D01*
X87739483Y-74602530D01*
X87829220Y-74472523D01*
X87885237Y-74324818D01*
X87904278Y-74168000D01*
X87888885Y-74041227D01*
X99293716Y-74041227D01*
X99312756Y-74198045D01*
X99366561Y-74339915D01*
X99368774Y-74345750D01*
X99458511Y-74475757D01*
X99576754Y-74580510D01*
X99576756Y-74580511D01*
X99716628Y-74653923D01*
X99870008Y-74691727D01*
X99870009Y-74691727D01*
X100027979Y-74691727D01*
X100181359Y-74653923D01*
X100183937Y-74652570D01*
X100321234Y-74580510D01*
X100439477Y-74475757D01*
X100529214Y-74345750D01*
X100585231Y-74198045D01*
X100604272Y-74041227D01*
X100585231Y-73884409D01*
X100529214Y-73736704D01*
X100439477Y-73606697D01*
X100321234Y-73501944D01*
X100321232Y-73501943D01*
X100321231Y-73501942D01*
X100181359Y-73428530D01*
X100027980Y-73390727D01*
X100027979Y-73390727D01*
X99870009Y-73390727D01*
X99870008Y-73390727D01*
X99716628Y-73428530D01*
X99576756Y-73501942D01*
X99458510Y-73606698D01*
X99368775Y-73736702D01*
X99368774Y-73736703D01*
X99312756Y-73884408D01*
X99293716Y-74041226D01*
X99293716Y-74041227D01*
X87888885Y-74041227D01*
X87885237Y-74011182D01*
X87829220Y-73863477D01*
X87739483Y-73733470D01*
X87621240Y-73628717D01*
X87621238Y-73628716D01*
X87621237Y-73628715D01*
X87481365Y-73555303D01*
X87327986Y-73517500D01*
X87327985Y-73517500D01*
X87170015Y-73517500D01*
X87170014Y-73517500D01*
X87016634Y-73555303D01*
X86876762Y-73628715D01*
X86758516Y-73733471D01*
X86668781Y-73863475D01*
X86668780Y-73863476D01*
X86612762Y-74011181D01*
X86593722Y-74167999D01*
X86593722Y-74168000D01*
X85491278Y-74168000D01*
X85472237Y-74011182D01*
X85416220Y-73863477D01*
X85326483Y-73733470D01*
X85208240Y-73628717D01*
X85208238Y-73628716D01*
X85208237Y-73628715D01*
X85068365Y-73555303D01*
X84914986Y-73517500D01*
X84914985Y-73517500D01*
X84757015Y-73517500D01*
X84757014Y-73517500D01*
X84603634Y-73555303D01*
X84463762Y-73628715D01*
X84345516Y-73733471D01*
X84255781Y-73863475D01*
X84255780Y-73863476D01*
X84199762Y-74011181D01*
X84180722Y-74167999D01*
X84180722Y-74168000D01*
X56750500Y-74168000D01*
X56750500Y-72713088D01*
X77941922Y-72713088D01*
X77960962Y-72869906D01*
X78012387Y-73005500D01*
X78016980Y-73017611D01*
X78106717Y-73147618D01*
X78224960Y-73252371D01*
X78224962Y-73252372D01*
X78364834Y-73325784D01*
X78518214Y-73363588D01*
X78518215Y-73363588D01*
X78676185Y-73363588D01*
X78829565Y-73325784D01*
X78829565Y-73325783D01*
X78969440Y-73252371D01*
X79087683Y-73147618D01*
X79177420Y-73017611D01*
X79233437Y-72869906D01*
X79252478Y-72713088D01*
X79248499Y-72680313D01*
X79241904Y-72626002D01*
X88507300Y-72626002D01*
X88513138Y-72680312D01*
X88524343Y-72731817D01*
X88524345Y-72731824D01*
X88528012Y-72745191D01*
X88531579Y-72758193D01*
X88531583Y-72758203D01*
X88580905Y-72844818D01*
X88580911Y-72844827D01*
X88616705Y-72886136D01*
X88626667Y-72897632D01*
X88659441Y-72929257D01*
X88747776Y-72975465D01*
X88747777Y-72975465D01*
X88747777Y-72975466D01*
X88792018Y-72988456D01*
X88814815Y-72995150D01*
X88814819Y-72995150D01*
X88814821Y-72995151D01*
X88826452Y-72996823D01*
X88886800Y-73005500D01*
X88886801Y-73005500D01*
X101138800Y-73005500D01*
X101193113Y-72999661D01*
X101209240Y-72996152D01*
X101244617Y-72988457D01*
X101244617Y-72988456D01*
X101244624Y-72988455D01*
X101270998Y-72981219D01*
X101299874Y-72964775D01*
X101357618Y-72931894D01*
X101357621Y-72931891D01*
X101357628Y-72931888D01*
X101393738Y-72900597D01*
X101410429Y-72886136D01*
X101426090Y-72869906D01*
X101442057Y-72853359D01*
X101471852Y-72796400D01*
X133558321Y-72796400D01*
X133577362Y-72953218D01*
X133601784Y-73017612D01*
X133633380Y-73100923D01*
X133723117Y-73230930D01*
X133841360Y-73335683D01*
X133841362Y-73335684D01*
X133981234Y-73409096D01*
X134134614Y-73446900D01*
X134134615Y-73446900D01*
X134292585Y-73446900D01*
X134445965Y-73409096D01*
X134445964Y-73409095D01*
X134585840Y-73335683D01*
X134704083Y-73230930D01*
X134793820Y-73100923D01*
X134849837Y-72953218D01*
X134868878Y-72796400D01*
X134864240Y-72758198D01*
X134849837Y-72639581D01*
X134818241Y-72556270D01*
X134793820Y-72491877D01*
X134704083Y-72361870D01*
X134585840Y-72257117D01*
X134585838Y-72257116D01*
X134585837Y-72257115D01*
X134445965Y-72183703D01*
X134292586Y-72145900D01*
X134292585Y-72145900D01*
X134134615Y-72145900D01*
X134134614Y-72145900D01*
X133981234Y-72183703D01*
X133841362Y-72257115D01*
X133723116Y-72361871D01*
X133633381Y-72491875D01*
X133633380Y-72491876D01*
X133577362Y-72639581D01*
X133558321Y-72796399D01*
X133558321Y-72796400D01*
X101471852Y-72796400D01*
X101488265Y-72765024D01*
X101490270Y-72758198D01*
X101503515Y-72713088D01*
X101507950Y-72697985D01*
X101518300Y-72626000D01*
X101518300Y-68129500D01*
X101537985Y-68062461D01*
X101590789Y-68016706D01*
X101642300Y-68005500D01*
X103117794Y-68005500D01*
X103123859Y-68004797D01*
X103176209Y-67998732D01*
X103228365Y-67986483D01*
X103231401Y-67985770D01*
X103231402Y-67985770D01*
X103231409Y-67985768D01*
X103261623Y-67976671D01*
X103346581Y-67924513D01*
X103397849Y-67877043D01*
X103428378Y-67843242D01*
X103428377Y-67843242D01*
X103434322Y-67836661D01*
X103437090Y-67839161D01*
X103477113Y-67805740D01*
X103546441Y-67797060D01*
X103556221Y-67799055D01*
X103669635Y-67827009D01*
X103827605Y-67827009D01*
X103980985Y-67789205D01*
X104030344Y-67763299D01*
X104120860Y-67715792D01*
X104239103Y-67611039D01*
X104257507Y-67584374D01*
X104311786Y-67540387D01*
X104381235Y-67532726D01*
X104443800Y-67563828D01*
X104479619Y-67623818D01*
X104482652Y-67639867D01*
X104484963Y-67658899D01*
X104506200Y-67714895D01*
X104540980Y-67806603D01*
X104630717Y-67936610D01*
X104748960Y-68041363D01*
X104748962Y-68041364D01*
X104888834Y-68114776D01*
X105042214Y-68152580D01*
X105042215Y-68152580D01*
X105200185Y-68152580D01*
X105353565Y-68114776D01*
X105357528Y-68112696D01*
X105493440Y-68041363D01*
X105570491Y-67973101D01*
X105633720Y-67943382D01*
X105702984Y-67952565D01*
X105710191Y-67956044D01*
X105747318Y-67975465D01*
X105747319Y-67975466D01*
X105791560Y-67988456D01*
X105814357Y-67995150D01*
X105814361Y-67995150D01*
X105814363Y-67995151D01*
X105825994Y-67996823D01*
X105886342Y-68005500D01*
X105886343Y-68005500D01*
X106638800Y-68005500D01*
X106693113Y-67999661D01*
X106709240Y-67996152D01*
X106744617Y-67988457D01*
X106744617Y-67988456D01*
X106744624Y-67988455D01*
X106770998Y-67981219D01*
X106816068Y-67955554D01*
X106857618Y-67931894D01*
X106857621Y-67931891D01*
X106857628Y-67931888D01*
X106910432Y-67886133D01*
X106942057Y-67853359D01*
X106988265Y-67765024D01*
X107007950Y-67697985D01*
X107018300Y-67626000D01*
X107018300Y-63627000D01*
X135488722Y-63627000D01*
X135507762Y-63783818D01*
X135563779Y-63931523D01*
X135563780Y-63931523D01*
X135653517Y-64061530D01*
X135771760Y-64166283D01*
X135771762Y-64166284D01*
X135911634Y-64239696D01*
X136065014Y-64277500D01*
X136065015Y-64277500D01*
X136222985Y-64277500D01*
X136376365Y-64239696D01*
X136376364Y-64239696D01*
X136516240Y-64166283D01*
X136634483Y-64061530D01*
X136724220Y-63931523D01*
X136780237Y-63783818D01*
X136799278Y-63627000D01*
X136783858Y-63499999D01*
X136780237Y-63470181D01*
X136732072Y-63343182D01*
X136724220Y-63322477D01*
X136634483Y-63192470D01*
X136516240Y-63087717D01*
X136516238Y-63087716D01*
X136516237Y-63087715D01*
X136376365Y-63014303D01*
X136222986Y-62976500D01*
X136222985Y-62976500D01*
X136065015Y-62976500D01*
X136065014Y-62976500D01*
X135911634Y-63014303D01*
X135771762Y-63087715D01*
X135653516Y-63192471D01*
X135563781Y-63322475D01*
X135563780Y-63322476D01*
X135507762Y-63470181D01*
X135488722Y-63626999D01*
X135488722Y-63627000D01*
X107018300Y-63627000D01*
X107018300Y-62374000D01*
X107012461Y-62319687D01*
X107001255Y-62268176D01*
X106994019Y-62241802D01*
X106969732Y-62199151D01*
X106944694Y-62155181D01*
X106944688Y-62155172D01*
X106898936Y-62102371D01*
X106866159Y-62070743D01*
X106777822Y-62024534D01*
X106777822Y-62024533D01*
X106710790Y-62004851D01*
X106710778Y-62004848D01*
X106638801Y-61994500D01*
X106638800Y-61994500D01*
X88886800Y-61994500D01*
X88886797Y-61994500D01*
X88832487Y-62000338D01*
X88780983Y-62011543D01*
X88780982Y-62011543D01*
X88780976Y-62011545D01*
X88769977Y-62014562D01*
X88754606Y-62018779D01*
X88754596Y-62018783D01*
X88667981Y-62068105D01*
X88667972Y-62068111D01*
X88615171Y-62113864D01*
X88583543Y-62146640D01*
X88537334Y-62234977D01*
X88537333Y-62234977D01*
X88517651Y-62302009D01*
X88517648Y-62302021D01*
X88507781Y-62370654D01*
X88507300Y-62374000D01*
X88507300Y-64599999D01*
X88507300Y-67033042D01*
X88508319Y-67049151D01*
X88508320Y-67049158D01*
X88508319Y-67049157D01*
X88513272Y-67088152D01*
X88513936Y-67093017D01*
X88513938Y-67093025D01*
X88547360Y-67186941D01*
X88562978Y-67213099D01*
X88583178Y-67246933D01*
X88609918Y-67283802D01*
X88688812Y-67344744D01*
X88751377Y-67375848D01*
X88751381Y-67375849D01*
X88751382Y-67375850D01*
X88765802Y-67381478D01*
X88821098Y-67424187D01*
X88844525Y-67490012D01*
X88844722Y-67496993D01*
X88844722Y-67500399D01*
X88825037Y-67567438D01*
X88772233Y-67613193D01*
X88762801Y-67616427D01*
X88762855Y-67616562D01*
X88754599Y-67619810D01*
X88667977Y-67669136D01*
X88667972Y-67669139D01*
X88634677Y-67697990D01*
X88615168Y-67714895D01*
X88612062Y-67718113D01*
X88583543Y-67747668D01*
X88537334Y-67836005D01*
X88537333Y-67836005D01*
X88517651Y-67903037D01*
X88517648Y-67903049D01*
X88507300Y-67975026D01*
X88507300Y-72626002D01*
X79241904Y-72626002D01*
X79233437Y-72556269D01*
X79209015Y-72491875D01*
X79177420Y-72408565D01*
X79087683Y-72278558D01*
X78969440Y-72173805D01*
X78969438Y-72173804D01*
X78969437Y-72173803D01*
X78829565Y-72100391D01*
X78676186Y-72062588D01*
X78676185Y-72062588D01*
X78518215Y-72062588D01*
X78518214Y-72062588D01*
X78364834Y-72100391D01*
X78224962Y-72173803D01*
X78106716Y-72278559D01*
X78016981Y-72408563D01*
X78016980Y-72408564D01*
X77960962Y-72556269D01*
X77941922Y-72713087D01*
X77941922Y-72713088D01*
X56750500Y-72713088D01*
X56750500Y-70510400D01*
X78592722Y-70510400D01*
X78611762Y-70667218D01*
X78667780Y-70814923D01*
X78757517Y-70944930D01*
X78875760Y-71049683D01*
X78875762Y-71049684D01*
X79015634Y-71123096D01*
X79169014Y-71160900D01*
X79169015Y-71160900D01*
X79326985Y-71160900D01*
X79480365Y-71123096D01*
X79480365Y-71123095D01*
X79620240Y-71049683D01*
X79738483Y-70944930D01*
X79828220Y-70814923D01*
X79884237Y-70667218D01*
X79903278Y-70510400D01*
X79884237Y-70353582D01*
X79828220Y-70205877D01*
X79738483Y-70075870D01*
X79620240Y-69971117D01*
X79620238Y-69971116D01*
X79620237Y-69971115D01*
X79480365Y-69897703D01*
X79326986Y-69859900D01*
X79326985Y-69859900D01*
X79169015Y-69859900D01*
X79169014Y-69859900D01*
X79015634Y-69897703D01*
X78875762Y-69971115D01*
X78757516Y-70075871D01*
X78667781Y-70205875D01*
X78667780Y-70205876D01*
X78611762Y-70353581D01*
X78592722Y-70510399D01*
X78592722Y-70510400D01*
X56750500Y-70510400D01*
X56750500Y-69311500D01*
X75133222Y-69311500D01*
X75152262Y-69468318D01*
X75208280Y-69616023D01*
X75298017Y-69746030D01*
X75416260Y-69850783D01*
X75416262Y-69850784D01*
X75556134Y-69924196D01*
X75709514Y-69962000D01*
X75709515Y-69962000D01*
X75867485Y-69962000D01*
X76020865Y-69924196D01*
X76020865Y-69924195D01*
X76160740Y-69850783D01*
X76278983Y-69746030D01*
X76368720Y-69616023D01*
X76424737Y-69468318D01*
X76443778Y-69311500D01*
X76439067Y-69272696D01*
X76424737Y-69154681D01*
X76401924Y-69094528D01*
X76368720Y-69006977D01*
X76278983Y-68876970D01*
X76160740Y-68772217D01*
X76160738Y-68772216D01*
X76160737Y-68772215D01*
X76020865Y-68698803D01*
X75867486Y-68661000D01*
X75867485Y-68661000D01*
X75709515Y-68661000D01*
X75709514Y-68661000D01*
X75556134Y-68698803D01*
X75416262Y-68772215D01*
X75298016Y-68876971D01*
X75208281Y-69006975D01*
X75208280Y-69006976D01*
X75152262Y-69154681D01*
X75133222Y-69311499D01*
X75133222Y-69311500D01*
X56750500Y-69311500D01*
X56750500Y-68565000D01*
X77195722Y-68565000D01*
X77214762Y-68721818D01*
X77270779Y-68869523D01*
X77270780Y-68869523D01*
X77360517Y-68999530D01*
X77478760Y-69104283D01*
X77478762Y-69104284D01*
X77618634Y-69177696D01*
X77772014Y-69215500D01*
X77772015Y-69215500D01*
X77929985Y-69215500D01*
X78083365Y-69177696D01*
X78127216Y-69154681D01*
X78223240Y-69104283D01*
X78341483Y-68999530D01*
X78431220Y-68869523D01*
X78487237Y-68721818D01*
X78494743Y-68660000D01*
X85450722Y-68660000D01*
X85469762Y-68816818D01*
X85525780Y-68964522D01*
X85525780Y-68964523D01*
X85615517Y-69094530D01*
X85733760Y-69199283D01*
X85733762Y-69199284D01*
X85873634Y-69272696D01*
X86027014Y-69310500D01*
X86027015Y-69310500D01*
X86184985Y-69310500D01*
X86338365Y-69272696D01*
X86447341Y-69215500D01*
X86478240Y-69199283D01*
X86596483Y-69094530D01*
X86686220Y-68964523D01*
X86742237Y-68816818D01*
X86761278Y-68660000D01*
X86742237Y-68503182D01*
X86686220Y-68355477D01*
X86596483Y-68225470D01*
X86478240Y-68120717D01*
X86478238Y-68120716D01*
X86478237Y-68120715D01*
X86338365Y-68047303D01*
X86184986Y-68009500D01*
X86184985Y-68009500D01*
X86027015Y-68009500D01*
X86027014Y-68009500D01*
X85873634Y-68047303D01*
X85733762Y-68120715D01*
X85615516Y-68225471D01*
X85525781Y-68355475D01*
X85525780Y-68355476D01*
X85469762Y-68503181D01*
X85450722Y-68659999D01*
X85450722Y-68660000D01*
X78494743Y-68660000D01*
X78506278Y-68565000D01*
X78487237Y-68408182D01*
X78431220Y-68260477D01*
X78341483Y-68130470D01*
X78223240Y-68025717D01*
X78223238Y-68025716D01*
X78223237Y-68025715D01*
X78083365Y-67952303D01*
X77929986Y-67914500D01*
X77929985Y-67914500D01*
X77772015Y-67914500D01*
X77772014Y-67914500D01*
X77611351Y-67954099D01*
X77610647Y-67951246D01*
X77554486Y-67955554D01*
X77504413Y-67928546D01*
X77500618Y-67986483D01*
X77466406Y-68036660D01*
X77360518Y-68130468D01*
X77270781Y-68260475D01*
X77270780Y-68260476D01*
X77214762Y-68408181D01*
X77195722Y-68564999D01*
X77195722Y-68565000D01*
X56750500Y-68565000D01*
X56750500Y-67213100D01*
X76458122Y-67213100D01*
X76477162Y-67369918D01*
X76525356Y-67496993D01*
X76533180Y-67517623D01*
X76622917Y-67647630D01*
X76741160Y-67752383D01*
X76741162Y-67752384D01*
X76881034Y-67825796D01*
X77034414Y-67863600D01*
X77034415Y-67863600D01*
X77192385Y-67863600D01*
X77353049Y-67824001D01*
X77353755Y-67826869D01*
X77409812Y-67822523D01*
X77459968Y-67849522D01*
X77463817Y-67791520D01*
X77497994Y-67741438D01*
X77527956Y-67714895D01*
X77603883Y-67647630D01*
X77693620Y-67517623D01*
X77700304Y-67500000D01*
X81844722Y-67500000D01*
X81863762Y-67656818D01*
X81898218Y-67747669D01*
X81919780Y-67804523D01*
X82009517Y-67934530D01*
X82127760Y-68039283D01*
X82127762Y-68039284D01*
X82267634Y-68112696D01*
X82421014Y-68150500D01*
X82421015Y-68150500D01*
X82578985Y-68150500D01*
X82732365Y-68112696D01*
X82732365Y-68112695D01*
X82872240Y-68039283D01*
X82990483Y-67934530D01*
X83080220Y-67804523D01*
X83136237Y-67656818D01*
X83155278Y-67500000D01*
X83142069Y-67391209D01*
X83136237Y-67343181D01*
X83099736Y-67246936D01*
X83080220Y-67195477D01*
X82990483Y-67065470D01*
X82872240Y-66960717D01*
X82872238Y-66960716D01*
X82872237Y-66960715D01*
X82732365Y-66887303D01*
X82578986Y-66849500D01*
X82578985Y-66849500D01*
X82421015Y-66849500D01*
X82421014Y-66849500D01*
X82267634Y-66887303D01*
X82127762Y-66960715D01*
X82009516Y-67065471D01*
X81919781Y-67195475D01*
X81919780Y-67195476D01*
X81863762Y-67343181D01*
X81844722Y-67499999D01*
X81844722Y-67500000D01*
X77700304Y-67500000D01*
X77749637Y-67369918D01*
X77768678Y-67213100D01*
X77754098Y-67093017D01*
X77749637Y-67056281D01*
X77713393Y-66960715D01*
X77693620Y-66908577D01*
X77603883Y-66778570D01*
X77485640Y-66673817D01*
X77485638Y-66673816D01*
X77485637Y-66673815D01*
X77345765Y-66600403D01*
X77192386Y-66562600D01*
X77192385Y-66562600D01*
X77034415Y-66562600D01*
X77034414Y-66562600D01*
X76881034Y-66600403D01*
X76741162Y-66673815D01*
X76622916Y-66778571D01*
X76533181Y-66908575D01*
X76533180Y-66908576D01*
X76477162Y-67056281D01*
X76458122Y-67213099D01*
X76458122Y-67213100D01*
X56750500Y-67213100D01*
X56750500Y-65605000D01*
X62855534Y-65605000D01*
X62875312Y-65755234D01*
X62875313Y-65755236D01*
X62933302Y-65895233D01*
X63025549Y-66015451D01*
X63145767Y-66107698D01*
X63285764Y-66165687D01*
X63398280Y-66180500D01*
X63398287Y-66180500D01*
X63473713Y-66180500D01*
X63473720Y-66180500D01*
X63586236Y-66165687D01*
X63726233Y-66107698D01*
X63846451Y-66015451D01*
X63938698Y-65895233D01*
X63996687Y-65755236D01*
X64016466Y-65605000D01*
X68635534Y-65605000D01*
X68655312Y-65755234D01*
X68655313Y-65755236D01*
X68713302Y-65895233D01*
X68805549Y-66015451D01*
X68925767Y-66107698D01*
X69065764Y-66165687D01*
X69178280Y-66180500D01*
X69178287Y-66180500D01*
X69253713Y-66180500D01*
X69253720Y-66180500D01*
X69366236Y-66165687D01*
X69506233Y-66107698D01*
X69626451Y-66015451D01*
X69718698Y-65895233D01*
X69776687Y-65755236D01*
X69796466Y-65605000D01*
X69776687Y-65454764D01*
X69718698Y-65314767D01*
X69626451Y-65194549D01*
X69506233Y-65102302D01*
X69506229Y-65102300D01*
X69442801Y-65076027D01*
X69366236Y-65044313D01*
X69352171Y-65042461D01*
X69253727Y-65029500D01*
X69253720Y-65029500D01*
X69178280Y-65029500D01*
X69178272Y-65029500D01*
X69065764Y-65044313D01*
X69065763Y-65044313D01*
X68925770Y-65102300D01*
X68805549Y-65194549D01*
X68713300Y-65314770D01*
X68655313Y-65454763D01*
X68655312Y-65454765D01*
X68635534Y-65604999D01*
X68635534Y-65605000D01*
X64016466Y-65605000D01*
X63996687Y-65454764D01*
X63938698Y-65314767D01*
X63846451Y-65194549D01*
X63726233Y-65102302D01*
X63726229Y-65102300D01*
X63662801Y-65076027D01*
X63586236Y-65044313D01*
X63572171Y-65042461D01*
X63473727Y-65029500D01*
X63473720Y-65029500D01*
X63398280Y-65029500D01*
X63398272Y-65029500D01*
X63285764Y-65044313D01*
X63285763Y-65044313D01*
X63145770Y-65102300D01*
X63025549Y-65194549D01*
X62933300Y-65314770D01*
X62875313Y-65454763D01*
X62875312Y-65454765D01*
X62855534Y-65604999D01*
X62855534Y-65605000D01*
X56750500Y-65605000D01*
X56750500Y-63830138D01*
X77243500Y-63830138D01*
X77258676Y-63989070D01*
X77318695Y-64193475D01*
X77416313Y-64382828D01*
X77548002Y-64550285D01*
X77709003Y-64689793D01*
X77709006Y-64689795D01*
X77709009Y-64689797D01*
X77831999Y-64760804D01*
X77893497Y-64796310D01*
X78094815Y-64865987D01*
X78305681Y-64896305D01*
X78518474Y-64886168D01*
X78725504Y-64835943D01*
X78919287Y-64747446D01*
X78919289Y-64747444D01*
X78919292Y-64747443D01*
X79092814Y-64623877D01*
X79092820Y-64623873D01*
X79239831Y-64469693D01*
X79355006Y-64290477D01*
X79434183Y-64092702D01*
X79474500Y-63883517D01*
X79474500Y-63830138D01*
X79783500Y-63830138D01*
X79798676Y-63989070D01*
X79858695Y-64193475D01*
X79956313Y-64382828D01*
X80088002Y-64550285D01*
X80249003Y-64689793D01*
X80249006Y-64689795D01*
X80249009Y-64689797D01*
X80371998Y-64760804D01*
X80433497Y-64796310D01*
X80634815Y-64865987D01*
X80845681Y-64896305D01*
X81058474Y-64886168D01*
X81265504Y-64835943D01*
X81459287Y-64747446D01*
X81459289Y-64747444D01*
X81459292Y-64747443D01*
X81632814Y-64623877D01*
X81632820Y-64623873D01*
X81779831Y-64469693D01*
X81895006Y-64290477D01*
X81974183Y-64092702D01*
X82014500Y-63883517D01*
X82014500Y-63830138D01*
X82323500Y-63830138D01*
X82338676Y-63989070D01*
X82398695Y-64193475D01*
X82496313Y-64382828D01*
X82628002Y-64550285D01*
X82789003Y-64689793D01*
X82789006Y-64689795D01*
X82789009Y-64689797D01*
X82911999Y-64760804D01*
X82973497Y-64796310D01*
X83174815Y-64865987D01*
X83385681Y-64896305D01*
X83598474Y-64886168D01*
X83805504Y-64835943D01*
X83999287Y-64747446D01*
X83999289Y-64747444D01*
X83999292Y-64747443D01*
X84172814Y-64623877D01*
X84172820Y-64623873D01*
X84319831Y-64469693D01*
X84435006Y-64290477D01*
X84514183Y-64092702D01*
X84554500Y-63883517D01*
X84554500Y-63500000D01*
X85844722Y-63500000D01*
X85863762Y-63656818D01*
X85911928Y-63783818D01*
X85919780Y-63804523D01*
X86009517Y-63934530D01*
X86127760Y-64039283D01*
X86127762Y-64039284D01*
X86267634Y-64112696D01*
X86421014Y-64150500D01*
X86421015Y-64150500D01*
X86578985Y-64150500D01*
X86732365Y-64112696D01*
X86770460Y-64092702D01*
X86872240Y-64039283D01*
X86990483Y-63934530D01*
X87080220Y-63804523D01*
X87136237Y-63656818D01*
X87155278Y-63500000D01*
X87151658Y-63470182D01*
X87136237Y-63343181D01*
X87106558Y-63264926D01*
X87080220Y-63195477D01*
X86990483Y-63065470D01*
X86872240Y-62960717D01*
X86872238Y-62960716D01*
X86872237Y-62960715D01*
X86732365Y-62887303D01*
X86578986Y-62849500D01*
X86578985Y-62849500D01*
X86421015Y-62849500D01*
X86421014Y-62849500D01*
X86267634Y-62887303D01*
X86127762Y-62960715D01*
X86009516Y-63065471D01*
X85919781Y-63195475D01*
X85919780Y-63195476D01*
X85863762Y-63343181D01*
X85844722Y-63499999D01*
X85844722Y-63500000D01*
X84554500Y-63500000D01*
X84554500Y-63423862D01*
X84539324Y-63264930D01*
X84479305Y-63060525D01*
X84381687Y-62871172D01*
X84249998Y-62703715D01*
X84088997Y-62564207D01*
X84088993Y-62564205D01*
X84088990Y-62564202D01*
X83904505Y-62457691D01*
X83904504Y-62457690D01*
X83904503Y-62457690D01*
X83789991Y-62418057D01*
X83703186Y-62388013D01*
X83650468Y-62380433D01*
X83492319Y-62357695D01*
X83492316Y-62357695D01*
X83461905Y-62359143D01*
X83279526Y-62367832D01*
X83072496Y-62418057D01*
X82998547Y-62451827D01*
X82878707Y-62506556D01*
X82705185Y-62630122D01*
X82705178Y-62630128D01*
X82558168Y-62784307D01*
X82442994Y-62963522D01*
X82363816Y-63161299D01*
X82332752Y-63322477D01*
X82323500Y-63370483D01*
X82323500Y-63830138D01*
X82014500Y-63830138D01*
X82014500Y-63423862D01*
X81999324Y-63264930D01*
X81939305Y-63060525D01*
X81841687Y-62871172D01*
X81709998Y-62703715D01*
X81548997Y-62564207D01*
X81548993Y-62564205D01*
X81548990Y-62564202D01*
X81364505Y-62457691D01*
X81364504Y-62457690D01*
X81364503Y-62457690D01*
X81261231Y-62421947D01*
X81204317Y-62381418D01*
X81178349Y-62316553D01*
X81191573Y-62247946D01*
X81239789Y-62197380D01*
X81247993Y-62193044D01*
X81248518Y-62192790D01*
X81248522Y-62192789D01*
X81401262Y-62096816D01*
X81528816Y-61969262D01*
X81624789Y-61816522D01*
X81684368Y-61646255D01*
X81704565Y-61467000D01*
X81687855Y-61318696D01*
X81684369Y-61287750D01*
X81684368Y-61287745D01*
X81632855Y-61140530D01*
X81624789Y-61117478D01*
X81528816Y-60964738D01*
X81401262Y-60837184D01*
X81401261Y-60837184D01*
X81248523Y-60741211D01*
X81147896Y-60706000D01*
X135539522Y-60706000D01*
X135558562Y-60862818D01*
X135597216Y-60964738D01*
X135614580Y-61010523D01*
X135704317Y-61140530D01*
X135822560Y-61245283D01*
X135822562Y-61245284D01*
X135962434Y-61318696D01*
X136115814Y-61356500D01*
X136115815Y-61356500D01*
X136273785Y-61356500D01*
X136427165Y-61318696D01*
X136567040Y-61245283D01*
X136685283Y-61140530D01*
X136775020Y-61010523D01*
X136831037Y-60862818D01*
X136850078Y-60706000D01*
X136831037Y-60549182D01*
X136775020Y-60401477D01*
X136685283Y-60271470D01*
X136567040Y-60166717D01*
X136567038Y-60166716D01*
X136567037Y-60166715D01*
X136427165Y-60093303D01*
X136273786Y-60055500D01*
X136273785Y-60055500D01*
X136115815Y-60055500D01*
X136115814Y-60055500D01*
X135962434Y-60093303D01*
X135822562Y-60166715D01*
X135704316Y-60271471D01*
X135614581Y-60401475D01*
X135614580Y-60401476D01*
X135558562Y-60549181D01*
X135539522Y-60705999D01*
X135539522Y-60706000D01*
X81147896Y-60706000D01*
X81078254Y-60681631D01*
X81078249Y-60681630D01*
X80943960Y-60666500D01*
X80943954Y-60666500D01*
X80854046Y-60666500D01*
X80854039Y-60666500D01*
X80719750Y-60681630D01*
X80719745Y-60681631D01*
X80549476Y-60741211D01*
X80396737Y-60837184D01*
X80269184Y-60964737D01*
X80173211Y-61117476D01*
X80113631Y-61287745D01*
X80113630Y-61287750D01*
X80093435Y-61466996D01*
X80093435Y-61467003D01*
X80113630Y-61646249D01*
X80113631Y-61646254D01*
X80173211Y-61816523D01*
X80269184Y-61969262D01*
X80396738Y-62096816D01*
X80476032Y-62146640D01*
X80555374Y-62196494D01*
X80553704Y-62199151D01*
X80595297Y-62236600D01*
X80613703Y-62304001D01*
X80592747Y-62370654D01*
X80539082Y-62415397D01*
X80533924Y-62417405D01*
X80338707Y-62506556D01*
X80165185Y-62630122D01*
X80165178Y-62630128D01*
X80018168Y-62784307D01*
X79902994Y-62963522D01*
X79823816Y-63161299D01*
X79792752Y-63322477D01*
X79783500Y-63370483D01*
X79783500Y-63830138D01*
X79474500Y-63830138D01*
X79474500Y-63423862D01*
X79459324Y-63264930D01*
X79399305Y-63060525D01*
X79301687Y-62871172D01*
X79169998Y-62703715D01*
X79008997Y-62564207D01*
X79008993Y-62564205D01*
X79008990Y-62564202D01*
X78824505Y-62457691D01*
X78824504Y-62457690D01*
X78824503Y-62457690D01*
X78709991Y-62418057D01*
X78623186Y-62388013D01*
X78570468Y-62380433D01*
X78412319Y-62357695D01*
X78412316Y-62357695D01*
X78381904Y-62359143D01*
X78199526Y-62367832D01*
X77992496Y-62418057D01*
X77918547Y-62451827D01*
X77798707Y-62506556D01*
X77625185Y-62630122D01*
X77625178Y-62630128D01*
X77478168Y-62784307D01*
X77362994Y-62963522D01*
X77283816Y-63161299D01*
X77252752Y-63322477D01*
X77243500Y-63370483D01*
X77243500Y-63830138D01*
X56750500Y-63830138D01*
X56750500Y-59874500D01*
X56770185Y-59807461D01*
X56822989Y-59761706D01*
X56874500Y-59750500D01*
X158125500Y-59750500D01*
X158192539Y-59770185D01*
G37*
G04 #@! TD.AperFunction*
M02*
