M48
; DRILL file {KiCad 8.0.1-8.0.1-1~ubuntu22.04.1} date 2024-04-04T11:17:21+0200
; FORMAT={-:-/ absolute / metric / decimal}
; #@! TF.CreationDate,2024-04-04T11:17:21+02:00
; #@! TF.GenerationSoftware,Kicad,Pcbnew,8.0.1-8.0.1-1~ubuntu22.04.1
; #@! TF.FileFunction,Plated,1,4,PTH
FMAT,2
METRIC
; #@! TA.AperFunction,Plated,PTH,ViaDrill
T1C0.400
; #@! TA.AperFunction,Plated,PTH,ComponentDrill
T2C0.600
; #@! TA.AperFunction,Plated,PTH,ViaDrill
T3C0.800
; #@! TA.AperFunction,Plated,PTH,ComponentDrill
T4C1.020
; #@! TA.AperFunction,Plated,PTH,ComponentDrill
T5C1.600
; #@! TA.AperFunction,Plated,PTH,ComponentDrill
T6C2.000
; #@! TA.AperFunction,Plated,PTH,ComponentDrill
T7C4.300
%
G90
G05
T1
X55.88Y-56.769
X56.896Y-56.769
X57.912Y-56.769
X60.652Y-52.247
X60.652Y-53.247
X60.652Y-54.247
X60.652Y-55.247
X61.652Y-54.747
X61.902Y-52.747
X61.902Y-53.747
X62.652Y-54.747
X63.402Y-52.747
X63.402Y-53.747
X63.586Y-173.064
X63.627Y-71.181
X63.627Y-105.09
X63.627Y-139.141
X63.652Y-54.747
X64.652Y-52.247
X64.652Y-53.247
X64.652Y-54.247
X64.652Y-55.247
X65.838Y-69.919
X66.294Y-74.93
X66.548Y-97.917
X66.548Y-108.966
X66.675Y-143.002
X66.675Y-177.038
X66.802Y-131.953
X66.802Y-165.989
X69.215Y-138.635
X69.469Y-104.635
X69.469Y-172.635
X70.152Y-52.247
X70.152Y-53.247
X70.152Y-54.247
X70.152Y-55.247
X70.587Y-66.101
X71.0Y-73.175
X71.152Y-54.747
X71.402Y-52.747
X71.402Y-53.747
X72.152Y-54.747
X72.5Y-107.0
X72.5Y-141.0
X72.5Y-175.0
X72.537Y-176.37
X72.902Y-52.747
X72.902Y-53.747
X73.152Y-54.747
X73.448Y-74.0
X73.448Y-108.0
X73.448Y-142.0
X74.152Y-52.247
X74.152Y-53.247
X74.152Y-54.247
X74.152Y-55.247
X74.5Y-64.135
X74.5Y-70.776
X74.5Y-106.0
X74.5Y-140.0
X74.5Y-174.0
X75.184Y-177.038
X75.415Y-69.352
X75.75Y-75.5
X76.0Y-143.0
X76.073Y-109.093
X76.2Y-67.31
X78.994Y-70.739
X79.121Y-106.045
X79.121Y-140.081
X79.121Y-173.99
X79.752Y-52.197
X79.752Y-53.197
X79.752Y-54.197
X79.752Y-55.197
X80.752Y-54.697
X81.002Y-52.697
X81.002Y-53.697
X81.752Y-54.697
X82.502Y-52.697
X82.502Y-53.697
X82.752Y-54.697
X83.752Y-52.197
X83.752Y-53.197
X83.752Y-54.197
X83.752Y-55.197
X88.138Y-56.515
X90.207Y-51.008
X90.297Y-56.515
X92.791Y-54.854
X94.167Y-51.435
X94.996Y-54.991
X95.364Y-52.946
X97.0Y-54.0
X99.822Y-54.61
X106.553Y-53.5
X111.76Y-52.578
X111.76Y-54.991
X114.949Y-49.889
X115.595Y-50.927
X116.205Y-57.785
X116.967Y-55.118
X118.11Y-51.943
X118.491Y-55.5
X118.745Y-49.022
X120.142Y-45.72
X120.5Y-54.0
X120.686Y-51.867
X121.92Y-45.72
X122.301Y-58.675
X122.428Y-42.545
X123.787Y-45.897
X123.825Y-42.545
X125.729Y-45.897
X126.435Y-49.989
X126.742Y-43.678
X127.092Y-59.147
X128.31Y-53.255
X128.5Y-54.25
X128.579Y-56.241
X129.037Y-46.487
X129.794Y-39.116
X129.921Y-43.98
X130.236Y-50.25
X130.808Y-46.483
X132.672Y-58.146
X134.032Y-39.958
X134.25Y-44.575
X134.65Y-43.075
X135.5Y-56.25
X135.552Y-45.593
X136.525Y-50.546
X136.628Y-41.505
X136.922Y-58.148
X137.287Y-53.975
X137.541Y-45.466
X137.576Y-50.514
X138.02Y-35.433
X138.049Y-42.418
X138.488Y-45.349
X138.684Y-40.513
X138.938Y-53.721
X139.192Y-35.306
X139.44Y-45.349
X139.5Y-56.152
X139.651Y-51.151
X139.7Y-42.799
X140.425Y-45.048
X140.977Y-46.975
X140.977Y-48.025
X141.0Y-50.182
X141.224Y-39.243
X141.5Y-54.0
X142.45Y-53.525
X143.891Y-45.974
X144.145Y-40.005
X145.034Y-42.545
X147.5Y-40.5
X148.15Y-34.5
X148.15Y-35.5
X148.15Y-36.497
X148.15Y-37.5
X148.15Y-38.5
X149.15Y-34.5
X149.15Y-35.5
X149.15Y-36.5
X149.15Y-37.5
X149.15Y-38.5
X149.5Y-58.074
X150.15Y-34.5
X150.15Y-35.5
X150.15Y-36.5
X150.15Y-37.5
X150.15Y-38.5
X151.031Y-56.031
X151.682Y-50.015
X153.0Y-53.179
X153.5Y-39.222
X155.327Y-34.197
X156.0Y-39.222
X161.671Y-84.963
X162.0Y-56.0
X162.65Y-61.152
X162.977Y-62.357
X164.973Y-86.36
X165.608Y-62.484
X166.848Y-50.015
X168.302Y-61.999
X168.5Y-59.0
T2
X57.817Y-63.5
X57.817Y-76.5
X57.817Y-97.5
X57.817Y-110.5
X57.817Y-131.5
X57.817Y-144.5
X57.817Y-165.5
X57.817Y-178.5
X58.762Y-61.22
X58.762Y-65.78
X58.762Y-74.22
X58.762Y-78.78
X58.762Y-95.22
X58.762Y-99.78
X58.762Y-108.22
X58.762Y-112.78
X58.762Y-129.22
X58.762Y-133.78
X58.762Y-142.22
X58.762Y-146.78
X58.762Y-163.22
X58.762Y-167.78
X58.762Y-176.22
X58.762Y-180.78
X61.042Y-60.275
X61.042Y-66.725
X61.042Y-73.275
X61.042Y-79.725
X61.042Y-94.275
X61.042Y-100.725
X61.042Y-107.275
X61.042Y-113.725
X61.042Y-128.275
X61.042Y-134.725
X61.042Y-141.275
X61.042Y-147.725
X61.042Y-162.275
X61.042Y-168.725
X61.042Y-175.275
X61.042Y-181.725
X63.322Y-61.22
X63.322Y-65.78
X63.322Y-74.22
X63.322Y-78.78
X63.322Y-95.22
X63.322Y-99.78
X63.322Y-108.22
X63.322Y-112.78
X63.322Y-129.22
X63.322Y-133.78
X63.322Y-142.22
X63.322Y-146.78
X63.322Y-163.22
X63.322Y-167.78
X63.322Y-176.22
X63.322Y-180.78
X64.267Y-63.5
X64.267Y-76.5
X64.267Y-97.5
X64.267Y-110.5
X64.267Y-131.5
X64.267Y-144.5
X64.267Y-165.5
X64.267Y-178.5
X150.817Y-63.5
X150.817Y-76.5
X150.817Y-97.5
X150.817Y-110.5
X150.817Y-131.5
X150.817Y-144.5
X150.817Y-165.5
X150.817Y-178.5
X151.762Y-61.22
X151.762Y-65.78
X151.762Y-74.22
X151.762Y-78.78
X151.762Y-95.22
X151.762Y-99.78
X151.762Y-108.22
X151.762Y-112.78
X151.762Y-129.22
X151.762Y-133.78
X151.762Y-142.22
X151.762Y-146.78
X151.762Y-163.22
X151.762Y-167.78
X151.762Y-176.22
X151.762Y-180.78
X154.042Y-60.275
X154.042Y-66.725
X154.042Y-73.275
X154.042Y-79.725
X154.042Y-94.275
X154.042Y-100.725
X154.042Y-107.275
X154.042Y-113.725
X154.042Y-128.275
X154.042Y-134.725
X154.042Y-141.275
X154.042Y-147.725
X154.042Y-162.275
X154.042Y-168.725
X154.042Y-175.275
X154.042Y-181.725
X156.322Y-61.22
X156.322Y-65.78
X156.322Y-74.22
X156.322Y-78.78
X156.322Y-95.22
X156.322Y-99.78
X156.322Y-108.22
X156.322Y-112.78
X156.322Y-129.22
X156.322Y-133.78
X156.322Y-142.22
X156.322Y-146.78
X156.322Y-163.22
X156.322Y-167.78
X156.322Y-176.22
X156.322Y-180.78
X157.267Y-63.5
X157.267Y-76.5
X157.267Y-97.5
X157.267Y-110.5
X157.267Y-131.5
X157.267Y-144.5
X157.267Y-165.5
X157.267Y-178.5
T3
X60.902Y-44.0
X60.902Y-46.0
X60.902Y-48.0
X61.0Y-57.25
X62.902Y-44.0
X62.902Y-46.0
X62.902Y-48.0
X63.0Y-57.25
X64.902Y-44.0
X64.902Y-46.0
X64.902Y-48.0
X65.0Y-57.25
X65.0Y-59.25
X66.902Y-44.0
X66.902Y-46.0
X66.902Y-48.0
X67.0Y-57.25
X67.0Y-59.25
X67.0Y-61.25
X68.902Y-44.0
X68.902Y-46.0
X68.902Y-48.0
X69.0Y-57.25
X69.0Y-59.25
X69.0Y-61.25
X70.902Y-44.0
X70.902Y-46.0
X70.902Y-48.0
X71.0Y-57.25
X71.0Y-59.25
X71.0Y-61.25
X72.902Y-44.0
X72.902Y-46.0
X72.902Y-48.0
X73.0Y-57.25
X73.0Y-59.25
X73.0Y-61.25
X74.902Y-44.0
X74.902Y-46.0
X74.902Y-48.0
X75.0Y-57.25
X75.0Y-59.25
X75.0Y-61.25
X76.902Y-44.0
X76.902Y-46.0
X76.902Y-48.0
X77.0Y-57.25
X77.0Y-59.25
X77.0Y-61.25
X78.902Y-44.0
X78.902Y-46.0
X78.902Y-48.0
X79.0Y-57.25
X79.0Y-59.25
X79.0Y-61.25
X80.902Y-44.0
X80.902Y-46.0
X80.902Y-48.0
X81.0Y-57.25
X81.0Y-59.25
X81.0Y-61.25
X82.902Y-44.0
X82.902Y-46.0
X82.902Y-48.0
X83.0Y-57.25
X83.0Y-59.25
X83.0Y-61.25
X89.5Y-44.0
X89.5Y-46.0
X89.5Y-48.0
X91.5Y-44.0
X91.5Y-46.0
X91.5Y-48.0
X93.5Y-44.0
X93.5Y-46.0
X93.5Y-48.0
X95.5Y-44.0
X95.5Y-46.0
X95.5Y-48.0
X97.5Y-44.0
X97.5Y-46.0
X97.5Y-48.0
X99.5Y-44.0
X99.5Y-46.0
X99.5Y-48.0
X101.5Y-44.0
X101.5Y-46.0
X101.5Y-48.0
X103.5Y-44.0
X103.5Y-46.0
X103.5Y-48.0
X105.5Y-44.0
X105.5Y-46.0
X105.5Y-48.0
X107.5Y-44.0
X107.5Y-46.0
X107.5Y-48.0
X109.5Y-44.0
X109.5Y-46.0
X109.5Y-48.0
X111.5Y-44.0
X111.5Y-46.0
X111.5Y-48.0
T4
X165.0Y-66.38
X165.0Y-68.92
X165.0Y-71.46
X165.0Y-74.0
X165.0Y-100.38
X165.0Y-102.92
X165.0Y-105.46
X165.0Y-108.0
X165.0Y-134.38
X165.0Y-136.92
X165.0Y-139.46
X165.0Y-142.0
X165.0Y-168.38
X165.0Y-170.92
X165.0Y-173.46
X165.0Y-176.0
T5
X159.402Y-42.747
X164.102Y-39.747
X164.102Y-45.747
T6
X62.402Y-40.349
X71.902Y-40.349
X81.402Y-40.349
X90.902Y-40.349
X100.402Y-40.349
X109.902Y-40.349
T7
X61.042Y-63.5
X61.042Y-76.5
X61.042Y-97.5
X61.042Y-110.5
X61.042Y-131.5
X61.042Y-144.5
X61.042Y-165.5
X61.042Y-178.5
X154.042Y-63.5
X154.042Y-76.5
X154.042Y-97.5
X154.042Y-110.5
X154.042Y-131.5
X154.042Y-144.5
X154.042Y-165.5
X154.042Y-178.5
T2
X118.832Y-34.322G85X118.832Y-33.522
G05
X118.832Y-38.652G85X118.832Y-37.552
G05
X127.472Y-34.322G85X127.472Y-33.522
G05
X127.472Y-38.652G85X127.472Y-37.552
G05
M30
