G04 #@! TF.GenerationSoftware,KiCad,Pcbnew,8.0.1-8.0.1-1~ubuntu22.04.1*
G04 #@! TF.CreationDate,2024-04-04T11:17:19+02:00*
G04 #@! TF.ProjectId,flex4axe,666c6578-3461-4786-952e-6b696361645f,302*
G04 #@! TF.SameCoordinates,Original*
G04 #@! TF.FileFunction,Copper,L3,Inr*
G04 #@! TF.FilePolarity,Positive*
%FSLAX46Y46*%
G04 Gerber Fmt 4.6, Leading zero omitted, Abs format (unit mm)*
G04 Created by KiCad (PCBNEW 8.0.1-8.0.1-1~ubuntu22.04.1) date 2024-04-04 11:17:19*
%MOMM*%
%LPD*%
G01*
G04 APERTURE LIST*
G04 #@! TA.AperFunction,ComponentPad*
%ADD10R,2.030000X1.730000*%
G04 #@! TD*
G04 #@! TA.AperFunction,ComponentPad*
%ADD11O,2.030000X1.730000*%
G04 #@! TD*
G04 #@! TA.AperFunction,ComponentPad*
%ADD12C,0.900000*%
G04 #@! TD*
G04 #@! TA.AperFunction,ComponentPad*
%ADD13C,8.600000*%
G04 #@! TD*
G04 #@! TA.AperFunction,ComponentPad*
%ADD14O,1.000000X2.100000*%
G04 #@! TD*
G04 #@! TA.AperFunction,ComponentPad*
%ADD15O,1.000000X1.800000*%
G04 #@! TD*
G04 #@! TA.AperFunction,ComponentPad*
%ADD16C,3.500000*%
G04 #@! TD*
G04 #@! TA.AperFunction,ComponentPad*
%ADD17R,2.600000X2.600000*%
G04 #@! TD*
G04 #@! TA.AperFunction,ComponentPad*
%ADD18C,2.600000*%
G04 #@! TD*
G04 #@! TA.AperFunction,ViaPad*
%ADD19C,0.800000*%
G04 #@! TD*
G04 #@! TA.AperFunction,ViaPad*
%ADD20C,1.300000*%
G04 #@! TD*
G04 #@! TA.AperFunction,Conductor*
%ADD21C,1.500000*%
G04 #@! TD*
G04 #@! TA.AperFunction,Conductor*
%ADD22C,1.000000*%
G04 #@! TD*
G04 APERTURE END LIST*
D10*
X165000000Y-142000000D03*
D11*
X165000000Y-139460000D03*
X165000000Y-136920000D03*
X165000000Y-134380000D03*
D10*
X165000000Y-74000000D03*
D11*
X165000000Y-71460000D03*
X165000000Y-68920000D03*
X165000000Y-66380000D03*
D10*
X165000000Y-108000000D03*
D11*
X165000000Y-105460000D03*
X165000000Y-102920000D03*
X165000000Y-100380000D03*
D12*
X61042000Y-168725000D03*
X154042000Y-168725000D03*
X58761581Y-167780419D03*
X63322419Y-167780419D03*
X151761581Y-167780419D03*
X156322419Y-167780419D03*
X57817000Y-165500000D03*
D13*
X61042000Y-165500000D03*
D12*
X64267000Y-165500000D03*
X150817000Y-165500000D03*
D13*
X154042000Y-165500000D03*
D12*
X157267000Y-165500000D03*
X58761581Y-163219581D03*
X63322419Y-163219581D03*
X151761581Y-163219581D03*
X156322419Y-163219581D03*
X61042000Y-162275000D03*
X154042000Y-162275000D03*
X61042000Y-181725000D03*
X154042000Y-181725000D03*
X58761581Y-180780419D03*
X63322419Y-180780419D03*
X151761581Y-180780419D03*
X156322419Y-180780419D03*
X57817000Y-178500000D03*
D13*
X61042000Y-178500000D03*
D12*
X64267000Y-178500000D03*
X150817000Y-178500000D03*
D13*
X154042000Y-178500000D03*
D12*
X157267000Y-178500000D03*
X58761581Y-176219581D03*
X63322419Y-176219581D03*
X151761581Y-176219581D03*
X156322419Y-176219581D03*
X61042000Y-175275000D03*
X154042000Y-175275000D03*
X61042000Y-100725000D03*
X154042000Y-100725000D03*
X58761581Y-99780419D03*
X63322419Y-99780419D03*
X151761581Y-99780419D03*
X156322419Y-99780419D03*
X57817000Y-97500000D03*
D13*
X61042000Y-97500000D03*
D12*
X64267000Y-97500000D03*
X150817000Y-97500000D03*
D13*
X154042000Y-97500000D03*
D12*
X157267000Y-97500000D03*
X58761581Y-95219581D03*
X63322419Y-95219581D03*
X151761581Y-95219581D03*
X156322419Y-95219581D03*
X61042000Y-94275000D03*
X154042000Y-94275000D03*
X61042000Y-113725000D03*
X154042000Y-113725000D03*
X58761581Y-112780419D03*
X63322419Y-112780419D03*
X151761581Y-112780419D03*
X156322419Y-112780419D03*
X57817000Y-110500000D03*
D13*
X61042000Y-110500000D03*
D12*
X64267000Y-110500000D03*
X150817000Y-110500000D03*
D13*
X154042000Y-110500000D03*
D12*
X157267000Y-110500000D03*
X58761581Y-108219581D03*
X63322419Y-108219581D03*
X151761581Y-108219581D03*
X156322419Y-108219581D03*
X61042000Y-107275000D03*
X154042000Y-107275000D03*
X61042000Y-134725000D03*
X154042000Y-134725000D03*
X58761581Y-133780419D03*
X63322419Y-133780419D03*
X151761581Y-133780419D03*
X156322419Y-133780419D03*
X57817000Y-131500000D03*
D13*
X61042000Y-131500000D03*
D12*
X64267000Y-131500000D03*
X150817000Y-131500000D03*
D13*
X154042000Y-131500000D03*
D12*
X157267000Y-131500000D03*
X58761581Y-129219581D03*
X63322419Y-129219581D03*
X151761581Y-129219581D03*
X156322419Y-129219581D03*
X61042000Y-128275000D03*
X154042000Y-128275000D03*
X61042000Y-147725000D03*
X154042000Y-147725000D03*
X58761581Y-146780419D03*
X63322419Y-146780419D03*
X151761581Y-146780419D03*
X156322419Y-146780419D03*
X57817000Y-144500000D03*
D13*
X61042000Y-144500000D03*
D12*
X64267000Y-144500000D03*
X150817000Y-144500000D03*
D13*
X154042000Y-144500000D03*
D12*
X157267000Y-144500000D03*
X58761581Y-142219581D03*
X63322419Y-142219581D03*
X151761581Y-142219581D03*
X156322419Y-142219581D03*
X61042000Y-141275000D03*
X154042000Y-141275000D03*
D14*
X127472000Y-38102000D03*
D15*
X127472000Y-33922000D03*
D14*
X118832000Y-38102000D03*
D15*
X118832000Y-33922000D03*
D16*
X62402000Y-40349000D03*
X71902000Y-40349000D03*
X81402000Y-40349000D03*
X90902000Y-40349000D03*
X100402000Y-40349000D03*
X109902000Y-40349000D03*
D17*
X164102000Y-45747000D03*
D18*
X164102000Y-39747000D03*
X159402000Y-42747000D03*
D10*
X165000000Y-176000000D03*
D11*
X165000000Y-173460000D03*
X165000000Y-170920000D03*
X165000000Y-168380000D03*
D12*
X61042000Y-66725000D03*
X154042000Y-66725000D03*
X58761581Y-65780419D03*
X63322419Y-65780419D03*
X151761581Y-65780419D03*
X156322419Y-65780419D03*
X57817000Y-63500000D03*
D13*
X61042000Y-63500000D03*
D12*
X64267000Y-63500000D03*
X150817000Y-63500000D03*
D13*
X154042000Y-63500000D03*
D12*
X157267000Y-63500000D03*
X58761581Y-61219581D03*
X63322419Y-61219581D03*
X151761581Y-61219581D03*
X156322419Y-61219581D03*
X61042000Y-60275000D03*
X154042000Y-60275000D03*
X61042000Y-79725000D03*
X154042000Y-79725000D03*
X58761581Y-78780419D03*
X63322419Y-78780419D03*
X151761581Y-78780419D03*
X156322419Y-78780419D03*
X57817000Y-76500000D03*
D13*
X61042000Y-76500000D03*
D12*
X64267000Y-76500000D03*
X150817000Y-76500000D03*
D13*
X154042000Y-76500000D03*
D12*
X157267000Y-76500000D03*
X58761581Y-74219581D03*
X63322419Y-74219581D03*
X151761581Y-74219581D03*
X156322419Y-74219581D03*
X61042000Y-73275000D03*
X154042000Y-73275000D03*
D19*
X126742098Y-43677900D03*
D20*
X97500000Y-46000000D03*
X95500000Y-48000000D03*
X97500000Y-48000000D03*
D19*
X79121000Y-173990000D03*
D20*
X111500000Y-48000000D03*
D19*
X63585792Y-173063989D03*
D20*
X107500000Y-44000000D03*
X103500000Y-46000000D03*
D19*
X153000000Y-53178800D03*
X168302400Y-61998839D03*
X142450000Y-53525000D03*
D20*
X89500000Y-48000000D03*
D19*
X151030750Y-56030750D03*
X130235600Y-50250000D03*
X134032278Y-39957722D03*
D20*
X111500000Y-44000000D03*
D19*
X57912000Y-56769000D03*
D20*
X109500000Y-46000000D03*
D19*
X56896000Y-56769000D03*
X166847600Y-50015369D03*
X129794000Y-39116000D03*
D20*
X103500000Y-48000000D03*
D19*
X128500000Y-54250000D03*
X156000000Y-39222000D03*
X161671000Y-84963000D03*
D20*
X95500000Y-46000000D03*
X93500000Y-44000000D03*
X89500000Y-44000000D03*
D19*
X130808500Y-46483500D03*
D20*
X101500000Y-44000000D03*
X93500000Y-48000000D03*
X95500000Y-44000000D03*
D19*
X153500000Y-39222000D03*
D20*
X105500000Y-48000000D03*
D19*
X162649935Y-61151681D03*
D20*
X105500000Y-46000000D03*
X105500000Y-44000000D03*
D19*
X55880000Y-56769000D03*
X116205000Y-57785000D03*
X63627000Y-139141000D03*
X129037500Y-46487500D03*
X66294000Y-74930000D03*
X139500000Y-56151900D03*
D20*
X93500000Y-46000000D03*
X99500000Y-48000000D03*
X99500000Y-46000000D03*
D19*
X88138000Y-56515000D03*
X134650000Y-43075000D03*
X90207099Y-51007900D03*
X115594582Y-50927000D03*
X78994000Y-70739000D03*
D20*
X91500000Y-46000000D03*
D19*
X120686400Y-51866793D03*
X66675000Y-177038000D03*
D20*
X97500000Y-44000000D03*
D19*
X151682134Y-50014866D03*
D20*
X109500000Y-48000000D03*
D19*
X127091859Y-59146859D03*
D20*
X111500000Y-46000000D03*
X109500000Y-44000000D03*
X91500000Y-44000000D03*
D19*
X92791000Y-54854132D03*
X63627000Y-105090000D03*
D20*
X107500000Y-46000000D03*
D19*
X138020000Y-35433000D03*
X95363699Y-52945699D03*
X66548000Y-108966000D03*
D20*
X101500000Y-46000000D03*
D19*
X65837596Y-69918639D03*
D20*
X101500000Y-48000000D03*
D19*
X66675000Y-143002000D03*
X63627000Y-71181000D03*
X122301000Y-58675400D03*
X116967000Y-55118000D03*
X120142000Y-45720000D03*
X70587400Y-66101000D03*
D20*
X107500000Y-48000000D03*
X89500000Y-46000000D03*
X103500000Y-44000000D03*
D19*
X79121000Y-106045000D03*
X135500000Y-56250000D03*
D20*
X99500000Y-44000000D03*
X91500000Y-48000000D03*
D19*
X79121000Y-140081000D03*
X123787159Y-45896800D03*
X69469000Y-104635000D03*
X66548000Y-97917000D03*
X75415338Y-69351600D03*
X76200000Y-67310000D03*
X162000000Y-56000000D03*
X164973000Y-86360000D03*
X168500000Y-59000000D03*
X155327000Y-34197000D03*
X147500000Y-40500000D03*
X69469000Y-172635000D03*
X66802000Y-165989000D03*
X69215000Y-138635000D03*
X66802000Y-131953000D03*
X125729296Y-45896725D03*
X128310161Y-53255231D03*
X75750000Y-75500000D03*
X126434759Y-49988751D03*
X114948749Y-49889413D03*
X148150000Y-38500000D03*
X148150000Y-36497000D03*
X145034000Y-42545000D03*
X149150000Y-38500000D03*
X148150000Y-35500000D03*
X118745000Y-49022000D03*
X149150000Y-34500000D03*
X144145000Y-40005000D03*
X150150000Y-36500000D03*
X94167499Y-51435000D03*
X129921000Y-43980000D03*
X90297000Y-56515000D03*
X149150000Y-36500000D03*
X141000000Y-50182227D03*
X149500010Y-58074400D03*
X149150000Y-37500000D03*
X141224000Y-39243000D03*
X134250000Y-44575000D03*
X74500000Y-106000000D03*
X148150000Y-37500000D03*
X74500000Y-64135000D03*
X150150000Y-38500000D03*
X106553000Y-53500000D03*
X149150000Y-35500000D03*
X120500000Y-54000000D03*
X148150000Y-34500000D03*
X150150000Y-35500000D03*
X94996000Y-54991000D03*
X74500000Y-70775600D03*
X74500000Y-174000000D03*
X74500000Y-140000000D03*
X150150000Y-34500000D03*
X150150000Y-37500000D03*
X128579028Y-56240972D03*
X121920000Y-45720000D03*
X76073000Y-109092996D03*
X132672000Y-58145600D03*
X76000000Y-143000000D03*
X75184000Y-177038000D03*
X136922000Y-58148000D03*
X82502000Y-52697000D03*
X74152000Y-55247000D03*
D20*
X69000000Y-59250000D03*
X77000000Y-61250000D03*
X67000000Y-59250000D03*
D19*
X61902000Y-53747000D03*
D20*
X61000000Y-57250000D03*
D19*
X61902000Y-52747000D03*
X83752000Y-52197000D03*
X60652000Y-52247000D03*
X72152000Y-54747000D03*
X79752000Y-55197000D03*
X81002000Y-53697000D03*
X70152000Y-54247000D03*
D20*
X79000000Y-57250000D03*
D19*
X64652000Y-53247000D03*
D20*
X81000000Y-59250000D03*
D19*
X79752000Y-52197000D03*
D20*
X81000000Y-57250000D03*
D19*
X60652000Y-53247000D03*
D20*
X71000000Y-57250000D03*
D19*
X83752000Y-54197000D03*
D20*
X65000000Y-57250000D03*
X69000000Y-61250000D03*
X73000000Y-57250000D03*
X63000000Y-57250000D03*
D19*
X73152000Y-54747000D03*
D20*
X75000000Y-61250000D03*
X71000000Y-59250000D03*
X83000000Y-57250000D03*
D19*
X60652000Y-55247000D03*
D20*
X65000000Y-59250000D03*
D19*
X70152000Y-53247000D03*
D20*
X83000000Y-61250000D03*
D19*
X71402000Y-52747000D03*
D20*
X67000000Y-61250000D03*
X79000000Y-59250000D03*
X73000000Y-59250000D03*
X71000000Y-61250000D03*
X75000000Y-59250000D03*
X69000000Y-57250000D03*
D19*
X63402000Y-53747000D03*
D20*
X79000000Y-61250000D03*
D19*
X72902000Y-52747000D03*
X64652000Y-54247000D03*
X79752000Y-53197000D03*
X82502000Y-53697000D03*
D20*
X77000000Y-57250000D03*
X75000000Y-57250000D03*
D19*
X60652000Y-54247000D03*
X74152000Y-54247000D03*
X70152000Y-52247000D03*
X79752000Y-54197000D03*
X64652000Y-55247000D03*
D20*
X77000000Y-59250000D03*
D19*
X83752000Y-53197000D03*
X83752000Y-55197000D03*
D20*
X67000000Y-57250000D03*
D19*
X63652000Y-54747000D03*
X74152000Y-53247000D03*
X81752000Y-54697000D03*
X71152000Y-54747000D03*
D20*
X83000000Y-59250000D03*
D19*
X64652000Y-52247000D03*
D20*
X81000000Y-61250000D03*
D19*
X72902000Y-53747000D03*
X63402000Y-52747000D03*
X80752000Y-54697000D03*
X71402000Y-53747000D03*
X82752000Y-54697000D03*
X61652000Y-54747000D03*
X74152000Y-52247000D03*
D20*
X73000000Y-61250000D03*
D19*
X81002000Y-52697000D03*
X62652000Y-54747000D03*
X70152000Y-55247000D03*
D20*
X70902000Y-48000000D03*
X78902000Y-48000000D03*
X64902000Y-48000000D03*
X82902000Y-44000000D03*
X60902000Y-46000000D03*
X68902000Y-44000000D03*
X80902000Y-46000000D03*
X60902000Y-44000000D03*
X78902000Y-46000000D03*
X64902000Y-46000000D03*
X66902000Y-48000000D03*
X72902000Y-48000000D03*
X74902000Y-48000000D03*
X72902000Y-46000000D03*
X74902000Y-46000000D03*
X62902000Y-48000000D03*
X76902000Y-44000000D03*
X82902000Y-46000000D03*
X80902000Y-48000000D03*
X82902000Y-48000000D03*
X60902000Y-48000000D03*
X64902000Y-44000000D03*
X62902000Y-44000000D03*
X70902000Y-46000000D03*
X78902000Y-44000000D03*
X80902000Y-44000000D03*
X74902000Y-44000000D03*
X72902000Y-44000000D03*
X76902000Y-46000000D03*
X68902000Y-46000000D03*
X66902000Y-44000000D03*
X66902000Y-46000000D03*
X70902000Y-44000000D03*
X76902000Y-48000000D03*
X62902000Y-46000000D03*
X68902000Y-48000000D03*
D19*
X118110000Y-51943000D03*
X118491000Y-55500000D03*
X138938000Y-53721000D03*
X111760000Y-52578000D03*
X137287000Y-53975000D03*
X111760000Y-54991000D03*
X139192000Y-35306000D03*
X135551900Y-45593000D03*
X137541000Y-45466000D03*
X138684000Y-40513000D03*
X136627972Y-41504972D03*
X143891000Y-45974000D03*
X139651028Y-51151028D03*
X141500000Y-54000000D03*
X73447600Y-142000000D03*
X73447600Y-74000000D03*
X72537314Y-176370000D03*
X73447600Y-108000000D03*
X140976737Y-48025000D03*
X123825000Y-42545000D03*
X140976737Y-46975000D03*
X122428000Y-42545000D03*
X137576349Y-50514082D03*
X136525000Y-50546000D03*
X139440065Y-45348600D03*
X138487663Y-45348600D03*
X99822000Y-54610000D03*
X97000000Y-54000000D03*
X72500000Y-175000000D03*
X71000002Y-73175000D03*
X72500000Y-107000000D03*
X138049000Y-42418000D03*
X139700000Y-42799000D03*
X72500000Y-141000000D03*
X165608000Y-62484000D03*
X162976868Y-62357328D03*
X140424995Y-45047995D03*
D21*
X167000000Y-139500000D02*
X167000000Y-171569481D01*
X165000000Y-139460000D02*
X166960000Y-139460000D01*
X167000000Y-171569481D02*
X165109481Y-173460000D01*
X167000000Y-61000000D02*
X167000000Y-69569481D01*
X167000000Y-69569481D02*
X165109481Y-71460000D01*
D22*
X164973000Y-86360000D02*
X166873000Y-86360000D01*
D21*
X166960000Y-105460000D02*
X167000000Y-105500000D01*
X162000000Y-56000000D02*
X167000000Y-61000000D01*
X167000000Y-86233000D02*
X167000000Y-105500000D01*
X165000000Y-105460000D02*
X166960000Y-105460000D01*
X166144800Y-71460000D02*
X167000000Y-72315200D01*
X167000000Y-105500000D02*
X167000000Y-139500000D01*
X165109481Y-173460000D02*
X165000000Y-173460000D01*
X165109481Y-71460000D02*
X165000000Y-71460000D01*
X167000000Y-72315200D02*
X167000000Y-86233000D01*
X165000000Y-71460000D02*
X166144800Y-71460000D01*
X166960000Y-139460000D02*
X167000000Y-139500000D01*
D22*
X166873000Y-86360000D02*
X167000000Y-86233000D01*
G04 #@! TA.AperFunction,Conductor*
G36*
X85095039Y-32266685D02*
G01*
X85140794Y-32319489D01*
X85152000Y-32371000D01*
X85152000Y-50873000D01*
X85132315Y-50940039D01*
X85079511Y-50985794D01*
X85028000Y-50997000D01*
X54276000Y-50997000D01*
X54208961Y-50977315D01*
X54163206Y-50924511D01*
X54152000Y-50873000D01*
X54152000Y-32371000D01*
X54171685Y-32303961D01*
X54224489Y-32258206D01*
X54276000Y-32247000D01*
X85028000Y-32247000D01*
X85095039Y-32266685D01*
G37*
G04 #@! TD.AperFunction*
G04 #@! TA.AperFunction,Conductor*
G36*
X113443039Y-32266685D02*
G01*
X113488794Y-32319489D01*
X113500000Y-32371000D01*
X113500000Y-50397000D01*
X113480315Y-50464039D01*
X113427511Y-50509794D01*
X113376000Y-50521000D01*
X86624000Y-50521000D01*
X86556961Y-50501315D01*
X86511206Y-50448511D01*
X86500000Y-50397000D01*
X86500000Y-32371000D01*
X86519685Y-32303961D01*
X86572489Y-32258206D01*
X86624000Y-32247000D01*
X113376000Y-32247000D01*
X113443039Y-32266685D01*
G37*
G04 #@! TD.AperFunction*
G04 #@! TA.AperFunction,Conductor*
G36*
X69061387Y-173019685D02*
G01*
X69069835Y-173025624D01*
X69074664Y-173029329D01*
X69074667Y-173029333D01*
X69190164Y-173117957D01*
X69190167Y-173117958D01*
X69190168Y-173117959D01*
X69257414Y-173145813D01*
X69324664Y-173173669D01*
X69396832Y-173183170D01*
X69468999Y-173192671D01*
X69469000Y-173192671D01*
X69469001Y-173192671D01*
X69517112Y-173186337D01*
X69613336Y-173173669D01*
X69747831Y-173117959D01*
X69747832Y-173117959D01*
X69747832Y-173117958D01*
X69747836Y-173117957D01*
X69863333Y-173029333D01*
X69863335Y-173029329D01*
X69868165Y-173025624D01*
X69933334Y-173000430D01*
X69943652Y-173000000D01*
X160876000Y-173000000D01*
X160943039Y-173019685D01*
X160988794Y-173072489D01*
X161000000Y-173124000D01*
X161000000Y-183625500D01*
X160980315Y-183692539D01*
X160927511Y-183738294D01*
X160876000Y-183749500D01*
X54124000Y-183749500D01*
X54056961Y-183729815D01*
X54011206Y-183677011D01*
X54000000Y-183625500D01*
X54000000Y-179468097D01*
X96041500Y-179468097D01*
X96078446Y-179701368D01*
X96151433Y-179925996D01*
X96258657Y-180136433D01*
X96397483Y-180327510D01*
X96564490Y-180494517D01*
X96755567Y-180633343D01*
X96854991Y-180684002D01*
X96966003Y-180740566D01*
X96966005Y-180740566D01*
X96966008Y-180740568D01*
X97086412Y-180779689D01*
X97190631Y-180813553D01*
X97423903Y-180850500D01*
X97423908Y-180850500D01*
X97660097Y-180850500D01*
X97893368Y-180813553D01*
X98117992Y-180740568D01*
X98328433Y-180633343D01*
X98519510Y-180494517D01*
X98686517Y-180327510D01*
X98825343Y-180136433D01*
X98932568Y-179925992D01*
X99005553Y-179701368D01*
X99042500Y-179468097D01*
X128041500Y-179468097D01*
X128078446Y-179701368D01*
X128151433Y-179925996D01*
X128258657Y-180136433D01*
X128397483Y-180327510D01*
X128564490Y-180494517D01*
X128755567Y-180633343D01*
X128854991Y-180684002D01*
X128966003Y-180740566D01*
X128966005Y-180740566D01*
X128966008Y-180740568D01*
X129086412Y-180779689D01*
X129190631Y-180813553D01*
X129423903Y-180850500D01*
X129423908Y-180850500D01*
X129660097Y-180850500D01*
X129893368Y-180813553D01*
X130117992Y-180740568D01*
X130328433Y-180633343D01*
X130519510Y-180494517D01*
X130686517Y-180327510D01*
X130825343Y-180136433D01*
X130932568Y-179925992D01*
X131005553Y-179701368D01*
X131042500Y-179468097D01*
X131042500Y-179231902D01*
X131005553Y-178998631D01*
X130932566Y-178774003D01*
X130825342Y-178563566D01*
X130686517Y-178372490D01*
X130519510Y-178205483D01*
X130328433Y-178066657D01*
X130117996Y-177959433D01*
X129893368Y-177886446D01*
X129660097Y-177849500D01*
X129660092Y-177849500D01*
X129423908Y-177849500D01*
X129423903Y-177849500D01*
X129190631Y-177886446D01*
X128966003Y-177959433D01*
X128755566Y-178066657D01*
X128646550Y-178145862D01*
X128564490Y-178205483D01*
X128564488Y-178205485D01*
X128564487Y-178205485D01*
X128397485Y-178372487D01*
X128397485Y-178372488D01*
X128397483Y-178372490D01*
X128337862Y-178454550D01*
X128258657Y-178563566D01*
X128151433Y-178774003D01*
X128078446Y-178998631D01*
X128041500Y-179231902D01*
X128041500Y-179468097D01*
X99042500Y-179468097D01*
X99042500Y-179231902D01*
X99005553Y-178998631D01*
X98932566Y-178774003D01*
X98825342Y-178563566D01*
X98686517Y-178372490D01*
X98519510Y-178205483D01*
X98328433Y-178066657D01*
X98117996Y-177959433D01*
X97893368Y-177886446D01*
X97660097Y-177849500D01*
X97660092Y-177849500D01*
X97423908Y-177849500D01*
X97423903Y-177849500D01*
X97190631Y-177886446D01*
X96966003Y-177959433D01*
X96755566Y-178066657D01*
X96646550Y-178145862D01*
X96564490Y-178205483D01*
X96564488Y-178205485D01*
X96564487Y-178205485D01*
X96397485Y-178372487D01*
X96397485Y-178372488D01*
X96397483Y-178372490D01*
X96337862Y-178454550D01*
X96258657Y-178563566D01*
X96151433Y-178774003D01*
X96078446Y-178998631D01*
X96041500Y-179231902D01*
X96041500Y-179468097D01*
X54000000Y-179468097D01*
X54000000Y-177038001D01*
X74626329Y-177038001D01*
X74645330Y-177182334D01*
X74645332Y-177182339D01*
X74701040Y-177316831D01*
X74701040Y-177316832D01*
X74701042Y-177316835D01*
X74701043Y-177316836D01*
X74789667Y-177432333D01*
X74905164Y-177520957D01*
X74905167Y-177520958D01*
X74905168Y-177520959D01*
X74972414Y-177548813D01*
X75039664Y-177576669D01*
X75111832Y-177586170D01*
X75183999Y-177595671D01*
X75184000Y-177595671D01*
X75184001Y-177595671D01*
X75232112Y-177589337D01*
X75328336Y-177576669D01*
X75462831Y-177520959D01*
X75462832Y-177520959D01*
X75462832Y-177520958D01*
X75462836Y-177520957D01*
X75578333Y-177432333D01*
X75666957Y-177316836D01*
X75722669Y-177182336D01*
X75741671Y-177038000D01*
X75722669Y-176893664D01*
X75666957Y-176759165D01*
X75578334Y-176643668D01*
X75578333Y-176643667D01*
X75462836Y-176555043D01*
X75462833Y-176555042D01*
X75462831Y-176555040D01*
X75328339Y-176499332D01*
X75328334Y-176499330D01*
X75184001Y-176480329D01*
X75183999Y-176480329D01*
X75039665Y-176499330D01*
X75039663Y-176499331D01*
X74905165Y-176555042D01*
X74789667Y-176643667D01*
X74701042Y-176759165D01*
X74645331Y-176893663D01*
X74645330Y-176893665D01*
X74626329Y-177037998D01*
X74626329Y-177038001D01*
X54000000Y-177038001D01*
X54000000Y-176370001D01*
X71979643Y-176370001D01*
X71998644Y-176514334D01*
X71998646Y-176514339D01*
X72054354Y-176648831D01*
X72054354Y-176648832D01*
X72054356Y-176648835D01*
X72054357Y-176648836D01*
X72142981Y-176764333D01*
X72258478Y-176852957D01*
X72258481Y-176852958D01*
X72258482Y-176852959D01*
X72325728Y-176880813D01*
X72392978Y-176908669D01*
X72465146Y-176918170D01*
X72537313Y-176927671D01*
X72537314Y-176927671D01*
X72537315Y-176927671D01*
X72585426Y-176921337D01*
X72681650Y-176908669D01*
X72816145Y-176852959D01*
X72816146Y-176852959D01*
X72816146Y-176852958D01*
X72816150Y-176852957D01*
X72931647Y-176764333D01*
X73020271Y-176648836D01*
X73075983Y-176514336D01*
X73094985Y-176370000D01*
X73075983Y-176225664D01*
X73020271Y-176091165D01*
X72931647Y-175975667D01*
X72816150Y-175887043D01*
X72816147Y-175887042D01*
X72816145Y-175887040D01*
X72681653Y-175831332D01*
X72681648Y-175831330D01*
X72537315Y-175812329D01*
X72537313Y-175812329D01*
X72392979Y-175831330D01*
X72392977Y-175831331D01*
X72258479Y-175887042D01*
X72142981Y-175975667D01*
X72054356Y-176091165D01*
X71998645Y-176225663D01*
X71998644Y-176225665D01*
X71979643Y-176369998D01*
X71979643Y-176370001D01*
X54000000Y-176370001D01*
X54000000Y-175000001D01*
X71942329Y-175000001D01*
X71961330Y-175144334D01*
X71961332Y-175144339D01*
X72017040Y-175278831D01*
X72017040Y-175278832D01*
X72017042Y-175278835D01*
X72017043Y-175278836D01*
X72105667Y-175394333D01*
X72221164Y-175482957D01*
X72221167Y-175482958D01*
X72221168Y-175482959D01*
X72288414Y-175510813D01*
X72355664Y-175538669D01*
X72427832Y-175548170D01*
X72499999Y-175557671D01*
X72500000Y-175557671D01*
X72500001Y-175557671D01*
X72548112Y-175551337D01*
X72644336Y-175538669D01*
X72778831Y-175482959D01*
X72778832Y-175482959D01*
X72778832Y-175482958D01*
X72778836Y-175482957D01*
X72894333Y-175394333D01*
X72982957Y-175278836D01*
X73038669Y-175144336D01*
X73057671Y-175000000D01*
X73038669Y-174855664D01*
X72982957Y-174721165D01*
X72894333Y-174605667D01*
X72778836Y-174517043D01*
X72778833Y-174517042D01*
X72778831Y-174517040D01*
X72644339Y-174461332D01*
X72644334Y-174461330D01*
X72500001Y-174442329D01*
X72499999Y-174442329D01*
X72355665Y-174461330D01*
X72355663Y-174461331D01*
X72221165Y-174517042D01*
X72105667Y-174605667D01*
X72017042Y-174721165D01*
X71961331Y-174855663D01*
X71961330Y-174855665D01*
X71942329Y-174999998D01*
X71942329Y-175000001D01*
X54000000Y-175000001D01*
X54000000Y-174000001D01*
X73942329Y-174000001D01*
X73961330Y-174144334D01*
X73961332Y-174144339D01*
X74017040Y-174278831D01*
X74017040Y-174278832D01*
X74017042Y-174278835D01*
X74017043Y-174278836D01*
X74105667Y-174394333D01*
X74221164Y-174482957D01*
X74221167Y-174482958D01*
X74221168Y-174482959D01*
X74288414Y-174510813D01*
X74355664Y-174538669D01*
X74427832Y-174548170D01*
X74499999Y-174557671D01*
X74500000Y-174557671D01*
X74500001Y-174557671D01*
X74548112Y-174551337D01*
X74644336Y-174538669D01*
X74778831Y-174482959D01*
X74778832Y-174482959D01*
X74778832Y-174482958D01*
X74778836Y-174482957D01*
X74894333Y-174394333D01*
X74982957Y-174278836D01*
X75038669Y-174144336D01*
X75057671Y-174000000D01*
X75038669Y-173855664D01*
X74982957Y-173721165D01*
X74894333Y-173605667D01*
X74778836Y-173517043D01*
X74778833Y-173517042D01*
X74778831Y-173517040D01*
X74644339Y-173461332D01*
X74644334Y-173461330D01*
X74500001Y-173442329D01*
X74499999Y-173442329D01*
X74355665Y-173461330D01*
X74355663Y-173461331D01*
X74221165Y-173517042D01*
X74105667Y-173605667D01*
X74017042Y-173721165D01*
X73961331Y-173855663D01*
X73961330Y-173855665D01*
X73942329Y-173999998D01*
X73942329Y-174000001D01*
X54000000Y-174000001D01*
X54000000Y-173124000D01*
X54019685Y-173056961D01*
X54072489Y-173011206D01*
X54124000Y-173000000D01*
X68994348Y-173000000D01*
X69061387Y-173019685D01*
G37*
G04 #@! TD.AperFunction*
G04 #@! TA.AperFunction,Conductor*
G36*
X63015774Y-105019685D02*
G01*
X63061529Y-105072489D01*
X63071674Y-105107814D01*
X63088331Y-105234335D01*
X63088332Y-105234339D01*
X63144040Y-105368831D01*
X63144040Y-105368832D01*
X63144042Y-105368835D01*
X63144043Y-105368836D01*
X63232667Y-105484333D01*
X63348164Y-105572957D01*
X63348167Y-105572958D01*
X63348168Y-105572959D01*
X63415414Y-105600813D01*
X63482664Y-105628669D01*
X63554832Y-105638170D01*
X63626999Y-105647671D01*
X63627000Y-105647671D01*
X63627001Y-105647671D01*
X63675112Y-105641337D01*
X63771336Y-105628669D01*
X63905831Y-105572959D01*
X63905832Y-105572959D01*
X63905832Y-105572958D01*
X63905836Y-105572957D01*
X64021333Y-105484333D01*
X64109957Y-105368836D01*
X64165669Y-105234336D01*
X64180990Y-105117959D01*
X64182326Y-105107814D01*
X64210593Y-105043918D01*
X64268917Y-105005447D01*
X64305265Y-105000000D01*
X68994348Y-105000000D01*
X69061387Y-105019685D01*
X69069835Y-105025624D01*
X69074664Y-105029329D01*
X69074667Y-105029333D01*
X69190164Y-105117957D01*
X69190167Y-105117958D01*
X69190168Y-105117959D01*
X69257414Y-105145813D01*
X69324664Y-105173669D01*
X69396832Y-105183170D01*
X69468999Y-105192671D01*
X69469000Y-105192671D01*
X69469001Y-105192671D01*
X69517112Y-105186337D01*
X69613336Y-105173669D01*
X69747831Y-105117959D01*
X69747832Y-105117959D01*
X69747832Y-105117958D01*
X69747836Y-105117957D01*
X69863333Y-105029333D01*
X69863335Y-105029329D01*
X69868165Y-105025624D01*
X69933334Y-105000430D01*
X69943652Y-105000000D01*
X160876000Y-105000000D01*
X160943039Y-105019685D01*
X160988794Y-105072489D01*
X161000000Y-105124000D01*
X161000000Y-136876000D01*
X160980315Y-136943039D01*
X160927511Y-136988794D01*
X160876000Y-137000000D01*
X54124000Y-137000000D01*
X54056961Y-136980315D01*
X54011206Y-136927511D01*
X54000000Y-136876000D01*
X54000000Y-131953001D01*
X66244329Y-131953001D01*
X66263330Y-132097334D01*
X66263332Y-132097339D01*
X66319040Y-132231831D01*
X66319040Y-132231832D01*
X66319042Y-132231835D01*
X66319043Y-132231836D01*
X66407667Y-132347333D01*
X66523164Y-132435957D01*
X66523167Y-132435958D01*
X66523168Y-132435959D01*
X66590414Y-132463813D01*
X66657664Y-132491669D01*
X66729832Y-132501170D01*
X66801999Y-132510671D01*
X66802000Y-132510671D01*
X66802001Y-132510671D01*
X66850112Y-132504337D01*
X66946336Y-132491669D01*
X67080831Y-132435959D01*
X67080832Y-132435959D01*
X67080832Y-132435958D01*
X67080836Y-132435957D01*
X67196333Y-132347333D01*
X67284957Y-132231836D01*
X67340669Y-132097336D01*
X67359671Y-131953000D01*
X67340669Y-131808664D01*
X67284957Y-131674165D01*
X67249159Y-131627512D01*
X67196334Y-131558668D01*
X67196333Y-131558667D01*
X67080836Y-131470043D01*
X67080833Y-131470042D01*
X67080831Y-131470040D01*
X66946339Y-131414332D01*
X66946334Y-131414330D01*
X66802001Y-131395329D01*
X66801999Y-131395329D01*
X66657665Y-131414330D01*
X66657663Y-131414331D01*
X66523165Y-131470042D01*
X66407667Y-131558667D01*
X66319042Y-131674165D01*
X66263331Y-131808663D01*
X66263330Y-131808665D01*
X66244329Y-131952998D01*
X66244329Y-131953001D01*
X54000000Y-131953001D01*
X54000000Y-130768097D01*
X96041500Y-130768097D01*
X96078446Y-131001368D01*
X96151433Y-131225996D01*
X96237713Y-131395329D01*
X96258657Y-131436433D01*
X96397483Y-131627510D01*
X96564490Y-131794517D01*
X96755567Y-131933343D01*
X96854991Y-131984002D01*
X96966003Y-132040566D01*
X96966005Y-132040566D01*
X96966008Y-132040568D01*
X97086412Y-132079689D01*
X97190631Y-132113553D01*
X97423903Y-132150500D01*
X97423908Y-132150500D01*
X97660097Y-132150500D01*
X97893368Y-132113553D01*
X97943269Y-132097339D01*
X98117992Y-132040568D01*
X98328433Y-131933343D01*
X98519510Y-131794517D01*
X98686517Y-131627510D01*
X98825343Y-131436433D01*
X98932568Y-131225992D01*
X99005553Y-131001368D01*
X99042500Y-130768097D01*
X128041500Y-130768097D01*
X128078446Y-131001368D01*
X128151433Y-131225996D01*
X128237713Y-131395329D01*
X128258657Y-131436433D01*
X128397483Y-131627510D01*
X128564490Y-131794517D01*
X128755567Y-131933343D01*
X128854991Y-131984002D01*
X128966003Y-132040566D01*
X128966005Y-132040566D01*
X128966008Y-132040568D01*
X129086412Y-132079689D01*
X129190631Y-132113553D01*
X129423903Y-132150500D01*
X129423908Y-132150500D01*
X129660097Y-132150500D01*
X129893368Y-132113553D01*
X129943269Y-132097339D01*
X130117992Y-132040568D01*
X130328433Y-131933343D01*
X130519510Y-131794517D01*
X130686517Y-131627510D01*
X130825343Y-131436433D01*
X130932568Y-131225992D01*
X131005553Y-131001368D01*
X131042500Y-130768097D01*
X131042500Y-130531902D01*
X131005553Y-130298631D01*
X130932566Y-130074003D01*
X130825342Y-129863566D01*
X130686517Y-129672490D01*
X130519510Y-129505483D01*
X130328433Y-129366657D01*
X130117996Y-129259433D01*
X129893368Y-129186446D01*
X129660097Y-129149500D01*
X129660092Y-129149500D01*
X129423908Y-129149500D01*
X129423903Y-129149500D01*
X129190631Y-129186446D01*
X128966003Y-129259433D01*
X128755566Y-129366657D01*
X128646550Y-129445862D01*
X128564490Y-129505483D01*
X128564488Y-129505485D01*
X128564487Y-129505485D01*
X128397485Y-129672487D01*
X128397485Y-129672488D01*
X128397483Y-129672490D01*
X128337862Y-129754550D01*
X128258657Y-129863566D01*
X128151433Y-130074003D01*
X128078446Y-130298631D01*
X128041500Y-130531902D01*
X128041500Y-130768097D01*
X99042500Y-130768097D01*
X99042500Y-130531902D01*
X99005553Y-130298631D01*
X98932566Y-130074003D01*
X98825342Y-129863566D01*
X98686517Y-129672490D01*
X98519510Y-129505483D01*
X98328433Y-129366657D01*
X98117996Y-129259433D01*
X97893368Y-129186446D01*
X97660097Y-129149500D01*
X97660092Y-129149500D01*
X97423908Y-129149500D01*
X97423903Y-129149500D01*
X97190631Y-129186446D01*
X96966003Y-129259433D01*
X96755566Y-129366657D01*
X96646550Y-129445862D01*
X96564490Y-129505483D01*
X96564488Y-129505485D01*
X96564487Y-129505485D01*
X96397485Y-129672487D01*
X96397485Y-129672488D01*
X96397483Y-129672490D01*
X96337862Y-129754550D01*
X96258657Y-129863566D01*
X96151433Y-130074003D01*
X96078446Y-130298631D01*
X96041500Y-130531902D01*
X96041500Y-130768097D01*
X54000000Y-130768097D01*
X54000000Y-111468097D01*
X96041500Y-111468097D01*
X96078446Y-111701368D01*
X96151433Y-111925996D01*
X96258657Y-112136433D01*
X96397483Y-112327510D01*
X96564490Y-112494517D01*
X96755567Y-112633343D01*
X96854991Y-112684002D01*
X96966003Y-112740566D01*
X96966005Y-112740566D01*
X96966008Y-112740568D01*
X97086412Y-112779689D01*
X97190631Y-112813553D01*
X97423903Y-112850500D01*
X97423908Y-112850500D01*
X97660097Y-112850500D01*
X97893368Y-112813553D01*
X98117992Y-112740568D01*
X98328433Y-112633343D01*
X98519510Y-112494517D01*
X98686517Y-112327510D01*
X98825343Y-112136433D01*
X98932568Y-111925992D01*
X99005553Y-111701368D01*
X99042500Y-111468097D01*
X128041500Y-111468097D01*
X128078446Y-111701368D01*
X128151433Y-111925996D01*
X128258657Y-112136433D01*
X128397483Y-112327510D01*
X128564490Y-112494517D01*
X128755567Y-112633343D01*
X128854991Y-112684002D01*
X128966003Y-112740566D01*
X128966005Y-112740566D01*
X128966008Y-112740568D01*
X129086412Y-112779689D01*
X129190631Y-112813553D01*
X129423903Y-112850500D01*
X129423908Y-112850500D01*
X129660097Y-112850500D01*
X129893368Y-112813553D01*
X130117992Y-112740568D01*
X130328433Y-112633343D01*
X130519510Y-112494517D01*
X130686517Y-112327510D01*
X130825343Y-112136433D01*
X130932568Y-111925992D01*
X131005553Y-111701368D01*
X131042500Y-111468097D01*
X131042500Y-111231902D01*
X131005553Y-110998631D01*
X130932566Y-110774003D01*
X130825342Y-110563566D01*
X130686517Y-110372490D01*
X130519510Y-110205483D01*
X130328433Y-110066657D01*
X130117996Y-109959433D01*
X129893368Y-109886446D01*
X129660097Y-109849500D01*
X129660092Y-109849500D01*
X129423908Y-109849500D01*
X129423903Y-109849500D01*
X129190631Y-109886446D01*
X128966003Y-109959433D01*
X128755566Y-110066657D01*
X128646550Y-110145862D01*
X128564490Y-110205483D01*
X128564488Y-110205485D01*
X128564487Y-110205485D01*
X128397485Y-110372487D01*
X128397485Y-110372488D01*
X128397483Y-110372490D01*
X128337862Y-110454550D01*
X128258657Y-110563566D01*
X128151433Y-110774003D01*
X128078446Y-110998631D01*
X128041500Y-111231902D01*
X128041500Y-111468097D01*
X99042500Y-111468097D01*
X99042500Y-111231902D01*
X99005553Y-110998631D01*
X98932566Y-110774003D01*
X98825342Y-110563566D01*
X98686517Y-110372490D01*
X98519510Y-110205483D01*
X98328433Y-110066657D01*
X98117996Y-109959433D01*
X97893368Y-109886446D01*
X97660097Y-109849500D01*
X97660092Y-109849500D01*
X97423908Y-109849500D01*
X97423903Y-109849500D01*
X97190631Y-109886446D01*
X96966003Y-109959433D01*
X96755566Y-110066657D01*
X96646550Y-110145862D01*
X96564490Y-110205483D01*
X96564488Y-110205485D01*
X96564487Y-110205485D01*
X96397485Y-110372487D01*
X96397485Y-110372488D01*
X96397483Y-110372490D01*
X96337862Y-110454550D01*
X96258657Y-110563566D01*
X96151433Y-110774003D01*
X96078446Y-110998631D01*
X96041500Y-111231902D01*
X96041500Y-111468097D01*
X54000000Y-111468097D01*
X54000000Y-108966001D01*
X65990329Y-108966001D01*
X66009330Y-109110334D01*
X66009332Y-109110339D01*
X66065040Y-109244831D01*
X66065040Y-109244832D01*
X66065042Y-109244835D01*
X66065043Y-109244836D01*
X66153667Y-109360333D01*
X66269164Y-109448957D01*
X66269167Y-109448958D01*
X66269168Y-109448959D01*
X66336414Y-109476813D01*
X66403664Y-109504669D01*
X66475832Y-109514170D01*
X66547999Y-109523671D01*
X66548000Y-109523671D01*
X66548001Y-109523671D01*
X66596112Y-109517337D01*
X66692336Y-109504669D01*
X66826831Y-109448959D01*
X66826832Y-109448959D01*
X66826832Y-109448958D01*
X66826836Y-109448957D01*
X66942333Y-109360333D01*
X67030957Y-109244836D01*
X67086669Y-109110336D01*
X67088952Y-109092997D01*
X75515329Y-109092997D01*
X75534330Y-109237330D01*
X75534332Y-109237335D01*
X75590040Y-109371827D01*
X75590040Y-109371828D01*
X75590042Y-109371831D01*
X75590043Y-109371832D01*
X75678667Y-109487329D01*
X75794164Y-109575953D01*
X75794167Y-109575954D01*
X75794168Y-109575955D01*
X75861414Y-109603809D01*
X75928664Y-109631665D01*
X76000832Y-109641166D01*
X76072999Y-109650667D01*
X76073000Y-109650667D01*
X76073001Y-109650667D01*
X76121112Y-109644333D01*
X76217336Y-109631665D01*
X76351831Y-109575955D01*
X76351832Y-109575955D01*
X76351832Y-109575954D01*
X76351836Y-109575953D01*
X76467333Y-109487329D01*
X76555957Y-109371832D01*
X76611669Y-109237332D01*
X76628388Y-109110336D01*
X76630671Y-109092997D01*
X76630671Y-109092994D01*
X76613952Y-108966000D01*
X76611669Y-108948660D01*
X76555957Y-108814161D01*
X76467333Y-108698663D01*
X76351836Y-108610039D01*
X76351833Y-108610038D01*
X76351831Y-108610036D01*
X76217339Y-108554328D01*
X76217334Y-108554326D01*
X76073001Y-108535325D01*
X76072999Y-108535325D01*
X75928665Y-108554326D01*
X75928663Y-108554327D01*
X75794165Y-108610038D01*
X75678667Y-108698663D01*
X75590042Y-108814161D01*
X75534331Y-108948659D01*
X75534330Y-108948661D01*
X75515329Y-109092994D01*
X75515329Y-109092997D01*
X67088952Y-109092997D01*
X67105671Y-108966000D01*
X67103388Y-108948661D01*
X67086669Y-108821665D01*
X67086669Y-108821664D01*
X67030957Y-108687165D01*
X66942333Y-108571667D01*
X66826836Y-108483043D01*
X66826833Y-108483042D01*
X66826831Y-108483040D01*
X66692339Y-108427332D01*
X66692334Y-108427330D01*
X66548001Y-108408329D01*
X66547999Y-108408329D01*
X66403665Y-108427330D01*
X66403663Y-108427331D01*
X66269165Y-108483042D01*
X66153667Y-108571667D01*
X66065042Y-108687165D01*
X66009331Y-108821663D01*
X66009330Y-108821665D01*
X65990329Y-108965998D01*
X65990329Y-108966001D01*
X54000000Y-108966001D01*
X54000000Y-108000001D01*
X72889929Y-108000001D01*
X72908930Y-108144334D01*
X72908932Y-108144339D01*
X72964640Y-108278831D01*
X72964640Y-108278832D01*
X72964642Y-108278835D01*
X72964643Y-108278836D01*
X73053267Y-108394333D01*
X73168764Y-108482957D01*
X73168767Y-108482958D01*
X73168768Y-108482959D01*
X73236014Y-108510813D01*
X73303264Y-108538669D01*
X73375432Y-108548170D01*
X73447599Y-108557671D01*
X73447600Y-108557671D01*
X73447601Y-108557671D01*
X73495712Y-108551337D01*
X73591936Y-108538669D01*
X73726431Y-108482959D01*
X73726432Y-108482959D01*
X73726432Y-108482958D01*
X73726436Y-108482957D01*
X73841933Y-108394333D01*
X73930557Y-108278836D01*
X73986269Y-108144336D01*
X74005271Y-108000000D01*
X73986269Y-107855664D01*
X73930557Y-107721165D01*
X73841933Y-107605667D01*
X73726436Y-107517043D01*
X73726433Y-107517042D01*
X73726431Y-107517040D01*
X73591939Y-107461332D01*
X73591934Y-107461330D01*
X73447601Y-107442329D01*
X73447599Y-107442329D01*
X73303265Y-107461330D01*
X73303263Y-107461331D01*
X73168765Y-107517042D01*
X73053267Y-107605667D01*
X72964642Y-107721165D01*
X72908931Y-107855663D01*
X72908930Y-107855665D01*
X72889929Y-107999998D01*
X72889929Y-108000001D01*
X54000000Y-108000001D01*
X54000000Y-107000001D01*
X71942329Y-107000001D01*
X71961330Y-107144334D01*
X71961332Y-107144339D01*
X72017040Y-107278831D01*
X72017040Y-107278832D01*
X72017042Y-107278835D01*
X72017043Y-107278836D01*
X72105667Y-107394333D01*
X72221164Y-107482957D01*
X72221167Y-107482958D01*
X72221168Y-107482959D01*
X72288414Y-107510813D01*
X72355664Y-107538669D01*
X72427832Y-107548170D01*
X72499999Y-107557671D01*
X72500000Y-107557671D01*
X72500001Y-107557671D01*
X72548112Y-107551337D01*
X72644336Y-107538669D01*
X72778831Y-107482959D01*
X72778832Y-107482959D01*
X72778832Y-107482958D01*
X72778836Y-107482957D01*
X72894333Y-107394333D01*
X72982957Y-107278836D01*
X73038669Y-107144336D01*
X73057671Y-107000000D01*
X73038669Y-106855664D01*
X72982957Y-106721165D01*
X72894333Y-106605667D01*
X72778836Y-106517043D01*
X72778833Y-106517042D01*
X72778831Y-106517040D01*
X72644339Y-106461332D01*
X72644334Y-106461330D01*
X72500001Y-106442329D01*
X72499999Y-106442329D01*
X72355665Y-106461330D01*
X72355663Y-106461331D01*
X72221165Y-106517042D01*
X72105667Y-106605667D01*
X72017042Y-106721165D01*
X71961331Y-106855663D01*
X71961330Y-106855665D01*
X71942329Y-106999998D01*
X71942329Y-107000001D01*
X54000000Y-107000001D01*
X54000000Y-106000001D01*
X73942329Y-106000001D01*
X73961330Y-106144334D01*
X73961332Y-106144339D01*
X74017040Y-106278831D01*
X74017040Y-106278832D01*
X74017042Y-106278835D01*
X74017043Y-106278836D01*
X74105667Y-106394333D01*
X74221164Y-106482957D01*
X74221167Y-106482958D01*
X74221168Y-106482959D01*
X74288414Y-106510813D01*
X74355664Y-106538669D01*
X74427832Y-106548170D01*
X74499999Y-106557671D01*
X74500000Y-106557671D01*
X74500001Y-106557671D01*
X74548112Y-106551337D01*
X74644336Y-106538669D01*
X74778831Y-106482959D01*
X74778832Y-106482959D01*
X74778832Y-106482958D01*
X74778836Y-106482957D01*
X74894333Y-106394333D01*
X74982957Y-106278836D01*
X75038669Y-106144336D01*
X75051747Y-106045001D01*
X78563329Y-106045001D01*
X78582330Y-106189334D01*
X78582332Y-106189339D01*
X78638040Y-106323831D01*
X78638040Y-106323832D01*
X78638042Y-106323835D01*
X78638043Y-106323836D01*
X78726667Y-106439333D01*
X78842164Y-106527957D01*
X78842167Y-106527958D01*
X78842168Y-106527959D01*
X78909414Y-106555813D01*
X78976664Y-106583669D01*
X79048832Y-106593170D01*
X79120999Y-106602671D01*
X79121000Y-106602671D01*
X79121001Y-106602671D01*
X79169112Y-106596337D01*
X79265336Y-106583669D01*
X79399831Y-106527959D01*
X79399832Y-106527959D01*
X79399832Y-106527958D01*
X79399836Y-106527957D01*
X79515333Y-106439333D01*
X79603957Y-106323836D01*
X79659669Y-106189336D01*
X79678671Y-106045000D01*
X79672746Y-105999998D01*
X79659669Y-105900665D01*
X79659669Y-105900664D01*
X79603957Y-105766165D01*
X79515333Y-105650667D01*
X79399836Y-105562043D01*
X79399833Y-105562042D01*
X79399831Y-105562040D01*
X79265339Y-105506332D01*
X79265334Y-105506330D01*
X79121001Y-105487329D01*
X79120999Y-105487329D01*
X78976665Y-105506330D01*
X78976663Y-105506331D01*
X78842165Y-105562042D01*
X78726667Y-105650667D01*
X78638042Y-105766165D01*
X78582331Y-105900663D01*
X78582330Y-105900665D01*
X78563329Y-106044998D01*
X78563329Y-106045001D01*
X75051747Y-106045001D01*
X75057671Y-106000000D01*
X75038669Y-105855664D01*
X74982957Y-105721165D01*
X74928863Y-105650668D01*
X74894334Y-105605668D01*
X74851707Y-105572959D01*
X74778836Y-105517043D01*
X74778833Y-105517042D01*
X74778831Y-105517040D01*
X74644339Y-105461332D01*
X74644334Y-105461330D01*
X74500001Y-105442329D01*
X74499999Y-105442329D01*
X74355665Y-105461330D01*
X74355663Y-105461331D01*
X74221165Y-105517042D01*
X74105667Y-105605667D01*
X74017042Y-105721165D01*
X73961331Y-105855663D01*
X73961330Y-105855665D01*
X73942329Y-105999998D01*
X73942329Y-106000001D01*
X54000000Y-106000001D01*
X54000000Y-105124000D01*
X54019685Y-105056961D01*
X54072489Y-105011206D01*
X54124000Y-105000000D01*
X62948735Y-105000000D01*
X63015774Y-105019685D01*
G37*
G04 #@! TD.AperFunction*
G04 #@! TA.AperFunction,Conductor*
G36*
X63018802Y-71019685D02*
G01*
X63064557Y-71072489D01*
X63074702Y-71140185D01*
X63069329Y-71180998D01*
X63069329Y-71181001D01*
X63088330Y-71325334D01*
X63088332Y-71325339D01*
X63144040Y-71459831D01*
X63144040Y-71459832D01*
X63144042Y-71459835D01*
X63144043Y-71459836D01*
X63232667Y-71575333D01*
X63348164Y-71663957D01*
X63348167Y-71663958D01*
X63348168Y-71663959D01*
X63415414Y-71691813D01*
X63482664Y-71719669D01*
X63554832Y-71729170D01*
X63626999Y-71738671D01*
X63627000Y-71738671D01*
X63627001Y-71738671D01*
X63675112Y-71732337D01*
X63771336Y-71719669D01*
X63905831Y-71663959D01*
X63905832Y-71663959D01*
X63905832Y-71663958D01*
X63905836Y-71663957D01*
X64021333Y-71575333D01*
X64109957Y-71459836D01*
X64165669Y-71325336D01*
X64184671Y-71181000D01*
X64179298Y-71140185D01*
X64190064Y-71071149D01*
X64236444Y-71018894D01*
X64302237Y-71000000D01*
X73914124Y-71000000D01*
X73981163Y-71019685D01*
X74012500Y-71048514D01*
X74017041Y-71054433D01*
X74017043Y-71054436D01*
X74030896Y-71072489D01*
X74082840Y-71140185D01*
X74105667Y-71169933D01*
X74221164Y-71258557D01*
X74221167Y-71258558D01*
X74221168Y-71258559D01*
X74267299Y-71277667D01*
X74355664Y-71314269D01*
X74427832Y-71323770D01*
X74499999Y-71333271D01*
X74500000Y-71333271D01*
X74500001Y-71333271D01*
X74560288Y-71325334D01*
X74644336Y-71314269D01*
X74778831Y-71258559D01*
X74778832Y-71258559D01*
X74778832Y-71258558D01*
X74778836Y-71258557D01*
X74894333Y-71169933D01*
X74982957Y-71054436D01*
X74982958Y-71054432D01*
X74987500Y-71048514D01*
X75043928Y-71007311D01*
X75085876Y-71000000D01*
X78436207Y-71000000D01*
X78503246Y-71019685D01*
X78534580Y-71048510D01*
X78599667Y-71133333D01*
X78715164Y-71221957D01*
X78715167Y-71221958D01*
X78715168Y-71221959D01*
X78782414Y-71249813D01*
X78849664Y-71277669D01*
X78921832Y-71287170D01*
X78993999Y-71296671D01*
X78994000Y-71296671D01*
X78994001Y-71296671D01*
X79042112Y-71290337D01*
X79138336Y-71277669D01*
X79272831Y-71221959D01*
X79272832Y-71221959D01*
X79272832Y-71221958D01*
X79272836Y-71221957D01*
X79388333Y-71133333D01*
X79453418Y-71048511D01*
X79509845Y-71007311D01*
X79551793Y-71000000D01*
X160876000Y-71000000D01*
X160943039Y-71019685D01*
X160988794Y-71072489D01*
X161000000Y-71124000D01*
X161000000Y-102876000D01*
X160980315Y-102943039D01*
X160927511Y-102988794D01*
X160876000Y-103000000D01*
X54124000Y-103000000D01*
X54056961Y-102980315D01*
X54011206Y-102927511D01*
X54000000Y-102876000D01*
X54000000Y-97917001D01*
X65990329Y-97917001D01*
X66009330Y-98061334D01*
X66009332Y-98061339D01*
X66065040Y-98195831D01*
X66065040Y-98195832D01*
X66065042Y-98195835D01*
X66065043Y-98195836D01*
X66153667Y-98311333D01*
X66269164Y-98399957D01*
X66269167Y-98399958D01*
X66269168Y-98399959D01*
X66336414Y-98427813D01*
X66403664Y-98455669D01*
X66475832Y-98465170D01*
X66547999Y-98474671D01*
X66548000Y-98474671D01*
X66548001Y-98474671D01*
X66596112Y-98468337D01*
X66692336Y-98455669D01*
X66826831Y-98399959D01*
X66826832Y-98399959D01*
X66826832Y-98399958D01*
X66826836Y-98399957D01*
X66942333Y-98311333D01*
X67030957Y-98195836D01*
X67086669Y-98061336D01*
X67099337Y-97965112D01*
X67105671Y-97917001D01*
X67105671Y-97916998D01*
X67086669Y-97772665D01*
X67086669Y-97772664D01*
X67030957Y-97638165D01*
X66942333Y-97522667D01*
X66826836Y-97434043D01*
X66826833Y-97434042D01*
X66826831Y-97434040D01*
X66692339Y-97378332D01*
X66692334Y-97378330D01*
X66548001Y-97359329D01*
X66547999Y-97359329D01*
X66403665Y-97378330D01*
X66403663Y-97378331D01*
X66269165Y-97434042D01*
X66153667Y-97522667D01*
X66065042Y-97638165D01*
X66009331Y-97772663D01*
X66009330Y-97772665D01*
X65990329Y-97916998D01*
X65990329Y-97917001D01*
X54000000Y-97917001D01*
X54000000Y-96768097D01*
X96041500Y-96768097D01*
X96078446Y-97001368D01*
X96151433Y-97225996D01*
X96229053Y-97378332D01*
X96258657Y-97436433D01*
X96397483Y-97627510D01*
X96564490Y-97794517D01*
X96755567Y-97933343D01*
X96854991Y-97984002D01*
X96966003Y-98040566D01*
X96966005Y-98040566D01*
X96966008Y-98040568D01*
X97086412Y-98079689D01*
X97190631Y-98113553D01*
X97423903Y-98150500D01*
X97423908Y-98150500D01*
X97660097Y-98150500D01*
X97893368Y-98113553D01*
X98117992Y-98040568D01*
X98328433Y-97933343D01*
X98519510Y-97794517D01*
X98686517Y-97627510D01*
X98825343Y-97436433D01*
X98932568Y-97225992D01*
X99005553Y-97001368D01*
X99042500Y-96768097D01*
X128041500Y-96768097D01*
X128078446Y-97001368D01*
X128151433Y-97225996D01*
X128229053Y-97378332D01*
X128258657Y-97436433D01*
X128397483Y-97627510D01*
X128564490Y-97794517D01*
X128755567Y-97933343D01*
X128854991Y-97984002D01*
X128966003Y-98040566D01*
X128966005Y-98040566D01*
X128966008Y-98040568D01*
X129086412Y-98079689D01*
X129190631Y-98113553D01*
X129423903Y-98150500D01*
X129423908Y-98150500D01*
X129660097Y-98150500D01*
X129893368Y-98113553D01*
X130117992Y-98040568D01*
X130328433Y-97933343D01*
X130519510Y-97794517D01*
X130686517Y-97627510D01*
X130825343Y-97436433D01*
X130932568Y-97225992D01*
X131005553Y-97001368D01*
X131042500Y-96768097D01*
X131042500Y-96531902D01*
X131005553Y-96298631D01*
X130932566Y-96074003D01*
X130825342Y-95863566D01*
X130686517Y-95672490D01*
X130519510Y-95505483D01*
X130328433Y-95366657D01*
X130117996Y-95259433D01*
X129893368Y-95186446D01*
X129660097Y-95149500D01*
X129660092Y-95149500D01*
X129423908Y-95149500D01*
X129423903Y-95149500D01*
X129190631Y-95186446D01*
X128966003Y-95259433D01*
X128755566Y-95366657D01*
X128646550Y-95445862D01*
X128564490Y-95505483D01*
X128564488Y-95505485D01*
X128564487Y-95505485D01*
X128397485Y-95672487D01*
X128397485Y-95672488D01*
X128397483Y-95672490D01*
X128337862Y-95754550D01*
X128258657Y-95863566D01*
X128151433Y-96074003D01*
X128078446Y-96298631D01*
X128041500Y-96531902D01*
X128041500Y-96768097D01*
X99042500Y-96768097D01*
X99042500Y-96531902D01*
X99005553Y-96298631D01*
X98932566Y-96074003D01*
X98825342Y-95863566D01*
X98686517Y-95672490D01*
X98519510Y-95505483D01*
X98328433Y-95366657D01*
X98117996Y-95259433D01*
X97893368Y-95186446D01*
X97660097Y-95149500D01*
X97660092Y-95149500D01*
X97423908Y-95149500D01*
X97423903Y-95149500D01*
X97190631Y-95186446D01*
X96966003Y-95259433D01*
X96755566Y-95366657D01*
X96646550Y-95445862D01*
X96564490Y-95505483D01*
X96564488Y-95505485D01*
X96564487Y-95505485D01*
X96397485Y-95672487D01*
X96397485Y-95672488D01*
X96397483Y-95672490D01*
X96337862Y-95754550D01*
X96258657Y-95863566D01*
X96151433Y-96074003D01*
X96078446Y-96298631D01*
X96041500Y-96531902D01*
X96041500Y-96768097D01*
X54000000Y-96768097D01*
X54000000Y-77468097D01*
X96041500Y-77468097D01*
X96078446Y-77701368D01*
X96151433Y-77925996D01*
X96258657Y-78136433D01*
X96397483Y-78327510D01*
X96564490Y-78494517D01*
X96755567Y-78633343D01*
X96854991Y-78684002D01*
X96966003Y-78740566D01*
X96966005Y-78740566D01*
X96966008Y-78740568D01*
X97086412Y-78779689D01*
X97190631Y-78813553D01*
X97423903Y-78850500D01*
X97423908Y-78850500D01*
X97660097Y-78850500D01*
X97893368Y-78813553D01*
X98117992Y-78740568D01*
X98328433Y-78633343D01*
X98519510Y-78494517D01*
X98686517Y-78327510D01*
X98825343Y-78136433D01*
X98932568Y-77925992D01*
X99005553Y-77701368D01*
X99042500Y-77468097D01*
X128041500Y-77468097D01*
X128078446Y-77701368D01*
X128151433Y-77925996D01*
X128258657Y-78136433D01*
X128397483Y-78327510D01*
X128564490Y-78494517D01*
X128755567Y-78633343D01*
X128854991Y-78684002D01*
X128966003Y-78740566D01*
X128966005Y-78740566D01*
X128966008Y-78740568D01*
X129086412Y-78779689D01*
X129190631Y-78813553D01*
X129423903Y-78850500D01*
X129423908Y-78850500D01*
X129660097Y-78850500D01*
X129893368Y-78813553D01*
X130117992Y-78740568D01*
X130328433Y-78633343D01*
X130519510Y-78494517D01*
X130686517Y-78327510D01*
X130825343Y-78136433D01*
X130932568Y-77925992D01*
X131005553Y-77701368D01*
X131042500Y-77468097D01*
X131042500Y-77231902D01*
X131005553Y-76998631D01*
X130932566Y-76774003D01*
X130825342Y-76563566D01*
X130686517Y-76372490D01*
X130519510Y-76205483D01*
X130328433Y-76066657D01*
X130310797Y-76057671D01*
X130117996Y-75959433D01*
X129893368Y-75886446D01*
X129660097Y-75849500D01*
X129660092Y-75849500D01*
X129423908Y-75849500D01*
X129423903Y-75849500D01*
X129190631Y-75886446D01*
X128966003Y-75959433D01*
X128755566Y-76066657D01*
X128646550Y-76145862D01*
X128564490Y-76205483D01*
X128564488Y-76205485D01*
X128564487Y-76205485D01*
X128397485Y-76372487D01*
X128397485Y-76372488D01*
X128397483Y-76372490D01*
X128337862Y-76454550D01*
X128258657Y-76563566D01*
X128151433Y-76774003D01*
X128078446Y-76998631D01*
X128041500Y-77231902D01*
X128041500Y-77468097D01*
X99042500Y-77468097D01*
X99042500Y-77231902D01*
X99005553Y-76998631D01*
X98932566Y-76774003D01*
X98825342Y-76563566D01*
X98686517Y-76372490D01*
X98519510Y-76205483D01*
X98328433Y-76066657D01*
X98310797Y-76057671D01*
X98117996Y-75959433D01*
X97893368Y-75886446D01*
X97660097Y-75849500D01*
X97660092Y-75849500D01*
X97423908Y-75849500D01*
X97423903Y-75849500D01*
X97190631Y-75886446D01*
X96966003Y-75959433D01*
X96755566Y-76066657D01*
X96646550Y-76145862D01*
X96564490Y-76205483D01*
X96564488Y-76205485D01*
X96564487Y-76205485D01*
X96397485Y-76372487D01*
X96397485Y-76372488D01*
X96397483Y-76372490D01*
X96337862Y-76454550D01*
X96258657Y-76563566D01*
X96151433Y-76774003D01*
X96078446Y-76998631D01*
X96041500Y-77231902D01*
X96041500Y-77468097D01*
X54000000Y-77468097D01*
X54000000Y-75500001D01*
X75192329Y-75500001D01*
X75211330Y-75644334D01*
X75211332Y-75644339D01*
X75267040Y-75778831D01*
X75267040Y-75778832D01*
X75267042Y-75778835D01*
X75267043Y-75778836D01*
X75355667Y-75894333D01*
X75471164Y-75982957D01*
X75471167Y-75982958D01*
X75471168Y-75982959D01*
X75538414Y-76010813D01*
X75605664Y-76038669D01*
X75677832Y-76048170D01*
X75749999Y-76057671D01*
X75750000Y-76057671D01*
X75750001Y-76057671D01*
X75798112Y-76051337D01*
X75894336Y-76038669D01*
X76028831Y-75982959D01*
X76028832Y-75982959D01*
X76028832Y-75982958D01*
X76028836Y-75982957D01*
X76144333Y-75894333D01*
X76232957Y-75778836D01*
X76288669Y-75644336D01*
X76307671Y-75500000D01*
X76288669Y-75355664D01*
X76232957Y-75221165D01*
X76144333Y-75105667D01*
X76028836Y-75017043D01*
X76028833Y-75017042D01*
X76028831Y-75017040D01*
X75894339Y-74961332D01*
X75894334Y-74961330D01*
X75750001Y-74942329D01*
X75749999Y-74942329D01*
X75605665Y-74961330D01*
X75605663Y-74961331D01*
X75471165Y-75017042D01*
X75355667Y-75105667D01*
X75267042Y-75221165D01*
X75211331Y-75355663D01*
X75211330Y-75355665D01*
X75192329Y-75499998D01*
X75192329Y-75500001D01*
X54000000Y-75500001D01*
X54000000Y-74930001D01*
X65736329Y-74930001D01*
X65755330Y-75074334D01*
X65755332Y-75074339D01*
X65811040Y-75208831D01*
X65811040Y-75208832D01*
X65811042Y-75208835D01*
X65811043Y-75208836D01*
X65899667Y-75324333D01*
X66015164Y-75412957D01*
X66015167Y-75412958D01*
X66015168Y-75412959D01*
X66082414Y-75440813D01*
X66149664Y-75468669D01*
X66221832Y-75478170D01*
X66293999Y-75487671D01*
X66294000Y-75487671D01*
X66294001Y-75487671D01*
X66342112Y-75481337D01*
X66438336Y-75468669D01*
X66572831Y-75412959D01*
X66572832Y-75412959D01*
X66572832Y-75412958D01*
X66572836Y-75412957D01*
X66688333Y-75324333D01*
X66776957Y-75208836D01*
X66832669Y-75074336D01*
X66851671Y-74930000D01*
X66832669Y-74785664D01*
X66776957Y-74651165D01*
X66705217Y-74557671D01*
X66688334Y-74535668D01*
X66688333Y-74535667D01*
X66572836Y-74447043D01*
X66572833Y-74447042D01*
X66572831Y-74447040D01*
X66438339Y-74391332D01*
X66438334Y-74391330D01*
X66294001Y-74372329D01*
X66293999Y-74372329D01*
X66149665Y-74391330D01*
X66149663Y-74391331D01*
X66015165Y-74447042D01*
X65899667Y-74535667D01*
X65811042Y-74651165D01*
X65755331Y-74785663D01*
X65755330Y-74785665D01*
X65736329Y-74929998D01*
X65736329Y-74930001D01*
X54000000Y-74930001D01*
X54000000Y-74000001D01*
X72889929Y-74000001D01*
X72908930Y-74144334D01*
X72908932Y-74144339D01*
X72964640Y-74278831D01*
X72964640Y-74278832D01*
X72964642Y-74278835D01*
X72964643Y-74278836D01*
X73053267Y-74394333D01*
X73168764Y-74482957D01*
X73168767Y-74482958D01*
X73168768Y-74482959D01*
X73236014Y-74510813D01*
X73303264Y-74538669D01*
X73375432Y-74548170D01*
X73447599Y-74557671D01*
X73447600Y-74557671D01*
X73447601Y-74557671D01*
X73495712Y-74551337D01*
X73591936Y-74538669D01*
X73726431Y-74482959D01*
X73726432Y-74482959D01*
X73726432Y-74482958D01*
X73726436Y-74482957D01*
X73841933Y-74394333D01*
X73930557Y-74278836D01*
X73986269Y-74144336D01*
X74005271Y-74000000D01*
X73986269Y-73855664D01*
X73930557Y-73721165D01*
X73841933Y-73605667D01*
X73726436Y-73517043D01*
X73726433Y-73517042D01*
X73726431Y-73517040D01*
X73591939Y-73461332D01*
X73591934Y-73461330D01*
X73447601Y-73442329D01*
X73447599Y-73442329D01*
X73303265Y-73461330D01*
X73303263Y-73461331D01*
X73168765Y-73517042D01*
X73053267Y-73605667D01*
X72964642Y-73721165D01*
X72908931Y-73855663D01*
X72908930Y-73855665D01*
X72889929Y-73999998D01*
X72889929Y-74000001D01*
X54000000Y-74000001D01*
X54000000Y-73175001D01*
X70442331Y-73175001D01*
X70461332Y-73319334D01*
X70461334Y-73319339D01*
X70517042Y-73453831D01*
X70517042Y-73453832D01*
X70517044Y-73453835D01*
X70517045Y-73453836D01*
X70605669Y-73569333D01*
X70721166Y-73657957D01*
X70721169Y-73657958D01*
X70721170Y-73657959D01*
X70788416Y-73685813D01*
X70855666Y-73713669D01*
X70927834Y-73723170D01*
X71000001Y-73732671D01*
X71000002Y-73732671D01*
X71000003Y-73732671D01*
X71048114Y-73726337D01*
X71144338Y-73713669D01*
X71278833Y-73657959D01*
X71278834Y-73657959D01*
X71278834Y-73657958D01*
X71278838Y-73657957D01*
X71394335Y-73569333D01*
X71482959Y-73453836D01*
X71538671Y-73319336D01*
X71557673Y-73175000D01*
X71538671Y-73030664D01*
X71482959Y-72896165D01*
X71394335Y-72780667D01*
X71278838Y-72692043D01*
X71278835Y-72692042D01*
X71278833Y-72692040D01*
X71144341Y-72636332D01*
X71144336Y-72636330D01*
X71000003Y-72617329D01*
X71000001Y-72617329D01*
X70855667Y-72636330D01*
X70855665Y-72636331D01*
X70721167Y-72692042D01*
X70605669Y-72780667D01*
X70517044Y-72896165D01*
X70461333Y-73030663D01*
X70461332Y-73030665D01*
X70442331Y-73174998D01*
X70442331Y-73175001D01*
X54000000Y-73175001D01*
X54000000Y-71124000D01*
X54019685Y-71056961D01*
X54072489Y-71011206D01*
X54124000Y-71000000D01*
X62951763Y-71000000D01*
X63018802Y-71019685D01*
G37*
G04 #@! TD.AperFunction*
G04 #@! TA.AperFunction,Conductor*
G36*
X158876006Y-32000225D02*
G01*
X158943042Y-32019910D01*
X158988796Y-32072715D01*
X159000000Y-32124224D01*
X159000000Y-40376000D01*
X158980315Y-40443039D01*
X158927511Y-40488794D01*
X158876000Y-40500000D01*
X148166416Y-40500000D01*
X148099377Y-40480315D01*
X148053622Y-40427511D01*
X148043477Y-40392185D01*
X148038669Y-40355665D01*
X148038669Y-40355664D01*
X147982957Y-40221165D01*
X147894333Y-40105667D01*
X147778836Y-40017043D01*
X147778833Y-40017042D01*
X147778831Y-40017040D01*
X147644339Y-39961332D01*
X147644334Y-39961330D01*
X147500001Y-39942329D01*
X147499999Y-39942329D01*
X147355665Y-39961330D01*
X147355663Y-39961331D01*
X147221165Y-40017042D01*
X147105667Y-40105667D01*
X147017042Y-40221165D01*
X146961331Y-40355663D01*
X146961330Y-40355665D01*
X146942329Y-40499998D01*
X146942329Y-40500000D01*
X146961330Y-40644334D01*
X146961331Y-40644336D01*
X146990561Y-40714902D01*
X147000000Y-40762355D01*
X147000000Y-50376000D01*
X146980315Y-50443039D01*
X146927511Y-50488794D01*
X146876000Y-50500000D01*
X138240911Y-50500000D01*
X138173872Y-50480315D01*
X138128117Y-50427511D01*
X138117972Y-50392185D01*
X138117465Y-50388331D01*
X138115018Y-50369746D01*
X138059306Y-50235247D01*
X137995174Y-50151668D01*
X137970683Y-50119750D01*
X137952326Y-50105664D01*
X137855185Y-50031125D01*
X137855182Y-50031124D01*
X137855180Y-50031122D01*
X137720688Y-49975414D01*
X137720683Y-49975412D01*
X137576350Y-49956411D01*
X137576348Y-49956411D01*
X137432014Y-49975412D01*
X137432012Y-49975413D01*
X137297514Y-50031124D01*
X137182015Y-50119749D01*
X137136803Y-50178671D01*
X137080375Y-50219873D01*
X137010629Y-50224028D01*
X136949709Y-50189815D01*
X136940061Y-50178681D01*
X136919333Y-50151667D01*
X136803836Y-50063043D01*
X136803833Y-50063042D01*
X136803831Y-50063040D01*
X136669339Y-50007332D01*
X136669334Y-50007330D01*
X136525001Y-49988329D01*
X136524999Y-49988329D01*
X136380665Y-50007330D01*
X136380663Y-50007331D01*
X136246165Y-50063042D01*
X136130667Y-50151667D01*
X136042042Y-50267165D01*
X135986330Y-50401666D01*
X135984609Y-50408091D01*
X135948246Y-50467752D01*
X135885399Y-50498283D01*
X135864834Y-50500000D01*
X130901753Y-50500000D01*
X130834714Y-50480315D01*
X130788959Y-50427511D01*
X130778814Y-50359815D01*
X130793271Y-50250001D01*
X130793271Y-50249998D01*
X130774269Y-50105665D01*
X130774269Y-50105664D01*
X130718557Y-49971165D01*
X130629933Y-49855667D01*
X130514436Y-49767043D01*
X130514433Y-49767042D01*
X130514431Y-49767040D01*
X130379939Y-49711332D01*
X130379934Y-49711330D01*
X130235601Y-49692329D01*
X130235599Y-49692329D01*
X130091265Y-49711330D01*
X130091263Y-49711331D01*
X129956765Y-49767042D01*
X129841267Y-49855667D01*
X129752642Y-49971165D01*
X129696931Y-50105663D01*
X129696930Y-50105665D01*
X129677929Y-50249998D01*
X129677929Y-50250001D01*
X129692386Y-50359815D01*
X129681620Y-50428850D01*
X129635240Y-50481106D01*
X129569447Y-50500000D01*
X115988435Y-50500000D01*
X115921396Y-50480315D01*
X115912956Y-50474382D01*
X115873418Y-50444043D01*
X115873417Y-50444042D01*
X115873414Y-50444040D01*
X115738921Y-50388332D01*
X115738916Y-50388330D01*
X115594583Y-50369329D01*
X115594581Y-50369329D01*
X115450247Y-50388330D01*
X115450245Y-50388331D01*
X115315749Y-50444041D01*
X115301379Y-50455067D01*
X115276214Y-50474376D01*
X115211047Y-50499570D01*
X115200730Y-50500000D01*
X114624000Y-50500000D01*
X114556961Y-50480315D01*
X114511206Y-50427511D01*
X114500000Y-50376000D01*
X114500000Y-48025001D01*
X140419066Y-48025001D01*
X140438067Y-48169334D01*
X140438069Y-48169339D01*
X140493777Y-48303831D01*
X140493777Y-48303832D01*
X140493779Y-48303835D01*
X140493780Y-48303836D01*
X140582404Y-48419333D01*
X140697901Y-48507957D01*
X140697904Y-48507958D01*
X140697905Y-48507959D01*
X140765151Y-48535813D01*
X140832401Y-48563669D01*
X140904569Y-48573170D01*
X140976736Y-48582671D01*
X140976737Y-48582671D01*
X140976738Y-48582671D01*
X141024849Y-48576337D01*
X141121073Y-48563669D01*
X141255568Y-48507959D01*
X141255569Y-48507959D01*
X141255569Y-48507958D01*
X141255573Y-48507957D01*
X141371070Y-48419333D01*
X141459694Y-48303836D01*
X141515406Y-48169336D01*
X141534408Y-48025000D01*
X141515406Y-47880664D01*
X141459694Y-47746165D01*
X141371070Y-47630667D01*
X141328986Y-47598375D01*
X141287784Y-47541948D01*
X141283629Y-47472202D01*
X141317841Y-47411282D01*
X141328986Y-47401625D01*
X141371070Y-47369333D01*
X141459694Y-47253836D01*
X141515406Y-47119336D01*
X141534408Y-46975000D01*
X141533283Y-46966457D01*
X141515406Y-46830665D01*
X141515406Y-46830664D01*
X141459694Y-46696165D01*
X141410333Y-46631836D01*
X141371071Y-46580668D01*
X141371070Y-46580667D01*
X141255573Y-46492043D01*
X141255570Y-46492042D01*
X141255568Y-46492040D01*
X141121076Y-46436332D01*
X141121071Y-46436330D01*
X140976738Y-46417329D01*
X140976736Y-46417329D01*
X140832402Y-46436330D01*
X140832400Y-46436331D01*
X140697902Y-46492042D01*
X140582404Y-46580667D01*
X140493779Y-46696165D01*
X140438068Y-46830663D01*
X140438067Y-46830665D01*
X140419066Y-46974998D01*
X140419066Y-46975001D01*
X140438067Y-47119334D01*
X140438069Y-47119339D01*
X140493777Y-47253831D01*
X140493777Y-47253832D01*
X140582406Y-47369335D01*
X140624487Y-47401625D01*
X140665690Y-47458053D01*
X140669844Y-47527799D01*
X140635631Y-47588719D01*
X140624487Y-47598375D01*
X140582404Y-47630666D01*
X140493779Y-47746165D01*
X140438068Y-47880663D01*
X140438067Y-47880665D01*
X140419066Y-48024998D01*
X140419066Y-48025001D01*
X114500000Y-48025001D01*
X114500000Y-46487501D01*
X128479829Y-46487501D01*
X128498830Y-46631834D01*
X128498832Y-46631839D01*
X128554540Y-46766331D01*
X128554540Y-46766332D01*
X128554542Y-46766335D01*
X128554543Y-46766336D01*
X128643167Y-46881833D01*
X128758664Y-46970457D01*
X128758667Y-46970458D01*
X128758668Y-46970459D01*
X128825914Y-46998313D01*
X128893164Y-47026169D01*
X128965332Y-47035670D01*
X129037499Y-47045171D01*
X129037500Y-47045171D01*
X129037501Y-47045171D01*
X129085612Y-47038837D01*
X129181836Y-47026169D01*
X129316331Y-46970459D01*
X129316332Y-46970459D01*
X129316332Y-46970458D01*
X129316336Y-46970457D01*
X129431833Y-46881833D01*
X129520457Y-46766336D01*
X129576169Y-46631836D01*
X129589356Y-46531671D01*
X129595171Y-46487501D01*
X129595171Y-46487498D01*
X129594645Y-46483501D01*
X130250829Y-46483501D01*
X130269830Y-46627834D01*
X130269832Y-46627839D01*
X130325540Y-46762331D01*
X130325540Y-46762332D01*
X130325542Y-46762335D01*
X130325543Y-46762336D01*
X130414167Y-46877833D01*
X130529664Y-46966457D01*
X130529667Y-46966458D01*
X130529668Y-46966459D01*
X130596914Y-46994313D01*
X130664164Y-47022169D01*
X130736332Y-47031670D01*
X130808499Y-47041171D01*
X130808500Y-47041171D01*
X130808501Y-47041171D01*
X130856612Y-47034837D01*
X130952836Y-47022169D01*
X131087331Y-46966459D01*
X131087332Y-46966459D01*
X131087332Y-46966458D01*
X131087336Y-46966457D01*
X131202833Y-46877833D01*
X131291457Y-46762336D01*
X131347169Y-46627836D01*
X131365046Y-46492043D01*
X131366171Y-46483501D01*
X131366171Y-46483498D01*
X131352513Y-46379757D01*
X131347169Y-46339164D01*
X131291457Y-46204665D01*
X131290146Y-46202957D01*
X131202834Y-46089168D01*
X131185617Y-46075957D01*
X131087336Y-46000543D01*
X131087333Y-46000542D01*
X131087331Y-46000540D01*
X130952839Y-45944832D01*
X130952834Y-45944830D01*
X130808501Y-45925829D01*
X130808499Y-45925829D01*
X130664165Y-45944830D01*
X130664163Y-45944831D01*
X130529665Y-46000542D01*
X130414167Y-46089167D01*
X130325542Y-46204665D01*
X130269831Y-46339163D01*
X130269830Y-46339165D01*
X130250829Y-46483498D01*
X130250829Y-46483501D01*
X129594645Y-46483501D01*
X129580987Y-46379759D01*
X129576169Y-46343164D01*
X129520457Y-46208665D01*
X129475957Y-46150671D01*
X129431834Y-46093168D01*
X129409407Y-46075959D01*
X129316336Y-46004543D01*
X129316333Y-46004542D01*
X129316331Y-46004540D01*
X129181839Y-45948832D01*
X129181834Y-45948830D01*
X129037501Y-45929829D01*
X129037499Y-45929829D01*
X128893165Y-45948830D01*
X128893163Y-45948831D01*
X128758665Y-46004542D01*
X128643167Y-46093167D01*
X128554542Y-46208665D01*
X128498831Y-46343163D01*
X128498830Y-46343165D01*
X128479829Y-46487498D01*
X128479829Y-46487501D01*
X114500000Y-46487501D01*
X114500000Y-45720001D01*
X119584329Y-45720001D01*
X119603330Y-45864334D01*
X119603332Y-45864339D01*
X119659040Y-45998831D01*
X119659040Y-45998832D01*
X119659042Y-45998835D01*
X119659043Y-45998836D01*
X119747667Y-46114333D01*
X119863164Y-46202957D01*
X119863167Y-46202958D01*
X119863168Y-46202959D01*
X119867287Y-46204665D01*
X119997664Y-46258669D01*
X120069832Y-46268170D01*
X120141999Y-46277671D01*
X120142000Y-46277671D01*
X120142001Y-46277671D01*
X120190112Y-46271337D01*
X120286336Y-46258669D01*
X120420831Y-46202959D01*
X120420832Y-46202959D01*
X120420832Y-46202958D01*
X120420836Y-46202957D01*
X120536333Y-46114333D01*
X120624957Y-45998836D01*
X120680669Y-45864336D01*
X120699671Y-45720001D01*
X121362329Y-45720001D01*
X121381330Y-45864334D01*
X121381332Y-45864339D01*
X121437040Y-45998831D01*
X121437040Y-45998832D01*
X121437042Y-45998835D01*
X121437043Y-45998836D01*
X121525667Y-46114333D01*
X121641164Y-46202957D01*
X121641167Y-46202958D01*
X121641168Y-46202959D01*
X121645287Y-46204665D01*
X121775664Y-46258669D01*
X121847832Y-46268170D01*
X121919999Y-46277671D01*
X121920000Y-46277671D01*
X121920001Y-46277671D01*
X121968112Y-46271337D01*
X122064336Y-46258669D01*
X122198831Y-46202959D01*
X122198832Y-46202959D01*
X122198832Y-46202958D01*
X122198836Y-46202957D01*
X122314333Y-46114333D01*
X122402957Y-45998836D01*
X122445221Y-45896801D01*
X123229488Y-45896801D01*
X123248489Y-46041134D01*
X123248491Y-46041139D01*
X123304199Y-46175631D01*
X123304199Y-46175632D01*
X123304201Y-46175635D01*
X123304202Y-46175636D01*
X123392826Y-46291133D01*
X123508323Y-46379757D01*
X123508326Y-46379758D01*
X123508327Y-46379759D01*
X123575573Y-46407613D01*
X123642823Y-46435469D01*
X123714991Y-46444970D01*
X123787158Y-46454471D01*
X123787159Y-46454471D01*
X123787160Y-46454471D01*
X123835271Y-46448137D01*
X123931495Y-46435469D01*
X124065990Y-46379759D01*
X124065991Y-46379759D01*
X124065991Y-46379758D01*
X124065995Y-46379757D01*
X124181492Y-46291133D01*
X124270116Y-46175636D01*
X124325828Y-46041136D01*
X124344830Y-45896800D01*
X124344820Y-45896726D01*
X125171625Y-45896726D01*
X125190626Y-46041059D01*
X125190628Y-46041064D01*
X125246336Y-46175556D01*
X125246336Y-46175557D01*
X125246338Y-46175560D01*
X125246339Y-46175561D01*
X125334963Y-46291058D01*
X125450460Y-46379682D01*
X125450463Y-46379683D01*
X125450464Y-46379684D01*
X125517710Y-46407538D01*
X125584960Y-46435394D01*
X125657128Y-46444895D01*
X125729295Y-46454396D01*
X125729296Y-46454396D01*
X125729297Y-46454396D01*
X125777408Y-46448062D01*
X125873632Y-46435394D01*
X126008127Y-46379684D01*
X126008128Y-46379684D01*
X126008128Y-46379683D01*
X126008132Y-46379682D01*
X126123629Y-46291058D01*
X126212253Y-46175561D01*
X126267965Y-46041061D01*
X126286957Y-45896800D01*
X126286967Y-45896726D01*
X126286967Y-45896723D01*
X126267965Y-45752390D01*
X126267965Y-45752389D01*
X126212253Y-45617890D01*
X126193155Y-45593001D01*
X134994229Y-45593001D01*
X135013230Y-45737334D01*
X135013232Y-45737339D01*
X135068940Y-45871831D01*
X135068940Y-45871832D01*
X135068942Y-45871835D01*
X135068943Y-45871836D01*
X135157567Y-45987333D01*
X135273064Y-46075957D01*
X135273067Y-46075958D01*
X135273068Y-46075959D01*
X135304958Y-46089168D01*
X135407564Y-46131669D01*
X135479732Y-46141170D01*
X135551899Y-46150671D01*
X135551900Y-46150671D01*
X135551901Y-46150671D01*
X135600012Y-46144337D01*
X135696236Y-46131669D01*
X135830731Y-46075959D01*
X135830732Y-46075959D01*
X135830732Y-46075958D01*
X135830736Y-46075957D01*
X135946233Y-45987333D01*
X136034857Y-45871836D01*
X136090569Y-45737336D01*
X136109571Y-45593000D01*
X136101402Y-45530953D01*
X136092851Y-45466001D01*
X136983329Y-45466001D01*
X137002330Y-45610334D01*
X137002332Y-45610339D01*
X137058040Y-45744831D01*
X137058040Y-45744832D01*
X137058042Y-45744835D01*
X137058043Y-45744836D01*
X137146667Y-45860333D01*
X137262164Y-45948957D01*
X137262167Y-45948958D01*
X137262168Y-45948959D01*
X137322618Y-45973998D01*
X137396664Y-46004669D01*
X137468832Y-46014170D01*
X137540999Y-46023671D01*
X137541000Y-46023671D01*
X137541001Y-46023671D01*
X137589112Y-46017337D01*
X137685336Y-46004669D01*
X137759375Y-45974001D01*
X143333329Y-45974001D01*
X143352330Y-46118334D01*
X143352332Y-46118339D01*
X143408040Y-46252831D01*
X143408040Y-46252832D01*
X143408042Y-46252835D01*
X143408043Y-46252836D01*
X143496667Y-46368333D01*
X143612164Y-46456957D01*
X143612167Y-46456958D01*
X143612168Y-46456959D01*
X143676239Y-46483498D01*
X143746664Y-46512669D01*
X143818832Y-46522170D01*
X143890999Y-46531671D01*
X143891000Y-46531671D01*
X143891001Y-46531671D01*
X143939112Y-46525337D01*
X144035336Y-46512669D01*
X144169831Y-46456959D01*
X144169832Y-46456959D01*
X144169832Y-46456958D01*
X144169836Y-46456957D01*
X144285333Y-46368333D01*
X144373957Y-46252836D01*
X144429669Y-46118336D01*
X144448671Y-45974000D01*
X144445374Y-45948959D01*
X144429669Y-45829665D01*
X144429669Y-45829664D01*
X144373957Y-45695165D01*
X144308866Y-45610336D01*
X144285334Y-45579668D01*
X144277422Y-45573597D01*
X144169836Y-45491043D01*
X144169833Y-45491042D01*
X144169831Y-45491040D01*
X144035339Y-45435332D01*
X144035334Y-45435330D01*
X143891001Y-45416329D01*
X143890999Y-45416329D01*
X143746665Y-45435330D01*
X143746663Y-45435331D01*
X143612165Y-45491042D01*
X143496667Y-45579667D01*
X143408042Y-45695165D01*
X143352331Y-45829663D01*
X143352330Y-45829665D01*
X143333329Y-45973998D01*
X143333329Y-45974001D01*
X137759375Y-45974001D01*
X137819831Y-45948959D01*
X137819832Y-45948959D01*
X137819832Y-45948958D01*
X137819836Y-45948957D01*
X137935333Y-45860333D01*
X137975100Y-45808507D01*
X138031525Y-45767306D01*
X138101271Y-45763151D01*
X138148961Y-45785620D01*
X138208825Y-45831556D01*
X138208831Y-45831559D01*
X138276077Y-45859413D01*
X138343327Y-45887269D01*
X138415138Y-45896723D01*
X138487662Y-45906271D01*
X138487663Y-45906271D01*
X138487664Y-45906271D01*
X138535775Y-45899937D01*
X138631999Y-45887269D01*
X138766499Y-45831557D01*
X138881996Y-45742933D01*
X138881997Y-45742931D01*
X138888377Y-45738036D01*
X138953546Y-45712841D01*
X139021991Y-45726879D01*
X139039351Y-45738036D01*
X139045730Y-45742931D01*
X139045732Y-45742933D01*
X139101363Y-45785620D01*
X139161227Y-45831556D01*
X139161233Y-45831559D01*
X139228479Y-45859413D01*
X139295729Y-45887269D01*
X139367540Y-45896723D01*
X139440064Y-45906271D01*
X139440065Y-45906271D01*
X139440066Y-45906271D01*
X139488177Y-45899937D01*
X139584401Y-45887269D01*
X139718896Y-45831559D01*
X139718897Y-45831559D01*
X139718897Y-45831558D01*
X139718901Y-45831557D01*
X139834398Y-45742933D01*
X139923022Y-45627436D01*
X139945323Y-45573597D01*
X139989163Y-45519193D01*
X140055457Y-45497128D01*
X140123157Y-45514407D01*
X140135362Y-45522667D01*
X140146159Y-45530952D01*
X140146162Y-45530953D01*
X140146163Y-45530954D01*
X140213409Y-45558808D01*
X140280659Y-45586664D01*
X140328794Y-45593001D01*
X140424994Y-45605666D01*
X140424995Y-45605666D01*
X140424996Y-45605666D01*
X140473107Y-45599332D01*
X140569331Y-45586664D01*
X140703826Y-45530954D01*
X140703827Y-45530954D01*
X140703827Y-45530953D01*
X140703831Y-45530952D01*
X140819328Y-45442328D01*
X140907952Y-45326831D01*
X140963664Y-45192331D01*
X140981832Y-45054330D01*
X140982666Y-45047996D01*
X140982666Y-45047993D01*
X140963664Y-44903660D01*
X140963664Y-44903659D01*
X140907952Y-44769160D01*
X140819328Y-44653662D01*
X140703831Y-44565038D01*
X140703828Y-44565037D01*
X140703826Y-44565035D01*
X140569334Y-44509327D01*
X140569329Y-44509325D01*
X140424996Y-44490324D01*
X140424994Y-44490324D01*
X140280660Y-44509325D01*
X140280658Y-44509326D01*
X140146160Y-44565037D01*
X140030662Y-44653662D01*
X139942036Y-44769161D01*
X139919735Y-44823000D01*
X139875893Y-44877402D01*
X139809599Y-44899466D01*
X139741900Y-44882186D01*
X139729688Y-44873920D01*
X139718902Y-44865643D01*
X139718896Y-44865640D01*
X139584404Y-44809932D01*
X139584399Y-44809930D01*
X139440066Y-44790929D01*
X139440064Y-44790929D01*
X139295730Y-44809930D01*
X139295728Y-44809931D01*
X139161230Y-44865642D01*
X139039350Y-44959164D01*
X138974181Y-44984358D01*
X138905736Y-44970319D01*
X138888378Y-44959164D01*
X138766499Y-44865643D01*
X138766494Y-44865640D01*
X138632002Y-44809932D01*
X138631997Y-44809930D01*
X138487664Y-44790929D01*
X138487662Y-44790929D01*
X138343328Y-44809930D01*
X138343326Y-44809931D01*
X138208828Y-44865642D01*
X138093331Y-44954265D01*
X138089572Y-44959164D01*
X138053563Y-45006092D01*
X137997137Y-45047293D01*
X137927391Y-45051448D01*
X137879703Y-45028980D01*
X137819836Y-44983043D01*
X137819831Y-44983040D01*
X137685339Y-44927332D01*
X137685334Y-44927330D01*
X137541001Y-44908329D01*
X137540999Y-44908329D01*
X137396665Y-44927330D01*
X137396663Y-44927331D01*
X137262165Y-44983042D01*
X137146667Y-45071667D01*
X137058042Y-45187165D01*
X137002331Y-45321663D01*
X137002330Y-45321665D01*
X136983329Y-45465998D01*
X136983329Y-45466001D01*
X136092851Y-45466001D01*
X136090569Y-45448665D01*
X136090569Y-45448664D01*
X136034857Y-45314165D01*
X135975679Y-45237042D01*
X135946234Y-45198668D01*
X135946233Y-45198667D01*
X135830736Y-45110043D01*
X135830733Y-45110042D01*
X135830731Y-45110040D01*
X135696239Y-45054332D01*
X135696234Y-45054330D01*
X135551901Y-45035329D01*
X135551899Y-45035329D01*
X135407565Y-45054330D01*
X135407563Y-45054331D01*
X135273065Y-45110042D01*
X135157567Y-45198667D01*
X135068942Y-45314165D01*
X135013231Y-45448663D01*
X135013230Y-45448665D01*
X134994229Y-45592998D01*
X134994229Y-45593001D01*
X126193155Y-45593001D01*
X126188291Y-45586662D01*
X126123630Y-45502393D01*
X126123629Y-45502392D01*
X126008132Y-45413768D01*
X126008129Y-45413767D01*
X126008127Y-45413765D01*
X125873635Y-45358057D01*
X125873630Y-45358055D01*
X125729297Y-45339054D01*
X125729295Y-45339054D01*
X125584961Y-45358055D01*
X125584959Y-45358056D01*
X125450461Y-45413767D01*
X125334963Y-45502392D01*
X125246338Y-45617890D01*
X125190627Y-45752388D01*
X125190626Y-45752390D01*
X125171625Y-45896723D01*
X125171625Y-45896726D01*
X124344820Y-45896726D01*
X124325828Y-45752465D01*
X124325828Y-45752464D01*
X124270116Y-45617965D01*
X124181492Y-45502467D01*
X124065995Y-45413843D01*
X124065992Y-45413842D01*
X124065990Y-45413840D01*
X123931498Y-45358132D01*
X123931493Y-45358130D01*
X123787160Y-45339129D01*
X123787158Y-45339129D01*
X123642824Y-45358130D01*
X123642822Y-45358131D01*
X123508324Y-45413842D01*
X123392826Y-45502467D01*
X123304201Y-45617965D01*
X123248490Y-45752463D01*
X123248489Y-45752465D01*
X123229488Y-45896798D01*
X123229488Y-45896801D01*
X122445221Y-45896801D01*
X122458669Y-45864336D01*
X122477671Y-45720000D01*
X122474401Y-45695165D01*
X122458669Y-45575665D01*
X122458669Y-45575664D01*
X122402957Y-45441165D01*
X122381992Y-45413843D01*
X122314334Y-45325668D01*
X122299343Y-45314165D01*
X122198836Y-45237043D01*
X122198833Y-45237042D01*
X122198831Y-45237040D01*
X122064339Y-45181332D01*
X122064334Y-45181330D01*
X121920001Y-45162329D01*
X121919999Y-45162329D01*
X121775665Y-45181330D01*
X121775663Y-45181331D01*
X121641165Y-45237042D01*
X121525667Y-45325667D01*
X121437042Y-45441165D01*
X121381331Y-45575663D01*
X121381330Y-45575665D01*
X121362329Y-45719998D01*
X121362329Y-45720001D01*
X120699671Y-45720001D01*
X120699671Y-45720000D01*
X120696401Y-45695165D01*
X120680669Y-45575665D01*
X120680669Y-45575664D01*
X120624957Y-45441165D01*
X120603992Y-45413843D01*
X120536334Y-45325668D01*
X120521343Y-45314165D01*
X120420836Y-45237043D01*
X120420833Y-45237042D01*
X120420831Y-45237040D01*
X120286339Y-45181332D01*
X120286334Y-45181330D01*
X120142001Y-45162329D01*
X120141999Y-45162329D01*
X119997665Y-45181330D01*
X119997663Y-45181331D01*
X119863165Y-45237042D01*
X119747667Y-45325667D01*
X119659042Y-45441165D01*
X119603331Y-45575663D01*
X119603330Y-45575665D01*
X119584329Y-45719998D01*
X119584329Y-45720001D01*
X114500000Y-45720001D01*
X114500000Y-43677901D01*
X126184427Y-43677901D01*
X126203428Y-43822234D01*
X126203430Y-43822239D01*
X126259138Y-43956731D01*
X126259138Y-43956732D01*
X126259140Y-43956735D01*
X126259141Y-43956736D01*
X126347765Y-44072233D01*
X126463262Y-44160857D01*
X126463265Y-44160858D01*
X126463266Y-44160859D01*
X126530512Y-44188713D01*
X126597762Y-44216569D01*
X126669930Y-44226070D01*
X126742097Y-44235571D01*
X126742098Y-44235571D01*
X126742099Y-44235571D01*
X126790210Y-44229237D01*
X126886434Y-44216569D01*
X127020929Y-44160859D01*
X127020930Y-44160859D01*
X127020930Y-44160858D01*
X127020934Y-44160857D01*
X127136431Y-44072233D01*
X127225055Y-43956736D01*
X127280767Y-43822236D01*
X127299769Y-43677900D01*
X127280767Y-43533564D01*
X127225055Y-43399065D01*
X127136431Y-43283567D01*
X127020934Y-43194943D01*
X127020931Y-43194942D01*
X127020929Y-43194940D01*
X126886437Y-43139232D01*
X126886432Y-43139230D01*
X126742099Y-43120229D01*
X126742097Y-43120229D01*
X126597763Y-43139230D01*
X126597761Y-43139231D01*
X126463263Y-43194942D01*
X126347765Y-43283567D01*
X126259140Y-43399065D01*
X126203429Y-43533563D01*
X126203428Y-43533565D01*
X126184427Y-43677898D01*
X126184427Y-43677901D01*
X114500000Y-43677901D01*
X114500000Y-42545001D01*
X121870329Y-42545001D01*
X121889330Y-42689334D01*
X121889332Y-42689339D01*
X121945040Y-42823831D01*
X121945040Y-42823832D01*
X121945042Y-42823835D01*
X121945043Y-42823836D01*
X122033667Y-42939333D01*
X122149164Y-43027957D01*
X122149167Y-43027958D01*
X122149168Y-43027959D01*
X122216414Y-43055813D01*
X122283664Y-43083669D01*
X122355832Y-43093170D01*
X122427999Y-43102671D01*
X122428000Y-43102671D01*
X122428001Y-43102671D01*
X122476112Y-43096337D01*
X122572336Y-43083669D01*
X122706831Y-43027959D01*
X122706832Y-43027959D01*
X122706832Y-43027958D01*
X122706836Y-43027957D01*
X122822333Y-42939333D01*
X122910957Y-42823836D01*
X122966669Y-42689336D01*
X122985671Y-42545001D01*
X123267329Y-42545001D01*
X123286330Y-42689334D01*
X123286332Y-42689339D01*
X123342040Y-42823831D01*
X123342040Y-42823832D01*
X123342042Y-42823835D01*
X123342043Y-42823836D01*
X123430667Y-42939333D01*
X123546164Y-43027957D01*
X123546167Y-43027958D01*
X123546168Y-43027959D01*
X123613414Y-43055813D01*
X123680664Y-43083669D01*
X123752832Y-43093170D01*
X123824999Y-43102671D01*
X123825000Y-43102671D01*
X123825001Y-43102671D01*
X123873112Y-43096337D01*
X123969336Y-43083669D01*
X123990262Y-43075001D01*
X134092329Y-43075001D01*
X134111330Y-43219334D01*
X134111332Y-43219339D01*
X134167040Y-43353831D01*
X134167040Y-43353832D01*
X134167042Y-43353835D01*
X134167043Y-43353836D01*
X134255667Y-43469333D01*
X134371164Y-43557957D01*
X134371167Y-43557958D01*
X134371168Y-43557959D01*
X134438414Y-43585813D01*
X134505664Y-43613669D01*
X134577832Y-43623170D01*
X134649999Y-43632671D01*
X134650000Y-43632671D01*
X134650001Y-43632671D01*
X134698112Y-43626337D01*
X134794336Y-43613669D01*
X134928831Y-43557959D01*
X134928832Y-43557959D01*
X134928832Y-43557958D01*
X134928836Y-43557957D01*
X135044333Y-43469333D01*
X135132957Y-43353836D01*
X135188669Y-43219336D01*
X135207671Y-43075000D01*
X135188669Y-42930664D01*
X135132957Y-42796165D01*
X135050985Y-42689336D01*
X135044334Y-42680668D01*
X135044333Y-42680667D01*
X134928836Y-42592043D01*
X134928833Y-42592042D01*
X134928831Y-42592040D01*
X134794339Y-42536332D01*
X134794334Y-42536330D01*
X134650001Y-42517329D01*
X134649999Y-42517329D01*
X134505665Y-42536330D01*
X134505663Y-42536331D01*
X134371165Y-42592042D01*
X134255667Y-42680667D01*
X134167042Y-42796165D01*
X134111331Y-42930663D01*
X134111330Y-42930665D01*
X134092329Y-43074998D01*
X134092329Y-43075001D01*
X123990262Y-43075001D01*
X124103831Y-43027959D01*
X124103832Y-43027959D01*
X124103832Y-43027958D01*
X124103836Y-43027957D01*
X124219333Y-42939333D01*
X124307957Y-42823836D01*
X124363669Y-42689336D01*
X124382671Y-42545000D01*
X124379401Y-42520165D01*
X124365951Y-42418001D01*
X137491329Y-42418001D01*
X137510330Y-42562334D01*
X137510332Y-42562339D01*
X137566040Y-42696831D01*
X137566040Y-42696832D01*
X137566042Y-42696835D01*
X137566043Y-42696836D01*
X137654667Y-42812333D01*
X137770164Y-42900957D01*
X137770167Y-42900958D01*
X137770168Y-42900959D01*
X137837414Y-42928813D01*
X137904664Y-42956669D01*
X137976832Y-42966170D01*
X138048999Y-42975671D01*
X138049000Y-42975671D01*
X138049001Y-42975671D01*
X138097112Y-42969337D01*
X138193336Y-42956669D01*
X138327831Y-42900959D01*
X138327832Y-42900959D01*
X138327832Y-42900958D01*
X138327836Y-42900957D01*
X138443333Y-42812333D01*
X138453563Y-42799001D01*
X139142329Y-42799001D01*
X139161330Y-42943334D01*
X139161332Y-42943339D01*
X139217040Y-43077831D01*
X139217040Y-43077832D01*
X139217042Y-43077835D01*
X139217043Y-43077836D01*
X139305667Y-43193333D01*
X139421164Y-43281957D01*
X139421167Y-43281958D01*
X139421168Y-43281959D01*
X139488414Y-43309813D01*
X139555664Y-43337669D01*
X139627832Y-43347170D01*
X139699999Y-43356671D01*
X139700000Y-43356671D01*
X139700001Y-43356671D01*
X139748112Y-43350337D01*
X139844336Y-43337669D01*
X139978831Y-43281959D01*
X139978832Y-43281959D01*
X139978832Y-43281958D01*
X139978836Y-43281957D01*
X140094333Y-43193333D01*
X140182957Y-43077836D01*
X140238669Y-42943336D01*
X140257671Y-42799000D01*
X140238669Y-42654664D01*
X140182957Y-42520165D01*
X140172887Y-42507041D01*
X140094334Y-42404668D01*
X140089115Y-42400663D01*
X139978836Y-42316043D01*
X139978833Y-42316042D01*
X139978831Y-42316040D01*
X139844339Y-42260332D01*
X139844334Y-42260330D01*
X139700001Y-42241329D01*
X139699999Y-42241329D01*
X139555665Y-42260330D01*
X139555663Y-42260331D01*
X139421165Y-42316042D01*
X139305667Y-42404667D01*
X139217042Y-42520165D01*
X139161331Y-42654663D01*
X139161330Y-42654665D01*
X139142329Y-42798998D01*
X139142329Y-42799001D01*
X138453563Y-42799001D01*
X138531957Y-42696836D01*
X138587669Y-42562336D01*
X138606671Y-42418000D01*
X138587669Y-42273664D01*
X138531957Y-42139165D01*
X138472779Y-42062042D01*
X138443334Y-42023668D01*
X138443333Y-42023667D01*
X138327836Y-41935043D01*
X138327833Y-41935042D01*
X138327831Y-41935040D01*
X138193339Y-41879332D01*
X138193334Y-41879330D01*
X138049001Y-41860329D01*
X138048999Y-41860329D01*
X137904665Y-41879330D01*
X137904663Y-41879331D01*
X137770165Y-41935042D01*
X137654667Y-42023667D01*
X137566042Y-42139165D01*
X137510331Y-42273663D01*
X137510330Y-42273665D01*
X137491329Y-42417998D01*
X137491329Y-42418001D01*
X124365951Y-42418001D01*
X124363669Y-42400665D01*
X124363669Y-42400664D01*
X124307957Y-42266165D01*
X124219333Y-42150667D01*
X124103836Y-42062043D01*
X124103833Y-42062042D01*
X124103831Y-42062040D01*
X123969339Y-42006332D01*
X123969334Y-42006330D01*
X123825001Y-41987329D01*
X123824999Y-41987329D01*
X123680665Y-42006330D01*
X123680663Y-42006331D01*
X123546165Y-42062042D01*
X123430667Y-42150667D01*
X123342042Y-42266165D01*
X123286331Y-42400663D01*
X123286330Y-42400665D01*
X123267329Y-42544998D01*
X123267329Y-42545001D01*
X122985671Y-42545001D01*
X122985671Y-42545000D01*
X122982401Y-42520165D01*
X122966669Y-42400665D01*
X122966669Y-42400664D01*
X122910957Y-42266165D01*
X122822333Y-42150667D01*
X122706836Y-42062043D01*
X122706833Y-42062042D01*
X122706831Y-42062040D01*
X122572339Y-42006332D01*
X122572334Y-42006330D01*
X122428001Y-41987329D01*
X122427999Y-41987329D01*
X122283665Y-42006330D01*
X122283663Y-42006331D01*
X122149165Y-42062042D01*
X122033667Y-42150667D01*
X121945042Y-42266165D01*
X121889331Y-42400663D01*
X121889330Y-42400665D01*
X121870329Y-42544998D01*
X121870329Y-42545001D01*
X114500000Y-42545001D01*
X114500000Y-41504973D01*
X136070301Y-41504973D01*
X136089302Y-41649306D01*
X136089304Y-41649311D01*
X136145012Y-41783803D01*
X136145012Y-41783804D01*
X136145014Y-41783807D01*
X136145015Y-41783808D01*
X136233639Y-41899305D01*
X136349136Y-41987929D01*
X136349139Y-41987930D01*
X136349140Y-41987931D01*
X136416386Y-42015785D01*
X136483636Y-42043641D01*
X136555682Y-42053126D01*
X136627971Y-42062643D01*
X136627972Y-42062643D01*
X136627973Y-42062643D01*
X136676084Y-42056309D01*
X136772308Y-42043641D01*
X136906803Y-41987931D01*
X136906804Y-41987931D01*
X136906804Y-41987930D01*
X136906808Y-41987929D01*
X137022305Y-41899305D01*
X137110929Y-41783808D01*
X137166641Y-41649308D01*
X137185643Y-41504972D01*
X137166641Y-41360636D01*
X137110929Y-41226137D01*
X137022305Y-41110639D01*
X136906808Y-41022015D01*
X136906805Y-41022014D01*
X136906803Y-41022012D01*
X136772311Y-40966304D01*
X136772306Y-40966302D01*
X136627973Y-40947301D01*
X136627971Y-40947301D01*
X136483637Y-40966302D01*
X136483635Y-40966303D01*
X136349137Y-41022014D01*
X136233639Y-41110639D01*
X136145014Y-41226137D01*
X136089303Y-41360635D01*
X136089302Y-41360637D01*
X136070301Y-41504970D01*
X136070301Y-41504973D01*
X114500000Y-41504973D01*
X114500000Y-39957723D01*
X133474607Y-39957723D01*
X133493608Y-40102056D01*
X133493610Y-40102061D01*
X133549318Y-40236553D01*
X133549318Y-40236554D01*
X133549320Y-40236557D01*
X133549321Y-40236558D01*
X133637945Y-40352055D01*
X133753442Y-40440679D01*
X133753445Y-40440680D01*
X133753446Y-40440681D01*
X133820692Y-40468535D01*
X133887942Y-40496391D01*
X133960110Y-40505892D01*
X134032277Y-40515393D01*
X134032278Y-40515393D01*
X134032279Y-40515393D01*
X134050448Y-40513001D01*
X138126329Y-40513001D01*
X138145330Y-40657334D01*
X138145332Y-40657339D01*
X138201040Y-40791831D01*
X138201040Y-40791832D01*
X138201042Y-40791835D01*
X138201043Y-40791836D01*
X138289667Y-40907333D01*
X138405164Y-40995957D01*
X138405167Y-40995958D01*
X138405168Y-40995959D01*
X138468066Y-41022012D01*
X138539664Y-41051669D01*
X138611832Y-41061170D01*
X138683999Y-41070671D01*
X138684000Y-41070671D01*
X138684001Y-41070671D01*
X138732112Y-41064337D01*
X138828336Y-41051669D01*
X138962831Y-40995959D01*
X138962832Y-40995959D01*
X138962832Y-40995958D01*
X138962836Y-40995957D01*
X139078333Y-40907333D01*
X139166957Y-40791836D01*
X139222669Y-40657336D01*
X139241671Y-40513000D01*
X139239484Y-40496391D01*
X139229003Y-40416776D01*
X139222669Y-40368664D01*
X139166957Y-40234165D01*
X139078333Y-40118667D01*
X138962836Y-40030043D01*
X138962833Y-40030042D01*
X138962831Y-40030040D01*
X138828339Y-39974332D01*
X138828334Y-39974330D01*
X138684001Y-39955329D01*
X138683999Y-39955329D01*
X138539665Y-39974330D01*
X138539663Y-39974331D01*
X138405165Y-40030042D01*
X138289667Y-40118667D01*
X138201042Y-40234165D01*
X138145331Y-40368663D01*
X138145330Y-40368665D01*
X138126329Y-40512998D01*
X138126329Y-40513001D01*
X134050448Y-40513001D01*
X134080390Y-40509059D01*
X134176614Y-40496391D01*
X134311109Y-40440681D01*
X134311110Y-40440681D01*
X134311110Y-40440680D01*
X134311114Y-40440679D01*
X134426611Y-40352055D01*
X134515235Y-40236558D01*
X134570947Y-40102058D01*
X134589949Y-39957722D01*
X134587922Y-39942329D01*
X134570947Y-39813387D01*
X134570947Y-39813386D01*
X134515235Y-39678887D01*
X134496652Y-39654669D01*
X134426612Y-39563390D01*
X134426611Y-39563389D01*
X134311114Y-39474765D01*
X134311111Y-39474764D01*
X134311109Y-39474762D01*
X134176617Y-39419054D01*
X134176612Y-39419052D01*
X134032279Y-39400051D01*
X134032277Y-39400051D01*
X133887943Y-39419052D01*
X133887941Y-39419053D01*
X133753443Y-39474764D01*
X133637945Y-39563389D01*
X133549320Y-39678887D01*
X133493609Y-39813385D01*
X133493608Y-39813387D01*
X133474607Y-39957720D01*
X133474607Y-39957723D01*
X114500000Y-39957723D01*
X114500000Y-38716307D01*
X118179099Y-38716307D01*
X118204189Y-38842438D01*
X118204191Y-38842444D01*
X118253406Y-38961261D01*
X118253411Y-38961270D01*
X118324859Y-39068198D01*
X118324862Y-39068202D01*
X118415797Y-39159137D01*
X118415801Y-39159140D01*
X118522729Y-39230588D01*
X118522735Y-39230591D01*
X118522736Y-39230592D01*
X118641556Y-39279809D01*
X118641560Y-39279809D01*
X118641561Y-39279810D01*
X118767692Y-39304900D01*
X118767695Y-39304900D01*
X118896307Y-39304900D01*
X118981165Y-39288019D01*
X119022444Y-39279809D01*
X119141264Y-39230592D01*
X119248199Y-39159140D01*
X119339140Y-39068199D01*
X119410592Y-38961264D01*
X119459809Y-38842444D01*
X119480377Y-38739043D01*
X119484900Y-38716307D01*
X119484900Y-37866136D01*
X119504585Y-37799097D01*
X119557389Y-37753342D01*
X119626547Y-37743398D01*
X119690103Y-37772423D01*
X119723463Y-37818688D01*
X119725718Y-37824134D01*
X119749968Y-37866136D01*
X119801485Y-37955365D01*
X119908635Y-38062515D01*
X120039865Y-38138281D01*
X120186234Y-38177500D01*
X120186236Y-38177500D01*
X120337764Y-38177500D01*
X120337766Y-38177500D01*
X120484135Y-38138281D01*
X120615365Y-38062515D01*
X120722515Y-37955365D01*
X120798281Y-37824135D01*
X120837500Y-37677766D01*
X120837500Y-37677765D01*
X125466500Y-37677765D01*
X125505719Y-37824136D01*
X125529968Y-37866136D01*
X125581485Y-37955365D01*
X125688635Y-38062515D01*
X125819865Y-38138281D01*
X125966234Y-38177500D01*
X125966236Y-38177500D01*
X126117764Y-38177500D01*
X126117766Y-38177500D01*
X126264135Y-38138281D01*
X126395365Y-38062515D01*
X126502515Y-37955365D01*
X126578281Y-37824135D01*
X126578281Y-37824132D01*
X126580537Y-37818688D01*
X126624376Y-37764283D01*
X126690669Y-37742215D01*
X126758369Y-37759492D01*
X126805982Y-37810627D01*
X126819100Y-37866136D01*
X126819100Y-38716305D01*
X126819100Y-38716307D01*
X126819099Y-38716307D01*
X126844189Y-38842438D01*
X126844191Y-38842444D01*
X126893406Y-38961261D01*
X126893411Y-38961270D01*
X126964859Y-39068198D01*
X126964862Y-39068202D01*
X127055797Y-39159137D01*
X127055801Y-39159140D01*
X127162729Y-39230588D01*
X127162735Y-39230591D01*
X127162736Y-39230592D01*
X127281556Y-39279809D01*
X127281560Y-39279809D01*
X127281561Y-39279810D01*
X127407692Y-39304900D01*
X127407695Y-39304900D01*
X127536307Y-39304900D01*
X127621165Y-39288019D01*
X127662444Y-39279809D01*
X127781264Y-39230592D01*
X127888199Y-39159140D01*
X127931338Y-39116001D01*
X129236329Y-39116001D01*
X129255330Y-39260334D01*
X129255332Y-39260339D01*
X129311040Y-39394831D01*
X129311040Y-39394832D01*
X129311042Y-39394835D01*
X129311043Y-39394836D01*
X129399667Y-39510333D01*
X129515164Y-39598957D01*
X129515167Y-39598958D01*
X129515168Y-39598959D01*
X129557113Y-39616333D01*
X129649664Y-39654669D01*
X129721832Y-39664170D01*
X129793999Y-39673671D01*
X129794000Y-39673671D01*
X129794001Y-39673671D01*
X129842112Y-39667337D01*
X129938336Y-39654669D01*
X130072831Y-39598959D01*
X130072832Y-39598959D01*
X130072832Y-39598958D01*
X130072836Y-39598957D01*
X130188333Y-39510333D01*
X130276957Y-39394836D01*
X130332669Y-39260336D01*
X130337716Y-39222001D01*
X152942329Y-39222001D01*
X152961330Y-39366334D01*
X152961332Y-39366339D01*
X153017040Y-39500831D01*
X153017040Y-39500832D01*
X153017042Y-39500835D01*
X153017043Y-39500836D01*
X153105667Y-39616333D01*
X153221164Y-39704957D01*
X153221167Y-39704958D01*
X153221168Y-39704959D01*
X153288414Y-39732813D01*
X153355664Y-39760669D01*
X153427832Y-39770170D01*
X153499999Y-39779671D01*
X153500000Y-39779671D01*
X153500001Y-39779671D01*
X153548112Y-39773337D01*
X153644336Y-39760669D01*
X153778831Y-39704959D01*
X153778832Y-39704959D01*
X153778832Y-39704958D01*
X153778836Y-39704957D01*
X153894333Y-39616333D01*
X153982957Y-39500836D01*
X154038669Y-39366336D01*
X154057671Y-39222001D01*
X155442329Y-39222001D01*
X155461330Y-39366334D01*
X155461332Y-39366339D01*
X155517040Y-39500831D01*
X155517040Y-39500832D01*
X155517042Y-39500835D01*
X155517043Y-39500836D01*
X155605667Y-39616333D01*
X155721164Y-39704957D01*
X155721167Y-39704958D01*
X155721168Y-39704959D01*
X155788414Y-39732813D01*
X155855664Y-39760669D01*
X155927832Y-39770170D01*
X155999999Y-39779671D01*
X156000000Y-39779671D01*
X156000001Y-39779671D01*
X156048112Y-39773337D01*
X156144336Y-39760669D01*
X156278831Y-39704959D01*
X156278832Y-39704959D01*
X156278832Y-39704958D01*
X156278836Y-39704957D01*
X156394333Y-39616333D01*
X156482957Y-39500836D01*
X156538669Y-39366336D01*
X156557671Y-39222000D01*
X156549395Y-39159140D01*
X156538669Y-39077665D01*
X156538669Y-39077664D01*
X156482957Y-38943165D01*
X156394333Y-38827667D01*
X156278836Y-38739043D01*
X156278833Y-38739042D01*
X156278831Y-38739040D01*
X156144339Y-38683332D01*
X156144334Y-38683330D01*
X156000001Y-38664329D01*
X155999999Y-38664329D01*
X155855665Y-38683330D01*
X155855663Y-38683331D01*
X155721165Y-38739042D01*
X155605667Y-38827667D01*
X155517042Y-38943165D01*
X155461331Y-39077663D01*
X155461330Y-39077665D01*
X155442329Y-39221998D01*
X155442329Y-39222001D01*
X154057671Y-39222001D01*
X154057671Y-39222000D01*
X154049395Y-39159140D01*
X154038669Y-39077665D01*
X154038669Y-39077664D01*
X153982957Y-38943165D01*
X153894333Y-38827667D01*
X153778836Y-38739043D01*
X153778833Y-38739042D01*
X153778831Y-38739040D01*
X153644339Y-38683332D01*
X153644334Y-38683330D01*
X153500001Y-38664329D01*
X153499999Y-38664329D01*
X153355665Y-38683330D01*
X153355663Y-38683331D01*
X153221165Y-38739042D01*
X153105667Y-38827667D01*
X153017042Y-38943165D01*
X152961331Y-39077663D01*
X152961330Y-39077665D01*
X152942329Y-39221998D01*
X152942329Y-39222001D01*
X130337716Y-39222001D01*
X130351671Y-39116000D01*
X130332669Y-38971664D01*
X130276957Y-38837165D01*
X130188333Y-38721667D01*
X130072836Y-38633043D01*
X130072833Y-38633042D01*
X130072831Y-38633040D01*
X129938339Y-38577332D01*
X129938334Y-38577330D01*
X129794001Y-38558329D01*
X129793999Y-38558329D01*
X129649665Y-38577330D01*
X129649663Y-38577331D01*
X129515165Y-38633042D01*
X129399667Y-38721667D01*
X129311042Y-38837165D01*
X129255331Y-38971663D01*
X129255330Y-38971665D01*
X129236329Y-39115998D01*
X129236329Y-39116001D01*
X127931338Y-39116001D01*
X127979140Y-39068199D01*
X128050592Y-38961264D01*
X128099809Y-38842444D01*
X128120377Y-38739043D01*
X128124900Y-38716307D01*
X128124900Y-37487692D01*
X128099810Y-37361561D01*
X128099809Y-37361560D01*
X128099809Y-37361556D01*
X128061742Y-37269654D01*
X128050593Y-37242738D01*
X128050588Y-37242729D01*
X127979140Y-37135801D01*
X127979137Y-37135797D01*
X127888202Y-37044862D01*
X127888198Y-37044859D01*
X127781270Y-36973411D01*
X127781261Y-36973406D01*
X127662444Y-36924191D01*
X127662438Y-36924189D01*
X127536307Y-36899100D01*
X127536305Y-36899100D01*
X127407695Y-36899100D01*
X127407693Y-36899100D01*
X127281561Y-36924189D01*
X127281555Y-36924191D01*
X127162738Y-36973406D01*
X127162729Y-36973411D01*
X127055801Y-37044859D01*
X127055797Y-37044862D01*
X126964862Y-37135797D01*
X126964859Y-37135801D01*
X126893411Y-37242729D01*
X126893406Y-37242738D01*
X126844191Y-37361555D01*
X126844189Y-37361561D01*
X126832556Y-37420046D01*
X126800171Y-37481957D01*
X126739455Y-37516531D01*
X126669686Y-37512791D01*
X126613014Y-37471924D01*
X126591164Y-37427947D01*
X126589047Y-37420046D01*
X126578281Y-37379865D01*
X126502515Y-37248635D01*
X126395365Y-37141485D01*
X126329750Y-37103602D01*
X126264136Y-37065719D01*
X126186287Y-37044860D01*
X126117766Y-37026500D01*
X125966234Y-37026500D01*
X125819863Y-37065719D01*
X125688635Y-37141485D01*
X125688632Y-37141487D01*
X125581487Y-37248632D01*
X125581485Y-37248635D01*
X125505719Y-37379863D01*
X125466500Y-37526234D01*
X125466500Y-37677765D01*
X120837500Y-37677765D01*
X120837500Y-37526234D01*
X120798281Y-37379865D01*
X120722515Y-37248635D01*
X120615365Y-37141485D01*
X120549750Y-37103602D01*
X120484136Y-37065719D01*
X120406287Y-37044860D01*
X120337766Y-37026500D01*
X120186234Y-37026500D01*
X120039863Y-37065719D01*
X119908635Y-37141485D01*
X119908632Y-37141487D01*
X119801487Y-37248632D01*
X119801485Y-37248635D01*
X119725718Y-37379865D01*
X119725718Y-37379866D01*
X119712834Y-37427949D01*
X119676469Y-37487609D01*
X119613621Y-37518137D01*
X119544246Y-37509842D01*
X119490369Y-37465356D01*
X119471444Y-37420049D01*
X119459809Y-37361556D01*
X119421742Y-37269654D01*
X119410593Y-37242738D01*
X119410588Y-37242729D01*
X119339140Y-37135801D01*
X119339137Y-37135797D01*
X119248202Y-37044862D01*
X119248198Y-37044859D01*
X119141270Y-36973411D01*
X119141261Y-36973406D01*
X119022444Y-36924191D01*
X119022438Y-36924189D01*
X118896307Y-36899100D01*
X118896305Y-36899100D01*
X118767695Y-36899100D01*
X118767693Y-36899100D01*
X118641561Y-36924189D01*
X118641555Y-36924191D01*
X118522738Y-36973406D01*
X118522729Y-36973411D01*
X118415801Y-37044859D01*
X118415797Y-37044862D01*
X118324862Y-37135797D01*
X118324859Y-37135801D01*
X118253411Y-37242729D01*
X118253406Y-37242738D01*
X118204191Y-37361555D01*
X118204189Y-37361561D01*
X118179100Y-37487692D01*
X118179100Y-37487695D01*
X118179100Y-38716305D01*
X118179100Y-38716307D01*
X118179099Y-38716307D01*
X114500000Y-38716307D01*
X114500000Y-35433001D01*
X137462329Y-35433001D01*
X137481330Y-35577334D01*
X137481332Y-35577339D01*
X137537040Y-35711831D01*
X137537040Y-35711832D01*
X137537042Y-35711835D01*
X137537043Y-35711836D01*
X137625667Y-35827333D01*
X137741164Y-35915957D01*
X137741167Y-35915958D01*
X137741168Y-35915959D01*
X137808414Y-35943813D01*
X137875664Y-35971669D01*
X137947832Y-35981170D01*
X138019999Y-35990671D01*
X138020000Y-35990671D01*
X138020001Y-35990671D01*
X138068112Y-35984337D01*
X138164336Y-35971669D01*
X138298831Y-35915959D01*
X138298832Y-35915959D01*
X138298832Y-35915958D01*
X138298836Y-35915957D01*
X138414333Y-35827333D01*
X138502957Y-35711836D01*
X138527178Y-35653361D01*
X138571017Y-35598960D01*
X138637310Y-35576894D01*
X138705010Y-35594172D01*
X138740113Y-35625328D01*
X138761626Y-35653364D01*
X138797667Y-35700333D01*
X138913164Y-35788957D01*
X138913167Y-35788958D01*
X138913168Y-35788959D01*
X138980414Y-35816813D01*
X139047664Y-35844669D01*
X139119832Y-35854170D01*
X139191999Y-35863671D01*
X139192000Y-35863671D01*
X139192001Y-35863671D01*
X139240112Y-35857337D01*
X139336336Y-35844669D01*
X139470831Y-35788959D01*
X139470832Y-35788959D01*
X139470832Y-35788958D01*
X139470836Y-35788957D01*
X139586333Y-35700333D01*
X139674957Y-35584836D01*
X139730669Y-35450336D01*
X139749671Y-35306000D01*
X139730669Y-35161664D01*
X139674957Y-35027165D01*
X139615779Y-34950042D01*
X139586334Y-34911668D01*
X139571901Y-34900593D01*
X139470836Y-34823043D01*
X139470833Y-34823042D01*
X139470831Y-34823040D01*
X139336339Y-34767332D01*
X139336334Y-34767330D01*
X139192001Y-34748329D01*
X139191999Y-34748329D01*
X139047665Y-34767330D01*
X139047663Y-34767331D01*
X138913165Y-34823042D01*
X138797667Y-34911667D01*
X138709042Y-35027165D01*
X138684822Y-35085638D01*
X138640981Y-35140042D01*
X138574686Y-35162106D01*
X138506987Y-35144826D01*
X138471885Y-35113671D01*
X138414334Y-35038668D01*
X138399343Y-35027165D01*
X138298836Y-34950043D01*
X138298833Y-34950042D01*
X138298831Y-34950040D01*
X138164339Y-34894332D01*
X138164334Y-34894330D01*
X138020001Y-34875329D01*
X138019999Y-34875329D01*
X137875665Y-34894330D01*
X137875663Y-34894331D01*
X137741165Y-34950042D01*
X137625667Y-35038667D01*
X137537042Y-35154165D01*
X137481331Y-35288663D01*
X137481330Y-35288665D01*
X137462329Y-35432998D01*
X137462329Y-35433001D01*
X114500000Y-35433001D01*
X114500000Y-34386307D01*
X118179099Y-34386307D01*
X118204189Y-34512438D01*
X118204191Y-34512444D01*
X118253406Y-34631261D01*
X118253411Y-34631270D01*
X118324859Y-34738198D01*
X118324862Y-34738202D01*
X118415797Y-34829137D01*
X118415801Y-34829140D01*
X118522729Y-34900588D01*
X118522735Y-34900591D01*
X118522736Y-34900592D01*
X118641556Y-34949809D01*
X118641560Y-34949809D01*
X118641561Y-34949810D01*
X118767692Y-34974900D01*
X118767695Y-34974900D01*
X118896307Y-34974900D01*
X118981165Y-34958019D01*
X119022444Y-34949809D01*
X119141264Y-34900592D01*
X119248199Y-34829140D01*
X119339140Y-34738199D01*
X119410592Y-34631264D01*
X119459809Y-34512444D01*
X119484900Y-34386307D01*
X126819099Y-34386307D01*
X126844189Y-34512438D01*
X126844191Y-34512444D01*
X126893406Y-34631261D01*
X126893411Y-34631270D01*
X126964859Y-34738198D01*
X126964862Y-34738202D01*
X127055797Y-34829137D01*
X127055801Y-34829140D01*
X127162729Y-34900588D01*
X127162735Y-34900591D01*
X127162736Y-34900592D01*
X127281556Y-34949809D01*
X127281560Y-34949809D01*
X127281561Y-34949810D01*
X127407692Y-34974900D01*
X127407695Y-34974900D01*
X127536307Y-34974900D01*
X127621165Y-34958019D01*
X127662444Y-34949809D01*
X127781264Y-34900592D01*
X127888199Y-34829140D01*
X127979140Y-34738199D01*
X128050592Y-34631264D01*
X128099809Y-34512444D01*
X128124900Y-34386305D01*
X128124900Y-34197001D01*
X154769329Y-34197001D01*
X154788330Y-34341334D01*
X154788332Y-34341339D01*
X154844040Y-34475831D01*
X154844040Y-34475832D01*
X154844042Y-34475835D01*
X154844043Y-34475836D01*
X154932667Y-34591333D01*
X155048164Y-34679957D01*
X155048167Y-34679958D01*
X155048168Y-34679959D01*
X155115414Y-34707813D01*
X155182664Y-34735669D01*
X155254832Y-34745170D01*
X155326999Y-34754671D01*
X155327000Y-34754671D01*
X155327001Y-34754671D01*
X155375173Y-34748329D01*
X155471336Y-34735669D01*
X155605831Y-34679959D01*
X155605832Y-34679959D01*
X155605832Y-34679958D01*
X155605836Y-34679957D01*
X155721333Y-34591333D01*
X155809957Y-34475836D01*
X155865669Y-34341336D01*
X155884671Y-34197000D01*
X155865669Y-34052664D01*
X155809957Y-33918165D01*
X155721333Y-33802667D01*
X155605836Y-33714043D01*
X155605833Y-33714042D01*
X155605831Y-33714040D01*
X155471339Y-33658332D01*
X155471334Y-33658330D01*
X155327001Y-33639329D01*
X155326999Y-33639329D01*
X155182665Y-33658330D01*
X155182663Y-33658331D01*
X155048165Y-33714042D01*
X154932667Y-33802667D01*
X154844042Y-33918165D01*
X154788331Y-34052663D01*
X154788330Y-34052665D01*
X154769329Y-34196998D01*
X154769329Y-34197001D01*
X128124900Y-34197001D01*
X128124900Y-33457695D01*
X128124900Y-33457692D01*
X128099810Y-33331561D01*
X128099809Y-33331560D01*
X128099809Y-33331556D01*
X128050592Y-33212736D01*
X128050591Y-33212735D01*
X128050588Y-33212729D01*
X127979140Y-33105801D01*
X127979137Y-33105797D01*
X127888202Y-33014862D01*
X127888198Y-33014859D01*
X127781270Y-32943411D01*
X127781261Y-32943406D01*
X127662444Y-32894191D01*
X127662438Y-32894189D01*
X127536307Y-32869100D01*
X127536305Y-32869100D01*
X127407695Y-32869100D01*
X127407693Y-32869100D01*
X127281561Y-32894189D01*
X127281555Y-32894191D01*
X127162738Y-32943406D01*
X127162729Y-32943411D01*
X127055801Y-33014859D01*
X127055797Y-33014862D01*
X126964862Y-33105797D01*
X126964859Y-33105801D01*
X126893411Y-33212729D01*
X126893406Y-33212738D01*
X126844191Y-33331555D01*
X126844189Y-33331561D01*
X126819100Y-33457692D01*
X126819100Y-33457695D01*
X126819100Y-34386305D01*
X126819100Y-34386307D01*
X126819099Y-34386307D01*
X119484900Y-34386307D01*
X119484900Y-34386305D01*
X119484900Y-33457695D01*
X119484900Y-33457692D01*
X119459810Y-33331561D01*
X119459809Y-33331560D01*
X119459809Y-33331556D01*
X119410592Y-33212736D01*
X119410591Y-33212735D01*
X119410588Y-33212729D01*
X119339140Y-33105801D01*
X119339137Y-33105797D01*
X119248202Y-33014862D01*
X119248198Y-33014859D01*
X119141270Y-32943411D01*
X119141261Y-32943406D01*
X119022444Y-32894191D01*
X119022438Y-32894189D01*
X118896307Y-32869100D01*
X118896305Y-32869100D01*
X118767695Y-32869100D01*
X118767693Y-32869100D01*
X118641561Y-32894189D01*
X118641555Y-32894191D01*
X118522738Y-32943406D01*
X118522729Y-32943411D01*
X118415801Y-33014859D01*
X118415797Y-33014862D01*
X118324862Y-33105797D01*
X118324859Y-33105801D01*
X118253411Y-33212729D01*
X118253406Y-33212738D01*
X118204191Y-33331555D01*
X118204189Y-33331561D01*
X118179100Y-33457692D01*
X118179100Y-33457695D01*
X118179100Y-34386305D01*
X118179100Y-34386307D01*
X118179099Y-34386307D01*
X114500000Y-34386307D01*
X114500000Y-32124000D01*
X114519685Y-32056961D01*
X114572489Y-32011206D01*
X114624000Y-32000000D01*
X150174096Y-32000000D01*
X158876006Y-32000225D01*
G37*
G04 #@! TD.AperFunction*
G04 #@! TA.AperFunction,Conductor*
G36*
X89973123Y-51509438D02*
G01*
X90062763Y-51546569D01*
X90134931Y-51556070D01*
X90207098Y-51565571D01*
X90207099Y-51565571D01*
X90207100Y-51565571D01*
X90272499Y-51556961D01*
X90351435Y-51546569D01*
X90441074Y-51509438D01*
X90488527Y-51500000D01*
X93513114Y-51500000D01*
X93580153Y-51519685D01*
X93625908Y-51572489D01*
X93627675Y-51576547D01*
X93628829Y-51579335D01*
X93628830Y-51579336D01*
X93638211Y-51601984D01*
X93684540Y-51713833D01*
X93684541Y-51713835D01*
X93684542Y-51713836D01*
X93773166Y-51829333D01*
X93888663Y-51917957D01*
X93888666Y-51917958D01*
X93888667Y-51917959D01*
X93949117Y-51942998D01*
X94023163Y-51973669D01*
X94095331Y-51983170D01*
X94167498Y-51992671D01*
X94167499Y-51992671D01*
X94167500Y-51992671D01*
X94215611Y-51986337D01*
X94311835Y-51973669D01*
X94446330Y-51917959D01*
X94446331Y-51917959D01*
X94446331Y-51917958D01*
X94446335Y-51917957D01*
X94561832Y-51829333D01*
X94650456Y-51713836D01*
X94706168Y-51579336D01*
X94706168Y-51579335D01*
X94707323Y-51576547D01*
X94751164Y-51522144D01*
X94817458Y-51500079D01*
X94821884Y-51500000D01*
X117509463Y-51500000D01*
X117576502Y-51519685D01*
X117622257Y-51572489D01*
X117632201Y-51641647D01*
X117624024Y-51671453D01*
X117571331Y-51798663D01*
X117571330Y-51798665D01*
X117552329Y-51942998D01*
X117552329Y-51943001D01*
X117571330Y-52087334D01*
X117571332Y-52087339D01*
X117627040Y-52221831D01*
X117627040Y-52221832D01*
X117627042Y-52221835D01*
X117627043Y-52221836D01*
X117715667Y-52337333D01*
X117831164Y-52425957D01*
X117831167Y-52425958D01*
X117831168Y-52425959D01*
X117898414Y-52453813D01*
X117965664Y-52481669D01*
X118037832Y-52491170D01*
X118109999Y-52500671D01*
X118110000Y-52500671D01*
X118110001Y-52500671D01*
X118158112Y-52494337D01*
X118254336Y-52481669D01*
X118388831Y-52425959D01*
X118388832Y-52425959D01*
X118388832Y-52425958D01*
X118388836Y-52425957D01*
X118504333Y-52337333D01*
X118592957Y-52221836D01*
X118648669Y-52087336D01*
X118667671Y-51943000D01*
X118664374Y-51917959D01*
X118648669Y-51798665D01*
X118648669Y-51798664D01*
X118595976Y-51671453D01*
X118588507Y-51601984D01*
X118619782Y-51539504D01*
X118679871Y-51503852D01*
X118710537Y-51500000D01*
X120054297Y-51500000D01*
X120121336Y-51519685D01*
X120167091Y-51572489D01*
X120177035Y-51641647D01*
X120168858Y-51671453D01*
X120147731Y-51722456D01*
X120147730Y-51722458D01*
X120128729Y-51866791D01*
X120128729Y-51866794D01*
X120147730Y-52011127D01*
X120147732Y-52011132D01*
X120203440Y-52145624D01*
X120203440Y-52145625D01*
X120203442Y-52145628D01*
X120203443Y-52145629D01*
X120292067Y-52261126D01*
X120407564Y-52349750D01*
X120407567Y-52349751D01*
X120407568Y-52349752D01*
X120474814Y-52377606D01*
X120542064Y-52405462D01*
X120614232Y-52414963D01*
X120686399Y-52424464D01*
X120686400Y-52424464D01*
X120686401Y-52424464D01*
X120734512Y-52418130D01*
X120830736Y-52405462D01*
X120965231Y-52349752D01*
X120965232Y-52349752D01*
X120965232Y-52349751D01*
X120965236Y-52349750D01*
X121080733Y-52261126D01*
X121169357Y-52145629D01*
X121225069Y-52011129D01*
X121244071Y-51866793D01*
X121239139Y-51829333D01*
X121225069Y-51722458D01*
X121225069Y-51722457D01*
X121203941Y-51671452D01*
X121196473Y-51601984D01*
X121227748Y-51539504D01*
X121287837Y-51503852D01*
X121318503Y-51500000D01*
X139160738Y-51500000D01*
X139227777Y-51519685D01*
X139250221Y-51540333D01*
X139250944Y-51539611D01*
X139256688Y-51545354D01*
X139256691Y-51545357D01*
X139256695Y-51545361D01*
X139372192Y-51633985D01*
X139372195Y-51633986D01*
X139372196Y-51633987D01*
X139439442Y-51661841D01*
X139506692Y-51689697D01*
X139578860Y-51699198D01*
X139651027Y-51708699D01*
X139651028Y-51708699D01*
X139651029Y-51708699D01*
X139699140Y-51702365D01*
X139795364Y-51689697D01*
X139929859Y-51633987D01*
X139929860Y-51633987D01*
X139929860Y-51633986D01*
X139929864Y-51633985D01*
X140045361Y-51545361D01*
X140045365Y-51545355D01*
X140045367Y-51545354D01*
X140051112Y-51539611D01*
X140052810Y-51541309D01*
X140099368Y-51507312D01*
X140141318Y-51500000D01*
X160876000Y-51500000D01*
X160943039Y-51519685D01*
X160988794Y-51572489D01*
X161000000Y-51624000D01*
X161000000Y-68876000D01*
X160980315Y-68943039D01*
X160927511Y-68988794D01*
X160876000Y-69000000D01*
X75903611Y-69000000D01*
X75836572Y-68980315D01*
X75816541Y-68961890D01*
X75815418Y-68963014D01*
X75809675Y-68957271D01*
X75809672Y-68957269D01*
X75809671Y-68957267D01*
X75694174Y-68868643D01*
X75694171Y-68868642D01*
X75694169Y-68868640D01*
X75559677Y-68812932D01*
X75559672Y-68812930D01*
X75415339Y-68793929D01*
X75415337Y-68793929D01*
X75271003Y-68812930D01*
X75271001Y-68812931D01*
X75136503Y-68868642D01*
X75021003Y-68957268D01*
X75015258Y-68963014D01*
X75012895Y-68960651D01*
X74968992Y-68992697D01*
X74927065Y-69000000D01*
X54124000Y-69000000D01*
X54056961Y-68980315D01*
X54011206Y-68927511D01*
X54000000Y-68876000D01*
X54000000Y-67310001D01*
X75642329Y-67310001D01*
X75661330Y-67454334D01*
X75661332Y-67454339D01*
X75717040Y-67588831D01*
X75717040Y-67588832D01*
X75717042Y-67588835D01*
X75717043Y-67588836D01*
X75805667Y-67704333D01*
X75921164Y-67792957D01*
X75921167Y-67792958D01*
X75921168Y-67792959D01*
X75988414Y-67820813D01*
X76055664Y-67848669D01*
X76127832Y-67858170D01*
X76199999Y-67867671D01*
X76200000Y-67867671D01*
X76200001Y-67867671D01*
X76248112Y-67861337D01*
X76344336Y-67848669D01*
X76478831Y-67792959D01*
X76478832Y-67792959D01*
X76478832Y-67792958D01*
X76478836Y-67792957D01*
X76594333Y-67704333D01*
X76682957Y-67588836D01*
X76738669Y-67454336D01*
X76757671Y-67310000D01*
X76738669Y-67165664D01*
X76682957Y-67031165D01*
X76594333Y-66915667D01*
X76478836Y-66827043D01*
X76478833Y-66827042D01*
X76478831Y-66827040D01*
X76344339Y-66771332D01*
X76344334Y-66771330D01*
X76200001Y-66752329D01*
X76199999Y-66752329D01*
X76055665Y-66771330D01*
X76055663Y-66771331D01*
X75921165Y-66827042D01*
X75805667Y-66915667D01*
X75717042Y-67031165D01*
X75661331Y-67165663D01*
X75661330Y-67165665D01*
X75642329Y-67309998D01*
X75642329Y-67310001D01*
X54000000Y-67310001D01*
X54000000Y-66101001D01*
X70029729Y-66101001D01*
X70048730Y-66245334D01*
X70048732Y-66245339D01*
X70104440Y-66379831D01*
X70104440Y-66379832D01*
X70104442Y-66379835D01*
X70104443Y-66379836D01*
X70193067Y-66495333D01*
X70308564Y-66583957D01*
X70308567Y-66583958D01*
X70308568Y-66583959D01*
X70375814Y-66611813D01*
X70443064Y-66639669D01*
X70515232Y-66649170D01*
X70587399Y-66658671D01*
X70587400Y-66658671D01*
X70587401Y-66658671D01*
X70635512Y-66652337D01*
X70731736Y-66639669D01*
X70866231Y-66583959D01*
X70866232Y-66583959D01*
X70866232Y-66583958D01*
X70866236Y-66583957D01*
X70981733Y-66495333D01*
X71070357Y-66379836D01*
X71126069Y-66245336D01*
X71145071Y-66101000D01*
X71126069Y-65956664D01*
X71070357Y-65822165D01*
X70981733Y-65706667D01*
X70866236Y-65618043D01*
X70866233Y-65618042D01*
X70866231Y-65618040D01*
X70731739Y-65562332D01*
X70731734Y-65562330D01*
X70587401Y-65543329D01*
X70587399Y-65543329D01*
X70443065Y-65562330D01*
X70443063Y-65562331D01*
X70308565Y-65618042D01*
X70193067Y-65706667D01*
X70104442Y-65822165D01*
X70048731Y-65956663D01*
X70048730Y-65956665D01*
X70029729Y-66100998D01*
X70029729Y-66101001D01*
X54000000Y-66101001D01*
X54000000Y-64135001D01*
X73942329Y-64135001D01*
X73961330Y-64279334D01*
X73961332Y-64279339D01*
X74017040Y-64413831D01*
X74017040Y-64413832D01*
X74017042Y-64413835D01*
X74017043Y-64413836D01*
X74105667Y-64529333D01*
X74221164Y-64617957D01*
X74221167Y-64617958D01*
X74221168Y-64617959D01*
X74288414Y-64645813D01*
X74355664Y-64673669D01*
X74427832Y-64683170D01*
X74499999Y-64692671D01*
X74500000Y-64692671D01*
X74500001Y-64692671D01*
X74548112Y-64686337D01*
X74644336Y-64673669D01*
X74778831Y-64617959D01*
X74778832Y-64617959D01*
X74778832Y-64617958D01*
X74778836Y-64617957D01*
X74894333Y-64529333D01*
X74982957Y-64413836D01*
X75038669Y-64279336D01*
X75057671Y-64135000D01*
X75054847Y-64113553D01*
X75038669Y-63990665D01*
X75038669Y-63990664D01*
X74982957Y-63856165D01*
X74894333Y-63740667D01*
X74778836Y-63652043D01*
X74778833Y-63652042D01*
X74778831Y-63652040D01*
X74644339Y-63596332D01*
X74644334Y-63596330D01*
X74500001Y-63577329D01*
X74499999Y-63577329D01*
X74355665Y-63596330D01*
X74355663Y-63596331D01*
X74221165Y-63652042D01*
X74105667Y-63740667D01*
X74017042Y-63856165D01*
X73961331Y-63990663D01*
X73961330Y-63990665D01*
X73942329Y-64134998D01*
X73942329Y-64135001D01*
X54000000Y-64135001D01*
X54000000Y-62768097D01*
X96041500Y-62768097D01*
X96078446Y-63001368D01*
X96151433Y-63225996D01*
X96258657Y-63436433D01*
X96397483Y-63627510D01*
X96564490Y-63794517D01*
X96755567Y-63933343D01*
X96854991Y-63984002D01*
X96966003Y-64040566D01*
X96966005Y-64040566D01*
X96966008Y-64040568D01*
X97086412Y-64079689D01*
X97190631Y-64113553D01*
X97423903Y-64150500D01*
X97423908Y-64150500D01*
X97660097Y-64150500D01*
X97893368Y-64113553D01*
X98117992Y-64040568D01*
X98328433Y-63933343D01*
X98519510Y-63794517D01*
X98686517Y-63627510D01*
X98825343Y-63436433D01*
X98932568Y-63225992D01*
X99005553Y-63001368D01*
X99042500Y-62768097D01*
X128041500Y-62768097D01*
X128078446Y-63001368D01*
X128151433Y-63225996D01*
X128258657Y-63436433D01*
X128397483Y-63627510D01*
X128564490Y-63794517D01*
X128755567Y-63933343D01*
X128854991Y-63984002D01*
X128966003Y-64040566D01*
X128966005Y-64040566D01*
X128966008Y-64040568D01*
X129086412Y-64079689D01*
X129190631Y-64113553D01*
X129423903Y-64150500D01*
X129423908Y-64150500D01*
X129660097Y-64150500D01*
X129893368Y-64113553D01*
X130117992Y-64040568D01*
X130328433Y-63933343D01*
X130519510Y-63794517D01*
X130686517Y-63627510D01*
X130825343Y-63436433D01*
X130932568Y-63225992D01*
X131005553Y-63001368D01*
X131042500Y-62768097D01*
X131042500Y-62531902D01*
X131005553Y-62298631D01*
X130932566Y-62074003D01*
X130825342Y-61863566D01*
X130779260Y-61800140D01*
X130686517Y-61672490D01*
X130519510Y-61505483D01*
X130328433Y-61366657D01*
X130117996Y-61259433D01*
X129893368Y-61186446D01*
X129660097Y-61149500D01*
X129660092Y-61149500D01*
X129423908Y-61149500D01*
X129423903Y-61149500D01*
X129190631Y-61186446D01*
X128966003Y-61259433D01*
X128755566Y-61366657D01*
X128671571Y-61427684D01*
X128564490Y-61505483D01*
X128564488Y-61505485D01*
X128564487Y-61505485D01*
X128397485Y-61672487D01*
X128397485Y-61672488D01*
X128397483Y-61672490D01*
X128376531Y-61701328D01*
X128258657Y-61863566D01*
X128151433Y-62074003D01*
X128078446Y-62298631D01*
X128041500Y-62531902D01*
X128041500Y-62768097D01*
X99042500Y-62768097D01*
X99042500Y-62531902D01*
X99005553Y-62298631D01*
X98932566Y-62074003D01*
X98825342Y-61863566D01*
X98779260Y-61800140D01*
X98686517Y-61672490D01*
X98519510Y-61505483D01*
X98328433Y-61366657D01*
X98117996Y-61259433D01*
X97893368Y-61186446D01*
X97660097Y-61149500D01*
X97660092Y-61149500D01*
X97423908Y-61149500D01*
X97423903Y-61149500D01*
X97190631Y-61186446D01*
X96966003Y-61259433D01*
X96755566Y-61366657D01*
X96671571Y-61427684D01*
X96564490Y-61505483D01*
X96564488Y-61505485D01*
X96564487Y-61505485D01*
X96397485Y-61672487D01*
X96397485Y-61672488D01*
X96397483Y-61672490D01*
X96376531Y-61701328D01*
X96258657Y-61863566D01*
X96151433Y-62074003D01*
X96078446Y-62298631D01*
X96041500Y-62531902D01*
X96041500Y-62768097D01*
X54000000Y-62768097D01*
X54000000Y-58675401D01*
X121743329Y-58675401D01*
X121762330Y-58819734D01*
X121762332Y-58819739D01*
X121818040Y-58954231D01*
X121818040Y-58954232D01*
X121818042Y-58954235D01*
X121818043Y-58954236D01*
X121906667Y-59069733D01*
X122022164Y-59158357D01*
X122022167Y-59158358D01*
X122022168Y-59158359D01*
X122089414Y-59186213D01*
X122156664Y-59214069D01*
X122228832Y-59223570D01*
X122300999Y-59233071D01*
X122301000Y-59233071D01*
X122301001Y-59233071D01*
X122349112Y-59226737D01*
X122445336Y-59214069D01*
X122579831Y-59158359D01*
X122579832Y-59158359D01*
X122579832Y-59158358D01*
X122579836Y-59158357D01*
X122594819Y-59146860D01*
X126534188Y-59146860D01*
X126553189Y-59291193D01*
X126553191Y-59291198D01*
X126608899Y-59425690D01*
X126608899Y-59425691D01*
X126608901Y-59425694D01*
X126608902Y-59425695D01*
X126697526Y-59541192D01*
X126813023Y-59629816D01*
X126813026Y-59629817D01*
X126813027Y-59629818D01*
X126880273Y-59657672D01*
X126947523Y-59685528D01*
X127019691Y-59695029D01*
X127091858Y-59704530D01*
X127091859Y-59704530D01*
X127091860Y-59704530D01*
X127139971Y-59698196D01*
X127236195Y-59685528D01*
X127370690Y-59629818D01*
X127370691Y-59629818D01*
X127370691Y-59629817D01*
X127370695Y-59629816D01*
X127486192Y-59541192D01*
X127574816Y-59425695D01*
X127630528Y-59291195D01*
X127649530Y-59146859D01*
X127630528Y-59002523D01*
X127574816Y-58868024D01*
X127486192Y-58752526D01*
X127370695Y-58663902D01*
X127370692Y-58663901D01*
X127370690Y-58663899D01*
X127236198Y-58608191D01*
X127236193Y-58608189D01*
X127091860Y-58589188D01*
X127091858Y-58589188D01*
X126947524Y-58608189D01*
X126947522Y-58608190D01*
X126813024Y-58663901D01*
X126697526Y-58752526D01*
X126608901Y-58868024D01*
X126553190Y-59002522D01*
X126553189Y-59002524D01*
X126534188Y-59146857D01*
X126534188Y-59146860D01*
X122594819Y-59146860D01*
X122695333Y-59069733D01*
X122783957Y-58954236D01*
X122839669Y-58819736D01*
X122855002Y-58703271D01*
X122858671Y-58675401D01*
X122858671Y-58675398D01*
X122843131Y-58557359D01*
X122839669Y-58531064D01*
X122783957Y-58396565D01*
X122742603Y-58342671D01*
X122695334Y-58281068D01*
X122678250Y-58267959D01*
X122579836Y-58192443D01*
X122579833Y-58192442D01*
X122579831Y-58192440D01*
X122466751Y-58145601D01*
X132114329Y-58145601D01*
X132133330Y-58289934D01*
X132133332Y-58289939D01*
X132189040Y-58424431D01*
X132189040Y-58424432D01*
X132189042Y-58424435D01*
X132189043Y-58424436D01*
X132277667Y-58539933D01*
X132393164Y-58628557D01*
X132393167Y-58628558D01*
X132393168Y-58628559D01*
X132460414Y-58656413D01*
X132527664Y-58684269D01*
X132599832Y-58693770D01*
X132671999Y-58703271D01*
X132672000Y-58703271D01*
X132672001Y-58703271D01*
X132720112Y-58696937D01*
X132816336Y-58684269D01*
X132950831Y-58628559D01*
X132950832Y-58628559D01*
X132950832Y-58628558D01*
X132950836Y-58628557D01*
X133066333Y-58539933D01*
X133154957Y-58424436D01*
X133210669Y-58289936D01*
X133229355Y-58148001D01*
X136364329Y-58148001D01*
X136383330Y-58292334D01*
X136383332Y-58292339D01*
X136439040Y-58426831D01*
X136439040Y-58426832D01*
X136439042Y-58426835D01*
X136439043Y-58426836D01*
X136527667Y-58542333D01*
X136643164Y-58630957D01*
X136643167Y-58630958D01*
X136643168Y-58630959D01*
X136645853Y-58632071D01*
X136777664Y-58686669D01*
X136849832Y-58696170D01*
X136921999Y-58705671D01*
X136922000Y-58705671D01*
X136922001Y-58705671D01*
X136970112Y-58699337D01*
X137066336Y-58686669D01*
X137200831Y-58630959D01*
X137200832Y-58630959D01*
X137200832Y-58630958D01*
X137200836Y-58630957D01*
X137316333Y-58542333D01*
X137404957Y-58426836D01*
X137460669Y-58292336D01*
X137479671Y-58148000D01*
X137478187Y-58136731D01*
X137469981Y-58074401D01*
X148942339Y-58074401D01*
X148961340Y-58218734D01*
X148961342Y-58218739D01*
X149017050Y-58353231D01*
X149017050Y-58353232D01*
X149017052Y-58353235D01*
X149017053Y-58353236D01*
X149105677Y-58468733D01*
X149221174Y-58557357D01*
X149221177Y-58557358D01*
X149221178Y-58557359D01*
X149288424Y-58585213D01*
X149355674Y-58613069D01*
X149427842Y-58622570D01*
X149500009Y-58632071D01*
X149500010Y-58632071D01*
X149500011Y-58632071D01*
X149548122Y-58625737D01*
X149644346Y-58613069D01*
X149778841Y-58557359D01*
X149778842Y-58557359D01*
X149778842Y-58557358D01*
X149778846Y-58557357D01*
X149894343Y-58468733D01*
X149982967Y-58353236D01*
X150038679Y-58218736D01*
X150057681Y-58074400D01*
X150038679Y-57930064D01*
X149982967Y-57795565D01*
X149894343Y-57680067D01*
X149778846Y-57591443D01*
X149778843Y-57591442D01*
X149778841Y-57591440D01*
X149644349Y-57535732D01*
X149644344Y-57535730D01*
X149500011Y-57516729D01*
X149500009Y-57516729D01*
X149355675Y-57535730D01*
X149355673Y-57535731D01*
X149221175Y-57591442D01*
X149105677Y-57680067D01*
X149017052Y-57795565D01*
X148961341Y-57930063D01*
X148961340Y-57930065D01*
X148942339Y-58074398D01*
X148942339Y-58074401D01*
X137469981Y-58074401D01*
X137460669Y-58003665D01*
X137460669Y-58003664D01*
X137404957Y-57869165D01*
X137340376Y-57785001D01*
X137316334Y-57753668D01*
X137316333Y-57753667D01*
X137200836Y-57665043D01*
X137200833Y-57665042D01*
X137200831Y-57665040D01*
X137066339Y-57609332D01*
X137066334Y-57609330D01*
X136922001Y-57590329D01*
X136921999Y-57590329D01*
X136777665Y-57609330D01*
X136777663Y-57609331D01*
X136643165Y-57665042D01*
X136527667Y-57753667D01*
X136439042Y-57869165D01*
X136383331Y-58003663D01*
X136383330Y-58003665D01*
X136364329Y-58147998D01*
X136364329Y-58148001D01*
X133229355Y-58148001D01*
X133229671Y-58145600D01*
X133228503Y-58136731D01*
X133210669Y-58001265D01*
X133210669Y-58001264D01*
X133154957Y-57866765D01*
X133092217Y-57785000D01*
X133066334Y-57751268D01*
X133066333Y-57751267D01*
X132950836Y-57662643D01*
X132950833Y-57662642D01*
X132950831Y-57662640D01*
X132816339Y-57606932D01*
X132816334Y-57606930D01*
X132672001Y-57587929D01*
X132671999Y-57587929D01*
X132527665Y-57606930D01*
X132527663Y-57606931D01*
X132393165Y-57662642D01*
X132277667Y-57751267D01*
X132189042Y-57866765D01*
X132133331Y-58001263D01*
X132133330Y-58001265D01*
X132114329Y-58145598D01*
X132114329Y-58145601D01*
X122466751Y-58145601D01*
X122445339Y-58136732D01*
X122445334Y-58136730D01*
X122301001Y-58117729D01*
X122300999Y-58117729D01*
X122156665Y-58136730D01*
X122156663Y-58136731D01*
X122022165Y-58192442D01*
X121906667Y-58281067D01*
X121818042Y-58396565D01*
X121762331Y-58531063D01*
X121762330Y-58531065D01*
X121743329Y-58675398D01*
X121743329Y-58675401D01*
X54000000Y-58675401D01*
X54000000Y-57785001D01*
X115647329Y-57785001D01*
X115666330Y-57929334D01*
X115666332Y-57929339D01*
X115722040Y-58063831D01*
X115722040Y-58063832D01*
X115722042Y-58063835D01*
X115722043Y-58063836D01*
X115810667Y-58179333D01*
X115926164Y-58267957D01*
X115926167Y-58267958D01*
X115926168Y-58267959D01*
X115979221Y-58289934D01*
X116060664Y-58323669D01*
X116132832Y-58333170D01*
X116204999Y-58342671D01*
X116205000Y-58342671D01*
X116205001Y-58342671D01*
X116253112Y-58336337D01*
X116349336Y-58323669D01*
X116483831Y-58267959D01*
X116483832Y-58267959D01*
X116483832Y-58267958D01*
X116483836Y-58267957D01*
X116599333Y-58179333D01*
X116687957Y-58063836D01*
X116743669Y-57929336D01*
X116762671Y-57785000D01*
X116743669Y-57640664D01*
X116687957Y-57506165D01*
X116599333Y-57390667D01*
X116483836Y-57302043D01*
X116483833Y-57302042D01*
X116483831Y-57302040D01*
X116349339Y-57246332D01*
X116349334Y-57246330D01*
X116205001Y-57227329D01*
X116204999Y-57227329D01*
X116060665Y-57246330D01*
X116060663Y-57246331D01*
X115926165Y-57302042D01*
X115810667Y-57390667D01*
X115722042Y-57506165D01*
X115666331Y-57640663D01*
X115666330Y-57640665D01*
X115647329Y-57784998D01*
X115647329Y-57785001D01*
X54000000Y-57785001D01*
X54000000Y-56769001D01*
X55322329Y-56769001D01*
X55341330Y-56913334D01*
X55341332Y-56913339D01*
X55397040Y-57047831D01*
X55397040Y-57047832D01*
X55397042Y-57047835D01*
X55397043Y-57047836D01*
X55485667Y-57163333D01*
X55601164Y-57251957D01*
X55601167Y-57251958D01*
X55601168Y-57251959D01*
X55668414Y-57279813D01*
X55735664Y-57307669D01*
X55807832Y-57317170D01*
X55879999Y-57326671D01*
X55880000Y-57326671D01*
X55880001Y-57326671D01*
X55928112Y-57320337D01*
X56024336Y-57307669D01*
X56158831Y-57251959D01*
X56158832Y-57251959D01*
X56158832Y-57251958D01*
X56158836Y-57251957D01*
X56274333Y-57163333D01*
X56289624Y-57143404D01*
X56346052Y-57102202D01*
X56415798Y-57098047D01*
X56476718Y-57132259D01*
X56486373Y-57143401D01*
X56501667Y-57163333D01*
X56617164Y-57251957D01*
X56617167Y-57251958D01*
X56617168Y-57251959D01*
X56684414Y-57279813D01*
X56751664Y-57307669D01*
X56823832Y-57317170D01*
X56895999Y-57326671D01*
X56896000Y-57326671D01*
X56896001Y-57326671D01*
X56944112Y-57320337D01*
X57040336Y-57307669D01*
X57174831Y-57251959D01*
X57174832Y-57251959D01*
X57174832Y-57251958D01*
X57174836Y-57251957D01*
X57290333Y-57163333D01*
X57305624Y-57143404D01*
X57362052Y-57102202D01*
X57431798Y-57098047D01*
X57492718Y-57132259D01*
X57502373Y-57143401D01*
X57517667Y-57163333D01*
X57633164Y-57251957D01*
X57633167Y-57251958D01*
X57633168Y-57251959D01*
X57700414Y-57279813D01*
X57767664Y-57307669D01*
X57839832Y-57317170D01*
X57911999Y-57326671D01*
X57912000Y-57326671D01*
X57912001Y-57326671D01*
X57960112Y-57320337D01*
X58056336Y-57307669D01*
X58190831Y-57251959D01*
X58190832Y-57251959D01*
X58190832Y-57251958D01*
X58190836Y-57251957D01*
X58306333Y-57163333D01*
X58394957Y-57047836D01*
X58450669Y-56913336D01*
X58464580Y-56807671D01*
X58469671Y-56769001D01*
X58469671Y-56768998D01*
X58450669Y-56624665D01*
X58450669Y-56624664D01*
X58405245Y-56515001D01*
X87580329Y-56515001D01*
X87599330Y-56659334D01*
X87599332Y-56659339D01*
X87655040Y-56793831D01*
X87655040Y-56793832D01*
X87655042Y-56793835D01*
X87655043Y-56793836D01*
X87743667Y-56909333D01*
X87859164Y-56997957D01*
X87859167Y-56997958D01*
X87859168Y-56997959D01*
X87926414Y-57025813D01*
X87993664Y-57053669D01*
X88065832Y-57063170D01*
X88137999Y-57072671D01*
X88138000Y-57072671D01*
X88138001Y-57072671D01*
X88186112Y-57066337D01*
X88282336Y-57053669D01*
X88416831Y-56997959D01*
X88416832Y-56997959D01*
X88416832Y-56997958D01*
X88416836Y-56997957D01*
X88532333Y-56909333D01*
X88620957Y-56793836D01*
X88676669Y-56659336D01*
X88691559Y-56546232D01*
X88695671Y-56515001D01*
X89739329Y-56515001D01*
X89758330Y-56659334D01*
X89758332Y-56659339D01*
X89814040Y-56793831D01*
X89814040Y-56793832D01*
X89814042Y-56793835D01*
X89814043Y-56793836D01*
X89902667Y-56909333D01*
X90018164Y-56997957D01*
X90018167Y-56997958D01*
X90018168Y-56997959D01*
X90085414Y-57025813D01*
X90152664Y-57053669D01*
X90224832Y-57063170D01*
X90296999Y-57072671D01*
X90297000Y-57072671D01*
X90297001Y-57072671D01*
X90345112Y-57066337D01*
X90441336Y-57053669D01*
X90575831Y-56997959D01*
X90575832Y-56997959D01*
X90575832Y-56997958D01*
X90575836Y-56997957D01*
X90691333Y-56909333D01*
X90779957Y-56793836D01*
X90835669Y-56659336D01*
X90850559Y-56546232D01*
X90854671Y-56515001D01*
X90854671Y-56514998D01*
X90840287Y-56405741D01*
X90835669Y-56370664D01*
X90781949Y-56240973D01*
X128021357Y-56240973D01*
X128040358Y-56385306D01*
X128040360Y-56385311D01*
X128096068Y-56519803D01*
X128096068Y-56519804D01*
X128096070Y-56519807D01*
X128096071Y-56519808D01*
X128184695Y-56635305D01*
X128300192Y-56723929D01*
X128300195Y-56723930D01*
X128300196Y-56723931D01*
X128321987Y-56732957D01*
X128434692Y-56779641D01*
X128503252Y-56788667D01*
X128579027Y-56798643D01*
X128579028Y-56798643D01*
X128579029Y-56798643D01*
X128627140Y-56792309D01*
X128723364Y-56779641D01*
X128857859Y-56723931D01*
X128857860Y-56723931D01*
X128857860Y-56723930D01*
X128857864Y-56723929D01*
X128973361Y-56635305D01*
X129061985Y-56519808D01*
X129117697Y-56385308D01*
X129135510Y-56250001D01*
X134942329Y-56250001D01*
X134961330Y-56394334D01*
X134961332Y-56394339D01*
X135017040Y-56528831D01*
X135017040Y-56528832D01*
X135017042Y-56528835D01*
X135017043Y-56528836D01*
X135105667Y-56644333D01*
X135221164Y-56732957D01*
X135221167Y-56732958D01*
X135221168Y-56732959D01*
X135288414Y-56760813D01*
X135355664Y-56788669D01*
X135394912Y-56793836D01*
X135499999Y-56807671D01*
X135500000Y-56807671D01*
X135500001Y-56807671D01*
X135568575Y-56798643D01*
X135644336Y-56788669D01*
X135778831Y-56732959D01*
X135778832Y-56732959D01*
X135778832Y-56732958D01*
X135778836Y-56732957D01*
X135894333Y-56644333D01*
X135982957Y-56528836D01*
X136038669Y-56394336D01*
X136057671Y-56250000D01*
X136056482Y-56240972D01*
X136044756Y-56151901D01*
X138942329Y-56151901D01*
X138961330Y-56296234D01*
X138961332Y-56296239D01*
X139017040Y-56430731D01*
X139017040Y-56430732D01*
X139017042Y-56430735D01*
X139017043Y-56430736D01*
X139105667Y-56546233D01*
X139221164Y-56634857D01*
X139221167Y-56634858D01*
X139221168Y-56634859D01*
X139280256Y-56659334D01*
X139355664Y-56690569D01*
X139427832Y-56700070D01*
X139499999Y-56709571D01*
X139500000Y-56709571D01*
X139500001Y-56709571D01*
X139548112Y-56703237D01*
X139644336Y-56690569D01*
X139778831Y-56634859D01*
X139778832Y-56634859D01*
X139778832Y-56634858D01*
X139778836Y-56634857D01*
X139894333Y-56546233D01*
X139982957Y-56430736D01*
X140038669Y-56296236D01*
X140057671Y-56151900D01*
X140050395Y-56096636D01*
X140041892Y-56032043D01*
X140041722Y-56030751D01*
X150473079Y-56030751D01*
X150492080Y-56175084D01*
X150492082Y-56175089D01*
X150547790Y-56309581D01*
X150547790Y-56309582D01*
X150547792Y-56309585D01*
X150547793Y-56309586D01*
X150636417Y-56425083D01*
X150751914Y-56513707D01*
X150751917Y-56513708D01*
X150751918Y-56513709D01*
X150788438Y-56528836D01*
X150886414Y-56569419D01*
X150933098Y-56575565D01*
X151030749Y-56588421D01*
X151030750Y-56588421D01*
X151030751Y-56588421D01*
X151078862Y-56582087D01*
X151175086Y-56569419D01*
X151309581Y-56513709D01*
X151309582Y-56513709D01*
X151309582Y-56513708D01*
X151309586Y-56513707D01*
X151425083Y-56425083D01*
X151513707Y-56309586D01*
X151569419Y-56175086D01*
X151584877Y-56057671D01*
X151588421Y-56030751D01*
X151588421Y-56030748D01*
X151572665Y-55911072D01*
X151569419Y-55886414D01*
X151513707Y-55751915D01*
X151482565Y-55711330D01*
X151425084Y-55636418D01*
X151425083Y-55636417D01*
X151309586Y-55547793D01*
X151309583Y-55547792D01*
X151309581Y-55547790D01*
X151175089Y-55492082D01*
X151175084Y-55492080D01*
X151030751Y-55473079D01*
X151030749Y-55473079D01*
X150886415Y-55492080D01*
X150886413Y-55492081D01*
X150751915Y-55547792D01*
X150636417Y-55636417D01*
X150547792Y-55751915D01*
X150492081Y-55886413D01*
X150492080Y-55886415D01*
X150473079Y-56030748D01*
X150473079Y-56030751D01*
X140041722Y-56030751D01*
X140038669Y-56007564D01*
X139982957Y-55873065D01*
X139901604Y-55767043D01*
X139894334Y-55757568D01*
X139886967Y-55751915D01*
X139778836Y-55668943D01*
X139778833Y-55668942D01*
X139778831Y-55668940D01*
X139644339Y-55613232D01*
X139644334Y-55613230D01*
X139500001Y-55594229D01*
X139499999Y-55594229D01*
X139355665Y-55613230D01*
X139355663Y-55613231D01*
X139221165Y-55668942D01*
X139105667Y-55757567D01*
X139017042Y-55873065D01*
X138961331Y-56007563D01*
X138961330Y-56007565D01*
X138942329Y-56151898D01*
X138942329Y-56151901D01*
X136044756Y-56151901D01*
X136038669Y-56105665D01*
X136038669Y-56105664D01*
X135982957Y-55971165D01*
X135972340Y-55957329D01*
X135894334Y-55855668D01*
X135894333Y-55855667D01*
X135778836Y-55767043D01*
X135778833Y-55767042D01*
X135778831Y-55767040D01*
X135644339Y-55711332D01*
X135644334Y-55711330D01*
X135500001Y-55692329D01*
X135499999Y-55692329D01*
X135355665Y-55711330D01*
X135355663Y-55711331D01*
X135221165Y-55767042D01*
X135105667Y-55855667D01*
X135017042Y-55971165D01*
X134961331Y-56105663D01*
X134961330Y-56105665D01*
X134942329Y-56249998D01*
X134942329Y-56250001D01*
X129135510Y-56250001D01*
X129136699Y-56240973D01*
X129136699Y-56240970D01*
X129118886Y-56105665D01*
X129117697Y-56096636D01*
X129061985Y-55962137D01*
X129003881Y-55886414D01*
X128973362Y-55846640D01*
X128884998Y-55778836D01*
X128857864Y-55758015D01*
X128857861Y-55758014D01*
X128857859Y-55758012D01*
X128723367Y-55702304D01*
X128723362Y-55702302D01*
X128579029Y-55683301D01*
X128579027Y-55683301D01*
X128434693Y-55702302D01*
X128434691Y-55702303D01*
X128300193Y-55758014D01*
X128184695Y-55846639D01*
X128096070Y-55962137D01*
X128040359Y-56096635D01*
X128040358Y-56096637D01*
X128021357Y-56240970D01*
X128021357Y-56240973D01*
X90781949Y-56240973D01*
X90779957Y-56236165D01*
X90733088Y-56175084D01*
X90691334Y-56120668D01*
X90671782Y-56105665D01*
X90575836Y-56032043D01*
X90575833Y-56032042D01*
X90575831Y-56032040D01*
X90441339Y-55976332D01*
X90441334Y-55976330D01*
X90297001Y-55957329D01*
X90296999Y-55957329D01*
X90152665Y-55976330D01*
X90152663Y-55976331D01*
X90018165Y-56032042D01*
X89902667Y-56120667D01*
X89814042Y-56236165D01*
X89758331Y-56370663D01*
X89758330Y-56370665D01*
X89739329Y-56514998D01*
X89739329Y-56515001D01*
X88695671Y-56515001D01*
X88695671Y-56514998D01*
X88681287Y-56405741D01*
X88676669Y-56370664D01*
X88620957Y-56236165D01*
X88574088Y-56175084D01*
X88532334Y-56120668D01*
X88512782Y-56105665D01*
X88416836Y-56032043D01*
X88416833Y-56032042D01*
X88416831Y-56032040D01*
X88282339Y-55976332D01*
X88282334Y-55976330D01*
X88138001Y-55957329D01*
X88137999Y-55957329D01*
X87993665Y-55976330D01*
X87993663Y-55976331D01*
X87859165Y-56032042D01*
X87743667Y-56120667D01*
X87655042Y-56236165D01*
X87599331Y-56370663D01*
X87599330Y-56370665D01*
X87580329Y-56514998D01*
X87580329Y-56515001D01*
X58405245Y-56515001D01*
X58394957Y-56490165D01*
X58345018Y-56425083D01*
X58306334Y-56374668D01*
X58301115Y-56370663D01*
X58190836Y-56286043D01*
X58190833Y-56286042D01*
X58190831Y-56286040D01*
X58056339Y-56230332D01*
X58056334Y-56230330D01*
X57912001Y-56211329D01*
X57911999Y-56211329D01*
X57767665Y-56230330D01*
X57767663Y-56230331D01*
X57633165Y-56286042D01*
X57517667Y-56374667D01*
X57509504Y-56385306D01*
X57502376Y-56394595D01*
X57445948Y-56435798D01*
X57376202Y-56439953D01*
X57315282Y-56405741D01*
X57305624Y-56394595D01*
X57290334Y-56374668D01*
X57285115Y-56370663D01*
X57174836Y-56286043D01*
X57174833Y-56286042D01*
X57174831Y-56286040D01*
X57040339Y-56230332D01*
X57040334Y-56230330D01*
X56896001Y-56211329D01*
X56895999Y-56211329D01*
X56751665Y-56230330D01*
X56751663Y-56230331D01*
X56617165Y-56286042D01*
X56501667Y-56374667D01*
X56493504Y-56385306D01*
X56486376Y-56394595D01*
X56429948Y-56435798D01*
X56360202Y-56439953D01*
X56299282Y-56405741D01*
X56289624Y-56394595D01*
X56274334Y-56374668D01*
X56269115Y-56370663D01*
X56158836Y-56286043D01*
X56158833Y-56286042D01*
X56158831Y-56286040D01*
X56024339Y-56230332D01*
X56024334Y-56230330D01*
X55880001Y-56211329D01*
X55879999Y-56211329D01*
X55735665Y-56230330D01*
X55735663Y-56230331D01*
X55601165Y-56286042D01*
X55485667Y-56374667D01*
X55397042Y-56490165D01*
X55341331Y-56624663D01*
X55341330Y-56624665D01*
X55322329Y-56768998D01*
X55322329Y-56769001D01*
X54000000Y-56769001D01*
X54000000Y-54854133D01*
X92233329Y-54854133D01*
X92252330Y-54998466D01*
X92252332Y-54998471D01*
X92308040Y-55132963D01*
X92308040Y-55132964D01*
X92308042Y-55132967D01*
X92308043Y-55132968D01*
X92396667Y-55248465D01*
X92512164Y-55337089D01*
X92512167Y-55337090D01*
X92512168Y-55337091D01*
X92557005Y-55355663D01*
X92646664Y-55392801D01*
X92718832Y-55402302D01*
X92790999Y-55411803D01*
X92791000Y-55411803D01*
X92791001Y-55411803D01*
X92839112Y-55405469D01*
X92935336Y-55392801D01*
X93069831Y-55337091D01*
X93069832Y-55337091D01*
X93069832Y-55337090D01*
X93069836Y-55337089D01*
X93185333Y-55248465D01*
X93273957Y-55132968D01*
X93329669Y-54998468D01*
X93330652Y-54991001D01*
X94438329Y-54991001D01*
X94457330Y-55135334D01*
X94457332Y-55135339D01*
X94513040Y-55269831D01*
X94513040Y-55269832D01*
X94513042Y-55269835D01*
X94513043Y-55269836D01*
X94601667Y-55385333D01*
X94717164Y-55473957D01*
X94717167Y-55473958D01*
X94717168Y-55473959D01*
X94760919Y-55492081D01*
X94851664Y-55529669D01*
X94923832Y-55539170D01*
X94995999Y-55548671D01*
X94996000Y-55548671D01*
X94996001Y-55548671D01*
X95044112Y-55542337D01*
X95140336Y-55529669D01*
X95274831Y-55473959D01*
X95274832Y-55473959D01*
X95274832Y-55473958D01*
X95274836Y-55473957D01*
X95390333Y-55385333D01*
X95478957Y-55269836D01*
X95534669Y-55135336D01*
X95551916Y-55004332D01*
X95553671Y-54991001D01*
X95553671Y-54990998D01*
X95534669Y-54846665D01*
X95534669Y-54846664D01*
X95478957Y-54712165D01*
X95419779Y-54635042D01*
X95400565Y-54610001D01*
X99264329Y-54610001D01*
X99283330Y-54754334D01*
X99283332Y-54754339D01*
X99339040Y-54888831D01*
X99339040Y-54888832D01*
X99339042Y-54888835D01*
X99339043Y-54888836D01*
X99427667Y-55004333D01*
X99543164Y-55092957D01*
X99543167Y-55092958D01*
X99543168Y-55092959D01*
X99603618Y-55117998D01*
X99677664Y-55148669D01*
X99749832Y-55158170D01*
X99821999Y-55167671D01*
X99822000Y-55167671D01*
X99822001Y-55167671D01*
X99870112Y-55161337D01*
X99966336Y-55148669D01*
X100100831Y-55092959D01*
X100100832Y-55092959D01*
X100100832Y-55092958D01*
X100100836Y-55092957D01*
X100216333Y-55004333D01*
X100226563Y-54991001D01*
X111202329Y-54991001D01*
X111221330Y-55135334D01*
X111221332Y-55135339D01*
X111277040Y-55269831D01*
X111277040Y-55269832D01*
X111277042Y-55269835D01*
X111277043Y-55269836D01*
X111365667Y-55385333D01*
X111481164Y-55473957D01*
X111481167Y-55473958D01*
X111481168Y-55473959D01*
X111524919Y-55492081D01*
X111615664Y-55529669D01*
X111687832Y-55539170D01*
X111759999Y-55548671D01*
X111760000Y-55548671D01*
X111760001Y-55548671D01*
X111808112Y-55542337D01*
X111904336Y-55529669D01*
X112038831Y-55473959D01*
X112038832Y-55473959D01*
X112038832Y-55473958D01*
X112038836Y-55473957D01*
X112154333Y-55385333D01*
X112242957Y-55269836D01*
X112298669Y-55135336D01*
X112300951Y-55118001D01*
X116409329Y-55118001D01*
X116428330Y-55262334D01*
X116428332Y-55262339D01*
X116484040Y-55396831D01*
X116484040Y-55396832D01*
X116484042Y-55396835D01*
X116484043Y-55396836D01*
X116572667Y-55512333D01*
X116688164Y-55600957D01*
X116688167Y-55600958D01*
X116688168Y-55600959D01*
X116717798Y-55613232D01*
X116822664Y-55656669D01*
X116894832Y-55666170D01*
X116966999Y-55675671D01*
X116967000Y-55675671D01*
X116967001Y-55675671D01*
X117018112Y-55668942D01*
X117111336Y-55656669D01*
X117245831Y-55600959D01*
X117245832Y-55600959D01*
X117245832Y-55600958D01*
X117245836Y-55600957D01*
X117361333Y-55512333D01*
X117370796Y-55500001D01*
X117933329Y-55500001D01*
X117952330Y-55644334D01*
X117952332Y-55644339D01*
X118008040Y-55778831D01*
X118008040Y-55778832D01*
X118008042Y-55778835D01*
X118008043Y-55778836D01*
X118096667Y-55894333D01*
X118212164Y-55982957D01*
X118212167Y-55982958D01*
X118212168Y-55982959D01*
X118271568Y-56007563D01*
X118346664Y-56038669D01*
X118418832Y-56048170D01*
X118490999Y-56057671D01*
X118491000Y-56057671D01*
X118491001Y-56057671D01*
X118539112Y-56051337D01*
X118635336Y-56038669D01*
X118769831Y-55982959D01*
X118769832Y-55982959D01*
X118769832Y-55982958D01*
X118769836Y-55982957D01*
X118885333Y-55894333D01*
X118973957Y-55778836D01*
X119029669Y-55644336D01*
X119047047Y-55512333D01*
X119048671Y-55500001D01*
X119048671Y-55499998D01*
X119029669Y-55355665D01*
X119029669Y-55355664D01*
X118973957Y-55221165D01*
X118894797Y-55118001D01*
X118885334Y-55105668D01*
X118874168Y-55097100D01*
X118769836Y-55017043D01*
X118769833Y-55017042D01*
X118769831Y-55017040D01*
X118635339Y-54961332D01*
X118635334Y-54961330D01*
X118491001Y-54942329D01*
X118490999Y-54942329D01*
X118346665Y-54961330D01*
X118346663Y-54961331D01*
X118212165Y-55017042D01*
X118096667Y-55105667D01*
X118008042Y-55221165D01*
X117952331Y-55355663D01*
X117952330Y-55355665D01*
X117933329Y-55499998D01*
X117933329Y-55500001D01*
X117370796Y-55500001D01*
X117449957Y-55396836D01*
X117505669Y-55262336D01*
X117522389Y-55135334D01*
X117524671Y-55118001D01*
X117524671Y-55117998D01*
X117511380Y-55017042D01*
X117505669Y-54973664D01*
X117449957Y-54839165D01*
X117384866Y-54754336D01*
X117361334Y-54723668D01*
X117343256Y-54709796D01*
X117245836Y-54635043D01*
X117245833Y-54635042D01*
X117245831Y-54635040D01*
X117111339Y-54579332D01*
X117111334Y-54579330D01*
X116967001Y-54560329D01*
X116966999Y-54560329D01*
X116822665Y-54579330D01*
X116822663Y-54579331D01*
X116688165Y-54635042D01*
X116572667Y-54723667D01*
X116484042Y-54839165D01*
X116428331Y-54973663D01*
X116428330Y-54973665D01*
X116409329Y-55117998D01*
X116409329Y-55118001D01*
X112300951Y-55118001D01*
X112315916Y-55004332D01*
X112317671Y-54991001D01*
X112317671Y-54990998D01*
X112298669Y-54846665D01*
X112298669Y-54846664D01*
X112242957Y-54712165D01*
X112183779Y-54635042D01*
X112154334Y-54596668D01*
X112154333Y-54596667D01*
X112038836Y-54508043D01*
X112038833Y-54508042D01*
X112038831Y-54508040D01*
X111904339Y-54452332D01*
X111904334Y-54452330D01*
X111760001Y-54433329D01*
X111759999Y-54433329D01*
X111615665Y-54452330D01*
X111615663Y-54452331D01*
X111481165Y-54508042D01*
X111365667Y-54596667D01*
X111277042Y-54712165D01*
X111221331Y-54846663D01*
X111221330Y-54846665D01*
X111202329Y-54990998D01*
X111202329Y-54991001D01*
X100226563Y-54991001D01*
X100304957Y-54888836D01*
X100360669Y-54754336D01*
X100376374Y-54635042D01*
X100379671Y-54610001D01*
X100379671Y-54609998D01*
X100360669Y-54465665D01*
X100360669Y-54465664D01*
X100304957Y-54331165D01*
X100242678Y-54250001D01*
X100216334Y-54215668D01*
X100216333Y-54215667D01*
X100100836Y-54127043D01*
X100100833Y-54127042D01*
X100100831Y-54127040D01*
X99966339Y-54071332D01*
X99966334Y-54071330D01*
X99822001Y-54052329D01*
X99821999Y-54052329D01*
X99677665Y-54071330D01*
X99677663Y-54071331D01*
X99543165Y-54127042D01*
X99427667Y-54215667D01*
X99339042Y-54331165D01*
X99283331Y-54465663D01*
X99283330Y-54465665D01*
X99264329Y-54609998D01*
X99264329Y-54610001D01*
X95400565Y-54610001D01*
X95390334Y-54596668D01*
X95390333Y-54596667D01*
X95274836Y-54508043D01*
X95274833Y-54508042D01*
X95274831Y-54508040D01*
X95140339Y-54452332D01*
X95140334Y-54452330D01*
X94996001Y-54433329D01*
X94995999Y-54433329D01*
X94851665Y-54452330D01*
X94851663Y-54452331D01*
X94717165Y-54508042D01*
X94601667Y-54596667D01*
X94513042Y-54712165D01*
X94457331Y-54846663D01*
X94457330Y-54846665D01*
X94438329Y-54990998D01*
X94438329Y-54991001D01*
X93330652Y-54991001D01*
X93348671Y-54854132D01*
X93340052Y-54788667D01*
X93329669Y-54709797D01*
X93329669Y-54709796D01*
X93273957Y-54575297D01*
X93238307Y-54528836D01*
X93185334Y-54459800D01*
X93182932Y-54457957D01*
X93069836Y-54371175D01*
X93069833Y-54371174D01*
X93069831Y-54371172D01*
X92935339Y-54315464D01*
X92935334Y-54315462D01*
X92791001Y-54296461D01*
X92790999Y-54296461D01*
X92646665Y-54315462D01*
X92646663Y-54315463D01*
X92512165Y-54371174D01*
X92396667Y-54459799D01*
X92308042Y-54575297D01*
X92252331Y-54709795D01*
X92252330Y-54709797D01*
X92233329Y-54854130D01*
X92233329Y-54854133D01*
X54000000Y-54854133D01*
X54000000Y-54000001D01*
X96442329Y-54000001D01*
X96461330Y-54144334D01*
X96461332Y-54144339D01*
X96517040Y-54278831D01*
X96517040Y-54278832D01*
X96517042Y-54278835D01*
X96517043Y-54278836D01*
X96605667Y-54394333D01*
X96721164Y-54482957D01*
X96721167Y-54482958D01*
X96721168Y-54482959D01*
X96781719Y-54508040D01*
X96855664Y-54538669D01*
X96927832Y-54548170D01*
X96999999Y-54557671D01*
X97000000Y-54557671D01*
X97000001Y-54557671D01*
X97048112Y-54551337D01*
X97144336Y-54538669D01*
X97278831Y-54482959D01*
X97278832Y-54482959D01*
X97278832Y-54482958D01*
X97278836Y-54482957D01*
X97394333Y-54394333D01*
X97482957Y-54278836D01*
X97538669Y-54144336D01*
X97556623Y-54007959D01*
X97557671Y-54000001D01*
X97557671Y-53999998D01*
X97539942Y-53865334D01*
X97538669Y-53855664D01*
X97482957Y-53721165D01*
X97424003Y-53644334D01*
X97394334Y-53605668D01*
X97372905Y-53589225D01*
X97278836Y-53517043D01*
X97278833Y-53517042D01*
X97278831Y-53517040D01*
X97237695Y-53500001D01*
X105995329Y-53500001D01*
X106014330Y-53644334D01*
X106014332Y-53644339D01*
X106070040Y-53778831D01*
X106070040Y-53778832D01*
X106070042Y-53778835D01*
X106070043Y-53778836D01*
X106158667Y-53894333D01*
X106274164Y-53982957D01*
X106274167Y-53982958D01*
X106274168Y-53982959D01*
X106334519Y-54007957D01*
X106408664Y-54038669D01*
X106480832Y-54048170D01*
X106552999Y-54057671D01*
X106553000Y-54057671D01*
X106553001Y-54057671D01*
X106601112Y-54051337D01*
X106697336Y-54038669D01*
X106790688Y-54000001D01*
X119942329Y-54000001D01*
X119961330Y-54144334D01*
X119961332Y-54144339D01*
X120017040Y-54278831D01*
X120017040Y-54278832D01*
X120017042Y-54278835D01*
X120017043Y-54278836D01*
X120105667Y-54394333D01*
X120221164Y-54482957D01*
X120221167Y-54482958D01*
X120221168Y-54482959D01*
X120281719Y-54508040D01*
X120355664Y-54538669D01*
X120427832Y-54548170D01*
X120499999Y-54557671D01*
X120500000Y-54557671D01*
X120500001Y-54557671D01*
X120548112Y-54551337D01*
X120644336Y-54538669D01*
X120778831Y-54482959D01*
X120778832Y-54482959D01*
X120778832Y-54482958D01*
X120778836Y-54482957D01*
X120894333Y-54394333D01*
X120982957Y-54278836D01*
X121038669Y-54144336D01*
X121056623Y-54007959D01*
X121057671Y-54000001D01*
X121057671Y-53999998D01*
X121039942Y-53865334D01*
X121038669Y-53855664D01*
X120982957Y-53721165D01*
X120924003Y-53644334D01*
X120894334Y-53605668D01*
X120872905Y-53589225D01*
X120778836Y-53517043D01*
X120778833Y-53517042D01*
X120778831Y-53517040D01*
X120644339Y-53461332D01*
X120644334Y-53461330D01*
X120500001Y-53442329D01*
X120499999Y-53442329D01*
X120355665Y-53461330D01*
X120355663Y-53461331D01*
X120221165Y-53517042D01*
X120105667Y-53605667D01*
X120017042Y-53721165D01*
X119961331Y-53855663D01*
X119961330Y-53855665D01*
X119942329Y-53999998D01*
X119942329Y-54000001D01*
X106790688Y-54000001D01*
X106831831Y-53982959D01*
X106831832Y-53982959D01*
X106831832Y-53982958D01*
X106831836Y-53982957D01*
X106947333Y-53894333D01*
X107035957Y-53778836D01*
X107091669Y-53644336D01*
X107110671Y-53500000D01*
X107109623Y-53492043D01*
X107091669Y-53355665D01*
X107091669Y-53355664D01*
X107050068Y-53255232D01*
X127752490Y-53255232D01*
X127771491Y-53399565D01*
X127771493Y-53399570D01*
X127827201Y-53534062D01*
X127827201Y-53534063D01*
X127827203Y-53534066D01*
X127827204Y-53534067D01*
X127915828Y-53649564D01*
X128031325Y-53738188D01*
X128031327Y-53738188D01*
X128036479Y-53742142D01*
X128077681Y-53798570D01*
X128081836Y-53868316D01*
X128059369Y-53916003D01*
X128017042Y-53971165D01*
X127961331Y-54105663D01*
X127961330Y-54105665D01*
X127942329Y-54249998D01*
X127942329Y-54250001D01*
X127961330Y-54394334D01*
X127961332Y-54394339D01*
X128017040Y-54528831D01*
X128017040Y-54528832D01*
X128017042Y-54528835D01*
X128017043Y-54528836D01*
X128105667Y-54644333D01*
X128221164Y-54732957D01*
X128221167Y-54732958D01*
X128221168Y-54732959D01*
X128272772Y-54754334D01*
X128355664Y-54788669D01*
X128427832Y-54798170D01*
X128499999Y-54807671D01*
X128500000Y-54807671D01*
X128500001Y-54807671D01*
X128548112Y-54801337D01*
X128644336Y-54788669D01*
X128778831Y-54732959D01*
X128778832Y-54732959D01*
X128778832Y-54732958D01*
X128778836Y-54732957D01*
X128894333Y-54644333D01*
X128982957Y-54528836D01*
X129038669Y-54394336D01*
X129057671Y-54250000D01*
X129051609Y-54203957D01*
X129043760Y-54144333D01*
X129038669Y-54105664D01*
X128984546Y-53975001D01*
X136729329Y-53975001D01*
X136748330Y-54119334D01*
X136748332Y-54119339D01*
X136804040Y-54253831D01*
X136804040Y-54253832D01*
X136804042Y-54253835D01*
X136804043Y-54253836D01*
X136892667Y-54369333D01*
X137008164Y-54457957D01*
X137008167Y-54457958D01*
X137008168Y-54457959D01*
X137068519Y-54482957D01*
X137142664Y-54513669D01*
X137214832Y-54523170D01*
X137286999Y-54532671D01*
X137287000Y-54532671D01*
X137287001Y-54532671D01*
X137335112Y-54526337D01*
X137431336Y-54513669D01*
X137565831Y-54457959D01*
X137565832Y-54457959D01*
X137565832Y-54457958D01*
X137565836Y-54457957D01*
X137681333Y-54369333D01*
X137769957Y-54253836D01*
X137825669Y-54119336D01*
X137843623Y-53982959D01*
X137844671Y-53975001D01*
X137844671Y-53974998D01*
X137825669Y-53830665D01*
X137825669Y-53830664D01*
X137780245Y-53721001D01*
X138380329Y-53721001D01*
X138399330Y-53865334D01*
X138399332Y-53865339D01*
X138455040Y-53999831D01*
X138455040Y-53999832D01*
X138455042Y-53999835D01*
X138455043Y-53999836D01*
X138543667Y-54115333D01*
X138659164Y-54203957D01*
X138659167Y-54203958D01*
X138659168Y-54203959D01*
X138726414Y-54231813D01*
X138793664Y-54259669D01*
X138865832Y-54269170D01*
X138937999Y-54278671D01*
X138938000Y-54278671D01*
X138938001Y-54278671D01*
X138986112Y-54272337D01*
X139082336Y-54259669D01*
X139216831Y-54203959D01*
X139216832Y-54203959D01*
X139216832Y-54203958D01*
X139216836Y-54203957D01*
X139332333Y-54115333D01*
X139420830Y-54000001D01*
X140942329Y-54000001D01*
X140961330Y-54144334D01*
X140961332Y-54144339D01*
X141017040Y-54278831D01*
X141017040Y-54278832D01*
X141017042Y-54278835D01*
X141017043Y-54278836D01*
X141105667Y-54394333D01*
X141221164Y-54482957D01*
X141221167Y-54482958D01*
X141221168Y-54482959D01*
X141281719Y-54508040D01*
X141355664Y-54538669D01*
X141427832Y-54548170D01*
X141499999Y-54557671D01*
X141500000Y-54557671D01*
X141500001Y-54557671D01*
X141548112Y-54551337D01*
X141644336Y-54538669D01*
X141778831Y-54482959D01*
X141778832Y-54482959D01*
X141778832Y-54482958D01*
X141778836Y-54482957D01*
X141894333Y-54394333D01*
X141982957Y-54278836D01*
X142038669Y-54144336D01*
X142041453Y-54123184D01*
X142069718Y-54059289D01*
X142128042Y-54020817D01*
X142197906Y-54019984D01*
X142211844Y-54024808D01*
X142275059Y-54050991D01*
X142305664Y-54063669D01*
X142363856Y-54071330D01*
X142449999Y-54082671D01*
X142450000Y-54082671D01*
X142450001Y-54082671D01*
X142498112Y-54076337D01*
X142594336Y-54063669D01*
X142728831Y-54007959D01*
X142728832Y-54007959D01*
X142728832Y-54007958D01*
X142728836Y-54007957D01*
X142844333Y-53919333D01*
X142932957Y-53803836D01*
X142988669Y-53669336D01*
X143007671Y-53525000D01*
X143006623Y-53517043D01*
X142988669Y-53380665D01*
X142988669Y-53380664D01*
X142932957Y-53246165D01*
X142881267Y-53178801D01*
X152442329Y-53178801D01*
X152461330Y-53323134D01*
X152461332Y-53323139D01*
X152517040Y-53457631D01*
X152517040Y-53457632D01*
X152517042Y-53457635D01*
X152517043Y-53457636D01*
X152605667Y-53573133D01*
X152721164Y-53661757D01*
X152721167Y-53661758D01*
X152721168Y-53661759D01*
X152739456Y-53669334D01*
X152855664Y-53717469D01*
X152927832Y-53726970D01*
X152999999Y-53736471D01*
X153000000Y-53736471D01*
X153000001Y-53736471D01*
X153048112Y-53730137D01*
X153144336Y-53717469D01*
X153278831Y-53661759D01*
X153278832Y-53661759D01*
X153278832Y-53661758D01*
X153278836Y-53661757D01*
X153394333Y-53573133D01*
X153482957Y-53457636D01*
X153538669Y-53323136D01*
X153557671Y-53178800D01*
X153538669Y-53034464D01*
X153482957Y-52899965D01*
X153449859Y-52856831D01*
X153394334Y-52784468D01*
X153394333Y-52784467D01*
X153278836Y-52695843D01*
X153278833Y-52695842D01*
X153278831Y-52695840D01*
X153144339Y-52640132D01*
X153144334Y-52640130D01*
X153000001Y-52621129D01*
X152999999Y-52621129D01*
X152855665Y-52640130D01*
X152855663Y-52640131D01*
X152721165Y-52695842D01*
X152605667Y-52784467D01*
X152517042Y-52899965D01*
X152461331Y-53034463D01*
X152461330Y-53034465D01*
X152442329Y-53178798D01*
X152442329Y-53178801D01*
X142881267Y-53178801D01*
X142844334Y-53130668D01*
X142826090Y-53116669D01*
X142728836Y-53042043D01*
X142728833Y-53042042D01*
X142728831Y-53042040D01*
X142594339Y-52986332D01*
X142594334Y-52986330D01*
X142450001Y-52967329D01*
X142449999Y-52967329D01*
X142305665Y-52986330D01*
X142305663Y-52986331D01*
X142171165Y-53042042D01*
X142055667Y-53130667D01*
X141967042Y-53246165D01*
X141911331Y-53380663D01*
X141908546Y-53401818D01*
X141880278Y-53465714D01*
X141821953Y-53504184D01*
X141752088Y-53505014D01*
X141738155Y-53500191D01*
X141644339Y-53461332D01*
X141644334Y-53461330D01*
X141500001Y-53442329D01*
X141499999Y-53442329D01*
X141355665Y-53461330D01*
X141355663Y-53461331D01*
X141221165Y-53517042D01*
X141105667Y-53605667D01*
X141017042Y-53721165D01*
X140961331Y-53855663D01*
X140961330Y-53855665D01*
X140942329Y-53999998D01*
X140942329Y-54000001D01*
X139420830Y-54000001D01*
X139420957Y-53999836D01*
X139476669Y-53865336D01*
X139495671Y-53721000D01*
X139492401Y-53696165D01*
X139476669Y-53576665D01*
X139476669Y-53576664D01*
X139420957Y-53442165D01*
X139342588Y-53340032D01*
X139332334Y-53326668D01*
X139327731Y-53323136D01*
X139216836Y-53238043D01*
X139216833Y-53238042D01*
X139216831Y-53238040D01*
X139082339Y-53182332D01*
X139082334Y-53182330D01*
X138938001Y-53163329D01*
X138937999Y-53163329D01*
X138793665Y-53182330D01*
X138793663Y-53182331D01*
X138659165Y-53238042D01*
X138543667Y-53326667D01*
X138455042Y-53442165D01*
X138399331Y-53576663D01*
X138399330Y-53576665D01*
X138380329Y-53720998D01*
X138380329Y-53721001D01*
X137780245Y-53721001D01*
X137769957Y-53696165D01*
X137730186Y-53644334D01*
X137681334Y-53580668D01*
X137676115Y-53576663D01*
X137565836Y-53492043D01*
X137565833Y-53492042D01*
X137565831Y-53492040D01*
X137431339Y-53436332D01*
X137431334Y-53436330D01*
X137287001Y-53417329D01*
X137286999Y-53417329D01*
X137142665Y-53436330D01*
X137142663Y-53436331D01*
X137008165Y-53492042D01*
X136892667Y-53580667D01*
X136804042Y-53696165D01*
X136748331Y-53830663D01*
X136748330Y-53830665D01*
X136729329Y-53974998D01*
X136729329Y-53975001D01*
X128984546Y-53975001D01*
X128982957Y-53971165D01*
X128943185Y-53919333D01*
X128894334Y-53855668D01*
X128894329Y-53855664D01*
X128778836Y-53767043D01*
X128778834Y-53767042D01*
X128773681Y-53763088D01*
X128732479Y-53706660D01*
X128728324Y-53636914D01*
X128750791Y-53589227D01*
X128793118Y-53534067D01*
X128848830Y-53399567D01*
X128867832Y-53255231D01*
X128866638Y-53246165D01*
X128848830Y-53110896D01*
X128848830Y-53110895D01*
X128793118Y-52976396D01*
X128704494Y-52860898D01*
X128588997Y-52772274D01*
X128588994Y-52772273D01*
X128588992Y-52772271D01*
X128454500Y-52716563D01*
X128454495Y-52716561D01*
X128310162Y-52697560D01*
X128310160Y-52697560D01*
X128165826Y-52716561D01*
X128165824Y-52716562D01*
X128031326Y-52772273D01*
X127915828Y-52860898D01*
X127827203Y-52976396D01*
X127771492Y-53110894D01*
X127771491Y-53110896D01*
X127752490Y-53255229D01*
X127752490Y-53255232D01*
X107050068Y-53255232D01*
X107035957Y-53221165D01*
X107003450Y-53178801D01*
X106947334Y-53105668D01*
X106947333Y-53105667D01*
X106831836Y-53017043D01*
X106831833Y-53017042D01*
X106831831Y-53017040D01*
X106697339Y-52961332D01*
X106697334Y-52961330D01*
X106553001Y-52942329D01*
X106552999Y-52942329D01*
X106408665Y-52961330D01*
X106408663Y-52961331D01*
X106274165Y-53017042D01*
X106158667Y-53105667D01*
X106070042Y-53221165D01*
X106014331Y-53355663D01*
X106014330Y-53355665D01*
X105995329Y-53499998D01*
X105995329Y-53500001D01*
X97237695Y-53500001D01*
X97144339Y-53461332D01*
X97144334Y-53461330D01*
X97000001Y-53442329D01*
X96999999Y-53442329D01*
X96855665Y-53461330D01*
X96855663Y-53461331D01*
X96721165Y-53517042D01*
X96605667Y-53605667D01*
X96517042Y-53721165D01*
X96461331Y-53855663D01*
X96461330Y-53855665D01*
X96442329Y-53999998D01*
X96442329Y-54000001D01*
X54000000Y-54000001D01*
X54000000Y-52945700D01*
X94806028Y-52945700D01*
X94825029Y-53090033D01*
X94825031Y-53090038D01*
X94880739Y-53224530D01*
X94880739Y-53224531D01*
X94880741Y-53224534D01*
X94880742Y-53224535D01*
X94969366Y-53340032D01*
X95084863Y-53428656D01*
X95084866Y-53428657D01*
X95084867Y-53428658D01*
X95103394Y-53436332D01*
X95219363Y-53484368D01*
X95277661Y-53492043D01*
X95363698Y-53503370D01*
X95363699Y-53503370D01*
X95363700Y-53503370D01*
X95411811Y-53497036D01*
X95508035Y-53484368D01*
X95642530Y-53428658D01*
X95642531Y-53428658D01*
X95642531Y-53428657D01*
X95642535Y-53428656D01*
X95758032Y-53340032D01*
X95846656Y-53224535D01*
X95902368Y-53090035D01*
X95921370Y-52945699D01*
X95920926Y-52942329D01*
X95902368Y-52801364D01*
X95902368Y-52801363D01*
X95846656Y-52666864D01*
X95826143Y-52640131D01*
X95778470Y-52578001D01*
X111202329Y-52578001D01*
X111221330Y-52722334D01*
X111221332Y-52722339D01*
X111277040Y-52856831D01*
X111277040Y-52856832D01*
X111277042Y-52856835D01*
X111277043Y-52856836D01*
X111365667Y-52972333D01*
X111481164Y-53060957D01*
X111481167Y-53060958D01*
X111481168Y-53060959D01*
X111548414Y-53088813D01*
X111615664Y-53116669D01*
X111687832Y-53126170D01*
X111759999Y-53135671D01*
X111760000Y-53135671D01*
X111760001Y-53135671D01*
X111808112Y-53129337D01*
X111904336Y-53116669D01*
X112038831Y-53060959D01*
X112038832Y-53060959D01*
X112038832Y-53060958D01*
X112038836Y-53060957D01*
X112154333Y-52972333D01*
X112242957Y-52856836D01*
X112298669Y-52722336D01*
X112317671Y-52578000D01*
X112298669Y-52433664D01*
X112242957Y-52299165D01*
X112154333Y-52183667D01*
X112038836Y-52095043D01*
X112038833Y-52095042D01*
X112038831Y-52095040D01*
X111904339Y-52039332D01*
X111904334Y-52039330D01*
X111760001Y-52020329D01*
X111759999Y-52020329D01*
X111615665Y-52039330D01*
X111615663Y-52039331D01*
X111481165Y-52095042D01*
X111365667Y-52183667D01*
X111277042Y-52299165D01*
X111221331Y-52433663D01*
X111221330Y-52433665D01*
X111202329Y-52577998D01*
X111202329Y-52578001D01*
X95778470Y-52578001D01*
X95758033Y-52551367D01*
X95758032Y-52551366D01*
X95642535Y-52462742D01*
X95642532Y-52462741D01*
X95642530Y-52462739D01*
X95508038Y-52407031D01*
X95508033Y-52407029D01*
X95363700Y-52388028D01*
X95363698Y-52388028D01*
X95219364Y-52407029D01*
X95219362Y-52407030D01*
X95084864Y-52462741D01*
X94969366Y-52551366D01*
X94880741Y-52666864D01*
X94825030Y-52801362D01*
X94825029Y-52801364D01*
X94806028Y-52945697D01*
X94806028Y-52945700D01*
X54000000Y-52945700D01*
X54000000Y-51624000D01*
X54019685Y-51556961D01*
X54072489Y-51511206D01*
X54124000Y-51500000D01*
X89925671Y-51500000D01*
X89973123Y-51509438D01*
G37*
G04 #@! TD.AperFunction*
G04 #@! TA.AperFunction,Conductor*
G36*
X63013536Y-139019685D02*
G01*
X63059291Y-139072489D01*
X63068340Y-139132873D01*
X63069329Y-139132873D01*
X63069329Y-139139469D01*
X63069436Y-139140183D01*
X63069329Y-139140995D01*
X63069329Y-139141001D01*
X63088330Y-139285334D01*
X63088332Y-139285339D01*
X63144040Y-139419831D01*
X63144040Y-139419832D01*
X63144042Y-139419835D01*
X63144043Y-139419836D01*
X63232667Y-139535333D01*
X63348164Y-139623957D01*
X63348167Y-139623958D01*
X63348168Y-139623959D01*
X63415414Y-139651813D01*
X63482664Y-139679669D01*
X63535820Y-139686667D01*
X63626999Y-139698671D01*
X63627000Y-139698671D01*
X63627001Y-139698671D01*
X63675112Y-139692337D01*
X63771336Y-139679669D01*
X63905831Y-139623959D01*
X63905832Y-139623959D01*
X63905832Y-139623958D01*
X63905836Y-139623957D01*
X64021333Y-139535333D01*
X64109957Y-139419836D01*
X64165669Y-139285336D01*
X64184671Y-139141000D01*
X64184671Y-139140995D01*
X64184564Y-139140183D01*
X64184671Y-139139496D01*
X64184671Y-139132873D01*
X64185704Y-139132873D01*
X64195330Y-139071148D01*
X64241711Y-139018893D01*
X64307503Y-139000000D01*
X68740348Y-139000000D01*
X68807387Y-139019685D01*
X68815835Y-139025624D01*
X68820664Y-139029329D01*
X68820667Y-139029333D01*
X68936164Y-139117957D01*
X68936167Y-139117958D01*
X68936168Y-139117959D01*
X68972174Y-139132873D01*
X69070664Y-139173669D01*
X69142832Y-139183170D01*
X69214999Y-139192671D01*
X69215000Y-139192671D01*
X69215001Y-139192671D01*
X69263112Y-139186337D01*
X69359336Y-139173669D01*
X69493831Y-139117959D01*
X69493832Y-139117959D01*
X69493832Y-139117958D01*
X69493836Y-139117957D01*
X69609333Y-139029333D01*
X69609335Y-139029329D01*
X69614165Y-139025624D01*
X69679334Y-139000430D01*
X69689652Y-139000000D01*
X160876000Y-139000000D01*
X160943039Y-139019685D01*
X160988794Y-139072489D01*
X161000000Y-139124000D01*
X161000000Y-170876000D01*
X160980315Y-170943039D01*
X160927511Y-170988794D01*
X160876000Y-171000000D01*
X54124000Y-171000000D01*
X54056961Y-170980315D01*
X54011206Y-170927511D01*
X54000000Y-170876000D01*
X54000000Y-165989001D01*
X66244329Y-165989001D01*
X66263330Y-166133334D01*
X66263332Y-166133339D01*
X66319040Y-166267831D01*
X66319040Y-166267832D01*
X66319042Y-166267835D01*
X66319043Y-166267836D01*
X66407667Y-166383333D01*
X66523164Y-166471957D01*
X66523167Y-166471958D01*
X66523168Y-166471959D01*
X66590414Y-166499813D01*
X66657664Y-166527669D01*
X66729832Y-166537170D01*
X66801999Y-166546671D01*
X66802000Y-166546671D01*
X66802001Y-166546671D01*
X66850112Y-166540337D01*
X66946336Y-166527669D01*
X67080831Y-166471959D01*
X67080832Y-166471959D01*
X67080832Y-166471958D01*
X67080836Y-166471957D01*
X67196333Y-166383333D01*
X67284957Y-166267836D01*
X67340669Y-166133336D01*
X67359671Y-165989000D01*
X67340669Y-165844664D01*
X67284957Y-165710165D01*
X67196333Y-165594667D01*
X67080836Y-165506043D01*
X67080833Y-165506042D01*
X67080831Y-165506040D01*
X66946339Y-165450332D01*
X66946334Y-165450330D01*
X66802001Y-165431329D01*
X66801999Y-165431329D01*
X66657665Y-165450330D01*
X66657663Y-165450331D01*
X66523165Y-165506042D01*
X66407667Y-165594667D01*
X66319042Y-165710165D01*
X66263331Y-165844663D01*
X66263330Y-165844665D01*
X66244329Y-165988998D01*
X66244329Y-165989001D01*
X54000000Y-165989001D01*
X54000000Y-164768097D01*
X96041500Y-164768097D01*
X96078446Y-165001368D01*
X96151433Y-165225996D01*
X96256056Y-165431329D01*
X96258657Y-165436433D01*
X96397483Y-165627510D01*
X96564490Y-165794517D01*
X96755567Y-165933343D01*
X96854991Y-165984002D01*
X96966003Y-166040566D01*
X96966005Y-166040566D01*
X96966008Y-166040568D01*
X97086412Y-166079689D01*
X97190631Y-166113553D01*
X97423903Y-166150500D01*
X97423908Y-166150500D01*
X97660097Y-166150500D01*
X97893368Y-166113553D01*
X98117992Y-166040568D01*
X98328433Y-165933343D01*
X98519510Y-165794517D01*
X98686517Y-165627510D01*
X98825343Y-165436433D01*
X98932568Y-165225992D01*
X99005553Y-165001368D01*
X99042500Y-164768097D01*
X128041500Y-164768097D01*
X128078446Y-165001368D01*
X128151433Y-165225996D01*
X128256056Y-165431329D01*
X128258657Y-165436433D01*
X128397483Y-165627510D01*
X128564490Y-165794517D01*
X128755567Y-165933343D01*
X128854991Y-165984002D01*
X128966003Y-166040566D01*
X128966005Y-166040566D01*
X128966008Y-166040568D01*
X129086412Y-166079689D01*
X129190631Y-166113553D01*
X129423903Y-166150500D01*
X129423908Y-166150500D01*
X129660097Y-166150500D01*
X129893368Y-166113553D01*
X130117992Y-166040568D01*
X130328433Y-165933343D01*
X130519510Y-165794517D01*
X130686517Y-165627510D01*
X130825343Y-165436433D01*
X130932568Y-165225992D01*
X131005553Y-165001368D01*
X131042500Y-164768097D01*
X131042500Y-164531902D01*
X131005553Y-164298631D01*
X130932566Y-164074003D01*
X130825342Y-163863566D01*
X130686517Y-163672490D01*
X130519510Y-163505483D01*
X130328433Y-163366657D01*
X130117996Y-163259433D01*
X129893368Y-163186446D01*
X129660097Y-163149500D01*
X129660092Y-163149500D01*
X129423908Y-163149500D01*
X129423903Y-163149500D01*
X129190631Y-163186446D01*
X128966003Y-163259433D01*
X128755566Y-163366657D01*
X128646550Y-163445862D01*
X128564490Y-163505483D01*
X128564488Y-163505485D01*
X128564487Y-163505485D01*
X128397485Y-163672487D01*
X128397485Y-163672488D01*
X128397483Y-163672490D01*
X128337862Y-163754550D01*
X128258657Y-163863566D01*
X128151433Y-164074003D01*
X128078446Y-164298631D01*
X128041500Y-164531902D01*
X128041500Y-164768097D01*
X99042500Y-164768097D01*
X99042500Y-164531902D01*
X99005553Y-164298631D01*
X98932566Y-164074003D01*
X98825342Y-163863566D01*
X98686517Y-163672490D01*
X98519510Y-163505483D01*
X98328433Y-163366657D01*
X98117996Y-163259433D01*
X97893368Y-163186446D01*
X97660097Y-163149500D01*
X97660092Y-163149500D01*
X97423908Y-163149500D01*
X97423903Y-163149500D01*
X97190631Y-163186446D01*
X96966003Y-163259433D01*
X96755566Y-163366657D01*
X96646550Y-163445862D01*
X96564490Y-163505483D01*
X96564488Y-163505485D01*
X96564487Y-163505485D01*
X96397485Y-163672487D01*
X96397485Y-163672488D01*
X96397483Y-163672490D01*
X96337862Y-163754550D01*
X96258657Y-163863566D01*
X96151433Y-164074003D01*
X96078446Y-164298631D01*
X96041500Y-164531902D01*
X96041500Y-164768097D01*
X54000000Y-164768097D01*
X54000000Y-145468097D01*
X96041500Y-145468097D01*
X96078446Y-145701368D01*
X96151433Y-145925996D01*
X96258657Y-146136433D01*
X96397483Y-146327510D01*
X96564490Y-146494517D01*
X96755567Y-146633343D01*
X96854991Y-146684002D01*
X96966003Y-146740566D01*
X96966005Y-146740566D01*
X96966008Y-146740568D01*
X97086412Y-146779689D01*
X97190631Y-146813553D01*
X97423903Y-146850500D01*
X97423908Y-146850500D01*
X97660097Y-146850500D01*
X97893368Y-146813553D01*
X98117992Y-146740568D01*
X98328433Y-146633343D01*
X98519510Y-146494517D01*
X98686517Y-146327510D01*
X98825343Y-146136433D01*
X98932568Y-145925992D01*
X99005553Y-145701368D01*
X99042500Y-145468097D01*
X128041500Y-145468097D01*
X128078446Y-145701368D01*
X128151433Y-145925996D01*
X128258657Y-146136433D01*
X128397483Y-146327510D01*
X128564490Y-146494517D01*
X128755567Y-146633343D01*
X128854991Y-146684002D01*
X128966003Y-146740566D01*
X128966005Y-146740566D01*
X128966008Y-146740568D01*
X129086412Y-146779689D01*
X129190631Y-146813553D01*
X129423903Y-146850500D01*
X129423908Y-146850500D01*
X129660097Y-146850500D01*
X129893368Y-146813553D01*
X130117992Y-146740568D01*
X130328433Y-146633343D01*
X130519510Y-146494517D01*
X130686517Y-146327510D01*
X130825343Y-146136433D01*
X130932568Y-145925992D01*
X131005553Y-145701368D01*
X131042500Y-145468097D01*
X131042500Y-145231902D01*
X131005553Y-144998631D01*
X130932566Y-144774003D01*
X130825342Y-144563566D01*
X130686517Y-144372490D01*
X130519510Y-144205483D01*
X130328433Y-144066657D01*
X130117996Y-143959433D01*
X129893368Y-143886446D01*
X129660097Y-143849500D01*
X129660092Y-143849500D01*
X129423908Y-143849500D01*
X129423903Y-143849500D01*
X129190631Y-143886446D01*
X128966003Y-143959433D01*
X128755566Y-144066657D01*
X128646550Y-144145862D01*
X128564490Y-144205483D01*
X128564488Y-144205485D01*
X128564487Y-144205485D01*
X128397485Y-144372487D01*
X128397485Y-144372488D01*
X128397483Y-144372490D01*
X128337862Y-144454550D01*
X128258657Y-144563566D01*
X128151433Y-144774003D01*
X128078446Y-144998631D01*
X128041500Y-145231902D01*
X128041500Y-145468097D01*
X99042500Y-145468097D01*
X99042500Y-145231902D01*
X99005553Y-144998631D01*
X98932566Y-144774003D01*
X98825342Y-144563566D01*
X98686517Y-144372490D01*
X98519510Y-144205483D01*
X98328433Y-144066657D01*
X98117996Y-143959433D01*
X97893368Y-143886446D01*
X97660097Y-143849500D01*
X97660092Y-143849500D01*
X97423908Y-143849500D01*
X97423903Y-143849500D01*
X97190631Y-143886446D01*
X96966003Y-143959433D01*
X96755566Y-144066657D01*
X96646550Y-144145862D01*
X96564490Y-144205483D01*
X96564488Y-144205485D01*
X96564487Y-144205485D01*
X96397485Y-144372487D01*
X96397485Y-144372488D01*
X96397483Y-144372490D01*
X96337862Y-144454550D01*
X96258657Y-144563566D01*
X96151433Y-144774003D01*
X96078446Y-144998631D01*
X96041500Y-145231902D01*
X96041500Y-145468097D01*
X54000000Y-145468097D01*
X54000000Y-143002001D01*
X66117329Y-143002001D01*
X66136330Y-143146334D01*
X66136332Y-143146339D01*
X66192040Y-143280831D01*
X66192040Y-143280832D01*
X66192042Y-143280835D01*
X66192043Y-143280836D01*
X66280667Y-143396333D01*
X66396164Y-143484957D01*
X66396167Y-143484958D01*
X66396168Y-143484959D01*
X66463414Y-143512813D01*
X66530664Y-143540669D01*
X66602832Y-143550170D01*
X66674999Y-143559671D01*
X66675000Y-143559671D01*
X66675001Y-143559671D01*
X66723112Y-143553337D01*
X66819336Y-143540669D01*
X66953831Y-143484959D01*
X66953832Y-143484959D01*
X66953832Y-143484958D01*
X66953836Y-143484957D01*
X67069333Y-143396333D01*
X67157957Y-143280836D01*
X67213669Y-143146336D01*
X67232671Y-143002000D01*
X67232407Y-143000001D01*
X75442329Y-143000001D01*
X75461330Y-143144334D01*
X75461332Y-143144339D01*
X75517040Y-143278831D01*
X75517040Y-143278832D01*
X75517042Y-143278835D01*
X75517043Y-143278836D01*
X75605667Y-143394333D01*
X75721164Y-143482957D01*
X75721167Y-143482958D01*
X75721168Y-143482959D01*
X75788414Y-143510813D01*
X75855664Y-143538669D01*
X75870856Y-143540669D01*
X75999999Y-143557671D01*
X76000000Y-143557671D01*
X76000001Y-143557671D01*
X76048112Y-143551337D01*
X76144336Y-143538669D01*
X76278831Y-143482959D01*
X76278832Y-143482959D01*
X76278832Y-143482958D01*
X76278836Y-143482957D01*
X76394333Y-143394333D01*
X76482957Y-143278836D01*
X76538669Y-143144336D01*
X76557671Y-143000000D01*
X76538669Y-142855664D01*
X76482957Y-142721165D01*
X76394334Y-142605668D01*
X76331783Y-142557671D01*
X76278836Y-142517043D01*
X76278833Y-142517042D01*
X76278831Y-142517040D01*
X76144339Y-142461332D01*
X76144334Y-142461330D01*
X76000001Y-142442329D01*
X75999999Y-142442329D01*
X75855665Y-142461330D01*
X75855663Y-142461331D01*
X75721165Y-142517042D01*
X75605667Y-142605667D01*
X75517042Y-142721165D01*
X75461331Y-142855663D01*
X75461330Y-142855665D01*
X75442329Y-142999998D01*
X75442329Y-143000001D01*
X67232407Y-143000001D01*
X67232407Y-142999998D01*
X67213669Y-142857665D01*
X67213669Y-142857664D01*
X67157957Y-142723165D01*
X67069333Y-142607667D01*
X66953836Y-142519043D01*
X66953833Y-142519042D01*
X66953831Y-142519040D01*
X66819339Y-142463332D01*
X66819334Y-142463330D01*
X66675001Y-142444329D01*
X66674999Y-142444329D01*
X66530665Y-142463330D01*
X66530663Y-142463331D01*
X66396165Y-142519042D01*
X66280667Y-142607667D01*
X66192042Y-142723165D01*
X66136331Y-142857663D01*
X66136330Y-142857665D01*
X66117329Y-143001998D01*
X66117329Y-143002001D01*
X54000000Y-143002001D01*
X54000000Y-142000001D01*
X72889929Y-142000001D01*
X72908930Y-142144334D01*
X72908932Y-142144339D01*
X72964640Y-142278831D01*
X72964640Y-142278832D01*
X72964642Y-142278835D01*
X72964643Y-142278836D01*
X73053267Y-142394333D01*
X73168764Y-142482957D01*
X73168767Y-142482958D01*
X73168768Y-142482959D01*
X73236014Y-142510813D01*
X73303264Y-142538669D01*
X73375432Y-142548170D01*
X73447599Y-142557671D01*
X73447600Y-142557671D01*
X73447601Y-142557671D01*
X73495712Y-142551337D01*
X73591936Y-142538669D01*
X73726431Y-142482959D01*
X73726432Y-142482959D01*
X73726432Y-142482958D01*
X73726436Y-142482957D01*
X73841933Y-142394333D01*
X73930557Y-142278836D01*
X73986269Y-142144336D01*
X74005271Y-142000000D01*
X73986269Y-141855664D01*
X73930557Y-141721165D01*
X73841933Y-141605667D01*
X73726436Y-141517043D01*
X73726433Y-141517042D01*
X73726431Y-141517040D01*
X73591939Y-141461332D01*
X73591934Y-141461330D01*
X73447601Y-141442329D01*
X73447599Y-141442329D01*
X73303265Y-141461330D01*
X73303263Y-141461331D01*
X73168765Y-141517042D01*
X73053267Y-141605667D01*
X72964642Y-141721165D01*
X72908931Y-141855663D01*
X72908930Y-141855665D01*
X72889929Y-141999998D01*
X72889929Y-142000001D01*
X54000000Y-142000001D01*
X54000000Y-141000001D01*
X71942329Y-141000001D01*
X71961330Y-141144334D01*
X71961332Y-141144339D01*
X72017040Y-141278831D01*
X72017040Y-141278832D01*
X72017042Y-141278835D01*
X72017043Y-141278836D01*
X72105667Y-141394333D01*
X72221164Y-141482957D01*
X72221167Y-141482958D01*
X72221168Y-141482959D01*
X72288414Y-141510813D01*
X72355664Y-141538669D01*
X72427832Y-141548170D01*
X72499999Y-141557671D01*
X72500000Y-141557671D01*
X72500001Y-141557671D01*
X72548112Y-141551337D01*
X72644336Y-141538669D01*
X72778831Y-141482959D01*
X72778832Y-141482959D01*
X72778832Y-141482958D01*
X72778836Y-141482957D01*
X72894333Y-141394333D01*
X72982957Y-141278836D01*
X73038669Y-141144336D01*
X73057671Y-141000000D01*
X73038669Y-140855664D01*
X72982957Y-140721165D01*
X72905077Y-140619669D01*
X72894334Y-140605668D01*
X72894333Y-140605667D01*
X72778836Y-140517043D01*
X72778833Y-140517042D01*
X72778831Y-140517040D01*
X72644339Y-140461332D01*
X72644334Y-140461330D01*
X72500001Y-140442329D01*
X72499999Y-140442329D01*
X72355665Y-140461330D01*
X72355663Y-140461331D01*
X72221165Y-140517042D01*
X72105667Y-140605667D01*
X72017042Y-140721165D01*
X71961331Y-140855663D01*
X71961330Y-140855665D01*
X71942329Y-140999998D01*
X71942329Y-141000001D01*
X54000000Y-141000001D01*
X54000000Y-140000001D01*
X73942329Y-140000001D01*
X73961330Y-140144334D01*
X73961332Y-140144339D01*
X74017040Y-140278831D01*
X74017040Y-140278832D01*
X74017042Y-140278835D01*
X74017043Y-140278836D01*
X74105667Y-140394333D01*
X74221164Y-140482957D01*
X74221167Y-140482958D01*
X74221168Y-140482959D01*
X74288414Y-140510813D01*
X74355664Y-140538669D01*
X74427832Y-140548170D01*
X74499999Y-140557671D01*
X74500000Y-140557671D01*
X74500001Y-140557671D01*
X74548112Y-140551337D01*
X74644336Y-140538669D01*
X74778831Y-140482959D01*
X74778832Y-140482959D01*
X74778832Y-140482958D01*
X74778836Y-140482957D01*
X74894333Y-140394333D01*
X74982957Y-140278836D01*
X75038669Y-140144336D01*
X75047007Y-140081001D01*
X78563329Y-140081001D01*
X78582330Y-140225334D01*
X78582332Y-140225339D01*
X78638040Y-140359831D01*
X78638040Y-140359832D01*
X78638042Y-140359835D01*
X78638043Y-140359836D01*
X78726667Y-140475333D01*
X78842164Y-140563957D01*
X78842167Y-140563958D01*
X78842168Y-140563959D01*
X78909414Y-140591813D01*
X78976664Y-140619669D01*
X79048832Y-140629170D01*
X79120999Y-140638671D01*
X79121000Y-140638671D01*
X79121001Y-140638671D01*
X79169112Y-140632337D01*
X79265336Y-140619669D01*
X79399831Y-140563959D01*
X79399832Y-140563959D01*
X79399832Y-140563958D01*
X79399836Y-140563957D01*
X79515333Y-140475333D01*
X79603957Y-140359836D01*
X79659669Y-140225336D01*
X79678671Y-140081000D01*
X79659669Y-139936664D01*
X79603957Y-139802165D01*
X79515333Y-139686667D01*
X79399836Y-139598043D01*
X79399833Y-139598042D01*
X79399831Y-139598040D01*
X79265339Y-139542332D01*
X79265334Y-139542330D01*
X79121001Y-139523329D01*
X79120999Y-139523329D01*
X78976665Y-139542330D01*
X78976663Y-139542331D01*
X78842165Y-139598042D01*
X78726667Y-139686667D01*
X78638042Y-139802165D01*
X78582331Y-139936663D01*
X78582330Y-139936665D01*
X78563329Y-140080998D01*
X78563329Y-140081001D01*
X75047007Y-140081001D01*
X75057671Y-140000000D01*
X75038669Y-139855664D01*
X74982957Y-139721165D01*
X74894333Y-139605667D01*
X74778836Y-139517043D01*
X74778833Y-139517042D01*
X74778831Y-139517040D01*
X74644339Y-139461332D01*
X74644334Y-139461330D01*
X74500001Y-139442329D01*
X74499999Y-139442329D01*
X74355665Y-139461330D01*
X74355663Y-139461331D01*
X74221165Y-139517042D01*
X74105667Y-139605667D01*
X74017042Y-139721165D01*
X73961331Y-139855663D01*
X73961330Y-139855665D01*
X73942329Y-139999998D01*
X73942329Y-140000001D01*
X54000000Y-140000001D01*
X54000000Y-139124000D01*
X54019685Y-139056961D01*
X54072489Y-139011206D01*
X54124000Y-139000000D01*
X62946497Y-139000000D01*
X63013536Y-139019685D01*
G37*
G04 #@! TD.AperFunction*
M02*
