G04 #@! TF.GenerationSoftware,KiCad,Pcbnew,8.0.1-8.0.1-1~ubuntu22.04.1*
G04 #@! TF.CreationDate,2024-04-04T11:17:19+02:00*
G04 #@! TF.ProjectId,flex4axe,666c6578-3461-4786-952e-6b696361645f,302*
G04 #@! TF.SameCoordinates,Original*
G04 #@! TF.FileFunction,Soldermask,Top*
G04 #@! TF.FilePolarity,Negative*
%FSLAX46Y46*%
G04 Gerber Fmt 4.6, Leading zero omitted, Abs format (unit mm)*
G04 Created by KiCad (PCBNEW 8.0.1-8.0.1-1~ubuntu22.04.1) date 2024-04-04 11:17:19*
%MOMM*%
%LPD*%
G01*
G04 APERTURE LIST*
G04 Aperture macros list*
%AMRoundRect*
0 Rectangle with rounded corners*
0 $1 Rounding radius*
0 $2 $3 $4 $5 $6 $7 $8 $9 X,Y pos of 4 corners*
0 Add a 4 corners polygon primitive as box body*
4,1,4,$2,$3,$4,$5,$6,$7,$8,$9,$2,$3,0*
0 Add four circle primitives for the rounded corners*
1,1,$1+$1,$2,$3*
1,1,$1+$1,$4,$5*
1,1,$1+$1,$6,$7*
1,1,$1+$1,$8,$9*
0 Add four rect primitives between the rounded corners*
20,1,$1+$1,$2,$3,$4,$5,0*
20,1,$1+$1,$4,$5,$6,$7,0*
20,1,$1+$1,$6,$7,$8,$9,0*
20,1,$1+$1,$8,$9,$2,$3,0*%
%AMFreePoly0*
4,1,19,0.500000,-0.750000,0.000000,-0.750000,0.000000,-0.744911,-0.071157,-0.744911,-0.207708,-0.704816,-0.327430,-0.627875,-0.420627,-0.520320,-0.479746,-0.390866,-0.500000,-0.250000,-0.500000,0.250000,-0.479746,0.390866,-0.420627,0.520320,-0.327430,0.627875,-0.207708,0.704816,-0.071157,0.744911,0.000000,0.744911,0.000000,0.750000,0.500000,0.750000,0.500000,-0.750000,0.500000,-0.750000,
$1*%
%AMFreePoly1*
4,1,19,0.000000,0.744911,0.071157,0.744911,0.207708,0.704816,0.327430,0.627875,0.420627,0.520320,0.479746,0.390866,0.500000,0.250000,0.500000,-0.250000,0.479746,-0.390866,0.420627,-0.520320,0.327430,-0.627875,0.207708,-0.704816,0.071157,-0.744911,0.000000,-0.744911,0.000000,-0.750000,-0.500000,-0.750000,-0.500000,0.750000,0.000000,0.750000,0.000000,0.744911,0.000000,0.744911,
$1*%
%AMFreePoly2*
4,1,21,3.024497,2.399497,3.045000,2.350000,3.045000,-2.350000,3.024497,-2.399497,2.975000,-2.420000,1.425000,-2.420000,1.375503,-2.399497,1.355000,-2.350000,1.355000,-2.170000,-1.650000,-2.170000,-1.699497,-2.149497,-1.720000,-2.100000,-1.720000,2.100000,-1.699497,2.149497,-1.650000,2.170000,1.355000,2.170000,1.355000,2.350000,1.375503,2.399497,1.425000,2.420000,2.975000,2.420000,
3.024497,2.399497,3.024497,2.399497,$1*%
G04 Aperture macros list end*
%ADD10C,1.100000*%
%ADD11R,2.030000X1.730000*%
%ADD12O,2.030000X1.730000*%
%ADD13RoundRect,0.250000X0.250000X0.475000X-0.250000X0.475000X-0.250000X-0.475000X0.250000X-0.475000X0*%
%ADD14RoundRect,0.250000X-0.262500X-0.450000X0.262500X-0.450000X0.262500X0.450000X-0.262500X0.450000X0*%
%ADD15RoundRect,0.250000X0.450000X-0.262500X0.450000X0.262500X-0.450000X0.262500X-0.450000X-0.262500X0*%
%ADD16R,1.500000X4.000000*%
%ADD17RoundRect,0.250000X0.325000X0.650000X-0.325000X0.650000X-0.325000X-0.650000X0.325000X-0.650000X0*%
%ADD18RoundRect,0.250000X0.262500X0.450000X-0.262500X0.450000X-0.262500X-0.450000X0.262500X-0.450000X0*%
%ADD19C,2.500000*%
%ADD20C,0.900000*%
%ADD21C,8.600000*%
%ADD22R,3.000000X0.650000*%
%ADD23RoundRect,0.250000X0.475000X-0.250000X0.475000X0.250000X-0.475000X0.250000X-0.475000X-0.250000X0*%
%ADD24FreePoly0,180.000000*%
%ADD25FreePoly1,180.000000*%
%ADD26RoundRect,0.150000X0.150000X-0.587500X0.150000X0.587500X-0.150000X0.587500X-0.150000X-0.587500X0*%
%ADD27RoundRect,0.250000X-0.650000X0.325000X-0.650000X-0.325000X0.650000X-0.325000X0.650000X0.325000X0*%
%ADD28RoundRect,0.250000X0.450000X0.800000X-0.450000X0.800000X-0.450000X-0.800000X0.450000X-0.800000X0*%
%ADD29RoundRect,0.250000X-1.000000X-0.900000X1.000000X-0.900000X1.000000X0.900000X-1.000000X0.900000X0*%
%ADD30RoundRect,0.250000X0.375000X0.625000X-0.375000X0.625000X-0.375000X-0.625000X0.375000X-0.625000X0*%
%ADD31RoundRect,0.250000X-1.425000X0.362500X-1.425000X-0.362500X1.425000X-0.362500X1.425000X0.362500X0*%
%ADD32RoundRect,0.250000X-0.475000X0.250000X-0.475000X-0.250000X0.475000X-0.250000X0.475000X0.250000X0*%
%ADD33RoundRect,0.250000X-0.325000X-0.650000X0.325000X-0.650000X0.325000X0.650000X-0.325000X0.650000X0*%
%ADD34RoundRect,0.250000X-0.450000X0.262500X-0.450000X-0.262500X0.450000X-0.262500X0.450000X0.262500X0*%
%ADD35FreePoly0,90.000000*%
%ADD36FreePoly1,90.000000*%
%ADD37RoundRect,0.250000X-0.250000X-0.475000X0.250000X-0.475000X0.250000X0.475000X-0.250000X0.475000X0*%
%ADD38R,0.650000X2.760000*%
%ADD39R,2.000000X2.000000*%
%ADD40RoundRect,0.150000X0.587500X0.150000X-0.587500X0.150000X-0.587500X-0.150000X0.587500X-0.150000X0*%
%ADD41R,4.245000X3.810000*%
%ADD42RoundRect,0.150000X0.512500X0.150000X-0.512500X0.150000X-0.512500X-0.150000X0.512500X-0.150000X0*%
%ADD43RoundRect,0.150000X-0.512500X-0.150000X0.512500X-0.150000X0.512500X0.150000X-0.512500X0.150000X0*%
%ADD44R,0.650000X0.400000*%
%ADD45RoundRect,0.070000X0.350000X0.575000X-0.350000X0.575000X-0.350000X-0.575000X0.350000X-0.575000X0*%
%ADD46FreePoly2,270.000000*%
%ADD47RoundRect,0.250000X0.650000X-0.325000X0.650000X0.325000X-0.650000X0.325000X-0.650000X-0.325000X0*%
%ADD48R,2.000000X1.500000*%
%ADD49R,2.000000X3.800000*%
%ADD50C,0.650000*%
%ADD51R,0.600000X1.150000*%
%ADD52R,0.300000X1.150000*%
%ADD53O,1.000000X2.100000*%
%ADD54O,1.000000X1.800000*%
%ADD55C,3.500000*%
%ADD56R,2.600000X2.600000*%
%ADD57C,2.600000*%
%ADD58RoundRect,0.250000X1.500000X1.000000X-1.500000X1.000000X-1.500000X-1.000000X1.500000X-1.000000X0*%
%ADD59RoundRect,0.150000X0.150000X-0.825000X0.150000X0.825000X-0.150000X0.825000X-0.150000X-0.825000X0*%
%ADD60RoundRect,0.250000X-0.900000X1.000000X-0.900000X-1.000000X0.900000X-1.000000X0.900000X1.000000X0*%
%ADD61R,0.900000X1.000000*%
%ADD62FreePoly0,270.000000*%
%ADD63FreePoly1,270.000000*%
%ADD64RoundRect,0.125000X-0.625000X-0.125000X0.625000X-0.125000X0.625000X0.125000X-0.625000X0.125000X0*%
%ADD65RoundRect,0.125000X-0.125000X-0.625000X0.125000X-0.625000X0.125000X0.625000X-0.125000X0.625000X0*%
G04 APERTURE END LIST*
D10*
X162840000Y-136920000D03*
D11*
X165000000Y-142000000D03*
D12*
X165000000Y-139460000D03*
X165000000Y-136920000D03*
X165000000Y-134380000D03*
D10*
X162840000Y-68920000D03*
D11*
X165000000Y-74000000D03*
D12*
X165000000Y-71460000D03*
X165000000Y-68920000D03*
X165000000Y-66380000D03*
D13*
X64475400Y-102692200D03*
X62575400Y-102692200D03*
D14*
X118489500Y-41497000D03*
X120314500Y-41497000D03*
D15*
X95885000Y-57427500D03*
X95885000Y-55602500D03*
D16*
X154492000Y-43515000D03*
X150892000Y-43515000D03*
D10*
X162840000Y-102920000D03*
D11*
X165000000Y-108000000D03*
D12*
X165000000Y-105460000D03*
X165000000Y-102920000D03*
X165000000Y-100380000D03*
D17*
X154891000Y-56134000D03*
X151941000Y-56134000D03*
D18*
X143279500Y-135443000D03*
X141454500Y-135443000D03*
D19*
X97542000Y-179350000D03*
X129542000Y-179350000D03*
X97542000Y-164650000D03*
X129542000Y-164650000D03*
D20*
X61042000Y-168725000D03*
X154042000Y-168725000D03*
X58761581Y-167780419D03*
X63322419Y-167780419D03*
X151761581Y-167780419D03*
X156322419Y-167780419D03*
X57817000Y-165500000D03*
D21*
X61042000Y-165500000D03*
D20*
X64267000Y-165500000D03*
X150817000Y-165500000D03*
D21*
X154042000Y-165500000D03*
D20*
X157267000Y-165500000D03*
X58761581Y-163219581D03*
X63322419Y-163219581D03*
X151761581Y-163219581D03*
X156322419Y-163219581D03*
X61042000Y-162275000D03*
X154042000Y-162275000D03*
X61042000Y-181725000D03*
X154042000Y-181725000D03*
X58761581Y-180780419D03*
X63322419Y-180780419D03*
X151761581Y-180780419D03*
X156322419Y-180780419D03*
X57817000Y-178500000D03*
D21*
X61042000Y-178500000D03*
D20*
X64267000Y-178500000D03*
X150817000Y-178500000D03*
D21*
X154042000Y-178500000D03*
D20*
X157267000Y-178500000D03*
X58761581Y-176219581D03*
X63322419Y-176219581D03*
X151761581Y-176219581D03*
X156322419Y-176219581D03*
X61042000Y-175275000D03*
X154042000Y-175275000D03*
D22*
X70042000Y-166285000D03*
X67042000Y-167555000D03*
X70042000Y-168825000D03*
X67042000Y-170095000D03*
X70042000Y-171365000D03*
X67042000Y-172635000D03*
X70042000Y-173905000D03*
X67042000Y-175175000D03*
X70042000Y-176445000D03*
X67042000Y-177715000D03*
X148542000Y-168825000D03*
X145542000Y-170095000D03*
X148542000Y-171365000D03*
X145542000Y-172635000D03*
X148542000Y-173905000D03*
X145542000Y-175175000D03*
D23*
X132175000Y-48750000D03*
X132175000Y-46850000D03*
D24*
X148732000Y-41656000D03*
D25*
X147432000Y-41656000D03*
D15*
X124333000Y-59332500D03*
X124333000Y-57507500D03*
X120015000Y-48387000D03*
X120015000Y-46562000D03*
D26*
X114493000Y-53769500D03*
X116393000Y-53769500D03*
X115443000Y-51894500D03*
D18*
X131250000Y-56550000D03*
X129425000Y-56550000D03*
D19*
X97542000Y-111350000D03*
X129542000Y-111350000D03*
X97542000Y-96650000D03*
X129542000Y-96650000D03*
D20*
X61042000Y-100725000D03*
X154042000Y-100725000D03*
X58761581Y-99780419D03*
X63322419Y-99780419D03*
X151761581Y-99780419D03*
X156322419Y-99780419D03*
X57817000Y-97500000D03*
D21*
X61042000Y-97500000D03*
D20*
X64267000Y-97500000D03*
X150817000Y-97500000D03*
D21*
X154042000Y-97500000D03*
D20*
X157267000Y-97500000D03*
X58761581Y-95219581D03*
X63322419Y-95219581D03*
X151761581Y-95219581D03*
X156322419Y-95219581D03*
X61042000Y-94275000D03*
X154042000Y-94275000D03*
X61042000Y-113725000D03*
X154042000Y-113725000D03*
X58761581Y-112780419D03*
X63322419Y-112780419D03*
X151761581Y-112780419D03*
X156322419Y-112780419D03*
X57817000Y-110500000D03*
D21*
X61042000Y-110500000D03*
D20*
X64267000Y-110500000D03*
X150817000Y-110500000D03*
D21*
X154042000Y-110500000D03*
D20*
X157267000Y-110500000D03*
X58761581Y-108219581D03*
X63322419Y-108219581D03*
X151761581Y-108219581D03*
X156322419Y-108219581D03*
X61042000Y-107275000D03*
X154042000Y-107275000D03*
D22*
X70042000Y-98285000D03*
X67042000Y-99555000D03*
X70042000Y-100825000D03*
X67042000Y-102095000D03*
X70042000Y-103365000D03*
X67042000Y-104635000D03*
X70042000Y-105905000D03*
X67042000Y-107175000D03*
X70042000Y-108445000D03*
X67042000Y-109715000D03*
X148542000Y-100825000D03*
X145542000Y-102095000D03*
X148542000Y-103365000D03*
X145542000Y-104635000D03*
X148542000Y-105905000D03*
X145542000Y-107175000D03*
D27*
X154902000Y-36272000D03*
X154902000Y-39222000D03*
D28*
X156670000Y-49865000D03*
X152270000Y-49865000D03*
D29*
X160850000Y-50000000D03*
X165150000Y-50000000D03*
D30*
X112715000Y-52578000D03*
X109915000Y-52578000D03*
D13*
X93858499Y-50444400D03*
X91958499Y-50444400D03*
D31*
X55880000Y-100984500D03*
X55880000Y-106909500D03*
D14*
X130659500Y-40259000D03*
X132484500Y-40259000D03*
D32*
X135175000Y-55187500D03*
X135175000Y-57087500D03*
D31*
X55880000Y-134893500D03*
X55880000Y-140818500D03*
D33*
X75106000Y-106045000D03*
X78056000Y-106045000D03*
D18*
X74445500Y-102042000D03*
X72620500Y-102042000D03*
D34*
X143129000Y-39981500D03*
X143129000Y-41806500D03*
D35*
X85750000Y-55400000D03*
D36*
X85750000Y-54100000D03*
D14*
X106402500Y-55078000D03*
X108227500Y-55078000D03*
D34*
X150152000Y-55084500D03*
X150152000Y-56909500D03*
D27*
X157402000Y-36272000D03*
X157402000Y-39222000D03*
D14*
X148489500Y-53247000D03*
X150314500Y-53247000D03*
D37*
X114438000Y-55850500D03*
X116338000Y-55850500D03*
D32*
X143175000Y-52350000D03*
X143175000Y-54250000D03*
D31*
X55880000Y-67075500D03*
X55880000Y-73000500D03*
D18*
X143279500Y-103312000D03*
X141454500Y-103312000D03*
X74572500Y-170114000D03*
X72747500Y-170114000D03*
D38*
X139290000Y-33480000D03*
X139290000Y-37520000D03*
X138020000Y-33480000D03*
X138020000Y-37520000D03*
X136750000Y-33480000D03*
X136750000Y-37520000D03*
X135480000Y-33480000D03*
X135480000Y-37520000D03*
X134210000Y-33480000D03*
X134210000Y-37520000D03*
D14*
X139422500Y-40259000D03*
X141247500Y-40259000D03*
D39*
X148209000Y-44577000D03*
D23*
X133675000Y-44000000D03*
X133675000Y-42100000D03*
D40*
X89837500Y-52200000D03*
X89837500Y-50300000D03*
X87962500Y-51250000D03*
D41*
X159312500Y-55000000D03*
X165687500Y-55000000D03*
D32*
X139175000Y-55100000D03*
X139175000Y-57000000D03*
D34*
X96083499Y-52225900D03*
X96083499Y-54050900D03*
X127675000Y-50387500D03*
X127675000Y-52212500D03*
D42*
X94167499Y-54080400D03*
X94167499Y-53130400D03*
X94167499Y-52180400D03*
X91892499Y-52180400D03*
X91892499Y-53130400D03*
X91892499Y-54080400D03*
D37*
X152250000Y-47325000D03*
X154150000Y-47325000D03*
D34*
X122428000Y-57611000D03*
X122428000Y-59436000D03*
D15*
X122152000Y-43159500D03*
X122152000Y-41334500D03*
D17*
X69928000Y-130302000D03*
X66978000Y-130302000D03*
D43*
X152062500Y-52217000D03*
X152062500Y-53167000D03*
X152062500Y-54117000D03*
X154337500Y-54117000D03*
X154337500Y-53167000D03*
X154337500Y-52217000D03*
D31*
X55880000Y-169183500D03*
X55880000Y-175108500D03*
D44*
X62611000Y-104440000D03*
X62611000Y-105090000D03*
X62611000Y-105740000D03*
X64511000Y-105740000D03*
X64511000Y-105090000D03*
X64511000Y-104440000D03*
D19*
X97542000Y-145350000D03*
X129542000Y-145350000D03*
X97542000Y-130650000D03*
X129542000Y-130650000D03*
D20*
X61042000Y-134725000D03*
X154042000Y-134725000D03*
X58761581Y-133780419D03*
X63322419Y-133780419D03*
X151761581Y-133780419D03*
X156322419Y-133780419D03*
X57817000Y-131500000D03*
D21*
X61042000Y-131500000D03*
D20*
X64267000Y-131500000D03*
X150817000Y-131500000D03*
D21*
X154042000Y-131500000D03*
D20*
X157267000Y-131500000D03*
X58761581Y-129219581D03*
X63322419Y-129219581D03*
X151761581Y-129219581D03*
X156322419Y-129219581D03*
X61042000Y-128275000D03*
X154042000Y-128275000D03*
X61042000Y-147725000D03*
X154042000Y-147725000D03*
X58761581Y-146780419D03*
X63322419Y-146780419D03*
X151761581Y-146780419D03*
X156322419Y-146780419D03*
X57817000Y-144500000D03*
D21*
X61042000Y-144500000D03*
D20*
X64267000Y-144500000D03*
X150817000Y-144500000D03*
D21*
X154042000Y-144500000D03*
D20*
X157267000Y-144500000D03*
X58761581Y-142219581D03*
X63322419Y-142219581D03*
X151761581Y-142219581D03*
X156322419Y-142219581D03*
X61042000Y-141275000D03*
X154042000Y-141275000D03*
D22*
X70042000Y-132285000D03*
X67042000Y-133555000D03*
X70042000Y-134825000D03*
X67042000Y-136095000D03*
X70042000Y-137365000D03*
X67042000Y-138635000D03*
X70042000Y-139905000D03*
X67042000Y-141175000D03*
X70042000Y-142445000D03*
X67042000Y-143715000D03*
X148542000Y-134825000D03*
X145542000Y-136095000D03*
X148542000Y-137365000D03*
X145542000Y-138635000D03*
X148542000Y-139905000D03*
X145542000Y-141175000D03*
D34*
X121920000Y-46562000D03*
X121920000Y-48387000D03*
D44*
X62573500Y-70531000D03*
X62573500Y-71181000D03*
X62573500Y-71831000D03*
X64473500Y-71831000D03*
X64473500Y-71181000D03*
X64473500Y-70531000D03*
D34*
X89916000Y-53824500D03*
X89916000Y-55649500D03*
D13*
X118806000Y-57835800D03*
X116906000Y-57835800D03*
D17*
X69928000Y-96139000D03*
X66978000Y-96139000D03*
D15*
X123825000Y-48410500D03*
X123825000Y-46585500D03*
D32*
X167200000Y-60200000D03*
X167200000Y-62100000D03*
D31*
X159131000Y-168929500D03*
X159131000Y-174854500D03*
D45*
X83562000Y-50277000D03*
X82292000Y-50277000D03*
X81012000Y-50277000D03*
X79742000Y-50277000D03*
D46*
X81652000Y-53547000D03*
D18*
X143279500Y-101407000D03*
X141454500Y-101407000D03*
D13*
X131287500Y-54550000D03*
X129387500Y-54550000D03*
D47*
X129921000Y-48719000D03*
X129921000Y-45769000D03*
D23*
X127675000Y-48750000D03*
X127675000Y-46850000D03*
D18*
X143279500Y-105852000D03*
X141454500Y-105852000D03*
D30*
X112715000Y-55078000D03*
X109915000Y-55078000D03*
D18*
X143279500Y-69403000D03*
X141454500Y-69403000D03*
D48*
X152302000Y-38797000D03*
X152302000Y-36497000D03*
D49*
X146002000Y-36497000D03*
D48*
X152302000Y-34197000D03*
D50*
X126042000Y-37602000D03*
X120262000Y-37602000D03*
D51*
X126352000Y-38677000D03*
X125552000Y-38677000D03*
D52*
X124402000Y-38677000D03*
X123402000Y-38677000D03*
X122902000Y-38677000D03*
X121902000Y-38677000D03*
D51*
X120752000Y-38677000D03*
X119952000Y-38677000D03*
X119952000Y-38677000D03*
X120752000Y-38677000D03*
D52*
X121402000Y-38677000D03*
X122402000Y-38677000D03*
X123902000Y-38677000D03*
X124902000Y-38677000D03*
D51*
X125552000Y-38677000D03*
X126352000Y-38677000D03*
D53*
X127472000Y-38102000D03*
D54*
X127472000Y-33922000D03*
D53*
X118832000Y-38102000D03*
D54*
X118832000Y-33922000D03*
D15*
X125984000Y-43203500D03*
X125984000Y-41378500D03*
D55*
X62402000Y-40349000D03*
X71902000Y-40349000D03*
X81402000Y-40349000D03*
X90902000Y-40349000D03*
X100402000Y-40349000D03*
X109902000Y-40349000D03*
D32*
X87985600Y-53787000D03*
X87985600Y-55687000D03*
D31*
X159131000Y-135147500D03*
X159131000Y-141072500D03*
D40*
X93901500Y-57592000D03*
X93901500Y-55692000D03*
X92026500Y-56642000D03*
D33*
X75106000Y-70866000D03*
X78056000Y-70866000D03*
D15*
X124079000Y-43159500D03*
X124079000Y-41334500D03*
D18*
X145057500Y-43561000D03*
X143232500Y-43561000D03*
D14*
X106402500Y-52578000D03*
X108227500Y-52578000D03*
D56*
X164102000Y-45747000D03*
D57*
X164102000Y-39747000D03*
X159402000Y-42747000D03*
D58*
X167080000Y-86614000D03*
X160580000Y-86614000D03*
D13*
X64450000Y-68757800D03*
X62550000Y-68757800D03*
D10*
X162840000Y-170920000D03*
D11*
X165000000Y-176000000D03*
D12*
X165000000Y-173460000D03*
X165000000Y-170920000D03*
X165000000Y-168380000D03*
D13*
X64445000Y-136753600D03*
X62545000Y-136753600D03*
D33*
X75233000Y-173990000D03*
X78183000Y-173990000D03*
D13*
X131287500Y-50550000D03*
X129387500Y-50550000D03*
D59*
X117960000Y-55500000D03*
X119230000Y-55500000D03*
X120500000Y-55500000D03*
X121770000Y-55500000D03*
X123040000Y-55500000D03*
X124310000Y-55500000D03*
X125580000Y-55500000D03*
X125580000Y-50550000D03*
X124310000Y-50550000D03*
X123040000Y-50550000D03*
X121770000Y-50550000D03*
X120500000Y-50550000D03*
X119230000Y-50550000D03*
X117960000Y-50550000D03*
D18*
X143279500Y-67498000D03*
X141454500Y-67498000D03*
D44*
X62423000Y-172497000D03*
X62423000Y-173147000D03*
X62423000Y-173797000D03*
X64323000Y-173797000D03*
X64323000Y-173147000D03*
X64323000Y-172497000D03*
D18*
X143279500Y-71943000D03*
X141454500Y-71943000D03*
X143279500Y-139888000D03*
X141454500Y-139888000D03*
D27*
X150152000Y-47247000D03*
X150152000Y-50197000D03*
D13*
X64551600Y-170738800D03*
X62651600Y-170738800D03*
D14*
X134827000Y-40247000D03*
X136652000Y-40247000D03*
D32*
X161700000Y-60200000D03*
X161700000Y-62100000D03*
D34*
X137175000Y-55137500D03*
X137175000Y-56962500D03*
D45*
X74062000Y-50277000D03*
X72792000Y-50277000D03*
X71512000Y-50277000D03*
X70242000Y-50277000D03*
D46*
X72152000Y-53547000D03*
D18*
X143279500Y-137348000D03*
X141454500Y-137348000D03*
D60*
X56896000Y-50564000D03*
X56896000Y-54864000D03*
D61*
X127744000Y-42253000D03*
X131844000Y-42253000D03*
X127744000Y-43853000D03*
X131844000Y-43853000D03*
D34*
X133175000Y-55225000D03*
X133175000Y-57050000D03*
D17*
X69928000Y-164465000D03*
X66978000Y-164465000D03*
D18*
X131250000Y-52550000D03*
X129425000Y-52550000D03*
X74445500Y-136078000D03*
X72620500Y-136078000D03*
D31*
X159131000Y-100984500D03*
X159131000Y-106909500D03*
D33*
X75233000Y-140081000D03*
X78183000Y-140081000D03*
D15*
X85725000Y-52162500D03*
X85725000Y-50337500D03*
D62*
X98171000Y-55992000D03*
D63*
X98171000Y-57292000D03*
D31*
X159131000Y-67075500D03*
X159131000Y-73000500D03*
D44*
X163500000Y-60500000D03*
X163500000Y-61150000D03*
X163500000Y-61800000D03*
X165400000Y-61800000D03*
X165400000Y-61150000D03*
X165400000Y-60500000D03*
X62611000Y-138491000D03*
X62611000Y-139141000D03*
X62611000Y-139791000D03*
X64511000Y-139791000D03*
X64511000Y-139141000D03*
X64511000Y-138491000D03*
D34*
X125730000Y-46609000D03*
X125730000Y-48434000D03*
D64*
X134250000Y-45500000D03*
X134250000Y-46300000D03*
X134250000Y-47100000D03*
X134250000Y-47900000D03*
X134250000Y-48700000D03*
X134250000Y-49500000D03*
X134250000Y-50300000D03*
X134250000Y-51100000D03*
D65*
X135625000Y-52475000D03*
X136425000Y-52475000D03*
X137225000Y-52475000D03*
X138025000Y-52475000D03*
X138825000Y-52475000D03*
X139625000Y-52475000D03*
X140425000Y-52475000D03*
X141225000Y-52475000D03*
D64*
X142600000Y-51100000D03*
X142600000Y-50300000D03*
X142600000Y-49500000D03*
X142600000Y-48700000D03*
X142600000Y-47900000D03*
X142600000Y-47100000D03*
X142600000Y-46300000D03*
X142600000Y-45500000D03*
D65*
X141225000Y-44125000D03*
X140425000Y-44125000D03*
X139625000Y-44125000D03*
X138825000Y-44125000D03*
X138025000Y-44125000D03*
X137225000Y-44125000D03*
X136425000Y-44125000D03*
X135625000Y-44125000D03*
D19*
X97542000Y-77350000D03*
X129542000Y-77350000D03*
X97542000Y-62650000D03*
X129542000Y-62650000D03*
D20*
X61042000Y-66725000D03*
X154042000Y-66725000D03*
X58761581Y-65780419D03*
X63322419Y-65780419D03*
X151761581Y-65780419D03*
X156322419Y-65780419D03*
X57817000Y-63500000D03*
D21*
X61042000Y-63500000D03*
D20*
X64267000Y-63500000D03*
X150817000Y-63500000D03*
D21*
X154042000Y-63500000D03*
D20*
X157267000Y-63500000D03*
X58761581Y-61219581D03*
X63322419Y-61219581D03*
X151761581Y-61219581D03*
X156322419Y-61219581D03*
X61042000Y-60275000D03*
X154042000Y-60275000D03*
X61042000Y-79725000D03*
X154042000Y-79725000D03*
X58761581Y-78780419D03*
X63322419Y-78780419D03*
X151761581Y-78780419D03*
X156322419Y-78780419D03*
X57817000Y-76500000D03*
D21*
X61042000Y-76500000D03*
D20*
X64267000Y-76500000D03*
X150817000Y-76500000D03*
D21*
X154042000Y-76500000D03*
D20*
X157267000Y-76500000D03*
X58761581Y-74219581D03*
X63322419Y-74219581D03*
X151761581Y-74219581D03*
X156322419Y-74219581D03*
X61042000Y-73275000D03*
X154042000Y-73275000D03*
D22*
X70042000Y-64285000D03*
X67042000Y-65555000D03*
X70042000Y-66825000D03*
X67042000Y-68095000D03*
X70042000Y-69365000D03*
X67042000Y-70635000D03*
X70042000Y-71905000D03*
X67042000Y-73175000D03*
X70042000Y-74445000D03*
X67042000Y-75715000D03*
X148542000Y-66825000D03*
X145542000Y-68095000D03*
X148542000Y-69365000D03*
X145542000Y-70635000D03*
X148542000Y-71905000D03*
X145542000Y-73175000D03*
D15*
X120523000Y-59436000D03*
X120523000Y-57611000D03*
D45*
X64562000Y-50277000D03*
X63292000Y-50277000D03*
X62012000Y-50277000D03*
X60742000Y-50277000D03*
D46*
X62652000Y-53547000D03*
D34*
X126238000Y-57507500D03*
X126238000Y-59332500D03*
G36*
X150693039Y-33269685D02*
G01*
X150738794Y-33322489D01*
X150750000Y-33374000D01*
X150750000Y-39626000D01*
X150730315Y-39693039D01*
X150677511Y-39738794D01*
X150626000Y-39750000D01*
X147124000Y-39750000D01*
X147056961Y-39730315D01*
X147011206Y-39677511D01*
X147000000Y-39626000D01*
X147000000Y-33374000D01*
X147019685Y-33306961D01*
X147072489Y-33261206D01*
X147124000Y-33250000D01*
X150626000Y-33250000D01*
X150693039Y-33269685D01*
G37*
M02*
