G04 #@! TF.GenerationSoftware,KiCad,Pcbnew,8.0.1-8.0.1-1~ubuntu22.04.1*
G04 #@! TF.CreationDate,2024-04-04T11:17:19+02:00*
G04 #@! TF.ProjectId,flex4axe,666c6578-3461-4786-952e-6b696361645f,302*
G04 #@! TF.SameCoordinates,Original*
G04 #@! TF.FileFunction,Paste,Top*
G04 #@! TF.FilePolarity,Positive*
%FSLAX46Y46*%
G04 Gerber Fmt 4.6, Leading zero omitted, Abs format (unit mm)*
G04 Created by KiCad (PCBNEW 8.0.1-8.0.1-1~ubuntu22.04.1) date 2024-04-04 11:17:19*
%MOMM*%
%LPD*%
G01*
G04 APERTURE LIST*
G04 Aperture macros list*
%AMRoundRect*
0 Rectangle with rounded corners*
0 $1 Rounding radius*
0 $2 $3 $4 $5 $6 $7 $8 $9 X,Y pos of 4 corners*
0 Add a 4 corners polygon primitive as box body*
4,1,4,$2,$3,$4,$5,$6,$7,$8,$9,$2,$3,0*
0 Add four circle primitives for the rounded corners*
1,1,$1+$1,$2,$3*
1,1,$1+$1,$4,$5*
1,1,$1+$1,$6,$7*
1,1,$1+$1,$8,$9*
0 Add four rect primitives between the rounded corners*
20,1,$1+$1,$2,$3,$4,$5,0*
20,1,$1+$1,$4,$5,$6,$7,0*
20,1,$1+$1,$6,$7,$8,$9,0*
20,1,$1+$1,$8,$9,$2,$3,0*%
G04 Aperture macros list end*
%ADD10RoundRect,0.200000X0.200000X0.380000X-0.200000X0.380000X-0.200000X-0.380000X0.200000X-0.380000X0*%
%ADD11RoundRect,0.200000X-0.210000X-0.360000X0.210000X-0.360000X0.210000X0.360000X-0.210000X0.360000X0*%
%ADD12RoundRect,0.200000X0.360000X-0.210000X0.360000X0.210000X-0.360000X0.210000X-0.360000X-0.210000X0*%
%ADD13R,1.200000X3.200000*%
%ADD14RoundRect,0.200000X0.260000X0.520000X-0.260000X0.520000X-0.260000X-0.520000X0.260000X-0.520000X0*%
%ADD15RoundRect,0.200000X0.210000X0.360000X-0.210000X0.360000X-0.210000X-0.360000X0.210000X-0.360000X0*%
%ADD16R,2.400000X0.520000*%
%ADD17RoundRect,0.200000X0.380000X-0.200000X0.380000X0.200000X-0.380000X0.200000X-0.380000X-0.200000X0*%
%ADD18RoundRect,0.120000X0.120000X-0.470000X0.120000X0.470000X-0.120000X0.470000X-0.120000X-0.470000X0*%
%ADD19RoundRect,0.200000X-0.520000X0.260000X-0.520000X-0.260000X0.520000X-0.260000X0.520000X0.260000X0*%
%ADD20RoundRect,0.200000X0.360000X0.640000X-0.360000X0.640000X-0.360000X-0.640000X0.360000X-0.640000X0*%
%ADD21RoundRect,0.200000X-0.800000X-0.720000X0.800000X-0.720000X0.800000X0.720000X-0.800000X0.720000X0*%
%ADD22RoundRect,0.200000X0.300000X0.500000X-0.300000X0.500000X-0.300000X-0.500000X0.300000X-0.500000X0*%
%ADD23RoundRect,0.200000X-1.140000X0.290000X-1.140000X-0.290000X1.140000X-0.290000X1.140000X0.290000X0*%
%ADD24RoundRect,0.200000X-0.380000X0.200000X-0.380000X-0.200000X0.380000X-0.200000X0.380000X0.200000X0*%
%ADD25RoundRect,0.200000X-0.260000X-0.520000X0.260000X-0.520000X0.260000X0.520000X-0.260000X0.520000X0*%
%ADD26RoundRect,0.200000X-0.360000X0.210000X-0.360000X-0.210000X0.360000X-0.210000X0.360000X0.210000X0*%
%ADD27RoundRect,0.200000X-0.200000X-0.380000X0.200000X-0.380000X0.200000X0.380000X-0.200000X0.380000X0*%
%ADD28R,0.520000X2.208000*%
%ADD29RoundRect,0.120000X0.470000X0.120000X-0.470000X0.120000X-0.470000X-0.120000X0.470000X-0.120000X0*%
%ADD30R,3.396000X3.048000*%
%ADD31RoundRect,0.120000X0.410000X0.120000X-0.410000X0.120000X-0.410000X-0.120000X0.410000X-0.120000X0*%
%ADD32RoundRect,0.120000X-0.410000X-0.120000X0.410000X-0.120000X0.410000X0.120000X-0.410000X0.120000X0*%
%ADD33R,0.520000X0.320000*%
%ADD34R,0.900000X0.600000*%
%ADD35R,0.600000X0.900000*%
%ADD36R,0.460000X0.820000*%
%ADD37RoundRect,0.200000X0.520000X-0.260000X0.520000X0.260000X-0.520000X0.260000X-0.520000X-0.260000X0*%
%ADD38R,1.600000X1.200000*%
%ADD39R,1.600000X3.040000*%
%ADD40R,0.480000X0.920000*%
%ADD41R,0.240000X0.920000*%
%ADD42O,0.800000X1.680000*%
%ADD43O,0.800000X1.440000*%
%ADD44RoundRect,0.200000X1.200000X0.800000X-1.200000X0.800000X-1.200000X-0.800000X1.200000X-0.800000X0*%
%ADD45RoundRect,0.120000X0.120000X-0.660000X0.120000X0.660000X-0.120000X0.660000X-0.120000X-0.660000X0*%
%ADD46RoundRect,0.200000X-0.720000X0.800000X-0.720000X-0.800000X0.720000X-0.800000X0.720000X0.800000X0*%
%ADD47R,0.720000X0.800000*%
%ADD48RoundRect,0.100000X-0.500000X-0.100000X0.500000X-0.100000X0.500000X0.100000X-0.500000X0.100000X0*%
%ADD49RoundRect,0.100000X-0.100000X-0.500000X0.100000X-0.500000X0.100000X0.500000X-0.100000X0.500000X0*%
G04 APERTURE END LIST*
D10*
X64475400Y-102692200D03*
X62575400Y-102692200D03*
D11*
X118489500Y-41497000D03*
X120314500Y-41497000D03*
D12*
X95885000Y-57427500D03*
X95885000Y-55602500D03*
D13*
X154492000Y-43515000D03*
X150892000Y-43515000D03*
D14*
X154891000Y-56134000D03*
X151941000Y-56134000D03*
D15*
X143279500Y-135443000D03*
X141454500Y-135443000D03*
D16*
X70042000Y-166285000D03*
X67042000Y-167555000D03*
X70042000Y-168825000D03*
X67042000Y-170095000D03*
X70042000Y-171365000D03*
X67042000Y-172635000D03*
X70042000Y-173905000D03*
X67042000Y-175175000D03*
X70042000Y-176445000D03*
X67042000Y-177715000D03*
X148542000Y-168825000D03*
X145542000Y-170095000D03*
X148542000Y-171365000D03*
X145542000Y-172635000D03*
X148542000Y-173905000D03*
X145542000Y-175175000D03*
D17*
X132175000Y-48750000D03*
X132175000Y-46850000D03*
D12*
X124333000Y-59332500D03*
X124333000Y-57507500D03*
X120015000Y-48387000D03*
X120015000Y-46562000D03*
D18*
X114493000Y-53769500D03*
X116393000Y-53769500D03*
X115443000Y-51894500D03*
D15*
X131250000Y-56550000D03*
X129425000Y-56550000D03*
D16*
X70042000Y-98285000D03*
X67042000Y-99555000D03*
X70042000Y-100825000D03*
X67042000Y-102095000D03*
X70042000Y-103365000D03*
X67042000Y-104635000D03*
X70042000Y-105905000D03*
X67042000Y-107175000D03*
X70042000Y-108445000D03*
X67042000Y-109715000D03*
X148542000Y-100825000D03*
X145542000Y-102095000D03*
X148542000Y-103365000D03*
X145542000Y-104635000D03*
X148542000Y-105905000D03*
X145542000Y-107175000D03*
D19*
X154902000Y-36272000D03*
X154902000Y-39222000D03*
D20*
X156670000Y-49865000D03*
X152270000Y-49865000D03*
D21*
X160850000Y-50000000D03*
X165150000Y-50000000D03*
D22*
X112715000Y-52578000D03*
X109915000Y-52578000D03*
D10*
X93858499Y-50444400D03*
X91958499Y-50444400D03*
D23*
X55880000Y-100984500D03*
X55880000Y-106909500D03*
D11*
X130659500Y-40259000D03*
X132484500Y-40259000D03*
D24*
X135175000Y-55187500D03*
X135175000Y-57087500D03*
D23*
X55880000Y-134893500D03*
X55880000Y-140818500D03*
D25*
X75106000Y-106045000D03*
X78056000Y-106045000D03*
D15*
X74445500Y-102042000D03*
X72620500Y-102042000D03*
D26*
X143129000Y-39981500D03*
X143129000Y-41806500D03*
D11*
X106402500Y-55078000D03*
X108227500Y-55078000D03*
D26*
X150152000Y-55084500D03*
X150152000Y-56909500D03*
D19*
X157402000Y-36272000D03*
X157402000Y-39222000D03*
D11*
X148489500Y-53247000D03*
X150314500Y-53247000D03*
D27*
X114438000Y-55850500D03*
X116338000Y-55850500D03*
D24*
X143175000Y-52350000D03*
X143175000Y-54250000D03*
D23*
X55880000Y-67075500D03*
X55880000Y-73000500D03*
D15*
X143279500Y-103312000D03*
X141454500Y-103312000D03*
X74572500Y-170114000D03*
X72747500Y-170114000D03*
D28*
X139290000Y-33480000D03*
X139290000Y-37520000D03*
X138020000Y-33480000D03*
X138020000Y-37520000D03*
X136750000Y-33480000D03*
X136750000Y-37520000D03*
X135480000Y-33480000D03*
X135480000Y-37520000D03*
X134210000Y-33480000D03*
X134210000Y-37520000D03*
D11*
X139422500Y-40259000D03*
X141247500Y-40259000D03*
D17*
X133675000Y-44000000D03*
X133675000Y-42100000D03*
D29*
X89837500Y-52200000D03*
X89837500Y-50300000D03*
X87962500Y-51250000D03*
D30*
X159312500Y-55000000D03*
X165687500Y-55000000D03*
D24*
X139175000Y-55100000D03*
X139175000Y-57000000D03*
D26*
X96083499Y-52225900D03*
X96083499Y-54050900D03*
X127675000Y-50387500D03*
X127675000Y-52212500D03*
D31*
X94167499Y-54080400D03*
X94167499Y-53130400D03*
X94167499Y-52180400D03*
X91892499Y-52180400D03*
X91892499Y-53130400D03*
X91892499Y-54080400D03*
D27*
X152250000Y-47325000D03*
X154150000Y-47325000D03*
D26*
X122428000Y-57611000D03*
X122428000Y-59436000D03*
D12*
X122152000Y-43159500D03*
X122152000Y-41334500D03*
D14*
X69928000Y-130302000D03*
X66978000Y-130302000D03*
D32*
X152062500Y-52217000D03*
X152062500Y-53167000D03*
X152062500Y-54117000D03*
X154337500Y-54117000D03*
X154337500Y-53167000D03*
X154337500Y-52217000D03*
D23*
X55880000Y-169183500D03*
X55880000Y-175108500D03*
D33*
X62611000Y-104440000D03*
X62611000Y-105090000D03*
X62611000Y-105740000D03*
X64511000Y-105740000D03*
X64511000Y-105090000D03*
X64511000Y-104440000D03*
D16*
X70042000Y-132285000D03*
X67042000Y-133555000D03*
X70042000Y-134825000D03*
X67042000Y-136095000D03*
X70042000Y-137365000D03*
X67042000Y-138635000D03*
X70042000Y-139905000D03*
X67042000Y-141175000D03*
X70042000Y-142445000D03*
X67042000Y-143715000D03*
X148542000Y-134825000D03*
X145542000Y-136095000D03*
X148542000Y-137365000D03*
X145542000Y-138635000D03*
X148542000Y-139905000D03*
X145542000Y-141175000D03*
D26*
X121920000Y-46562000D03*
X121920000Y-48387000D03*
D33*
X62573500Y-70531000D03*
X62573500Y-71181000D03*
X62573500Y-71831000D03*
X64473500Y-71831000D03*
X64473500Y-71181000D03*
X64473500Y-70531000D03*
D26*
X89916000Y-53824500D03*
X89916000Y-55649500D03*
D10*
X118806000Y-57835800D03*
X116906000Y-57835800D03*
D14*
X69928000Y-96139000D03*
X66978000Y-96139000D03*
D12*
X123825000Y-48410500D03*
X123825000Y-46585500D03*
D24*
X167200000Y-60200000D03*
X167200000Y-62100000D03*
D23*
X159131000Y-168929500D03*
X159131000Y-174854500D03*
D34*
X82802000Y-52447000D03*
X81652000Y-52447000D03*
X80502000Y-52447000D03*
X82802000Y-53297000D03*
X81652000Y-53297000D03*
X80502000Y-53297000D03*
X82802000Y-54147000D03*
X81652000Y-54147000D03*
X80502000Y-54147000D03*
D35*
X83532000Y-55997000D03*
X82252000Y-55997000D03*
X81052000Y-55997000D03*
X79772000Y-55997000D03*
D36*
X83562000Y-50277000D03*
X82292000Y-50277000D03*
X81012000Y-50277000D03*
X79742000Y-50277000D03*
D15*
X143279500Y-101407000D03*
X141454500Y-101407000D03*
D10*
X131287500Y-54550000D03*
X129387500Y-54550000D03*
D37*
X129921000Y-48719000D03*
X129921000Y-45769000D03*
D17*
X127675000Y-48750000D03*
X127675000Y-46850000D03*
D15*
X143279500Y-105852000D03*
X141454500Y-105852000D03*
D22*
X112715000Y-55078000D03*
X109915000Y-55078000D03*
D15*
X143279500Y-69403000D03*
X141454500Y-69403000D03*
D38*
X152302000Y-38797000D03*
X152302000Y-36497000D03*
D39*
X146002000Y-36497000D03*
D38*
X152302000Y-34197000D03*
D40*
X126352000Y-38677000D03*
X125552000Y-38677000D03*
D41*
X124402000Y-38677000D03*
X123402000Y-38677000D03*
X122902000Y-38677000D03*
X121902000Y-38677000D03*
D40*
X120752000Y-38677000D03*
X119952000Y-38677000D03*
X119952000Y-38677000D03*
X120752000Y-38677000D03*
D41*
X121402000Y-38677000D03*
X122402000Y-38677000D03*
X123902000Y-38677000D03*
X124902000Y-38677000D03*
D40*
X125552000Y-38677000D03*
X126352000Y-38677000D03*
D42*
X127472000Y-38102000D03*
D43*
X127472000Y-33922000D03*
D42*
X118832000Y-38102000D03*
D43*
X118832000Y-33922000D03*
D12*
X125984000Y-43203500D03*
X125984000Y-41378500D03*
D24*
X87985600Y-53787000D03*
X87985600Y-55687000D03*
D23*
X159131000Y-135147500D03*
X159131000Y-141072500D03*
D29*
X93901500Y-57592000D03*
X93901500Y-55692000D03*
X92026500Y-56642000D03*
D25*
X75106000Y-70866000D03*
X78056000Y-70866000D03*
D12*
X124079000Y-43159500D03*
X124079000Y-41334500D03*
D15*
X145057500Y-43561000D03*
X143232500Y-43561000D03*
D11*
X106402500Y-52578000D03*
X108227500Y-52578000D03*
D44*
X167080000Y-86614000D03*
X160580000Y-86614000D03*
D10*
X64450000Y-68757800D03*
X62550000Y-68757800D03*
X64445000Y-136753600D03*
X62545000Y-136753600D03*
D25*
X75233000Y-173990000D03*
X78183000Y-173990000D03*
D10*
X131287500Y-50550000D03*
X129387500Y-50550000D03*
D45*
X117960000Y-55500000D03*
X119230000Y-55500000D03*
X120500000Y-55500000D03*
X121770000Y-55500000D03*
X123040000Y-55500000D03*
X124310000Y-55500000D03*
X125580000Y-55500000D03*
X125580000Y-50550000D03*
X124310000Y-50550000D03*
X123040000Y-50550000D03*
X121770000Y-50550000D03*
X120500000Y-50550000D03*
X119230000Y-50550000D03*
X117960000Y-50550000D03*
D15*
X143279500Y-67498000D03*
X141454500Y-67498000D03*
D33*
X62423000Y-172497000D03*
X62423000Y-173147000D03*
X62423000Y-173797000D03*
X64323000Y-173797000D03*
X64323000Y-173147000D03*
X64323000Y-172497000D03*
D15*
X143279500Y-71943000D03*
X141454500Y-71943000D03*
X143279500Y-139888000D03*
X141454500Y-139888000D03*
D19*
X150152000Y-47247000D03*
X150152000Y-50197000D03*
D10*
X64551600Y-170738800D03*
X62651600Y-170738800D03*
D11*
X134827000Y-40247000D03*
X136652000Y-40247000D03*
D24*
X161700000Y-60200000D03*
X161700000Y-62100000D03*
D26*
X137175000Y-55137500D03*
X137175000Y-56962500D03*
D34*
X73302000Y-52447000D03*
X72152000Y-52447000D03*
X71002000Y-52447000D03*
X73302000Y-53297000D03*
X72152000Y-53297000D03*
X71002000Y-53297000D03*
X73302000Y-54147000D03*
X72152000Y-54147000D03*
X71002000Y-54147000D03*
D35*
X74032000Y-55997000D03*
X72752000Y-55997000D03*
X71552000Y-55997000D03*
X70272000Y-55997000D03*
D36*
X74062000Y-50277000D03*
X72792000Y-50277000D03*
X71512000Y-50277000D03*
X70242000Y-50277000D03*
D15*
X143279500Y-137348000D03*
X141454500Y-137348000D03*
D46*
X56896000Y-50564000D03*
X56896000Y-54864000D03*
D47*
X127744000Y-42253000D03*
X131844000Y-42253000D03*
X127744000Y-43853000D03*
X131844000Y-43853000D03*
D26*
X133175000Y-55225000D03*
X133175000Y-57050000D03*
D14*
X69928000Y-164465000D03*
X66978000Y-164465000D03*
D15*
X131250000Y-52550000D03*
X129425000Y-52550000D03*
X74445500Y-136078000D03*
X72620500Y-136078000D03*
D23*
X159131000Y-100984500D03*
X159131000Y-106909500D03*
D25*
X75233000Y-140081000D03*
X78183000Y-140081000D03*
D12*
X85725000Y-52162500D03*
X85725000Y-50337500D03*
D23*
X159131000Y-67075500D03*
X159131000Y-73000500D03*
D33*
X163500000Y-60500000D03*
X163500000Y-61150000D03*
X163500000Y-61800000D03*
X165400000Y-61800000D03*
X165400000Y-61150000D03*
X165400000Y-60500000D03*
X62611000Y-138491000D03*
X62611000Y-139141000D03*
X62611000Y-139791000D03*
X64511000Y-139791000D03*
X64511000Y-139141000D03*
X64511000Y-138491000D03*
D26*
X125730000Y-46609000D03*
X125730000Y-48434000D03*
D48*
X134250000Y-45500000D03*
X134250000Y-46300000D03*
X134250000Y-47100000D03*
X134250000Y-47900000D03*
X134250000Y-48700000D03*
X134250000Y-49500000D03*
X134250000Y-50300000D03*
X134250000Y-51100000D03*
D49*
X135625000Y-52475000D03*
X136425000Y-52475000D03*
X137225000Y-52475000D03*
X138025000Y-52475000D03*
X138825000Y-52475000D03*
X139625000Y-52475000D03*
X140425000Y-52475000D03*
X141225000Y-52475000D03*
D48*
X142600000Y-51100000D03*
X142600000Y-50300000D03*
X142600000Y-49500000D03*
X142600000Y-48700000D03*
X142600000Y-47900000D03*
X142600000Y-47100000D03*
X142600000Y-46300000D03*
X142600000Y-45500000D03*
D49*
X141225000Y-44125000D03*
X140425000Y-44125000D03*
X139625000Y-44125000D03*
X138825000Y-44125000D03*
X138025000Y-44125000D03*
X137225000Y-44125000D03*
X136425000Y-44125000D03*
X135625000Y-44125000D03*
D16*
X70042000Y-64285000D03*
X67042000Y-65555000D03*
X70042000Y-66825000D03*
X67042000Y-68095000D03*
X70042000Y-69365000D03*
X67042000Y-70635000D03*
X70042000Y-71905000D03*
X67042000Y-73175000D03*
X70042000Y-74445000D03*
X67042000Y-75715000D03*
X148542000Y-66825000D03*
X145542000Y-68095000D03*
X148542000Y-69365000D03*
X145542000Y-70635000D03*
X148542000Y-71905000D03*
X145542000Y-73175000D03*
D12*
X120523000Y-59436000D03*
X120523000Y-57611000D03*
D34*
X63802000Y-52447000D03*
X62652000Y-52447000D03*
X61502000Y-52447000D03*
X63802000Y-53297000D03*
X62652000Y-53297000D03*
X61502000Y-53297000D03*
X63802000Y-54147000D03*
X62652000Y-54147000D03*
X61502000Y-54147000D03*
D35*
X64532000Y-55997000D03*
X63252000Y-55997000D03*
X62052000Y-55997000D03*
X60772000Y-55997000D03*
D36*
X64562000Y-50277000D03*
X63292000Y-50277000D03*
X62012000Y-50277000D03*
X60742000Y-50277000D03*
D26*
X126238000Y-57507500D03*
X126238000Y-59332500D03*
M02*
